  0
SECTION
  2
HEADER
  9
$ACADVER
  1
AC1014
  9
$HANDSEED
  5
FFFF
  9
$MEASUREMENT
 70
     1
  0
ENDSEC
  0
SECTION
  2
TABLES
  0
TABLE
  2
VPORT
  5
8
330
0
100
AcDbSymbolTable
 70
     4
  0
VPORT
  5
2E
330
8
100
AcDbSymbolTableRecord
100
AcDbViewportTableRecord
  2
*ACTIVE
 70
     0
 10
0.0
 20
0.0
 11
1.0
 21
1.0
 12
210.0
 22
148.5
 13
0.0
 23
0.0
 14
10.0
 24
10.0
 15
10.0
 25
10.0
 16
0.0
 26
0.0
 36
1.0
 17
0.0
 27
0.0
 37
0.0
 40
341.0
 41
1.24
 42
50.0
 43
0.0
 44
0.0
 50
0.0
 51
0.0
 71
     0
 72
   100
 73
     1
 74
     3
 75
     0
 76
     0
 77
     0
 78
     0
  0
ENDTAB
  0
TABLE
  2
LTYPE
  5
5
330
0
100
AcDbSymbolTable
 70
     1
  0
LTYPE
  5
14
330
5
100
AcDbSymbolTableRecord
100
AcDbLinetypeTableRecord
  2
BYBLOCK
 70
     0
  3

 72
    65
 73
     0
 40
0.0
  0
LTYPE
  5
15
330
5
100
AcDbSymbolTableRecord
100
AcDbLinetypeTableRecord
  2
BYLAYER
 70
     0
  3

 72
    65
 73
     0
 40
0.0
  0
LTYPE
  5
16
330
5
100
AcDbSymbolTableRecord
100
AcDbLinetypeTableRecord
  2
CONTINUOUS
 70
     0
  3
Solid line
 72
    65
 73
     0
 40
0.0
  0
ENDTAB
  0
TABLE
  2
LAYER
  5
2
100
AcDbSymbolTable
 70
1
  0
LAYER
  5
50
100
AcDbSymbolTableRecord
100
AcDbLayerTableRecord
  2
0
 70
0
  6
CONTINUOUS
  0
ENDTAB
  0
TABLE
  2
STYLE
  5
3
330
0
100
AcDbSymbolTable
 70
     1
  0
STYLE
  5
11
330
3
100
AcDbSymbolTableRecord
100
AcDbTextStyleTableRecord
  2
STANDARD
 70
     0
 40
0.0
 41
1.0
 50
0.0
 71
     0
 42
2.5
  3
txt
  4

  0
ENDTAB
  0
TABLE
  2
VIEW
  5
6
330
0
100
AcDbSymbolTable
 70
     0
  0
ENDTAB
  0
TABLE
  2
UCS
  5
7
330
0
100
AcDbSymbolTable
 70
     0
  0
ENDTAB
  0
TABLE
  2
APPID
  5
9
330
0
100
AcDbSymbolTable
 70
     2
  0
APPID
  5
12
330
9
100
AcDbSymbolTableRecord
100
AcDbRegAppTableRecord
  2
ACAD
 70
     0
  0
ENDTAB
  0
TABLE
  2
DIMSTYLE
  5
A
330
0
100
AcDbSymbolTable
 70
     1
  0
DIMSTYLE
105
27
330
A
100
AcDbSymbolTableRecord
100
AcDbDimStyleTableRecord
  2
ISO-25
 70
     0
  3

  4

  5

  6

  7

 40
1.0
 41
2.5
 42
0.625
 43
3.75
 44
1.25
 45
0.0
 46
0.0
 47
0.0
 48
0.0
140
2.5
141
2.5
142
0.0
143
0.03937007874016
144
1.0
145
0.0
146
1.0
147
0.625
 71
     0
 72
     0
 73
     0
 74
     0
 75
     0
 76
     0
 77
     1
 78
     8
170
     0
171
     3
172
     1
173
     0
174
     0
175
     0
176
     0
177
     0
178
     0
270
     2
271
     2
272
     2
273
     2
274
     3
340
11
275
     0
280
     0
281
     0
282
     0
283
     0
284
     8
285
     0
286
     0
287
     3
288
     0
  0
ENDTAB
  0
TABLE
  2
BLOCK_RECORD
  5
1
330
0
100
AcDbSymbolTable
 70
     1
  0
BLOCK_RECORD
  5
1F
330
1
100
AcDbSymbolTableRecord
100
AcDbBlockTableRecord
  2
*MODEL_SPACE
  0
BLOCK_RECORD
  5
1B
330
1
100
AcDbSymbolTableRecord
100
AcDbBlockTableRecord
  2
*PAPER_SPACE
  0
ENDTAB
  0
ENDSEC
  0
SECTION
  2
BLOCKS
  0
BLOCK
  5
20
330
1F
100
AcDbEntity
  8
0
100
AcDbBlockBegin
  2
*MODEL_SPACE
 70
     0
 10
0.0
 20
0.0
 30
0.0
  3
*MODEL_SPACE
  1

  0
ENDBLK
  5
21
330
1F
100
AcDbEntity
  8
0
100
AcDbBlockEnd
  0
BLOCK
  5
1C
330
1B
100
AcDbEntity
 67
     1
  8
0
100
AcDbBlockBegin
  2
*PAPER_SPACE
  1

  0
ENDBLK
  5
1D
330
1B
100
AcDbEntity
 67
     1
  8
0
100
AcDbBlockEnd
  0
ENDSEC
  0
SECTION
  2
ENTITIES
  0
SPLINE
  5
100
100
AcDbEntity
  8
0
 62
1
100
AcDbSpline
 70
8
 71
3
 72
8
 73
4
 74
0
 40
0
 40
0
 40
0
 40
0
 40
1
 40
1
 40
1
 40
1
 10
142.464691
 20
125.451025
 30
0.0
 10
142.464690
 20
124.346455
 30
0.0
 10
143.360120
 20
123.451024
 30
0.0
 10
144.464690
 20
123.451023
 30
0.0
  0
LINE
  5
101
100
AcDbEntity
  8
0
 62
1
100
AcDbLine
 10
154.464691
 20
123.451023
 30
0.0
 11
144.464690
 21
123.451023
 31
0.0
  0
LINE
  5
102
100
AcDbEntity
  8
0
 62
1
100
AcDbLine
 10
74.461795
 20
129.416822
 30
0.0
 11
64.461796
 21
129.416822
 31
0.0
  0
SPLINE
  5
103
100
AcDbEntity
  8
0
 62
1
100
AcDbSpline
 70
8
 71
3
 72
8
 73
4
 74
0
 40
0
 40
0
 40
0
 40
0
 40
1
 40
1
 40
1
 40
1
 10
64.461796
 20
129.416822
 30
0.0
 10
63.931363
 20
129.416822
 30
0.0
 10
63.422655
 20
129.206109
 30
0.0
 10
63.047582
 20
128.831036
 30
0.0
  0
SPLINE
  5
104
100
AcDbEntity
  8
0
 62
1
100
AcDbSpline
 70
8
 71
3
 72
8
 73
4
 74
0
 40
0
 40
0
 40
0
 40
0
 40
1
 40
1
 40
1
 40
1
 10
63.047582
 20
128.831036
 30
0.0
 10
62.672509
 20
128.455964
 30
0.0
 10
62.461795
 20
127.947256
 30
0.0
 10
62.461795
 20
127.416823
 30
0.0
  0
LINE
  5
105
100
AcDbEntity
  8
0
 62
1
100
AcDbLine
 10
62.461795
 20
127.416823
 30
0.0
 11
62.461795
 21
125.416825
 31
0.0
  0
SPLINE
  5
106
100
AcDbEntity
  8
0
 62
1
100
AcDbSpline
 70
8
 71
3
 72
8
 73
4
 74
0
 40
0
 40
0
 40
0
 40
0
 40
1
 40
1
 40
1
 40
1
 10
62.461795
 20
125.416825
 30
0.0
 10
62.461795
 20
124.886391
 30
0.0
 10
62.672508
 20
124.377683
 30
0.0
 10
63.047582
 20
124.002610
 30
0.0
  0
SPLINE
  5
107
100
AcDbEntity
  8
0
 62
1
100
AcDbSpline
 70
8
 71
3
 72
8
 73
4
 74
0
 40
0
 40
0
 40
0
 40
0
 40
1
 40
1
 40
1
 40
1
 10
63.047582
 20
124.002610
 30
0.0
 10
63.422655
 20
123.627537
 30
0.0
 10
63.931363
 20
123.416823
 30
0.0
 10
64.461796
 20
123.416823
 30
0.0
  0
LINE
  5
108
100
AcDbEntity
  8
0
 62
1
100
AcDbLine
 10
74.461795
 20
123.416823
 30
0.0
 11
64.461796
 21
123.416823
 31
0.0
  0
LINE
  5
109
100
AcDbEntity
  8
0
 62
1
100
AcDbLine
 10
142.464691
 20
127.451023
 30
0.0
 11
142.464691
 21
125.451025
 31
0.0
  0
SPLINE
  5
10a
100
AcDbEntity
  8
0
 62
1
100
AcDbSpline
 70
8
 71
3
 72
8
 73
4
 74
0
 40
0
 40
0
 40
0
 40
0
 40
1
 40
1
 40
1
 40
1
 10
144.464690
 20
129.451022
 30
0.0
 10
143.360121
 20
129.451021
 30
0.0
 10
142.464692
 20
128.555592
 30
0.0
 10
142.464691
 20
127.451023
 30
0.0
  0
LINE
  5
10b
100
AcDbEntity
  8
0
 62
1
100
AcDbLine
 10
154.464691
 20
129.451022
 30
0.0
 11
144.464690
 21
129.451022
 31
0.0
  0
SPLINE
  5
10c
100
AcDbEntity
  8
0
 62
1
100
AcDbSpline
 70
8
 71
3
 72
8
 73
4
 74
0
 40
0
 40
0
 40
0
 40
0
 40
1
 40
1
 40
1
 40
1
 10
74.461795
 20
129.416822
 30
0.0
 10
75.257445
 20
129.416821
 30
0.0
 10
76.020508
 20
129.732892
 30
0.0
 10
76.583117
 20
130.295502
 30
0.0
  0
SPLINE
  5
10d
100
AcDbEntity
  8
0
 62
1
100
AcDbSpline
 70
8
 71
3
 72
8
 73
4
 74
0
 40
0
 40
0
 40
0
 40
0
 40
1
 40
1
 40
1
 40
1
 10
76.583117
 20
130.295502
 30
0.0
 10
77.145727
 20
130.858111
 30
0.0
 10
77.461797
 20
131.621174
 30
0.0
 10
77.461797
 20
132.416824
 30
0.0
  0
SPLINE
  5
10e
100
AcDbEntity
  8
0
 62
1
100
AcDbSpline
 70
8
 71
3
 72
8
 73
4
 74
0
 40
0
 40
0
 40
0
 40
0
 40
1
 40
1
 40
1
 40
1
 10
77.461797
 20
120.416824
 30
0.0
 10
77.461797
 20
121.212474
 30
0.0
 10
77.145726
 20
121.975536
 30
0.0
 10
76.583116
 20
122.538145
 30
0.0
  0
SPLINE
  5
10f
100
AcDbEntity
  8
0
 62
1
100
AcDbSpline
 70
8
 71
3
 72
8
 73
4
 74
0
 40
0
 40
0
 40
0
 40
0
 40
1
 40
1
 40
1
 40
1
 10
76.583116
 20
122.538145
 30
0.0
 10
76.020507
 20
123.100754
 30
0.0
 10
75.257445
 20
123.416824
 30
0.0
 10
74.461795
 20
123.416823
 30
0.0
  0
SPLINE
  5
110
100
AcDbEntity
  8
0
 62
1
100
AcDbSpline
 70
8
 71
3
 72
8
 73
4
 74
0
 40
0
 40
0
 40
0
 40
0
 40
1
 40
1
 40
1
 40
1
 10
154.464691
 20
129.451022
 30
0.0
 10
155.260341
 20
129.451022
 30
0.0
 10
156.023402
 20
129.767093
 30
0.0
 10
156.586011
 20
130.329703
 30
0.0
  0
SPLINE
  5
111
100
AcDbEntity
  8
0
 62
1
100
AcDbSpline
 70
8
 71
3
 72
8
 73
4
 74
0
 40
0
 40
0
 40
0
 40
0
 40
1
 40
1
 40
1
 40
1
 10
156.586011
 20
130.329703
 30
0.0
 10
157.148620
 20
130.892312
 30
0.0
 10
157.464691
 20
131.655374
 30
0.0
 10
157.464690
 20
132.451024
 30
0.0
  0
SPLINE
  5
112
100
AcDbEntity
  8
0
 62
1
100
AcDbSpline
 70
8
 71
3
 72
8
 73
4
 74
0
 40
0
 40
0
 40
0
 40
0
 40
1
 40
1
 40
1
 40
1
 10
157.464690
 20
120.451024
 30
0.0
 10
157.464690
 20
122.107878
 30
0.0
 10
156.121545
 20
123.451023
 30
0.0
 10
154.464691
 20
123.451023
 30
0.0
  0
LINE
  5
113
100
AcDbEntity
  8
0
 62
1
100
AcDbLine
 10
247.119334
 20
129.445603
 30
0.0
 11
257.119335
 21
129.445603
 31
0.0
  0
SPLINE
  5
114
100
AcDbEntity
  8
0
 62
1
100
AcDbSpline
 70
8
 71
3
 72
8
 73
4
 74
0
 40
0
 40
0
 40
0
 40
0
 40
1
 40
1
 40
1
 40
1
 10
259.119334
 20
127.445602
 30
0.0
 10
259.119335
 20
128.550171
 30
0.0
 10
258.223905
 20
129.445603
 30
0.0
 10
257.119335
 20
129.445603
 30
0.0
  0
LINE
  5
115
100
AcDbEntity
  8
0
 62
1
100
AcDbLine
 10
259.119334
 20
127.445602
 30
0.0
 11
259.119334
 21
125.445603
 31
0.0
  0
SPLINE
  5
116
100
AcDbEntity
  8
0
 62
1
100
AcDbSpline
 70
8
 71
3
 72
8
 73
4
 74
0
 40
0
 40
0
 40
0
 40
0
 40
1
 40
1
 40
1
 40
1
 10
257.119335
 20
123.445605
 30
0.0
 10
258.223904
 20
123.445605
 30
0.0
 10
259.119333
 20
124.341035
 30
0.0
 10
259.119334
 20
125.445603
 30
0.0
  0
LINE
  5
117
100
AcDbEntity
  8
0
 62
1
100
AcDbLine
 10
247.119334
 20
123.445605
 30
0.0
 11
257.119335
 21
123.445605
 31
0.0
  0
LINE
  5
118
100
AcDbEntity
  8
0
 62
1
100
AcDbLine
 10
327.629082
 20
129.445460
 30
0.0
 11
337.629088
 21
129.445460
 31
0.0
  0
SPLINE
  5
119
100
AcDbEntity
  8
0
 62
1
100
AcDbSpline
 70
8
 71
3
 72
8
 73
4
 74
0
 40
0
 40
0
 40
0
 40
0
 40
1
 40
1
 40
1
 40
1
 10
339.629074
 20
127.445462
 30
0.0
 10
339.629073
 20
128.550025
 30
0.0
 10
338.733652
 20
129.445452
 30
0.0
 10
337.629088
 20
129.445460
 30
0.0
  0
LINE
  5
11a
100
AcDbEntity
  8
0
 62
1
100
AcDbLine
 10
339.629074
 20
127.445462
 30
0.0
 11
339.629074
 21
125.445463
 31
0.0
  0
SPLINE
  5
11b
100
AcDbEntity
  8
0
 62
1
100
AcDbSpline
 70
8
 71
3
 72
8
 73
4
 74
0
 40
0
 40
0
 40
0
 40
0
 40
1
 40
1
 40
1
 40
1
 10
337.629088
 20
123.445462
 30
0.0
 10
338.733653
 20
123.445470
 30
0.0
 10
339.629074
 20
124.340899
 30
0.0
 10
339.629074
 20
125.445463
 30
0.0
  0
LINE
  5
11c
100
AcDbEntity
  8
0
 62
1
100
AcDbLine
 10
337.629088
 20
123.445462
 30
0.0
 11
327.629082
 21
123.445462
 31
0.0
  0
SPLINE
  5
11d
100
AcDbEntity
  8
0
 62
1
100
AcDbSpline
 70
8
 71
3
 72
8
 73
4
 74
0
 40
0
 40
0
 40
0
 40
0
 40
1
 40
1
 40
1
 40
1
 10
247.119334
 20
123.445605
 30
0.0
 10
245.462481
 20
123.445604
 30
0.0
 10
244.119335
 20
122.102459
 30
0.0
 10
244.119335
 20
120.445605
 30
0.0
  0
SPLINE
  5
11e
100
AcDbEntity
  8
0
 62
1
100
AcDbSpline
 70
8
 71
3
 72
8
 73
4
 74
0
 40
0
 40
0
 40
0
 40
0
 40
1
 40
1
 40
1
 40
1
 10
244.619334
 20
132.445603
 30
0.0
 10
244.481263
 20
130.926820
 30
0.0
 10
245.600551
 20
129.583674
 30
0.0
 10
247.119334
 20
129.445603
 30
0.0
  0
SPLINE
  5
11f
100
AcDbEntity
  8
0
 62
1
100
AcDbSpline
 70
8
 71
3
 72
8
 73
4
 74
0
 40
0
 40
0
 40
0
 40
0
 40
1
 40
1
 40
1
 40
1
 10
327.629082
 20
123.445462
 30
0.0
 10
326.833432
 20
123.445463
 30
0.0
 10
326.070369
 20
123.129393
 30
0.0
 10
325.507759
 20
122.566784
 30
0.0
  0
SPLINE
  5
120
100
AcDbEntity
  8
0
 62
1
100
AcDbSpline
 70
8
 71
3
 72
8
 73
4
 74
0
 40
0
 40
0
 40
0
 40
0
 40
1
 40
1
 40
1
 40
1
 10
325.507759
 20
122.566784
 30
0.0
 10
324.945149
 20
122.004175
 30
0.0
 10
324.629077
 20
121.241113
 30
0.0
 10
324.629077
 20
120.445463
 30
0.0
  0
SPLINE
  5
121
100
AcDbEntity
  8
0
 62
1
100
AcDbSpline
 70
8
 71
3
 72
8
 73
4
 74
0
 40
0
 40
0
 40
0
 40
0
 40
1
 40
1
 40
1
 40
1
 10
324.629077
 20
132.445462
 30
0.0
 10
324.629077
 20
131.649812
 30
0.0
 10
324.945148
 20
130.886749
 30
0.0
 10
325.507758
 20
130.324139
 30
0.0
  0
SPLINE
  5
122
100
AcDbEntity
  8
0
 62
1
100
AcDbSpline
 70
8
 71
3
 72
8
 73
4
 74
0
 40
0
 40
0
 40
0
 40
0
 40
1
 40
1
 40
1
 40
1
 10
325.507758
 20
130.324139
 30
0.0
 10
326.070368
 20
129.761529
 30
0.0
 10
326.833431
 20
129.445459
 30
0.0
 10
327.629082
 20
129.445460
 30
0.0
  0
LINE
  5
123
100
AcDbEntity
  8
0
 62
7
100
AcDbLine
 10
14.668934
 20
87.977740
 30
0.0
 11
30.724145
 21
83.675759
 31
0.0
  0
SPLINE
  5
124
100
AcDbEntity
  8
0
 62
7
100
AcDbSpline
 70
8
 71
3
 72
8
 73
4
 74
0
 40
0
 40
0
 40
0
 40
0
 40
1
 40
1
 40
1
 40
1
 10
30.724145
 20
83.675759
 30
0.0
 10
30.977386
 20
83.607903
 30
0.0
 10
31.238428
 20
83.573536
 30
0.0
 10
31.500602
 20
83.573536
 30
0.0
  0
LINE
  5
125
100
AcDbEntity
  8
0
 62
7
100
AcDbLine
 10
31.500602
 20
83.573536
 30
0.0
 11
362.445391
 21
83.573536
 31
0.0
  0
LINE
  5
126
100
AcDbEntity
  8
0
 62
7
100
AcDbLine
 10
362.445391
 20
83.573536
 30
0.0
 11
362.445391
 21
81.973536
 31
0.0
  0
SPLINE
  5
127
100
AcDbEntity
  8
0
 62
7
100
AcDbSpline
 70
8
 71
3
 72
8
 73
4
 74
0
 40
0
 40
0
 40
0
 40
0
 40
1
 40
1
 40
1
 40
1
 10
362.445391
 20
81.973536
 30
0.0
 10
362.445391
 20
81.496147
 30
0.0
 10
362.635033
 20
81.038310
 30
0.0
 10
362.972599
 20
80.700744
 30
0.0
  0
SPLINE
  5
128
100
AcDbEntity
  8
0
 62
7
100
AcDbSpline
 70
8
 71
3
 72
8
 73
4
 74
0
 40
0
 40
0
 40
0
 40
0
 40
1
 40
1
 40
1
 40
1
 10
362.972599
 20
80.700744
 30
0.0
 10
363.310164
 20
80.363179
 30
0.0
 10
363.768001
 20
80.173536
 30
0.0
 10
364.245391
 20
80.173536
 30
0.0
  0
LINE
  5
129
100
AcDbEntity
  8
0
 62
7
100
AcDbLine
 10
364.245391
 20
80.173536
 30
0.0
 11
370.645391
 21
80.173536
 31
0.0
  0
SPLINE
  5
12a
100
AcDbEntity
  8
0
 62
7
100
AcDbSpline
 70
8
 71
3
 72
8
 73
4
 74
0
 40
0
 40
0
 40
0
 40
0
 40
1
 40
1
 40
1
 40
1
 10
370.645391
 20
80.173536
 30
0.0
 10
371.122780
 20
80.173536
 30
0.0
 10
371.580618
 20
80.363179
 30
0.0
 10
371.918183
 20
80.700744
 30
0.0
  0
SPLINE
  5
12b
100
AcDbEntity
  8
0
 62
7
100
AcDbSpline
 70
8
 71
3
 72
8
 73
4
 74
0
 40
0
 40
0
 40
0
 40
0
 40
1
 40
1
 40
1
 40
1
 10
371.918183
 20
80.700744
 30
0.0
 10
372.255749
 20
81.038310
 30
0.0
 10
372.445391
 20
81.496147
 30
0.0
 10
372.445391
 20
81.973536
 30
0.0
  0
LINE
  5
12c
100
AcDbEntity
  8
0
 62
7
100
AcDbLine
 10
372.445391
 20
81.973536
 30
0.0
 11
372.445391
 21
106.373536
 31
0.0
  0
SPLINE
  5
12d
100
AcDbEntity
  8
0
 62
7
100
AcDbSpline
 70
8
 71
3
 72
8
 73
4
 74
0
 40
0
 40
0
 40
0
 40
0
 40
1
 40
1
 40
1
 40
1
 10
372.445391
 20
106.373536
 30
0.0
 10
372.445391
 20
107.367649
 30
0.0
 10
371.639503
 20
108.173536
 30
0.0
 10
370.645391
 20
108.173536
 30
0.0
  0
LINE
  5
12e
100
AcDbEntity
  8
0
 62
7
100
AcDbLine
 10
370.645391
 20
108.173536
 30
0.0
 11
364.245391
 21
108.173536
 31
0.0
  0
SPLINE
  5
12f
100
AcDbEntity
  8
0
 62
7
100
AcDbSpline
 70
8
 71
3
 72
8
 73
4
 74
0
 40
0
 40
0
 40
0
 40
0
 40
1
 40
1
 40
1
 40
1
 10
364.245391
 20
108.173536
 30
0.0
 10
363.768001
 20
108.173536
 30
0.0
 10
363.310164
 20
107.983894
 30
0.0
 10
362.972599
 20
107.646329
 30
0.0
  0
SPLINE
  5
130
100
AcDbEntity
  8
0
 62
7
100
AcDbSpline
 70
8
 71
3
 72
8
 73
4
 74
0
 40
0
 40
0
 40
0
 40
0
 40
1
 40
1
 40
1
 40
1
 10
362.972599
 20
107.646329
 30
0.0
 10
362.635033
 20
107.308763
 30
0.0
 10
362.445391
 20
106.850926
 30
0.0
 10
362.445391
 20
106.373536
 30
0.0
  0
LINE
  5
131
100
AcDbEntity
  8
0
 62
7
100
AcDbLine
 10
362.445391
 20
106.373536
 30
0.0
 11
362.445391
 21
104.773536
 31
0.0
  0
LINE
  5
132
100
AcDbEntity
  8
0
 62
7
100
AcDbLine
 10
362.445391
 20
104.773536
 30
0.0
 11
31.500602
 21
104.773536
 31
0.0
  0
SPLINE
  5
133
100
AcDbEntity
  8
0
 62
7
100
AcDbSpline
 70
8
 71
3
 72
8
 73
4
 74
0
 40
0
 40
0
 40
0
 40
0
 40
1
 40
1
 40
1
 40
1
 10
31.500602
 20
104.773536
 30
0.0
 10
31.238428
 20
104.773536
 30
0.0
 10
30.977386
 20
104.739170
 30
0.0
 10
30.724145
 20
104.671314
 30
0.0
  0
LINE
  5
134
100
AcDbEntity
  8
0
 62
7
100
AcDbLine
 10
30.724145
 20
104.671314
 30
0.0
 11
14.668934
 21
100.369333
 31
0.0
  0
SPLINE
  5
135
100
AcDbEntity
  8
0
 62
7
100
AcDbSpline
 70
8
 71
3
 72
8
 73
4
 74
0
 40
0
 40
0
 40
0
 40
0
 40
1
 40
1
 40
1
 40
1
 10
14.668934
 20
100.369333
 30
0.0
 10
13.357383
 20
100.017904
 30
0.0
 10
12.445391
 20
98.829373
 30
0.0
 10
12.445391
 20
97.471555
 30
0.0
  0
LINE
  5
136
100
AcDbEntity
  8
0
 62
7
100
AcDbLine
 10
12.445391
 20
97.471555
 30
0.0
 11
12.445391
 21
90.875517
 31
0.0
  0
SPLINE
  5
137
100
AcDbEntity
  8
0
 62
7
100
AcDbSpline
 70
8
 71
3
 72
8
 73
4
 74
0
 40
0
 40
0
 40
0
 40
0
 40
1
 40
1
 40
1
 40
1
 10
12.445391
 20
90.875517
 30
0.0
 10
12.445391
 20
89.517700
 30
0.0
 10
13.357383
 20
88.329169
 30
0.0
 10
14.668934
 20
87.977740
 30
0.0
  0
SPLINE
  5
138
100
AcDbEntity
  8
0
 62
7
100
AcDbSpline
 70
8
 71
3
 72
8
 73
4
 74
0
 40
0
 40
0
 40
0
 40
0
 40
1
 40
1
 40
1
 40
1
 10
12.782565
 20
53.955719
 30
0.0
 10
12.782565
 20
52.298865
 30
0.0
 10
14.125710
 20
50.955719
 30
0.0
 10
15.782565
 20
50.955719
 30
0.0
  0
LINE
  5
139
100
AcDbEntity
  8
0
 62
7
100
AcDbLine
 10
12.782565
 20
53.955719
 30
0.0
 11
12.782565
 21
58.455719
 31
0.0
  0
SPLINE
  5
13a
100
AcDbEntity
  8
0
 62
7
100
AcDbSpline
 70
8
 71
3
 72
8
 73
4
 74
0
 40
0
 40
0
 40
0
 40
0
 40
1
 40
1
 40
1
 40
1
 10
12.782565
 20
58.455719
 30
0.0
 10
13.104104
 20
58.455719
 30
0.0
 10
13.401218
 20
58.627258
 30
0.0
 10
13.561988
 20
58.905719
 30
0.0
  0
SPLINE
  5
13b
100
AcDbEntity
  8
0
 62
7
100
AcDbSpline
 70
8
 71
3
 72
8
 73
4
 74
0
 40
0
 40
0
 40
0
 40
0
 40
1
 40
1
 40
1
 40
1
 10
13.561988
 20
58.905719
 30
0.0
 10
13.722757
 20
59.184180
 30
0.0
 10
13.722757
 20
59.527258
 30
0.0
 10
13.561988
 20
59.805719
 30
0.0
  0
SPLINE
  5
13c
100
AcDbEntity
  8
0
 62
7
100
AcDbSpline
 70
8
 71
3
 72
8
 73
4
 74
0
 40
0
 40
0
 40
0
 40
0
 40
1
 40
1
 40
1
 40
1
 10
13.561988
 20
59.805719
 30
0.0
 10
13.401218
 20
60.084180
 30
0.0
 10
13.104104
 20
60.255719
 30
0.0
 10
12.782565
 20
60.255719
 30
0.0
  0
LINE
  5
13d
100
AcDbEntity
  8
0
 62
7
100
AcDbLine
 10
12.782565
 20
60.255719
 30
0.0
 11
12.782565
 21
71.655719
 31
0.0
  0
SPLINE
  5
13e
100
AcDbEntity
  8
0
 62
7
100
AcDbSpline
 70
8
 71
3
 72
8
 73
4
 74
0
 40
0
 40
0
 40
0
 40
0
 40
1
 40
1
 40
1
 40
1
 10
12.782565
 20
71.655719
 30
0.0
 10
13.279430
 20
71.655988
 30
0.0
 10
13.682077
 20
72.058853
 30
0.0
 10
13.682077
 20
72.555719
 30
0.0
  0
SPLINE
  5
13f
100
AcDbEntity
  8
0
 62
7
100
AcDbSpline
 70
8
 71
3
 72
8
 73
4
 74
0
 40
0
 40
0
 40
0
 40
0
 40
1
 40
1
 40
1
 40
1
 10
13.682077
 20
72.555719
 30
0.0
 10
13.682077
 20
73.052584
 30
0.0
 10
13.279430
 20
73.455449
 30
0.0
 10
12.782565
 20
73.455719
 30
0.0
  0
LINE
  5
140
100
AcDbEntity
  8
0
 62
7
100
AcDbLine
 10
12.782565
 20
73.455719
 30
0.0
 11
12.782565
 21
77.955719
 31
0.0
  0
SPLINE
  5
141
100
AcDbEntity
  8
0
 62
7
100
AcDbSpline
 70
8
 71
3
 72
8
 73
4
 74
0
 40
0
 40
0
 40
0
 40
0
 40
1
 40
1
 40
1
 40
1
 10
15.782565
 20
80.955719
 30
0.0
 10
14.125710
 20
80.955719
 30
0.0
 10
12.782565
 20
79.612573
 30
0.0
 10
12.782565
 20
77.955719
 30
0.0
  0
LINE
  5
142
100
AcDbEntity
  8
0
 62
7
100
AcDbLine
 10
15.782565
 20
80.955719
 30
0.0
 11
27.882565
 21
80.955719
 31
0.0
  0
SPLINE
  5
143
100
AcDbEntity
  8
0
 62
7
100
AcDbSpline
 70
8
 71
3
 72
8
 73
4
 74
0
 40
0
 40
0
 40
0
 40
0
 40
1
 40
1
 40
1
 40
1
 10
30.882565
 20
77.955719
 30
0.0
 10
30.882565
 20
78.751368
 30
0.0
 10
30.566494
 20
79.514430
 30
0.0
 10
30.003885
 20
80.077039
 30
0.0
  0
SPLINE
  5
144
100
AcDbEntity
  8
0
 62
7
100
AcDbSpline
 70
8
 71
3
 72
8
 73
4
 74
0
 40
0
 40
0
 40
0
 40
0
 40
1
 40
1
 40
1
 40
1
 10
30.003885
 20
80.077039
 30
0.0
 10
29.441276
 20
80.639648
 30
0.0
 10
28.678214
 20
80.955719
 30
0.0
 10
27.882565
 20
80.955719
 30
0.0
  0
LINE
  5
145
100
AcDbEntity
  8
0
 62
7
100
AcDbLine
 10
30.882565
 20
77.955719
 30
0.0
 11
30.882565
 21
72.555719
 31
0.0
  0
SPLINE
  5
146
100
AcDbEntity
  8
0
 62
7
100
AcDbSpline
 70
8
 71
3
 72
8
 73
4
 74
0
 40
0
 40
0
 40
0
 40
0
 40
1
 40
1
 40
1
 40
1
 10
30.882565
 20
72.555719
 30
0.0
 10
30.882834
 20
72.058853
 30
0.0
 10
31.285699
 20
71.656207
 30
0.0
 10
31.782565
 20
71.656207
 30
0.0
  0
SPLINE
  5
147
100
AcDbEntity
  8
0
 62
7
100
AcDbSpline
 70
8
 71
3
 72
8
 73
4
 74
0
 40
0
 40
0
 40
0
 40
0
 40
1
 40
1
 40
1
 40
1
 10
31.782565
 20
71.656207
 30
0.0
 10
32.279431
 20
71.656207
 30
0.0
 10
32.682295
 20
72.058853
 30
0.0
 10
32.682565
 20
72.555719
 30
0.0
  0
LINE
  5
148
100
AcDbEntity
  8
0
 62
7
100
AcDbLine
 10
32.682565
 20
72.555719
 30
0.0
 11
32.682565
 21
77.955719
 31
0.0
  0
SPLINE
  5
149
100
AcDbEntity
  8
0
 62
7
100
AcDbSpline
 70
8
 71
3
 72
8
 73
4
 74
0
 40
0
 40
0
 40
0
 40
0
 40
1
 40
1
 40
1
 40
1
 10
35.682565
 20
80.955719
 30
0.0
 10
34.886915
 20
80.955719
 30
0.0
 10
34.123854
 20
80.639648
 30
0.0
 10
33.561244
 20
80.077039
 30
0.0
  0
SPLINE
  5
14a
100
AcDbEntity
  8
0
 62
7
100
AcDbSpline
 70
8
 71
3
 72
8
 73
4
 74
0
 40
0
 40
0
 40
0
 40
0
 40
1
 40
1
 40
1
 40
1
 10
33.561244
 20
80.077039
 30
0.0
 10
32.998635
 20
79.514430
 30
0.0
 10
32.682565
 20
78.751368
 30
0.0
 10
32.682565
 20
77.955719
 30
0.0
  0
LINE
  5
14b
100
AcDbEntity
  8
0
 62
7
100
AcDbLine
 10
35.682565
 20
80.955719
 30
0.0
 11
229.873560
 21
80.107025
 31
0.0
  0
SPLINE
  5
14c
100
AcDbEntity
  8
0
 62
7
100
AcDbSpline
 70
8
 71
3
 72
8
 73
4
 74
0
 40
0
 40
0
 40
0
 40
0
 40
1
 40
1
 40
1
 40
1
 10
232.873560
 20
77.107025
 30
0.0
 10
232.873560
 20
78.763879
 30
0.0
 10
231.530414
 20
80.107025
 30
0.0
 10
229.873560
 20
80.107025
 30
0.0
  0
LINE
  5
14d
100
AcDbEntity
  8
0
 62
7
100
AcDbLine
 10
232.873560
 20
77.107025
 30
0.0
 11
232.873560
 21
71.707025
 31
0.0
  0
SPLINE
  5
14e
100
AcDbEntity
  8
0
 62
7
100
AcDbSpline
 70
8
 71
3
 72
8
 73
4
 74
0
 40
0
 40
0
 40
0
 40
0
 40
1
 40
1
 40
1
 40
1
 10
232.873560
 20
71.707025
 30
0.0
 10
232.873830
 20
71.210159
 30
0.0
 10
233.276694
 20
70.807513
 30
0.0
 10
233.773560
 20
70.807513
 30
0.0
  0
SPLINE
  5
14f
100
AcDbEntity
  8
0
 62
7
100
AcDbSpline
 70
8
 71
3
 72
8
 73
4
 74
0
 40
0
 40
0
 40
0
 40
0
 40
1
 40
1
 40
1
 40
1
 10
233.773560
 20
70.807513
 30
0.0
 10
234.270426
 20
70.807513
 30
0.0
 10
234.673291
 20
71.210159
 30
0.0
 10
234.673560
 20
71.707025
 30
0.0
  0
LINE
  5
150
100
AcDbEntity
  8
0
 62
7
100
AcDbLine
 10
234.673560
 20
71.707025
 30
0.0
 11
234.673560
 21
77.107025
 31
0.0
  0
SPLINE
  5
151
100
AcDbEntity
  8
0
 62
7
100
AcDbSpline
 70
8
 71
3
 72
8
 73
4
 74
0
 40
0
 40
0
 40
0
 40
0
 40
1
 40
1
 40
1
 40
1
 10
237.673560
 20
80.107025
 30
0.0
 10
236.016706
 20
80.107025
 30
0.0
 10
234.673560
 20
78.763879
 30
0.0
 10
234.673560
 20
77.107025
 30
0.0
  0
LINE
  5
152
100
AcDbEntity
  8
0
 62
7
100
AcDbLine
 10
237.673560
 20
80.107025
 30
0.0
 11
249.773560
 21
80.107025
 31
0.0
  0
SPLINE
  5
153
100
AcDbEntity
  8
0
 62
7
100
AcDbSpline
 70
8
 71
3
 72
8
 73
4
 74
0
 40
0
 40
0
 40
0
 40
0
 40
1
 40
1
 40
1
 40
1
 10
252.773560
 20
77.107025
 30
0.0
 10
252.773560
 20
78.763879
 30
0.0
 10
251.430414
 20
80.107025
 30
0.0
 10
249.773560
 20
80.107025
 30
0.0
  0
LINE
  5
154
100
AcDbEntity
  8
0
 62
7
100
AcDbLine
 10
252.773560
 20
77.107025
 30
0.0
 11
252.773560
 21
72.607025
 31
0.0
  0
SPLINE
  5
155
100
AcDbEntity
  8
0
 62
7
100
AcDbSpline
 70
8
 71
3
 72
8
 73
4
 74
0
 40
0
 40
0
 40
0
 40
0
 40
1
 40
1
 40
1
 40
1
 10
252.773560
 20
72.607025
 30
0.0
 10
252.452021
 20
72.607025
 30
0.0
 10
252.154907
 20
72.435486
 30
0.0
 10
251.994137
 20
72.157025
 30
0.0
  0
SPLINE
  5
156
100
AcDbEntity
  8
0
 62
7
100
AcDbSpline
 70
8
 71
3
 72
8
 73
4
 74
0
 40
0
 40
0
 40
0
 40
0
 40
1
 40
1
 40
1
 40
1
 10
251.994137
 20
72.157025
 30
0.0
 10
251.833368
 20
71.878564
 30
0.0
 10
251.833368
 20
71.535486
 30
0.0
 10
251.994137
 20
71.257025
 30
0.0
  0
SPLINE
  5
157
100
AcDbEntity
  8
0
 62
7
100
AcDbSpline
 70
8
 71
3
 72
8
 73
4
 74
0
 40
0
 40
0
 40
0
 40
0
 40
1
 40
1
 40
1
 40
1
 10
251.994137
 20
71.257025
 30
0.0
 10
252.154907
 20
70.978564
 30
0.0
 10
252.452021
 20
70.807025
 30
0.0
 10
252.773560
 20
70.807025
 30
0.0
  0
LINE
  5
158
100
AcDbEntity
  8
0
 62
7
100
AcDbLine
 10
252.773560
 20
70.807025
 30
0.0
 11
252.773560
 21
59.407025
 31
0.0
  0
SPLINE
  5
159
100
AcDbEntity
  8
0
 62
7
100
AcDbSpline
 70
8
 71
3
 72
8
 73
4
 74
0
 40
0
 40
0
 40
0
 40
0
 40
1
 40
1
 40
1
 40
1
 10
252.773560
 20
59.407025
 30
0.0
 10
252.452021
 20
59.407025
 30
0.0
 10
252.154907
 20
59.235486
 30
0.0
 10
251.994137
 20
58.957025
 30
0.0
  0
SPLINE
  5
15a
100
AcDbEntity
  8
0
 62
7
100
AcDbSpline
 70
8
 71
3
 72
8
 73
4
 74
0
 40
0
 40
0
 40
0
 40
0
 40
1
 40
1
 40
1
 40
1
 10
251.994137
 20
58.957025
 30
0.0
 10
251.833368
 20
58.678564
 30
0.0
 10
251.833368
 20
58.335486
 30
0.0
 10
251.994137
 20
58.057025
 30
0.0
  0
SPLINE
  5
15b
100
AcDbEntity
  8
0
 62
7
100
AcDbSpline
 70
8
 71
3
 72
8
 73
4
 74
0
 40
0
 40
0
 40
0
 40
0
 40
1
 40
1
 40
1
 40
1
 10
251.994137
 20
58.057025
 30
0.0
 10
252.154907
 20
57.778564
 30
0.0
 10
252.452021
 20
57.607025
 30
0.0
 10
252.773560
 20
57.607025
 30
0.0
  0
LINE
  5
15c
100
AcDbEntity
  8
0
 62
7
100
AcDbLine
 10
252.773560
 20
57.607025
 30
0.0
 11
252.773560
 21
53.107025
 31
0.0
  0
SPLINE
  5
15d
100
AcDbEntity
  8
0
 62
7
100
AcDbSpline
 70
8
 71
3
 72
8
 73
4
 74
0
 40
0
 40
0
 40
0
 40
0
 40
1
 40
1
 40
1
 40
1
 10
249.773560
 20
50.107025
 30
0.0
 10
251.430414
 20
50.107025
 30
0.0
 10
252.773560
 20
51.450171
 30
0.0
 10
252.773560
 20
53.107025
 30
0.0
  0
LINE
  5
15e
100
AcDbEntity
  8
0
 62
7
100
AcDbLine
 10
249.773560
 20
50.107025
 30
0.0
 11
237.673560
 21
50.107025
 31
0.0
  0
SPLINE
  5
15f
100
AcDbEntity
  8
0
 62
7
100
AcDbSpline
 70
8
 71
3
 72
8
 73
4
 74
0
 40
0
 40
0
 40
0
 40
0
 40
1
 40
1
 40
1
 40
1
 10
234.673560
 20
53.107025
 30
0.0
 10
234.673560
 20
51.450171
 30
0.0
 10
236.016706
 20
50.107025
 30
0.0
 10
237.673560
 20
50.107025
 30
0.0
  0
LINE
  5
160
100
AcDbEntity
  8
0
 62
7
100
AcDbLine
 10
234.673560
 20
53.107025
 30
0.0
 11
234.673560
 21
58.507025
 31
0.0
  0
SPLINE
  5
161
100
AcDbEntity
  8
0
 62
7
100
AcDbSpline
 70
8
 71
3
 72
8
 73
4
 74
0
 40
0
 40
0
 40
0
 40
0
 40
1
 40
1
 40
1
 40
1
 10
234.673560
 20
58.507025
 30
0.0
 10
234.673291
 20
59.003891
 30
0.0
 10
234.270426
 20
59.406537
 30
0.0
 10
233.773560
 20
59.406537
 30
0.0
  0
SPLINE
  5
162
100
AcDbEntity
  8
0
 62
7
100
AcDbSpline
 70
8
 71
3
 72
8
 73
4
 74
0
 40
0
 40
0
 40
0
 40
0
 40
1
 40
1
 40
1
 40
1
 10
233.773560
 20
59.406537
 30
0.0
 10
233.276694
 20
59.406537
 30
0.0
 10
232.873830
 20
59.003891
 30
0.0
 10
232.873560
 20
58.507025
 30
0.0
  0
LINE
  5
163
100
AcDbEntity
  8
0
 62
7
100
AcDbLine
 10
232.873560
 20
58.507025
 30
0.0
 11
232.873560
 21
53.107025
 31
0.0
  0
SPLINE
  5
164
100
AcDbEntity
  8
0
 62
7
100
AcDbSpline
 70
8
 71
3
 72
8
 73
4
 74
0
 40
0
 40
0
 40
0
 40
0
 40
1
 40
1
 40
1
 40
1
 10
229.873560
 20
50.107025
 30
0.0
 10
231.530414
 20
50.107025
 30
0.0
 10
232.873560
 20
51.450171
 30
0.0
 10
232.873560
 20
53.107025
 30
0.0
  0
LINE
  5
165
100
AcDbEntity
  8
0
 62
7
100
AcDbLine
 10
229.873560
 20
50.107025
 30
0.0
 11
35.682565
 21
50.955719
 31
0.0
  0
SPLINE
  5
166
100
AcDbEntity
  8
0
 62
7
100
AcDbSpline
 70
8
 71
3
 72
8
 73
4
 74
0
 40
0
 40
0
 40
0
 40
0
 40
1
 40
1
 40
1
 40
1
 10
32.682565
 20
53.955719
 30
0.0
 10
32.682565
 20
53.160069
 30
0.0
 10
32.998635
 20
52.397008
 30
0.0
 10
33.561244
 20
51.834398
 30
0.0
  0
SPLINE
  5
167
100
AcDbEntity
  8
0
 62
7
100
AcDbSpline
 70
8
 71
3
 72
8
 73
4
 74
0
 40
0
 40
0
 40
0
 40
0
 40
1
 40
1
 40
1
 40
1
 10
33.561244
 20
51.834398
 30
0.0
 10
34.123854
 20
51.271789
 30
0.0
 10
34.886915
 20
50.955719
 30
0.0
 10
35.682565
 20
50.955719
 30
0.0
  0
LINE
  5
168
100
AcDbEntity
  8
0
 62
7
100
AcDbLine
 10
32.682565
 20
53.955719
 30
0.0
 11
32.682565
 21
59.355719
 31
0.0
  0
SPLINE
  5
169
100
AcDbEntity
  8
0
 62
7
100
AcDbSpline
 70
8
 71
3
 72
8
 73
4
 74
0
 40
0
 40
0
 40
0
 40
0
 40
1
 40
1
 40
1
 40
1
 10
32.682565
 20
59.355719
 30
0.0
 10
32.682295
 20
59.852584
 30
0.0
 10
32.279431
 20
60.255231
 30
0.0
 10
31.782565
 20
60.255231
 30
0.0
  0
SPLINE
  5
16a
100
AcDbEntity
  8
0
 62
7
100
AcDbSpline
 70
8
 71
3
 72
8
 73
4
 74
0
 40
0
 40
0
 40
0
 40
0
 40
1
 40
1
 40
1
 40
1
 10
31.782565
 20
60.255231
 30
0.0
 10
31.285699
 20
60.255231
 30
0.0
 10
30.882834
 20
59.852584
 30
0.0
 10
30.882565
 20
59.355719
 30
0.0
  0
LINE
  5
16b
100
AcDbEntity
  8
0
 62
7
100
AcDbLine
 10
30.882565
 20
59.355719
 30
0.0
 11
30.882565
 21
53.955719
 31
0.0
  0
SPLINE
  5
16c
100
AcDbEntity
  8
0
 62
7
100
AcDbSpline
 70
8
 71
3
 72
8
 73
4
 74
0
 40
0
 40
0
 40
0
 40
0
 40
1
 40
1
 40
1
 40
1
 10
27.882565
 20
50.955719
 30
0.0
 10
28.678214
 20
50.955719
 30
0.0
 10
29.441276
 20
51.271789
 30
0.0
 10
30.003885
 20
51.834398
 30
0.0
  0
SPLINE
  5
16d
100
AcDbEntity
  8
0
 62
7
100
AcDbSpline
 70
8
 71
3
 72
8
 73
4
 74
0
 40
0
 40
0
 40
0
 40
0
 40
1
 40
1
 40
1
 40
1
 10
30.003885
 20
51.834398
 30
0.0
 10
30.566494
 20
52.397008
 30
0.0
 10
30.882565
 20
53.160069
 30
0.0
 10
30.882565
 20
53.955719
 30
0.0
  0
LINE
  5
16e
100
AcDbEntity
  8
0
 62
7
100
AcDbLine
 10
27.882565
 20
50.955719
 30
0.0
 11
15.782565
 21
50.955719
 31
0.0
  0
LINE
  5
16f
100
AcDbEntity
  8
0
 62
7
100
AcDbLine
 10
52.292867
 20
141.445112
 30
0.0
 11
349.292867
 21
141.445112
 31
0.0
  0
LINE
  5
170
100
AcDbEntity
  8
0
 62
7
100
AcDbLine
 10
52.292867
 20
141.445112
 30
0.0
 11
5.792867
 21
141.445112
 31
0.0
  0
SPLINE
  5
171
100
AcDbEntity
  8
0
 62
7
100
AcDbSpline
 70
8
 71
3
 72
8
 73
4
 74
0
 40
0
 40
0
 40
0
 40
0
 40
1
 40
1
 40
1
 40
1
 10
5.792867
 20
141.445112
 30
0.0
 10
4.466785
 20
141.445112
 30
0.0
 10
3.195015
 20
140.918328
 30
0.0
 10
2.257333
 20
139.980646
 30
0.0
  0
SPLINE
  5
172
100
AcDbEntity
  8
0
 62
7
100
AcDbSpline
 70
8
 71
3
 72
8
 73
4
 74
0
 40
0
 40
0
 40
0
 40
0
 40
1
 40
1
 40
1
 40
1
 10
2.257333
 20
139.980646
 30
0.0
 10
1.319651
 20
139.042964
 30
0.0
 10
0.792867
 20
137.771194
 30
0.0
 10
0.792867
 20
136.445112
 30
0.0
  0
LINE
  5
173
100
AcDbEntity
  8
0
 62
7
100
AcDbLine
 10
0.792867
 20
136.445112
 30
0.0
 11
0.792867
 21
116.445112
 31
0.0
  0
SPLINE
  5
174
100
AcDbEntity
  8
0
 62
7
100
AcDbSpline
 70
8
 71
3
 72
8
 73
4
 74
0
 40
0
 40
0
 40
0
 40
0
 40
1
 40
1
 40
1
 40
1
 10
0.792867
 20
116.445112
 30
0.0
 10
0.792867
 20
115.119029
 30
0.0
 10
1.319651
 20
113.847260
 30
0.0
 10
2.257333
 20
112.909578
 30
0.0
  0
SPLINE
  5
175
100
AcDbEntity
  8
0
 62
7
100
AcDbSpline
 70
8
 71
3
 72
8
 73
4
 74
0
 40
0
 40
0
 40
0
 40
0
 40
1
 40
1
 40
1
 40
1
 10
2.257333
 20
112.909578
 30
0.0
 10
3.195015
 20
111.971896
 30
0.0
 10
4.466785
 20
111.445112
 30
0.0
 10
5.792867
 20
111.445112
 30
0.0
  0
LINE
  5
176
100
AcDbEntity
  8
0
 62
7
100
AcDbLine
 10
5.792867
 20
111.445112
 30
0.0
 11
395.792867
 21
111.445112
 31
0.0
  0
SPLINE
  5
177
100
AcDbEntity
  8
0
 62
7
100
AcDbSpline
 70
8
 71
3
 72
8
 73
4
 74
0
 40
0
 40
0
 40
0
 40
0
 40
1
 40
1
 40
1
 40
1
 10
395.792867
 20
111.445112
 30
0.0
 10
398.554291
 20
111.445112
 30
0.0
 10
400.792867
 20
113.683688
 30
0.0
 10
400.792867
 20
116.445112
 30
0.0
  0
LINE
  5
178
100
AcDbEntity
  8
0
 62
7
100
AcDbLine
 10
400.792867
 20
116.445112
 30
0.0
 11
400.792867
 21
136.445112
 31
0.0
  0
SPLINE
  5
179
100
AcDbEntity
  8
0
 62
7
100
AcDbSpline
 70
8
 71
3
 72
8
 73
4
 74
0
 40
0
 40
0
 40
0
 40
0
 40
1
 40
1
 40
1
 40
1
 10
400.792867
 20
136.445112
 30
0.0
 10
400.792867
 20
139.206535
 30
0.0
 10
398.554291
 20
141.445112
 30
0.0
 10
395.792867
 20
141.445112
 30
0.0
  0
LINE
  5
17a
100
AcDbEntity
  8
0
 62
7
100
AcDbLine
 10
395.792867
 20
141.445112
 30
0.0
 11
349.292867
 21
141.445112
 31
0.0
  0
SPLINE
  5
17b
100
AcDbEntity
  8
0
 62
1
100
AcDbSpline
 70
8
 71
3
 72
8
 73
4
 74
0
 40
0
 40
0
 40
0
 40
0
 40
1
 40
1
 40
1
 40
1
 10
20.892867
 20
116.695112
 30
0.0
 10
20.892867
 20
116.373573
 30
0.0
 10
21.064406
 20
116.076458
 30
0.0
 10
21.342867
 20
115.915689
 30
0.0
  0
SPLINE
  5
17c
100
AcDbEntity
  8
0
 62
1
100
AcDbSpline
 70
8
 71
3
 72
8
 73
4
 74
0
 40
0
 40
0
 40
0
 40
0
 40
1
 40
1
 40
1
 40
1
 10
21.342867
 20
115.915689
 30
0.0
 10
21.621328
 20
115.754919
 30
0.0
 10
21.964406
 20
115.754919
 30
0.0
 10
22.242867
 20
115.915689
 30
0.0
  0
SPLINE
  5
17d
100
AcDbEntity
  8
0
 62
1
100
AcDbSpline
 70
8
 71
3
 72
8
 73
4
 74
0
 40
0
 40
0
 40
0
 40
0
 40
1
 40
1
 40
1
 40
1
 10
22.242867
 20
115.915689
 30
0.0
 10
22.521328
 20
116.076458
 30
0.0
 10
22.692867
 20
116.373573
 30
0.0
 10
22.692867
 20
116.695112
 30
0.0
  0
LINE
  5
17e
100
AcDbEntity
  8
0
 62
1
100
AcDbLine
 10
20.892867
 20
116.695112
 30
0.0
 11
20.892867
 21
136.195112
 31
0.0
  0
SPLINE
  5
17f
100
AcDbEntity
  8
0
 62
1
100
AcDbSpline
 70
8
 71
3
 72
8
 73
4
 74
0
 40
0
 40
0
 40
0
 40
0
 40
1
 40
1
 40
1
 40
1
 10
22.692867
 20
136.195112
 30
0.0
 10
22.692867
 20
136.516651
 30
0.0
 10
22.521328
 20
136.813765
 30
0.0
 10
22.242867
 20
136.974535
 30
0.0
  0
SPLINE
  5
180
100
AcDbEntity
  8
0
 62
1
100
AcDbSpline
 70
8
 71
3
 72
8
 73
4
 74
0
 40
0
 40
0
 40
0
 40
0
 40
1
 40
1
 40
1
 40
1
 10
22.242867
 20
136.974535
 30
0.0
 10
21.964406
 20
137.135304
 30
0.0
 10
21.621328
 20
137.135304
 30
0.0
 10
21.342867
 20
136.974535
 30
0.0
  0
SPLINE
  5
181
100
AcDbEntity
  8
0
 62
1
100
AcDbSpline
 70
8
 71
3
 72
8
 73
4
 74
0
 40
0
 40
0
 40
0
 40
0
 40
1
 40
1
 40
1
 40
1
 10
21.342867
 20
136.974535
 30
0.0
 10
21.064406
 20
136.813765
 30
0.0
 10
20.892867
 20
136.516651
 30
0.0
 10
20.892867
 20
136.195112
 30
0.0
  0
LINE
  5
182
100
AcDbEntity
  8
0
 62
1
100
AcDbLine
 10
22.692867
 20
136.195112
 30
0.0
 11
22.692867
 21
116.695112
 31
0.0
  0
LINE
  5
183
100
AcDbEntity
  8
0
 62
1
100
AcDbLine
 10
5.892867
 20
116.695112
 30
0.0
 11
5.892867
 21
136.195112
 31
0.0
  0
SPLINE
  5
184
100
AcDbEntity
  8
0
 62
1
100
AcDbSpline
 70
8
 71
3
 72
8
 73
4
 74
0
 40
0
 40
0
 40
0
 40
0
 40
1
 40
1
 40
1
 40
1
 10
7.692867
 20
136.195112
 30
0.0
 10
7.692598
 20
136.691977
 30
0.0
 10
7.289733
 20
137.094624
 30
0.0
 10
6.792867
 20
137.094624
 30
0.0
  0
SPLINE
  5
185
100
AcDbEntity
  8
0
 62
1
100
AcDbSpline
 70
8
 71
3
 72
8
 73
4
 74
0
 40
0
 40
0
 40
0
 40
0
 40
1
 40
1
 40
1
 40
1
 10
6.792867
 20
137.094624
 30
0.0
 10
6.296001
 20
137.094624
 30
0.0
 10
5.893137
 20
136.691977
 30
0.0
 10
5.892867
 20
136.195112
 30
0.0
  0
LINE
  5
186
100
AcDbEntity
  8
0
 62
1
100
AcDbLine
 10
7.692867
 20
136.195112
 30
0.0
 11
7.692867
 21
116.695112
 31
0.0
  0
SPLINE
  5
187
100
AcDbEntity
  8
0
 62
1
100
AcDbSpline
 70
8
 71
3
 72
8
 73
4
 74
0
 40
0
 40
0
 40
0
 40
0
 40
1
 40
1
 40
1
 40
1
 10
5.892867
 20
116.695112
 30
0.0
 10
5.893137
 20
116.198246
 30
0.0
 10
6.296001
 20
115.795600
 30
0.0
 10
6.792867
 20
115.795600
 30
0.0
  0
SPLINE
  5
188
100
AcDbEntity
  8
0
 62
1
100
AcDbSpline
 70
8
 71
3
 72
8
 73
4
 74
0
 40
0
 40
0
 40
0
 40
0
 40
1
 40
1
 40
1
 40
1
 10
6.792867
 20
115.795600
 30
0.0
 10
7.289733
 20
115.795600
 30
0.0
 10
7.692598
 20
116.198246
 30
0.0
 10
7.692867
 20
116.695112
 30
0.0
  0
SPLINE
  5
189
100
AcDbEntity
  8
0
 62
1
100
AcDbSpline
 70
8
 71
3
 72
8
 73
4
 74
0
 40
0
 40
0
 40
0
 40
0
 40
1
 40
1
 40
1
 40
1
 10
393.892867
 20
116.695112
 30
0.0
 10
393.892693
 20
116.373457
 30
0.0
 10
394.064194
 20
116.076160
 30
0.0
 10
394.342726
 20
115.915282
 30
0.0
  0
SPLINE
  5
18a
100
AcDbEntity
  8
0
 62
1
100
AcDbSpline
 70
8
 71
3
 72
8
 73
4
 74
0
 40
0
 40
0
 40
0
 40
0
 40
1
 40
1
 40
1
 40
1
 10
394.342726
 20
115.915282
 30
0.0
 10
394.621259
 20
115.754404
 30
0.0
 10
394.964475
 20
115.754404
 30
0.0
 10
395.243008
 20
115.915282
 30
0.0
  0
SPLINE
  5
18b
100
AcDbEntity
  8
0
 62
1
100
AcDbSpline
 70
8
 71
3
 72
8
 73
4
 74
0
 40
0
 40
0
 40
0
 40
0
 40
1
 40
1
 40
1
 40
1
 10
395.243008
 20
115.915282
 30
0.0
 10
395.521541
 20
116.076160
 30
0.0
 10
395.693041
 20
116.373457
 30
0.0
 10
395.692867
 20
116.695112
 30
0.0
  0
LINE
  5
18c
100
AcDbEntity
  8
0
 62
1
100
AcDbLine
 10
393.892867
 20
116.695112
 30
0.0
 11
393.892867
 21
136.195112
 31
0.0
  0
SPLINE
  5
18d
100
AcDbEntity
  8
0
 62
1
100
AcDbSpline
 70
8
 71
3
 72
8
 73
4
 74
0
 40
0
 40
0
 40
0
 40
0
 40
1
 40
1
 40
1
 40
1
 10
395.692867
 20
136.195112
 30
0.0
 10
395.692598
 20
136.691977
 30
0.0
 10
395.289733
 20
137.094624
 30
0.0
 10
394.792867
 20
137.094624
 30
0.0
  0
SPLINE
  5
18e
100
AcDbEntity
  8
0
 62
1
100
AcDbSpline
 70
8
 71
3
 72
8
 73
4
 74
0
 40
0
 40
0
 40
0
 40
0
 40
1
 40
1
 40
1
 40
1
 10
394.792867
 20
137.094624
 30
0.0
 10
394.296001
 20
137.094624
 30
0.0
 10
393.893137
 20
136.691977
 30
0.0
 10
393.892867
 20
136.195112
 30
0.0
  0
LINE
  5
18f
100
AcDbEntity
  8
0
 62
1
100
AcDbLine
 10
395.692867
 20
136.195112
 30
0.0
 11
395.692867
 21
116.695112
 31
0.0
  0
SPLINE
  5
190
100
AcDbEntity
  8
0
 62
1
100
AcDbSpline
 70
8
 71
3
 72
8
 73
4
 74
0
 40
0
 40
0
 40
0
 40
0
 40
1
 40
1
 40
1
 40
1
 10
378.892867
 20
116.695112
 30
0.0
 10
378.892867
 20
116.373573
 30
0.0
 10
379.064406
 20
116.076458
 30
0.0
 10
379.342867
 20
115.915689
 30
0.0
  0
SPLINE
  5
191
100
AcDbEntity
  8
0
 62
1
100
AcDbSpline
 70
8
 71
3
 72
8
 73
4
 74
0
 40
0
 40
0
 40
0
 40
0
 40
1
 40
1
 40
1
 40
1
 10
379.342867
 20
115.915689
 30
0.0
 10
379.621328
 20
115.754919
 30
0.0
 10
379.964406
 20
115.754919
 30
0.0
 10
380.242867
 20
115.915689
 30
0.0
  0
SPLINE
  5
192
100
AcDbEntity
  8
0
 62
1
100
AcDbSpline
 70
8
 71
3
 72
8
 73
4
 74
0
 40
0
 40
0
 40
0
 40
0
 40
1
 40
1
 40
1
 40
1
 10
380.242867
 20
115.915689
 30
0.0
 10
380.521328
 20
116.076458
 30
0.0
 10
380.692867
 20
116.373573
 30
0.0
 10
380.692867
 20
116.695112
 30
0.0
  0
LINE
  5
193
100
AcDbEntity
  8
0
 62
1
100
AcDbLine
 10
378.892867
 20
116.695112
 30
0.0
 11
378.892867
 21
136.195112
 31
0.0
  0
SPLINE
  5
194
100
AcDbEntity
  8
0
 62
1
100
AcDbSpline
 70
8
 71
3
 72
8
 73
4
 74
0
 40
0
 40
0
 40
0
 40
0
 40
1
 40
1
 40
1
 40
1
 10
380.692867
 20
136.195112
 30
0.0
 10
380.692867
 20
136.516651
 30
0.0
 10
380.521328
 20
136.813765
 30
0.0
 10
380.242867
 20
136.974535
 30
0.0
  0
SPLINE
  5
195
100
AcDbEntity
  8
0
 62
1
100
AcDbSpline
 70
8
 71
3
 72
8
 73
4
 74
0
 40
0
 40
0
 40
0
 40
0
 40
1
 40
1
 40
1
 40
1
 10
380.242867
 20
136.974535
 30
0.0
 10
379.964406
 20
137.135304
 30
0.0
 10
379.621328
 20
137.135304
 30
0.0
 10
379.342867
 20
136.974535
 30
0.0
  0
SPLINE
  5
196
100
AcDbEntity
  8
0
 62
1
100
AcDbSpline
 70
8
 71
3
 72
8
 73
4
 74
0
 40
0
 40
0
 40
0
 40
0
 40
1
 40
1
 40
1
 40
1
 10
379.342867
 20
136.974535
 30
0.0
 10
379.064406
 20
136.813765
 30
0.0
 10
378.892867
 20
136.516651
 30
0.0
 10
378.892867
 20
136.195112
 30
0.0
  0
LINE
  5
197
100
AcDbEntity
  8
0
 62
1
100
AcDbLine
 10
380.692867
 20
136.195112
 30
0.0
 11
380.692867
 21
116.695112
 31
0.0
  0
SPLINE
  5
198
100
AcDbEntity
  8
0
 62
1
100
AcDbSpline
 70
8
 71
3
 72
8
 73
4
 74
0
 40
0
 40
0
 40
0
 40
0
 40
1
 40
1
 40
1
 40
1
 10
27.145391
 20
99.873536
 30
0.0
 10
27.145391
 20
100.159349
 30
0.0
 10
26.992911
 20
100.423450
 30
0.0
 10
26.745391
 20
100.566357
 30
0.0
  0
SPLINE
  5
199
100
AcDbEntity
  8
0
 62
1
100
AcDbSpline
 70
8
 71
3
 72
8
 73
4
 74
0
 40
0
 40
0
 40
0
 40
0
 40
1
 40
1
 40
1
 40
1
 10
26.745391
 20
100.566357
 30
0.0
 10
26.497870
 20
100.709263
 30
0.0
 10
26.192912
 20
100.709263
 30
0.0
 10
25.945391
 20
100.566357
 30
0.0
  0
SPLINE
  5
19a
100
AcDbEntity
  8
0
 62
1
100
AcDbSpline
 70
8
 71
3
 72
8
 73
4
 74
0
 40
0
 40
0
 40
0
 40
0
 40
1
 40
1
 40
1
 40
1
 10
25.945391
 20
100.566357
 30
0.0
 10
25.697870
 20
100.423450
 30
0.0
 10
25.545391
 20
100.159349
 30
0.0
 10
25.545391
 20
99.873536
 30
0.0
  0
SPLINE
  5
19b
100
AcDbEntity
  8
0
 62
1
100
AcDbSpline
 70
8
 71
3
 72
8
 73
4
 74
0
 40
0
 40
0
 40
0
 40
0
 40
1
 40
1
 40
1
 40
1
 10
25.545391
 20
99.873536
 30
0.0
 10
25.545391
 20
99.587724
 30
0.0
 10
25.697870
 20
99.323622
 30
0.0
 10
25.945391
 20
99.180716
 30
0.0
  0
SPLINE
  5
19c
100
AcDbEntity
  8
0
 62
1
100
AcDbSpline
 70
8
 71
3
 72
8
 73
4
 74
0
 40
0
 40
0
 40
0
 40
0
 40
1
 40
1
 40
1
 40
1
 10
25.945391
 20
99.180716
 30
0.0
 10
26.192912
 20
99.037810
 30
0.0
 10
26.497870
 20
99.037810
 30
0.0
 10
26.745391
 20
99.180716
 30
0.0
  0
SPLINE
  5
19d
100
AcDbEntity
  8
0
 62
1
100
AcDbSpline
 70
8
 71
3
 72
8
 73
4
 74
0
 40
0
 40
0
 40
0
 40
0
 40
1
 40
1
 40
1
 40
1
 10
26.745391
 20
99.180716
 30
0.0
 10
26.992912
 20
99.323622
 30
0.0
 10
27.145391
 20
99.587724
 30
0.0
 10
27.145391
 20
99.873536
 30
0.0
  0
LINE
  5
19e
100
AcDbEntity
  8
0
 62
1
100
AcDbLine
 10
27.145391
 20
99.873536
 30
0.0
 11
27.145391
 21
99.873536
 31
0.0
  0
SPLINE
  5
19f
100
AcDbEntity
  8
0
 62
1
100
AcDbSpline
 70
8
 71
3
 72
8
 73
4
 74
0
 40
0
 40
0
 40
0
 40
0
 40
1
 40
1
 40
1
 40
1
 10
27.145391
 20
88.473536
 30
0.0
 10
27.145391
 20
88.759349
 30
0.0
 10
26.992911
 20
89.023450
 30
0.0
 10
26.745391
 20
89.166357
 30
0.0
  0
SPLINE
  5
1a0
100
AcDbEntity
  8
0
 62
1
100
AcDbSpline
 70
8
 71
3
 72
8
 73
4
 74
0
 40
0
 40
0
 40
0
 40
0
 40
1
 40
1
 40
1
 40
1
 10
26.745391
 20
89.166357
 30
0.0
 10
26.497870
 20
89.309263
 30
0.0
 10
26.192912
 20
89.309263
 30
0.0
 10
25.945391
 20
89.166357
 30
0.0
  0
SPLINE
  5
1a1
100
AcDbEntity
  8
0
 62
1
100
AcDbSpline
 70
8
 71
3
 72
8
 73
4
 74
0
 40
0
 40
0
 40
0
 40
0
 40
1
 40
1
 40
1
 40
1
 10
25.945391
 20
89.166357
 30
0.0
 10
25.697870
 20
89.023450
 30
0.0
 10
25.545391
 20
88.759349
 30
0.0
 10
25.545391
 20
88.473536
 30
0.0
  0
SPLINE
  5
1a2
100
AcDbEntity
  8
0
 62
1
100
AcDbSpline
 70
8
 71
3
 72
8
 73
4
 74
0
 40
0
 40
0
 40
0
 40
0
 40
1
 40
1
 40
1
 40
1
 10
25.545391
 20
88.473536
 30
0.0
 10
25.545391
 20
88.187724
 30
0.0
 10
25.697870
 20
87.923622
 30
0.0
 10
25.945391
 20
87.780716
 30
0.0
  0
SPLINE
  5
1a3
100
AcDbEntity
  8
0
 62
1
100
AcDbSpline
 70
8
 71
3
 72
8
 73
4
 74
0
 40
0
 40
0
 40
0
 40
0
 40
1
 40
1
 40
1
 40
1
 10
25.945391
 20
87.780716
 30
0.0
 10
26.192912
 20
87.637810
 30
0.0
 10
26.497870
 20
87.637810
 30
0.0
 10
26.745391
 20
87.780716
 30
0.0
  0
SPLINE
  5
1a4
100
AcDbEntity
  8
0
 62
1
100
AcDbSpline
 70
8
 71
3
 72
8
 73
4
 74
0
 40
0
 40
0
 40
0
 40
0
 40
1
 40
1
 40
1
 40
1
 10
26.745391
 20
87.780716
 30
0.0
 10
26.992912
 20
87.923622
 30
0.0
 10
27.145391
 20
88.187724
 30
0.0
 10
27.145391
 20
88.473536
 30
0.0
  0
LINE
  5
1a5
100
AcDbEntity
  8
0
 62
1
100
AcDbLine
 10
27.145391
 20
88.473536
 30
0.0
 11
27.145391
 21
88.473536
 31
0.0
  0
LINE
  5
1a6
100
AcDbEntity
  8
0
 62
1
100
AcDbLine
 10
27.145290
 20
99.860862
 30
0.0
 11
28.117683
 21
99.845455
 31
0.0
  0
LINE
  5
1a7
100
AcDbEntity
  8
0
 62
1
100
AcDbLine
 10
29.593919
 20
98.345643
 30
0.0
 11
29.593919
 21
90.001429
 31
0.0
  0
SPLINE
  5
1a8
100
AcDbEntity
  8
0
 62
1
100
AcDbSpline
 70
8
 71
3
 72
8
 73
4
 74
0
 40
0
 40
0
 40
0
 40
0
 40
1
 40
1
 40
1
 40
1
 10
29.593919
 20
98.345643
 30
0.0
 10
29.593919
 20
99.164805
 30
0.0
 10
28.936742
 20
99.832477
 30
0.0
 10
28.117683
 20
99.845455
 30
0.0
  0
LINE
  5
1a9
100
AcDbEntity
  8
0
 62
1
100
AcDbLine
 10
28.117683
 20
88.501618
 30
0.0
 11
27.145290
 21
88.486210
 31
0.0
  0
SPLINE
  5
1aa
100
AcDbEntity
  8
0
 62
1
100
AcDbSpline
 70
8
 71
3
 72
8
 73
4
 74
0
 40
0
 40
0
 40
0
 40
0
 40
1
 40
1
 40
1
 40
1
 10
28.117683
 20
88.501618
 30
0.0
 10
28.936741
 20
88.514596
 30
0.0
 10
29.593919
 20
89.182268
 30
0.0
 10
29.593919
 20
90.001429
 30
0.0
  0
SPLINE
  5
1ab
100
AcDbEntity
  8
0
 62
1
100
AcDbSpline
 70
8
 71
3
 72
8
 73
4
 74
0
 40
0
 40
0
 40
0
 40
0
 40
1
 40
1
 40
1
 40
1
 10
34.702372
 20
99.873536
 30
0.0
 10
34.702372
 20
100.159349
 30
0.0
 10
34.549893
 20
100.423450
 30
0.0
 10
34.302372
 20
100.566357
 30
0.0
  0
SPLINE
  5
1ac
100
AcDbEntity
  8
0
 62
1
100
AcDbSpline
 70
8
 71
3
 72
8
 73
4
 74
0
 40
0
 40
0
 40
0
 40
0
 40
1
 40
1
 40
1
 40
1
 10
34.302372
 20
100.566357
 30
0.0
 10
34.054851
 20
100.709263
 30
0.0
 10
33.749893
 20
100.709263
 30
0.0
 10
33.502372
 20
100.566357
 30
0.0
  0
SPLINE
  5
1ad
100
AcDbEntity
  8
0
 62
1
100
AcDbSpline
 70
8
 71
3
 72
8
 73
4
 74
0
 40
0
 40
0
 40
0
 40
0
 40
1
 40
1
 40
1
 40
1
 10
33.502372
 20
100.566357
 30
0.0
 10
33.254851
 20
100.423450
 30
0.0
 10
33.102372
 20
100.159349
 30
0.0
 10
33.102372
 20
99.873536
 30
0.0
  0
SPLINE
  5
1ae
100
AcDbEntity
  8
0
 62
1
100
AcDbSpline
 70
8
 71
3
 72
8
 73
4
 74
0
 40
0
 40
0
 40
0
 40
0
 40
1
 40
1
 40
1
 40
1
 10
33.102372
 20
99.873536
 30
0.0
 10
33.102372
 20
99.587724
 30
0.0
 10
33.254851
 20
99.323622
 30
0.0
 10
33.502372
 20
99.180716
 30
0.0
  0
SPLINE
  5
1af
100
AcDbEntity
  8
0
 62
1
100
AcDbSpline
 70
8
 71
3
 72
8
 73
4
 74
0
 40
0
 40
0
 40
0
 40
0
 40
1
 40
1
 40
1
 40
1
 10
33.502372
 20
99.180716
 30
0.0
 10
33.749893
 20
99.037810
 30
0.0
 10
34.054851
 20
99.037810
 30
0.0
 10
34.302372
 20
99.180716
 30
0.0
  0
SPLINE
  5
1b0
100
AcDbEntity
  8
0
 62
1
100
AcDbSpline
 70
8
 71
3
 72
8
 73
4
 74
0
 40
0
 40
0
 40
0
 40
0
 40
1
 40
1
 40
1
 40
1
 10
34.302372
 20
99.180716
 30
0.0
 10
34.549893
 20
99.323622
 30
0.0
 10
34.702372
 20
99.587724
 30
0.0
 10
34.702372
 20
99.873536
 30
0.0
  0
LINE
  5
1b1
100
AcDbEntity
  8
0
 62
1
100
AcDbLine
 10
34.702372
 20
99.873536
 30
0.0
 11
34.702372
 21
99.873536
 31
0.0
  0
SPLINE
  5
1b2
100
AcDbEntity
  8
0
 62
1
100
AcDbSpline
 70
8
 71
3
 72
8
 73
4
 74
0
 40
0
 40
0
 40
0
 40
0
 40
1
 40
1
 40
1
 40
1
 10
34.702372
 20
88.473536
 30
0.0
 10
34.702372
 20
88.759349
 30
0.0
 10
34.549893
 20
89.023451
 30
0.0
 10
34.302372
 20
89.166357
 30
0.0
  0
SPLINE
  5
1b3
100
AcDbEntity
  8
0
 62
1
100
AcDbSpline
 70
8
 71
3
 72
8
 73
4
 74
0
 40
0
 40
0
 40
0
 40
0
 40
1
 40
1
 40
1
 40
1
 10
34.302372
 20
89.166357
 30
0.0
 10
34.054851
 20
89.309263
 30
0.0
 10
33.749893
 20
89.309263
 30
0.0
 10
33.502372
 20
89.166357
 30
0.0
  0
SPLINE
  5
1b4
100
AcDbEntity
  8
0
 62
1
100
AcDbSpline
 70
8
 71
3
 72
8
 73
4
 74
0
 40
0
 40
0
 40
0
 40
0
 40
1
 40
1
 40
1
 40
1
 10
33.502372
 20
89.166357
 30
0.0
 10
33.254851
 20
89.023451
 30
0.0
 10
33.102372
 20
88.759349
 30
0.0
 10
33.102372
 20
88.473536
 30
0.0
  0
SPLINE
  5
1b5
100
AcDbEntity
  8
0
 62
1
100
AcDbSpline
 70
8
 71
3
 72
8
 73
4
 74
0
 40
0
 40
0
 40
0
 40
0
 40
1
 40
1
 40
1
 40
1
 10
33.102372
 20
88.473536
 30
0.0
 10
33.102372
 20
88.187724
 30
0.0
 10
33.254851
 20
87.923622
 30
0.0
 10
33.502372
 20
87.780716
 30
0.0
  0
SPLINE
  5
1b6
100
AcDbEntity
  8
0
 62
1
100
AcDbSpline
 70
8
 71
3
 72
8
 73
4
 74
0
 40
0
 40
0
 40
0
 40
0
 40
1
 40
1
 40
1
 40
1
 10
33.502372
 20
87.780716
 30
0.0
 10
33.749893
 20
87.637810
 30
0.0
 10
34.054851
 20
87.637810
 30
0.0
 10
34.302372
 20
87.780716
 30
0.0
  0
SPLINE
  5
1b7
100
AcDbEntity
  8
0
 62
1
100
AcDbSpline
 70
8
 71
3
 72
8
 73
4
 74
0
 40
0
 40
0
 40
0
 40
0
 40
1
 40
1
 40
1
 40
1
 10
34.302372
 20
87.780716
 30
0.0
 10
34.549893
 20
87.923622
 30
0.0
 10
34.702372
 20
88.187724
 30
0.0
 10
34.702372
 20
88.473536
 30
0.0
  0
LINE
  5
1b8
100
AcDbEntity
  8
0
 62
1
100
AcDbLine
 10
34.702372
 20
88.473536
 30
0.0
 11
34.702372
 21
88.473536
 31
0.0
  0
LINE
  5
1b9
100
AcDbEntity
  8
0
 62
1
100
AcDbLine
 10
34.702271
 20
99.860862
 30
0.0
 11
35.674664
 21
99.845455
 31
0.0
  0
LINE
  5
1ba
100
AcDbEntity
  8
0
 62
1
100
AcDbLine
 10
37.150900
 20
98.345643
 30
0.0
 11
37.150900
 21
90.001429
 31
0.0
  0
SPLINE
  5
1bb
100
AcDbEntity
  8
0
 62
1
100
AcDbSpline
 70
8
 71
3
 72
8
 73
4
 74
0
 40
0
 40
0
 40
0
 40
0
 40
1
 40
1
 40
1
 40
1
 10
37.150900
 20
98.345643
 30
0.0
 10
37.150900
 20
99.164805
 30
0.0
 10
36.493723
 20
99.832477
 30
0.0
 10
35.674664
 20
99.845455
 30
0.0
  0
LINE
  5
1bc
100
AcDbEntity
  8
0
 62
1
100
AcDbLine
 10
35.674664
 20
88.501618
 30
0.0
 11
34.702271
 21
88.486210
 31
0.0
  0
SPLINE
  5
1bd
100
AcDbEntity
  8
0
 62
1
100
AcDbSpline
 70
8
 71
3
 72
8
 73
4
 74
0
 40
0
 40
0
 40
0
 40
0
 40
1
 40
1
 40
1
 40
1
 10
35.674664
 20
88.501618
 30
0.0
 10
36.493722
 20
88.514596
 30
0.0
 10
37.150900
 20
89.182268
 30
0.0
 10
37.150900
 20
90.001429
 30
0.0
  0
SPLINE
  5
1be
100
AcDbEntity
  8
0
 62
1
100
AcDbSpline
 70
8
 71
3
 72
8
 73
4
 74
0
 40
0
 40
0
 40
0
 40
0
 40
1
 40
1
 40
1
 40
1
 10
42.259353
 20
99.873536
 30
0.0
 10
42.259353
 20
100.159349
 30
0.0
 10
42.106874
 20
100.423450
 30
0.0
 10
41.859353
 20
100.566357
 30
0.0
  0
SPLINE
  5
1bf
100
AcDbEntity
  8
0
 62
1
100
AcDbSpline
 70
8
 71
3
 72
8
 73
4
 74
0
 40
0
 40
0
 40
0
 40
0
 40
1
 40
1
 40
1
 40
1
 10
41.859353
 20
100.566357
 30
0.0
 10
41.611832
 20
100.709263
 30
0.0
 10
41.306874
 20
100.709263
 30
0.0
 10
41.059353
 20
100.566357
 30
0.0
  0
SPLINE
  5
1c0
100
AcDbEntity
  8
0
 62
1
100
AcDbSpline
 70
8
 71
3
 72
8
 73
4
 74
0
 40
0
 40
0
 40
0
 40
0
 40
1
 40
1
 40
1
 40
1
 10
41.059353
 20
100.566357
 30
0.0
 10
40.811832
 20
100.423450
 30
0.0
 10
40.659353
 20
100.159349
 30
0.0
 10
40.659353
 20
99.873536
 30
0.0
  0
SPLINE
  5
1c1
100
AcDbEntity
  8
0
 62
1
100
AcDbSpline
 70
8
 71
3
 72
8
 73
4
 74
0
 40
0
 40
0
 40
0
 40
0
 40
1
 40
1
 40
1
 40
1
 10
40.659353
 20
99.873536
 30
0.0
 10
40.659353
 20
99.587724
 30
0.0
 10
40.811832
 20
99.323622
 30
0.0
 10
41.059353
 20
99.180716
 30
0.0
  0
SPLINE
  5
1c2
100
AcDbEntity
  8
0
 62
1
100
AcDbSpline
 70
8
 71
3
 72
8
 73
4
 74
0
 40
0
 40
0
 40
0
 40
0
 40
1
 40
1
 40
1
 40
1
 10
41.059353
 20
99.180716
 30
0.0
 10
41.306874
 20
99.037810
 30
0.0
 10
41.611832
 20
99.037810
 30
0.0
 10
41.859353
 20
99.180716
 30
0.0
  0
SPLINE
  5
1c3
100
AcDbEntity
  8
0
 62
1
100
AcDbSpline
 70
8
 71
3
 72
8
 73
4
 74
0
 40
0
 40
0
 40
0
 40
0
 40
1
 40
1
 40
1
 40
1
 10
41.859353
 20
99.180716
 30
0.0
 10
42.106874
 20
99.323622
 30
0.0
 10
42.259353
 20
99.587724
 30
0.0
 10
42.259353
 20
99.873536
 30
0.0
  0
LINE
  5
1c4
100
AcDbEntity
  8
0
 62
1
100
AcDbLine
 10
42.259353
 20
99.873536
 30
0.0
 11
42.259353
 21
99.873536
 31
0.0
  0
SPLINE
  5
1c5
100
AcDbEntity
  8
0
 62
1
100
AcDbSpline
 70
8
 71
3
 72
8
 73
4
 74
0
 40
0
 40
0
 40
0
 40
0
 40
1
 40
1
 40
1
 40
1
 10
42.259353
 20
88.473536
 30
0.0
 10
42.259353
 20
88.759349
 30
0.0
 10
42.106874
 20
89.023450
 30
0.0
 10
41.859353
 20
89.166357
 30
0.0
  0
SPLINE
  5
1c6
100
AcDbEntity
  8
0
 62
1
100
AcDbSpline
 70
8
 71
3
 72
8
 73
4
 74
0
 40
0
 40
0
 40
0
 40
0
 40
1
 40
1
 40
1
 40
1
 10
41.859353
 20
89.166357
 30
0.0
 10
41.611832
 20
89.309263
 30
0.0
 10
41.306874
 20
89.309263
 30
0.0
 10
41.059353
 20
89.166357
 30
0.0
  0
SPLINE
  5
1c7
100
AcDbEntity
  8
0
 62
1
100
AcDbSpline
 70
8
 71
3
 72
8
 73
4
 74
0
 40
0
 40
0
 40
0
 40
0
 40
1
 40
1
 40
1
 40
1
 10
41.059353
 20
89.166357
 30
0.0
 10
40.811832
 20
89.023450
 30
0.0
 10
40.659353
 20
88.759349
 30
0.0
 10
40.659353
 20
88.473536
 30
0.0
  0
SPLINE
  5
1c8
100
AcDbEntity
  8
0
 62
1
100
AcDbSpline
 70
8
 71
3
 72
8
 73
4
 74
0
 40
0
 40
0
 40
0
 40
0
 40
1
 40
1
 40
1
 40
1
 10
40.659353
 20
88.473536
 30
0.0
 10
40.659353
 20
88.187724
 30
0.0
 10
40.811832
 20
87.923622
 30
0.0
 10
41.059353
 20
87.780716
 30
0.0
  0
SPLINE
  5
1c9
100
AcDbEntity
  8
0
 62
1
100
AcDbSpline
 70
8
 71
3
 72
8
 73
4
 74
0
 40
0
 40
0
 40
0
 40
0
 40
1
 40
1
 40
1
 40
1
 10
41.059353
 20
87.780716
 30
0.0
 10
41.306874
 20
87.637810
 30
0.0
 10
41.611832
 20
87.637810
 30
0.0
 10
41.859353
 20
87.780716
 30
0.0
  0
SPLINE
  5
1ca
100
AcDbEntity
  8
0
 62
1
100
AcDbSpline
 70
8
 71
3
 72
8
 73
4
 74
0
 40
0
 40
0
 40
0
 40
0
 40
1
 40
1
 40
1
 40
1
 10
41.859353
 20
87.780716
 30
0.0
 10
42.106874
 20
87.923622
 30
0.0
 10
42.259353
 20
88.187724
 30
0.0
 10
42.259353
 20
88.473536
 30
0.0
  0
LINE
  5
1cb
100
AcDbEntity
  8
0
 62
1
100
AcDbLine
 10
42.259353
 20
88.473536
 30
0.0
 11
42.259353
 21
88.473536
 31
0.0
  0
LINE
  5
1cc
100
AcDbEntity
  8
0
 62
1
100
AcDbLine
 10
42.259252
 20
99.860862
 30
0.0
 11
43.231645
 21
99.845455
 31
0.0
  0
LINE
  5
1cd
100
AcDbEntity
  8
0
 62
1
100
AcDbLine
 10
44.707881
 20
98.345643
 30
0.0
 11
44.707881
 21
90.001429
 31
0.0
  0
SPLINE
  5
1ce
100
AcDbEntity
  8
0
 62
1
100
AcDbSpline
 70
8
 71
3
 72
8
 73
4
 74
0
 40
0
 40
0
 40
0
 40
0
 40
1
 40
1
 40
1
 40
1
 10
44.707881
 20
98.345643
 30
0.0
 10
44.707881
 20
99.164805
 30
0.0
 10
44.050704
 20
99.832477
 30
0.0
 10
43.231645
 20
99.845455
 30
0.0
  0
LINE
  5
1cf
100
AcDbEntity
  8
0
 62
1
100
AcDbLine
 10
43.231645
 20
88.501618
 30
0.0
 11
42.259252
 21
88.486210
 31
0.0
  0
SPLINE
  5
1d0
100
AcDbEntity
  8
0
 62
1
100
AcDbSpline
 70
8
 71
3
 72
8
 73
4
 74
0
 40
0
 40
0
 40
0
 40
0
 40
1
 40
1
 40
1
 40
1
 10
43.231645
 20
88.501618
 30
0.0
 10
44.050703
 20
88.514596
 30
0.0
 10
44.707881
 20
89.182268
 30
0.0
 10
44.707881
 20
90.001429
 30
0.0
  0
SPLINE
  5
1d1
100
AcDbEntity
  8
0
 62
1
100
AcDbSpline
 70
8
 71
3
 72
8
 73
4
 74
0
 40
0
 40
0
 40
0
 40
0
 40
1
 40
1
 40
1
 40
1
 10
49.816334
 20
99.873536
 30
0.0
 10
49.816334
 20
100.159349
 30
0.0
 10
49.663855
 20
100.423450
 30
0.0
 10
49.416334
 20
100.566357
 30
0.0
  0
SPLINE
  5
1d2
100
AcDbEntity
  8
0
 62
1
100
AcDbSpline
 70
8
 71
3
 72
8
 73
4
 74
0
 40
0
 40
0
 40
0
 40
0
 40
1
 40
1
 40
1
 40
1
 10
49.416334
 20
100.566357
 30
0.0
 10
49.168813
 20
100.709263
 30
0.0
 10
48.863855
 20
100.709263
 30
0.0
 10
48.616334
 20
100.566357
 30
0.0
  0
SPLINE
  5
1d3
100
AcDbEntity
  8
0
 62
1
100
AcDbSpline
 70
8
 71
3
 72
8
 73
4
 74
0
 40
0
 40
0
 40
0
 40
0
 40
1
 40
1
 40
1
 40
1
 10
48.616334
 20
100.566357
 30
0.0
 10
48.368813
 20
100.423450
 30
0.0
 10
48.216334
 20
100.159349
 30
0.0
 10
48.216334
 20
99.873536
 30
0.0
  0
SPLINE
  5
1d4
100
AcDbEntity
  8
0
 62
1
100
AcDbSpline
 70
8
 71
3
 72
8
 73
4
 74
0
 40
0
 40
0
 40
0
 40
0
 40
1
 40
1
 40
1
 40
1
 10
48.216334
 20
99.873536
 30
0.0
 10
48.216334
 20
99.587724
 30
0.0
 10
48.368813
 20
99.323622
 30
0.0
 10
48.616334
 20
99.180716
 30
0.0
  0
SPLINE
  5
1d5
100
AcDbEntity
  8
0
 62
1
100
AcDbSpline
 70
8
 71
3
 72
8
 73
4
 74
0
 40
0
 40
0
 40
0
 40
0
 40
1
 40
1
 40
1
 40
1
 10
48.616334
 20
99.180716
 30
0.0
 10
48.863855
 20
99.037810
 30
0.0
 10
49.168813
 20
99.037810
 30
0.0
 10
49.416334
 20
99.180716
 30
0.0
  0
SPLINE
  5
1d6
100
AcDbEntity
  8
0
 62
1
100
AcDbSpline
 70
8
 71
3
 72
8
 73
4
 74
0
 40
0
 40
0
 40
0
 40
0
 40
1
 40
1
 40
1
 40
1
 10
49.416334
 20
99.180716
 30
0.0
 10
49.663855
 20
99.323622
 30
0.0
 10
49.816334
 20
99.587724
 30
0.0
 10
49.816334
 20
99.873536
 30
0.0
  0
LINE
  5
1d7
100
AcDbEntity
  8
0
 62
1
100
AcDbLine
 10
49.816334
 20
99.873536
 30
0.0
 11
49.816334
 21
99.873536
 31
0.0
  0
SPLINE
  5
1d8
100
AcDbEntity
  8
0
 62
1
100
AcDbSpline
 70
8
 71
3
 72
8
 73
4
 74
0
 40
0
 40
0
 40
0
 40
0
 40
1
 40
1
 40
1
 40
1
 10
49.816334
 20
88.473536
 30
0.0
 10
49.816334
 20
88.759349
 30
0.0
 10
49.663855
 20
89.023450
 30
0.0
 10
49.416334
 20
89.166357
 30
0.0
  0
SPLINE
  5
1d9
100
AcDbEntity
  8
0
 62
1
100
AcDbSpline
 70
8
 71
3
 72
8
 73
4
 74
0
 40
0
 40
0
 40
0
 40
0
 40
1
 40
1
 40
1
 40
1
 10
49.416334
 20
89.166357
 30
0.0
 10
49.168813
 20
89.309263
 30
0.0
 10
48.863855
 20
89.309263
 30
0.0
 10
48.616334
 20
89.166357
 30
0.0
  0
SPLINE
  5
1da
100
AcDbEntity
  8
0
 62
1
100
AcDbSpline
 70
8
 71
3
 72
8
 73
4
 74
0
 40
0
 40
0
 40
0
 40
0
 40
1
 40
1
 40
1
 40
1
 10
48.616334
 20
89.166357
 30
0.0
 10
48.368813
 20
89.023450
 30
0.0
 10
48.216334
 20
88.759349
 30
0.0
 10
48.216334
 20
88.473536
 30
0.0
  0
SPLINE
  5
1db
100
AcDbEntity
  8
0
 62
1
100
AcDbSpline
 70
8
 71
3
 72
8
 73
4
 74
0
 40
0
 40
0
 40
0
 40
0
 40
1
 40
1
 40
1
 40
1
 10
48.216334
 20
88.473536
 30
0.0
 10
48.216334
 20
88.187724
 30
0.0
 10
48.368813
 20
87.923622
 30
0.0
 10
48.616334
 20
87.780716
 30
0.0
  0
SPLINE
  5
1dc
100
AcDbEntity
  8
0
 62
1
100
AcDbSpline
 70
8
 71
3
 72
8
 73
4
 74
0
 40
0
 40
0
 40
0
 40
0
 40
1
 40
1
 40
1
 40
1
 10
48.616334
 20
87.780716
 30
0.0
 10
48.863855
 20
87.637810
 30
0.0
 10
49.168813
 20
87.637810
 30
0.0
 10
49.416334
 20
87.780716
 30
0.0
  0
SPLINE
  5
1dd
100
AcDbEntity
  8
0
 62
1
100
AcDbSpline
 70
8
 71
3
 72
8
 73
4
 74
0
 40
0
 40
0
 40
0
 40
0
 40
1
 40
1
 40
1
 40
1
 10
49.416334
 20
87.780716
 30
0.0
 10
49.663855
 20
87.923622
 30
0.0
 10
49.816334
 20
88.187724
 30
0.0
 10
49.816334
 20
88.473536
 30
0.0
  0
LINE
  5
1de
100
AcDbEntity
  8
0
 62
1
100
AcDbLine
 10
49.816334
 20
88.473536
 30
0.0
 11
49.816334
 21
88.473536
 31
0.0
  0
LINE
  5
1df
100
AcDbEntity
  8
0
 62
1
100
AcDbLine
 10
49.816233
 20
99.860862
 30
0.0
 11
50.788626
 21
99.845455
 31
0.0
  0
LINE
  5
1e0
100
AcDbEntity
  8
0
 62
1
100
AcDbLine
 10
52.264862
 20
98.345643
 30
0.0
 11
52.264862
 21
90.001429
 31
0.0
  0
SPLINE
  5
1e1
100
AcDbEntity
  8
0
 62
1
100
AcDbSpline
 70
8
 71
3
 72
8
 73
4
 74
0
 40
0
 40
0
 40
0
 40
0
 40
1
 40
1
 40
1
 40
1
 10
52.264862
 20
98.345643
 30
0.0
 10
52.264862
 20
99.164805
 30
0.0
 10
51.607685
 20
99.832477
 30
0.0
 10
50.788626
 20
99.845455
 30
0.0
  0
LINE
  5
1e2
100
AcDbEntity
  8
0
 62
1
100
AcDbLine
 10
50.788626
 20
88.501618
 30
0.0
 11
49.816233
 21
88.486210
 31
0.0
  0
SPLINE
  5
1e3
100
AcDbEntity
  8
0
 62
1
100
AcDbSpline
 70
8
 71
3
 72
8
 73
4
 74
0
 40
0
 40
0
 40
0
 40
0
 40
1
 40
1
 40
1
 40
1
 10
50.788626
 20
88.501618
 30
0.0
 10
51.607684
 20
88.514596
 30
0.0
 10
52.264862
 20
89.182268
 30
0.0
 10
52.264862
 20
90.001429
 30
0.0
  0
SPLINE
  5
1e4
100
AcDbEntity
  8
0
 62
1
100
AcDbSpline
 70
8
 71
3
 72
8
 73
4
 74
0
 40
0
 40
0
 40
0
 40
0
 40
1
 40
1
 40
1
 40
1
 10
57.373315
 20
99.873536
 30
0.0
 10
57.373315
 20
100.159349
 30
0.0
 10
57.220836
 20
100.423450
 30
0.0
 10
56.973315
 20
100.566357
 30
0.0
  0
SPLINE
  5
1e5
100
AcDbEntity
  8
0
 62
1
100
AcDbSpline
 70
8
 71
3
 72
8
 73
4
 74
0
 40
0
 40
0
 40
0
 40
0
 40
1
 40
1
 40
1
 40
1
 10
56.973315
 20
100.566357
 30
0.0
 10
56.725794
 20
100.709263
 30
0.0
 10
56.420836
 20
100.709263
 30
0.0
 10
56.173315
 20
100.566357
 30
0.0
  0
SPLINE
  5
1e6
100
AcDbEntity
  8
0
 62
1
100
AcDbSpline
 70
8
 71
3
 72
8
 73
4
 74
0
 40
0
 40
0
 40
0
 40
0
 40
1
 40
1
 40
1
 40
1
 10
56.173315
 20
100.566357
 30
0.0
 10
55.925794
 20
100.423450
 30
0.0
 10
55.773315
 20
100.159349
 30
0.0
 10
55.773315
 20
99.873536
 30
0.0
  0
SPLINE
  5
1e7
100
AcDbEntity
  8
0
 62
1
100
AcDbSpline
 70
8
 71
3
 72
8
 73
4
 74
0
 40
0
 40
0
 40
0
 40
0
 40
1
 40
1
 40
1
 40
1
 10
55.773315
 20
99.873536
 30
0.0
 10
55.773315
 20
99.587724
 30
0.0
 10
55.925794
 20
99.323622
 30
0.0
 10
56.173315
 20
99.180716
 30
0.0
  0
SPLINE
  5
1e8
100
AcDbEntity
  8
0
 62
1
100
AcDbSpline
 70
8
 71
3
 72
8
 73
4
 74
0
 40
0
 40
0
 40
0
 40
0
 40
1
 40
1
 40
1
 40
1
 10
56.173315
 20
99.180716
 30
0.0
 10
56.420836
 20
99.037810
 30
0.0
 10
56.725794
 20
99.037810
 30
0.0
 10
56.973315
 20
99.180716
 30
0.0
  0
SPLINE
  5
1e9
100
AcDbEntity
  8
0
 62
1
100
AcDbSpline
 70
8
 71
3
 72
8
 73
4
 74
0
 40
0
 40
0
 40
0
 40
0
 40
1
 40
1
 40
1
 40
1
 10
56.973315
 20
99.180716
 30
0.0
 10
57.220836
 20
99.323622
 30
0.0
 10
57.373315
 20
99.587724
 30
0.0
 10
57.373315
 20
99.873536
 30
0.0
  0
LINE
  5
1ea
100
AcDbEntity
  8
0
 62
1
100
AcDbLine
 10
57.373315
 20
99.873536
 30
0.0
 11
57.373315
 21
99.873536
 31
0.0
  0
SPLINE
  5
1eb
100
AcDbEntity
  8
0
 62
1
100
AcDbSpline
 70
8
 71
3
 72
8
 73
4
 74
0
 40
0
 40
0
 40
0
 40
0
 40
1
 40
1
 40
1
 40
1
 10
57.373315
 20
88.473536
 30
0.0
 10
57.373315
 20
88.759349
 30
0.0
 10
57.220836
 20
89.023450
 30
0.0
 10
56.973315
 20
89.166357
 30
0.0
  0
SPLINE
  5
1ec
100
AcDbEntity
  8
0
 62
1
100
AcDbSpline
 70
8
 71
3
 72
8
 73
4
 74
0
 40
0
 40
0
 40
0
 40
0
 40
1
 40
1
 40
1
 40
1
 10
56.973315
 20
89.166357
 30
0.0
 10
56.725794
 20
89.309263
 30
0.0
 10
56.420836
 20
89.309263
 30
0.0
 10
56.173315
 20
89.166357
 30
0.0
  0
SPLINE
  5
1ed
100
AcDbEntity
  8
0
 62
1
100
AcDbSpline
 70
8
 71
3
 72
8
 73
4
 74
0
 40
0
 40
0
 40
0
 40
0
 40
1
 40
1
 40
1
 40
1
 10
56.173315
 20
89.166357
 30
0.0
 10
55.925794
 20
89.023450
 30
0.0
 10
55.773315
 20
88.759349
 30
0.0
 10
55.773315
 20
88.473536
 30
0.0
  0
SPLINE
  5
1ee
100
AcDbEntity
  8
0
 62
1
100
AcDbSpline
 70
8
 71
3
 72
8
 73
4
 74
0
 40
0
 40
0
 40
0
 40
0
 40
1
 40
1
 40
1
 40
1
 10
55.773315
 20
88.473536
 30
0.0
 10
55.773315
 20
88.187724
 30
0.0
 10
55.925794
 20
87.923622
 30
0.0
 10
56.173315
 20
87.780716
 30
0.0
  0
SPLINE
  5
1ef
100
AcDbEntity
  8
0
 62
1
100
AcDbSpline
 70
8
 71
3
 72
8
 73
4
 74
0
 40
0
 40
0
 40
0
 40
0
 40
1
 40
1
 40
1
 40
1
 10
56.173315
 20
87.780716
 30
0.0
 10
56.420836
 20
87.637810
 30
0.0
 10
56.725794
 20
87.637810
 30
0.0
 10
56.973315
 20
87.780716
 30
0.0
  0
SPLINE
  5
1f0
100
AcDbEntity
  8
0
 62
1
100
AcDbSpline
 70
8
 71
3
 72
8
 73
4
 74
0
 40
0
 40
0
 40
0
 40
0
 40
1
 40
1
 40
1
 40
1
 10
56.973315
 20
87.780716
 30
0.0
 10
57.220836
 20
87.923622
 30
0.0
 10
57.373315
 20
88.187724
 30
0.0
 10
57.373315
 20
88.473536
 30
0.0
  0
LINE
  5
1f1
100
AcDbEntity
  8
0
 62
1
100
AcDbLine
 10
57.373315
 20
88.473536
 30
0.0
 11
57.373315
 21
88.473536
 31
0.0
  0
LINE
  5
1f2
100
AcDbEntity
  8
0
 62
1
100
AcDbLine
 10
57.373214
 20
99.860862
 30
0.0
 11
58.345607
 21
99.845455
 31
0.0
  0
LINE
  5
1f3
100
AcDbEntity
  8
0
 62
1
100
AcDbLine
 10
59.821843
 20
98.345643
 30
0.0
 11
59.821843
 21
90.001429
 31
0.0
  0
SPLINE
  5
1f4
100
AcDbEntity
  8
0
 62
1
100
AcDbSpline
 70
8
 71
3
 72
8
 73
4
 74
0
 40
0
 40
0
 40
0
 40
0
 40
1
 40
1
 40
1
 40
1
 10
59.821843
 20
98.345643
 30
0.0
 10
59.821843
 20
99.164805
 30
0.0
 10
59.164666
 20
99.832477
 30
0.0
 10
58.345607
 20
99.845455
 30
0.0
  0
LINE
  5
1f5
100
AcDbEntity
  8
0
 62
1
100
AcDbLine
 10
58.345607
 20
88.501618
 30
0.0
 11
57.373214
 21
88.486210
 31
0.0
  0
SPLINE
  5
1f6
100
AcDbEntity
  8
0
 62
1
100
AcDbSpline
 70
8
 71
3
 72
8
 73
4
 74
0
 40
0
 40
0
 40
0
 40
0
 40
1
 40
1
 40
1
 40
1
 10
58.345607
 20
88.501618
 30
0.0
 10
59.164665
 20
88.514596
 30
0.0
 10
59.821843
 20
89.182268
 30
0.0
 10
59.821843
 20
90.001429
 30
0.0
  0
SPLINE
  5
1f7
100
AcDbEntity
  8
0
 62
1
100
AcDbSpline
 70
8
 71
3
 72
8
 73
4
 74
0
 40
0
 40
0
 40
0
 40
0
 40
1
 40
1
 40
1
 40
1
 10
64.930296
 20
99.873536
 30
0.0
 10
64.930296
 20
100.159349
 30
0.0
 10
64.777817
 20
100.423450
 30
0.0
 10
64.530296
 20
100.566357
 30
0.0
  0
SPLINE
  5
1f8
100
AcDbEntity
  8
0
 62
1
100
AcDbSpline
 70
8
 71
3
 72
8
 73
4
 74
0
 40
0
 40
0
 40
0
 40
0
 40
1
 40
1
 40
1
 40
1
 10
64.530296
 20
100.566357
 30
0.0
 10
64.282775
 20
100.709263
 30
0.0
 10
63.977817
 20
100.709263
 30
0.0
 10
63.730296
 20
100.566357
 30
0.0
  0
SPLINE
  5
1f9
100
AcDbEntity
  8
0
 62
1
100
AcDbSpline
 70
8
 71
3
 72
8
 73
4
 74
0
 40
0
 40
0
 40
0
 40
0
 40
1
 40
1
 40
1
 40
1
 10
63.730296
 20
100.566357
 30
0.0
 10
63.482775
 20
100.423450
 30
0.0
 10
63.330296
 20
100.159349
 30
0.0
 10
63.330296
 20
99.873536
 30
0.0
  0
SPLINE
  5
1fa
100
AcDbEntity
  8
0
 62
1
100
AcDbSpline
 70
8
 71
3
 72
8
 73
4
 74
0
 40
0
 40
0
 40
0
 40
0
 40
1
 40
1
 40
1
 40
1
 10
63.330296
 20
99.873536
 30
0.0
 10
63.330296
 20
99.587724
 30
0.0
 10
63.482775
 20
99.323622
 30
0.0
 10
63.730296
 20
99.180716
 30
0.0
  0
SPLINE
  5
1fb
100
AcDbEntity
  8
0
 62
1
100
AcDbSpline
 70
8
 71
3
 72
8
 73
4
 74
0
 40
0
 40
0
 40
0
 40
0
 40
1
 40
1
 40
1
 40
1
 10
63.730296
 20
99.180716
 30
0.0
 10
63.977817
 20
99.037810
 30
0.0
 10
64.282775
 20
99.037810
 30
0.0
 10
64.530296
 20
99.180716
 30
0.0
  0
SPLINE
  5
1fc
100
AcDbEntity
  8
0
 62
1
100
AcDbSpline
 70
8
 71
3
 72
8
 73
4
 74
0
 40
0
 40
0
 40
0
 40
0
 40
1
 40
1
 40
1
 40
1
 10
64.530296
 20
99.180716
 30
0.0
 10
64.777817
 20
99.323622
 30
0.0
 10
64.930296
 20
99.587724
 30
0.0
 10
64.930296
 20
99.873536
 30
0.0
  0
LINE
  5
1fd
100
AcDbEntity
  8
0
 62
1
100
AcDbLine
 10
64.930296
 20
99.873536
 30
0.0
 11
64.930296
 21
99.873536
 31
0.0
  0
SPLINE
  5
1fe
100
AcDbEntity
  8
0
 62
1
100
AcDbSpline
 70
8
 71
3
 72
8
 73
4
 74
0
 40
0
 40
0
 40
0
 40
0
 40
1
 40
1
 40
1
 40
1
 10
64.930296
 20
88.473536
 30
0.0
 10
64.930296
 20
88.759349
 30
0.0
 10
64.777817
 20
89.023450
 30
0.0
 10
64.530296
 20
89.166357
 30
0.0
  0
SPLINE
  5
1ff
100
AcDbEntity
  8
0
 62
1
100
AcDbSpline
 70
8
 71
3
 72
8
 73
4
 74
0
 40
0
 40
0
 40
0
 40
0
 40
1
 40
1
 40
1
 40
1
 10
64.530296
 20
89.166357
 30
0.0
 10
64.282775
 20
89.309263
 30
0.0
 10
63.977817
 20
89.309263
 30
0.0
 10
63.730296
 20
89.166357
 30
0.0
  0
SPLINE
  5
200
100
AcDbEntity
  8
0
 62
1
100
AcDbSpline
 70
8
 71
3
 72
8
 73
4
 74
0
 40
0
 40
0
 40
0
 40
0
 40
1
 40
1
 40
1
 40
1
 10
63.730296
 20
89.166357
 30
0.0
 10
63.482775
 20
89.023450
 30
0.0
 10
63.330296
 20
88.759349
 30
0.0
 10
63.330296
 20
88.473536
 30
0.0
  0
SPLINE
  5
201
100
AcDbEntity
  8
0
 62
1
100
AcDbSpline
 70
8
 71
3
 72
8
 73
4
 74
0
 40
0
 40
0
 40
0
 40
0
 40
1
 40
1
 40
1
 40
1
 10
63.330296
 20
88.473536
 30
0.0
 10
63.330296
 20
88.187724
 30
0.0
 10
63.482775
 20
87.923622
 30
0.0
 10
63.730296
 20
87.780716
 30
0.0
  0
SPLINE
  5
202
100
AcDbEntity
  8
0
 62
1
100
AcDbSpline
 70
8
 71
3
 72
8
 73
4
 74
0
 40
0
 40
0
 40
0
 40
0
 40
1
 40
1
 40
1
 40
1
 10
63.730296
 20
87.780716
 30
0.0
 10
63.977817
 20
87.637810
 30
0.0
 10
64.282775
 20
87.637810
 30
0.0
 10
64.530296
 20
87.780716
 30
0.0
  0
SPLINE
  5
203
100
AcDbEntity
  8
0
 62
1
100
AcDbSpline
 70
8
 71
3
 72
8
 73
4
 74
0
 40
0
 40
0
 40
0
 40
0
 40
1
 40
1
 40
1
 40
1
 10
64.530296
 20
87.780716
 30
0.0
 10
64.777817
 20
87.923622
 30
0.0
 10
64.930296
 20
88.187724
 30
0.0
 10
64.930296
 20
88.473536
 30
0.0
  0
LINE
  5
204
100
AcDbEntity
  8
0
 62
1
100
AcDbLine
 10
64.930296
 20
88.473536
 30
0.0
 11
64.930296
 21
88.473536
 31
0.0
  0
LINE
  5
205
100
AcDbEntity
  8
0
 62
1
100
AcDbLine
 10
64.930195
 20
99.860862
 30
0.0
 11
65.902588
 21
99.845455
 31
0.0
  0
LINE
  5
206
100
AcDbEntity
  8
0
 62
1
100
AcDbLine
 10
67.378824
 20
98.345643
 30
0.0
 11
67.378824
 21
90.001429
 31
0.0
  0
SPLINE
  5
207
100
AcDbEntity
  8
0
 62
1
100
AcDbSpline
 70
8
 71
3
 72
8
 73
4
 74
0
 40
0
 40
0
 40
0
 40
0
 40
1
 40
1
 40
1
 40
1
 10
67.378824
 20
98.345643
 30
0.0
 10
67.378824
 20
99.164805
 30
0.0
 10
66.721647
 20
99.832477
 30
0.0
 10
65.902588
 20
99.845455
 30
0.0
  0
LINE
  5
208
100
AcDbEntity
  8
0
 62
1
100
AcDbLine
 10
65.902588
 20
88.501618
 30
0.0
 11
64.930195
 21
88.486210
 31
0.0
  0
SPLINE
  5
209
100
AcDbEntity
  8
0
 62
1
100
AcDbSpline
 70
8
 71
3
 72
8
 73
4
 74
0
 40
0
 40
0
 40
0
 40
0
 40
1
 40
1
 40
1
 40
1
 10
65.902588
 20
88.501618
 30
0.0
 10
66.721646
 20
88.514596
 30
0.0
 10
67.378824
 20
89.182268
 30
0.0
 10
67.378824
 20
90.001429
 30
0.0
  0
SPLINE
  5
20a
100
AcDbEntity
  8
0
 62
1
100
AcDbSpline
 70
8
 71
3
 72
8
 73
4
 74
0
 40
0
 40
0
 40
0
 40
0
 40
1
 40
1
 40
1
 40
1
 10
72.487277
 20
99.873536
 30
0.0
 10
72.487277
 20
100.159349
 30
0.0
 10
72.334798
 20
100.423450
 30
0.0
 10
72.087277
 20
100.566357
 30
0.0
  0
SPLINE
  5
20b
100
AcDbEntity
  8
0
 62
1
100
AcDbSpline
 70
8
 71
3
 72
8
 73
4
 74
0
 40
0
 40
0
 40
0
 40
0
 40
1
 40
1
 40
1
 40
1
 10
72.087277
 20
100.566357
 30
0.0
 10
71.839756
 20
100.709263
 30
0.0
 10
71.534798
 20
100.709263
 30
0.0
 10
71.287277
 20
100.566357
 30
0.0
  0
SPLINE
  5
20c
100
AcDbEntity
  8
0
 62
1
100
AcDbSpline
 70
8
 71
3
 72
8
 73
4
 74
0
 40
0
 40
0
 40
0
 40
0
 40
1
 40
1
 40
1
 40
1
 10
71.287277
 20
100.566357
 30
0.0
 10
71.039756
 20
100.423450
 30
0.0
 10
70.887277
 20
100.159349
 30
0.0
 10
70.887277
 20
99.873536
 30
0.0
  0
SPLINE
  5
20d
100
AcDbEntity
  8
0
 62
1
100
AcDbSpline
 70
8
 71
3
 72
8
 73
4
 74
0
 40
0
 40
0
 40
0
 40
0
 40
1
 40
1
 40
1
 40
1
 10
70.887277
 20
99.873536
 30
0.0
 10
70.887277
 20
99.587724
 30
0.0
 10
71.039756
 20
99.323622
 30
0.0
 10
71.287277
 20
99.180716
 30
0.0
  0
SPLINE
  5
20e
100
AcDbEntity
  8
0
 62
1
100
AcDbSpline
 70
8
 71
3
 72
8
 73
4
 74
0
 40
0
 40
0
 40
0
 40
0
 40
1
 40
1
 40
1
 40
1
 10
71.287277
 20
99.180716
 30
0.0
 10
71.534798
 20
99.037810
 30
0.0
 10
71.839756
 20
99.037810
 30
0.0
 10
72.087277
 20
99.180716
 30
0.0
  0
SPLINE
  5
20f
100
AcDbEntity
  8
0
 62
1
100
AcDbSpline
 70
8
 71
3
 72
8
 73
4
 74
0
 40
0
 40
0
 40
0
 40
0
 40
1
 40
1
 40
1
 40
1
 10
72.087277
 20
99.180716
 30
0.0
 10
72.334798
 20
99.323622
 30
0.0
 10
72.487277
 20
99.587724
 30
0.0
 10
72.487277
 20
99.873536
 30
0.0
  0
LINE
  5
210
100
AcDbEntity
  8
0
 62
1
100
AcDbLine
 10
72.487277
 20
99.873536
 30
0.0
 11
72.487277
 21
99.873536
 31
0.0
  0
SPLINE
  5
211
100
AcDbEntity
  8
0
 62
1
100
AcDbSpline
 70
8
 71
3
 72
8
 73
4
 74
0
 40
0
 40
0
 40
0
 40
0
 40
1
 40
1
 40
1
 40
1
 10
72.487277
 20
88.473536
 30
0.0
 10
72.487277
 20
88.759349
 30
0.0
 10
72.334798
 20
89.023450
 30
0.0
 10
72.087277
 20
89.166357
 30
0.0
  0
SPLINE
  5
212
100
AcDbEntity
  8
0
 62
1
100
AcDbSpline
 70
8
 71
3
 72
8
 73
4
 74
0
 40
0
 40
0
 40
0
 40
0
 40
1
 40
1
 40
1
 40
1
 10
72.087277
 20
89.166357
 30
0.0
 10
71.839756
 20
89.309263
 30
0.0
 10
71.534798
 20
89.309263
 30
0.0
 10
71.287277
 20
89.166357
 30
0.0
  0
SPLINE
  5
213
100
AcDbEntity
  8
0
 62
1
100
AcDbSpline
 70
8
 71
3
 72
8
 73
4
 74
0
 40
0
 40
0
 40
0
 40
0
 40
1
 40
1
 40
1
 40
1
 10
71.287277
 20
89.166357
 30
0.0
 10
71.039756
 20
89.023450
 30
0.0
 10
70.887277
 20
88.759349
 30
0.0
 10
70.887277
 20
88.473536
 30
0.0
  0
SPLINE
  5
214
100
AcDbEntity
  8
0
 62
1
100
AcDbSpline
 70
8
 71
3
 72
8
 73
4
 74
0
 40
0
 40
0
 40
0
 40
0
 40
1
 40
1
 40
1
 40
1
 10
70.887277
 20
88.473536
 30
0.0
 10
70.887277
 20
88.187724
 30
0.0
 10
71.039756
 20
87.923622
 30
0.0
 10
71.287277
 20
87.780716
 30
0.0
  0
SPLINE
  5
215
100
AcDbEntity
  8
0
 62
1
100
AcDbSpline
 70
8
 71
3
 72
8
 73
4
 74
0
 40
0
 40
0
 40
0
 40
0
 40
1
 40
1
 40
1
 40
1
 10
71.287277
 20
87.780716
 30
0.0
 10
71.534798
 20
87.637810
 30
0.0
 10
71.839756
 20
87.637810
 30
0.0
 10
72.087277
 20
87.780716
 30
0.0
  0
SPLINE
  5
216
100
AcDbEntity
  8
0
 62
1
100
AcDbSpline
 70
8
 71
3
 72
8
 73
4
 74
0
 40
0
 40
0
 40
0
 40
0
 40
1
 40
1
 40
1
 40
1
 10
72.087277
 20
87.780716
 30
0.0
 10
72.334798
 20
87.923622
 30
0.0
 10
72.487277
 20
88.187724
 30
0.0
 10
72.487277
 20
88.473536
 30
0.0
  0
LINE
  5
217
100
AcDbEntity
  8
0
 62
1
100
AcDbLine
 10
72.487277
 20
88.473536
 30
0.0
 11
72.487277
 21
88.473536
 31
0.0
  0
LINE
  5
218
100
AcDbEntity
  8
0
 62
1
100
AcDbLine
 10
72.487176
 20
99.860862
 30
0.0
 11
73.459569
 21
99.845455
 31
0.0
  0
LINE
  5
219
100
AcDbEntity
  8
0
 62
1
100
AcDbLine
 10
74.935805
 20
98.345643
 30
0.0
 11
74.935805
 21
90.001429
 31
0.0
  0
SPLINE
  5
21a
100
AcDbEntity
  8
0
 62
1
100
AcDbSpline
 70
8
 71
3
 72
8
 73
4
 74
0
 40
0
 40
0
 40
0
 40
0
 40
1
 40
1
 40
1
 40
1
 10
74.935805
 20
98.345643
 30
0.0
 10
74.935805
 20
99.164805
 30
0.0
 10
74.278628
 20
99.832477
 30
0.0
 10
73.459569
 20
99.845455
 30
0.0
  0
LINE
  5
21b
100
AcDbEntity
  8
0
 62
1
100
AcDbLine
 10
73.459569
 20
88.501618
 30
0.0
 11
72.487176
 21
88.486210
 31
0.0
  0
SPLINE
  5
21c
100
AcDbEntity
  8
0
 62
1
100
AcDbSpline
 70
8
 71
3
 72
8
 73
4
 74
0
 40
0
 40
0
 40
0
 40
0
 40
1
 40
1
 40
1
 40
1
 10
73.459569
 20
88.501618
 30
0.0
 10
74.278627
 20
88.514596
 30
0.0
 10
74.935805
 20
89.182268
 30
0.0
 10
74.935805
 20
90.001429
 30
0.0
  0
SPLINE
  5
21d
100
AcDbEntity
  8
0
 62
1
100
AcDbSpline
 70
8
 71
3
 72
8
 73
4
 74
0
 40
0
 40
0
 40
0
 40
0
 40
1
 40
1
 40
1
 40
1
 10
80.044258
 20
99.873536
 30
0.0
 10
80.044258
 20
100.159349
 30
0.0
 10
79.891779
 20
100.423450
 30
0.0
 10
79.644258
 20
100.566357
 30
0.0
  0
SPLINE
  5
21e
100
AcDbEntity
  8
0
 62
1
100
AcDbSpline
 70
8
 71
3
 72
8
 73
4
 74
0
 40
0
 40
0
 40
0
 40
0
 40
1
 40
1
 40
1
 40
1
 10
79.644258
 20
100.566357
 30
0.0
 10
79.396737
 20
100.709263
 30
0.0
 10
79.091779
 20
100.709263
 30
0.0
 10
78.844258
 20
100.566357
 30
0.0
  0
SPLINE
  5
21f
100
AcDbEntity
  8
0
 62
1
100
AcDbSpline
 70
8
 71
3
 72
8
 73
4
 74
0
 40
0
 40
0
 40
0
 40
0
 40
1
 40
1
 40
1
 40
1
 10
78.844258
 20
100.566357
 30
0.0
 10
78.596737
 20
100.423450
 30
0.0
 10
78.444258
 20
100.159349
 30
0.0
 10
78.444258
 20
99.873536
 30
0.0
  0
SPLINE
  5
220
100
AcDbEntity
  8
0
 62
1
100
AcDbSpline
 70
8
 71
3
 72
8
 73
4
 74
0
 40
0
 40
0
 40
0
 40
0
 40
1
 40
1
 40
1
 40
1
 10
78.444258
 20
99.873536
 30
0.0
 10
78.444258
 20
99.587724
 30
0.0
 10
78.596737
 20
99.323622
 30
0.0
 10
78.844258
 20
99.180716
 30
0.0
  0
SPLINE
  5
221
100
AcDbEntity
  8
0
 62
1
100
AcDbSpline
 70
8
 71
3
 72
8
 73
4
 74
0
 40
0
 40
0
 40
0
 40
0
 40
1
 40
1
 40
1
 40
1
 10
78.844258
 20
99.180716
 30
0.0
 10
79.091779
 20
99.037810
 30
0.0
 10
79.396737
 20
99.037810
 30
0.0
 10
79.644258
 20
99.180716
 30
0.0
  0
SPLINE
  5
222
100
AcDbEntity
  8
0
 62
1
100
AcDbSpline
 70
8
 71
3
 72
8
 73
4
 74
0
 40
0
 40
0
 40
0
 40
0
 40
1
 40
1
 40
1
 40
1
 10
79.644258
 20
99.180716
 30
0.0
 10
79.891779
 20
99.323622
 30
0.0
 10
80.044258
 20
99.587724
 30
0.0
 10
80.044258
 20
99.873536
 30
0.0
  0
LINE
  5
223
100
AcDbEntity
  8
0
 62
1
100
AcDbLine
 10
80.044258
 20
99.873536
 30
0.0
 11
80.044258
 21
99.873536
 31
0.0
  0
SPLINE
  5
224
100
AcDbEntity
  8
0
 62
1
100
AcDbSpline
 70
8
 71
3
 72
8
 73
4
 74
0
 40
0
 40
0
 40
0
 40
0
 40
1
 40
1
 40
1
 40
1
 10
80.044258
 20
88.473536
 30
0.0
 10
80.044258
 20
88.759349
 30
0.0
 10
79.891779
 20
89.023451
 30
0.0
 10
79.644258
 20
89.166357
 30
0.0
  0
SPLINE
  5
225
100
AcDbEntity
  8
0
 62
1
100
AcDbSpline
 70
8
 71
3
 72
8
 73
4
 74
0
 40
0
 40
0
 40
0
 40
0
 40
1
 40
1
 40
1
 40
1
 10
79.644258
 20
89.166357
 30
0.0
 10
79.396737
 20
89.309263
 30
0.0
 10
79.091779
 20
89.309263
 30
0.0
 10
78.844258
 20
89.166357
 30
0.0
  0
SPLINE
  5
226
100
AcDbEntity
  8
0
 62
1
100
AcDbSpline
 70
8
 71
3
 72
8
 73
4
 74
0
 40
0
 40
0
 40
0
 40
0
 40
1
 40
1
 40
1
 40
1
 10
78.844258
 20
89.166357
 30
0.0
 10
78.596737
 20
89.023451
 30
0.0
 10
78.444258
 20
88.759349
 30
0.0
 10
78.444258
 20
88.473536
 30
0.0
  0
SPLINE
  5
227
100
AcDbEntity
  8
0
 62
1
100
AcDbSpline
 70
8
 71
3
 72
8
 73
4
 74
0
 40
0
 40
0
 40
0
 40
0
 40
1
 40
1
 40
1
 40
1
 10
78.444258
 20
88.473536
 30
0.0
 10
78.444258
 20
88.187724
 30
0.0
 10
78.596737
 20
87.923622
 30
0.0
 10
78.844258
 20
87.780716
 30
0.0
  0
SPLINE
  5
228
100
AcDbEntity
  8
0
 62
1
100
AcDbSpline
 70
8
 71
3
 72
8
 73
4
 74
0
 40
0
 40
0
 40
0
 40
0
 40
1
 40
1
 40
1
 40
1
 10
78.844258
 20
87.780716
 30
0.0
 10
79.091779
 20
87.637810
 30
0.0
 10
79.396737
 20
87.637810
 30
0.0
 10
79.644258
 20
87.780716
 30
0.0
  0
SPLINE
  5
229
100
AcDbEntity
  8
0
 62
1
100
AcDbSpline
 70
8
 71
3
 72
8
 73
4
 74
0
 40
0
 40
0
 40
0
 40
0
 40
1
 40
1
 40
1
 40
1
 10
79.644258
 20
87.780716
 30
0.0
 10
79.891779
 20
87.923622
 30
0.0
 10
80.044258
 20
88.187724
 30
0.0
 10
80.044258
 20
88.473536
 30
0.0
  0
LINE
  5
22a
100
AcDbEntity
  8
0
 62
1
100
AcDbLine
 10
80.044258
 20
88.473536
 30
0.0
 11
80.044258
 21
88.473536
 31
0.0
  0
LINE
  5
22b
100
AcDbEntity
  8
0
 62
1
100
AcDbLine
 10
80.044157
 20
99.860862
 30
0.0
 11
81.016550
 21
99.845455
 31
0.0
  0
LINE
  5
22c
100
AcDbEntity
  8
0
 62
1
100
AcDbLine
 10
82.492786
 20
98.345643
 30
0.0
 11
82.492786
 21
90.001429
 31
0.0
  0
SPLINE
  5
22d
100
AcDbEntity
  8
0
 62
1
100
AcDbSpline
 70
8
 71
3
 72
8
 73
4
 74
0
 40
0
 40
0
 40
0
 40
0
 40
1
 40
1
 40
1
 40
1
 10
82.492786
 20
98.345643
 30
0.0
 10
82.492786
 20
99.164805
 30
0.0
 10
81.835609
 20
99.832477
 30
0.0
 10
81.016550
 20
99.845455
 30
0.0
  0
LINE
  5
22e
100
AcDbEntity
  8
0
 62
1
100
AcDbLine
 10
81.016550
 20
88.501618
 30
0.0
 11
80.044157
 21
88.486210
 31
0.0
  0
SPLINE
  5
22f
100
AcDbEntity
  8
0
 62
1
100
AcDbSpline
 70
8
 71
3
 72
8
 73
4
 74
0
 40
0
 40
0
 40
0
 40
0
 40
1
 40
1
 40
1
 40
1
 10
81.016550
 20
88.501618
 30
0.0
 10
81.835609
 20
88.514596
 30
0.0
 10
82.492786
 20
89.182268
 30
0.0
 10
82.492786
 20
90.001429
 30
0.0
  0
SPLINE
  5
230
100
AcDbEntity
  8
0
 62
1
100
AcDbSpline
 70
8
 71
3
 72
8
 73
4
 74
0
 40
0
 40
0
 40
0
 40
0
 40
1
 40
1
 40
1
 40
1
 10
87.601239
 20
99.873536
 30
0.0
 10
87.601239
 20
100.159349
 30
0.0
 10
87.448760
 20
100.423450
 30
0.0
 10
87.201239
 20
100.566357
 30
0.0
  0
SPLINE
  5
231
100
AcDbEntity
  8
0
 62
1
100
AcDbSpline
 70
8
 71
3
 72
8
 73
4
 74
0
 40
0
 40
0
 40
0
 40
0
 40
1
 40
1
 40
1
 40
1
 10
87.201239
 20
100.566357
 30
0.0
 10
86.953718
 20
100.709263
 30
0.0
 10
86.648760
 20
100.709263
 30
0.0
 10
86.401239
 20
100.566357
 30
0.0
  0
SPLINE
  5
232
100
AcDbEntity
  8
0
 62
1
100
AcDbSpline
 70
8
 71
3
 72
8
 73
4
 74
0
 40
0
 40
0
 40
0
 40
0
 40
1
 40
1
 40
1
 40
1
 10
86.401239
 20
100.566357
 30
0.0
 10
86.153718
 20
100.423450
 30
0.0
 10
86.001239
 20
100.159349
 30
0.0
 10
86.001239
 20
99.873536
 30
0.0
  0
SPLINE
  5
233
100
AcDbEntity
  8
0
 62
1
100
AcDbSpline
 70
8
 71
3
 72
8
 73
4
 74
0
 40
0
 40
0
 40
0
 40
0
 40
1
 40
1
 40
1
 40
1
 10
86.001239
 20
99.873536
 30
0.0
 10
86.001239
 20
99.587724
 30
0.0
 10
86.153718
 20
99.323622
 30
0.0
 10
86.401239
 20
99.180716
 30
0.0
  0
SPLINE
  5
234
100
AcDbEntity
  8
0
 62
1
100
AcDbSpline
 70
8
 71
3
 72
8
 73
4
 74
0
 40
0
 40
0
 40
0
 40
0
 40
1
 40
1
 40
1
 40
1
 10
86.401239
 20
99.180716
 30
0.0
 10
86.648760
 20
99.037810
 30
0.0
 10
86.953718
 20
99.037810
 30
0.0
 10
87.201239
 20
99.180716
 30
0.0
  0
SPLINE
  5
235
100
AcDbEntity
  8
0
 62
1
100
AcDbSpline
 70
8
 71
3
 72
8
 73
4
 74
0
 40
0
 40
0
 40
0
 40
0
 40
1
 40
1
 40
1
 40
1
 10
87.201239
 20
99.180716
 30
0.0
 10
87.448760
 20
99.323622
 30
0.0
 10
87.601239
 20
99.587724
 30
0.0
 10
87.601239
 20
99.873536
 30
0.0
  0
LINE
  5
236
100
AcDbEntity
  8
0
 62
1
100
AcDbLine
 10
87.601239
 20
99.873536
 30
0.0
 11
87.601239
 21
99.873536
 31
0.0
  0
SPLINE
  5
237
100
AcDbEntity
  8
0
 62
1
100
AcDbSpline
 70
8
 71
3
 72
8
 73
4
 74
0
 40
0
 40
0
 40
0
 40
0
 40
1
 40
1
 40
1
 40
1
 10
87.601239
 20
88.473536
 30
0.0
 10
87.601239
 20
88.759349
 30
0.0
 10
87.448760
 20
89.023451
 30
0.0
 10
87.201239
 20
89.166357
 30
0.0
  0
SPLINE
  5
238
100
AcDbEntity
  8
0
 62
1
100
AcDbSpline
 70
8
 71
3
 72
8
 73
4
 74
0
 40
0
 40
0
 40
0
 40
0
 40
1
 40
1
 40
1
 40
1
 10
87.201239
 20
89.166357
 30
0.0
 10
86.953718
 20
89.309263
 30
0.0
 10
86.648760
 20
89.309263
 30
0.0
 10
86.401239
 20
89.166357
 30
0.0
  0
SPLINE
  5
239
100
AcDbEntity
  8
0
 62
1
100
AcDbSpline
 70
8
 71
3
 72
8
 73
4
 74
0
 40
0
 40
0
 40
0
 40
0
 40
1
 40
1
 40
1
 40
1
 10
86.401239
 20
89.166357
 30
0.0
 10
86.153718
 20
89.023451
 30
0.0
 10
86.001239
 20
88.759349
 30
0.0
 10
86.001239
 20
88.473536
 30
0.0
  0
SPLINE
  5
23a
100
AcDbEntity
  8
0
 62
1
100
AcDbSpline
 70
8
 71
3
 72
8
 73
4
 74
0
 40
0
 40
0
 40
0
 40
0
 40
1
 40
1
 40
1
 40
1
 10
86.001239
 20
88.473536
 30
0.0
 10
86.001239
 20
88.187724
 30
0.0
 10
86.153718
 20
87.923622
 30
0.0
 10
86.401239
 20
87.780716
 30
0.0
  0
SPLINE
  5
23b
100
AcDbEntity
  8
0
 62
1
100
AcDbSpline
 70
8
 71
3
 72
8
 73
4
 74
0
 40
0
 40
0
 40
0
 40
0
 40
1
 40
1
 40
1
 40
1
 10
86.401239
 20
87.780716
 30
0.0
 10
86.648760
 20
87.637810
 30
0.0
 10
86.953718
 20
87.637810
 30
0.0
 10
87.201239
 20
87.780716
 30
0.0
  0
SPLINE
  5
23c
100
AcDbEntity
  8
0
 62
1
100
AcDbSpline
 70
8
 71
3
 72
8
 73
4
 74
0
 40
0
 40
0
 40
0
 40
0
 40
1
 40
1
 40
1
 40
1
 10
87.201239
 20
87.780716
 30
0.0
 10
87.448760
 20
87.923622
 30
0.0
 10
87.601239
 20
88.187724
 30
0.0
 10
87.601239
 20
88.473536
 30
0.0
  0
LINE
  5
23d
100
AcDbEntity
  8
0
 62
1
100
AcDbLine
 10
87.601239
 20
88.473536
 30
0.0
 11
87.601239
 21
88.473536
 31
0.0
  0
LINE
  5
23e
100
AcDbEntity
  8
0
 62
1
100
AcDbLine
 10
87.601138
 20
99.860862
 30
0.0
 11
88.573531
 21
99.845455
 31
0.0
  0
LINE
  5
23f
100
AcDbEntity
  8
0
 62
1
100
AcDbLine
 10
90.049767
 20
98.345643
 30
0.0
 11
90.049767
 21
90.001429
 31
0.0
  0
SPLINE
  5
240
100
AcDbEntity
  8
0
 62
1
100
AcDbSpline
 70
8
 71
3
 72
8
 73
4
 74
0
 40
0
 40
0
 40
0
 40
0
 40
1
 40
1
 40
1
 40
1
 10
90.049767
 20
98.345643
 30
0.0
 10
90.049767
 20
99.164805
 30
0.0
 10
89.392590
 20
99.832477
 30
0.0
 10
88.573531
 20
99.845455
 30
0.0
  0
LINE
  5
241
100
AcDbEntity
  8
0
 62
1
100
AcDbLine
 10
88.573531
 20
88.501618
 30
0.0
 11
87.601138
 21
88.486210
 31
0.0
  0
SPLINE
  5
242
100
AcDbEntity
  8
0
 62
1
100
AcDbSpline
 70
8
 71
3
 72
8
 73
4
 74
0
 40
0
 40
0
 40
0
 40
0
 40
1
 40
1
 40
1
 40
1
 10
88.573531
 20
88.501618
 30
0.0
 10
89.392590
 20
88.514596
 30
0.0
 10
90.049767
 20
89.182268
 30
0.0
 10
90.049767
 20
90.001429
 30
0.0
  0
SPLINE
  5
243
100
AcDbEntity
  8
0
 62
1
100
AcDbSpline
 70
8
 71
3
 72
8
 73
4
 74
0
 40
0
 40
0
 40
0
 40
0
 40
1
 40
1
 40
1
 40
1
 10
95.158220
 20
99.873536
 30
0.0
 10
95.158220
 20
100.159349
 30
0.0
 10
95.005741
 20
100.423450
 30
0.0
 10
94.758220
 20
100.566357
 30
0.0
  0
SPLINE
  5
244
100
AcDbEntity
  8
0
 62
1
100
AcDbSpline
 70
8
 71
3
 72
8
 73
4
 74
0
 40
0
 40
0
 40
0
 40
0
 40
1
 40
1
 40
1
 40
1
 10
94.758220
 20
100.566357
 30
0.0
 10
94.510699
 20
100.709263
 30
0.0
 10
94.205741
 20
100.709263
 30
0.0
 10
93.958220
 20
100.566357
 30
0.0
  0
SPLINE
  5
245
100
AcDbEntity
  8
0
 62
1
100
AcDbSpline
 70
8
 71
3
 72
8
 73
4
 74
0
 40
0
 40
0
 40
0
 40
0
 40
1
 40
1
 40
1
 40
1
 10
93.958220
 20
100.566357
 30
0.0
 10
93.710699
 20
100.423450
 30
0.0
 10
93.558220
 20
100.159349
 30
0.0
 10
93.558220
 20
99.873536
 30
0.0
  0
SPLINE
  5
246
100
AcDbEntity
  8
0
 62
1
100
AcDbSpline
 70
8
 71
3
 72
8
 73
4
 74
0
 40
0
 40
0
 40
0
 40
0
 40
1
 40
1
 40
1
 40
1
 10
93.558220
 20
99.873536
 30
0.0
 10
93.558220
 20
99.587724
 30
0.0
 10
93.710699
 20
99.323622
 30
0.0
 10
93.958220
 20
99.180716
 30
0.0
  0
SPLINE
  5
247
100
AcDbEntity
  8
0
 62
1
100
AcDbSpline
 70
8
 71
3
 72
8
 73
4
 74
0
 40
0
 40
0
 40
0
 40
0
 40
1
 40
1
 40
1
 40
1
 10
93.958220
 20
99.180716
 30
0.0
 10
94.205741
 20
99.037810
 30
0.0
 10
94.510699
 20
99.037810
 30
0.0
 10
94.758220
 20
99.180716
 30
0.0
  0
SPLINE
  5
248
100
AcDbEntity
  8
0
 62
1
100
AcDbSpline
 70
8
 71
3
 72
8
 73
4
 74
0
 40
0
 40
0
 40
0
 40
0
 40
1
 40
1
 40
1
 40
1
 10
94.758220
 20
99.180716
 30
0.0
 10
95.005741
 20
99.323622
 30
0.0
 10
95.158220
 20
99.587724
 30
0.0
 10
95.158220
 20
99.873536
 30
0.0
  0
LINE
  5
249
100
AcDbEntity
  8
0
 62
1
100
AcDbLine
 10
95.158220
 20
99.873536
 30
0.0
 11
95.158220
 21
99.873536
 31
0.0
  0
SPLINE
  5
24a
100
AcDbEntity
  8
0
 62
1
100
AcDbSpline
 70
8
 71
3
 72
8
 73
4
 74
0
 40
0
 40
0
 40
0
 40
0
 40
1
 40
1
 40
1
 40
1
 10
95.158220
 20
88.473536
 30
0.0
 10
95.158220
 20
88.759349
 30
0.0
 10
95.005741
 20
89.023450
 30
0.0
 10
94.758220
 20
89.166357
 30
0.0
  0
SPLINE
  5
24b
100
AcDbEntity
  8
0
 62
1
100
AcDbSpline
 70
8
 71
3
 72
8
 73
4
 74
0
 40
0
 40
0
 40
0
 40
0
 40
1
 40
1
 40
1
 40
1
 10
94.758220
 20
89.166357
 30
0.0
 10
94.510699
 20
89.309263
 30
0.0
 10
94.205741
 20
89.309263
 30
0.0
 10
93.958220
 20
89.166357
 30
0.0
  0
SPLINE
  5
24c
100
AcDbEntity
  8
0
 62
1
100
AcDbSpline
 70
8
 71
3
 72
8
 73
4
 74
0
 40
0
 40
0
 40
0
 40
0
 40
1
 40
1
 40
1
 40
1
 10
93.958220
 20
89.166357
 30
0.0
 10
93.710699
 20
89.023450
 30
0.0
 10
93.558220
 20
88.759349
 30
0.0
 10
93.558220
 20
88.473536
 30
0.0
  0
SPLINE
  5
24d
100
AcDbEntity
  8
0
 62
1
100
AcDbSpline
 70
8
 71
3
 72
8
 73
4
 74
0
 40
0
 40
0
 40
0
 40
0
 40
1
 40
1
 40
1
 40
1
 10
93.558220
 20
88.473536
 30
0.0
 10
93.558220
 20
88.187724
 30
0.0
 10
93.710699
 20
87.923622
 30
0.0
 10
93.958220
 20
87.780716
 30
0.0
  0
SPLINE
  5
24e
100
AcDbEntity
  8
0
 62
1
100
AcDbSpline
 70
8
 71
3
 72
8
 73
4
 74
0
 40
0
 40
0
 40
0
 40
0
 40
1
 40
1
 40
1
 40
1
 10
93.958220
 20
87.780716
 30
0.0
 10
94.205741
 20
87.637810
 30
0.0
 10
94.510699
 20
87.637810
 30
0.0
 10
94.758220
 20
87.780716
 30
0.0
  0
SPLINE
  5
24f
100
AcDbEntity
  8
0
 62
1
100
AcDbSpline
 70
8
 71
3
 72
8
 73
4
 74
0
 40
0
 40
0
 40
0
 40
0
 40
1
 40
1
 40
1
 40
1
 10
94.758220
 20
87.780716
 30
0.0
 10
95.005741
 20
87.923622
 30
0.0
 10
95.158220
 20
88.187724
 30
0.0
 10
95.158220
 20
88.473536
 30
0.0
  0
LINE
  5
250
100
AcDbEntity
  8
0
 62
1
100
AcDbLine
 10
95.158220
 20
88.473536
 30
0.0
 11
95.158220
 21
88.473536
 31
0.0
  0
LINE
  5
251
100
AcDbEntity
  8
0
 62
1
100
AcDbLine
 10
95.158119
 20
99.860862
 30
0.0
 11
96.130512
 21
99.845455
 31
0.0
  0
LINE
  5
252
100
AcDbEntity
  8
0
 62
1
100
AcDbLine
 10
97.606748
 20
98.345643
 30
0.0
 11
97.606748
 21
90.001429
 31
0.0
  0
SPLINE
  5
253
100
AcDbEntity
  8
0
 62
1
100
AcDbSpline
 70
8
 71
3
 72
8
 73
4
 74
0
 40
0
 40
0
 40
0
 40
0
 40
1
 40
1
 40
1
 40
1
 10
97.606748
 20
98.345643
 30
0.0
 10
97.606748
 20
99.164805
 30
0.0
 10
96.949571
 20
99.832477
 30
0.0
 10
96.130512
 20
99.845455
 30
0.0
  0
LINE
  5
254
100
AcDbEntity
  8
0
 62
1
100
AcDbLine
 10
96.130512
 20
88.501618
 30
0.0
 11
95.158119
 21
88.486210
 31
0.0
  0
SPLINE
  5
255
100
AcDbEntity
  8
0
 62
1
100
AcDbSpline
 70
8
 71
3
 72
8
 73
4
 74
0
 40
0
 40
0
 40
0
 40
0
 40
1
 40
1
 40
1
 40
1
 10
96.130512
 20
88.501618
 30
0.0
 10
96.949571
 20
88.514596
 30
0.0
 10
97.606748
 20
89.182268
 30
0.0
 10
97.606748
 20
90.001429
 30
0.0
  0
SPLINE
  5
256
100
AcDbEntity
  8
0
 62
1
100
AcDbSpline
 70
8
 71
3
 72
8
 73
4
 74
0
 40
0
 40
0
 40
0
 40
0
 40
1
 40
1
 40
1
 40
1
 10
102.715201
 20
99.873536
 30
0.0
 10
102.715201
 20
100.159349
 30
0.0
 10
102.562722
 20
100.423450
 30
0.0
 10
102.315201
 20
100.566357
 30
0.0
  0
SPLINE
  5
257
100
AcDbEntity
  8
0
 62
1
100
AcDbSpline
 70
8
 71
3
 72
8
 73
4
 74
0
 40
0
 40
0
 40
0
 40
0
 40
1
 40
1
 40
1
 40
1
 10
102.315201
 20
100.566357
 30
0.0
 10
102.067680
 20
100.709263
 30
0.0
 10
101.762722
 20
100.709263
 30
0.0
 10
101.515201
 20
100.566357
 30
0.0
  0
SPLINE
  5
258
100
AcDbEntity
  8
0
 62
1
100
AcDbSpline
 70
8
 71
3
 72
8
 73
4
 74
0
 40
0
 40
0
 40
0
 40
0
 40
1
 40
1
 40
1
 40
1
 10
101.515201
 20
100.566357
 30
0.0
 10
101.267680
 20
100.423450
 30
0.0
 10
101.115201
 20
100.159349
 30
0.0
 10
101.115201
 20
99.873536
 30
0.0
  0
SPLINE
  5
259
100
AcDbEntity
  8
0
 62
1
100
AcDbSpline
 70
8
 71
3
 72
8
 73
4
 74
0
 40
0
 40
0
 40
0
 40
0
 40
1
 40
1
 40
1
 40
1
 10
101.115201
 20
99.873536
 30
0.0
 10
101.115201
 20
99.587724
 30
0.0
 10
101.267680
 20
99.323622
 30
0.0
 10
101.515201
 20
99.180716
 30
0.0
  0
SPLINE
  5
25a
100
AcDbEntity
  8
0
 62
1
100
AcDbSpline
 70
8
 71
3
 72
8
 73
4
 74
0
 40
0
 40
0
 40
0
 40
0
 40
1
 40
1
 40
1
 40
1
 10
101.515201
 20
99.180716
 30
0.0
 10
101.762722
 20
99.037810
 30
0.0
 10
102.067680
 20
99.037810
 30
0.0
 10
102.315201
 20
99.180716
 30
0.0
  0
SPLINE
  5
25b
100
AcDbEntity
  8
0
 62
1
100
AcDbSpline
 70
8
 71
3
 72
8
 73
4
 74
0
 40
0
 40
0
 40
0
 40
0
 40
1
 40
1
 40
1
 40
1
 10
102.315201
 20
99.180716
 30
0.0
 10
102.562722
 20
99.323622
 30
0.0
 10
102.715201
 20
99.587724
 30
0.0
 10
102.715201
 20
99.873536
 30
0.0
  0
LINE
  5
25c
100
AcDbEntity
  8
0
 62
1
100
AcDbLine
 10
102.715201
 20
99.873536
 30
0.0
 11
102.715201
 21
99.873536
 31
0.0
  0
SPLINE
  5
25d
100
AcDbEntity
  8
0
 62
1
100
AcDbSpline
 70
8
 71
3
 72
8
 73
4
 74
0
 40
0
 40
0
 40
0
 40
0
 40
1
 40
1
 40
1
 40
1
 10
102.715201
 20
88.473536
 30
0.0
 10
102.715201
 20
88.759349
 30
0.0
 10
102.562722
 20
89.023451
 30
0.0
 10
102.315201
 20
89.166357
 30
0.0
  0
SPLINE
  5
25e
100
AcDbEntity
  8
0
 62
1
100
AcDbSpline
 70
8
 71
3
 72
8
 73
4
 74
0
 40
0
 40
0
 40
0
 40
0
 40
1
 40
1
 40
1
 40
1
 10
102.315201
 20
89.166357
 30
0.0
 10
102.067680
 20
89.309263
 30
0.0
 10
101.762722
 20
89.309263
 30
0.0
 10
101.515201
 20
89.166357
 30
0.0
  0
SPLINE
  5
25f
100
AcDbEntity
  8
0
 62
1
100
AcDbSpline
 70
8
 71
3
 72
8
 73
4
 74
0
 40
0
 40
0
 40
0
 40
0
 40
1
 40
1
 40
1
 40
1
 10
101.515201
 20
89.166357
 30
0.0
 10
101.267680
 20
89.023451
 30
0.0
 10
101.115201
 20
88.759349
 30
0.0
 10
101.115201
 20
88.473536
 30
0.0
  0
SPLINE
  5
260
100
AcDbEntity
  8
0
 62
1
100
AcDbSpline
 70
8
 71
3
 72
8
 73
4
 74
0
 40
0
 40
0
 40
0
 40
0
 40
1
 40
1
 40
1
 40
1
 10
101.115201
 20
88.473536
 30
0.0
 10
101.115201
 20
88.187724
 30
0.0
 10
101.267680
 20
87.923622
 30
0.0
 10
101.515201
 20
87.780716
 30
0.0
  0
SPLINE
  5
261
100
AcDbEntity
  8
0
 62
1
100
AcDbSpline
 70
8
 71
3
 72
8
 73
4
 74
0
 40
0
 40
0
 40
0
 40
0
 40
1
 40
1
 40
1
 40
1
 10
101.515201
 20
87.780716
 30
0.0
 10
101.762722
 20
87.637810
 30
0.0
 10
102.067680
 20
87.637810
 30
0.0
 10
102.315201
 20
87.780716
 30
0.0
  0
SPLINE
  5
262
100
AcDbEntity
  8
0
 62
1
100
AcDbSpline
 70
8
 71
3
 72
8
 73
4
 74
0
 40
0
 40
0
 40
0
 40
0
 40
1
 40
1
 40
1
 40
1
 10
102.315201
 20
87.780716
 30
0.0
 10
102.562722
 20
87.923622
 30
0.0
 10
102.715201
 20
88.187724
 30
0.0
 10
102.715201
 20
88.473536
 30
0.0
  0
LINE
  5
263
100
AcDbEntity
  8
0
 62
1
100
AcDbLine
 10
102.715201
 20
88.473536
 30
0.0
 11
102.715201
 21
88.473536
 31
0.0
  0
LINE
  5
264
100
AcDbEntity
  8
0
 62
1
100
AcDbLine
 10
102.715100
 20
99.860862
 30
0.0
 11
103.687493
 21
99.845455
 31
0.0
  0
LINE
  5
265
100
AcDbEntity
  8
0
 62
1
100
AcDbLine
 10
105.163729
 20
98.345643
 30
0.0
 11
105.163729
 21
90.001429
 31
0.0
  0
SPLINE
  5
266
100
AcDbEntity
  8
0
 62
1
100
AcDbSpline
 70
8
 71
3
 72
8
 73
4
 74
0
 40
0
 40
0
 40
0
 40
0
 40
1
 40
1
 40
1
 40
1
 10
105.163729
 20
98.345643
 30
0.0
 10
105.163729
 20
99.164805
 30
0.0
 10
104.506552
 20
99.832477
 30
0.0
 10
103.687493
 20
99.845455
 30
0.0
  0
LINE
  5
267
100
AcDbEntity
  8
0
 62
1
100
AcDbLine
 10
103.687493
 20
88.501618
 30
0.0
 11
102.715100
 21
88.486210
 31
0.0
  0
SPLINE
  5
268
100
AcDbEntity
  8
0
 62
1
100
AcDbSpline
 70
8
 71
3
 72
8
 73
4
 74
0
 40
0
 40
0
 40
0
 40
0
 40
1
 40
1
 40
1
 40
1
 10
103.687493
 20
88.501618
 30
0.0
 10
104.506552
 20
88.514596
 30
0.0
 10
105.163729
 20
89.182268
 30
0.0
 10
105.163729
 20
90.001429
 30
0.0
  0
SPLINE
  5
269
100
AcDbEntity
  8
0
 62
1
100
AcDbSpline
 70
8
 71
3
 72
8
 73
4
 74
0
 40
0
 40
0
 40
0
 40
0
 40
1
 40
1
 40
1
 40
1
 10
110.272182
 20
99.873536
 30
0.0
 10
110.272182
 20
100.159349
 30
0.0
 10
110.119703
 20
100.423450
 30
0.0
 10
109.872182
 20
100.566357
 30
0.0
  0
SPLINE
  5
26a
100
AcDbEntity
  8
0
 62
1
100
AcDbSpline
 70
8
 71
3
 72
8
 73
4
 74
0
 40
0
 40
0
 40
0
 40
0
 40
1
 40
1
 40
1
 40
1
 10
109.872182
 20
100.566357
 30
0.0
 10
109.624661
 20
100.709263
 30
0.0
 10
109.319703
 20
100.709263
 30
0.0
 10
109.072182
 20
100.566357
 30
0.0
  0
SPLINE
  5
26b
100
AcDbEntity
  8
0
 62
1
100
AcDbSpline
 70
8
 71
3
 72
8
 73
4
 74
0
 40
0
 40
0
 40
0
 40
0
 40
1
 40
1
 40
1
 40
1
 10
109.072182
 20
100.566357
 30
0.0
 10
108.824661
 20
100.423450
 30
0.0
 10
108.672182
 20
100.159349
 30
0.0
 10
108.672182
 20
99.873536
 30
0.0
  0
SPLINE
  5
26c
100
AcDbEntity
  8
0
 62
1
100
AcDbSpline
 70
8
 71
3
 72
8
 73
4
 74
0
 40
0
 40
0
 40
0
 40
0
 40
1
 40
1
 40
1
 40
1
 10
108.672182
 20
99.873536
 30
0.0
 10
108.672182
 20
99.587724
 30
0.0
 10
108.824661
 20
99.323622
 30
0.0
 10
109.072182
 20
99.180716
 30
0.0
  0
SPLINE
  5
26d
100
AcDbEntity
  8
0
 62
1
100
AcDbSpline
 70
8
 71
3
 72
8
 73
4
 74
0
 40
0
 40
0
 40
0
 40
0
 40
1
 40
1
 40
1
 40
1
 10
109.072182
 20
99.180716
 30
0.0
 10
109.319703
 20
99.037810
 30
0.0
 10
109.624661
 20
99.037810
 30
0.0
 10
109.872182
 20
99.180716
 30
0.0
  0
SPLINE
  5
26e
100
AcDbEntity
  8
0
 62
1
100
AcDbSpline
 70
8
 71
3
 72
8
 73
4
 74
0
 40
0
 40
0
 40
0
 40
0
 40
1
 40
1
 40
1
 40
1
 10
109.872182
 20
99.180716
 30
0.0
 10
110.119703
 20
99.323622
 30
0.0
 10
110.272182
 20
99.587724
 30
0.0
 10
110.272182
 20
99.873536
 30
0.0
  0
LINE
  5
26f
100
AcDbEntity
  8
0
 62
1
100
AcDbLine
 10
110.272182
 20
99.873536
 30
0.0
 11
110.272182
 21
99.873536
 31
0.0
  0
SPLINE
  5
270
100
AcDbEntity
  8
0
 62
1
100
AcDbSpline
 70
8
 71
3
 72
8
 73
4
 74
0
 40
0
 40
0
 40
0
 40
0
 40
1
 40
1
 40
1
 40
1
 10
110.272182
 20
88.473536
 30
0.0
 10
110.272182
 20
88.759349
 30
0.0
 10
110.119703
 20
89.023450
 30
0.0
 10
109.872182
 20
89.166357
 30
0.0
  0
SPLINE
  5
271
100
AcDbEntity
  8
0
 62
1
100
AcDbSpline
 70
8
 71
3
 72
8
 73
4
 74
0
 40
0
 40
0
 40
0
 40
0
 40
1
 40
1
 40
1
 40
1
 10
109.872182
 20
89.166357
 30
0.0
 10
109.624661
 20
89.309263
 30
0.0
 10
109.319703
 20
89.309263
 30
0.0
 10
109.072182
 20
89.166357
 30
0.0
  0
SPLINE
  5
272
100
AcDbEntity
  8
0
 62
1
100
AcDbSpline
 70
8
 71
3
 72
8
 73
4
 74
0
 40
0
 40
0
 40
0
 40
0
 40
1
 40
1
 40
1
 40
1
 10
109.072182
 20
89.166357
 30
0.0
 10
108.824661
 20
89.023450
 30
0.0
 10
108.672182
 20
88.759349
 30
0.0
 10
108.672182
 20
88.473536
 30
0.0
  0
SPLINE
  5
273
100
AcDbEntity
  8
0
 62
1
100
AcDbSpline
 70
8
 71
3
 72
8
 73
4
 74
0
 40
0
 40
0
 40
0
 40
0
 40
1
 40
1
 40
1
 40
1
 10
108.672182
 20
88.473536
 30
0.0
 10
108.672182
 20
88.187724
 30
0.0
 10
108.824661
 20
87.923622
 30
0.0
 10
109.072182
 20
87.780716
 30
0.0
  0
SPLINE
  5
274
100
AcDbEntity
  8
0
 62
1
100
AcDbSpline
 70
8
 71
3
 72
8
 73
4
 74
0
 40
0
 40
0
 40
0
 40
0
 40
1
 40
1
 40
1
 40
1
 10
109.072182
 20
87.780716
 30
0.0
 10
109.319703
 20
87.637810
 30
0.0
 10
109.624661
 20
87.637810
 30
0.0
 10
109.872182
 20
87.780716
 30
0.0
  0
SPLINE
  5
275
100
AcDbEntity
  8
0
 62
1
100
AcDbSpline
 70
8
 71
3
 72
8
 73
4
 74
0
 40
0
 40
0
 40
0
 40
0
 40
1
 40
1
 40
1
 40
1
 10
109.872182
 20
87.780716
 30
0.0
 10
110.119703
 20
87.923622
 30
0.0
 10
110.272182
 20
88.187724
 30
0.0
 10
110.272182
 20
88.473536
 30
0.0
  0
LINE
  5
276
100
AcDbEntity
  8
0
 62
1
100
AcDbLine
 10
110.272182
 20
88.473536
 30
0.0
 11
110.272182
 21
88.473536
 31
0.0
  0
LINE
  5
277
100
AcDbEntity
  8
0
 62
1
100
AcDbLine
 10
110.272081
 20
99.860862
 30
0.0
 11
111.244474
 21
99.845455
 31
0.0
  0
LINE
  5
278
100
AcDbEntity
  8
0
 62
1
100
AcDbLine
 10
112.720710
 20
98.345643
 30
0.0
 11
112.720710
 21
90.001429
 31
0.0
  0
SPLINE
  5
279
100
AcDbEntity
  8
0
 62
1
100
AcDbSpline
 70
8
 71
3
 72
8
 73
4
 74
0
 40
0
 40
0
 40
0
 40
0
 40
1
 40
1
 40
1
 40
1
 10
112.720710
 20
98.345643
 30
0.0
 10
112.720710
 20
99.164805
 30
0.0
 10
112.063533
 20
99.832477
 30
0.0
 10
111.244474
 20
99.845455
 30
0.0
  0
LINE
  5
27a
100
AcDbEntity
  8
0
 62
1
100
AcDbLine
 10
111.244474
 20
88.501618
 30
0.0
 11
110.272081
 21
88.486210
 31
0.0
  0
SPLINE
  5
27b
100
AcDbEntity
  8
0
 62
1
100
AcDbSpline
 70
8
 71
3
 72
8
 73
4
 74
0
 40
0
 40
0
 40
0
 40
0
 40
1
 40
1
 40
1
 40
1
 10
111.244474
 20
88.501618
 30
0.0
 10
112.063533
 20
88.514596
 30
0.0
 10
112.720710
 20
89.182268
 30
0.0
 10
112.720710
 20
90.001429
 30
0.0
  0
SPLINE
  5
27c
100
AcDbEntity
  8
0
 62
1
100
AcDbSpline
 70
8
 71
3
 72
8
 73
4
 74
0
 40
0
 40
0
 40
0
 40
0
 40
1
 40
1
 40
1
 40
1
 10
117.829163
 20
99.873536
 30
0.0
 10
117.829163
 20
100.159349
 30
0.0
 10
117.676684
 20
100.423450
 30
0.0
 10
117.429163
 20
100.566357
 30
0.0
  0
SPLINE
  5
27d
100
AcDbEntity
  8
0
 62
1
100
AcDbSpline
 70
8
 71
3
 72
8
 73
4
 74
0
 40
0
 40
0
 40
0
 40
0
 40
1
 40
1
 40
1
 40
1
 10
117.429163
 20
100.566357
 30
0.0
 10
117.181642
 20
100.709263
 30
0.0
 10
116.876684
 20
100.709263
 30
0.0
 10
116.629163
 20
100.566357
 30
0.0
  0
SPLINE
  5
27e
100
AcDbEntity
  8
0
 62
1
100
AcDbSpline
 70
8
 71
3
 72
8
 73
4
 74
0
 40
0
 40
0
 40
0
 40
0
 40
1
 40
1
 40
1
 40
1
 10
116.629163
 20
100.566357
 30
0.0
 10
116.381642
 20
100.423450
 30
0.0
 10
116.229163
 20
100.159349
 30
0.0
 10
116.229163
 20
99.873536
 30
0.0
  0
SPLINE
  5
27f
100
AcDbEntity
  8
0
 62
1
100
AcDbSpline
 70
8
 71
3
 72
8
 73
4
 74
0
 40
0
 40
0
 40
0
 40
0
 40
1
 40
1
 40
1
 40
1
 10
116.229163
 20
99.873536
 30
0.0
 10
116.229163
 20
99.587724
 30
0.0
 10
116.381642
 20
99.323622
 30
0.0
 10
116.629163
 20
99.180716
 30
0.0
  0
SPLINE
  5
280
100
AcDbEntity
  8
0
 62
1
100
AcDbSpline
 70
8
 71
3
 72
8
 73
4
 74
0
 40
0
 40
0
 40
0
 40
0
 40
1
 40
1
 40
1
 40
1
 10
116.629163
 20
99.180716
 30
0.0
 10
116.876684
 20
99.037810
 30
0.0
 10
117.181642
 20
99.037810
 30
0.0
 10
117.429163
 20
99.180716
 30
0.0
  0
SPLINE
  5
281
100
AcDbEntity
  8
0
 62
1
100
AcDbSpline
 70
8
 71
3
 72
8
 73
4
 74
0
 40
0
 40
0
 40
0
 40
0
 40
1
 40
1
 40
1
 40
1
 10
117.429163
 20
99.180716
 30
0.0
 10
117.676684
 20
99.323622
 30
0.0
 10
117.829163
 20
99.587724
 30
0.0
 10
117.829163
 20
99.873536
 30
0.0
  0
LINE
  5
282
100
AcDbEntity
  8
0
 62
1
100
AcDbLine
 10
117.829163
 20
99.873536
 30
0.0
 11
117.829163
 21
99.873536
 31
0.0
  0
SPLINE
  5
283
100
AcDbEntity
  8
0
 62
1
100
AcDbSpline
 70
8
 71
3
 72
8
 73
4
 74
0
 40
0
 40
0
 40
0
 40
0
 40
1
 40
1
 40
1
 40
1
 10
117.829163
 20
88.473536
 30
0.0
 10
117.829163
 20
88.759349
 30
0.0
 10
117.676684
 20
89.023450
 30
0.0
 10
117.429163
 20
89.166357
 30
0.0
  0
SPLINE
  5
284
100
AcDbEntity
  8
0
 62
1
100
AcDbSpline
 70
8
 71
3
 72
8
 73
4
 74
0
 40
0
 40
0
 40
0
 40
0
 40
1
 40
1
 40
1
 40
1
 10
117.429163
 20
89.166357
 30
0.0
 10
117.181642
 20
89.309263
 30
0.0
 10
116.876684
 20
89.309263
 30
0.0
 10
116.629163
 20
89.166357
 30
0.0
  0
SPLINE
  5
285
100
AcDbEntity
  8
0
 62
1
100
AcDbSpline
 70
8
 71
3
 72
8
 73
4
 74
0
 40
0
 40
0
 40
0
 40
0
 40
1
 40
1
 40
1
 40
1
 10
116.629163
 20
89.166357
 30
0.0
 10
116.381642
 20
89.023450
 30
0.0
 10
116.229163
 20
88.759349
 30
0.0
 10
116.229163
 20
88.473536
 30
0.0
  0
SPLINE
  5
286
100
AcDbEntity
  8
0
 62
1
100
AcDbSpline
 70
8
 71
3
 72
8
 73
4
 74
0
 40
0
 40
0
 40
0
 40
0
 40
1
 40
1
 40
1
 40
1
 10
116.229163
 20
88.473536
 30
0.0
 10
116.229163
 20
88.187724
 30
0.0
 10
116.381642
 20
87.923622
 30
0.0
 10
116.629163
 20
87.780716
 30
0.0
  0
SPLINE
  5
287
100
AcDbEntity
  8
0
 62
1
100
AcDbSpline
 70
8
 71
3
 72
8
 73
4
 74
0
 40
0
 40
0
 40
0
 40
0
 40
1
 40
1
 40
1
 40
1
 10
116.629163
 20
87.780716
 30
0.0
 10
116.876684
 20
87.637810
 30
0.0
 10
117.181642
 20
87.637810
 30
0.0
 10
117.429163
 20
87.780716
 30
0.0
  0
SPLINE
  5
288
100
AcDbEntity
  8
0
 62
1
100
AcDbSpline
 70
8
 71
3
 72
8
 73
4
 74
0
 40
0
 40
0
 40
0
 40
0
 40
1
 40
1
 40
1
 40
1
 10
117.429163
 20
87.780716
 30
0.0
 10
117.676684
 20
87.923622
 30
0.0
 10
117.829163
 20
88.187724
 30
0.0
 10
117.829163
 20
88.473536
 30
0.0
  0
LINE
  5
289
100
AcDbEntity
  8
0
 62
1
100
AcDbLine
 10
117.829163
 20
88.473536
 30
0.0
 11
117.829163
 21
88.473536
 31
0.0
  0
LINE
  5
28a
100
AcDbEntity
  8
0
 62
1
100
AcDbLine
 10
117.829063
 20
99.860862
 30
0.0
 11
118.801455
 21
99.845455
 31
0.0
  0
LINE
  5
28b
100
AcDbEntity
  8
0
 62
1
100
AcDbLine
 10
120.277691
 20
98.345643
 30
0.0
 11
120.277691
 21
90.001429
 31
0.0
  0
SPLINE
  5
28c
100
AcDbEntity
  8
0
 62
1
100
AcDbSpline
 70
8
 71
3
 72
8
 73
4
 74
0
 40
0
 40
0
 40
0
 40
0
 40
1
 40
1
 40
1
 40
1
 10
120.277691
 20
98.345643
 30
0.0
 10
120.277691
 20
99.164805
 30
0.0
 10
119.620514
 20
99.832477
 30
0.0
 10
118.801455
 20
99.845455
 30
0.0
  0
LINE
  5
28d
100
AcDbEntity
  8
0
 62
1
100
AcDbLine
 10
118.801455
 20
88.501618
 30
0.0
 11
117.829063
 21
88.486210
 31
0.0
  0
SPLINE
  5
28e
100
AcDbEntity
  8
0
 62
1
100
AcDbSpline
 70
8
 71
3
 72
8
 73
4
 74
0
 40
0
 40
0
 40
0
 40
0
 40
1
 40
1
 40
1
 40
1
 10
118.801455
 20
88.501618
 30
0.0
 10
119.620514
 20
88.514596
 30
0.0
 10
120.277691
 20
89.182268
 30
0.0
 10
120.277691
 20
90.001429
 30
0.0
  0
SPLINE
  5
28f
100
AcDbEntity
  8
0
 62
1
100
AcDbSpline
 70
8
 71
3
 72
8
 73
4
 74
0
 40
0
 40
0
 40
0
 40
0
 40
1
 40
1
 40
1
 40
1
 10
125.386144
 20
99.873536
 30
0.0
 10
125.386144
 20
100.159349
 30
0.0
 10
125.233665
 20
100.423450
 30
0.0
 10
124.986144
 20
100.566357
 30
0.0
  0
SPLINE
  5
290
100
AcDbEntity
  8
0
 62
1
100
AcDbSpline
 70
8
 71
3
 72
8
 73
4
 74
0
 40
0
 40
0
 40
0
 40
0
 40
1
 40
1
 40
1
 40
1
 10
124.986144
 20
100.566357
 30
0.0
 10
124.738623
 20
100.709263
 30
0.0
 10
124.433665
 20
100.709263
 30
0.0
 10
124.186144
 20
100.566357
 30
0.0
  0
SPLINE
  5
291
100
AcDbEntity
  8
0
 62
1
100
AcDbSpline
 70
8
 71
3
 72
8
 73
4
 74
0
 40
0
 40
0
 40
0
 40
0
 40
1
 40
1
 40
1
 40
1
 10
124.186144
 20
100.566357
 30
0.0
 10
123.938623
 20
100.423450
 30
0.0
 10
123.786144
 20
100.159349
 30
0.0
 10
123.786144
 20
99.873536
 30
0.0
  0
SPLINE
  5
292
100
AcDbEntity
  8
0
 62
1
100
AcDbSpline
 70
8
 71
3
 72
8
 73
4
 74
0
 40
0
 40
0
 40
0
 40
0
 40
1
 40
1
 40
1
 40
1
 10
123.786144
 20
99.873536
 30
0.0
 10
123.786144
 20
99.587724
 30
0.0
 10
123.938623
 20
99.323622
 30
0.0
 10
124.186144
 20
99.180716
 30
0.0
  0
SPLINE
  5
293
100
AcDbEntity
  8
0
 62
1
100
AcDbSpline
 70
8
 71
3
 72
8
 73
4
 74
0
 40
0
 40
0
 40
0
 40
0
 40
1
 40
1
 40
1
 40
1
 10
124.186144
 20
99.180716
 30
0.0
 10
124.433665
 20
99.037810
 30
0.0
 10
124.738623
 20
99.037810
 30
0.0
 10
124.986144
 20
99.180716
 30
0.0
  0
SPLINE
  5
294
100
AcDbEntity
  8
0
 62
1
100
AcDbSpline
 70
8
 71
3
 72
8
 73
4
 74
0
 40
0
 40
0
 40
0
 40
0
 40
1
 40
1
 40
1
 40
1
 10
124.986144
 20
99.180716
 30
0.0
 10
125.233665
 20
99.323622
 30
0.0
 10
125.386144
 20
99.587724
 30
0.0
 10
125.386144
 20
99.873536
 30
0.0
  0
LINE
  5
295
100
AcDbEntity
  8
0
 62
1
100
AcDbLine
 10
125.386144
 20
99.873536
 30
0.0
 11
125.386144
 21
99.873536
 31
0.0
  0
SPLINE
  5
296
100
AcDbEntity
  8
0
 62
1
100
AcDbSpline
 70
8
 71
3
 72
8
 73
4
 74
0
 40
0
 40
0
 40
0
 40
0
 40
1
 40
1
 40
1
 40
1
 10
125.386144
 20
88.473536
 30
0.0
 10
125.386144
 20
88.759349
 30
0.0
 10
125.233665
 20
89.023450
 30
0.0
 10
124.986144
 20
89.166357
 30
0.0
  0
SPLINE
  5
297
100
AcDbEntity
  8
0
 62
1
100
AcDbSpline
 70
8
 71
3
 72
8
 73
4
 74
0
 40
0
 40
0
 40
0
 40
0
 40
1
 40
1
 40
1
 40
1
 10
124.986144
 20
89.166357
 30
0.0
 10
124.738623
 20
89.309263
 30
0.0
 10
124.433665
 20
89.309263
 30
0.0
 10
124.186144
 20
89.166357
 30
0.0
  0
SPLINE
  5
298
100
AcDbEntity
  8
0
 62
1
100
AcDbSpline
 70
8
 71
3
 72
8
 73
4
 74
0
 40
0
 40
0
 40
0
 40
0
 40
1
 40
1
 40
1
 40
1
 10
124.186144
 20
89.166357
 30
0.0
 10
123.938623
 20
89.023450
 30
0.0
 10
123.786144
 20
88.759349
 30
0.0
 10
123.786144
 20
88.473536
 30
0.0
  0
SPLINE
  5
299
100
AcDbEntity
  8
0
 62
1
100
AcDbSpline
 70
8
 71
3
 72
8
 73
4
 74
0
 40
0
 40
0
 40
0
 40
0
 40
1
 40
1
 40
1
 40
1
 10
123.786144
 20
88.473536
 30
0.0
 10
123.786144
 20
88.187724
 30
0.0
 10
123.938623
 20
87.923622
 30
0.0
 10
124.186144
 20
87.780716
 30
0.0
  0
SPLINE
  5
29a
100
AcDbEntity
  8
0
 62
1
100
AcDbSpline
 70
8
 71
3
 72
8
 73
4
 74
0
 40
0
 40
0
 40
0
 40
0
 40
1
 40
1
 40
1
 40
1
 10
124.186144
 20
87.780716
 30
0.0
 10
124.433665
 20
87.637810
 30
0.0
 10
124.738623
 20
87.637810
 30
0.0
 10
124.986144
 20
87.780716
 30
0.0
  0
SPLINE
  5
29b
100
AcDbEntity
  8
0
 62
1
100
AcDbSpline
 70
8
 71
3
 72
8
 73
4
 74
0
 40
0
 40
0
 40
0
 40
0
 40
1
 40
1
 40
1
 40
1
 10
124.986144
 20
87.780716
 30
0.0
 10
125.233665
 20
87.923622
 30
0.0
 10
125.386144
 20
88.187724
 30
0.0
 10
125.386144
 20
88.473536
 30
0.0
  0
LINE
  5
29c
100
AcDbEntity
  8
0
 62
1
100
AcDbLine
 10
125.386144
 20
88.473536
 30
0.0
 11
125.386144
 21
88.473536
 31
0.0
  0
LINE
  5
29d
100
AcDbEntity
  8
0
 62
1
100
AcDbLine
 10
125.386044
 20
99.860862
 30
0.0
 11
126.358436
 21
99.845455
 31
0.0
  0
LINE
  5
29e
100
AcDbEntity
  8
0
 62
1
100
AcDbLine
 10
127.834672
 20
98.345643
 30
0.0
 11
127.834672
 21
90.001429
 31
0.0
  0
SPLINE
  5
29f
100
AcDbEntity
  8
0
 62
1
100
AcDbSpline
 70
8
 71
3
 72
8
 73
4
 74
0
 40
0
 40
0
 40
0
 40
0
 40
1
 40
1
 40
1
 40
1
 10
127.834672
 20
98.345643
 30
0.0
 10
127.834672
 20
99.164805
 30
0.0
 10
127.177495
 20
99.832477
 30
0.0
 10
126.358436
 20
99.845455
 30
0.0
  0
LINE
  5
2a0
100
AcDbEntity
  8
0
 62
1
100
AcDbLine
 10
126.358436
 20
88.501618
 30
0.0
 11
125.386044
 21
88.486210
 31
0.0
  0
SPLINE
  5
2a1
100
AcDbEntity
  8
0
 62
1
100
AcDbSpline
 70
8
 71
3
 72
8
 73
4
 74
0
 40
0
 40
0
 40
0
 40
0
 40
1
 40
1
 40
1
 40
1
 10
126.358436
 20
88.501618
 30
0.0
 10
127.177495
 20
88.514596
 30
0.0
 10
127.834672
 20
89.182268
 30
0.0
 10
127.834672
 20
90.001429
 30
0.0
  0
SPLINE
  5
2a2
100
AcDbEntity
  8
0
 62
1
100
AcDbSpline
 70
8
 71
3
 72
8
 73
4
 74
0
 40
0
 40
0
 40
0
 40
0
 40
1
 40
1
 40
1
 40
1
 10
132.943125
 20
99.873536
 30
0.0
 10
132.943125
 20
100.159349
 30
0.0
 10
132.790646
 20
100.423450
 30
0.0
 10
132.543125
 20
100.566357
 30
0.0
  0
SPLINE
  5
2a3
100
AcDbEntity
  8
0
 62
1
100
AcDbSpline
 70
8
 71
3
 72
8
 73
4
 74
0
 40
0
 40
0
 40
0
 40
0
 40
1
 40
1
 40
1
 40
1
 10
132.543125
 20
100.566357
 30
0.0
 10
132.295604
 20
100.709263
 30
0.0
 10
131.990646
 20
100.709263
 30
0.0
 10
131.743125
 20
100.566357
 30
0.0
  0
SPLINE
  5
2a4
100
AcDbEntity
  8
0
 62
1
100
AcDbSpline
 70
8
 71
3
 72
8
 73
4
 74
0
 40
0
 40
0
 40
0
 40
0
 40
1
 40
1
 40
1
 40
1
 10
131.743125
 20
100.566357
 30
0.0
 10
131.495604
 20
100.423450
 30
0.0
 10
131.343125
 20
100.159349
 30
0.0
 10
131.343125
 20
99.873536
 30
0.0
  0
SPLINE
  5
2a5
100
AcDbEntity
  8
0
 62
1
100
AcDbSpline
 70
8
 71
3
 72
8
 73
4
 74
0
 40
0
 40
0
 40
0
 40
0
 40
1
 40
1
 40
1
 40
1
 10
131.343125
 20
99.873536
 30
0.0
 10
131.343125
 20
99.587724
 30
0.0
 10
131.495604
 20
99.323622
 30
0.0
 10
131.743125
 20
99.180716
 30
0.0
  0
SPLINE
  5
2a6
100
AcDbEntity
  8
0
 62
1
100
AcDbSpline
 70
8
 71
3
 72
8
 73
4
 74
0
 40
0
 40
0
 40
0
 40
0
 40
1
 40
1
 40
1
 40
1
 10
131.743125
 20
99.180716
 30
0.0
 10
131.990646
 20
99.037810
 30
0.0
 10
132.295604
 20
99.037810
 30
0.0
 10
132.543125
 20
99.180716
 30
0.0
  0
SPLINE
  5
2a7
100
AcDbEntity
  8
0
 62
1
100
AcDbSpline
 70
8
 71
3
 72
8
 73
4
 74
0
 40
0
 40
0
 40
0
 40
0
 40
1
 40
1
 40
1
 40
1
 10
132.543125
 20
99.180716
 30
0.0
 10
132.790646
 20
99.323622
 30
0.0
 10
132.943125
 20
99.587724
 30
0.0
 10
132.943125
 20
99.873536
 30
0.0
  0
LINE
  5
2a8
100
AcDbEntity
  8
0
 62
1
100
AcDbLine
 10
132.943125
 20
99.873536
 30
0.0
 11
132.943125
 21
99.873536
 31
0.0
  0
SPLINE
  5
2a9
100
AcDbEntity
  8
0
 62
1
100
AcDbSpline
 70
8
 71
3
 72
8
 73
4
 74
0
 40
0
 40
0
 40
0
 40
0
 40
1
 40
1
 40
1
 40
1
 10
132.943125
 20
88.473536
 30
0.0
 10
132.943125
 20
88.759349
 30
0.0
 10
132.790646
 20
89.023450
 30
0.0
 10
132.543125
 20
89.166357
 30
0.0
  0
SPLINE
  5
2aa
100
AcDbEntity
  8
0
 62
1
100
AcDbSpline
 70
8
 71
3
 72
8
 73
4
 74
0
 40
0
 40
0
 40
0
 40
0
 40
1
 40
1
 40
1
 40
1
 10
132.543125
 20
89.166357
 30
0.0
 10
132.295604
 20
89.309263
 30
0.0
 10
131.990646
 20
89.309263
 30
0.0
 10
131.743125
 20
89.166357
 30
0.0
  0
SPLINE
  5
2ab
100
AcDbEntity
  8
0
 62
1
100
AcDbSpline
 70
8
 71
3
 72
8
 73
4
 74
0
 40
0
 40
0
 40
0
 40
0
 40
1
 40
1
 40
1
 40
1
 10
131.743125
 20
89.166357
 30
0.0
 10
131.495604
 20
89.023450
 30
0.0
 10
131.343125
 20
88.759349
 30
0.0
 10
131.343125
 20
88.473536
 30
0.0
  0
SPLINE
  5
2ac
100
AcDbEntity
  8
0
 62
1
100
AcDbSpline
 70
8
 71
3
 72
8
 73
4
 74
0
 40
0
 40
0
 40
0
 40
0
 40
1
 40
1
 40
1
 40
1
 10
131.343125
 20
88.473536
 30
0.0
 10
131.343125
 20
88.187724
 30
0.0
 10
131.495604
 20
87.923622
 30
0.0
 10
131.743125
 20
87.780716
 30
0.0
  0
SPLINE
  5
2ad
100
AcDbEntity
  8
0
 62
1
100
AcDbSpline
 70
8
 71
3
 72
8
 73
4
 74
0
 40
0
 40
0
 40
0
 40
0
 40
1
 40
1
 40
1
 40
1
 10
131.743125
 20
87.780716
 30
0.0
 10
131.990646
 20
87.637810
 30
0.0
 10
132.295604
 20
87.637810
 30
0.0
 10
132.543125
 20
87.780716
 30
0.0
  0
SPLINE
  5
2ae
100
AcDbEntity
  8
0
 62
1
100
AcDbSpline
 70
8
 71
3
 72
8
 73
4
 74
0
 40
0
 40
0
 40
0
 40
0
 40
1
 40
1
 40
1
 40
1
 10
132.543125
 20
87.780716
 30
0.0
 10
132.790646
 20
87.923622
 30
0.0
 10
132.943125
 20
88.187724
 30
0.0
 10
132.943125
 20
88.473536
 30
0.0
  0
LINE
  5
2af
100
AcDbEntity
  8
0
 62
1
100
AcDbLine
 10
132.943125
 20
88.473536
 30
0.0
 11
132.943125
 21
88.473536
 31
0.0
  0
LINE
  5
2b0
100
AcDbEntity
  8
0
 62
1
100
AcDbLine
 10
132.943025
 20
99.860862
 30
0.0
 11
133.915417
 21
99.845455
 31
0.0
  0
LINE
  5
2b1
100
AcDbEntity
  8
0
 62
1
100
AcDbLine
 10
135.391653
 20
98.345643
 30
0.0
 11
135.391653
 21
90.001429
 31
0.0
  0
SPLINE
  5
2b2
100
AcDbEntity
  8
0
 62
1
100
AcDbSpline
 70
8
 71
3
 72
8
 73
4
 74
0
 40
0
 40
0
 40
0
 40
0
 40
1
 40
1
 40
1
 40
1
 10
135.391653
 20
98.345643
 30
0.0
 10
135.391653
 20
99.164805
 30
0.0
 10
134.734476
 20
99.832477
 30
0.0
 10
133.915417
 20
99.845455
 30
0.0
  0
LINE
  5
2b3
100
AcDbEntity
  8
0
 62
1
100
AcDbLine
 10
133.915417
 20
88.501618
 30
0.0
 11
132.943025
 21
88.486210
 31
0.0
  0
SPLINE
  5
2b4
100
AcDbEntity
  8
0
 62
1
100
AcDbSpline
 70
8
 71
3
 72
8
 73
4
 74
0
 40
0
 40
0
 40
0
 40
0
 40
1
 40
1
 40
1
 40
1
 10
133.915417
 20
88.501618
 30
0.0
 10
134.734476
 20
88.514596
 30
0.0
 10
135.391653
 20
89.182268
 30
0.0
 10
135.391653
 20
90.001429
 30
0.0
  0
SPLINE
  5
2b5
100
AcDbEntity
  8
0
 62
1
100
AcDbSpline
 70
8
 71
3
 72
8
 73
4
 74
0
 40
0
 40
0
 40
0
 40
0
 40
1
 40
1
 40
1
 40
1
 10
140.500106
 20
99.873536
 30
0.0
 10
140.500106
 20
100.159349
 30
0.0
 10
140.347627
 20
100.423451
 30
0.0
 10
140.100106
 20
100.566357
 30
0.0
  0
SPLINE
  5
2b6
100
AcDbEntity
  8
0
 62
1
100
AcDbSpline
 70
8
 71
3
 72
8
 73
4
 74
0
 40
0
 40
0
 40
0
 40
0
 40
1
 40
1
 40
1
 40
1
 10
140.100106
 20
100.566357
 30
0.0
 10
139.852585
 20
100.709263
 30
0.0
 10
139.547627
 20
100.709263
 30
0.0
 10
139.300106
 20
100.566357
 30
0.0
  0
SPLINE
  5
2b7
100
AcDbEntity
  8
0
 62
1
100
AcDbSpline
 70
8
 71
3
 72
8
 73
4
 74
0
 40
0
 40
0
 40
0
 40
0
 40
1
 40
1
 40
1
 40
1
 10
139.300106
 20
100.566357
 30
0.0
 10
139.052585
 20
100.423451
 30
0.0
 10
138.900106
 20
100.159349
 30
0.0
 10
138.900106
 20
99.873536
 30
0.0
  0
SPLINE
  5
2b8
100
AcDbEntity
  8
0
 62
1
100
AcDbSpline
 70
8
 71
3
 72
8
 73
4
 74
0
 40
0
 40
0
 40
0
 40
0
 40
1
 40
1
 40
1
 40
1
 10
138.900106
 20
99.873536
 30
0.0
 10
138.900106
 20
99.587724
 30
0.0
 10
139.052585
 20
99.323622
 30
0.0
 10
139.300106
 20
99.180716
 30
0.0
  0
SPLINE
  5
2b9
100
AcDbEntity
  8
0
 62
1
100
AcDbSpline
 70
8
 71
3
 72
8
 73
4
 74
0
 40
0
 40
0
 40
0
 40
0
 40
1
 40
1
 40
1
 40
1
 10
139.300106
 20
99.180716
 30
0.0
 10
139.547627
 20
99.037810
 30
0.0
 10
139.852585
 20
99.037810
 30
0.0
 10
140.100106
 20
99.180716
 30
0.0
  0
SPLINE
  5
2ba
100
AcDbEntity
  8
0
 62
1
100
AcDbSpline
 70
8
 71
3
 72
8
 73
4
 74
0
 40
0
 40
0
 40
0
 40
0
 40
1
 40
1
 40
1
 40
1
 10
140.100106
 20
99.180716
 30
0.0
 10
140.347627
 20
99.323622
 30
0.0
 10
140.500106
 20
99.587724
 30
0.0
 10
140.500106
 20
99.873536
 30
0.0
  0
LINE
  5
2bb
100
AcDbEntity
  8
0
 62
1
100
AcDbLine
 10
140.500106
 20
99.873536
 30
0.0
 11
140.500106
 21
99.873536
 31
0.0
  0
SPLINE
  5
2bc
100
AcDbEntity
  8
0
 62
1
100
AcDbSpline
 70
8
 71
3
 72
8
 73
4
 74
0
 40
0
 40
0
 40
0
 40
0
 40
1
 40
1
 40
1
 40
1
 10
140.500106
 20
88.473536
 30
0.0
 10
140.500106
 20
88.759349
 30
0.0
 10
140.347627
 20
89.023451
 30
0.0
 10
140.100106
 20
89.166357
 30
0.0
  0
SPLINE
  5
2bd
100
AcDbEntity
  8
0
 62
1
100
AcDbSpline
 70
8
 71
3
 72
8
 73
4
 74
0
 40
0
 40
0
 40
0
 40
0
 40
1
 40
1
 40
1
 40
1
 10
140.100106
 20
89.166357
 30
0.0
 10
139.852585
 20
89.309263
 30
0.0
 10
139.547627
 20
89.309263
 30
0.0
 10
139.300106
 20
89.166357
 30
0.0
  0
SPLINE
  5
2be
100
AcDbEntity
  8
0
 62
1
100
AcDbSpline
 70
8
 71
3
 72
8
 73
4
 74
0
 40
0
 40
0
 40
0
 40
0
 40
1
 40
1
 40
1
 40
1
 10
139.300106
 20
89.166357
 30
0.0
 10
139.052585
 20
89.023451
 30
0.0
 10
138.900106
 20
88.759349
 30
0.0
 10
138.900106
 20
88.473536
 30
0.0
  0
SPLINE
  5
2bf
100
AcDbEntity
  8
0
 62
1
100
AcDbSpline
 70
8
 71
3
 72
8
 73
4
 74
0
 40
0
 40
0
 40
0
 40
0
 40
1
 40
1
 40
1
 40
1
 10
138.900106
 20
88.473536
 30
0.0
 10
138.900106
 20
88.187724
 30
0.0
 10
139.052585
 20
87.923622
 30
0.0
 10
139.300106
 20
87.780716
 30
0.0
  0
SPLINE
  5
2c0
100
AcDbEntity
  8
0
 62
1
100
AcDbSpline
 70
8
 71
3
 72
8
 73
4
 74
0
 40
0
 40
0
 40
0
 40
0
 40
1
 40
1
 40
1
 40
1
 10
139.300106
 20
87.780716
 30
0.0
 10
139.547627
 20
87.637810
 30
0.0
 10
139.852585
 20
87.637810
 30
0.0
 10
140.100106
 20
87.780716
 30
0.0
  0
SPLINE
  5
2c1
100
AcDbEntity
  8
0
 62
1
100
AcDbSpline
 70
8
 71
3
 72
8
 73
4
 74
0
 40
0
 40
0
 40
0
 40
0
 40
1
 40
1
 40
1
 40
1
 10
140.100106
 20
87.780716
 30
0.0
 10
140.347627
 20
87.923622
 30
0.0
 10
140.500106
 20
88.187724
 30
0.0
 10
140.500106
 20
88.473536
 30
0.0
  0
LINE
  5
2c2
100
AcDbEntity
  8
0
 62
1
100
AcDbLine
 10
140.500106
 20
88.473536
 30
0.0
 11
140.500106
 21
88.473536
 31
0.0
  0
LINE
  5
2c3
100
AcDbEntity
  8
0
 62
1
100
AcDbLine
 10
140.500006
 20
99.860862
 30
0.0
 11
141.472398
 21
99.845455
 31
0.0
  0
LINE
  5
2c4
100
AcDbEntity
  8
0
 62
1
100
AcDbLine
 10
142.948634
 20
98.345643
 30
0.0
 11
142.948634
 21
90.001429
 31
0.0
  0
SPLINE
  5
2c5
100
AcDbEntity
  8
0
 62
1
100
AcDbSpline
 70
8
 71
3
 72
8
 73
4
 74
0
 40
0
 40
0
 40
0
 40
0
 40
1
 40
1
 40
1
 40
1
 10
142.948634
 20
98.345643
 30
0.0
 10
142.948634
 20
99.164805
 30
0.0
 10
142.291457
 20
99.832477
 30
0.0
 10
141.472398
 20
99.845455
 30
0.0
  0
LINE
  5
2c6
100
AcDbEntity
  8
0
 62
1
100
AcDbLine
 10
141.472398
 20
88.501618
 30
0.0
 11
140.500006
 21
88.486210
 31
0.0
  0
SPLINE
  5
2c7
100
AcDbEntity
  8
0
 62
1
100
AcDbSpline
 70
8
 71
3
 72
8
 73
4
 74
0
 40
0
 40
0
 40
0
 40
0
 40
1
 40
1
 40
1
 40
1
 10
141.472398
 20
88.501618
 30
0.0
 10
142.291457
 20
88.514596
 30
0.0
 10
142.948634
 20
89.182268
 30
0.0
 10
142.948634
 20
90.001429
 30
0.0
  0
SPLINE
  5
2c8
100
AcDbEntity
  8
0
 62
1
100
AcDbSpline
 70
8
 71
3
 72
8
 73
4
 74
0
 40
0
 40
0
 40
0
 40
0
 40
1
 40
1
 40
1
 40
1
 10
148.057087
 20
99.873536
 30
0.0
 10
148.057087
 20
100.159349
 30
0.0
 10
147.904608
 20
100.423451
 30
0.0
 10
147.657087
 20
100.566357
 30
0.0
  0
SPLINE
  5
2c9
100
AcDbEntity
  8
0
 62
1
100
AcDbSpline
 70
8
 71
3
 72
8
 73
4
 74
0
 40
0
 40
0
 40
0
 40
0
 40
1
 40
1
 40
1
 40
1
 10
147.657087
 20
100.566357
 30
0.0
 10
147.409566
 20
100.709263
 30
0.0
 10
147.104608
 20
100.709263
 30
0.0
 10
146.857087
 20
100.566357
 30
0.0
  0
SPLINE
  5
2ca
100
AcDbEntity
  8
0
 62
1
100
AcDbSpline
 70
8
 71
3
 72
8
 73
4
 74
0
 40
0
 40
0
 40
0
 40
0
 40
1
 40
1
 40
1
 40
1
 10
146.857087
 20
100.566357
 30
0.0
 10
146.609566
 20
100.423451
 30
0.0
 10
146.457087
 20
100.159349
 30
0.0
 10
146.457087
 20
99.873536
 30
0.0
  0
SPLINE
  5
2cb
100
AcDbEntity
  8
0
 62
1
100
AcDbSpline
 70
8
 71
3
 72
8
 73
4
 74
0
 40
0
 40
0
 40
0
 40
0
 40
1
 40
1
 40
1
 40
1
 10
146.457087
 20
99.873536
 30
0.0
 10
146.457087
 20
99.587724
 30
0.0
 10
146.609566
 20
99.323622
 30
0.0
 10
146.857087
 20
99.180716
 30
0.0
  0
SPLINE
  5
2cc
100
AcDbEntity
  8
0
 62
1
100
AcDbSpline
 70
8
 71
3
 72
8
 73
4
 74
0
 40
0
 40
0
 40
0
 40
0
 40
1
 40
1
 40
1
 40
1
 10
146.857087
 20
99.180716
 30
0.0
 10
147.104608
 20
99.037810
 30
0.0
 10
147.409566
 20
99.037810
 30
0.0
 10
147.657087
 20
99.180716
 30
0.0
  0
SPLINE
  5
2cd
100
AcDbEntity
  8
0
 62
1
100
AcDbSpline
 70
8
 71
3
 72
8
 73
4
 74
0
 40
0
 40
0
 40
0
 40
0
 40
1
 40
1
 40
1
 40
1
 10
147.657087
 20
99.180716
 30
0.0
 10
147.904608
 20
99.323622
 30
0.0
 10
148.057087
 20
99.587724
 30
0.0
 10
148.057087
 20
99.873536
 30
0.0
  0
LINE
  5
2ce
100
AcDbEntity
  8
0
 62
1
100
AcDbLine
 10
148.057087
 20
99.873536
 30
0.0
 11
148.057087
 21
99.873536
 31
0.0
  0
SPLINE
  5
2cf
100
AcDbEntity
  8
0
 62
1
100
AcDbSpline
 70
8
 71
3
 72
8
 73
4
 74
0
 40
0
 40
0
 40
0
 40
0
 40
1
 40
1
 40
1
 40
1
 10
148.057087
 20
88.473536
 30
0.0
 10
148.057087
 20
88.759349
 30
0.0
 10
147.904608
 20
89.023451
 30
0.0
 10
147.657087
 20
89.166357
 30
0.0
  0
SPLINE
  5
2d0
100
AcDbEntity
  8
0
 62
1
100
AcDbSpline
 70
8
 71
3
 72
8
 73
4
 74
0
 40
0
 40
0
 40
0
 40
0
 40
1
 40
1
 40
1
 40
1
 10
147.657087
 20
89.166357
 30
0.0
 10
147.409566
 20
89.309263
 30
0.0
 10
147.104608
 20
89.309263
 30
0.0
 10
146.857087
 20
89.166357
 30
0.0
  0
SPLINE
  5
2d1
100
AcDbEntity
  8
0
 62
1
100
AcDbSpline
 70
8
 71
3
 72
8
 73
4
 74
0
 40
0
 40
0
 40
0
 40
0
 40
1
 40
1
 40
1
 40
1
 10
146.857087
 20
89.166357
 30
0.0
 10
146.609566
 20
89.023451
 30
0.0
 10
146.457087
 20
88.759349
 30
0.0
 10
146.457087
 20
88.473536
 30
0.0
  0
SPLINE
  5
2d2
100
AcDbEntity
  8
0
 62
1
100
AcDbSpline
 70
8
 71
3
 72
8
 73
4
 74
0
 40
0
 40
0
 40
0
 40
0
 40
1
 40
1
 40
1
 40
1
 10
146.457087
 20
88.473536
 30
0.0
 10
146.457087
 20
88.187724
 30
0.0
 10
146.609566
 20
87.923622
 30
0.0
 10
146.857087
 20
87.780716
 30
0.0
  0
SPLINE
  5
2d3
100
AcDbEntity
  8
0
 62
1
100
AcDbSpline
 70
8
 71
3
 72
8
 73
4
 74
0
 40
0
 40
0
 40
0
 40
0
 40
1
 40
1
 40
1
 40
1
 10
146.857087
 20
87.780716
 30
0.0
 10
147.104608
 20
87.637810
 30
0.0
 10
147.409566
 20
87.637810
 30
0.0
 10
147.657087
 20
87.780716
 30
0.0
  0
SPLINE
  5
2d4
100
AcDbEntity
  8
0
 62
1
100
AcDbSpline
 70
8
 71
3
 72
8
 73
4
 74
0
 40
0
 40
0
 40
0
 40
0
 40
1
 40
1
 40
1
 40
1
 10
147.657087
 20
87.780716
 30
0.0
 10
147.904608
 20
87.923622
 30
0.0
 10
148.057087
 20
88.187724
 30
0.0
 10
148.057087
 20
88.473536
 30
0.0
  0
LINE
  5
2d5
100
AcDbEntity
  8
0
 62
1
100
AcDbLine
 10
148.057087
 20
88.473536
 30
0.0
 11
148.057087
 21
88.473536
 31
0.0
  0
LINE
  5
2d6
100
AcDbEntity
  8
0
 62
1
100
AcDbLine
 10
148.056987
 20
99.860862
 30
0.0
 11
149.029379
 21
99.845455
 31
0.0
  0
LINE
  5
2d7
100
AcDbEntity
  8
0
 62
1
100
AcDbLine
 10
150.505615
 20
98.345643
 30
0.0
 11
150.505615
 21
90.001429
 31
0.0
  0
SPLINE
  5
2d8
100
AcDbEntity
  8
0
 62
1
100
AcDbSpline
 70
8
 71
3
 72
8
 73
4
 74
0
 40
0
 40
0
 40
0
 40
0
 40
1
 40
1
 40
1
 40
1
 10
150.505615
 20
98.345643
 30
0.0
 10
150.505615
 20
99.164805
 30
0.0
 10
149.848438
 20
99.832477
 30
0.0
 10
149.029379
 20
99.845455
 30
0.0
  0
LINE
  5
2d9
100
AcDbEntity
  8
0
 62
1
100
AcDbLine
 10
149.029379
 20
88.501618
 30
0.0
 11
148.056987
 21
88.486210
 31
0.0
  0
SPLINE
  5
2da
100
AcDbEntity
  8
0
 62
1
100
AcDbSpline
 70
8
 71
3
 72
8
 73
4
 74
0
 40
0
 40
0
 40
0
 40
0
 40
1
 40
1
 40
1
 40
1
 10
149.029379
 20
88.501618
 30
0.0
 10
149.848438
 20
88.514596
 30
0.0
 10
150.505615
 20
89.182268
 30
0.0
 10
150.505615
 20
90.001429
 30
0.0
  0
SPLINE
  5
2db
100
AcDbEntity
  8
0
 62
1
100
AcDbSpline
 70
8
 71
3
 72
8
 73
4
 74
0
 40
0
 40
0
 40
0
 40
0
 40
1
 40
1
 40
1
 40
1
 10
155.614068
 20
99.873536
 30
0.0
 10
155.614068
 20
100.159349
 30
0.0
 10
155.461589
 20
100.423451
 30
0.0
 10
155.214068
 20
100.566357
 30
0.0
  0
SPLINE
  5
2dc
100
AcDbEntity
  8
0
 62
1
100
AcDbSpline
 70
8
 71
3
 72
8
 73
4
 74
0
 40
0
 40
0
 40
0
 40
0
 40
1
 40
1
 40
1
 40
1
 10
155.214068
 20
100.566357
 30
0.0
 10
154.966547
 20
100.709263
 30
0.0
 10
154.661589
 20
100.709263
 30
0.0
 10
154.414068
 20
100.566357
 30
0.0
  0
SPLINE
  5
2dd
100
AcDbEntity
  8
0
 62
1
100
AcDbSpline
 70
8
 71
3
 72
8
 73
4
 74
0
 40
0
 40
0
 40
0
 40
0
 40
1
 40
1
 40
1
 40
1
 10
154.414068
 20
100.566357
 30
0.0
 10
154.166547
 20
100.423451
 30
0.0
 10
154.014068
 20
100.159349
 30
0.0
 10
154.014068
 20
99.873536
 30
0.0
  0
SPLINE
  5
2de
100
AcDbEntity
  8
0
 62
1
100
AcDbSpline
 70
8
 71
3
 72
8
 73
4
 74
0
 40
0
 40
0
 40
0
 40
0
 40
1
 40
1
 40
1
 40
1
 10
154.014068
 20
99.873536
 30
0.0
 10
154.014068
 20
99.587724
 30
0.0
 10
154.166547
 20
99.323622
 30
0.0
 10
154.414068
 20
99.180716
 30
0.0
  0
SPLINE
  5
2df
100
AcDbEntity
  8
0
 62
1
100
AcDbSpline
 70
8
 71
3
 72
8
 73
4
 74
0
 40
0
 40
0
 40
0
 40
0
 40
1
 40
1
 40
1
 40
1
 10
154.414068
 20
99.180716
 30
0.0
 10
154.661589
 20
99.037810
 30
0.0
 10
154.966547
 20
99.037810
 30
0.0
 10
155.214068
 20
99.180716
 30
0.0
  0
SPLINE
  5
2e0
100
AcDbEntity
  8
0
 62
1
100
AcDbSpline
 70
8
 71
3
 72
8
 73
4
 74
0
 40
0
 40
0
 40
0
 40
0
 40
1
 40
1
 40
1
 40
1
 10
155.214068
 20
99.180716
 30
0.0
 10
155.461589
 20
99.323622
 30
0.0
 10
155.614068
 20
99.587724
 30
0.0
 10
155.614068
 20
99.873536
 30
0.0
  0
LINE
  5
2e1
100
AcDbEntity
  8
0
 62
1
100
AcDbLine
 10
155.614068
 20
99.873536
 30
0.0
 11
155.614068
 21
99.873536
 31
0.0
  0
SPLINE
  5
2e2
100
AcDbEntity
  8
0
 62
1
100
AcDbSpline
 70
8
 71
3
 72
8
 73
4
 74
0
 40
0
 40
0
 40
0
 40
0
 40
1
 40
1
 40
1
 40
1
 10
155.614068
 20
88.473536
 30
0.0
 10
155.614068
 20
88.759349
 30
0.0
 10
155.461589
 20
89.023451
 30
0.0
 10
155.214068
 20
89.166357
 30
0.0
  0
SPLINE
  5
2e3
100
AcDbEntity
  8
0
 62
1
100
AcDbSpline
 70
8
 71
3
 72
8
 73
4
 74
0
 40
0
 40
0
 40
0
 40
0
 40
1
 40
1
 40
1
 40
1
 10
155.214068
 20
89.166357
 30
0.0
 10
154.966547
 20
89.309263
 30
0.0
 10
154.661589
 20
89.309263
 30
0.0
 10
154.414068
 20
89.166357
 30
0.0
  0
SPLINE
  5
2e4
100
AcDbEntity
  8
0
 62
1
100
AcDbSpline
 70
8
 71
3
 72
8
 73
4
 74
0
 40
0
 40
0
 40
0
 40
0
 40
1
 40
1
 40
1
 40
1
 10
154.414068
 20
89.166357
 30
0.0
 10
154.166547
 20
89.023451
 30
0.0
 10
154.014068
 20
88.759349
 30
0.0
 10
154.014068
 20
88.473536
 30
0.0
  0
SPLINE
  5
2e5
100
AcDbEntity
  8
0
 62
1
100
AcDbSpline
 70
8
 71
3
 72
8
 73
4
 74
0
 40
0
 40
0
 40
0
 40
0
 40
1
 40
1
 40
1
 40
1
 10
154.014068
 20
88.473536
 30
0.0
 10
154.014068
 20
88.187724
 30
0.0
 10
154.166547
 20
87.923622
 30
0.0
 10
154.414068
 20
87.780716
 30
0.0
  0
SPLINE
  5
2e6
100
AcDbEntity
  8
0
 62
1
100
AcDbSpline
 70
8
 71
3
 72
8
 73
4
 74
0
 40
0
 40
0
 40
0
 40
0
 40
1
 40
1
 40
1
 40
1
 10
154.414068
 20
87.780716
 30
0.0
 10
154.661589
 20
87.637810
 30
0.0
 10
154.966547
 20
87.637810
 30
0.0
 10
155.214068
 20
87.780716
 30
0.0
  0
SPLINE
  5
2e7
100
AcDbEntity
  8
0
 62
1
100
AcDbSpline
 70
8
 71
3
 72
8
 73
4
 74
0
 40
0
 40
0
 40
0
 40
0
 40
1
 40
1
 40
1
 40
1
 10
155.214068
 20
87.780716
 30
0.0
 10
155.461589
 20
87.923622
 30
0.0
 10
155.614068
 20
88.187724
 30
0.0
 10
155.614068
 20
88.473536
 30
0.0
  0
LINE
  5
2e8
100
AcDbEntity
  8
0
 62
1
100
AcDbLine
 10
155.614068
 20
88.473536
 30
0.0
 11
155.614068
 21
88.473536
 31
0.0
  0
LINE
  5
2e9
100
AcDbEntity
  8
0
 62
1
100
AcDbLine
 10
155.613968
 20
99.860862
 30
0.0
 11
156.586360
 21
99.845455
 31
0.0
  0
LINE
  5
2ea
100
AcDbEntity
  8
0
 62
1
100
AcDbLine
 10
158.062596
 20
98.345643
 30
0.0
 11
158.062596
 21
90.001429
 31
0.0
  0
SPLINE
  5
2eb
100
AcDbEntity
  8
0
 62
1
100
AcDbSpline
 70
8
 71
3
 72
8
 73
4
 74
0
 40
0
 40
0
 40
0
 40
0
 40
1
 40
1
 40
1
 40
1
 10
158.062596
 20
98.345643
 30
0.0
 10
158.062596
 20
99.164805
 30
0.0
 10
157.405419
 20
99.832477
 30
0.0
 10
156.586360
 20
99.845455
 30
0.0
  0
LINE
  5
2ec
100
AcDbEntity
  8
0
 62
1
100
AcDbLine
 10
156.586360
 20
88.501618
 30
0.0
 11
155.613968
 21
88.486210
 31
0.0
  0
SPLINE
  5
2ed
100
AcDbEntity
  8
0
 62
1
100
AcDbSpline
 70
8
 71
3
 72
8
 73
4
 74
0
 40
0
 40
0
 40
0
 40
0
 40
1
 40
1
 40
1
 40
1
 10
156.586360
 20
88.501618
 30
0.0
 10
157.405419
 20
88.514596
 30
0.0
 10
158.062596
 20
89.182268
 30
0.0
 10
158.062596
 20
90.001429
 30
0.0
  0
LINE
  5
2ee
100
AcDbEntity
  8
0
 62
1
100
AcDbLine
 10
39.842867
 20
133.045112
 30
0.0
 11
57.742867
 21
133.045112
 31
0.0
  0
SPLINE
  5
2ef
100
AcDbEntity
  8
0
 62
1
100
AcDbSpline
 70
8
 71
3
 72
8
 73
4
 74
0
 40
0
 40
0
 40
0
 40
0
 40
1
 40
1
 40
1
 40
1
 10
57.742867
 20
133.045112
 30
0.0
 10
58.239923
 20
133.045112
 30
0.0
 10
58.642867
 20
133.448056
 30
0.0
 10
58.642867
 20
133.945112
 30
0.0
  0
LINE
  5
2f0
100
AcDbEntity
  8
0
 62
1
100
AcDbLine
 10
58.642867
 20
133.945112
 30
0.0
 11
58.642867
 21
133.945112
 31
0.0
  0
SPLINE
  5
2f1
100
AcDbEntity
  8
0
 62
1
100
AcDbSpline
 70
8
 71
3
 72
8
 73
4
 74
0
 40
0
 40
0
 40
0
 40
0
 40
1
 40
1
 40
1
 40
1
 10
58.642867
 20
133.945112
 30
0.0
 10
58.642867
 20
134.442168
 30
0.0
 10
58.239923
 20
134.845112
 30
0.0
 10
57.742867
 20
134.845112
 30
0.0
  0
LINE
  5
2f2
100
AcDbEntity
  8
0
 62
1
100
AcDbLine
 10
57.742867
 20
134.845112
 30
0.0
 11
39.842867
 21
134.845112
 31
0.0
  0
SPLINE
  5
2f3
100
AcDbEntity
  8
0
 62
1
100
AcDbSpline
 70
8
 71
3
 72
8
 73
4
 74
0
 40
0
 40
0
 40
0
 40
0
 40
1
 40
1
 40
1
 40
1
 10
39.842867
 20
134.845112
 30
0.0
 10
39.604172
 20
134.845112
 30
0.0
 10
39.375254
 20
134.750291
 30
0.0
 10
39.206471
 20
134.581508
 30
0.0
  0
SPLINE
  5
2f4
100
AcDbEntity
  8
0
 62
1
100
AcDbSpline
 70
8
 71
3
 72
8
 73
4
 74
0
 40
0
 40
0
 40
0
 40
0
 40
1
 40
1
 40
1
 40
1
 10
39.206471
 20
134.581508
 30
0.0
 10
39.037688
 20
134.412725
 30
0.0
 10
38.942867
 20
134.183807
 30
0.0
 10
38.942867
 20
133.945112
 30
0.0
  0
LINE
  5
2f5
100
AcDbEntity
  8
0
 62
1
100
AcDbLine
 10
38.942867
 20
133.945112
 30
0.0
 11
38.942867
 21
133.945112
 31
0.0
  0
SPLINE
  5
2f6
100
AcDbEntity
  8
0
 62
1
100
AcDbSpline
 70
8
 71
3
 72
8
 73
4
 74
0
 40
0
 40
0
 40
0
 40
0
 40
1
 40
1
 40
1
 40
1
 10
38.942867
 20
133.945112
 30
0.0
 10
38.942867
 20
133.448055
 30
0.0
 10
39.345811
 20
133.045112
 30
0.0
 10
39.842867
 20
133.045112
 30
0.0
  0
LINE
  5
2f7
100
AcDbEntity
  8
0
 62
1
100
AcDbLine
 10
343.842867
 20
133.045112
 30
0.0
 11
361.742867
 21
133.045112
 31
0.0
  0
SPLINE
  5
2f8
100
AcDbEntity
  8
0
 62
1
100
AcDbSpline
 70
8
 71
3
 72
8
 73
4
 74
0
 40
0
 40
0
 40
0
 40
0
 40
1
 40
1
 40
1
 40
1
 10
361.742867
 20
133.045112
 30
0.0
 10
362.239923
 20
133.045112
 30
0.0
 10
362.642867
 20
133.448056
 30
0.0
 10
362.642867
 20
133.945112
 30
0.0
  0
LINE
  5
2f9
100
AcDbEntity
  8
0
 62
1
100
AcDbLine
 10
362.642867
 20
133.945112
 30
0.0
 11
362.642867
 21
133.945112
 31
0.0
  0
SPLINE
  5
2fa
100
AcDbEntity
  8
0
 62
1
100
AcDbSpline
 70
8
 71
3
 72
8
 73
4
 74
0
 40
0
 40
0
 40
0
 40
0
 40
1
 40
1
 40
1
 40
1
 10
362.642867
 20
133.945112
 30
0.0
 10
362.642867
 20
134.442168
 30
0.0
 10
362.239923
 20
134.845112
 30
0.0
 10
361.742867
 20
134.845112
 30
0.0
  0
LINE
  5
2fb
100
AcDbEntity
  8
0
 62
1
100
AcDbLine
 10
361.742867
 20
134.845112
 30
0.0
 11
343.842867
 21
134.845112
 31
0.0
  0
SPLINE
  5
2fc
100
AcDbEntity
  8
0
 62
1
100
AcDbSpline
 70
8
 71
3
 72
8
 73
4
 74
0
 40
0
 40
0
 40
0
 40
0
 40
1
 40
1
 40
1
 40
1
 10
343.842867
 20
134.845112
 30
0.0
 10
343.604172
 20
134.845112
 30
0.0
 10
343.375254
 20
134.750291
 30
0.0
 10
343.206471
 20
134.581508
 30
0.0
  0
SPLINE
  5
2fd
100
AcDbEntity
  8
0
 62
1
100
AcDbSpline
 70
8
 71
3
 72
8
 73
4
 74
0
 40
0
 40
0
 40
0
 40
0
 40
1
 40
1
 40
1
 40
1
 10
343.206471
 20
134.581508
 30
0.0
 10
343.037688
 20
134.412725
 30
0.0
 10
342.942867
 20
134.183807
 30
0.0
 10
342.942867
 20
133.945112
 30
0.0
  0
LINE
  5
2fe
100
AcDbEntity
  8
0
 62
1
100
AcDbLine
 10
342.942867
 20
133.945112
 30
0.0
 11
342.942867
 21
133.945112
 31
0.0
  0
SPLINE
  5
2ff
100
AcDbEntity
  8
0
 62
1
100
AcDbSpline
 70
8
 71
3
 72
8
 73
4
 74
0
 40
0
 40
0
 40
0
 40
0
 40
1
 40
1
 40
1
 40
1
 10
342.942867
 20
133.945112
 30
0.0
 10
342.942867
 20
133.448055
 30
0.0
 10
343.345811
 20
133.045112
 30
0.0
 10
343.842867
 20
133.045112
 30
0.0
  0
LINE
  5
300
100
AcDbEntity
  8
0
 62
1
100
AcDbLine
 10
343.842867
 20
118.045112
 30
0.0
 11
361.742867
 21
118.045112
 31
0.0
  0
SPLINE
  5
301
100
AcDbEntity
  8
0
 62
1
100
AcDbSpline
 70
8
 71
3
 72
8
 73
4
 74
0
 40
0
 40
0
 40
0
 40
0
 40
1
 40
1
 40
1
 40
1
 10
361.742867
 20
118.045112
 30
0.0
 10
362.239923
 20
118.045112
 30
0.0
 10
362.642867
 20
118.448056
 30
0.0
 10
362.642867
 20
118.945112
 30
0.0
  0
LINE
  5
302
100
AcDbEntity
  8
0
 62
1
100
AcDbLine
 10
362.642867
 20
118.945112
 30
0.0
 11
362.642867
 21
118.945112
 31
0.0
  0
SPLINE
  5
303
100
AcDbEntity
  8
0
 62
1
100
AcDbSpline
 70
8
 71
3
 72
8
 73
4
 74
0
 40
0
 40
0
 40
0
 40
0
 40
1
 40
1
 40
1
 40
1
 10
362.642867
 20
118.945112
 30
0.0
 10
362.642867
 20
119.442168
 30
0.0
 10
362.239923
 20
119.845112
 30
0.0
 10
361.742867
 20
119.845112
 30
0.0
  0
LINE
  5
304
100
AcDbEntity
  8
0
 62
1
100
AcDbLine
 10
361.742867
 20
119.845112
 30
0.0
 11
343.842867
 21
119.845112
 31
0.0
  0
SPLINE
  5
305
100
AcDbEntity
  8
0
 62
1
100
AcDbSpline
 70
8
 71
3
 72
8
 73
4
 74
0
 40
0
 40
0
 40
0
 40
0
 40
1
 40
1
 40
1
 40
1
 10
343.842867
 20
119.845112
 30
0.0
 10
343.604172
 20
119.845112
 30
0.0
 10
343.375254
 20
119.750291
 30
0.0
 10
343.206471
 20
119.581508
 30
0.0
  0
SPLINE
  5
306
100
AcDbEntity
  8
0
 62
1
100
AcDbSpline
 70
8
 71
3
 72
8
 73
4
 74
0
 40
0
 40
0
 40
0
 40
0
 40
1
 40
1
 40
1
 40
1
 10
343.206471
 20
119.581508
 30
0.0
 10
343.037688
 20
119.412725
 30
0.0
 10
342.942867
 20
119.183807
 30
0.0
 10
342.942867
 20
118.945112
 30
0.0
  0
LINE
  5
307
100
AcDbEntity
  8
0
 62
1
100
AcDbLine
 10
342.942867
 20
118.945112
 30
0.0
 11
342.942867
 21
118.945112
 31
0.0
  0
SPLINE
  5
308
100
AcDbEntity
  8
0
 62
1
100
AcDbSpline
 70
8
 71
3
 72
8
 73
4
 74
0
 40
0
 40
0
 40
0
 40
0
 40
1
 40
1
 40
1
 40
1
 10
342.942867
 20
118.945112
 30
0.0
 10
342.942867
 20
118.706417
 30
0.0
 10
343.037688
 20
118.477498
 30
0.0
 10
343.206471
 20
118.308716
 30
0.0
  0
SPLINE
  5
309
100
AcDbEntity
  8
0
 62
1
100
AcDbSpline
 70
8
 71
3
 72
8
 73
4
 74
0
 40
0
 40
0
 40
0
 40
0
 40
1
 40
1
 40
1
 40
1
 10
343.206471
 20
118.308716
 30
0.0
 10
343.375254
 20
118.139933
 30
0.0
 10
343.604172
 20
118.045112
 30
0.0
 10
343.842867
 20
118.045112
 30
0.0
  0
LINE
  5
30a
100
AcDbEntity
  8
0
 62
1
100
AcDbLine
 10
39.842867
 20
118.045112
 30
0.0
 11
57.742867
 21
118.045112
 31
0.0
  0
SPLINE
  5
30b
100
AcDbEntity
  8
0
 62
1
100
AcDbSpline
 70
8
 71
3
 72
8
 73
4
 74
0
 40
0
 40
0
 40
0
 40
0
 40
1
 40
1
 40
1
 40
1
 10
57.742867
 20
118.045112
 30
0.0
 10
58.239923
 20
118.045112
 30
0.0
 10
58.642867
 20
118.448056
 30
0.0
 10
58.642867
 20
118.945112
 30
0.0
  0
LINE
  5
30c
100
AcDbEntity
  8
0
 62
1
100
AcDbLine
 10
58.642867
 20
118.945112
 30
0.0
 11
58.642867
 21
118.945112
 31
0.0
  0
SPLINE
  5
30d
100
AcDbEntity
  8
0
 62
1
100
AcDbSpline
 70
8
 71
3
 72
8
 73
4
 74
0
 40
0
 40
0
 40
0
 40
0
 40
1
 40
1
 40
1
 40
1
 10
58.642867
 20
118.945112
 30
0.0
 10
58.642867
 20
119.442168
 30
0.0
 10
58.239923
 20
119.845112
 30
0.0
 10
57.742867
 20
119.845112
 30
0.0
  0
LINE
  5
30e
100
AcDbEntity
  8
0
 62
1
100
AcDbLine
 10
57.742867
 20
119.845112
 30
0.0
 11
39.842867
 21
119.845112
 31
0.0
  0
SPLINE
  5
30f
100
AcDbEntity
  8
0
 62
1
100
AcDbSpline
 70
8
 71
3
 72
8
 73
4
 74
0
 40
0
 40
0
 40
0
 40
0
 40
1
 40
1
 40
1
 40
1
 10
39.842867
 20
119.845112
 30
0.0
 10
39.604172
 20
119.845112
 30
0.0
 10
39.375254
 20
119.750291
 30
0.0
 10
39.206471
 20
119.581508
 30
0.0
  0
SPLINE
  5
310
100
AcDbEntity
  8
0
 62
1
100
AcDbSpline
 70
8
 71
3
 72
8
 73
4
 74
0
 40
0
 40
0
 40
0
 40
0
 40
1
 40
1
 40
1
 40
1
 10
39.206471
 20
119.581508
 30
0.0
 10
39.037688
 20
119.412725
 30
0.0
 10
38.942867
 20
119.183807
 30
0.0
 10
38.942867
 20
118.945112
 30
0.0
  0
LINE
  5
311
100
AcDbEntity
  8
0
 62
1
100
AcDbLine
 10
38.942867
 20
118.945112
 30
0.0
 11
38.942867
 21
118.945112
 31
0.0
  0
SPLINE
  5
312
100
AcDbEntity
  8
0
 62
1
100
AcDbSpline
 70
8
 71
3
 72
8
 73
4
 74
0
 40
0
 40
0
 40
0
 40
0
 40
1
 40
1
 40
1
 40
1
 10
38.942867
 20
118.945112
 30
0.0
 10
38.942867
 20
118.706417
 30
0.0
 10
39.037688
 20
118.477498
 30
0.0
 10
39.206471
 20
118.308716
 30
0.0
  0
SPLINE
  5
313
100
AcDbEntity
  8
0
 62
1
100
AcDbSpline
 70
8
 71
3
 72
8
 73
4
 74
0
 40
0
 40
0
 40
0
 40
0
 40
1
 40
1
 40
1
 40
1
 10
39.206471
 20
118.308716
 30
0.0
 10
39.375254
 20
118.139933
 30
0.0
 10
39.604172
 20
118.045112
 30
0.0
 10
39.842867
 20
118.045112
 30
0.0
  0
LINE
  5
314
100
AcDbEntity
  8
0
 62
1
100
AcDbLine
 10
121.403983
 20
224.037553
 30
0.0
 11
171.181615
 21
224.037553
 31
0.0
  0
LINE
  5
315
100
AcDbEntity
  8
0
 62
1
100
AcDbLine
 10
171.181615
 20
224.037553
 30
0.0
 11
171.181615
 21
174.259921
 31
0.0
  0
LINE
  5
316
100
AcDbEntity
  8
0
 62
1
100
AcDbLine
 10
171.181615
 20
174.259921
 30
0.0
 11
121.403983
 21
174.259921
 31
0.0
  0
LINE
  5
317
100
AcDbEntity
  8
0
 62
1
100
AcDbLine
 10
121.403983
 20
174.259921
 30
0.0
 11
121.403983
 21
224.037553
 31
0.0
  0
ENDSEC
  0
SECTION
  2
OBJECTS
  0
DICTIONARY
  5
C
330
0
100
AcDbDictionary
  3
ACAD_GROUP
350
D
  3
ACAD_MLINESTYLE
350
17
  0
DICTIONARY
  5
D
330
C
100
AcDbDictionary
  0
DICTIONARY
  5
1A
330
C
100
AcDbDictionary
  0
DICTIONARY
  5
17
330
C
100
AcDbDictionary
  3
STANDARD
350
18
  0
DICTIONARY
  5
19
330
C
100
AcDbDictionary
  0
ENDSEC
  0
EOF
