  0
SECTION
  2
HEADER
  9
$ACADVER
  1
AC1014
  9
$HANDSEED
  5
FFFF
  9
$MEASUREMENT
 70
     1
  0
ENDSEC
  0
SECTION
  2
TABLES
  0
TABLE
  2
VPORT
  5
8
330
0
100
AcDbSymbolTable
 70
     4
  0
VPORT
  5
2E
330
8
100
AcDbSymbolTableRecord
100
AcDbViewportTableRecord
  2
*ACTIVE
 70
     0
 10
0.0
 20
0.0
 11
1.0
 21
1.0
 12
210.0
 22
148.5
 13
0.0
 23
0.0
 14
10.0
 24
10.0
 15
10.0
 25
10.0
 16
0.0
 26
0.0
 36
1.0
 17
0.0
 27
0.0
 37
0.0
 40
341.0
 41
1.24
 42
50.0
 43
0.0
 44
0.0
 50
0.0
 51
0.0
 71
     0
 72
   100
 73
     1
 74
     3
 75
     0
 76
     0
 77
     0
 78
     0
  0
ENDTAB
  0
TABLE
  2
LTYPE
  5
5
330
0
100
AcDbSymbolTable
 70
     1
  0
LTYPE
  5
14
330
5
100
AcDbSymbolTableRecord
100
AcDbLinetypeTableRecord
  2
BYBLOCK
 70
     0
  3

 72
    65
 73
     0
 40
0.0
  0
LTYPE
  5
15
330
5
100
AcDbSymbolTableRecord
100
AcDbLinetypeTableRecord
  2
BYLAYER
 70
     0
  3

 72
    65
 73
     0
 40
0.0
  0
LTYPE
  5
16
330
5
100
AcDbSymbolTableRecord
100
AcDbLinetypeTableRecord
  2
CONTINUOUS
 70
     0
  3
Solid line
 72
    65
 73
     0
 40
0.0
  0
ENDTAB
  0
TABLE
  2
LAYER
  5
2
100
AcDbSymbolTable
 70
2
  0
LAYER
  5
50
100
AcDbSymbolTableRecord
100
AcDbLayerTableRecord
  2
0
 70
0
  6
CONTINUOUS
  0
LAYER
  5
51
100
AcDbSymbolTableRecord
100
AcDbLayerTableRecord
  2
Layer_1
 70
0
  6
CONTINUOUS
  0
ENDTAB
  0
TABLE
  2
STYLE
  5
3
330
0
100
AcDbSymbolTable
 70
     1
  0
STYLE
  5
11
330
3
100
AcDbSymbolTableRecord
100
AcDbTextStyleTableRecord
  2
STANDARD
 70
     0
 40
0.0
 41
1.0
 50
0.0
 71
     0
 42
2.5
  3
txt
  4

  0
ENDTAB
  0
TABLE
  2
VIEW
  5
6
330
0
100
AcDbSymbolTable
 70
     0
  0
ENDTAB
  0
TABLE
  2
UCS
  5
7
330
0
100
AcDbSymbolTable
 70
     0
  0
ENDTAB
  0
TABLE
  2
APPID
  5
9
330
0
100
AcDbSymbolTable
 70
     2
  0
APPID
  5
12
330
9
100
AcDbSymbolTableRecord
100
AcDbRegAppTableRecord
  2
ACAD
 70
     0
  0
ENDTAB
  0
TABLE
  2
DIMSTYLE
  5
A
330
0
100
AcDbSymbolTable
 70
     1
  0
DIMSTYLE
105
27
330
A
100
AcDbSymbolTableRecord
100
AcDbDimStyleTableRecord
  2
ISO-25
 70
     0
  3

  4

  5

  6

  7

 40
1.0
 41
2.5
 42
0.625
 43
3.75
 44
1.25
 45
0.0
 46
0.0
 47
0.0
 48
0.0
140
2.5
141
2.5
142
0.0
143
0.03937007874016
144
1.0
145
0.0
146
1.0
147
0.625
 71
     0
 72
     0
 73
     0
 74
     0
 75
     0
 76
     0
 77
     1
 78
     8
170
     0
171
     3
172
     1
173
     0
174
     0
175
     0
176
     0
177
     0
178
     0
270
     2
271
     2
272
     2
273
     2
274
     3
340
11
275
     0
280
     0
281
     0
282
     0
283
     0
284
     8
285
     0
286
     0
287
     3
288
     0
  0
ENDTAB
  0
TABLE
  2
BLOCK_RECORD
  5
1
330
0
100
AcDbSymbolTable
 70
     1
  0
BLOCK_RECORD
  5
1F
330
1
100
AcDbSymbolTableRecord
100
AcDbBlockTableRecord
  2
*MODEL_SPACE
  0
BLOCK_RECORD
  5
1B
330
1
100
AcDbSymbolTableRecord
100
AcDbBlockTableRecord
  2
*PAPER_SPACE
  0
ENDTAB
  0
ENDSEC
  0
SECTION
  2
BLOCKS
  0
BLOCK
  5
20
330
1F
100
AcDbEntity
  8
0
100
AcDbBlockBegin
  2
*MODEL_SPACE
 70
     0
 10
0.0
 20
0.0
 30
0.0
  3
*MODEL_SPACE
  1

  0
ENDBLK
  5
21
330
1F
100
AcDbEntity
  8
0
100
AcDbBlockEnd
  0
BLOCK
  5
1C
330
1B
100
AcDbEntity
 67
     1
  8
0
100
AcDbBlockBegin
  2
*PAPER_SPACE
  1

  0
ENDBLK
  5
1D
330
1B
100
AcDbEntity
 67
     1
  8
0
100
AcDbBlockEnd
  0
ENDSEC
  0
SECTION
  2
ENTITIES
  0
SPLINE
  5
100
100
AcDbEntity
  8
Layer_1
 62
7
100
AcDbSpline
 70
8
 71
3
 72
8
 73
4
 74
0
 40
0
 40
0
 40
0
 40
0
 40
1
 40
1
 40
1
 40
1
 10
-249.697170
 20
153.915010
 30
0.0
 10
-249.443932
 20
153.847153
 30
0.0
 10
-249.182892
 20
153.812783
 30
0.0
 10
-248.920720
 20
153.812780
 30
0.0
  0
SPLINE
  5
101
100
AcDbEntity
  8
Layer_1
 62
7
100
AcDbSpline
 70
8
 71
3
 72
8
 73
4
 74
0
 40
0
 40
0
 40
0
 40
0
 40
1
 40
1
 40
1
 40
1
 10
-250.713700
 20
99.955230
 30
0.0
 10
-250.975872
 20
99.955224
 30
0.0
 10
-251.236913
 20
99.920851
 30
0.0
 10
-251.490150
 20
99.852990
 30
0.0
  0
LINE
  5
102
100
AcDbEntity
  8
Layer_1
 62
7
100
AcDbLine
 10
-206.431820
 20
128.755410
 30
0.0
 11
-184.552470
 21
128.866650
 31
0.0
  0
LINE
  5
103
100
AcDbEntity
  8
Layer_1
 62
7
100
AcDbLine
 10
-184.552470
 20
128.866650
 30
0.0
 11
65.633770
 21
128.866650
 31
0.0
  0
LINE
  5
104
100
AcDbEntity
  8
Layer_1
 62
7
100
AcDbLine
 10
-136.625900
 20
99.733720
 30
0.0
 11
90.544555
 21
99.759620
 31
0.0
  0
SPLINE
  5
105
100
AcDbEntity
  8
Layer_1
 62
7
100
AcDbSpline
 70
8
 71
3
 72
8
 73
4
 74
0
 40
0
 40
0
 40
0
 40
0
 40
1
 40
1
 40
1
 40
1
 10
90.544555
 20
99.759620
 30
0.0
 10
92.726362
 20
99.785520
 30
0.0
 10
94.502536
 20
100.791100
 30
0.0
 10
95.478267
 20
102.312580
 30
0.0
  0
SPLINE
  5
106
100
AcDbEntity
  8
Layer_1
 62
7
100
AcDbSpline
 70
8
 71
3
 72
8
 73
4
 74
0
 40
0
 40
0
 40
0
 40
0
 40
1
 40
1
 40
1
 40
1
 10
95.478267
 20
102.312580
 30
0.0
 10
96.408701
 20
103.822610
 30
0.0
 10
98.090816
 20
104.818820
 30
0.0
 10
99.853708
 20
104.811920
 30
0.0
  0
LINE
  5
107
100
AcDbEntity
  8
Layer_1
 62
7
100
AcDbLine
 10
99.853708
 20
104.811920
 30
0.0
 11
438.567890
 21
104.804920
 31
0.0
  0
SPLINE
  5
108
100
AcDbEntity
  8
Layer_1
 62
7
100
AcDbSpline
 70
8
 71
3
 72
8
 73
4
 74
0
 40
0
 40
0
 40
0
 40
0
 40
1
 40
1
 40
1
 40
1
 10
-260.754900
 20
148.810700
 30
0.0
 10
-260.754900
 20
151.580730
 30
0.0
 10
-258.525230
 20
153.810420
 30
0.0
 10
-255.755200
 20
153.810420
 30
0.0
  0
SPLINE
  5
109
100
AcDbEntity
  8
Layer_1
 62
7
100
AcDbSpline
 70
8
 71
3
 72
8
 73
4
 74
0
 40
0
 40
0
 40
0
 40
0
 40
1
 40
1
 40
1
 40
1
 10
-214.945900
 20
99.734350
 30
0.0
 10
-212.175870
 20
99.734350
 30
0.0
 10
-209.945510
 20
101.964610
 30
0.0
 10
-209.945510
 20
104.734610
 30
0.0
  0
SPLINE
  5
10a
100
AcDbEntity
  8
Layer_1
 62
7
100
AcDbSpline
 70
8
 71
3
 72
8
 73
4
 74
0
 40
0
 40
0
 40
0
 40
0
 40
1
 40
1
 40
1
 40
1
 10
-209.950490
 20
123.968150
 30
0.0
 10
-209.950490
 20
126.244650
 30
0.0
 10
-208.443100
 20
128.153250
 30
0.0
 10
-206.368790
 20
128.762190
 30
0.0
  0
LINE
  5
10b
100
AcDbEntity
  8
Layer_1
 62
7
100
AcDbLine
 10
-209.945510
 20
104.734610
 30
0.0
 11
-209.945510
 21
123.968150
 31
0.0
  0
SPLINE
  5
10c
100
AcDbEntity
  8
Layer_1
 62
1
100
AcDbSpline
 70
8
 71
3
 72
8
 73
4
 74
0
 40
0
 40
0
 40
0
 40
0
 40
1
 40
1
 40
1
 40
1
 10
-122.841500
 20
139.577160
 30
0.0
 10
-123.914420
 20
139.577160
 30
0.0
 10
-124.905780
 20
140.056510
 30
0.0
 10
-125.442230
 20
140.834620
 30
0.0
  0
SPLINE
  5
10d
100
AcDbEntity
  8
Layer_1
 62
1
100
AcDbSpline
 70
8
 71
3
 72
8
 73
4
 74
0
 40
0
 40
0
 40
0
 40
0
 40
1
 40
1
 40
1
 40
1
 10
-125.442230
 20
140.834620
 30
0.0
 10
-125.978690
 20
141.612760
 30
0.0
 10
-125.978690
 20
142.571450
 30
0.0
 10
-125.442230
 20
143.349570
 30
0.0
  0
SPLINE
  5
10e
100
AcDbEntity
  8
Layer_1
 62
1
100
AcDbSpline
 70
8
 71
3
 72
8
 73
4
 74
0
 40
0
 40
0
 40
0
 40
0
 40
1
 40
1
 40
1
 40
1
 10
-125.442230
 20
143.349570
 30
0.0
 10
-124.905780
 20
144.127710
 30
0.0
 10
-123.914360
 20
144.606870
 30
0.0
 10
-122.841450
 20
144.606870
 30
0.0
  0
LINE
  5
10f
100
AcDbEntity
  8
Layer_1
 62
7
100
AcDbLine
 10
-264.681980
 20
99.678100
 30
0.0
 11
-214.946220
 21
99.678100
 31
0.0
  0
SPLINE
  5
110
100
AcDbEntity
  8
Layer_1
 62
1
100
AcDbSpline
 70
8
 71
3
 72
8
 73
4
 74
0
 40
0
 40
0
 40
0
 40
0
 40
1
 40
1
 40
1
 40
1
 10
-201.254000
 20
139.577160
 30
0.0
 10
-202.326910
 20
139.577160
 30
0.0
 10
-203.318280
 20
140.056510
 30
0.0
 10
-203.854720
 20
140.834650
 30
0.0
  0
SPLINE
  5
111
100
AcDbEntity
  8
Layer_1
 62
1
100
AcDbSpline
 70
8
 71
3
 72
8
 73
4
 74
0
 40
0
 40
0
 40
0
 40
0
 40
1
 40
1
 40
1
 40
1
 10
-203.854720
 20
140.834650
 30
0.0
 10
-204.391190
 20
141.612760
 30
0.0
 10
-204.391190
 20
142.571450
 30
0.0
 10
-203.854720
 20
143.349590
 30
0.0
  0
SPLINE
  5
112
100
AcDbEntity
  8
Layer_1
 62
1
100
AcDbSpline
 70
8
 71
3
 72
8
 73
4
 74
0
 40
0
 40
0
 40
0
 40
0
 40
1
 40
1
 40
1
 40
1
 10
-203.854720
 20
143.349590
 30
0.0
 10
-203.318280
 20
144.127710
 30
0.0
 10
-202.326860
 20
144.606870
 30
0.0
 10
-201.253950
 20
144.606870
 30
0.0
  0
LINE
  5
113
100
AcDbEntity
  8
Layer_1
 62
1
100
AcDbLine
 10
-122.839780
 20
144.606870
 30
0.0
 11
-113.714460
 21
144.630370
 31
0.0
  0
LINE
  5
114
100
AcDbEntity
  8
Layer_1
 62
1
100
AcDbLine
 10
-122.840180
 20
139.577160
 30
0.0
 11
-113.715470
 21
139.623960
 31
0.0
  0
LINE
  5
115
100
AcDbEntity
  8
Layer_1
 62
1
100
AcDbLine
 10
-201.252280
 20
144.606870
 30
0.0
 11
-192.126960
 21
144.630370
 31
0.0
  0
SPLINE
  5
116
100
AcDbEntity
  8
Layer_1
 62
1
100
AcDbSpline
 70
8
 71
3
 72
8
 73
4
 74
0
 40
0
 40
0
 40
0
 40
0
 40
1
 40
1
 40
1
 40
1
 10
-18.196707
 20
144.630340
 30
0.0
 10
-17.123795
 20
144.630340
 30
0.0
 10
-16.132427
 20
144.150990
 30
0.0
 10
-15.595958
 20
143.372850
 30
0.0
  0
SPLINE
  5
117
100
AcDbEntity
  8
Layer_1
 62
1
100
AcDbSpline
 70
8
 71
3
 72
8
 73
4
 74
0
 40
0
 40
0
 40
0
 40
0
 40
1
 40
1
 40
1
 40
1
 10
-15.595958
 20
143.372850
 30
0.0
 10
-15.059516
 20
142.594740
 30
0.0
 10
-15.059516
 20
141.636050
 30
0.0
 10
-15.595958
 20
140.857910
 30
0.0
  0
SPLINE
  5
118
100
AcDbEntity
  8
Layer_1
 62
1
100
AcDbSpline
 70
8
 71
3
 72
8
 73
4
 74
0
 40
0
 40
0
 40
0
 40
0
 40
1
 40
1
 40
1
 40
1
 10
-15.595958
 20
140.857910
 30
0.0
 10
-16.132427
 20
140.079770
 30
0.0
 10
-17.123848
 20
139.600630
 30
0.0
 10
-18.196759
 20
139.600630
 30
0.0
  0
LINE
  5
119
100
AcDbEntity
  8
Layer_1
 62
1
100
AcDbLine
 10
-201.252680
 20
139.577160
 30
0.0
 11
-192.127970
 21
139.623960
 31
0.0
  0
SPLINE
  5
11a
100
AcDbEntity
  8
Layer_1
 62
1
100
AcDbSpline
 70
8
 71
3
 72
8
 73
4
 74
0
 40
0
 40
0
 40
0
 40
0
 40
1
 40
1
 40
1
 40
1
 10
60.215791
 20
144.630310
 30
0.0
 10
61.288703
 20
144.630310
 30
0.0
 10
62.280070
 20
144.150960
 30
0.0
 10
62.816513
 20
143.372850
 30
0.0
  0
SPLINE
  5
11b
100
AcDbEntity
  8
Layer_1
 62
1
100
AcDbSpline
 70
8
 71
3
 72
8
 73
4
 74
0
 40
0
 40
0
 40
0
 40
0
 40
1
 40
1
 40
1
 40
1
 10
62.816513
 20
143.372850
 30
0.0
 10
63.352982
 20
142.594710
 30
0.0
 10
63.352982
 20
141.636020
 30
0.0
 10
62.816513
 20
140.857910
 30
0.0
  0
SPLINE
  5
11c
100
AcDbEntity
  8
Layer_1
 62
1
100
AcDbSpline
 70
8
 71
3
 72
8
 73
4
 74
0
 40
0
 40
0
 40
0
 40
0
 40
1
 40
1
 40
1
 40
1
 10
62.816513
 20
140.857910
 30
0.0
 10
62.280070
 20
140.079770
 30
0.0
 10
61.288650
 20
139.600630
 30
0.0
 10
60.215738
 20
139.600630
 30
0.0
  0
LINE
  5
11d
100
AcDbEntity
  8
Layer_1
 62
1
100
AcDbLine
 10
-18.198400
 20
139.600630
 30
0.0
 11
-27.323747
 21
139.577030
 31
0.0
  0
LINE
  5
11e
100
AcDbEntity
  8
Layer_1
 62
1
100
AcDbLine
 10
-18.198029
 20
144.630340
 30
0.0
 11
-27.322741
 21
144.583540
 31
0.0
  0
LINE
  5
11f
100
AcDbEntity
  8
Layer_1
 62
1
100
AcDbLine
 10
60.214071
 20
139.600630
 30
0.0
 11
51.088751
 21
139.577030
 31
0.0
  0
LINE
  5
120
100
AcDbEntity
  8
Layer_1
 62
1
100
AcDbLine
 10
60.214468
 20
144.630340
 30
0.0
 11
51.089757
 21
144.583540
 31
0.0
  0
LINE
  5
121
100
AcDbEntity
  8
Layer_1
 62
5
100
AcDbLine
 10
-224.681450
 20
140.708600
 30
0.0
 11
-223.093950
 21
137.004440
 31
0.0
  0
LINE
  5
122
100
AcDbEntity
  8
Layer_1
 62
5
100
AcDbLine
 10
-221.506450
 20
140.708600
 30
0.0
 11
-223.093950
 21
137.004440
 31
0.0
  0
LINE
  5
123
100
AcDbEntity
  8
Layer_1
 62
5
100
AcDbLine
 10
-249.974510
 20
135.396170
 30
0.0
 11
-252.620340
 21
131.692000
 31
0.0
  0
LINE
  5
124
100
AcDbEntity
  8
Layer_1
 62
5
100
AcDbLine
 10
-252.620340
 20
131.692000
 30
0.0
 11
-248.651590
 21
131.692000
 31
0.0
  0
LINE
  5
125
100
AcDbEntity
  8
Layer_1
 62
5
100
AcDbLine
 10
-249.974510
 20
135.396170
 30
0.0
 11
-249.974510
 21
129.839920
 31
0.0
  0
LINE
  5
126
100
AcDbEntity
  8
Layer_1
 62
5
100
AcDbLine
 10
-245.500400
 20
134.100260
 30
0.0
 11
-245.500400
 21
128.544010
 31
0.0
  0
LINE
  5
127
100
AcDbEntity
  8
Layer_1
 62
5
100
AcDbLine
 10
-245.389170
 20
133.195260
 30
0.0
 11
-244.860010
 21
133.724420
 31
0.0
  0
LINE
  5
128
100
AcDbEntity
  8
Layer_1
 62
5
100
AcDbLine
 10
-244.860010
 20
133.724420
 30
0.0
 11
-244.330840
 21
133.989010
 31
0.0
  0
LINE
  5
129
100
AcDbEntity
  8
Layer_1
 62
5
100
AcDbLine
 10
-244.330840
 20
133.989010
 30
0.0
 11
-243.537090
 21
133.989010
 31
0.0
  0
LINE
  5
12a
100
AcDbEntity
  8
Layer_1
 62
5
100
AcDbLine
 10
-243.537090
 20
133.989010
 30
0.0
 11
-243.007920
 21
133.724420
 31
0.0
  0
LINE
  5
12b
100
AcDbEntity
  8
Layer_1
 62
5
100
AcDbLine
 10
-243.007920
 20
133.724420
 30
0.0
 11
-242.478760
 21
133.195260
 31
0.0
  0
LINE
  5
12c
100
AcDbEntity
  8
Layer_1
 62
5
100
AcDbLine
 10
-242.478760
 20
133.195260
 30
0.0
 11
-242.214170
 21
132.401510
 31
0.0
  0
LINE
  5
12d
100
AcDbEntity
  8
Layer_1
 62
5
100
AcDbLine
 10
-242.214170
 20
132.401510
 30
0.0
 11
-242.214170
 21
131.872340
 31
0.0
  0
LINE
  5
12e
100
AcDbEntity
  8
Layer_1
 62
5
100
AcDbLine
 10
-242.214170
 20
131.872340
 30
0.0
 11
-242.478760
 21
131.078620
 31
0.0
  0
LINE
  5
12f
100
AcDbEntity
  8
Layer_1
 62
5
100
AcDbLine
 10
-242.478760
 20
131.078620
 30
0.0
 11
-243.007920
 21
130.549450
 31
0.0
  0
LINE
  5
130
100
AcDbEntity
  8
Layer_1
 62
5
100
AcDbLine
 10
-243.007920
 20
130.549450
 30
0.0
 11
-243.537090
 21
130.284870
 31
0.0
  0
LINE
  5
131
100
AcDbEntity
  8
Layer_1
 62
5
100
AcDbLine
 10
-243.537090
 20
130.284870
 30
0.0
 11
-244.330840
 21
130.284870
 31
0.0
  0
LINE
  5
132
100
AcDbEntity
  8
Layer_1
 62
5
100
AcDbLine
 10
-244.330840
 20
130.284870
 30
0.0
 11
-244.860010
 21
130.549450
 31
0.0
  0
LINE
  5
133
100
AcDbEntity
  8
Layer_1
 62
5
100
AcDbLine
 10
-244.860010
 20
130.549450
 30
0.0
 11
-245.389170
 21
131.078620
 31
0.0
  0
LINE
  5
134
100
AcDbEntity
  8
Layer_1
 62
5
100
AcDbLine
 10
-240.362090
 20
133.989010
 30
0.0
 11
-240.362090
 21
131.343200
 31
0.0
  0
LINE
  5
135
100
AcDbEntity
  8
Layer_1
 62
5
100
AcDbLine
 10
-240.362090
 20
131.343200
 30
0.0
 11
-240.097510
 21
130.549450
 31
0.0
  0
LINE
  5
136
100
AcDbEntity
  8
Layer_1
 62
5
100
AcDbLine
 10
-240.097510
 20
130.549450
 30
0.0
 11
-239.568340
 21
130.284870
 31
0.0
  0
LINE
  5
137
100
AcDbEntity
  8
Layer_1
 62
5
100
AcDbLine
 10
-239.568340
 20
130.284870
 30
0.0
 11
-238.774560
 21
130.284870
 31
0.0
  0
LINE
  5
138
100
AcDbEntity
  8
Layer_1
 62
5
100
AcDbLine
 10
-238.774560
 20
130.284870
 30
0.0
 11
-238.245400
 21
130.549450
 31
0.0
  0
LINE
  5
139
100
AcDbEntity
  8
Layer_1
 62
5
100
AcDbLine
 10
-238.245400
 20
130.549450
 30
0.0
 11
-237.451650
 21
131.343200
 31
0.0
  0
LINE
  5
13a
100
AcDbEntity
  8
Layer_1
 62
5
100
AcDbLine
 10
-237.451650
 20
133.989010
 30
0.0
 11
-237.451650
 21
130.284870
 31
0.0
  0
LINE
  5
13b
100
AcDbEntity
  8
Layer_1
 62
5
100
AcDbLine
 10
-235.334980
 20
133.989010
 30
0.0
 11
-235.334980
 21
130.284870
 31
0.0
  0
LINE
  5
13c
100
AcDbEntity
  8
Layer_1
 62
5
100
AcDbLine
 10
-235.334980
 20
132.930670
 30
0.0
 11
-234.541230
 21
133.724420
 31
0.0
  0
LINE
  5
13d
100
AcDbEntity
  8
Layer_1
 62
5
100
AcDbLine
 10
-234.541230
 20
133.724420
 30
0.0
 11
-234.012060
 21
133.989010
 31
0.0
  0
LINE
  5
13e
100
AcDbEntity
  8
Layer_1
 62
5
100
AcDbLine
 10
-234.012060
 20
133.989010
 30
0.0
 11
-233.218310
 21
133.989010
 31
0.0
  0
LINE
  5
13f
100
AcDbEntity
  8
Layer_1
 62
5
100
AcDbLine
 10
-233.218310
 20
133.989010
 30
0.0
 11
-232.689150
 21
133.724420
 31
0.0
  0
LINE
  5
140
100
AcDbEntity
  8
Layer_1
 62
5
100
AcDbLine
 10
-232.689150
 20
133.724420
 30
0.0
 11
-232.424560
 21
132.930670
 31
0.0
  0
LINE
  5
141
100
AcDbEntity
  8
Layer_1
 62
5
100
AcDbLine
 10
-232.424560
 20
132.930670
 30
0.0
 11
-232.424560
 21
130.284870
 31
0.0
  0
LINE
  5
142
100
AcDbEntity
  8
Layer_1
 62
5
100
AcDbLine
 10
-227.397480
 20
133.195260
 30
0.0
 11
-227.926650
 21
133.724420
 31
0.0
  0
LINE
  5
143
100
AcDbEntity
  8
Layer_1
 62
5
100
AcDbLine
 10
-227.926650
 20
133.724420
 30
0.0
 11
-228.455810
 21
133.989010
 31
0.0
  0
LINE
  5
144
100
AcDbEntity
  8
Layer_1
 62
5
100
AcDbLine
 10
-228.455810
 20
133.989010
 30
0.0
 11
-229.249560
 21
133.989010
 31
0.0
  0
LINE
  5
145
100
AcDbEntity
  8
Layer_1
 62
5
100
AcDbLine
 10
-229.249560
 20
133.989010
 30
0.0
 11
-229.778730
 21
133.724420
 31
0.0
  0
LINE
  5
146
100
AcDbEntity
  8
Layer_1
 62
5
100
AcDbLine
 10
-229.778730
 20
133.724420
 30
0.0
 11
-230.307900
 21
133.195260
 31
0.0
  0
LINE
  5
147
100
AcDbEntity
  8
Layer_1
 62
5
100
AcDbLine
 10
-230.307900
 20
133.195260
 30
0.0
 11
-230.572480
 21
132.401510
 31
0.0
  0
LINE
  5
148
100
AcDbEntity
  8
Layer_1
 62
5
100
AcDbLine
 10
-230.572480
 20
132.401510
 30
0.0
 11
-230.572480
 21
131.872340
 31
0.0
  0
LINE
  5
149
100
AcDbEntity
  8
Layer_1
 62
5
100
AcDbLine
 10
-230.572480
 20
131.872340
 30
0.0
 11
-230.307900
 21
131.078620
 31
0.0
  0
LINE
  5
14a
100
AcDbEntity
  8
Layer_1
 62
5
100
AcDbLine
 10
-230.307900
 20
131.078620
 30
0.0
 11
-229.778730
 21
130.549450
 31
0.0
  0
LINE
  5
14b
100
AcDbEntity
  8
Layer_1
 62
5
100
AcDbLine
 10
-229.778730
 20
130.549450
 30
0.0
 11
-229.249560
 21
130.284870
 31
0.0
  0
LINE
  5
14c
100
AcDbEntity
  8
Layer_1
 62
5
100
AcDbLine
 10
-229.249560
 20
130.284870
 30
0.0
 11
-228.455810
 21
130.284870
 31
0.0
  0
LINE
  5
14d
100
AcDbEntity
  8
Layer_1
 62
5
100
AcDbLine
 10
-228.455810
 20
130.284870
 30
0.0
 11
-227.926650
 21
130.549450
 31
0.0
  0
LINE
  5
14e
100
AcDbEntity
  8
Layer_1
 62
5
100
AcDbLine
 10
-227.926650
 20
130.549450
 30
0.0
 11
-227.397480
 21
131.078620
 31
0.0
  0
LINE
  5
14f
100
AcDbEntity
  8
Layer_1
 62
5
100
AcDbLine
 10
-225.545400
 20
135.841090
 30
0.0
 11
-225.545400
 21
130.284870
 31
0.0
  0
LINE
  5
150
100
AcDbEntity
  8
Layer_1
 62
5
100
AcDbLine
 10
-225.545400
 20
132.930670
 30
0.0
 11
-224.751650
 21
133.724420
 31
0.0
  0
LINE
  5
151
100
AcDbEntity
  8
Layer_1
 62
5
100
AcDbLine
 10
-224.751650
 20
133.724420
 30
0.0
 11
-224.222480
 21
133.989010
 31
0.0
  0
LINE
  5
152
100
AcDbEntity
  8
Layer_1
 62
5
100
AcDbLine
 10
-224.222480
 20
133.989010
 30
0.0
 11
-223.428730
 21
133.989010
 31
0.0
  0
LINE
  5
153
100
AcDbEntity
  8
Layer_1
 62
5
100
AcDbLine
 10
-223.428730
 20
133.989010
 30
0.0
 11
-222.899560
 21
133.724420
 31
0.0
  0
LINE
  5
154
100
AcDbEntity
  8
Layer_1
 62
5
100
AcDbLine
 10
-222.899560
 20
133.724420
 30
0.0
 11
-222.634980
 21
132.930670
 31
0.0
  0
LINE
  5
155
100
AcDbEntity
  8
Layer_1
 62
5
100
AcDbLine
 10
-222.634980
 20
132.930670
 30
0.0
 11
-222.634980
 21
130.284870
 31
0.0
  0
SPLINE
  5
156
100
AcDbEntity
  8
Layer_1
 62
7
100
AcDbSpline
 70
8
 71
3
 72
8
 73
4
 74
0
 40
0
 40
0
 40
0
 40
0
 40
1
 40
1
 40
1
 40
1
 10
-158.991340
 20
102.677630
 30
0.0
 10
-158.991341
 20
101.902539
 30
0.0
 10
-158.675222
 20
101.159194
 30
0.0
 10
-158.112527
 20
100.611122
 30
0.0
  0
SPLINE
  5
157
100
AcDbEntity
  8
Layer_1
 62
7
100
AcDbSpline
 70
8
 71
3
 72
8
 73
4
 74
0
 40
0
 40
0
 40
0
 40
0
 40
1
 40
1
 40
1
 40
1
 10
-158.112527
 20
100.611122
 30
0.0
 10
-157.549831
 20
100.063050
 30
0.0
 10
-156.786651
 20
99.755148
 30
0.0
 10
-155.990880
 20
99.755150
 30
0.0
  0
LINE
  5
158
100
AcDbEntity
  8
Layer_1
 62
7
100
AcDbLine
 10
-158.991340
 20
102.677630
 30
0.0
 11
-158.991340
 21
107.061350
 31
0.0
  0
SPLINE
  5
159
100
AcDbEntity
  8
Layer_1
 62
7
100
AcDbSpline
 70
8
 71
3
 72
8
 73
4
 74
0
 40
0
 40
0
 40
0
 40
0
 40
1
 40
1
 40
1
 40
1
 10
-158.991340
 20
107.061350
 30
0.0
 10
-158.495277
 20
107.062817
 30
0.0
 10
-158.093936
 20
107.454917
 30
0.0
 10
-158.093936
 20
107.938090
 30
0.0
  0
SPLINE
  5
15a
100
AcDbEntity
  8
Layer_1
 62
7
100
AcDbSpline
 70
8
 71
3
 72
8
 73
4
 74
0
 40
0
 40
0
 40
0
 40
0
 40
1
 40
1
 40
1
 40
1
 10
-158.093936
 20
107.938090
 30
0.0
 10
-158.093936
 20
108.421263
 30
0.0
 10
-158.495277
 20
108.813363
 30
0.0
 10
-158.991340
 20
108.814830
 30
0.0
  0
LINE
  5
15b
100
AcDbEntity
  8
Layer_1
 62
7
100
AcDbLine
 10
-158.991340
 20
108.814830
 30
0.0
 11
-158.991340
 21
119.920260
 31
0.0
  0
SPLINE
  5
15c
100
AcDbEntity
  8
Layer_1
 62
7
100
AcDbSpline
 70
8
 71
3
 72
8
 73
4
 74
0
 40
0
 40
0
 40
0
 40
0
 40
1
 40
1
 40
1
 40
1
 10
-158.991340
 20
119.920260
 30
0.0
 10
-158.495155
 20
119.921560
 30
0.0
 10
-158.093625
 20
120.313709
 30
0.0
 10
-158.093625
 20
120.797000
 30
0.0
  0
SPLINE
  5
15d
100
AcDbEntity
  8
Layer_1
 62
7
100
AcDbSpline
 70
8
 71
3
 72
8
 73
4
 74
0
 40
0
 40
0
 40
0
 40
0
 40
1
 40
1
 40
1
 40
1
 10
-158.093625
 20
120.797000
 30
0.0
 10
-158.093625
 20
121.280291
 30
0.0
 10
-158.495155
 20
121.672440
 30
0.0
 10
-158.991340
 20
121.673740
 30
0.0
  0
LINE
  5
15e
100
AcDbEntity
  8
Layer_1
 62
7
100
AcDbLine
 10
-158.992290
 20
121.672780
 30
0.0
 11
-158.992290
 21
125.990890
 31
0.0
  0
SPLINE
  5
15f
100
AcDbEntity
  8
Layer_1
 62
7
100
AcDbSpline
 70
8
 71
3
 72
8
 73
4
 74
0
 40
0
 40
0
 40
0
 40
0
 40
1
 40
1
 40
1
 40
1
 10
-155.989930
 20
128.869640
 30
0.0
 10
-156.786206
 20
128.869644
 30
0.0
 10
-157.549870
 20
128.566349
 30
0.0
 10
-158.112922
 20
128.026478
 30
0.0
  0
SPLINE
  5
160
100
AcDbEntity
  8
Layer_1
 62
7
100
AcDbSpline
 70
8
 71
3
 72
8
 73
4
 74
0
 40
0
 40
0
 40
0
 40
0
 40
1
 40
1
 40
1
 40
1
 10
-158.112922
 20
128.026478
 30
0.0
 10
-158.675975
 20
127.486607
 30
0.0
 10
-158.992293
 20
126.754384
 30
0.0
 10
-158.992290
 20
125.990890
 30
0.0
  0
SPLINE
  5
161
100
AcDbEntity
  8
Layer_1
 62
7
100
AcDbSpline
 70
8
 71
3
 72
8
 73
4
 74
0
 40
0
 40
0
 40
0
 40
0
 40
1
 40
1
 40
1
 40
1
 10
-140.889160
 20
126.055050
 30
0.0
 10
-140.889158
 20
126.801898
 30
0.0
 10
-141.205470
 20
127.518158
 30
0.0
 10
-141.768511
 20
128.046259
 30
0.0
  0
SPLINE
  5
162
100
AcDbEntity
  8
Layer_1
 62
7
100
AcDbSpline
 70
8
 71
3
 72
8
 73
4
 74
0
 40
0
 40
0
 40
0
 40
0
 40
1
 40
1
 40
1
 40
1
 10
-141.768511
 20
128.046259
 30
0.0
 10
-142.331552
 20
128.574360
 30
0.0
 10
-143.095200
 20
128.871043
 30
0.0
 10
-143.891460
 20
128.871040
 30
0.0
  0
LINE
  5
163
100
AcDbEntity
  8
Layer_1
 62
7
100
AcDbLine
 10
-140.888630
 20
126.057460
 30
0.0
 11
-140.888630
 21
120.796990
 31
0.0
  0
SPLINE
  5
164
100
AcDbEntity
  8
Layer_1
 62
7
100
AcDbSpline
 70
8
 71
3
 72
8
 73
4
 74
0
 40
0
 40
0
 40
0
 40
0
 40
1
 40
1
 40
1
 40
1
 10
-140.888630
 20
120.796990
 30
0.0
 10
-140.888630
 20
120.483758
 30
0.0
 10
-140.717064
 20
120.194320
 30
0.0
 10
-140.438560
 20
120.037705
 30
0.0
  0
SPLINE
  5
165
100
AcDbEntity
  8
Layer_1
 62
7
100
AcDbSpline
 70
8
 71
3
 72
8
 73
4
 74
0
 40
0
 40
0
 40
0
 40
0
 40
1
 40
1
 40
1
 40
1
 10
-140.438560
 20
120.037705
 30
0.0
 10
-140.160056
 20
119.881089
 30
0.0
 10
-139.816924
 20
119.881089
 30
0.0
 10
-139.538420
 20
120.037705
 30
0.0
  0
SPLINE
  5
166
100
AcDbEntity
  8
Layer_1
 62
7
100
AcDbSpline
 70
8
 71
3
 72
8
 73
4
 74
0
 40
0
 40
0
 40
0
 40
0
 40
1
 40
1
 40
1
 40
1
 10
-139.538420
 20
120.037705
 30
0.0
 10
-139.259916
 20
120.194320
 30
0.0
 10
-139.088350
 20
120.483758
 30
0.0
 10
-139.088350
 20
120.796990
 30
0.0
  0
LINE
  5
167
100
AcDbEntity
  8
Layer_1
 62
7
100
AcDbLine
 10
-139.088350
 20
120.796990
 30
0.0
 11
-139.088350
 21
126.057460
 31
0.0
  0
SPLINE
  5
168
100
AcDbEntity
  8
Layer_1
 62
7
100
AcDbSpline
 70
8
 71
3
 72
8
 73
4
 74
0
 40
0
 40
0
 40
0
 40
0
 40
1
 40
1
 40
1
 40
1
 10
-136.085510
 20
128.871040
 30
0.0
 10
-136.881766
 20
128.871038
 30
0.0
 10
-137.645409
 20
128.574353
 30
0.0
 10
-138.208446
 20
128.046253
 30
0.0
  0
SPLINE
  5
169
100
AcDbEntity
  8
Layer_1
 62
7
100
AcDbSpline
 70
8
 71
3
 72
8
 73
4
 74
0
 40
0
 40
0
 40
0
 40
0
 40
1
 40
1
 40
1
 40
1
 10
-138.208446
 20
128.046253
 30
0.0
 10
-138.771483
 20
127.518152
 30
0.0
 10
-139.087792
 20
126.801895
 30
0.0
 10
-139.087790
 20
126.055050
 30
0.0
  0
SPLINE
  5
16a
100
AcDbEntity
  8
Layer_1
 62
7
100
AcDbSpline
 70
8
 71
3
 72
8
 73
4
 74
0
 40
0
 40
0
 40
0
 40
0
 40
1
 40
1
 40
1
 40
1
 10
-139.088350
 20
102.677630
 30
0.0
 10
-139.088351
 20
101.902539
 30
0.0
 10
-138.772232
 20
101.159194
 30
0.0
 10
-138.209537
 20
100.611122
 30
0.0
  0
SPLINE
  5
16b
100
AcDbEntity
  8
Layer_1
 62
7
100
AcDbSpline
 70
8
 71
3
 72
8
 73
4
 74
0
 40
0
 40
0
 40
0
 40
0
 40
1
 40
1
 40
1
 40
1
 10
-138.209537
 20
100.611122
 30
0.0
 10
-137.646841
 20
100.063050
 30
0.0
 10
-136.883661
 20
99.755148
 30
0.0
 10
-136.087890
 20
99.755150
 30
0.0
  0
LINE
  5
16c
100
AcDbEntity
  8
Layer_1
 62
7
100
AcDbLine
 10
-139.088350
 20
102.677630
 30
0.0
 11
-139.088350
 21
107.938100
 31
0.0
  0
SPLINE
  5
16d
100
AcDbEntity
  8
Layer_1
 62
7
100
AcDbSpline
 70
8
 71
3
 72
8
 73
4
 74
0
 40
0
 40
0
 40
0
 40
0
 40
1
 40
1
 40
1
 40
1
 10
-139.088350
 20
107.938100
 30
0.0
 10
-139.088350
 20
108.251332
 30
0.0
 10
-139.259916
 20
108.540770
 30
0.0
 10
-139.538420
 20
108.697385
 30
0.0
  0
SPLINE
  5
16e
100
AcDbEntity
  8
Layer_1
 62
7
100
AcDbSpline
 70
8
 71
3
 72
8
 73
4
 74
0
 40
0
 40
0
 40
0
 40
0
 40
1
 40
1
 40
1
 40
1
 10
-139.538420
 20
108.697385
 30
0.0
 10
-139.816924
 20
108.854001
 30
0.0
 10
-140.160056
 20
108.854001
 30
0.0
 10
-140.438560
 20
108.697385
 30
0.0
  0
SPLINE
  5
16f
100
AcDbEntity
  8
Layer_1
 62
7
100
AcDbSpline
 70
8
 71
3
 72
8
 73
4
 74
0
 40
0
 40
0
 40
0
 40
0
 40
1
 40
1
 40
1
 40
1
 10
-140.438560
 20
108.697385
 30
0.0
 10
-140.717064
 20
108.540770
 30
0.0
 10
-140.888630
 20
108.251332
 30
0.0
 10
-140.888630
 20
107.938100
 30
0.0
  0
LINE
  5
170
100
AcDbEntity
  8
Layer_1
 62
7
100
AcDbLine
 10
-140.888630
 20
107.938100
 30
0.0
 11
-140.888630
 21
102.677630
 31
0.0
  0
SPLINE
  5
171
100
AcDbEntity
  8
Layer_1
 62
7
100
AcDbSpline
 70
8
 71
3
 72
8
 73
4
 74
0
 40
0
 40
0
 40
0
 40
0
 40
1
 40
1
 40
1
 40
1
 10
-143.889080
 20
99.755150
 30
0.0
 10
-143.093310
 20
99.755150
 30
0.0
 10
-142.330133
 20
100.063054
 30
0.0
 10
-141.767440
 20
100.611125
 30
0.0
  0
SPLINE
  5
172
100
AcDbEntity
  8
Layer_1
 62
7
100
AcDbSpline
 70
8
 71
3
 72
8
 73
4
 74
0
 40
0
 40
0
 40
0
 40
0
 40
1
 40
1
 40
1
 40
1
 10
-141.767440
 20
100.611125
 30
0.0
 10
-141.204746
 20
101.159197
 30
0.0
 10
-140.888629
 20
101.902541
 30
0.0
 10
-140.888630
 20
102.677630
 30
0.0
  0
LINE
  5
173
100
AcDbEntity
  8
Layer_1
 62
7
100
AcDbLine
 10
-143.889080
 20
99.755150
 30
0.0
 11
-155.990880
 21
99.755150
 31
0.0
  0
SPLINE
  5
174
100
AcDbEntity
  8
Layer_1
 62
7
100
AcDbSpline
 70
8
 71
3
 72
8
 73
4
 74
0
 40
0
 40
0
 40
0
 40
0
 40
1
 40
1
 40
1
 40
1
 10
68.011527
 20
128.687950
 30
0.0
 10
68.011525
 20
128.363436
 30
0.0
 10
67.882609
 20
128.052214
 30
0.0
 10
67.653141
 20
127.822750
 30
0.0
  0
SPLINE
  5
175
100
AcDbEntity
  8
Layer_1
 62
7
100
AcDbSpline
 70
8
 71
3
 72
8
 73
4
 74
0
 40
0
 40
0
 40
0
 40
0
 40
1
 40
1
 40
1
 40
1
 10
67.653141
 20
127.822750
 30
0.0
 10
67.423673
 20
127.593286
 30
0.0
 10
67.112449
 20
127.464377
 30
0.0
 10
66.787935
 20
127.464380
 30
0.0
  0
SPLINE
  5
176
100
AcDbEntity
  8
Layer_1
 62
7
100
AcDbSpline
 70
8
 71
3
 72
8
 73
4
 74
0
 40
0
 40
0
 40
0
 40
0
 40
1
 40
1
 40
1
 40
1
 10
66.787935
 20
127.464380
 30
0.0
 10
66.112180
 20
127.464388
 30
0.0
 10
65.564375
 20
128.012195
 30
0.0
 10
65.564370
 20
128.687950
 30
0.0
  0
SPLINE
  5
177
100
AcDbEntity
  8
Layer_1
 62
7
100
AcDbSpline
 70
8
 71
3
 72
8
 73
4
 74
0
 40
0
 40
0
 40
0
 40
0
 40
1
 40
1
 40
1
 40
1
 10
65.564370
 20
128.687950
 30
0.0
 10
65.564364
 20
129.363713
 30
0.0
 10
66.112172
 20
129.911532
 30
0.0
 10
66.787935
 20
129.911540
 30
0.0
  0
SPLINE
  5
178
100
AcDbEntity
  8
Layer_1
 62
7
100
AcDbSpline
 70
8
 71
3
 72
8
 73
4
 74
0
 40
0
 40
0
 40
0
 40
0
 40
1
 40
1
 40
1
 40
1
 10
66.787935
 20
129.911540
 30
0.0
 10
67.112452
 20
129.911543
 30
0.0
 10
67.423680
 20
129.782631
 30
0.0
 10
67.653148
 20
129.553163
 30
0.0
  0
SPLINE
  5
179
100
AcDbEntity
  8
Layer_1
 62
7
100
AcDbSpline
 70
8
 71
3
 72
8
 73
4
 74
0
 40
0
 40
0
 40
0
 40
0
 40
1
 40
1
 40
1
 40
1
 10
67.653148
 20
129.553163
 30
0.0
 10
67.882617
 20
129.323694
 30
0.0
 10
68.011530
 20
129.012467
 30
0.0
 10
68.011527
 20
128.687950
 30
0.0
  0
LINE
  5
17a
100
AcDbEntity
  8
Layer_1
 62
7
100
AcDbLine
 10
68.011527
 20
128.687950
 30
0.0
 11
68.011527
 21
128.687950
 31
0.0
  0
LINE
  5
17b
100
AcDbEntity
  8
Layer_1
 62
7
100
AcDbLine
 10
455.399540
 20
121.600980
 30
0.0
 11
439.344340
 21
125.902940
 31
0.0
  0
SPLINE
  5
17c
100
AcDbEntity
  8
Layer_1
 62
7
100
AcDbSpline
 70
8
 71
3
 72
8
 73
4
 74
0
 40
0
 40
0
 40
0
 40
0
 40
1
 40
1
 40
1
 40
1
 10
439.344340
 20
125.902940
 30
0.0
 10
439.091103
 20
125.970801
 30
0.0
 10
438.830062
 20
126.005174
 30
0.0
 10
438.567890
 20
126.005180
 30
0.0
  0
LINE
  5
17d
100
AcDbEntity
  8
Layer_1
 62
7
100
AcDbLine
 10
439.344340
 20
104.907410
 30
0.0
 11
455.399540
 21
109.209370
 31
0.0
  0
SPLINE
  5
17e
100
AcDbEntity
  8
Layer_1
 62
7
100
AcDbSpline
 70
8
 71
3
 72
8
 73
4
 74
0
 40
0
 40
0
 40
0
 40
0
 40
1
 40
1
 40
1
 40
1
 10
455.399540
 20
109.209370
 30
0.0
 10
456.711095
 20
109.560792
 30
0.0
 10
457.623095
 20
110.749321
 30
0.0
 10
457.623100
 20
112.107140
 30
0.0
  0
LINE
  5
17f
100
AcDbEntity
  8
Layer_1
 62
7
100
AcDbLine
 10
457.623100
 20
112.107140
 30
0.0
 11
457.623100
 21
118.703180
 31
0.0
  0
SPLINE
  5
180
100
AcDbEntity
  8
Layer_1
 62
7
100
AcDbSpline
 70
8
 71
3
 72
8
 73
4
 74
0
 40
0
 40
0
 40
0
 40
0
 40
1
 40
1
 40
1
 40
1
 10
457.623100
 20
118.703210
 30
0.0
 10
457.623095
 20
120.061029
 30
0.0
 10
456.711095
 20
121.249558
 30
0.0
 10
455.399540
 20
121.600980
 30
0.0
  0
SPLINE
  5
181
100
AcDbEntity
  8
Layer_1
 62
1
100
AcDbSpline
 70
8
 71
3
 72
8
 73
4
 74
0
 40
0
 40
0
 40
0
 40
0
 40
1
 40
1
 40
1
 40
1
 10
442.923090
 20
109.705180
 30
0.0
 10
442.922390
 20
109.418900
 30
0.0
 10
443.074717
 20
109.154066
 30
0.0
 10
443.322527
 20
109.010724
 30
0.0
  0
SPLINE
  5
182
100
AcDbEntity
  8
Layer_1
 62
1
100
AcDbSpline
 70
8
 71
3
 72
8
 73
4
 74
0
 40
0
 40
0
 40
0
 40
0
 40
1
 40
1
 40
1
 40
1
 10
443.322527
 20
109.010724
 30
0.0
 10
443.570337
 20
108.867381
 30
0.0
 10
443.875853
 20
108.867381
 30
0.0
 10
444.123663
 20
109.010724
 30
0.0
  0
SPLINE
  5
183
100
AcDbEntity
  8
Layer_1
 62
1
100
AcDbSpline
 70
8
 71
3
 72
8
 73
4
 74
0
 40
0
 40
0
 40
0
 40
0
 40
1
 40
1
 40
1
 40
1
 10
444.123663
 20
109.010724
 30
0.0
 10
444.371473
 20
109.154066
 30
0.0
 10
444.523800
 20
109.418900
 30
0.0
 10
444.523100
 20
109.705180
 30
0.0
  0
SPLINE
  5
184
100
AcDbEntity
  8
Layer_1
 62
1
100
AcDbSpline
 70
8
 71
3
 72
8
 73
4
 74
0
 40
0
 40
0
 40
0
 40
0
 40
1
 40
1
 40
1
 40
1
 10
444.523100
 20
109.705180
 30
0.0
 10
444.523800
 20
109.991460
 30
0.0
 10
444.371473
 20
110.256294
 30
0.0
 10
444.123663
 20
110.399636
 30
0.0
  0
SPLINE
  5
185
100
AcDbEntity
  8
Layer_1
 62
1
100
AcDbSpline
 70
8
 71
3
 72
8
 73
4
 74
0
 40
0
 40
0
 40
0
 40
0
 40
1
 40
1
 40
1
 40
1
 10
444.123663
 20
110.399636
 30
0.0
 10
443.875853
 20
110.542979
 30
0.0
 10
443.570337
 20
110.542979
 30
0.0
 10
443.322527
 20
110.399636
 30
0.0
  0
SPLINE
  5
186
100
AcDbEntity
  8
Layer_1
 62
1
100
AcDbSpline
 70
8
 71
3
 72
8
 73
4
 74
0
 40
0
 40
0
 40
0
 40
0
 40
1
 40
1
 40
1
 40
1
 10
443.322527
 20
110.399636
 30
0.0
 10
443.074717
 20
110.256294
 30
0.0
 10
442.922390
 20
109.991460
 30
0.0
 10
442.923090
 20
109.705180
 30
0.0
  0
LINE
  5
187
100
AcDbEntity
  8
Layer_1
 62
1
100
AcDbLine
 10
442.923090
 20
109.705180
 30
0.0
 11
442.923090
 21
109.705180
 31
0.0
  0
SPLINE
  5
188
100
AcDbEntity
  8
Layer_1
 62
1
100
AcDbSpline
 70
8
 71
3
 72
8
 73
4
 74
0
 40
0
 40
0
 40
0
 40
0
 40
1
 40
1
 40
1
 40
1
 10
442.923090
 20
121.105170
 30
0.0
 10
442.922390
 20
120.818890
 30
0.0
 10
443.074717
 20
120.554056
 30
0.0
 10
443.322527
 20
120.410714
 30
0.0
  0
SPLINE
  5
189
100
AcDbEntity
  8
Layer_1
 62
1
100
AcDbSpline
 70
8
 71
3
 72
8
 73
4
 74
0
 40
0
 40
0
 40
0
 40
0
 40
1
 40
1
 40
1
 40
1
 10
443.322527
 20
120.410714
 30
0.0
 10
443.570337
 20
120.267371
 30
0.0
 10
443.875853
 20
120.267371
 30
0.0
 10
444.123663
 20
120.410714
 30
0.0
  0
SPLINE
  5
18a
100
AcDbEntity
  8
Layer_1
 62
1
100
AcDbSpline
 70
8
 71
3
 72
8
 73
4
 74
0
 40
0
 40
0
 40
0
 40
0
 40
1
 40
1
 40
1
 40
1
 10
444.123663
 20
120.410714
 30
0.0
 10
444.371473
 20
120.554056
 30
0.0
 10
444.523800
 20
120.818890
 30
0.0
 10
444.523100
 20
121.105170
 30
0.0
  0
SPLINE
  5
18b
100
AcDbEntity
  8
Layer_1
 62
1
100
AcDbSpline
 70
8
 71
3
 72
8
 73
4
 74
0
 40
0
 40
0
 40
0
 40
0
 40
1
 40
1
 40
1
 40
1
 10
444.523100
 20
121.105170
 30
0.0
 10
444.523800
 20
121.391450
 30
0.0
 10
444.371473
 20
121.656284
 30
0.0
 10
444.123663
 20
121.799626
 30
0.0
  0
SPLINE
  5
18c
100
AcDbEntity
  8
Layer_1
 62
1
100
AcDbSpline
 70
8
 71
3
 72
8
 73
4
 74
0
 40
0
 40
0
 40
0
 40
0
 40
1
 40
1
 40
1
 40
1
 10
444.123663
 20
121.799626
 30
0.0
 10
443.875853
 20
121.942969
 30
0.0
 10
443.570337
 20
121.942969
 30
0.0
 10
443.322527
 20
121.799626
 30
0.0
  0
SPLINE
  5
18d
100
AcDbEntity
  8
Layer_1
 62
1
100
AcDbSpline
 70
8
 71
3
 72
8
 73
4
 74
0
 40
0
 40
0
 40
0
 40
0
 40
1
 40
1
 40
1
 40
1
 10
443.322527
 20
121.799626
 30
0.0
 10
443.074717
 20
121.656284
 30
0.0
 10
442.922390
 20
121.391450
 30
0.0
 10
442.923090
 20
121.105170
 30
0.0
  0
LINE
  5
18e
100
AcDbEntity
  8
Layer_1
 62
1
100
AcDbLine
 10
442.923090
 20
121.105170
 30
0.0
 11
442.923090
 21
121.105170
 31
0.0
  0
LINE
  5
18f
100
AcDbEntity
  8
Layer_1
 62
1
100
AcDbLine
 10
442.923200
 20
109.717850
 30
0.0
 11
441.950800
 21
109.733250
 31
0.0
  0
LINE
  5
190
100
AcDbEntity
  8
Layer_1
 62
1
100
AcDbLine
 10
440.474560
 20
111.233070
 30
0.0
 11
440.474560
 21
119.577280
 31
0.0
  0
SPLINE
  5
191
100
AcDbEntity
  8
Layer_1
 62
1
100
AcDbSpline
 70
8
 71
3
 72
8
 73
4
 74
0
 40
0
 40
0
 40
0
 40
0
 40
1
 40
1
 40
1
 40
1
 10
440.474560
 20
111.233070
 30
0.0
 10
440.474555
 20
110.413904
 30
0.0
 10
441.131737
 20
109.746226
 30
0.0
 10
441.950800
 20
109.733250
 30
0.0
  0
LINE
  5
192
100
AcDbEntity
  8
Layer_1
 62
1
100
AcDbLine
 10
441.950800
 20
121.077100
 30
0.0
 11
442.923200
 21
121.092500
 31
0.0
  0
SPLINE
  5
193
100
AcDbEntity
  8
Layer_1
 62
1
100
AcDbSpline
 70
8
 71
3
 72
8
 73
4
 74
0
 40
0
 40
0
 40
0
 40
0
 40
1
 40
1
 40
1
 40
1
 10
441.950800
 20
121.077100
 30
0.0
 10
441.131737
 20
121.064124
 30
0.0
 10
440.474555
 20
120.396446
 30
0.0
 10
440.474560
 20
119.577280
 30
0.0
  0
SPLINE
  5
194
100
AcDbEntity
  8
Layer_1
 62
1
100
AcDbSpline
 70
8
 71
3
 72
8
 73
4
 74
0
 40
0
 40
0
 40
0
 40
0
 40
1
 40
1
 40
1
 40
1
 10
435.366110
 20
109.705180
 30
0.0
 10
435.365099
 20
109.418697
 30
0.0
 10
435.517356
 20
109.153542
 30
0.0
 10
435.765290
 20
109.010008
 30
0.0
  0
SPLINE
  5
195
100
AcDbEntity
  8
Layer_1
 62
1
100
AcDbSpline
 70
8
 71
3
 72
8
 73
4
 74
0
 40
0
 40
0
 40
0
 40
0
 40
1
 40
1
 40
1
 40
1
 10
435.765290
 20
109.010008
 30
0.0
 10
436.013225
 20
108.866474
 30
0.0
 10
436.318985
 20
108.866474
 30
0.0
 10
436.566920
 20
109.010008
 30
0.0
  0
SPLINE
  5
196
100
AcDbEntity
  8
Layer_1
 62
1
100
AcDbSpline
 70
8
 71
3
 72
8
 73
4
 74
0
 40
0
 40
0
 40
0
 40
0
 40
1
 40
1
 40
1
 40
1
 10
436.566920
 20
109.010008
 30
0.0
 10
436.814854
 20
109.153542
 30
0.0
 10
436.967111
 20
109.418697
 30
0.0
 10
436.966100
 20
109.705180
 30
0.0
  0
SPLINE
  5
197
100
AcDbEntity
  8
Layer_1
 62
1
100
AcDbSpline
 70
8
 71
3
 72
8
 73
4
 74
0
 40
0
 40
0
 40
0
 40
0
 40
1
 40
1
 40
1
 40
1
 10
436.966100
 20
109.705180
 30
0.0
 10
436.967111
 20
109.991663
 30
0.0
 10
436.814854
 20
110.256818
 30
0.0
 10
436.566920
 20
110.400352
 30
0.0
  0
SPLINE
  5
198
100
AcDbEntity
  8
Layer_1
 62
1
100
AcDbSpline
 70
8
 71
3
 72
8
 73
4
 74
0
 40
0
 40
0
 40
0
 40
0
 40
1
 40
1
 40
1
 40
1
 10
436.566920
 20
110.400352
 30
0.0
 10
436.318985
 20
110.543886
 30
0.0
 10
436.013225
 20
110.543886
 30
0.0
 10
435.765290
 20
110.400352
 30
0.0
  0
SPLINE
  5
199
100
AcDbEntity
  8
Layer_1
 62
1
100
AcDbSpline
 70
8
 71
3
 72
8
 73
4
 74
0
 40
0
 40
0
 40
0
 40
0
 40
1
 40
1
 40
1
 40
1
 10
435.765290
 20
110.400352
 30
0.0
 10
435.517356
 20
110.256818
 30
0.0
 10
435.365099
 20
109.991663
 30
0.0
 10
435.366110
 20
109.705180
 30
0.0
  0
LINE
  5
19a
100
AcDbEntity
  8
Layer_1
 62
1
100
AcDbLine
 10
435.366110
 20
109.705180
 30
0.0
 11
435.366110
 21
109.705180
 31
0.0
  0
SPLINE
  5
19b
100
AcDbEntity
  8
Layer_1
 62
1
100
AcDbSpline
 70
8
 71
3
 72
8
 73
4
 74
0
 40
0
 40
0
 40
0
 40
0
 40
1
 40
1
 40
1
 40
1
 10
435.366110
 20
121.105170
 30
0.0
 10
435.365099
 20
120.818687
 30
0.0
 10
435.517356
 20
120.553532
 30
0.0
 10
435.765290
 20
120.409998
 30
0.0
  0
SPLINE
  5
19c
100
AcDbEntity
  8
Layer_1
 62
1
100
AcDbSpline
 70
8
 71
3
 72
8
 73
4
 74
0
 40
0
 40
0
 40
0
 40
0
 40
1
 40
1
 40
1
 40
1
 10
435.765290
 20
120.409998
 30
0.0
 10
436.013225
 20
120.266464
 30
0.0
 10
436.318985
 20
120.266464
 30
0.0
 10
436.566920
 20
120.409998
 30
0.0
  0
SPLINE
  5
19d
100
AcDbEntity
  8
Layer_1
 62
1
100
AcDbSpline
 70
8
 71
3
 72
8
 73
4
 74
0
 40
0
 40
0
 40
0
 40
0
 40
1
 40
1
 40
1
 40
1
 10
436.566920
 20
120.409998
 30
0.0
 10
436.814854
 20
120.553532
 30
0.0
 10
436.967111
 20
120.818687
 30
0.0
 10
436.966100
 20
121.105170
 30
0.0
  0
SPLINE
  5
19e
100
AcDbEntity
  8
Layer_1
 62
1
100
AcDbSpline
 70
8
 71
3
 72
8
 73
4
 74
0
 40
0
 40
0
 40
0
 40
0
 40
1
 40
1
 40
1
 40
1
 10
436.966100
 20
121.105170
 30
0.0
 10
436.967111
 20
121.391653
 30
0.0
 10
436.814854
 20
121.656808
 30
0.0
 10
436.566920
 20
121.800342
 30
0.0
  0
SPLINE
  5
19f
100
AcDbEntity
  8
Layer_1
 62
1
100
AcDbSpline
 70
8
 71
3
 72
8
 73
4
 74
0
 40
0
 40
0
 40
0
 40
0
 40
1
 40
1
 40
1
 40
1
 10
436.566920
 20
121.800342
 30
0.0
 10
436.318985
 20
121.943876
 30
0.0
 10
436.013225
 20
121.943876
 30
0.0
 10
435.765290
 20
121.800342
 30
0.0
  0
SPLINE
  5
1a0
100
AcDbEntity
  8
Layer_1
 62
1
100
AcDbSpline
 70
8
 71
3
 72
8
 73
4
 74
0
 40
0
 40
0
 40
0
 40
0
 40
1
 40
1
 40
1
 40
1
 10
435.765290
 20
121.800342
 30
0.0
 10
435.517356
 20
121.656808
 30
0.0
 10
435.365099
 20
121.391653
 30
0.0
 10
435.366110
 20
121.105170
 30
0.0
  0
LINE
  5
1a1
100
AcDbEntity
  8
Layer_1
 62
1
100
AcDbLine
 10
435.366110
 20
121.105170
 30
0.0
 11
435.366110
 21
121.105170
 31
0.0
  0
LINE
  5
1a2
100
AcDbEntity
  8
Layer_1
 62
1
100
AcDbLine
 10
435.366220
 20
109.717850
 30
0.0
 11
434.393820
 21
109.733250
 31
0.0
  0
LINE
  5
1a3
100
AcDbEntity
  8
Layer_1
 62
1
100
AcDbLine
 10
432.917580
 20
111.233070
 30
0.0
 11
432.917580
 21
119.577280
 31
0.0
  0
SPLINE
  5
1a4
100
AcDbEntity
  8
Layer_1
 62
1
100
AcDbSpline
 70
8
 71
3
 72
8
 73
4
 74
0
 40
0
 40
0
 40
0
 40
0
 40
1
 40
1
 40
1
 40
1
 10
432.917580
 20
111.233070
 30
0.0
 10
432.917575
 20
110.413904
 30
0.0
 10
433.574757
 20
109.746226
 30
0.0
 10
434.393820
 20
109.733250
 30
0.0
  0
LINE
  5
1a5
100
AcDbEntity
  8
Layer_1
 62
1
100
AcDbLine
 10
434.393820
 20
121.077100
 30
0.0
 11
435.366220
 21
121.092500
 31
0.0
  0
SPLINE
  5
1a6
100
AcDbEntity
  8
Layer_1
 62
1
100
AcDbSpline
 70
8
 71
3
 72
8
 73
4
 74
0
 40
0
 40
0
 40
0
 40
0
 40
1
 40
1
 40
1
 40
1
 10
434.393820
 20
121.077100
 30
0.0
 10
433.574757
 20
121.064124
 30
0.0
 10
432.917575
 20
120.396446
 30
0.0
 10
432.917580
 20
119.577280
 30
0.0
  0
SPLINE
  5
1a7
100
AcDbEntity
  8
Layer_1
 62
1
100
AcDbSpline
 70
8
 71
3
 72
8
 73
4
 74
0
 40
0
 40
0
 40
0
 40
0
 40
1
 40
1
 40
1
 40
1
 10
427.809140
 20
109.705180
 30
0.0
 10
427.808052
 20
109.418646
 30
0.0
 10
427.960291
 20
109.153410
 30
0.0
 10
428.208258
 20
109.009828
 30
0.0
  0
SPLINE
  5
1a8
100
AcDbEntity
  8
Layer_1
 62
1
100
AcDbSpline
 70
8
 71
3
 72
8
 73
4
 74
0
 40
0
 40
0
 40
0
 40
0
 40
1
 40
1
 40
1
 40
1
 10
428.208258
 20
109.009828
 30
0.0
 10
428.456224
 20
108.866245
 30
0.0
 10
428.762046
 20
108.866245
 30
0.0
 10
429.010012
 20
109.009828
 30
0.0
  0
SPLINE
  5
1a9
100
AcDbEntity
  8
Layer_1
 62
1
100
AcDbSpline
 70
8
 71
3
 72
8
 73
4
 74
0
 40
0
 40
0
 40
0
 40
0
 40
1
 40
1
 40
1
 40
1
 10
429.010012
 20
109.009828
 30
0.0
 10
429.257979
 20
109.153410
 30
0.0
 10
429.410218
 20
109.418646
 30
0.0
 10
429.409130
 20
109.705180
 30
0.0
  0
SPLINE
  5
1aa
100
AcDbEntity
  8
Layer_1
 62
1
100
AcDbSpline
 70
8
 71
3
 72
8
 73
4
 74
0
 40
0
 40
0
 40
0
 40
0
 40
1
 40
1
 40
1
 40
1
 10
429.409130
 20
109.705180
 30
0.0
 10
429.410218
 20
109.991714
 30
0.0
 10
429.257979
 20
110.256950
 30
0.0
 10
429.010012
 20
110.400532
 30
0.0
  0
SPLINE
  5
1ab
100
AcDbEntity
  8
Layer_1
 62
1
100
AcDbSpline
 70
8
 71
3
 72
8
 73
4
 74
0
 40
0
 40
0
 40
0
 40
0
 40
1
 40
1
 40
1
 40
1
 10
429.010012
 20
110.400532
 30
0.0
 10
428.762046
 20
110.544115
 30
0.0
 10
428.456224
 20
110.544115
 30
0.0
 10
428.208258
 20
110.400532
 30
0.0
  0
SPLINE
  5
1ac
100
AcDbEntity
  8
Layer_1
 62
1
100
AcDbSpline
 70
8
 71
3
 72
8
 73
4
 74
0
 40
0
 40
0
 40
0
 40
0
 40
1
 40
1
 40
1
 40
1
 10
428.208258
 20
110.400532
 30
0.0
 10
427.960291
 20
110.256950
 30
0.0
 10
427.808052
 20
109.991714
 30
0.0
 10
427.809140
 20
109.705180
 30
0.0
  0
LINE
  5
1ad
100
AcDbEntity
  8
Layer_1
 62
1
100
AcDbLine
 10
427.809140
 20
109.705180
 30
0.0
 11
427.809140
 21
109.705180
 31
0.0
  0
SPLINE
  5
1ae
100
AcDbEntity
  8
Layer_1
 62
1
100
AcDbSpline
 70
8
 71
3
 72
8
 73
4
 74
0
 40
0
 40
0
 40
0
 40
0
 40
1
 40
1
 40
1
 40
1
 10
427.809140
 20
121.105170
 30
0.0
 10
427.808052
 20
120.818636
 30
0.0
 10
427.960291
 20
120.553400
 30
0.0
 10
428.208258
 20
120.409818
 30
0.0
  0
SPLINE
  5
1af
100
AcDbEntity
  8
Layer_1
 62
1
100
AcDbSpline
 70
8
 71
3
 72
8
 73
4
 74
0
 40
0
 40
0
 40
0
 40
0
 40
1
 40
1
 40
1
 40
1
 10
428.208258
 20
120.409818
 30
0.0
 10
428.456224
 20
120.266235
 30
0.0
 10
428.762046
 20
120.266235
 30
0.0
 10
429.010012
 20
120.409818
 30
0.0
  0
SPLINE
  5
1b0
100
AcDbEntity
  8
Layer_1
 62
1
100
AcDbSpline
 70
8
 71
3
 72
8
 73
4
 74
0
 40
0
 40
0
 40
0
 40
0
 40
1
 40
1
 40
1
 40
1
 10
429.010012
 20
120.409818
 30
0.0
 10
429.257979
 20
120.553400
 30
0.0
 10
429.410218
 20
120.818636
 30
0.0
 10
429.409130
 20
121.105170
 30
0.0
  0
SPLINE
  5
1b1
100
AcDbEntity
  8
Layer_1
 62
1
100
AcDbSpline
 70
8
 71
3
 72
8
 73
4
 74
0
 40
0
 40
0
 40
0
 40
0
 40
1
 40
1
 40
1
 40
1
 10
429.409130
 20
121.105170
 30
0.0
 10
429.410218
 20
121.391704
 30
0.0
 10
429.257979
 20
121.656940
 30
0.0
 10
429.010012
 20
121.800522
 30
0.0
  0
SPLINE
  5
1b2
100
AcDbEntity
  8
Layer_1
 62
1
100
AcDbSpline
 70
8
 71
3
 72
8
 73
4
 74
0
 40
0
 40
0
 40
0
 40
0
 40
1
 40
1
 40
1
 40
1
 10
429.010012
 20
121.800522
 30
0.0
 10
428.762046
 20
121.944105
 30
0.0
 10
428.456224
 20
121.944105
 30
0.0
 10
428.208258
 20
121.800522
 30
0.0
  0
SPLINE
  5
1b3
100
AcDbEntity
  8
Layer_1
 62
1
100
AcDbSpline
 70
8
 71
3
 72
8
 73
4
 74
0
 40
0
 40
0
 40
0
 40
0
 40
1
 40
1
 40
1
 40
1
 10
428.208258
 20
121.800522
 30
0.0
 10
427.960291
 20
121.656940
 30
0.0
 10
427.808052
 20
121.391704
 30
0.0
 10
427.809140
 20
121.105170
 30
0.0
  0
LINE
  5
1b4
100
AcDbEntity
  8
Layer_1
 62
1
100
AcDbLine
 10
427.809140
 20
121.105170
 30
0.0
 11
427.809140
 21
121.105170
 31
0.0
  0
LINE
  5
1b5
100
AcDbEntity
  8
Layer_1
 62
1
100
AcDbLine
 10
427.809240
 20
109.717850
 30
0.0
 11
426.836850
 21
109.733250
 31
0.0
  0
LINE
  5
1b6
100
AcDbEntity
  8
Layer_1
 62
1
100
AcDbLine
 10
425.360600
 20
111.233070
 30
0.0
 11
425.360600
 21
119.577280
 31
0.0
  0
SPLINE
  5
1b7
100
AcDbEntity
  8
Layer_1
 62
1
100
AcDbSpline
 70
8
 71
3
 72
8
 73
4
 74
0
 40
0
 40
0
 40
0
 40
0
 40
1
 40
1
 40
1
 40
1
 10
425.360600
 20
111.233070
 30
0.0
 10
425.360596
 20
110.413900
 30
0.0
 10
426.017783
 20
109.746220
 30
0.0
 10
426.836850
 20
109.733250
 30
0.0
  0
LINE
  5
1b8
100
AcDbEntity
  8
Layer_1
 62
1
100
AcDbLine
 10
426.836850
 20
121.077100
 30
0.0
 11
427.809240
 21
121.092500
 31
0.0
  0
SPLINE
  5
1b9
100
AcDbEntity
  8
Layer_1
 62
1
100
AcDbSpline
 70
8
 71
3
 72
8
 73
4
 74
0
 40
0
 40
0
 40
0
 40
0
 40
1
 40
1
 40
1
 40
1
 10
426.836850
 20
121.077100
 30
0.0
 10
426.017783
 20
121.064130
 30
0.0
 10
425.360596
 20
120.396450
 30
0.0
 10
425.360600
 20
119.577280
 30
0.0
  0
SPLINE
  5
1ba
100
AcDbEntity
  8
Layer_1
 62
1
100
AcDbSpline
 70
8
 71
3
 72
8
 73
4
 74
0
 40
0
 40
0
 40
0
 40
0
 40
1
 40
1
 40
1
 40
1
 10
420.252160
 20
109.705180
 30
0.0
 10
420.251072
 20
109.418646
 30
0.0
 10
420.403311
 20
109.153410
 30
0.0
 10
420.651278
 20
109.009828
 30
0.0
  0
SPLINE
  5
1bb
100
AcDbEntity
  8
Layer_1
 62
1
100
AcDbSpline
 70
8
 71
3
 72
8
 73
4
 74
0
 40
0
 40
0
 40
0
 40
0
 40
1
 40
1
 40
1
 40
1
 10
420.651278
 20
109.009828
 30
0.0
 10
420.899244
 20
108.866245
 30
0.0
 10
421.205066
 20
108.866245
 30
0.0
 10
421.453032
 20
109.009828
 30
0.0
  0
SPLINE
  5
1bc
100
AcDbEntity
  8
Layer_1
 62
1
100
AcDbSpline
 70
8
 71
3
 72
8
 73
4
 74
0
 40
0
 40
0
 40
0
 40
0
 40
1
 40
1
 40
1
 40
1
 10
421.453032
 20
109.009828
 30
0.0
 10
421.700999
 20
109.153410
 30
0.0
 10
421.853238
 20
109.418646
 30
0.0
 10
421.852150
 20
109.705180
 30
0.0
  0
SPLINE
  5
1bd
100
AcDbEntity
  8
Layer_1
 62
1
100
AcDbSpline
 70
8
 71
3
 72
8
 73
4
 74
0
 40
0
 40
0
 40
0
 40
0
 40
1
 40
1
 40
1
 40
1
 10
421.852150
 20
109.705180
 30
0.0
 10
421.853238
 20
109.991714
 30
0.0
 10
421.700999
 20
110.256950
 30
0.0
 10
421.453032
 20
110.400532
 30
0.0
  0
SPLINE
  5
1be
100
AcDbEntity
  8
Layer_1
 62
1
100
AcDbSpline
 70
8
 71
3
 72
8
 73
4
 74
0
 40
0
 40
0
 40
0
 40
0
 40
1
 40
1
 40
1
 40
1
 10
421.453032
 20
110.400532
 30
0.0
 10
421.205066
 20
110.544115
 30
0.0
 10
420.899244
 20
110.544115
 30
0.0
 10
420.651278
 20
110.400532
 30
0.0
  0
SPLINE
  5
1bf
100
AcDbEntity
  8
Layer_1
 62
1
100
AcDbSpline
 70
8
 71
3
 72
8
 73
4
 74
0
 40
0
 40
0
 40
0
 40
0
 40
1
 40
1
 40
1
 40
1
 10
420.651278
 20
110.400532
 30
0.0
 10
420.403311
 20
110.256950
 30
0.0
 10
420.251072
 20
109.991714
 30
0.0
 10
420.252160
 20
109.705180
 30
0.0
  0
LINE
  5
1c0
100
AcDbEntity
  8
Layer_1
 62
1
100
AcDbLine
 10
420.252160
 20
109.705180
 30
0.0
 11
420.252160
 21
109.705180
 31
0.0
  0
SPLINE
  5
1c1
100
AcDbEntity
  8
Layer_1
 62
1
100
AcDbSpline
 70
8
 71
3
 72
8
 73
4
 74
0
 40
0
 40
0
 40
0
 40
0
 40
1
 40
1
 40
1
 40
1
 10
420.252160
 20
121.105170
 30
0.0
 10
420.251072
 20
120.818636
 30
0.0
 10
420.403311
 20
120.553400
 30
0.0
 10
420.651278
 20
120.409818
 30
0.0
  0
SPLINE
  5
1c2
100
AcDbEntity
  8
Layer_1
 62
1
100
AcDbSpline
 70
8
 71
3
 72
8
 73
4
 74
0
 40
0
 40
0
 40
0
 40
0
 40
1
 40
1
 40
1
 40
1
 10
420.651278
 20
120.409818
 30
0.0
 10
420.899244
 20
120.266235
 30
0.0
 10
421.205066
 20
120.266235
 30
0.0
 10
421.453032
 20
120.409818
 30
0.0
  0
SPLINE
  5
1c3
100
AcDbEntity
  8
Layer_1
 62
1
100
AcDbSpline
 70
8
 71
3
 72
8
 73
4
 74
0
 40
0
 40
0
 40
0
 40
0
 40
1
 40
1
 40
1
 40
1
 10
421.453032
 20
120.409818
 30
0.0
 10
421.700999
 20
120.553400
 30
0.0
 10
421.853238
 20
120.818636
 30
0.0
 10
421.852150
 20
121.105170
 30
0.0
  0
SPLINE
  5
1c4
100
AcDbEntity
  8
Layer_1
 62
1
100
AcDbSpline
 70
8
 71
3
 72
8
 73
4
 74
0
 40
0
 40
0
 40
0
 40
0
 40
1
 40
1
 40
1
 40
1
 10
421.852150
 20
121.105170
 30
0.0
 10
421.853238
 20
121.391704
 30
0.0
 10
421.700999
 20
121.656940
 30
0.0
 10
421.453032
 20
121.800522
 30
0.0
  0
SPLINE
  5
1c5
100
AcDbEntity
  8
Layer_1
 62
1
100
AcDbSpline
 70
8
 71
3
 72
8
 73
4
 74
0
 40
0
 40
0
 40
0
 40
0
 40
1
 40
1
 40
1
 40
1
 10
421.453032
 20
121.800522
 30
0.0
 10
421.205066
 20
121.944105
 30
0.0
 10
420.899244
 20
121.944105
 30
0.0
 10
420.651278
 20
121.800522
 30
0.0
  0
SPLINE
  5
1c6
100
AcDbEntity
  8
Layer_1
 62
1
100
AcDbSpline
 70
8
 71
3
 72
8
 73
4
 74
0
 40
0
 40
0
 40
0
 40
0
 40
1
 40
1
 40
1
 40
1
 10
420.651278
 20
121.800522
 30
0.0
 10
420.403311
 20
121.656940
 30
0.0
 10
420.251072
 20
121.391704
 30
0.0
 10
420.252160
 20
121.105170
 30
0.0
  0
LINE
  5
1c7
100
AcDbEntity
  8
Layer_1
 62
1
100
AcDbLine
 10
420.252160
 20
121.105170
 30
0.0
 11
420.252160
 21
121.105170
 31
0.0
  0
LINE
  5
1c8
100
AcDbEntity
  8
Layer_1
 62
1
100
AcDbLine
 10
420.252240
 20
109.717850
 30
0.0
 11
419.279870
 21
109.733250
 31
0.0
  0
LINE
  5
1c9
100
AcDbEntity
  8
Layer_1
 62
1
100
AcDbLine
 10
417.803630
 20
111.233070
 30
0.0
 11
417.803630
 21
119.577280
 31
0.0
  0
SPLINE
  5
1ca
100
AcDbEntity
  8
Layer_1
 62
1
100
AcDbSpline
 70
8
 71
3
 72
8
 73
4
 74
0
 40
0
 40
0
 40
0
 40
0
 40
1
 40
1
 40
1
 40
1
 10
417.803630
 20
111.233070
 30
0.0
 10
417.803625
 20
110.413904
 30
0.0
 10
418.460807
 20
109.746226
 30
0.0
 10
419.279870
 20
109.733250
 30
0.0
  0
LINE
  5
1cb
100
AcDbEntity
  8
Layer_1
 62
1
100
AcDbLine
 10
419.279870
 20
121.077100
 30
0.0
 11
420.252240
 21
121.092500
 31
0.0
  0
SPLINE
  5
1cc
100
AcDbEntity
  8
Layer_1
 62
1
100
AcDbSpline
 70
8
 71
3
 72
8
 73
4
 74
0
 40
0
 40
0
 40
0
 40
0
 40
1
 40
1
 40
1
 40
1
 10
419.279870
 20
121.077100
 30
0.0
 10
418.460807
 20
121.064124
 30
0.0
 10
417.803625
 20
120.396446
 30
0.0
 10
417.803630
 20
119.577280
 30
0.0
  0
SPLINE
  5
1cd
100
AcDbEntity
  8
Layer_1
 62
1
100
AcDbSpline
 70
8
 71
3
 72
8
 73
4
 74
0
 40
0
 40
0
 40
0
 40
0
 40
1
 40
1
 40
1
 40
1
 10
412.695190
 20
109.705180
 30
0.0
 10
412.693758
 20
109.418419
 30
0.0
 10
412.845921
 20
109.152826
 30
0.0
 10
413.094027
 20
109.009031
 30
0.0
  0
SPLINE
  5
1ce
100
AcDbEntity
  8
Layer_1
 62
1
100
AcDbSpline
 70
8
 71
3
 72
8
 73
4
 74
0
 40
0
 40
0
 40
0
 40
0
 40
1
 40
1
 40
1
 40
1
 10
413.094027
 20
109.009031
 30
0.0
 10
413.342133
 20
108.865235
 30
0.0
 10
413.648227
 20
108.865235
 30
0.0
 10
413.896333
 20
109.009031
 30
0.0
  0
SPLINE
  5
1cf
100
AcDbEntity
  8
Layer_1
 62
1
100
AcDbSpline
 70
8
 71
3
 72
8
 73
4
 74
0
 40
0
 40
0
 40
0
 40
0
 40
1
 40
1
 40
1
 40
1
 10
413.896333
 20
109.009031
 30
0.0
 10
414.144439
 20
109.152826
 30
0.0
 10
414.296602
 20
109.418419
 30
0.0
 10
414.295170
 20
109.705180
 30
0.0
  0
SPLINE
  5
1d0
100
AcDbEntity
  8
Layer_1
 62
1
100
AcDbSpline
 70
8
 71
3
 72
8
 73
4
 74
0
 40
0
 40
0
 40
0
 40
0
 40
1
 40
1
 40
1
 40
1
 10
414.295170
 20
109.705180
 30
0.0
 10
414.296602
 20
109.991941
 30
0.0
 10
414.144439
 20
110.257534
 30
0.0
 10
413.896333
 20
110.401329
 30
0.0
  0
SPLINE
  5
1d1
100
AcDbEntity
  8
Layer_1
 62
1
100
AcDbSpline
 70
8
 71
3
 72
8
 73
4
 74
0
 40
0
 40
0
 40
0
 40
0
 40
1
 40
1
 40
1
 40
1
 10
413.896333
 20
110.401329
 30
0.0
 10
413.648227
 20
110.545125
 30
0.0
 10
413.342133
 20
110.545125
 30
0.0
 10
413.094027
 20
110.401329
 30
0.0
  0
SPLINE
  5
1d2
100
AcDbEntity
  8
Layer_1
 62
1
100
AcDbSpline
 70
8
 71
3
 72
8
 73
4
 74
0
 40
0
 40
0
 40
0
 40
0
 40
1
 40
1
 40
1
 40
1
 10
413.094027
 20
110.401329
 30
0.0
 10
412.845921
 20
110.257534
 30
0.0
 10
412.693758
 20
109.991941
 30
0.0
 10
412.695190
 20
109.705180
 30
0.0
  0
LINE
  5
1d3
100
AcDbEntity
  8
Layer_1
 62
1
100
AcDbLine
 10
412.695190
 20
109.705180
 30
0.0
 11
412.695190
 21
109.705180
 31
0.0
  0
SPLINE
  5
1d4
100
AcDbEntity
  8
Layer_1
 62
1
100
AcDbSpline
 70
8
 71
3
 72
8
 73
4
 74
0
 40
0
 40
0
 40
0
 40
0
 40
1
 40
1
 40
1
 40
1
 10
412.695190
 20
121.105170
 30
0.0
 10
412.693758
 20
120.818409
 30
0.0
 10
412.845921
 20
120.552816
 30
0.0
 10
413.094027
 20
120.409021
 30
0.0
  0
SPLINE
  5
1d5
100
AcDbEntity
  8
Layer_1
 62
1
100
AcDbSpline
 70
8
 71
3
 72
8
 73
4
 74
0
 40
0
 40
0
 40
0
 40
0
 40
1
 40
1
 40
1
 40
1
 10
413.094027
 20
120.409021
 30
0.0
 10
413.342133
 20
120.265225
 30
0.0
 10
413.648227
 20
120.265225
 30
0.0
 10
413.896333
 20
120.409021
 30
0.0
  0
SPLINE
  5
1d6
100
AcDbEntity
  8
Layer_1
 62
1
100
AcDbSpline
 70
8
 71
3
 72
8
 73
4
 74
0
 40
0
 40
0
 40
0
 40
0
 40
1
 40
1
 40
1
 40
1
 10
413.896333
 20
120.409021
 30
0.0
 10
414.144439
 20
120.552816
 30
0.0
 10
414.296602
 20
120.818409
 30
0.0
 10
414.295170
 20
121.105170
 30
0.0
  0
SPLINE
  5
1d7
100
AcDbEntity
  8
Layer_1
 62
1
100
AcDbSpline
 70
8
 71
3
 72
8
 73
4
 74
0
 40
0
 40
0
 40
0
 40
0
 40
1
 40
1
 40
1
 40
1
 10
414.295170
 20
121.105170
 30
0.0
 10
414.296602
 20
121.391931
 30
0.0
 10
414.144439
 20
121.657524
 30
0.0
 10
413.896333
 20
121.801319
 30
0.0
  0
SPLINE
  5
1d8
100
AcDbEntity
  8
Layer_1
 62
1
100
AcDbSpline
 70
8
 71
3
 72
8
 73
4
 74
0
 40
0
 40
0
 40
0
 40
0
 40
1
 40
1
 40
1
 40
1
 10
413.896333
 20
121.801319
 30
0.0
 10
413.648227
 20
121.945115
 30
0.0
 10
413.342133
 20
121.945115
 30
0.0
 10
413.094027
 20
121.801319
 30
0.0
  0
SPLINE
  5
1d9
100
AcDbEntity
  8
Layer_1
 62
1
100
AcDbSpline
 70
8
 71
3
 72
8
 73
4
 74
0
 40
0
 40
0
 40
0
 40
0
 40
1
 40
1
 40
1
 40
1
 10
413.094027
 20
121.801319
 30
0.0
 10
412.845921
 20
121.657524
 30
0.0
 10
412.693758
 20
121.391931
 30
0.0
 10
412.695190
 20
121.105170
 30
0.0
  0
LINE
  5
1da
100
AcDbEntity
  8
Layer_1
 62
1
100
AcDbLine
 10
412.695190
 20
121.105170
 30
0.0
 11
412.695190
 21
121.105170
 31
0.0
  0
LINE
  5
1db
100
AcDbEntity
  8
Layer_1
 62
1
100
AcDbLine
 10
412.695260
 20
109.717850
 30
0.0
 11
411.722870
 21
109.733250
 31
0.0
  0
LINE
  5
1dc
100
AcDbEntity
  8
Layer_1
 62
1
100
AcDbLine
 10
410.246650
 20
111.233070
 30
0.0
 11
410.246650
 21
119.577280
 31
0.0
  0
SPLINE
  5
1dd
100
AcDbEntity
  8
Layer_1
 62
1
100
AcDbSpline
 70
8
 71
3
 72
8
 73
4
 74
0
 40
0
 40
0
 40
0
 40
0
 40
1
 40
1
 40
1
 40
1
 10
410.246650
 20
111.233070
 30
0.0
 10
410.246645
 20
110.413911
 30
0.0
 10
410.903814
 20
109.746236
 30
0.0
 10
411.722870
 20
109.733250
 30
0.0
  0
LINE
  5
1de
100
AcDbEntity
  8
Layer_1
 62
1
100
AcDbLine
 10
411.722870
 20
121.077100
 30
0.0
 11
412.695260
 21
121.092500
 31
0.0
  0
SPLINE
  5
1df
100
AcDbEntity
  8
Layer_1
 62
1
100
AcDbSpline
 70
8
 71
3
 72
8
 73
4
 74
0
 40
0
 40
0
 40
0
 40
0
 40
1
 40
1
 40
1
 40
1
 10
411.722870
 20
121.077100
 30
0.0
 10
410.903814
 20
121.064114
 30
0.0
 10
410.246645
 20
120.396439
 30
0.0
 10
410.246650
 20
119.577280
 30
0.0
  0
SPLINE
  5
1e0
100
AcDbEntity
  8
Layer_1
 62
1
100
AcDbSpline
 70
8
 71
3
 72
8
 73
4
 74
0
 40
0
 40
0
 40
0
 40
0
 40
1
 40
1
 40
1
 40
1
 10
405.138180
 20
109.705180
 30
0.0
 10
405.138180
 20
109.419364
 30
0.0
 10
405.290661
 20
109.155259
 30
0.0
 10
405.538185
 20
109.012351
 30
0.0
  0
SPLINE
  5
1e1
100
AcDbEntity
  8
Layer_1
 62
1
100
AcDbSpline
 70
8
 71
3
 72
8
 73
4
 74
0
 40
0
 40
0
 40
0
 40
0
 40
1
 40
1
 40
1
 40
1
 10
405.538185
 20
109.012351
 30
0.0
 10
405.785709
 20
108.869443
 30
0.0
 10
406.090671
 20
108.869443
 30
0.0
 10
406.338195
 20
109.012351
 30
0.0
  0
SPLINE
  5
1e2
100
AcDbEntity
  8
Layer_1
 62
1
100
AcDbSpline
 70
8
 71
3
 72
8
 73
4
 74
0
 40
0
 40
0
 40
0
 40
0
 40
1
 40
1
 40
1
 40
1
 10
406.338195
 20
109.012351
 30
0.0
 10
406.585719
 20
109.155259
 30
0.0
 10
406.738200
 20
109.419364
 30
0.0
 10
406.738200
 20
109.705180
 30
0.0
  0
SPLINE
  5
1e3
100
AcDbEntity
  8
Layer_1
 62
1
100
AcDbSpline
 70
8
 71
3
 72
8
 73
4
 74
0
 40
0
 40
0
 40
0
 40
0
 40
1
 40
1
 40
1
 40
1
 10
406.738200
 20
109.705180
 30
0.0
 10
406.738200
 20
109.990996
 30
0.0
 10
406.585719
 20
110.255101
 30
0.0
 10
406.338195
 20
110.398009
 30
0.0
  0
SPLINE
  5
1e4
100
AcDbEntity
  8
Layer_1
 62
1
100
AcDbSpline
 70
8
 71
3
 72
8
 73
4
 74
0
 40
0
 40
0
 40
0
 40
0
 40
1
 40
1
 40
1
 40
1
 10
406.338195
 20
110.398009
 30
0.0
 10
406.090671
 20
110.540917
 30
0.0
 10
405.785709
 20
110.540917
 30
0.0
 10
405.538185
 20
110.398009
 30
0.0
  0
SPLINE
  5
1e5
100
AcDbEntity
  8
Layer_1
 62
1
100
AcDbSpline
 70
8
 71
3
 72
8
 73
4
 74
0
 40
0
 40
0
 40
0
 40
0
 40
1
 40
1
 40
1
 40
1
 10
405.538185
 20
110.398009
 30
0.0
 10
405.290661
 20
110.255101
 30
0.0
 10
405.138180
 20
109.990996
 30
0.0
 10
405.138180
 20
109.705180
 30
0.0
  0
LINE
  5
1e6
100
AcDbEntity
  8
Layer_1
 62
1
100
AcDbLine
 10
405.138180
 20
109.705180
 30
0.0
 11
405.138180
 21
109.705180
 31
0.0
  0
SPLINE
  5
1e7
100
AcDbEntity
  8
Layer_1
 62
1
100
AcDbSpline
 70
8
 71
3
 72
8
 73
4
 74
0
 40
0
 40
0
 40
0
 40
0
 40
1
 40
1
 40
1
 40
1
 10
405.138180
 20
121.105170
 30
0.0
 10
405.138180
 20
120.819354
 30
0.0
 10
405.290661
 20
120.555249
 30
0.0
 10
405.538185
 20
120.412341
 30
0.0
  0
SPLINE
  5
1e8
100
AcDbEntity
  8
Layer_1
 62
1
100
AcDbSpline
 70
8
 71
3
 72
8
 73
4
 74
0
 40
0
 40
0
 40
0
 40
0
 40
1
 40
1
 40
1
 40
1
 10
405.538185
 20
120.412341
 30
0.0
 10
405.785709
 20
120.269433
 30
0.0
 10
406.090671
 20
120.269433
 30
0.0
 10
406.338195
 20
120.412341
 30
0.0
  0
SPLINE
  5
1e9
100
AcDbEntity
  8
Layer_1
 62
1
100
AcDbSpline
 70
8
 71
3
 72
8
 73
4
 74
0
 40
0
 40
0
 40
0
 40
0
 40
1
 40
1
 40
1
 40
1
 10
406.338195
 20
120.412341
 30
0.0
 10
406.585719
 20
120.555249
 30
0.0
 10
406.738200
 20
120.819354
 30
0.0
 10
406.738200
 20
121.105170
 30
0.0
  0
SPLINE
  5
1ea
100
AcDbEntity
  8
Layer_1
 62
1
100
AcDbSpline
 70
8
 71
3
 72
8
 73
4
 74
0
 40
0
 40
0
 40
0
 40
0
 40
1
 40
1
 40
1
 40
1
 10
406.738200
 20
121.105170
 30
0.0
 10
406.738200
 20
121.390986
 30
0.0
 10
406.585719
 20
121.655091
 30
0.0
 10
406.338195
 20
121.797999
 30
0.0
  0
SPLINE
  5
1eb
100
AcDbEntity
  8
Layer_1
 62
1
100
AcDbSpline
 70
8
 71
3
 72
8
 73
4
 74
0
 40
0
 40
0
 40
0
 40
0
 40
1
 40
1
 40
1
 40
1
 10
406.338195
 20
121.797999
 30
0.0
 10
406.090671
 20
121.940907
 30
0.0
 10
405.785709
 20
121.940907
 30
0.0
 10
405.538185
 20
121.797999
 30
0.0
  0
SPLINE
  5
1ec
100
AcDbEntity
  8
Layer_1
 62
1
100
AcDbSpline
 70
8
 71
3
 72
8
 73
4
 74
0
 40
0
 40
0
 40
0
 40
0
 40
1
 40
1
 40
1
 40
1
 10
405.538185
 20
121.797999
 30
0.0
 10
405.290661
 20
121.655091
 30
0.0
 10
405.138180
 20
121.390986
 30
0.0
 10
405.138180
 20
121.105170
 30
0.0
  0
LINE
  5
1ed
100
AcDbEntity
  8
Layer_1
 62
1
100
AcDbLine
 10
405.138180
 20
121.105170
 30
0.0
 11
405.138180
 21
121.105170
 31
0.0
  0
LINE
  5
1ee
100
AcDbEntity
  8
Layer_1
 62
1
100
AcDbLine
 10
405.138290
 20
109.717850
 30
0.0
 11
404.165890
 21
109.733250
 31
0.0
  0
LINE
  5
1ef
100
AcDbEntity
  8
Layer_1
 62
1
100
AcDbLine
 10
402.689680
 20
111.233070
 30
0.0
 11
402.689680
 21
119.577280
 31
0.0
  0
SPLINE
  5
1f0
100
AcDbEntity
  8
Layer_1
 62
1
100
AcDbSpline
 70
8
 71
3
 72
8
 73
4
 74
0
 40
0
 40
0
 40
0
 40
0
 40
1
 40
1
 40
1
 40
1
 10
402.689680
 20
111.233070
 30
0.0
 10
402.689675
 20
110.413915
 30
0.0
 10
403.346838
 20
109.746242
 30
0.0
 10
404.165890
 20
109.733250
 30
0.0
  0
LINE
  5
1f1
100
AcDbEntity
  8
Layer_1
 62
1
100
AcDbLine
 10
404.165890
 20
121.077100
 30
0.0
 11
405.138290
 21
121.092500
 31
0.0
  0
SPLINE
  5
1f2
100
AcDbEntity
  8
Layer_1
 62
1
100
AcDbSpline
 70
8
 71
3
 72
8
 73
4
 74
0
 40
0
 40
0
 40
0
 40
0
 40
1
 40
1
 40
1
 40
1
 10
404.165890
 20
121.077100
 30
0.0
 10
403.346838
 20
121.064108
 30
0.0
 10
402.689675
 20
120.396435
 30
0.0
 10
402.689680
 20
119.577280
 30
0.0
  0
SPLINE
  5
1f3
100
AcDbEntity
  8
Layer_1
 62
1
100
AcDbSpline
 70
8
 71
3
 72
8
 73
4
 74
0
 40
0
 40
0
 40
0
 40
0
 40
1
 40
1
 40
1
 40
1
 10
397.581210
 20
109.705180
 30
0.0
 10
397.580510
 20
109.418900
 30
0.0
 10
397.732837
 20
109.154066
 30
0.0
 10
397.980647
 20
109.010724
 30
0.0
  0
SPLINE
  5
1f4
100
AcDbEntity
  8
Layer_1
 62
1
100
AcDbSpline
 70
8
 71
3
 72
8
 73
4
 74
0
 40
0
 40
0
 40
0
 40
0
 40
1
 40
1
 40
1
 40
1
 10
397.980647
 20
109.010724
 30
0.0
 10
398.228457
 20
108.867381
 30
0.0
 10
398.533973
 20
108.867381
 30
0.0
 10
398.781783
 20
109.010724
 30
0.0
  0
SPLINE
  5
1f5
100
AcDbEntity
  8
Layer_1
 62
1
100
AcDbSpline
 70
8
 71
3
 72
8
 73
4
 74
0
 40
0
 40
0
 40
0
 40
0
 40
1
 40
1
 40
1
 40
1
 10
398.781783
 20
109.010724
 30
0.0
 10
399.029593
 20
109.154066
 30
0.0
 10
399.181920
 20
109.418900
 30
0.0
 10
399.181220
 20
109.705180
 30
0.0
  0
SPLINE
  5
1f6
100
AcDbEntity
  8
Layer_1
 62
1
100
AcDbSpline
 70
8
 71
3
 72
8
 73
4
 74
0
 40
0
 40
0
 40
0
 40
0
 40
1
 40
1
 40
1
 40
1
 10
399.181220
 20
109.705180
 30
0.0
 10
399.181920
 20
109.991460
 30
0.0
 10
399.029593
 20
110.256294
 30
0.0
 10
398.781783
 20
110.399636
 30
0.0
  0
SPLINE
  5
1f7
100
AcDbEntity
  8
Layer_1
 62
1
100
AcDbSpline
 70
8
 71
3
 72
8
 73
4
 74
0
 40
0
 40
0
 40
0
 40
0
 40
1
 40
1
 40
1
 40
1
 10
398.781783
 20
110.399636
 30
0.0
 10
398.533973
 20
110.542979
 30
0.0
 10
398.228457
 20
110.542979
 30
0.0
 10
397.980647
 20
110.399636
 30
0.0
  0
SPLINE
  5
1f8
100
AcDbEntity
  8
Layer_1
 62
1
100
AcDbSpline
 70
8
 71
3
 72
8
 73
4
 74
0
 40
0
 40
0
 40
0
 40
0
 40
1
 40
1
 40
1
 40
1
 10
397.980647
 20
110.399636
 30
0.0
 10
397.732837
 20
110.256294
 30
0.0
 10
397.580510
 20
109.991460
 30
0.0
 10
397.581210
 20
109.705180
 30
0.0
  0
LINE
  5
1f9
100
AcDbEntity
  8
Layer_1
 62
1
100
AcDbLine
 10
397.581210
 20
109.705180
 30
0.0
 11
397.581210
 21
109.705180
 31
0.0
  0
SPLINE
  5
1fa
100
AcDbEntity
  8
Layer_1
 62
1
100
AcDbSpline
 70
8
 71
3
 72
8
 73
4
 74
0
 40
0
 40
0
 40
0
 40
0
 40
1
 40
1
 40
1
 40
1
 10
397.581210
 20
121.105170
 30
0.0
 10
397.580510
 20
120.818890
 30
0.0
 10
397.732837
 20
120.554056
 30
0.0
 10
397.980647
 20
120.410714
 30
0.0
  0
SPLINE
  5
1fb
100
AcDbEntity
  8
Layer_1
 62
1
100
AcDbSpline
 70
8
 71
3
 72
8
 73
4
 74
0
 40
0
 40
0
 40
0
 40
0
 40
1
 40
1
 40
1
 40
1
 10
397.980647
 20
120.410714
 30
0.0
 10
398.228457
 20
120.267371
 30
0.0
 10
398.533973
 20
120.267371
 30
0.0
 10
398.781783
 20
120.410714
 30
0.0
  0
SPLINE
  5
1fc
100
AcDbEntity
  8
Layer_1
 62
1
100
AcDbSpline
 70
8
 71
3
 72
8
 73
4
 74
0
 40
0
 40
0
 40
0
 40
0
 40
1
 40
1
 40
1
 40
1
 10
398.781783
 20
120.410714
 30
0.0
 10
399.029593
 20
120.554056
 30
0.0
 10
399.181920
 20
120.818890
 30
0.0
 10
399.181220
 20
121.105170
 30
0.0
  0
SPLINE
  5
1fd
100
AcDbEntity
  8
Layer_1
 62
1
100
AcDbSpline
 70
8
 71
3
 72
8
 73
4
 74
0
 40
0
 40
0
 40
0
 40
0
 40
1
 40
1
 40
1
 40
1
 10
399.181220
 20
121.105170
 30
0.0
 10
399.181920
 20
121.391450
 30
0.0
 10
399.029593
 20
121.656284
 30
0.0
 10
398.781783
 20
121.799626
 30
0.0
  0
SPLINE
  5
1fe
100
AcDbEntity
  8
Layer_1
 62
1
100
AcDbSpline
 70
8
 71
3
 72
8
 73
4
 74
0
 40
0
 40
0
 40
0
 40
0
 40
1
 40
1
 40
1
 40
1
 10
398.781783
 20
121.799626
 30
0.0
 10
398.533973
 20
121.942969
 30
0.0
 10
398.228457
 20
121.942969
 30
0.0
 10
397.980647
 20
121.799626
 30
0.0
  0
SPLINE
  5
1ff
100
AcDbEntity
  8
Layer_1
 62
1
100
AcDbSpline
 70
8
 71
3
 72
8
 73
4
 74
0
 40
0
 40
0
 40
0
 40
0
 40
1
 40
1
 40
1
 40
1
 10
397.980647
 20
121.799626
 30
0.0
 10
397.732837
 20
121.656284
 30
0.0
 10
397.580510
 20
121.391450
 30
0.0
 10
397.581210
 20
121.105170
 30
0.0
  0
LINE
  5
200
100
AcDbEntity
  8
Layer_1
 62
1
100
AcDbLine
 10
397.581210
 20
121.105170
 30
0.0
 11
397.581210
 21
121.105170
 31
0.0
  0
LINE
  5
201
100
AcDbEntity
  8
Layer_1
 62
1
100
AcDbLine
 10
397.581310
 20
109.717850
 30
0.0
 11
396.608920
 21
109.733250
 31
0.0
  0
LINE
  5
202
100
AcDbEntity
  8
Layer_1
 62
1
100
AcDbLine
 10
395.132670
 20
111.233070
 30
0.0
 11
395.132670
 21
119.577280
 31
0.0
  0
SPLINE
  5
203
100
AcDbEntity
  8
Layer_1
 62
1
100
AcDbSpline
 70
8
 71
3
 72
8
 73
4
 74
0
 40
0
 40
0
 40
0
 40
0
 40
1
 40
1
 40
1
 40
1
 10
395.132670
 20
111.233070
 30
0.0
 10
395.132666
 20
110.413900
 30
0.0
 10
395.789853
 20
109.746220
 30
0.0
 10
396.608920
 20
109.733250
 30
0.0
  0
LINE
  5
204
100
AcDbEntity
  8
Layer_1
 62
1
100
AcDbLine
 10
396.608920
 20
121.077100
 30
0.0
 11
397.581310
 21
121.092500
 31
0.0
  0
SPLINE
  5
205
100
AcDbEntity
  8
Layer_1
 62
1
100
AcDbSpline
 70
8
 71
3
 72
8
 73
4
 74
0
 40
0
 40
0
 40
0
 40
0
 40
1
 40
1
 40
1
 40
1
 10
396.608920
 20
121.077100
 30
0.0
 10
395.789853
 20
121.064130
 30
0.0
 10
395.132666
 20
120.396450
 30
0.0
 10
395.132670
 20
119.577280
 30
0.0
  0
SPLINE
  5
206
100
AcDbEntity
  8
Layer_1
 62
1
100
AcDbSpline
 70
8
 71
3
 72
8
 73
4
 74
0
 40
0
 40
0
 40
0
 40
0
 40
1
 40
1
 40
1
 40
1
 10
390.024230
 20
109.705180
 30
0.0
 10
390.023142
 20
109.418646
 30
0.0
 10
390.175381
 20
109.153410
 30
0.0
 10
390.423348
 20
109.009828
 30
0.0
  0
SPLINE
  5
207
100
AcDbEntity
  8
Layer_1
 62
1
100
AcDbSpline
 70
8
 71
3
 72
8
 73
4
 74
0
 40
0
 40
0
 40
0
 40
0
 40
1
 40
1
 40
1
 40
1
 10
390.423348
 20
109.009828
 30
0.0
 10
390.671314
 20
108.866245
 30
0.0
 10
390.977136
 20
108.866245
 30
0.0
 10
391.225102
 20
109.009828
 30
0.0
  0
SPLINE
  5
208
100
AcDbEntity
  8
Layer_1
 62
1
100
AcDbSpline
 70
8
 71
3
 72
8
 73
4
 74
0
 40
0
 40
0
 40
0
 40
0
 40
1
 40
1
 40
1
 40
1
 10
391.225102
 20
109.009828
 30
0.0
 10
391.473069
 20
109.153410
 30
0.0
 10
391.625308
 20
109.418646
 30
0.0
 10
391.624220
 20
109.705180
 30
0.0
  0
SPLINE
  5
209
100
AcDbEntity
  8
Layer_1
 62
1
100
AcDbSpline
 70
8
 71
3
 72
8
 73
4
 74
0
 40
0
 40
0
 40
0
 40
0
 40
1
 40
1
 40
1
 40
1
 10
391.624220
 20
109.705180
 30
0.0
 10
391.625308
 20
109.991714
 30
0.0
 10
391.473069
 20
110.256950
 30
0.0
 10
391.225102
 20
110.400532
 30
0.0
  0
SPLINE
  5
20a
100
AcDbEntity
  8
Layer_1
 62
1
100
AcDbSpline
 70
8
 71
3
 72
8
 73
4
 74
0
 40
0
 40
0
 40
0
 40
0
 40
1
 40
1
 40
1
 40
1
 10
391.225102
 20
110.400532
 30
0.0
 10
390.977136
 20
110.544115
 30
0.0
 10
390.671314
 20
110.544115
 30
0.0
 10
390.423348
 20
110.400532
 30
0.0
  0
SPLINE
  5
20b
100
AcDbEntity
  8
Layer_1
 62
1
100
AcDbSpline
 70
8
 71
3
 72
8
 73
4
 74
0
 40
0
 40
0
 40
0
 40
0
 40
1
 40
1
 40
1
 40
1
 10
390.423348
 20
110.400532
 30
0.0
 10
390.175381
 20
110.256950
 30
0.0
 10
390.023142
 20
109.991714
 30
0.0
 10
390.024230
 20
109.705180
 30
0.0
  0
LINE
  5
20c
100
AcDbEntity
  8
Layer_1
 62
1
100
AcDbLine
 10
390.024230
 20
109.705180
 30
0.0
 11
390.024230
 21
109.705180
 31
0.0
  0
SPLINE
  5
20d
100
AcDbEntity
  8
Layer_1
 62
1
100
AcDbSpline
 70
8
 71
3
 72
8
 73
4
 74
0
 40
0
 40
0
 40
0
 40
0
 40
1
 40
1
 40
1
 40
1
 10
390.024230
 20
121.105170
 30
0.0
 10
390.023142
 20
120.818636
 30
0.0
 10
390.175381
 20
120.553400
 30
0.0
 10
390.423348
 20
120.409818
 30
0.0
  0
SPLINE
  5
20e
100
AcDbEntity
  8
Layer_1
 62
1
100
AcDbSpline
 70
8
 71
3
 72
8
 73
4
 74
0
 40
0
 40
0
 40
0
 40
0
 40
1
 40
1
 40
1
 40
1
 10
390.423348
 20
120.409818
 30
0.0
 10
390.671314
 20
120.266235
 30
0.0
 10
390.977136
 20
120.266235
 30
0.0
 10
391.225102
 20
120.409818
 30
0.0
  0
SPLINE
  5
20f
100
AcDbEntity
  8
Layer_1
 62
1
100
AcDbSpline
 70
8
 71
3
 72
8
 73
4
 74
0
 40
0
 40
0
 40
0
 40
0
 40
1
 40
1
 40
1
 40
1
 10
391.225102
 20
120.409818
 30
0.0
 10
391.473069
 20
120.553400
 30
0.0
 10
391.625308
 20
120.818636
 30
0.0
 10
391.624220
 20
121.105170
 30
0.0
  0
SPLINE
  5
210
100
AcDbEntity
  8
Layer_1
 62
1
100
AcDbSpline
 70
8
 71
3
 72
8
 73
4
 74
0
 40
0
 40
0
 40
0
 40
0
 40
1
 40
1
 40
1
 40
1
 10
391.624220
 20
121.105170
 30
0.0
 10
391.625308
 20
121.391704
 30
0.0
 10
391.473069
 20
121.656940
 30
0.0
 10
391.225102
 20
121.800522
 30
0.0
  0
SPLINE
  5
211
100
AcDbEntity
  8
Layer_1
 62
1
100
AcDbSpline
 70
8
 71
3
 72
8
 73
4
 74
0
 40
0
 40
0
 40
0
 40
0
 40
1
 40
1
 40
1
 40
1
 10
391.225102
 20
121.800522
 30
0.0
 10
390.977136
 20
121.944105
 30
0.0
 10
390.671314
 20
121.944105
 30
0.0
 10
390.423348
 20
121.800522
 30
0.0
  0
SPLINE
  5
212
100
AcDbEntity
  8
Layer_1
 62
1
100
AcDbSpline
 70
8
 71
3
 72
8
 73
4
 74
0
 40
0
 40
0
 40
0
 40
0
 40
1
 40
1
 40
1
 40
1
 10
390.423348
 20
121.800522
 30
0.0
 10
390.175381
 20
121.656940
 30
0.0
 10
390.023142
 20
121.391704
 30
0.0
 10
390.024230
 20
121.105170
 30
0.0
  0
LINE
  5
213
100
AcDbEntity
  8
Layer_1
 62
1
100
AcDbLine
 10
390.024230
 20
121.105170
 30
0.0
 11
390.024230
 21
121.105170
 31
0.0
  0
LINE
  5
214
100
AcDbEntity
  8
Layer_1
 62
1
100
AcDbLine
 10
390.024340
 20
109.717850
 30
0.0
 11
389.051940
 21
109.733250
 31
0.0
  0
LINE
  5
215
100
AcDbEntity
  8
Layer_1
 62
1
100
AcDbLine
 10
387.575700
 20
111.233070
 30
0.0
 11
387.575700
 21
119.577280
 31
0.0
  0
SPLINE
  5
216
100
AcDbEntity
  8
Layer_1
 62
1
100
AcDbSpline
 70
8
 71
3
 72
8
 73
4
 74
0
 40
0
 40
0
 40
0
 40
0
 40
1
 40
1
 40
1
 40
1
 10
387.575700
 20
111.233070
 30
0.0
 10
387.575695
 20
110.413904
 30
0.0
 10
388.232877
 20
109.746226
 30
0.0
 10
389.051940
 20
109.733250
 30
0.0
  0
LINE
  5
217
100
AcDbEntity
  8
Layer_1
 62
1
100
AcDbLine
 10
389.051940
 20
121.077100
 30
0.0
 11
390.024340
 21
121.092500
 31
0.0
  0
SPLINE
  5
218
100
AcDbEntity
  8
Layer_1
 62
1
100
AcDbSpline
 70
8
 71
3
 72
8
 73
4
 74
0
 40
0
 40
0
 40
0
 40
0
 40
1
 40
1
 40
1
 40
1
 10
389.051940
 20
121.077100
 30
0.0
 10
388.232877
 20
121.064124
 30
0.0
 10
387.575695
 20
120.396446
 30
0.0
 10
387.575700
 20
119.577280
 30
0.0
  0
SPLINE
  5
219
100
AcDbEntity
  8
Layer_1
 62
1
100
AcDbSpline
 70
8
 71
3
 72
8
 73
4
 74
0
 40
0
 40
0
 40
0
 40
0
 40
1
 40
1
 40
1
 40
1
 10
382.467250
 20
109.705180
 30
0.0
 10
382.466162
 20
109.418646
 30
0.0
 10
382.618401
 20
109.153410
 30
0.0
 10
382.866368
 20
109.009828
 30
0.0
  0
SPLINE
  5
21a
100
AcDbEntity
  8
Layer_1
 62
1
100
AcDbSpline
 70
8
 71
3
 72
8
 73
4
 74
0
 40
0
 40
0
 40
0
 40
0
 40
1
 40
1
 40
1
 40
1
 10
382.866368
 20
109.009828
 30
0.0
 10
383.114334
 20
108.866245
 30
0.0
 10
383.420156
 20
108.866245
 30
0.0
 10
383.668122
 20
109.009828
 30
0.0
  0
SPLINE
  5
21b
100
AcDbEntity
  8
Layer_1
 62
1
100
AcDbSpline
 70
8
 71
3
 72
8
 73
4
 74
0
 40
0
 40
0
 40
0
 40
0
 40
1
 40
1
 40
1
 40
1
 10
383.668122
 20
109.009828
 30
0.0
 10
383.916089
 20
109.153410
 30
0.0
 10
384.068328
 20
109.418646
 30
0.0
 10
384.067240
 20
109.705180
 30
0.0
  0
SPLINE
  5
21c
100
AcDbEntity
  8
Layer_1
 62
1
100
AcDbSpline
 70
8
 71
3
 72
8
 73
4
 74
0
 40
0
 40
0
 40
0
 40
0
 40
1
 40
1
 40
1
 40
1
 10
384.067240
 20
109.705180
 30
0.0
 10
384.068328
 20
109.991714
 30
0.0
 10
383.916089
 20
110.256950
 30
0.0
 10
383.668122
 20
110.400532
 30
0.0
  0
SPLINE
  5
21d
100
AcDbEntity
  8
Layer_1
 62
1
100
AcDbSpline
 70
8
 71
3
 72
8
 73
4
 74
0
 40
0
 40
0
 40
0
 40
0
 40
1
 40
1
 40
1
 40
1
 10
383.668122
 20
110.400532
 30
0.0
 10
383.420156
 20
110.544115
 30
0.0
 10
383.114334
 20
110.544115
 30
0.0
 10
382.866368
 20
110.400532
 30
0.0
  0
SPLINE
  5
21e
100
AcDbEntity
  8
Layer_1
 62
1
100
AcDbSpline
 70
8
 71
3
 72
8
 73
4
 74
0
 40
0
 40
0
 40
0
 40
0
 40
1
 40
1
 40
1
 40
1
 10
382.866368
 20
110.400532
 30
0.0
 10
382.618401
 20
110.256950
 30
0.0
 10
382.466162
 20
109.991714
 30
0.0
 10
382.467250
 20
109.705180
 30
0.0
  0
LINE
  5
21f
100
AcDbEntity
  8
Layer_1
 62
1
100
AcDbLine
 10
382.467250
 20
109.705180
 30
0.0
 11
382.467250
 21
109.705180
 31
0.0
  0
SPLINE
  5
220
100
AcDbEntity
  8
Layer_1
 62
1
100
AcDbSpline
 70
8
 71
3
 72
8
 73
4
 74
0
 40
0
 40
0
 40
0
 40
0
 40
1
 40
1
 40
1
 40
1
 10
382.467250
 20
121.105170
 30
0.0
 10
382.466162
 20
120.818636
 30
0.0
 10
382.618401
 20
120.553400
 30
0.0
 10
382.866368
 20
120.409818
 30
0.0
  0
SPLINE
  5
221
100
AcDbEntity
  8
Layer_1
 62
1
100
AcDbSpline
 70
8
 71
3
 72
8
 73
4
 74
0
 40
0
 40
0
 40
0
 40
0
 40
1
 40
1
 40
1
 40
1
 10
382.866368
 20
120.409818
 30
0.0
 10
383.114334
 20
120.266235
 30
0.0
 10
383.420156
 20
120.266235
 30
0.0
 10
383.668122
 20
120.409818
 30
0.0
  0
SPLINE
  5
222
100
AcDbEntity
  8
Layer_1
 62
1
100
AcDbSpline
 70
8
 71
3
 72
8
 73
4
 74
0
 40
0
 40
0
 40
0
 40
0
 40
1
 40
1
 40
1
 40
1
 10
383.668122
 20
120.409818
 30
0.0
 10
383.916089
 20
120.553400
 30
0.0
 10
384.068328
 20
120.818636
 30
0.0
 10
384.067240
 20
121.105170
 30
0.0
  0
SPLINE
  5
223
100
AcDbEntity
  8
Layer_1
 62
1
100
AcDbSpline
 70
8
 71
3
 72
8
 73
4
 74
0
 40
0
 40
0
 40
0
 40
0
 40
1
 40
1
 40
1
 40
1
 10
384.067240
 20
121.105170
 30
0.0
 10
384.068328
 20
121.391704
 30
0.0
 10
383.916089
 20
121.656940
 30
0.0
 10
383.668122
 20
121.800522
 30
0.0
  0
SPLINE
  5
224
100
AcDbEntity
  8
Layer_1
 62
1
100
AcDbSpline
 70
8
 71
3
 72
8
 73
4
 74
0
 40
0
 40
0
 40
0
 40
0
 40
1
 40
1
 40
1
 40
1
 10
383.668122
 20
121.800522
 30
0.0
 10
383.420156
 20
121.944105
 30
0.0
 10
383.114334
 20
121.944105
 30
0.0
 10
382.866368
 20
121.800522
 30
0.0
  0
SPLINE
  5
225
100
AcDbEntity
  8
Layer_1
 62
1
100
AcDbSpline
 70
8
 71
3
 72
8
 73
4
 74
0
 40
0
 40
0
 40
0
 40
0
 40
1
 40
1
 40
1
 40
1
 10
382.866368
 20
121.800522
 30
0.0
 10
382.618401
 20
121.656940
 30
0.0
 10
382.466162
 20
121.391704
 30
0.0
 10
382.467250
 20
121.105170
 30
0.0
  0
LINE
  5
226
100
AcDbEntity
  8
Layer_1
 62
1
100
AcDbLine
 10
382.467250
 20
121.105170
 30
0.0
 11
382.467250
 21
121.105170
 31
0.0
  0
LINE
  5
227
100
AcDbEntity
  8
Layer_1
 62
1
100
AcDbLine
 10
382.467360
 20
109.717850
 30
0.0
 11
381.494960
 21
109.733250
 31
0.0
  0
LINE
  5
228
100
AcDbEntity
  8
Layer_1
 62
1
100
AcDbLine
 10
380.018720
 20
111.233070
 30
0.0
 11
380.018720
 21
119.577280
 31
0.0
  0
SPLINE
  5
229
100
AcDbEntity
  8
Layer_1
 62
1
100
AcDbSpline
 70
8
 71
3
 72
8
 73
4
 74
0
 40
0
 40
0
 40
0
 40
0
 40
1
 40
1
 40
1
 40
1
 10
380.018720
 20
111.233070
 30
0.0
 10
380.018715
 20
110.413904
 30
0.0
 10
380.675897
 20
109.746226
 30
0.0
 10
381.494960
 20
109.733250
 30
0.0
  0
LINE
  5
22a
100
AcDbEntity
  8
Layer_1
 62
1
100
AcDbLine
 10
381.494960
 20
121.077100
 30
0.0
 11
382.467360
 21
121.092500
 31
0.0
  0
SPLINE
  5
22b
100
AcDbEntity
  8
Layer_1
 62
1
100
AcDbSpline
 70
8
 71
3
 72
8
 73
4
 74
0
 40
0
 40
0
 40
0
 40
0
 40
1
 40
1
 40
1
 40
1
 10
381.494960
 20
121.077100
 30
0.0
 10
380.675897
 20
121.064124
 30
0.0
 10
380.018715
 20
120.396446
 30
0.0
 10
380.018720
 20
119.577280
 30
0.0
  0
SPLINE
  5
22c
100
AcDbEntity
  8
Layer_1
 62
1
100
AcDbSpline
 70
8
 71
3
 72
8
 73
4
 74
0
 40
0
 40
0
 40
0
 40
0
 40
1
 40
1
 40
1
 40
1
 10
374.910280
 20
109.705180
 30
0.0
 10
374.909269
 20
109.418697
 30
0.0
 10
375.061526
 20
109.153542
 30
0.0
 10
375.309460
 20
109.010008
 30
0.0
  0
SPLINE
  5
22d
100
AcDbEntity
  8
Layer_1
 62
1
100
AcDbSpline
 70
8
 71
3
 72
8
 73
4
 74
0
 40
0
 40
0
 40
0
 40
0
 40
1
 40
1
 40
1
 40
1
 10
375.309460
 20
109.010008
 30
0.0
 10
375.557395
 20
108.866474
 30
0.0
 10
375.863155
 20
108.866474
 30
0.0
 10
376.111090
 20
109.010008
 30
0.0
  0
SPLINE
  5
22e
100
AcDbEntity
  8
Layer_1
 62
1
100
AcDbSpline
 70
8
 71
3
 72
8
 73
4
 74
0
 40
0
 40
0
 40
0
 40
0
 40
1
 40
1
 40
1
 40
1
 10
376.111090
 20
109.010008
 30
0.0
 10
376.359024
 20
109.153542
 30
0.0
 10
376.511281
 20
109.418697
 30
0.0
 10
376.510270
 20
109.705180
 30
0.0
  0
SPLINE
  5
22f
100
AcDbEntity
  8
Layer_1
 62
1
100
AcDbSpline
 70
8
 71
3
 72
8
 73
4
 74
0
 40
0
 40
0
 40
0
 40
0
 40
1
 40
1
 40
1
 40
1
 10
376.510270
 20
109.705180
 30
0.0
 10
376.511281
 20
109.991663
 30
0.0
 10
376.359024
 20
110.256818
 30
0.0
 10
376.111090
 20
110.400352
 30
0.0
  0
SPLINE
  5
230
100
AcDbEntity
  8
Layer_1
 62
1
100
AcDbSpline
 70
8
 71
3
 72
8
 73
4
 74
0
 40
0
 40
0
 40
0
 40
0
 40
1
 40
1
 40
1
 40
1
 10
376.111090
 20
110.400352
 30
0.0
 10
375.863155
 20
110.543886
 30
0.0
 10
375.557395
 20
110.543886
 30
0.0
 10
375.309460
 20
110.400352
 30
0.0
  0
SPLINE
  5
231
100
AcDbEntity
  8
Layer_1
 62
1
100
AcDbSpline
 70
8
 71
3
 72
8
 73
4
 74
0
 40
0
 40
0
 40
0
 40
0
 40
1
 40
1
 40
1
 40
1
 10
375.309460
 20
110.400352
 30
0.0
 10
375.061526
 20
110.256818
 30
0.0
 10
374.909269
 20
109.991663
 30
0.0
 10
374.910280
 20
109.705180
 30
0.0
  0
LINE
  5
232
100
AcDbEntity
  8
Layer_1
 62
1
100
AcDbLine
 10
374.910280
 20
109.705180
 30
0.0
 11
374.910280
 21
109.705180
 31
0.0
  0
SPLINE
  5
233
100
AcDbEntity
  8
Layer_1
 62
1
100
AcDbSpline
 70
8
 71
3
 72
8
 73
4
 74
0
 40
0
 40
0
 40
0
 40
0
 40
1
 40
1
 40
1
 40
1
 10
374.910280
 20
121.105170
 30
0.0
 10
374.909269
 20
120.818687
 30
0.0
 10
375.061526
 20
120.553532
 30
0.0
 10
375.309460
 20
120.409998
 30
0.0
  0
SPLINE
  5
234
100
AcDbEntity
  8
Layer_1
 62
1
100
AcDbSpline
 70
8
 71
3
 72
8
 73
4
 74
0
 40
0
 40
0
 40
0
 40
0
 40
1
 40
1
 40
1
 40
1
 10
375.309460
 20
120.409998
 30
0.0
 10
375.557395
 20
120.266464
 30
0.0
 10
375.863155
 20
120.266464
 30
0.0
 10
376.111090
 20
120.409998
 30
0.0
  0
SPLINE
  5
235
100
AcDbEntity
  8
Layer_1
 62
1
100
AcDbSpline
 70
8
 71
3
 72
8
 73
4
 74
0
 40
0
 40
0
 40
0
 40
0
 40
1
 40
1
 40
1
 40
1
 10
376.111090
 20
120.409998
 30
0.0
 10
376.359024
 20
120.553532
 30
0.0
 10
376.511281
 20
120.818687
 30
0.0
 10
376.510270
 20
121.105170
 30
0.0
  0
SPLINE
  5
236
100
AcDbEntity
  8
Layer_1
 62
1
100
AcDbSpline
 70
8
 71
3
 72
8
 73
4
 74
0
 40
0
 40
0
 40
0
 40
0
 40
1
 40
1
 40
1
 40
1
 10
376.510270
 20
121.105170
 30
0.0
 10
376.511281
 20
121.391653
 30
0.0
 10
376.359024
 20
121.656808
 30
0.0
 10
376.111090
 20
121.800342
 30
0.0
  0
SPLINE
  5
237
100
AcDbEntity
  8
Layer_1
 62
1
100
AcDbSpline
 70
8
 71
3
 72
8
 73
4
 74
0
 40
0
 40
0
 40
0
 40
0
 40
1
 40
1
 40
1
 40
1
 10
376.111090
 20
121.800342
 30
0.0
 10
375.863155
 20
121.943876
 30
0.0
 10
375.557395
 20
121.943876
 30
0.0
 10
375.309460
 20
121.800342
 30
0.0
  0
SPLINE
  5
238
100
AcDbEntity
  8
Layer_1
 62
1
100
AcDbSpline
 70
8
 71
3
 72
8
 73
4
 74
0
 40
0
 40
0
 40
0
 40
0
 40
1
 40
1
 40
1
 40
1
 10
375.309460
 20
121.800342
 30
0.0
 10
375.061526
 20
121.656808
 30
0.0
 10
374.909269
 20
121.391653
 30
0.0
 10
374.910280
 20
121.105170
 30
0.0
  0
LINE
  5
239
100
AcDbEntity
  8
Layer_1
 62
1
100
AcDbLine
 10
374.910280
 20
121.105170
 30
0.0
 11
374.910280
 21
121.105170
 31
0.0
  0
LINE
  5
23a
100
AcDbEntity
  8
Layer_1
 62
1
100
AcDbLine
 10
374.910360
 20
109.717850
 30
0.0
 11
373.937990
 21
109.733250
 31
0.0
  0
LINE
  5
23b
100
AcDbEntity
  8
Layer_1
 62
1
100
AcDbLine
 10
372.461740
 20
111.233070
 30
0.0
 11
372.461740
 21
119.577280
 31
0.0
  0
SPLINE
  5
23c
100
AcDbEntity
  8
Layer_1
 62
1
100
AcDbSpline
 70
8
 71
3
 72
8
 73
4
 74
0
 40
0
 40
0
 40
0
 40
0
 40
1
 40
1
 40
1
 40
1
 10
372.461740
 20
111.233070
 30
0.0
 10
372.461736
 20
110.413900
 30
0.0
 10
373.118923
 20
109.746220
 30
0.0
 10
373.937990
 20
109.733250
 30
0.0
  0
LINE
  5
23d
100
AcDbEntity
  8
Layer_1
 62
1
100
AcDbLine
 10
373.937990
 20
121.077100
 30
0.0
 11
374.910360
 21
121.092500
 31
0.0
  0
SPLINE
  5
23e
100
AcDbEntity
  8
Layer_1
 62
1
100
AcDbSpline
 70
8
 71
3
 72
8
 73
4
 74
0
 40
0
 40
0
 40
0
 40
0
 40
1
 40
1
 40
1
 40
1
 10
373.937990
 20
121.077100
 30
0.0
 10
373.118923
 20
121.064130
 30
0.0
 10
372.461736
 20
120.396450
 30
0.0
 10
372.461740
 20
119.577280
 30
0.0
  0
SPLINE
  5
23f
100
AcDbEntity
  8
Layer_1
 62
1
100
AcDbSpline
 70
8
 71
3
 72
8
 73
4
 74
0
 40
0
 40
0
 40
0
 40
0
 40
1
 40
1
 40
1
 40
1
 10
367.353280
 20
109.705180
 30
0.0
 10
367.352580
 20
109.418900
 30
0.0
 10
367.504907
 20
109.154066
 30
0.0
 10
367.752717
 20
109.010724
 30
0.0
  0
SPLINE
  5
240
100
AcDbEntity
  8
Layer_1
 62
1
100
AcDbSpline
 70
8
 71
3
 72
8
 73
4
 74
0
 40
0
 40
0
 40
0
 40
0
 40
1
 40
1
 40
1
 40
1
 10
367.752717
 20
109.010724
 30
0.0
 10
368.000527
 20
108.867381
 30
0.0
 10
368.306043
 20
108.867381
 30
0.0
 10
368.553853
 20
109.010724
 30
0.0
  0
SPLINE
  5
241
100
AcDbEntity
  8
Layer_1
 62
1
100
AcDbSpline
 70
8
 71
3
 72
8
 73
4
 74
0
 40
0
 40
0
 40
0
 40
0
 40
1
 40
1
 40
1
 40
1
 10
368.553853
 20
109.010724
 30
0.0
 10
368.801663
 20
109.154066
 30
0.0
 10
368.953990
 20
109.418900
 30
0.0
 10
368.953290
 20
109.705180
 30
0.0
  0
SPLINE
  5
242
100
AcDbEntity
  8
Layer_1
 62
1
100
AcDbSpline
 70
8
 71
3
 72
8
 73
4
 74
0
 40
0
 40
0
 40
0
 40
0
 40
1
 40
1
 40
1
 40
1
 10
368.953290
 20
109.705180
 30
0.0
 10
368.953990
 20
109.991460
 30
0.0
 10
368.801663
 20
110.256294
 30
0.0
 10
368.553853
 20
110.399636
 30
0.0
  0
SPLINE
  5
243
100
AcDbEntity
  8
Layer_1
 62
1
100
AcDbSpline
 70
8
 71
3
 72
8
 73
4
 74
0
 40
0
 40
0
 40
0
 40
0
 40
1
 40
1
 40
1
 40
1
 10
368.553853
 20
110.399636
 30
0.0
 10
368.306043
 20
110.542979
 30
0.0
 10
368.000527
 20
110.542979
 30
0.0
 10
367.752717
 20
110.399636
 30
0.0
  0
SPLINE
  5
244
100
AcDbEntity
  8
Layer_1
 62
1
100
AcDbSpline
 70
8
 71
3
 72
8
 73
4
 74
0
 40
0
 40
0
 40
0
 40
0
 40
1
 40
1
 40
1
 40
1
 10
367.752717
 20
110.399636
 30
0.0
 10
367.504907
 20
110.256294
 30
0.0
 10
367.352580
 20
109.991460
 30
0.0
 10
367.353280
 20
109.705180
 30
0.0
  0
LINE
  5
245
100
AcDbEntity
  8
Layer_1
 62
1
100
AcDbLine
 10
367.353280
 20
109.705180
 30
0.0
 11
367.353280
 21
109.705180
 31
0.0
  0
SPLINE
  5
246
100
AcDbEntity
  8
Layer_1
 62
1
100
AcDbSpline
 70
8
 71
3
 72
8
 73
4
 74
0
 40
0
 40
0
 40
0
 40
0
 40
1
 40
1
 40
1
 40
1
 10
367.353280
 20
121.105170
 30
0.0
 10
367.352580
 20
120.818890
 30
0.0
 10
367.504907
 20
120.554056
 30
0.0
 10
367.752717
 20
120.410714
 30
0.0
  0
SPLINE
  5
247
100
AcDbEntity
  8
Layer_1
 62
1
100
AcDbSpline
 70
8
 71
3
 72
8
 73
4
 74
0
 40
0
 40
0
 40
0
 40
0
 40
1
 40
1
 40
1
 40
1
 10
367.752717
 20
120.410714
 30
0.0
 10
368.000527
 20
120.267371
 30
0.0
 10
368.306043
 20
120.267371
 30
0.0
 10
368.553853
 20
120.410714
 30
0.0
  0
SPLINE
  5
248
100
AcDbEntity
  8
Layer_1
 62
1
100
AcDbSpline
 70
8
 71
3
 72
8
 73
4
 74
0
 40
0
 40
0
 40
0
 40
0
 40
1
 40
1
 40
1
 40
1
 10
368.553853
 20
120.410714
 30
0.0
 10
368.801663
 20
120.554056
 30
0.0
 10
368.953990
 20
120.818890
 30
0.0
 10
368.953290
 20
121.105170
 30
0.0
  0
SPLINE
  5
249
100
AcDbEntity
  8
Layer_1
 62
1
100
AcDbSpline
 70
8
 71
3
 72
8
 73
4
 74
0
 40
0
 40
0
 40
0
 40
0
 40
1
 40
1
 40
1
 40
1
 10
368.953290
 20
121.105170
 30
0.0
 10
368.953990
 20
121.391450
 30
0.0
 10
368.801663
 20
121.656284
 30
0.0
 10
368.553853
 20
121.799626
 30
0.0
  0
SPLINE
  5
24a
100
AcDbEntity
  8
Layer_1
 62
1
100
AcDbSpline
 70
8
 71
3
 72
8
 73
4
 74
0
 40
0
 40
0
 40
0
 40
0
 40
1
 40
1
 40
1
 40
1
 10
368.553853
 20
121.799626
 30
0.0
 10
368.306043
 20
121.942969
 30
0.0
 10
368.000527
 20
121.942969
 30
0.0
 10
367.752717
 20
121.799626
 30
0.0
  0
SPLINE
  5
24b
100
AcDbEntity
  8
Layer_1
 62
1
100
AcDbSpline
 70
8
 71
3
 72
8
 73
4
 74
0
 40
0
 40
0
 40
0
 40
0
 40
1
 40
1
 40
1
 40
1
 10
367.752717
 20
121.799626
 30
0.0
 10
367.504907
 20
121.656284
 30
0.0
 10
367.352580
 20
121.391450
 30
0.0
 10
367.353280
 20
121.105170
 30
0.0
  0
LINE
  5
24c
100
AcDbEntity
  8
Layer_1
 62
1
100
AcDbLine
 10
367.353280
 20
121.105170
 30
0.0
 11
367.353280
 21
121.105170
 31
0.0
  0
LINE
  5
24d
100
AcDbEntity
  8
Layer_1
 62
1
100
AcDbLine
 10
367.353380
 20
109.717850
 30
0.0
 11
366.380980
 21
109.733250
 31
0.0
  0
LINE
  5
24e
100
AcDbEntity
  8
Layer_1
 62
1
100
AcDbLine
 10
364.904770
 20
111.233070
 30
0.0
 11
364.904770
 21
119.577280
 31
0.0
  0
SPLINE
  5
24f
100
AcDbEntity
  8
Layer_1
 62
1
100
AcDbSpline
 70
8
 71
3
 72
8
 73
4
 74
0
 40
0
 40
0
 40
0
 40
0
 40
1
 40
1
 40
1
 40
1
 10
364.904770
 20
111.233070
 30
0.0
 10
364.904765
 20
110.413915
 30
0.0
 10
365.561928
 20
109.746242
 30
0.0
 10
366.380980
 20
109.733250
 30
0.0
  0
LINE
  5
250
100
AcDbEntity
  8
Layer_1
 62
1
100
AcDbLine
 10
366.380980
 20
121.077100
 30
0.0
 11
367.353380
 21
121.092500
 31
0.0
  0
SPLINE
  5
251
100
AcDbEntity
  8
Layer_1
 62
1
100
AcDbSpline
 70
8
 71
3
 72
8
 73
4
 74
0
 40
0
 40
0
 40
0
 40
0
 40
1
 40
1
 40
1
 40
1
 10
366.380980
 20
121.077100
 30
0.0
 10
365.561928
 20
121.064108
 30
0.0
 10
364.904765
 20
120.396435
 30
0.0
 10
364.904770
 20
119.577280
 30
0.0
  0
SPLINE
  5
252
100
AcDbEntity
  8
Layer_1
 62
1
100
AcDbSpline
 70
8
 71
3
 72
8
 73
4
 74
0
 40
0
 40
0
 40
0
 40
0
 40
1
 40
1
 40
1
 40
1
 10
359.796300
 20
109.705180
 30
0.0
 10
359.795600
 20
109.418900
 30
0.0
 10
359.947927
 20
109.154066
 30
0.0
 10
360.195737
 20
109.010724
 30
0.0
  0
SPLINE
  5
253
100
AcDbEntity
  8
Layer_1
 62
1
100
AcDbSpline
 70
8
 71
3
 72
8
 73
4
 74
0
 40
0
 40
0
 40
0
 40
0
 40
1
 40
1
 40
1
 40
1
 10
360.195737
 20
109.010724
 30
0.0
 10
360.443547
 20
108.867381
 30
0.0
 10
360.749063
 20
108.867381
 30
0.0
 10
360.996873
 20
109.010724
 30
0.0
  0
SPLINE
  5
254
100
AcDbEntity
  8
Layer_1
 62
1
100
AcDbSpline
 70
8
 71
3
 72
8
 73
4
 74
0
 40
0
 40
0
 40
0
 40
0
 40
1
 40
1
 40
1
 40
1
 10
360.996873
 20
109.010724
 30
0.0
 10
361.244683
 20
109.154066
 30
0.0
 10
361.397010
 20
109.418900
 30
0.0
 10
361.396310
 20
109.705180
 30
0.0
  0
SPLINE
  5
255
100
AcDbEntity
  8
Layer_1
 62
1
100
AcDbSpline
 70
8
 71
3
 72
8
 73
4
 74
0
 40
0
 40
0
 40
0
 40
0
 40
1
 40
1
 40
1
 40
1
 10
361.396310
 20
109.705180
 30
0.0
 10
361.397010
 20
109.991460
 30
0.0
 10
361.244683
 20
110.256294
 30
0.0
 10
360.996873
 20
110.399636
 30
0.0
  0
SPLINE
  5
256
100
AcDbEntity
  8
Layer_1
 62
1
100
AcDbSpline
 70
8
 71
3
 72
8
 73
4
 74
0
 40
0
 40
0
 40
0
 40
0
 40
1
 40
1
 40
1
 40
1
 10
360.996873
 20
110.399636
 30
0.0
 10
360.749063
 20
110.542979
 30
0.0
 10
360.443547
 20
110.542979
 30
0.0
 10
360.195737
 20
110.399636
 30
0.0
  0
SPLINE
  5
257
100
AcDbEntity
  8
Layer_1
 62
1
100
AcDbSpline
 70
8
 71
3
 72
8
 73
4
 74
0
 40
0
 40
0
 40
0
 40
0
 40
1
 40
1
 40
1
 40
1
 10
360.195737
 20
110.399636
 30
0.0
 10
359.947927
 20
110.256294
 30
0.0
 10
359.795600
 20
109.991460
 30
0.0
 10
359.796300
 20
109.705180
 30
0.0
  0
LINE
  5
258
100
AcDbEntity
  8
Layer_1
 62
1
100
AcDbLine
 10
359.796300
 20
109.705180
 30
0.0
 11
359.796300
 21
109.705180
 31
0.0
  0
SPLINE
  5
259
100
AcDbEntity
  8
Layer_1
 62
1
100
AcDbSpline
 70
8
 71
3
 72
8
 73
4
 74
0
 40
0
 40
0
 40
0
 40
0
 40
1
 40
1
 40
1
 40
1
 10
359.796300
 20
121.105170
 30
0.0
 10
359.795600
 20
120.818890
 30
0.0
 10
359.947927
 20
120.554056
 30
0.0
 10
360.195737
 20
120.410714
 30
0.0
  0
SPLINE
  5
25a
100
AcDbEntity
  8
Layer_1
 62
1
100
AcDbSpline
 70
8
 71
3
 72
8
 73
4
 74
0
 40
0
 40
0
 40
0
 40
0
 40
1
 40
1
 40
1
 40
1
 10
360.195737
 20
120.410714
 30
0.0
 10
360.443547
 20
120.267371
 30
0.0
 10
360.749063
 20
120.267371
 30
0.0
 10
360.996873
 20
120.410714
 30
0.0
  0
SPLINE
  5
25b
100
AcDbEntity
  8
Layer_1
 62
1
100
AcDbSpline
 70
8
 71
3
 72
8
 73
4
 74
0
 40
0
 40
0
 40
0
 40
0
 40
1
 40
1
 40
1
 40
1
 10
360.996873
 20
120.410714
 30
0.0
 10
361.244683
 20
120.554056
 30
0.0
 10
361.397010
 20
120.818890
 30
0.0
 10
361.396310
 20
121.105170
 30
0.0
  0
SPLINE
  5
25c
100
AcDbEntity
  8
Layer_1
 62
1
100
AcDbSpline
 70
8
 71
3
 72
8
 73
4
 74
0
 40
0
 40
0
 40
0
 40
0
 40
1
 40
1
 40
1
 40
1
 10
361.396310
 20
121.105170
 30
0.0
 10
361.397010
 20
121.391450
 30
0.0
 10
361.244683
 20
121.656284
 30
0.0
 10
360.996873
 20
121.799626
 30
0.0
  0
SPLINE
  5
25d
100
AcDbEntity
  8
Layer_1
 62
1
100
AcDbSpline
 70
8
 71
3
 72
8
 73
4
 74
0
 40
0
 40
0
 40
0
 40
0
 40
1
 40
1
 40
1
 40
1
 10
360.996873
 20
121.799626
 30
0.0
 10
360.749063
 20
121.942969
 30
0.0
 10
360.443547
 20
121.942969
 30
0.0
 10
360.195737
 20
121.799626
 30
0.0
  0
SPLINE
  5
25e
100
AcDbEntity
  8
Layer_1
 62
1
100
AcDbSpline
 70
8
 71
3
 72
8
 73
4
 74
0
 40
0
 40
0
 40
0
 40
0
 40
1
 40
1
 40
1
 40
1
 10
360.195737
 20
121.799626
 30
0.0
 10
359.947927
 20
121.656284
 30
0.0
 10
359.795600
 20
121.391450
 30
0.0
 10
359.796300
 20
121.105170
 30
0.0
  0
LINE
  5
25f
100
AcDbEntity
  8
Layer_1
 62
1
100
AcDbLine
 10
359.796300
 20
121.105170
 30
0.0
 11
359.796300
 21
121.105170
 31
0.0
  0
LINE
  5
260
100
AcDbEntity
  8
Layer_1
 62
1
100
AcDbLine
 10
359.796400
 20
109.717850
 30
0.0
 11
358.824010
 21
109.733250
 31
0.0
  0
LINE
  5
261
100
AcDbEntity
  8
Layer_1
 62
1
100
AcDbLine
 10
357.347770
 20
111.233070
 30
0.0
 11
357.347770
 21
119.577280
 31
0.0
  0
SPLINE
  5
262
100
AcDbEntity
  8
Layer_1
 62
1
100
AcDbSpline
 70
8
 71
3
 72
8
 73
4
 74
0
 40
0
 40
0
 40
0
 40
0
 40
1
 40
1
 40
1
 40
1
 10
357.347770
 20
111.233070
 30
0.0
 10
357.347765
 20
110.413904
 30
0.0
 10
358.004947
 20
109.746226
 30
0.0
 10
358.824010
 20
109.733250
 30
0.0
  0
LINE
  5
263
100
AcDbEntity
  8
Layer_1
 62
1
100
AcDbLine
 10
358.824010
 20
121.077100
 30
0.0
 11
359.796400
 21
121.092500
 31
0.0
  0
SPLINE
  5
264
100
AcDbEntity
  8
Layer_1
 62
1
100
AcDbSpline
 70
8
 71
3
 72
8
 73
4
 74
0
 40
0
 40
0
 40
0
 40
0
 40
1
 40
1
 40
1
 40
1
 10
358.824010
 20
121.077100
 30
0.0
 10
358.004947
 20
121.064124
 30
0.0
 10
357.347765
 20
120.396446
 30
0.0
 10
357.347770
 20
119.577280
 30
0.0
  0
SPLINE
  5
265
100
AcDbEntity
  8
Layer_1
 62
1
100
AcDbSpline
 70
8
 71
3
 72
8
 73
4
 74
0
 40
0
 40
0
 40
0
 40
0
 40
1
 40
1
 40
1
 40
1
 10
352.239320
 20
109.705180
 30
0.0
 10
352.239320
 20
109.419364
 30
0.0
 10
352.391801
 20
109.155259
 30
0.0
 10
352.639325
 20
109.012351
 30
0.0
  0
SPLINE
  5
266
100
AcDbEntity
  8
Layer_1
 62
1
100
AcDbSpline
 70
8
 71
3
 72
8
 73
4
 74
0
 40
0
 40
0
 40
0
 40
0
 40
1
 40
1
 40
1
 40
1
 10
352.639325
 20
109.012351
 30
0.0
 10
352.886849
 20
108.869443
 30
0.0
 10
353.191811
 20
108.869443
 30
0.0
 10
353.439335
 20
109.012351
 30
0.0
  0
SPLINE
  5
267
100
AcDbEntity
  8
Layer_1
 62
1
100
AcDbSpline
 70
8
 71
3
 72
8
 73
4
 74
0
 40
0
 40
0
 40
0
 40
0
 40
1
 40
1
 40
1
 40
1
 10
353.439335
 20
109.012351
 30
0.0
 10
353.686859
 20
109.155259
 30
0.0
 10
353.839340
 20
109.419364
 30
0.0
 10
353.839340
 20
109.705180
 30
0.0
  0
SPLINE
  5
268
100
AcDbEntity
  8
Layer_1
 62
1
100
AcDbSpline
 70
8
 71
3
 72
8
 73
4
 74
0
 40
0
 40
0
 40
0
 40
0
 40
1
 40
1
 40
1
 40
1
 10
353.839340
 20
109.705180
 30
0.0
 10
353.839340
 20
109.990996
 30
0.0
 10
353.686859
 20
110.255101
 30
0.0
 10
353.439335
 20
110.398009
 30
0.0
  0
SPLINE
  5
269
100
AcDbEntity
  8
Layer_1
 62
1
100
AcDbSpline
 70
8
 71
3
 72
8
 73
4
 74
0
 40
0
 40
0
 40
0
 40
0
 40
1
 40
1
 40
1
 40
1
 10
353.439335
 20
110.398009
 30
0.0
 10
353.191811
 20
110.540917
 30
0.0
 10
352.886849
 20
110.540917
 30
0.0
 10
352.639325
 20
110.398009
 30
0.0
  0
SPLINE
  5
26a
100
AcDbEntity
  8
Layer_1
 62
1
100
AcDbSpline
 70
8
 71
3
 72
8
 73
4
 74
0
 40
0
 40
0
 40
0
 40
0
 40
1
 40
1
 40
1
 40
1
 10
352.639325
 20
110.398009
 30
0.0
 10
352.391801
 20
110.255101
 30
0.0
 10
352.239320
 20
109.990996
 30
0.0
 10
352.239320
 20
109.705180
 30
0.0
  0
LINE
  5
26b
100
AcDbEntity
  8
Layer_1
 62
1
100
AcDbLine
 10
352.239320
 20
109.705180
 30
0.0
 11
352.239320
 21
109.705180
 31
0.0
  0
SPLINE
  5
26c
100
AcDbEntity
  8
Layer_1
 62
1
100
AcDbSpline
 70
8
 71
3
 72
8
 73
4
 74
0
 40
0
 40
0
 40
0
 40
0
 40
1
 40
1
 40
1
 40
1
 10
352.239320
 20
121.105170
 30
0.0
 10
352.239320
 20
120.819354
 30
0.0
 10
352.391801
 20
120.555249
 30
0.0
 10
352.639325
 20
120.412341
 30
0.0
  0
SPLINE
  5
26d
100
AcDbEntity
  8
Layer_1
 62
1
100
AcDbSpline
 70
8
 71
3
 72
8
 73
4
 74
0
 40
0
 40
0
 40
0
 40
0
 40
1
 40
1
 40
1
 40
1
 10
352.639325
 20
120.412341
 30
0.0
 10
352.886849
 20
120.269433
 30
0.0
 10
353.191811
 20
120.269433
 30
0.0
 10
353.439335
 20
120.412341
 30
0.0
  0
SPLINE
  5
26e
100
AcDbEntity
  8
Layer_1
 62
1
100
AcDbSpline
 70
8
 71
3
 72
8
 73
4
 74
0
 40
0
 40
0
 40
0
 40
0
 40
1
 40
1
 40
1
 40
1
 10
353.439335
 20
120.412341
 30
0.0
 10
353.686859
 20
120.555249
 30
0.0
 10
353.839340
 20
120.819354
 30
0.0
 10
353.839340
 20
121.105170
 30
0.0
  0
SPLINE
  5
26f
100
AcDbEntity
  8
Layer_1
 62
1
100
AcDbSpline
 70
8
 71
3
 72
8
 73
4
 74
0
 40
0
 40
0
 40
0
 40
0
 40
1
 40
1
 40
1
 40
1
 10
353.839340
 20
121.105170
 30
0.0
 10
353.839340
 20
121.390986
 30
0.0
 10
353.686859
 20
121.655091
 30
0.0
 10
353.439335
 20
121.797999
 30
0.0
  0
SPLINE
  5
270
100
AcDbEntity
  8
Layer_1
 62
1
100
AcDbSpline
 70
8
 71
3
 72
8
 73
4
 74
0
 40
0
 40
0
 40
0
 40
0
 40
1
 40
1
 40
1
 40
1
 10
353.439335
 20
121.797999
 30
0.0
 10
353.191811
 20
121.940907
 30
0.0
 10
352.886849
 20
121.940907
 30
0.0
 10
352.639325
 20
121.797999
 30
0.0
  0
SPLINE
  5
271
100
AcDbEntity
  8
Layer_1
 62
1
100
AcDbSpline
 70
8
 71
3
 72
8
 73
4
 74
0
 40
0
 40
0
 40
0
 40
0
 40
1
 40
1
 40
1
 40
1
 10
352.639325
 20
121.797999
 30
0.0
 10
352.391801
 20
121.655091
 30
0.0
 10
352.239320
 20
121.390986
 30
0.0
 10
352.239320
 20
121.105170
 30
0.0
  0
LINE
  5
272
100
AcDbEntity
  8
Layer_1
 62
1
100
AcDbLine
 10
352.239320
 20
121.105170
 30
0.0
 11
352.239320
 21
121.105170
 31
0.0
  0
LINE
  5
273
100
AcDbEntity
  8
Layer_1
 62
1
100
AcDbLine
 10
352.239430
 20
109.717850
 30
0.0
 11
351.267030
 21
109.733250
 31
0.0
  0
LINE
  5
274
100
AcDbEntity
  8
Layer_1
 62
1
100
AcDbLine
 10
349.790790
 20
111.233070
 30
0.0
 11
349.790790
 21
119.577280
 31
0.0
  0
SPLINE
  5
275
100
AcDbEntity
  8
Layer_1
 62
1
100
AcDbSpline
 70
8
 71
3
 72
8
 73
4
 74
0
 40
0
 40
0
 40
0
 40
0
 40
1
 40
1
 40
1
 40
1
 10
349.790790
 20
111.233070
 30
0.0
 10
349.790785
 20
110.413904
 30
0.0
 10
350.447967
 20
109.746226
 30
0.0
 10
351.267030
 20
109.733250
 30
0.0
  0
LINE
  5
276
100
AcDbEntity
  8
Layer_1
 62
1
100
AcDbLine
 10
351.267030
 20
121.077100
 30
0.0
 11
352.239430
 21
121.092500
 31
0.0
  0
SPLINE
  5
277
100
AcDbEntity
  8
Layer_1
 62
1
100
AcDbSpline
 70
8
 71
3
 72
8
 73
4
 74
0
 40
0
 40
0
 40
0
 40
0
 40
1
 40
1
 40
1
 40
1
 10
351.267030
 20
121.077100
 30
0.0
 10
350.447967
 20
121.064124
 30
0.0
 10
349.790785
 20
120.396446
 30
0.0
 10
349.790790
 20
119.577280
 30
0.0
  0
SPLINE
  5
278
100
AcDbEntity
  8
Layer_1
 62
1
100
AcDbSpline
 70
8
 71
3
 72
8
 73
4
 74
0
 40
0
 40
0
 40
0
 40
0
 40
1
 40
1
 40
1
 40
1
 10
344.682350
 20
109.705180
 30
0.0
 10
344.681262
 20
109.418646
 30
0.0
 10
344.833501
 20
109.153410
 30
0.0
 10
345.081468
 20
109.009828
 30
0.0
  0
SPLINE
  5
279
100
AcDbEntity
  8
Layer_1
 62
1
100
AcDbSpline
 70
8
 71
3
 72
8
 73
4
 74
0
 40
0
 40
0
 40
0
 40
0
 40
1
 40
1
 40
1
 40
1
 10
345.081468
 20
109.009828
 30
0.0
 10
345.329434
 20
108.866245
 30
0.0
 10
345.635256
 20
108.866245
 30
0.0
 10
345.883222
 20
109.009828
 30
0.0
  0
SPLINE
  5
27a
100
AcDbEntity
  8
Layer_1
 62
1
100
AcDbSpline
 70
8
 71
3
 72
8
 73
4
 74
0
 40
0
 40
0
 40
0
 40
0
 40
1
 40
1
 40
1
 40
1
 10
345.883222
 20
109.009828
 30
0.0
 10
346.131189
 20
109.153410
 30
0.0
 10
346.283428
 20
109.418646
 30
0.0
 10
346.282340
 20
109.705180
 30
0.0
  0
SPLINE
  5
27b
100
AcDbEntity
  8
Layer_1
 62
1
100
AcDbSpline
 70
8
 71
3
 72
8
 73
4
 74
0
 40
0
 40
0
 40
0
 40
0
 40
1
 40
1
 40
1
 40
1
 10
346.282340
 20
109.705180
 30
0.0
 10
346.283428
 20
109.991714
 30
0.0
 10
346.131189
 20
110.256950
 30
0.0
 10
345.883222
 20
110.400532
 30
0.0
  0
SPLINE
  5
27c
100
AcDbEntity
  8
Layer_1
 62
1
100
AcDbSpline
 70
8
 71
3
 72
8
 73
4
 74
0
 40
0
 40
0
 40
0
 40
0
 40
1
 40
1
 40
1
 40
1
 10
345.883222
 20
110.400532
 30
0.0
 10
345.635256
 20
110.544115
 30
0.0
 10
345.329434
 20
110.544115
 30
0.0
 10
345.081468
 20
110.400532
 30
0.0
  0
SPLINE
  5
27d
100
AcDbEntity
  8
Layer_1
 62
1
100
AcDbSpline
 70
8
 71
3
 72
8
 73
4
 74
0
 40
0
 40
0
 40
0
 40
0
 40
1
 40
1
 40
1
 40
1
 10
345.081468
 20
110.400532
 30
0.0
 10
344.833501
 20
110.256950
 30
0.0
 10
344.681262
 20
109.991714
 30
0.0
 10
344.682350
 20
109.705180
 30
0.0
  0
LINE
  5
27e
100
AcDbEntity
  8
Layer_1
 62
1
100
AcDbLine
 10
344.682350
 20
109.705180
 30
0.0
 11
344.682350
 21
109.705180
 31
0.0
  0
SPLINE
  5
27f
100
AcDbEntity
  8
Layer_1
 62
1
100
AcDbSpline
 70
8
 71
3
 72
8
 73
4
 74
0
 40
0
 40
0
 40
0
 40
0
 40
1
 40
1
 40
1
 40
1
 10
344.682350
 20
121.105170
 30
0.0
 10
344.681262
 20
120.818636
 30
0.0
 10
344.833501
 20
120.553400
 30
0.0
 10
345.081468
 20
120.409818
 30
0.0
  0
SPLINE
  5
280
100
AcDbEntity
  8
Layer_1
 62
1
100
AcDbSpline
 70
8
 71
3
 72
8
 73
4
 74
0
 40
0
 40
0
 40
0
 40
0
 40
1
 40
1
 40
1
 40
1
 10
345.081468
 20
120.409818
 30
0.0
 10
345.329434
 20
120.266235
 30
0.0
 10
345.635256
 20
120.266235
 30
0.0
 10
345.883222
 20
120.409818
 30
0.0
  0
SPLINE
  5
281
100
AcDbEntity
  8
Layer_1
 62
1
100
AcDbSpline
 70
8
 71
3
 72
8
 73
4
 74
0
 40
0
 40
0
 40
0
 40
0
 40
1
 40
1
 40
1
 40
1
 10
345.883222
 20
120.409818
 30
0.0
 10
346.131189
 20
120.553400
 30
0.0
 10
346.283428
 20
120.818636
 30
0.0
 10
346.282340
 20
121.105170
 30
0.0
  0
SPLINE
  5
282
100
AcDbEntity
  8
Layer_1
 62
1
100
AcDbSpline
 70
8
 71
3
 72
8
 73
4
 74
0
 40
0
 40
0
 40
0
 40
0
 40
1
 40
1
 40
1
 40
1
 10
346.282340
 20
121.105170
 30
0.0
 10
346.283428
 20
121.391704
 30
0.0
 10
346.131189
 20
121.656940
 30
0.0
 10
345.883222
 20
121.800522
 30
0.0
  0
SPLINE
  5
283
100
AcDbEntity
  8
Layer_1
 62
1
100
AcDbSpline
 70
8
 71
3
 72
8
 73
4
 74
0
 40
0
 40
0
 40
0
 40
0
 40
1
 40
1
 40
1
 40
1
 10
345.883222
 20
121.800522
 30
0.0
 10
345.635256
 20
121.944105
 30
0.0
 10
345.329434
 20
121.944105
 30
0.0
 10
345.081468
 20
121.800522
 30
0.0
  0
SPLINE
  5
284
100
AcDbEntity
  8
Layer_1
 62
1
100
AcDbSpline
 70
8
 71
3
 72
8
 73
4
 74
0
 40
0
 40
0
 40
0
 40
0
 40
1
 40
1
 40
1
 40
1
 10
345.081468
 20
121.800522
 30
0.0
 10
344.833501
 20
121.656940
 30
0.0
 10
344.681262
 20
121.391704
 30
0.0
 10
344.682350
 20
121.105170
 30
0.0
  0
LINE
  5
285
100
AcDbEntity
  8
Layer_1
 62
1
100
AcDbLine
 10
344.682350
 20
121.105170
 30
0.0
 11
344.682350
 21
121.105170
 31
0.0
  0
LINE
  5
286
100
AcDbEntity
  8
Layer_1
 62
1
100
AcDbLine
 10
344.682450
 20
109.717850
 30
0.0
 11
343.710060
 21
109.733250
 31
0.0
  0
LINE
  5
287
100
AcDbEntity
  8
Layer_1
 62
1
100
AcDbLine
 10
342.233810
 20
111.233070
 30
0.0
 11
342.233810
 21
119.577280
 31
0.0
  0
SPLINE
  5
288
100
AcDbEntity
  8
Layer_1
 62
1
100
AcDbSpline
 70
8
 71
3
 72
8
 73
4
 74
0
 40
0
 40
0
 40
0
 40
0
 40
1
 40
1
 40
1
 40
1
 10
342.233810
 20
111.233070
 30
0.0
 10
342.233806
 20
110.413900
 30
0.0
 10
342.890993
 20
109.746220
 30
0.0
 10
343.710060
 20
109.733250
 30
0.0
  0
LINE
  5
289
100
AcDbEntity
  8
Layer_1
 62
1
100
AcDbLine
 10
343.710060
 20
121.077100
 30
0.0
 11
344.682450
 21
121.092500
 31
0.0
  0
SPLINE
  5
28a
100
AcDbEntity
  8
Layer_1
 62
1
100
AcDbSpline
 70
8
 71
3
 72
8
 73
4
 74
0
 40
0
 40
0
 40
0
 40
0
 40
1
 40
1
 40
1
 40
1
 10
343.710060
 20
121.077100
 30
0.0
 10
342.890993
 20
121.064130
 30
0.0
 10
342.233806
 20
120.396450
 30
0.0
 10
342.233810
 20
119.577280
 30
0.0
  0
SPLINE
  5
28b
100
AcDbEntity
  8
Layer_1
 62
1
100
AcDbSpline
 70
8
 71
3
 72
8
 73
4
 74
0
 40
0
 40
0
 40
0
 40
0
 40
1
 40
1
 40
1
 40
1
 10
337.125370
 20
109.705180
 30
0.0
 10
337.124359
 20
109.418697
 30
0.0
 10
337.276616
 20
109.153542
 30
0.0
 10
337.524550
 20
109.010008
 30
0.0
  0
SPLINE
  5
28c
100
AcDbEntity
  8
Layer_1
 62
1
100
AcDbSpline
 70
8
 71
3
 72
8
 73
4
 74
0
 40
0
 40
0
 40
0
 40
0
 40
1
 40
1
 40
1
 40
1
 10
337.524550
 20
109.010008
 30
0.0
 10
337.772485
 20
108.866474
 30
0.0
 10
338.078245
 20
108.866474
 30
0.0
 10
338.326180
 20
109.010008
 30
0.0
  0
SPLINE
  5
28d
100
AcDbEntity
  8
Layer_1
 62
1
100
AcDbSpline
 70
8
 71
3
 72
8
 73
4
 74
0
 40
0
 40
0
 40
0
 40
0
 40
1
 40
1
 40
1
 40
1
 10
338.326180
 20
109.010008
 30
0.0
 10
338.574114
 20
109.153542
 30
0.0
 10
338.726371
 20
109.418697
 30
0.0
 10
338.725360
 20
109.705180
 30
0.0
  0
SPLINE
  5
28e
100
AcDbEntity
  8
Layer_1
 62
1
100
AcDbSpline
 70
8
 71
3
 72
8
 73
4
 74
0
 40
0
 40
0
 40
0
 40
0
 40
1
 40
1
 40
1
 40
1
 10
338.725360
 20
109.705180
 30
0.0
 10
338.726371
 20
109.991663
 30
0.0
 10
338.574114
 20
110.256818
 30
0.0
 10
338.326180
 20
110.400352
 30
0.0
  0
SPLINE
  5
28f
100
AcDbEntity
  8
Layer_1
 62
1
100
AcDbSpline
 70
8
 71
3
 72
8
 73
4
 74
0
 40
0
 40
0
 40
0
 40
0
 40
1
 40
1
 40
1
 40
1
 10
338.326180
 20
110.400352
 30
0.0
 10
338.078245
 20
110.543886
 30
0.0
 10
337.772485
 20
110.543886
 30
0.0
 10
337.524550
 20
110.400352
 30
0.0
  0
SPLINE
  5
290
100
AcDbEntity
  8
Layer_1
 62
1
100
AcDbSpline
 70
8
 71
3
 72
8
 73
4
 74
0
 40
0
 40
0
 40
0
 40
0
 40
1
 40
1
 40
1
 40
1
 10
337.524550
 20
110.400352
 30
0.0
 10
337.276616
 20
110.256818
 30
0.0
 10
337.124359
 20
109.991663
 30
0.0
 10
337.125370
 20
109.705180
 30
0.0
  0
LINE
  5
291
100
AcDbEntity
  8
Layer_1
 62
1
100
AcDbLine
 10
337.125370
 20
109.705180
 30
0.0
 11
337.125370
 21
109.705180
 31
0.0
  0
SPLINE
  5
292
100
AcDbEntity
  8
Layer_1
 62
1
100
AcDbSpline
 70
8
 71
3
 72
8
 73
4
 74
0
 40
0
 40
0
 40
0
 40
0
 40
1
 40
1
 40
1
 40
1
 10
337.125370
 20
121.105170
 30
0.0
 10
337.124359
 20
120.818687
 30
0.0
 10
337.276616
 20
120.553532
 30
0.0
 10
337.524550
 20
120.409998
 30
0.0
  0
SPLINE
  5
293
100
AcDbEntity
  8
Layer_1
 62
1
100
AcDbSpline
 70
8
 71
3
 72
8
 73
4
 74
0
 40
0
 40
0
 40
0
 40
0
 40
1
 40
1
 40
1
 40
1
 10
337.524550
 20
120.409998
 30
0.0
 10
337.772485
 20
120.266464
 30
0.0
 10
338.078245
 20
120.266464
 30
0.0
 10
338.326180
 20
120.409998
 30
0.0
  0
SPLINE
  5
294
100
AcDbEntity
  8
Layer_1
 62
1
100
AcDbSpline
 70
8
 71
3
 72
8
 73
4
 74
0
 40
0
 40
0
 40
0
 40
0
 40
1
 40
1
 40
1
 40
1
 10
338.326180
 20
120.409998
 30
0.0
 10
338.574114
 20
120.553532
 30
0.0
 10
338.726371
 20
120.818687
 30
0.0
 10
338.725360
 20
121.105170
 30
0.0
  0
SPLINE
  5
295
100
AcDbEntity
  8
Layer_1
 62
1
100
AcDbSpline
 70
8
 71
3
 72
8
 73
4
 74
0
 40
0
 40
0
 40
0
 40
0
 40
1
 40
1
 40
1
 40
1
 10
338.725360
 20
121.105170
 30
0.0
 10
338.726371
 20
121.391653
 30
0.0
 10
338.574114
 20
121.656808
 30
0.0
 10
338.326180
 20
121.800342
 30
0.0
  0
SPLINE
  5
296
100
AcDbEntity
  8
Layer_1
 62
1
100
AcDbSpline
 70
8
 71
3
 72
8
 73
4
 74
0
 40
0
 40
0
 40
0
 40
0
 40
1
 40
1
 40
1
 40
1
 10
338.326180
 20
121.800342
 30
0.0
 10
338.078245
 20
121.943876
 30
0.0
 10
337.772485
 20
121.943876
 30
0.0
 10
337.524550
 20
121.800342
 30
0.0
  0
SPLINE
  5
297
100
AcDbEntity
  8
Layer_1
 62
1
100
AcDbSpline
 70
8
 71
3
 72
8
 73
4
 74
0
 40
0
 40
0
 40
0
 40
0
 40
1
 40
1
 40
1
 40
1
 10
337.524550
 20
121.800342
 30
0.0
 10
337.276616
 20
121.656808
 30
0.0
 10
337.124359
 20
121.391653
 30
0.0
 10
337.125370
 20
121.105170
 30
0.0
  0
LINE
  5
298
100
AcDbEntity
  8
Layer_1
 62
1
100
AcDbLine
 10
337.125370
 20
121.105170
 30
0.0
 11
337.125370
 21
121.105170
 31
0.0
  0
LINE
  5
299
100
AcDbEntity
  8
Layer_1
 62
1
100
AcDbLine
 10
337.125480
 20
109.717850
 30
0.0
 11
336.153080
 21
109.733250
 31
0.0
  0
LINE
  5
29a
100
AcDbEntity
  8
Layer_1
 62
1
100
AcDbLine
 10
334.676840
 20
111.233070
 30
0.0
 11
334.676840
 21
119.577280
 31
0.0
  0
SPLINE
  5
29b
100
AcDbEntity
  8
Layer_1
 62
1
100
AcDbSpline
 70
8
 71
3
 72
8
 73
4
 74
0
 40
0
 40
0
 40
0
 40
0
 40
1
 40
1
 40
1
 40
1
 10
334.676840
 20
111.233070
 30
0.0
 10
334.676835
 20
110.413904
 30
0.0
 10
335.334017
 20
109.746226
 30
0.0
 10
336.153080
 20
109.733250
 30
0.0
  0
LINE
  5
29c
100
AcDbEntity
  8
Layer_1
 62
1
100
AcDbLine
 10
336.153080
 20
121.077100
 30
0.0
 11
337.125480
 21
121.092500
 31
0.0
  0
SPLINE
  5
29d
100
AcDbEntity
  8
Layer_1
 62
1
100
AcDbSpline
 70
8
 71
3
 72
8
 73
4
 74
0
 40
0
 40
0
 40
0
 40
0
 40
1
 40
1
 40
1
 40
1
 10
336.153080
 20
121.077100
 30
0.0
 10
335.334017
 20
121.064124
 30
0.0
 10
334.676835
 20
120.396446
 30
0.0
 10
334.676840
 20
119.577280
 30
0.0
  0
SPLINE
  5
29e
100
AcDbEntity
  8
Layer_1
 62
1
100
AcDbSpline
 70
8
 71
3
 72
8
 73
4
 74
0
 40
0
 40
0
 40
0
 40
0
 40
1
 40
1
 40
1
 40
1
 10
329.568390
 20
109.705180
 30
0.0
 10
329.567379
 20
109.418697
 30
0.0
 10
329.719636
 20
109.153542
 30
0.0
 10
329.967570
 20
109.010008
 30
0.0
  0
SPLINE
  5
29f
100
AcDbEntity
  8
Layer_1
 62
1
100
AcDbSpline
 70
8
 71
3
 72
8
 73
4
 74
0
 40
0
 40
0
 40
0
 40
0
 40
1
 40
1
 40
1
 40
1
 10
329.967570
 20
109.010008
 30
0.0
 10
330.215505
 20
108.866474
 30
0.0
 10
330.521265
 20
108.866474
 30
0.0
 10
330.769200
 20
109.010008
 30
0.0
  0
SPLINE
  5
2a0
100
AcDbEntity
  8
Layer_1
 62
1
100
AcDbSpline
 70
8
 71
3
 72
8
 73
4
 74
0
 40
0
 40
0
 40
0
 40
0
 40
1
 40
1
 40
1
 40
1
 10
330.769200
 20
109.010008
 30
0.0
 10
331.017134
 20
109.153542
 30
0.0
 10
331.169391
 20
109.418697
 30
0.0
 10
331.168380
 20
109.705180
 30
0.0
  0
SPLINE
  5
2a1
100
AcDbEntity
  8
Layer_1
 62
1
100
AcDbSpline
 70
8
 71
3
 72
8
 73
4
 74
0
 40
0
 40
0
 40
0
 40
0
 40
1
 40
1
 40
1
 40
1
 10
331.168380
 20
109.705180
 30
0.0
 10
331.169391
 20
109.991663
 30
0.0
 10
331.017134
 20
110.256818
 30
0.0
 10
330.769200
 20
110.400352
 30
0.0
  0
SPLINE
  5
2a2
100
AcDbEntity
  8
Layer_1
 62
1
100
AcDbSpline
 70
8
 71
3
 72
8
 73
4
 74
0
 40
0
 40
0
 40
0
 40
0
 40
1
 40
1
 40
1
 40
1
 10
330.769200
 20
110.400352
 30
0.0
 10
330.521265
 20
110.543886
 30
0.0
 10
330.215505
 20
110.543886
 30
0.0
 10
329.967570
 20
110.400352
 30
0.0
  0
SPLINE
  5
2a3
100
AcDbEntity
  8
Layer_1
 62
1
100
AcDbSpline
 70
8
 71
3
 72
8
 73
4
 74
0
 40
0
 40
0
 40
0
 40
0
 40
1
 40
1
 40
1
 40
1
 10
329.967570
 20
110.400352
 30
0.0
 10
329.719636
 20
110.256818
 30
0.0
 10
329.567379
 20
109.991663
 30
0.0
 10
329.568390
 20
109.705180
 30
0.0
  0
LINE
  5
2a4
100
AcDbEntity
  8
Layer_1
 62
1
100
AcDbLine
 10
329.568390
 20
109.705180
 30
0.0
 11
329.568390
 21
109.705180
 31
0.0
  0
SPLINE
  5
2a5
100
AcDbEntity
  8
Layer_1
 62
1
100
AcDbSpline
 70
8
 71
3
 72
8
 73
4
 74
0
 40
0
 40
0
 40
0
 40
0
 40
1
 40
1
 40
1
 40
1
 10
329.568390
 20
121.105170
 30
0.0
 10
329.567379
 20
120.818687
 30
0.0
 10
329.719636
 20
120.553532
 30
0.0
 10
329.967570
 20
120.409998
 30
0.0
  0
SPLINE
  5
2a6
100
AcDbEntity
  8
Layer_1
 62
1
100
AcDbSpline
 70
8
 71
3
 72
8
 73
4
 74
0
 40
0
 40
0
 40
0
 40
0
 40
1
 40
1
 40
1
 40
1
 10
329.967570
 20
120.409998
 30
0.0
 10
330.215505
 20
120.266464
 30
0.0
 10
330.521265
 20
120.266464
 30
0.0
 10
330.769200
 20
120.409998
 30
0.0
  0
SPLINE
  5
2a7
100
AcDbEntity
  8
Layer_1
 62
1
100
AcDbSpline
 70
8
 71
3
 72
8
 73
4
 74
0
 40
0
 40
0
 40
0
 40
0
 40
1
 40
1
 40
1
 40
1
 10
330.769200
 20
120.409998
 30
0.0
 10
331.017134
 20
120.553532
 30
0.0
 10
331.169391
 20
120.818687
 30
0.0
 10
331.168380
 20
121.105170
 30
0.0
  0
SPLINE
  5
2a8
100
AcDbEntity
  8
Layer_1
 62
1
100
AcDbSpline
 70
8
 71
3
 72
8
 73
4
 74
0
 40
0
 40
0
 40
0
 40
0
 40
1
 40
1
 40
1
 40
1
 10
331.168380
 20
121.105170
 30
0.0
 10
331.169391
 20
121.391653
 30
0.0
 10
331.017134
 20
121.656808
 30
0.0
 10
330.769200
 20
121.800342
 30
0.0
  0
SPLINE
  5
2a9
100
AcDbEntity
  8
Layer_1
 62
1
100
AcDbSpline
 70
8
 71
3
 72
8
 73
4
 74
0
 40
0
 40
0
 40
0
 40
0
 40
1
 40
1
 40
1
 40
1
 10
330.769200
 20
121.800342
 30
0.0
 10
330.521265
 20
121.943876
 30
0.0
 10
330.215505
 20
121.943876
 30
0.0
 10
329.967570
 20
121.800342
 30
0.0
  0
SPLINE
  5
2aa
100
AcDbEntity
  8
Layer_1
 62
1
100
AcDbSpline
 70
8
 71
3
 72
8
 73
4
 74
0
 40
0
 40
0
 40
0
 40
0
 40
1
 40
1
 40
1
 40
1
 10
329.967570
 20
121.800342
 30
0.0
 10
329.719636
 20
121.656808
 30
0.0
 10
329.567379
 20
121.391653
 30
0.0
 10
329.568390
 20
121.105170
 30
0.0
  0
LINE
  5
2ab
100
AcDbEntity
  8
Layer_1
 62
1
100
AcDbLine
 10
329.568390
 20
121.105170
 30
0.0
 11
329.568390
 21
121.105170
 31
0.0
  0
LINE
  5
2ac
100
AcDbEntity
  8
Layer_1
 62
1
100
AcDbLine
 10
329.568470
 20
109.717850
 30
0.0
 11
328.596080
 21
109.733250
 31
0.0
  0
LINE
  5
2ad
100
AcDbEntity
  8
Layer_1
 62
1
100
AcDbLine
 10
327.119860
 20
111.233070
 30
0.0
 11
327.119860
 21
119.577280
 31
0.0
  0
SPLINE
  5
2ae
100
AcDbEntity
  8
Layer_1
 62
1
100
AcDbSpline
 70
8
 71
3
 72
8
 73
4
 74
0
 40
0
 40
0
 40
0
 40
0
 40
1
 40
1
 40
1
 40
1
 10
327.119860
 20
111.233070
 30
0.0
 10
327.119855
 20
110.413911
 30
0.0
 10
327.777024
 20
109.746236
 30
0.0
 10
328.596080
 20
109.733250
 30
0.0
  0
LINE
  5
2af
100
AcDbEntity
  8
Layer_1
 62
1
100
AcDbLine
 10
328.596080
 20
121.077100
 30
0.0
 11
329.568470
 21
121.092500
 31
0.0
  0
SPLINE
  5
2b0
100
AcDbEntity
  8
Layer_1
 62
1
100
AcDbSpline
 70
8
 71
3
 72
8
 73
4
 74
0
 40
0
 40
0
 40
0
 40
0
 40
1
 40
1
 40
1
 40
1
 10
328.596080
 20
121.077100
 30
0.0
 10
327.777024
 20
121.064114
 30
0.0
 10
327.119855
 20
120.396439
 30
0.0
 10
327.119860
 20
119.577280
 30
0.0
  0
SPLINE
  5
2b1
100
AcDbEntity
  8
Layer_1
 62
1
100
AcDbSpline
 70
8
 71
3
 72
8
 73
4
 74
0
 40
0
 40
0
 40
0
 40
0
 40
1
 40
1
 40
1
 40
1
 10
322.011390
 20
109.705180
 30
0.0
 10
322.011390
 20
109.419364
 30
0.0
 10
322.163871
 20
109.155259
 30
0.0
 10
322.411395
 20
109.012351
 30
0.0
  0
SPLINE
  5
2b2
100
AcDbEntity
  8
Layer_1
 62
1
100
AcDbSpline
 70
8
 71
3
 72
8
 73
4
 74
0
 40
0
 40
0
 40
0
 40
0
 40
1
 40
1
 40
1
 40
1
 10
322.411395
 20
109.012351
 30
0.0
 10
322.658919
 20
108.869443
 30
0.0
 10
322.963881
 20
108.869443
 30
0.0
 10
323.211405
 20
109.012351
 30
0.0
  0
SPLINE
  5
2b3
100
AcDbEntity
  8
Layer_1
 62
1
100
AcDbSpline
 70
8
 71
3
 72
8
 73
4
 74
0
 40
0
 40
0
 40
0
 40
0
 40
1
 40
1
 40
1
 40
1
 10
323.211405
 20
109.012351
 30
0.0
 10
323.458929
 20
109.155259
 30
0.0
 10
323.611410
 20
109.419364
 30
0.0
 10
323.611410
 20
109.705180
 30
0.0
  0
SPLINE
  5
2b4
100
AcDbEntity
  8
Layer_1
 62
1
100
AcDbSpline
 70
8
 71
3
 72
8
 73
4
 74
0
 40
0
 40
0
 40
0
 40
0
 40
1
 40
1
 40
1
 40
1
 10
323.611410
 20
109.705180
 30
0.0
 10
323.611410
 20
109.990996
 30
0.0
 10
323.458929
 20
110.255101
 30
0.0
 10
323.211405
 20
110.398009
 30
0.0
  0
SPLINE
  5
2b5
100
AcDbEntity
  8
Layer_1
 62
1
100
AcDbSpline
 70
8
 71
3
 72
8
 73
4
 74
0
 40
0
 40
0
 40
0
 40
0
 40
1
 40
1
 40
1
 40
1
 10
323.211405
 20
110.398009
 30
0.0
 10
322.963881
 20
110.540917
 30
0.0
 10
322.658919
 20
110.540917
 30
0.0
 10
322.411395
 20
110.398009
 30
0.0
  0
SPLINE
  5
2b6
100
AcDbEntity
  8
Layer_1
 62
1
100
AcDbSpline
 70
8
 71
3
 72
8
 73
4
 74
0
 40
0
 40
0
 40
0
 40
0
 40
1
 40
1
 40
1
 40
1
 10
322.411395
 20
110.398009
 30
0.0
 10
322.163871
 20
110.255101
 30
0.0
 10
322.011390
 20
109.990996
 30
0.0
 10
322.011390
 20
109.705180
 30
0.0
  0
LINE
  5
2b7
100
AcDbEntity
  8
Layer_1
 62
1
100
AcDbLine
 10
322.011390
 20
109.705180
 30
0.0
 11
322.011390
 21
109.705180
 31
0.0
  0
SPLINE
  5
2b8
100
AcDbEntity
  8
Layer_1
 62
1
100
AcDbSpline
 70
8
 71
3
 72
8
 73
4
 74
0
 40
0
 40
0
 40
0
 40
0
 40
1
 40
1
 40
1
 40
1
 10
322.011390
 20
121.105170
 30
0.0
 10
322.011390
 20
120.819354
 30
0.0
 10
322.163871
 20
120.555249
 30
0.0
 10
322.411395
 20
120.412341
 30
0.0
  0
SPLINE
  5
2b9
100
AcDbEntity
  8
Layer_1
 62
1
100
AcDbSpline
 70
8
 71
3
 72
8
 73
4
 74
0
 40
0
 40
0
 40
0
 40
0
 40
1
 40
1
 40
1
 40
1
 10
322.411395
 20
120.412341
 30
0.0
 10
322.658919
 20
120.269433
 30
0.0
 10
322.963881
 20
120.269433
 30
0.0
 10
323.211405
 20
120.412341
 30
0.0
  0
SPLINE
  5
2ba
100
AcDbEntity
  8
Layer_1
 62
1
100
AcDbSpline
 70
8
 71
3
 72
8
 73
4
 74
0
 40
0
 40
0
 40
0
 40
0
 40
1
 40
1
 40
1
 40
1
 10
323.211405
 20
120.412341
 30
0.0
 10
323.458929
 20
120.555249
 30
0.0
 10
323.611410
 20
120.819354
 30
0.0
 10
323.611410
 20
121.105170
 30
0.0
  0
SPLINE
  5
2bb
100
AcDbEntity
  8
Layer_1
 62
1
100
AcDbSpline
 70
8
 71
3
 72
8
 73
4
 74
0
 40
0
 40
0
 40
0
 40
0
 40
1
 40
1
 40
1
 40
1
 10
323.611410
 20
121.105170
 30
0.0
 10
323.611410
 20
121.390986
 30
0.0
 10
323.458929
 20
121.655091
 30
0.0
 10
323.211405
 20
121.797999
 30
0.0
  0
SPLINE
  5
2bc
100
AcDbEntity
  8
Layer_1
 62
1
100
AcDbSpline
 70
8
 71
3
 72
8
 73
4
 74
0
 40
0
 40
0
 40
0
 40
0
 40
1
 40
1
 40
1
 40
1
 10
323.211405
 20
121.797999
 30
0.0
 10
322.963881
 20
121.940907
 30
0.0
 10
322.658919
 20
121.940907
 30
0.0
 10
322.411395
 20
121.797999
 30
0.0
  0
SPLINE
  5
2bd
100
AcDbEntity
  8
Layer_1
 62
1
100
AcDbSpline
 70
8
 71
3
 72
8
 73
4
 74
0
 40
0
 40
0
 40
0
 40
0
 40
1
 40
1
 40
1
 40
1
 10
322.411395
 20
121.797999
 30
0.0
 10
322.163871
 20
121.655091
 30
0.0
 10
322.011390
 20
121.390986
 30
0.0
 10
322.011390
 20
121.105170
 30
0.0
  0
LINE
  5
2be
100
AcDbEntity
  8
Layer_1
 62
1
100
AcDbLine
 10
322.011390
 20
121.105170
 30
0.0
 11
322.011390
 21
121.105170
 31
0.0
  0
LINE
  5
2bf
100
AcDbEntity
  8
Layer_1
 62
1
100
AcDbLine
 10
322.011500
 20
109.717850
 30
0.0
 11
321.039100
 21
109.733250
 31
0.0
  0
LINE
  5
2c0
100
AcDbEntity
  8
Layer_1
 62
1
100
AcDbLine
 10
319.562880
 20
111.233070
 30
0.0
 11
319.562880
 21
119.577280
 31
0.0
  0
SPLINE
  5
2c1
100
AcDbEntity
  8
Layer_1
 62
1
100
AcDbSpline
 70
8
 71
3
 72
8
 73
4
 74
0
 40
0
 40
0
 40
0
 40
0
 40
1
 40
1
 40
1
 40
1
 10
319.562880
 20
111.233070
 30
0.0
 10
319.562875
 20
110.413911
 30
0.0
 10
320.220044
 20
109.746236
 30
0.0
 10
321.039100
 20
109.733250
 30
0.0
  0
LINE
  5
2c2
100
AcDbEntity
  8
Layer_1
 62
1
100
AcDbLine
 10
321.039100
 20
121.077100
 30
0.0
 11
322.011500
 21
121.092500
 31
0.0
  0
SPLINE
  5
2c3
100
AcDbEntity
  8
Layer_1
 62
1
100
AcDbSpline
 70
8
 71
3
 72
8
 73
4
 74
0
 40
0
 40
0
 40
0
 40
0
 40
1
 40
1
 40
1
 40
1
 10
321.039100
 20
121.077100
 30
0.0
 10
320.220044
 20
121.064114
 30
0.0
 10
319.562875
 20
120.396439
 30
0.0
 10
319.562880
 20
119.577280
 30
0.0
  0
SPLINE
  5
2c4
100
AcDbEntity
  8
Layer_1
 62
1
100
AcDbSpline
 70
8
 71
3
 72
8
 73
4
 74
0
 40
0
 40
0
 40
0
 40
0
 40
1
 40
1
 40
1
 40
1
 10
314.454420
 20
109.705180
 30
0.0
 10
314.453720
 20
109.418900
 30
0.0
 10
314.606047
 20
109.154066
 30
0.0
 10
314.853857
 20
109.010724
 30
0.0
  0
SPLINE
  5
2c5
100
AcDbEntity
  8
Layer_1
 62
1
100
AcDbSpline
 70
8
 71
3
 72
8
 73
4
 74
0
 40
0
 40
0
 40
0
 40
0
 40
1
 40
1
 40
1
 40
1
 10
314.853857
 20
109.010724
 30
0.0
 10
315.101667
 20
108.867381
 30
0.0
 10
315.407183
 20
108.867381
 30
0.0
 10
315.654993
 20
109.010724
 30
0.0
  0
SPLINE
  5
2c6
100
AcDbEntity
  8
Layer_1
 62
1
100
AcDbSpline
 70
8
 71
3
 72
8
 73
4
 74
0
 40
0
 40
0
 40
0
 40
0
 40
1
 40
1
 40
1
 40
1
 10
315.654993
 20
109.010724
 30
0.0
 10
315.902803
 20
109.154066
 30
0.0
 10
316.055130
 20
109.418900
 30
0.0
 10
316.054430
 20
109.705180
 30
0.0
  0
SPLINE
  5
2c7
100
AcDbEntity
  8
Layer_1
 62
1
100
AcDbSpline
 70
8
 71
3
 72
8
 73
4
 74
0
 40
0
 40
0
 40
0
 40
0
 40
1
 40
1
 40
1
 40
1
 10
316.054430
 20
109.705180
 30
0.0
 10
316.055130
 20
109.991460
 30
0.0
 10
315.902803
 20
110.256294
 30
0.0
 10
315.654993
 20
110.399636
 30
0.0
  0
SPLINE
  5
2c8
100
AcDbEntity
  8
Layer_1
 62
1
100
AcDbSpline
 70
8
 71
3
 72
8
 73
4
 74
0
 40
0
 40
0
 40
0
 40
0
 40
1
 40
1
 40
1
 40
1
 10
315.654993
 20
110.399636
 30
0.0
 10
315.407183
 20
110.542979
 30
0.0
 10
315.101667
 20
110.542979
 30
0.0
 10
314.853857
 20
110.399636
 30
0.0
  0
SPLINE
  5
2c9
100
AcDbEntity
  8
Layer_1
 62
1
100
AcDbSpline
 70
8
 71
3
 72
8
 73
4
 74
0
 40
0
 40
0
 40
0
 40
0
 40
1
 40
1
 40
1
 40
1
 10
314.853857
 20
110.399636
 30
0.0
 10
314.606047
 20
110.256294
 30
0.0
 10
314.453720
 20
109.991460
 30
0.0
 10
314.454420
 20
109.705180
 30
0.0
  0
LINE
  5
2ca
100
AcDbEntity
  8
Layer_1
 62
1
100
AcDbLine
 10
314.454420
 20
109.705180
 30
0.0
 11
314.454420
 21
109.705180
 31
0.0
  0
SPLINE
  5
2cb
100
AcDbEntity
  8
Layer_1
 62
1
100
AcDbSpline
 70
8
 71
3
 72
8
 73
4
 74
0
 40
0
 40
0
 40
0
 40
0
 40
1
 40
1
 40
1
 40
1
 10
314.454420
 20
121.105170
 30
0.0
 10
314.453720
 20
120.818890
 30
0.0
 10
314.606047
 20
120.554056
 30
0.0
 10
314.853857
 20
120.410714
 30
0.0
  0
SPLINE
  5
2cc
100
AcDbEntity
  8
Layer_1
 62
1
100
AcDbSpline
 70
8
 71
3
 72
8
 73
4
 74
0
 40
0
 40
0
 40
0
 40
0
 40
1
 40
1
 40
1
 40
1
 10
314.853857
 20
120.410714
 30
0.0
 10
315.101667
 20
120.267371
 30
0.0
 10
315.407183
 20
120.267371
 30
0.0
 10
315.654993
 20
120.410714
 30
0.0
  0
SPLINE
  5
2cd
100
AcDbEntity
  8
Layer_1
 62
1
100
AcDbSpline
 70
8
 71
3
 72
8
 73
4
 74
0
 40
0
 40
0
 40
0
 40
0
 40
1
 40
1
 40
1
 40
1
 10
315.654993
 20
120.410714
 30
0.0
 10
315.902803
 20
120.554056
 30
0.0
 10
316.055130
 20
120.818890
 30
0.0
 10
316.054430
 20
121.105170
 30
0.0
  0
SPLINE
  5
2ce
100
AcDbEntity
  8
Layer_1
 62
1
100
AcDbSpline
 70
8
 71
3
 72
8
 73
4
 74
0
 40
0
 40
0
 40
0
 40
0
 40
1
 40
1
 40
1
 40
1
 10
316.054430
 20
121.105170
 30
0.0
 10
316.055130
 20
121.391450
 30
0.0
 10
315.902803
 20
121.656284
 30
0.0
 10
315.654993
 20
121.799626
 30
0.0
  0
SPLINE
  5
2cf
100
AcDbEntity
  8
Layer_1
 62
1
100
AcDbSpline
 70
8
 71
3
 72
8
 73
4
 74
0
 40
0
 40
0
 40
0
 40
0
 40
1
 40
1
 40
1
 40
1
 10
315.654993
 20
121.799626
 30
0.0
 10
315.407183
 20
121.942969
 30
0.0
 10
315.101667
 20
121.942969
 30
0.0
 10
314.853857
 20
121.799626
 30
0.0
  0
SPLINE
  5
2d0
100
AcDbEntity
  8
Layer_1
 62
1
100
AcDbSpline
 70
8
 71
3
 72
8
 73
4
 74
0
 40
0
 40
0
 40
0
 40
0
 40
1
 40
1
 40
1
 40
1
 10
314.853857
 20
121.799626
 30
0.0
 10
314.606047
 20
121.656284
 30
0.0
 10
314.453720
 20
121.391450
 30
0.0
 10
314.454420
 20
121.105170
 30
0.0
  0
LINE
  5
2d1
100
AcDbEntity
  8
Layer_1
 62
1
100
AcDbLine
 10
314.454420
 20
121.105170
 30
0.0
 11
314.454420
 21
121.105170
 31
0.0
  0
LINE
  5
2d2
100
AcDbEntity
  8
Layer_1
 62
1
100
AcDbLine
 10
314.454520
 20
109.717850
 30
0.0
 11
313.482120
 21
109.733250
 31
0.0
  0
LINE
  5
2d3
100
AcDbEntity
  8
Layer_1
 62
1
100
AcDbLine
 10
312.005880
 20
111.233070
 30
0.0
 11
312.005880
 21
119.577280
 31
0.0
  0
SPLINE
  5
2d4
100
AcDbEntity
  8
Layer_1
 62
1
100
AcDbSpline
 70
8
 71
3
 72
8
 73
4
 74
0
 40
0
 40
0
 40
0
 40
0
 40
1
 40
1
 40
1
 40
1
 10
312.005880
 20
111.233070
 30
0.0
 10
312.005875
 20
110.413904
 30
0.0
 10
312.663057
 20
109.746226
 30
0.0
 10
313.482120
 20
109.733250
 30
0.0
  0
LINE
  5
2d5
100
AcDbEntity
  8
Layer_1
 62
1
100
AcDbLine
 10
313.482120
 20
121.077100
 30
0.0
 11
314.454520
 21
121.092500
 31
0.0
  0
SPLINE
  5
2d6
100
AcDbEntity
  8
Layer_1
 62
1
100
AcDbSpline
 70
8
 71
3
 72
8
 73
4
 74
0
 40
0
 40
0
 40
0
 40
0
 40
1
 40
1
 40
1
 40
1
 10
313.482120
 20
121.077100
 30
0.0
 10
312.663057
 20
121.064124
 30
0.0
 10
312.005875
 20
120.396446
 30
0.0
 10
312.005880
 20
119.577280
 30
0.0
  0
LINE
  5
2d7
100
AcDbEntity
  8
Layer_1
 62
5
100
AcDbLine
 10
-252.605580
 20
142.265250
 30
0.0
 11
-252.605580
 21
136.709000
 31
0.0
  0
LINE
  5
2d8
100
AcDbEntity
  8
Layer_1
 62
5
100
AcDbLine
 10
-248.901410
 20
142.265250
 30
0.0
 11
-248.901410
 21
136.709000
 31
0.0
  0
LINE
  5
2d9
100
AcDbEntity
  8
Layer_1
 62
5
100
AcDbLine
 10
-252.605580
 20
139.619420
 30
0.0
 11
-248.901410
 21
139.619420
 31
0.0
  0
LINE
  5
2da
100
AcDbEntity
  8
Layer_1
 62
5
100
AcDbLine
 10
-247.313910
 20
140.413170
 30
0.0
 11
-245.726410
 21
136.709000
 31
0.0
  0
LINE
  5
2db
100
AcDbEntity
  8
Layer_1
 62
5
100
AcDbLine
 10
-244.138910
 20
140.413170
 30
0.0
 11
-245.726410
 21
136.709000
 31
0.0
  0
LINE
  5
2dc
100
AcDbEntity
  8
Layer_1
 62
5
100
AcDbLine
 10
-245.726410
 20
136.709000
 30
0.0
 11
-246.255580
 21
135.650670
 31
0.0
  0
LINE
  5
2dd
100
AcDbEntity
  8
Layer_1
 62
5
100
AcDbLine
 10
-246.255580
 20
135.650670
 30
0.0
 11
-246.784740
 21
135.121500
 31
0.0
  0
LINE
  5
2de
100
AcDbEntity
  8
Layer_1
 62
5
100
AcDbLine
 10
-246.784740
 20
135.121500
 30
0.0
 11
-247.313910
 21
134.856920
 31
0.0
  0
LINE
  5
2df
100
AcDbEntity
  8
Layer_1
 62
5
100
AcDbLine
 10
-247.313910
 20
134.856920
 30
0.0
 11
-247.578490
 21
134.856920
 31
0.0
  0
LINE
  5
2e0
100
AcDbEntity
  8
Layer_1
 62
5
100
AcDbLine
 10
-242.551410
 20
142.265250
 30
0.0
 11
-242.551410
 21
136.709000
 31
0.0
  0
LINE
  5
2e1
100
AcDbEntity
  8
Layer_1
 62
5
100
AcDbLine
 10
-242.551410
 20
139.619420
 30
0.0
 11
-242.022240
 21
140.148580
 31
0.0
  0
LINE
  5
2e2
100
AcDbEntity
  8
Layer_1
 62
5
100
AcDbLine
 10
-242.022240
 20
140.148580
 30
0.0
 11
-241.493080
 21
140.413170
 31
0.0
  0
LINE
  5
2e3
100
AcDbEntity
  8
Layer_1
 62
5
100
AcDbLine
 10
-241.493080
 20
140.413170
 30
0.0
 11
-240.699330
 21
140.413170
 31
0.0
  0
LINE
  5
2e4
100
AcDbEntity
  8
Layer_1
 62
5
100
AcDbLine
 10
-240.699330
 20
140.413170
 30
0.0
 11
-240.170160
 21
140.148580
 31
0.0
  0
LINE
  5
2e5
100
AcDbEntity
  8
Layer_1
 62
5
100
AcDbLine
 10
-240.170160
 20
140.148580
 30
0.0
 11
-239.640990
 21
139.619420
 31
0.0
  0
LINE
  5
2e6
100
AcDbEntity
  8
Layer_1
 62
5
100
AcDbLine
 10
-239.640990
 20
139.619420
 30
0.0
 11
-239.376410
 21
138.825670
 31
0.0
  0
LINE
  5
2e7
100
AcDbEntity
  8
Layer_1
 62
5
100
AcDbLine
 10
-239.376410
 20
138.825670
 30
0.0
 11
-239.376410
 21
138.296500
 31
0.0
  0
LINE
  5
2e8
100
AcDbEntity
  8
Layer_1
 62
5
100
AcDbLine
 10
-239.376410
 20
138.296500
 30
0.0
 11
-239.640990
 21
137.502750
 31
0.0
  0
LINE
  5
2e9
100
AcDbEntity
  8
Layer_1
 62
5
100
AcDbLine
 10
-239.640990
 20
137.502750
 30
0.0
 11
-240.170160
 21
136.973580
 31
0.0
  0
LINE
  5
2ea
100
AcDbEntity
  8
Layer_1
 62
5
100
AcDbLine
 10
-240.170160
 20
136.973580
 30
0.0
 11
-240.699330
 21
136.709000
 31
0.0
  0
LINE
  5
2eb
100
AcDbEntity
  8
Layer_1
 62
5
100
AcDbLine
 10
-240.699330
 20
136.709000
 30
0.0
 11
-241.493080
 21
136.709000
 31
0.0
  0
LINE
  5
2ec
100
AcDbEntity
  8
Layer_1
 62
5
100
AcDbLine
 10
-241.493080
 20
136.709000
 30
0.0
 11
-242.022240
 21
136.973580
 31
0.0
  0
LINE
  5
2ed
100
AcDbEntity
  8
Layer_1
 62
5
100
AcDbLine
 10
-242.022240
 20
136.973580
 30
0.0
 11
-242.551410
 21
137.502750
 31
0.0
  0
LINE
  5
2ee
100
AcDbEntity
  8
Layer_1
 62
5
100
AcDbLine
 10
-237.524330
 20
140.413170
 30
0.0
 11
-237.524330
 21
136.709000
 31
0.0
  0
LINE
  5
2ef
100
AcDbEntity
  8
Layer_1
 62
5
100
AcDbLine
 10
-237.524330
 20
138.825670
 30
0.0
 11
-237.259740
 21
139.619420
 31
0.0
  0
LINE
  5
2f0
100
AcDbEntity
  8
Layer_1
 62
5
100
AcDbLine
 10
-237.259740
 20
139.619420
 30
0.0
 11
-236.730580
 21
140.148580
 31
0.0
  0
LINE
  5
2f1
100
AcDbEntity
  8
Layer_1
 62
5
100
AcDbLine
 10
-236.730580
 20
140.148580
 30
0.0
 11
-236.201410
 21
140.413170
 31
0.0
  0
LINE
  5
2f2
100
AcDbEntity
  8
Layer_1
 62
5
100
AcDbLine
 10
-236.201410
 20
140.413170
 30
0.0
 11
-235.407660
 21
140.413170
 31
0.0
  0
LINE
  5
2f3
100
AcDbEntity
  8
Layer_1
 62
5
100
AcDbLine
 10
-234.349330
 20
142.265250
 30
0.0
 11
-234.084740
 21
142.000670
 31
0.0
  0
LINE
  5
2f4
100
AcDbEntity
  8
Layer_1
 62
5
100
AcDbLine
 10
-234.084740
 20
142.000670
 30
0.0
 11
-233.820160
 21
142.265250
 31
0.0
  0
LINE
  5
2f5
100
AcDbEntity
  8
Layer_1
 62
5
100
AcDbLine
 10
-233.820160
 20
142.265250
 30
0.0
 11
-234.084740
 21
142.529830
 31
0.0
  0
LINE
  5
2f6
100
AcDbEntity
  8
Layer_1
 62
5
100
AcDbLine
 10
-234.084740
 20
142.529830
 30
0.0
 11
-234.349330
 21
142.265250
 31
0.0
  0
LINE
  5
2f7
100
AcDbEntity
  8
Layer_1
 62
5
100
AcDbLine
 10
-234.084740
 20
140.413170
 30
0.0
 11
-234.084740
 21
136.709000
 31
0.0
  0
LINE
  5
2f8
100
AcDbEntity
  8
Layer_1
 62
5
100
AcDbLine
 10
-229.057660
 20
142.265250
 30
0.0
 11
-229.057660
 21
136.709000
 31
0.0
  0
LINE
  5
2f9
100
AcDbEntity
  8
Layer_1
 62
5
100
AcDbLine
 10
-229.057660
 20
139.619420
 30
0.0
 11
-229.586830
 21
140.148580
 31
0.0
  0
LINE
  5
2fa
100
AcDbEntity
  8
Layer_1
 62
5
100
AcDbLine
 10
-229.586830
 20
140.148580
 30
0.0
 11
-230.115990
 21
140.413170
 31
0.0
  0
LINE
  5
2fb
100
AcDbEntity
  8
Layer_1
 62
5
100
AcDbLine
 10
-230.115990
 20
140.413170
 30
0.0
 11
-230.909740
 21
140.413170
 31
0.0
  0
LINE
  5
2fc
100
AcDbEntity
  8
Layer_1
 62
5
100
AcDbLine
 10
-230.909740
 20
140.413170
 30
0.0
 11
-231.438910
 21
140.148580
 31
0.0
  0
LINE
  5
2fd
100
AcDbEntity
  8
Layer_1
 62
5
100
AcDbLine
 10
-231.438910
 20
140.148580
 30
0.0
 11
-231.968080
 21
139.619420
 31
0.0
  0
LINE
  5
2fe
100
AcDbEntity
  8
Layer_1
 62
5
100
AcDbLine
 10
-231.968080
 20
139.619420
 30
0.0
 11
-232.232660
 21
138.825670
 31
0.0
  0
LINE
  5
2ff
100
AcDbEntity
  8
Layer_1
 62
5
100
AcDbLine
 10
-232.232660
 20
138.825670
 30
0.0
 11
-232.232660
 21
138.296500
 31
0.0
  0
LINE
  5
300
100
AcDbEntity
  8
Layer_1
 62
5
100
AcDbLine
 10
-232.232660
 20
138.296500
 30
0.0
 11
-231.968080
 21
137.502750
 31
0.0
  0
LINE
  5
301
100
AcDbEntity
  8
Layer_1
 62
5
100
AcDbLine
 10
-231.968080
 20
137.502750
 30
0.0
 11
-231.438910
 21
136.973580
 31
0.0
  0
LINE
  5
302
100
AcDbEntity
  8
Layer_1
 62
5
100
AcDbLine
 10
-231.438910
 20
136.973580
 30
0.0
 11
-230.909740
 21
136.709000
 31
0.0
  0
LINE
  5
303
100
AcDbEntity
  8
Layer_1
 62
5
100
AcDbLine
 10
-230.909740
 20
136.709000
 30
0.0
 11
-230.115990
 21
136.709000
 31
0.0
  0
LINE
  5
304
100
AcDbEntity
  8
Layer_1
 62
5
100
AcDbLine
 10
-230.115990
 20
136.709000
 30
0.0
 11
-229.586830
 21
136.973580
 31
0.0
  0
LINE
  5
305
100
AcDbEntity
  8
Layer_1
 62
5
100
AcDbLine
 10
-229.586830
 20
136.973580
 30
0.0
 11
-229.057660
 21
137.502750
 31
0.0
  0
SPLINE
  5
306
100
AcDbEntity
  8
Layer_1
 62
1
100
AcDbSpline
 70
8
 71
3
 72
8
 73
4
 74
0
 40
0
 40
0
 40
0
 40
0
 40
1
 40
1
 40
1
 40
1
 10
-248.302160
 20
104.588690
 30
0.0
 10
-248.302160
 20
104.267147
 30
0.0
 10
-248.130619
 20
103.970030
 30
0.0
 10
-247.852155
 20
103.809258
 30
0.0
  0
SPLINE
  5
307
100
AcDbEntity
  8
Layer_1
 62
1
100
AcDbSpline
 70
8
 71
3
 72
8
 73
4
 74
0
 40
0
 40
0
 40
0
 40
0
 40
1
 40
1
 40
1
 40
1
 10
-247.852155
 20
103.809258
 30
0.0
 10
-247.573691
 20
103.648487
 30
0.0
 10
-247.230609
 20
103.648487
 30
0.0
 10
-246.952145
 20
103.809258
 30
0.0
  0
SPLINE
  5
308
100
AcDbEntity
  8
Layer_1
 62
1
100
AcDbSpline
 70
8
 71
3
 72
8
 73
4
 74
0
 40
0
 40
0
 40
0
 40
0
 40
1
 40
1
 40
1
 40
1
 10
-246.952145
 20
103.809258
 30
0.0
 10
-246.673681
 20
103.970030
 30
0.0
 10
-246.502140
 20
104.267147
 30
0.0
 10
-246.502140
 20
104.588690
 30
0.0
  0
LINE
  5
309
100
AcDbEntity
  8
Layer_1
 62
1
100
AcDbLine
 10
-248.302160
 20
104.588690
 30
0.0
 11
-248.302160
 21
124.088690
 31
0.0
  0
SPLINE
  5
30a
100
AcDbEntity
  8
Layer_1
 62
1
100
AcDbSpline
 70
8
 71
3
 72
8
 73
4
 74
0
 40
0
 40
0
 40
0
 40
0
 40
1
 40
1
 40
1
 40
1
 10
-246.502140
 20
124.088690
 30
0.0
 10
-246.502140
 20
124.410233
 30
0.0
 10
-246.673681
 20
124.707350
 30
0.0
 10
-246.952145
 20
124.868122
 30
0.0
  0
SPLINE
  5
30b
100
AcDbEntity
  8
Layer_1
 62
1
100
AcDbSpline
 70
8
 71
3
 72
8
 73
4
 74
0
 40
0
 40
0
 40
0
 40
0
 40
1
 40
1
 40
1
 40
1
 10
-246.952145
 20
124.868122
 30
0.0
 10
-247.230609
 20
125.028893
 30
0.0
 10
-247.573691
 20
125.028893
 30
0.0
 10
-247.852155
 20
124.868122
 30
0.0
  0
SPLINE
  5
30c
100
AcDbEntity
  8
Layer_1
 62
1
100
AcDbSpline
 70
8
 71
3
 72
8
 73
4
 74
0
 40
0
 40
0
 40
0
 40
0
 40
1
 40
1
 40
1
 40
1
 10
-247.852155
 20
124.868122
 30
0.0
 10
-248.130619
 20
124.707350
 30
0.0
 10
-248.302160
 20
124.410233
 30
0.0
 10
-248.302160
 20
124.088690
 30
0.0
  0
LINE
  5
30d
100
AcDbEntity
  8
Layer_1
 62
1
100
AcDbLine
 10
-246.502140
 20
124.088690
 30
0.0
 11
-246.502140
 21
104.588690
 31
0.0
  0
LINE
  5
30e
100
AcDbEntity
  8
Layer_1
 62
1
100
AcDbLine
 10
-263.302150
 20
104.588690
 30
0.0
 11
-263.302150
 21
124.088690
 31
0.0
  0
SPLINE
  5
30f
100
AcDbEntity
  8
Layer_1
 62
1
100
AcDbSpline
 70
8
 71
3
 72
8
 73
4
 74
0
 40
0
 40
0
 40
0
 40
0
 40
1
 40
1
 40
1
 40
1
 10
-261.502140
 20
124.088690
 30
0.0
 10
-261.503093
 20
124.585074
 30
0.0
 10
-261.905760
 20
124.986968
 30
0.0
 10
-262.402145
 20
124.986968
 30
0.0
  0
SPLINE
  5
310
100
AcDbEntity
  8
Layer_1
 62
1
100
AcDbSpline
 70
8
 71
3
 72
8
 73
4
 74
0
 40
0
 40
0
 40
0
 40
0
 40
1
 40
1
 40
1
 40
1
 10
-262.402145
 20
124.986968
 30
0.0
 10
-262.898530
 20
124.986968
 30
0.0
 10
-263.301197
 20
124.585074
 30
0.0
 10
-263.302150
 20
124.088690
 30
0.0
  0
LINE
  5
311
100
AcDbEntity
  8
Layer_1
 62
1
100
AcDbLine
 10
-261.502140
 20
124.088690
 30
0.0
 11
-261.502140
 21
104.588690
 31
0.0
  0
SPLINE
  5
312
100
AcDbEntity
  8
Layer_1
 62
1
100
AcDbSpline
 70
8
 71
3
 72
8
 73
4
 74
0
 40
0
 40
0
 40
0
 40
0
 40
1
 40
1
 40
1
 40
1
 10
-263.302150
 20
104.588690
 30
0.0
 10
-263.301197
 20
104.092306
 30
0.0
 10
-262.898530
 20
103.690412
 30
0.0
 10
-262.402145
 20
103.690412
 30
0.0
  0
SPLINE
  5
313
100
AcDbEntity
  8
Layer_1
 62
1
100
AcDbSpline
 70
8
 71
3
 72
8
 73
4
 74
0
 40
0
 40
0
 40
0
 40
0
 40
1
 40
1
 40
1
 40
1
 10
-262.402145
 20
103.690412
 30
0.0
 10
-261.905760
 20
103.690412
 30
0.0
 10
-261.503093
 20
104.092306
 30
0.0
 10
-261.502140
 20
104.588690
 30
0.0
  0
LINE
  5
314
100
AcDbEntity
  8
Layer_1
 62
1
100
AcDbLine
 10
-235.215260
 20
120.938700
 30
0.0
 11
-217.315240
 21
120.938700
 31
0.0
  0
SPLINE
  5
315
100
AcDbEntity
  8
Layer_1
 62
1
100
AcDbSpline
 70
8
 71
3
 72
8
 73
4
 74
0
 40
0
 40
0
 40
0
 40
0
 40
1
 40
1
 40
1
 40
1
 10
-217.315240
 20
120.938700
 30
0.0
 10
-216.818192
 20
120.938711
 30
0.0
 10
-216.415260
 20
121.341652
 30
0.0
 10
-216.415260
 20
121.838700
 30
0.0
  0
LINE
  5
316
100
AcDbEntity
  8
Layer_1
 62
1
100
AcDbLine
 10
-216.415260
 20
121.838700
 30
0.0
 11
-216.415260
 21
121.838700
 31
0.0
  0
SPLINE
  5
317
100
AcDbEntity
  8
Layer_1
 62
1
100
AcDbSpline
 70
8
 71
3
 72
8
 73
4
 74
0
 40
0
 40
0
 40
0
 40
0
 40
1
 40
1
 40
1
 40
1
 10
-216.415260
 20
121.838700
 30
0.0
 10
-216.415271
 20
122.335741
 30
0.0
 10
-216.818199
 20
122.738669
 30
0.0
 10
-217.315240
 20
122.738680
 30
0.0
  0
LINE
  5
318
100
AcDbEntity
  8
Layer_1
 62
1
100
AcDbLine
 10
-217.315240
 20
122.738680
 30
0.0
 11
-235.215260
 21
122.738680
 31
0.0
  0
SPLINE
  5
319
100
AcDbEntity
  8
Layer_1
 62
1
100
AcDbSpline
 70
8
 71
3
 72
8
 73
4
 74
0
 40
0
 40
0
 40
0
 40
0
 40
1
 40
1
 40
1
 40
1
 10
-235.215260
 20
122.738680
 30
0.0
 10
-235.712308
 20
122.738680
 30
0.0
 10
-236.115249
 20
122.335748
 30
0.0
 10
-236.115260
 20
121.838700
 30
0.0
  0
LINE
  5
31a
100
AcDbEntity
  8
Layer_1
 62
1
100
AcDbLine
 10
-236.115260
 20
121.838700
 30
0.0
 11
-236.115260
 21
121.838700
 31
0.0
  0
SPLINE
  5
31b
100
AcDbEntity
  8
Layer_1
 62
1
100
AcDbSpline
 70
8
 71
3
 72
8
 73
4
 74
0
 40
0
 40
0
 40
0
 40
0
 40
1
 40
1
 40
1
 40
1
 10
-236.115260
 20
121.838700
 30
0.0
 10
-236.115260
 20
121.341644
 30
0.0
 10
-235.712316
 20
120.938700
 30
0.0
 10
-235.215260
 20
120.938700
 30
0.0
  0
LINE
  5
31c
100
AcDbEntity
  8
Layer_1
 62
1
100
AcDbLine
 10
-235.215260
 20
105.938700
 30
0.0
 11
-217.315240
 21
105.938700
 31
0.0
  0
SPLINE
  5
31d
100
AcDbEntity
  8
Layer_1
 62
1
100
AcDbSpline
 70
8
 71
3
 72
8
 73
4
 74
0
 40
0
 40
0
 40
0
 40
0
 40
1
 40
1
 40
1
 40
1
 10
-217.315240
 20
105.938700
 30
0.0
 10
-216.818199
 20
105.938711
 30
0.0
 10
-216.415271
 20
106.341639
 30
0.0
 10
-216.415260
 20
106.838680
 30
0.0
  0
LINE
  5
31e
100
AcDbEntity
  8
Layer_1
 62
1
100
AcDbLine
 10
-216.415260
 20
106.838680
 30
0.0
 11
-216.415260
 21
106.838680
 31
0.0
  0
SPLINE
  5
31f
100
AcDbEntity
  8
Layer_1
 62
1
100
AcDbSpline
 70
8
 71
3
 72
8
 73
4
 74
0
 40
0
 40
0
 40
0
 40
0
 40
1
 40
1
 40
1
 40
1
 10
-216.415260
 20
106.838680
 30
0.0
 10
-216.415255
 20
107.335732
 30
0.0
 10
-216.818188
 20
107.738679
 30
0.0
 10
-217.315240
 20
107.738690
 30
0.0
  0
LINE
  5
320
100
AcDbEntity
  8
Layer_1
 62
1
100
AcDbLine
 10
-217.315240
 20
107.738690
 30
0.0
 11
-235.215260
 21
107.738690
 31
0.0
  0
SPLINE
  5
321
100
AcDbEntity
  8
Layer_1
 62
1
100
AcDbSpline
 70
8
 71
3
 72
8
 73
4
 74
0
 40
0
 40
0
 40
0
 40
0
 40
1
 40
1
 40
1
 40
1
 10
-235.215260
 20
107.738690
 30
0.0
 10
-235.453957
 20
107.738690
 30
0.0
 10
-235.682877
 20
107.643867
 30
0.0
 10
-235.851660
 20
107.475083
 30
0.0
  0
SPLINE
  5
322
100
AcDbEntity
  8
Layer_1
 62
1
100
AcDbSpline
 70
8
 71
3
 72
8
 73
4
 74
0
 40
0
 40
0
 40
0
 40
0
 40
1
 40
1
 40
1
 40
1
 10
-235.851660
 20
107.475083
 30
0.0
 10
-236.020443
 20
107.306298
 30
0.0
 10
-236.115263
 20
107.077377
 30
0.0
 10
-236.115260
 20
106.838680
 30
0.0
  0
LINE
  5
323
100
AcDbEntity
  8
Layer_1
 62
1
100
AcDbLine
 10
-236.115260
 20
106.838680
 30
0.0
 11
-236.115260
 21
106.838680
 31
0.0
  0
SPLINE
  5
324
100
AcDbEntity
  8
Layer_1
 62
1
100
AcDbSpline
 70
8
 71
3
 72
8
 73
4
 74
0
 40
0
 40
0
 40
0
 40
0
 40
1
 40
1
 40
1
 40
1
 10
-236.115260
 20
106.838680
 30
0.0
 10
-236.115249
 20
106.341632
 30
0.0
 10
-235.712308
 20
105.938700
 30
0.0
 10
-235.215260
 20
105.938700
 30
0.0
  0
SPLINE
  5
325
100
AcDbEntity
  8
Layer_1
 62
7
100
AcDbSpline
 70
8
 71
3
 72
8
 73
4
 74
0
 40
0
 40
0
 40
0
 40
0
 40
1
 40
1
 40
1
 40
1
 10
-264.649540
 20
99.699830
 30
0.0
 10
-267.419550
 20
99.699830
 30
0.0
 10
-269.649740
 20
101.930050
 30
0.0
 10
-269.711500
 20
104.742700
 30
0.0
  0
LINE
  5
326
100
AcDbEntity
  8
Layer_1
 62
7
100
AcDbLine
 10
-269.711500
 20
104.742700
 30
0.0
 11
-269.755500
 21
126.499420
 31
0.0
  0
SPLINE
  5
327
100
AcDbEntity
  8
Layer_1
 62
7
100
AcDbSpline
 70
8
 71
3
 72
8
 73
4
 74
0
 40
0
 40
0
 40
0
 40
0
 40
1
 40
1
 40
1
 40
1
 10
-269.755500
 20
126.499420
 30
0.0
 10
-269.779100
 20
129.116090
 30
0.0
 10
-267.854890
 20
131.707770
 30
0.0
 10
-265.182070
 20
132.387270
 30
0.0
  0
SPLINE
  5
328
100
AcDbEntity
  8
Layer_1
 62
7
100
AcDbSpline
 70
8
 71
3
 72
8
 73
4
 74
0
 40
0
 40
0
 40
0
 40
0
 40
1
 40
1
 40
1
 40
1
 10
-265.182070
 20
132.387270
 30
0.0
 10
-262.729380
 20
132.945890
 30
0.0
 10
-260.719900
 20
135.165690
 30
0.0
 10
-260.751230
 20
137.672010
 30
0.0
  0
LINE
  5
329
100
AcDbEntity
  8
Layer_1
 62
7
100
AcDbLine
 10
-260.751230
 20
137.672010
 30
0.0
 11
-260.748230
 21
148.861470
 31
0.0
  0
LINE
  5
32a
100
AcDbEntity
  8
Layer_1
 62
5
100
AcDbLine
 10
-219.931100
 20
141.208980
 30
0.0
 11
-219.931100
 21
141.473570
 31
0.0
  0
LINE
  5
32b
100
AcDbEntity
  8
Layer_1
 62
5
100
AcDbLine
 10
-219.931100
 20
141.473570
 30
0.0
 11
-219.666520
 21
142.002730
 31
0.0
  0
LINE
  5
32c
100
AcDbEntity
  8
Layer_1
 62
5
100
AcDbLine
 10
-219.666520
 20
142.002730
 30
0.0
 11
-219.401930
 21
142.267320
 31
0.0
  0
LINE
  5
32d
100
AcDbEntity
  8
Layer_1
 62
5
100
AcDbLine
 10
-219.401930
 20
142.267320
 30
0.0
 11
-218.872770
 21
142.531900
 31
0.0
  0
LINE
  5
32e
100
AcDbEntity
  8
Layer_1
 62
5
100
AcDbLine
 10
-218.872770
 20
142.531900
 30
0.0
 11
-217.814430
 21
142.531900
 31
0.0
  0
LINE
  5
32f
100
AcDbEntity
  8
Layer_1
 62
5
100
AcDbLine
 10
-217.814430
 20
142.531900
 30
0.0
 11
-217.285270
 21
142.267320
 31
0.0
  0
LINE
  5
330
100
AcDbEntity
  8
Layer_1
 62
5
100
AcDbLine
 10
-217.285270
 20
142.267320
 30
0.0
 11
-217.020680
 21
142.002730
 31
0.0
  0
LINE
  5
331
100
AcDbEntity
  8
Layer_1
 62
5
100
AcDbLine
 10
-217.020680
 20
142.002730
 30
0.0
 11
-216.756100
 21
141.473570
 31
0.0
  0
LINE
  5
332
100
AcDbEntity
  8
Layer_1
 62
5
100
AcDbLine
 10
-216.756100
 20
141.473570
 30
0.0
 11
-216.756100
 21
140.944400
 31
0.0
  0
LINE
  5
333
100
AcDbEntity
  8
Layer_1
 62
5
100
AcDbLine
 10
-216.756100
 20
140.944400
 30
0.0
 11
-217.020680
 21
140.415230
 31
0.0
  0
LINE
  5
334
100
AcDbEntity
  8
Layer_1
 62
5
100
AcDbLine
 10
-217.020680
 20
140.415230
 30
0.0
 11
-217.549850
 21
139.621480
 31
0.0
  0
LINE
  5
335
100
AcDbEntity
  8
Layer_1
 62
5
100
AcDbLine
 10
-217.549850
 20
139.621480
 30
0.0
 11
-220.195680
 21
136.975650
 31
0.0
  0
LINE
  5
336
100
AcDbEntity
  8
Layer_1
 62
5
100
AcDbLine
 10
-220.195680
 20
136.975650
 30
0.0
 11
-216.491520
 21
136.975650
 31
0.0
  0
LINE
  5
337
100
AcDbEntity
  8
Layer_1
 62
7
100
AcDbLine
 10
438.567890
 20
126.005180
 30
0.0
 11
119.293250
 21
126.269470
 31
0.0
  0
LINE
  5
338
100
AcDbEntity
  8
Layer_1
 62
7
100
AcDbLine
 10
119.293250
 20
126.269470
 30
0.0
 11
99.582933
 21
126.006980
 31
0.0
  0
SPLINE
  5
339
100
AcDbEntity
  8
Layer_1
 62
7
100
AcDbSpline
 70
8
 71
3
 72
8
 73
4
 74
0
 40
0
 40
0
 40
0
 40
0
 40
1
 40
1
 40
1
 40
1
 10
99.582933
 20
126.006980
 30
0.0
 10
96.878627
 20
126.006980
 30
0.0
 10
94.701874
 20
128.237390
 30
0.0
 10
94.701874
 20
131.008260
 30
0.0
  0
LINE
  5
33a
100
AcDbEntity
  8
Layer_1
 62
7
100
AcDbLine
 10
94.701874
 20
131.008260
 30
0.0
 11
94.416124
 21
148.809690
 31
0.0
  0
SPLINE
  5
33b
100
AcDbEntity
  8
Layer_1
 62
7
100
AcDbSpline
 70
8
 71
3
 72
8
 73
4
 74
0
 40
0
 40
0
 40
0
 40
0
 40
1
 40
1
 40
1
 40
1
 10
94.416124
 20
148.809690
 30
0.0
 10
94.416124
 20
151.580570
 30
0.0
 10
92.239370
 20
153.810980
 30
0.0
 10
89.535064
 20
153.810980
 30
0.0
  0
LINE
  5
33c
100
AcDbEntity
  8
Layer_1
 62
7
100
AcDbLine
 10
89.535064
 20
153.810980
 30
0.0
 11
83.185064
 21
153.810980
 31
0.0
  0
LINE
  5
33d
100
AcDbEntity
  8
Layer_1
 62
7
100
AcDbLine
 10
83.185064
 20
153.810980
 30
0.0
 11
-59.299647
 21
153.810980
 31
0.0
  0
LINE
  5
33e
100
AcDbEntity
  8
Layer_1
 62
7
100
AcDbLine
 10
-59.299647
 20
153.810980
 30
0.0
 11
-247.247740
 21
153.810980
 31
0.0
  0
LINE
  5
33f
100
AcDbEntity
  8
Layer_1
 62
7
100
AcDbLine
 10
-247.247740
 20
153.810980
 30
0.0
 11
-255.754440
 21
153.810980
 31
0.0
  0
ENDSEC
  0
SECTION
  2
OBJECTS
  0
DICTIONARY
  5
C
330
0
100
AcDbDictionary
  3
ACAD_GROUP
350
D
  3
ACAD_MLINESTYLE
350
17
  0
DICTIONARY
  5
D
330
C
100
AcDbDictionary
  0
DICTIONARY
  5
1A
330
C
100
AcDbDictionary
  0
DICTIONARY
  5
17
330
C
100
AcDbDictionary
  3
STANDARD
350
18
  0
DICTIONARY
  5
19
330
C
100
AcDbDictionary
  0
ENDSEC
  0
EOF
