  0
SECTION
  2
HEADER
  9
$ACADVER
  1
AC1014
  9
$HANDSEED
  5
FFFF
  9
$MEASUREMENT
 70
     1
  0
ENDSEC
  0
SECTION
  2
TABLES
  0
TABLE
  2
VPORT
  5
8
330
0
100
AcDbSymbolTable
 70
     4
  0
VPORT
  5
2E
330
8
100
AcDbSymbolTableRecord
100
AcDbViewportTableRecord
  2
*ACTIVE
 70
     0
 10
0.0
 20
0.0
 11
1.0
 21
1.0
 12
210.0
 22
148.5
 13
0.0
 23
0.0
 14
10.0
 24
10.0
 15
10.0
 25
10.0
 16
0.0
 26
0.0
 36
1.0
 17
0.0
 27
0.0
 37
0.0
 40
341.0
 41
1.24
 42
50.0
 43
0.0
 44
0.0
 50
0.0
 51
0.0
 71
     0
 72
   100
 73
     1
 74
     3
 75
     0
 76
     0
 77
     0
 78
     0
  0
ENDTAB
  0
TABLE
  2
LTYPE
  5
5
330
0
100
AcDbSymbolTable
 70
     1
  0
LTYPE
  5
14
330
5
100
AcDbSymbolTableRecord
100
AcDbLinetypeTableRecord
  2
BYBLOCK
 70
     0
  3

 72
    65
 73
     0
 40
0.0
  0
LTYPE
  5
15
330
5
100
AcDbSymbolTableRecord
100
AcDbLinetypeTableRecord
  2
BYLAYER
 70
     0
  3

 72
    65
 73
     0
 40
0.0
  0
LTYPE
  5
16
330
5
100
AcDbSymbolTableRecord
100
AcDbLinetypeTableRecord
  2
CONTINUOUS
 70
     0
  3
Solid line
 72
    65
 73
     0
 40
0.0
  0
ENDTAB
  0
TABLE
  2
LAYER
  5
2
100
AcDbSymbolTable
 70
2
  0
LAYER
  5
50
100
AcDbSymbolTableRecord
100
AcDbLayerTableRecord
  2
0
 70
0
  6
CONTINUOUS
  0
LAYER
  5
51
100
AcDbSymbolTableRecord
100
AcDbLayerTableRecord
  2
Layer_1
 70
0
  6
CONTINUOUS
  0
ENDTAB
  0
TABLE
  2
STYLE
  5
3
330
0
100
AcDbSymbolTable
 70
     1
  0
STYLE
  5
11
330
3
100
AcDbSymbolTableRecord
100
AcDbTextStyleTableRecord
  2
STANDARD
 70
     0
 40
0.0
 41
1.0
 50
0.0
 71
     0
 42
2.5
  3
txt
  4

  0
ENDTAB
  0
TABLE
  2
VIEW
  5
6
330
0
100
AcDbSymbolTable
 70
     0
  0
ENDTAB
  0
TABLE
  2
UCS
  5
7
330
0
100
AcDbSymbolTable
 70
     0
  0
ENDTAB
  0
TABLE
  2
APPID
  5
9
330
0
100
AcDbSymbolTable
 70
     2
  0
APPID
  5
12
330
9
100
AcDbSymbolTableRecord
100
AcDbRegAppTableRecord
  2
ACAD
 70
     0
  0
ENDTAB
  0
TABLE
  2
DIMSTYLE
  5
A
330
0
100
AcDbSymbolTable
 70
     1
  0
DIMSTYLE
105
27
330
A
100
AcDbSymbolTableRecord
100
AcDbDimStyleTableRecord
  2
ISO-25
 70
     0
  3

  4

  5

  6

  7

 40
1.0
 41
2.5
 42
0.625
 43
3.75
 44
1.25
 45
0.0
 46
0.0
 47
0.0
 48
0.0
140
2.5
141
2.5
142
0.0
143
0.03937007874016
144
1.0
145
0.0
146
1.0
147
0.625
 71
     0
 72
     0
 73
     0
 74
     0
 75
     0
 76
     0
 77
     1
 78
     8
170
     0
171
     3
172
     1
173
     0
174
     0
175
     0
176
     0
177
     0
178
     0
270
     2
271
     2
272
     2
273
     2
274
     3
340
11
275
     0
280
     0
281
     0
282
     0
283
     0
284
     8
285
     0
286
     0
287
     3
288
     0
  0
ENDTAB
  0
TABLE
  2
BLOCK_RECORD
  5
1
330
0
100
AcDbSymbolTable
 70
     1
  0
BLOCK_RECORD
  5
1F
330
1
100
AcDbSymbolTableRecord
100
AcDbBlockTableRecord
  2
*MODEL_SPACE
  0
BLOCK_RECORD
  5
1B
330
1
100
AcDbSymbolTableRecord
100
AcDbBlockTableRecord
  2
*PAPER_SPACE
  0
ENDTAB
  0
ENDSEC
  0
SECTION
  2
BLOCKS
  0
BLOCK
  5
20
330
1F
100
AcDbEntity
  8
0
100
AcDbBlockBegin
  2
*MODEL_SPACE
 70
     0
 10
0.0
 20
0.0
 30
0.0
  3
*MODEL_SPACE
  1

  0
ENDBLK
  5
21
330
1F
100
AcDbEntity
  8
0
100
AcDbBlockEnd
  0
BLOCK
  5
1C
330
1B
100
AcDbEntity
 67
     1
  8
0
100
AcDbBlockBegin
  2
*PAPER_SPACE
  1

  0
ENDBLK
  5
1D
330
1B
100
AcDbEntity
 67
     1
  8
0
100
AcDbBlockEnd
  0
ENDSEC
  0
SECTION
  2
ENTITIES
  0
SPLINE
  5
100
100
AcDbEntity
  8
Layer_1
 62
7
100
AcDbSpline
 70
8
 71
3
 72
8
 73
4
 74
0
 40
0
 40
0
 40
0
 40
0
 40
1
 40
1
 40
1
 40
1
 10
387.805321
 20
10.756931
 30
0.0
 10
390.575324
 20
10.756931
 30
0.0
 10
392.805523
 20
12.987157
 30
0.0
 10
392.867277
 20
15.799810
 30
0.0
  0
LINE
  5
101
100
AcDbEntity
  8
Layer_1
 62
7
100
AcDbLine
 10
392.867277
 20
15.799810
 30
0.0
 11
392.911277
 21
37.556511
 31
0.0
  0
SPLINE
  5
102
100
AcDbEntity
  8
Layer_1
 62
7
100
AcDbSpline
 70
8
 71
3
 72
8
 73
4
 74
0
 40
0
 40
0
 40
0
 40
0
 40
1
 40
1
 40
1
 40
1
 10
392.911277
 20
37.556511
 30
0.0
 10
392.934825
 20
40.173197
 30
0.0
 10
391.010669
 20
42.764868
 30
0.0
 10
388.337848
 20
43.444363
 30
0.0
  0
SPLINE
  5
103
100
AcDbEntity
  8
Layer_1
 62
7
100
AcDbSpline
 70
8
 71
3
 72
8
 73
4
 74
0
 40
0
 40
0
 40
0
 40
0
 40
1
 40
1
 40
1
 40
1
 10
388.337848
 20
43.444363
 30
0.0
 10
385.885161
 20
44.002988
 30
0.0
 10
383.875677
 20
46.222782
 30
0.0
 10
383.907004
 20
48.729108
 30
0.0
  0
LINE
  5
104
100
AcDbEntity
  8
Layer_1
 62
7
100
AcDbLine
 10
383.907004
 20
48.729108
 30
0.0
 11
383.904358
 21
59.918570
 31
0.0
  0
LINE
  5
105
100
AcDbEntity
  8
Layer_1
 62
7
100
AcDbLine
 10
67.157722
 20
39.778188
 30
0.0
 11
89.037073
 21
39.889421
 31
0.0
  0
LINE
  5
106
100
AcDbEntity
  8
Layer_1
 62
7
100
AcDbLine
 10
89.037073
 20
39.889421
 30
0.0
 11
339.223324
 21
39.889421
 31
0.0
  0
LINE
  5
107
100
AcDbEntity
  8
Layer_1
 62
7
100
AcDbLine
 10
136.963661
 20
10.756481
 30
0.0
 11
387.805321
 21
10.756481
 31
0.0
  0
SPLINE
  5
108
100
AcDbEntity
  8
Layer_1
 62
7
100
AcDbSpline
 70
8
 71
3
 72
8
 73
4
 74
0
 40
0
 40
0
 40
0
 40
0
 40
1
 40
1
 40
1
 40
1
 10
383.880677
 20
59.832469
 30
0.0
 10
383.880677
 20
62.603353
 30
0.0
 10
381.703924
 20
64.833756
 30
0.0
 10
378.999618
 20
64.833756
 30
0.0
  0
LINE
  5
109
100
AcDbEntity
  8
Layer_1
 62
7
100
AcDbLine
 10
378.999618
 20
64.833756
 30
0.0
 11
214.289897
 21
64.833756
 31
0.0
  0
LINE
  5
10a
100
AcDbEntity
  8
Layer_1
 62
7
100
AcDbLine
 10
214.289897
 20
64.833756
 30
0.0
 11
26.341796
 21
64.833756
 31
0.0
  0
LINE
  5
10b
100
AcDbEntity
  8
Layer_1
 62
7
100
AcDbLine
 10
26.341796
 20
64.833756
 30
0.0
 11
17.835103
 21
64.834285
 31
0.0
  0
SPLINE
  5
10c
100
AcDbEntity
  8
Layer_1
 62
7
100
AcDbSpline
 70
8
 71
3
 72
8
 73
4
 74
0
 40
0
 40
0
 40
0
 40
0
 40
1
 40
1
 40
1
 40
1
 10
12.834629
 20
59.833477
 30
0.0
 10
12.834629
 20
62.603498
 30
0.0
 10
15.064299
 20
64.833208
 30
0.0
 10
17.834328
 20
64.833208
 30
0.0
  0
SPLINE
  5
10d
100
AcDbEntity
  8
Layer_1
 62
7
100
AcDbSpline
 70
8
 71
3
 72
8
 73
4
 74
0
 40
0
 40
0
 40
0
 40
0
 40
1
 40
1
 40
1
 40
1
 10
58.643655
 20
10.757116
 30
0.0
 10
61.413684
 20
10.757116
 30
0.0
 10
63.644034
 20
12.987368
 30
0.0
 10
63.644034
 20
15.757371
 30
0.0
  0
SPLINE
  5
10e
100
AcDbEntity
  8
Layer_1
 62
7
100
AcDbSpline
 70
8
 71
3
 72
8
 73
4
 74
0
 40
0
 40
0
 40
0
 40
0
 40
1
 40
1
 40
1
 40
1
 10
63.639068
 20
34.990912
 30
0.0
 10
63.639068
 20
37.267419
 30
0.0
 10
65.146452
 20
39.176017
 30
0.0
 10
67.220759
 20
39.784948
 30
0.0
  0
LINE
  5
10f
100
AcDbEntity
  8
Layer_1
 62
7
100
AcDbLine
 10
63.644034
 20
15.757371
 30
0.0
 11
63.644034
 21
34.990912
 31
0.0
  0
LINE
  5
110
100
AcDbEntity
  8
Layer_1
 62
7
100
AcDbLine
 10
8.907568
 20
10.700866
 30
0.0
 11
58.643327
 21
10.700866
 31
0.0
  0
LINE
  5
111
100
AcDbEntity
  8
Layer_1
 62
5
100
AcDbLine
 10
-122.835016
 20
267.699352
 30
0.0
 11
-73.396303
 21
267.699352
 31
0.0
  0
LINE
  5
112
100
AcDbEntity
  8
Layer_1
 62
5
100
AcDbLine
 10
-73.396303
 20
267.699352
 30
0.0
 11
-73.396303
 21
217.696195
 31
0.0
  0
LINE
  5
113
100
AcDbEntity
  8
Layer_1
 62
5
100
AcDbLine
 10
-73.396303
 20
217.696195
 30
0.0
 11
-122.835016
 21
217.696195
 31
0.0
  0
LINE
  5
114
100
AcDbEntity
  8
Layer_1
 62
5
100
AcDbLine
 10
-122.835016
 20
217.696195
 30
0.0
 11
-122.835016
 21
267.699352
 31
0.0
  0
SPLINE
  5
115
100
AcDbEntity
  8
Layer_1
 62
7
100
AcDbSpline
 70
8
 71
3
 72
8
 73
4
 74
0
 40
0
 40
0
 40
0
 40
0
 40
1
 40
1
 40
1
 40
1
 10
114.598207
 20
13.700394
 30
0.0
 10
114.598205
 20
12.925304
 30
0.0
 10
114.914322
 20
12.181959
 30
0.0
 10
115.477016
 20
11.633888
 30
0.0
  0
SPLINE
  5
116
100
AcDbEntity
  8
Layer_1
 62
7
100
AcDbSpline
 70
8
 71
3
 72
8
 73
4
 74
0
 40
0
 40
0
 40
0
 40
0
 40
1
 40
1
 40
1
 40
1
 10
115.477016
 20
11.633888
 30
0.0
 10
116.039710
 20
11.085816
 30
0.0
 10
116.802888
 20
10.777912
 30
0.0
 10
117.598658
 20
10.777912
 30
0.0
  0
LINE
  5
117
100
AcDbEntity
  8
Layer_1
 62
7
100
AcDbLine
 10
114.598207
 20
13.700394
 30
0.0
 11
114.598207
 21
18.084117
 31
0.0
  0
SPLINE
  5
118
100
AcDbEntity
  8
Layer_1
 62
7
100
AcDbSpline
 70
8
 71
3
 72
8
 73
4
 74
0
 40
0
 40
0
 40
0
 40
0
 40
1
 40
1
 40
1
 40
1
 10
114.598207
 20
18.084117
 30
0.0
 10
115.093882
 20
18.086112
 30
0.0
 10
115.494623
 20
18.478055
 30
0.0
 10
115.494623
 20
18.960853
 30
0.0
  0
SPLINE
  5
119
100
AcDbEntity
  8
Layer_1
 62
7
100
AcDbSpline
 70
8
 71
3
 72
8
 73
4
 74
0
 40
0
 40
0
 40
0
 40
0
 40
1
 40
1
 40
1
 40
1
 10
115.494623
 20
18.960853
 30
0.0
 10
115.494623
 20
19.443651
 30
0.0
 10
115.093882
 20
19.835594
 30
0.0
 10
114.598207
 20
19.837590
 30
0.0
  0
LINE
  5
11a
100
AcDbEntity
  8
Layer_1
 62
7
100
AcDbLine
 10
114.598207
 20
19.837590
 30
0.0
 11
114.598207
 21
30.943025
 31
0.0
  0
SPLINE
  5
11b
100
AcDbEntity
  8
Layer_1
 62
7
100
AcDbSpline
 70
8
 71
3
 72
8
 73
4
 74
0
 40
0
 40
0
 40
0
 40
0
 40
1
 40
1
 40
1
 40
1
 10
114.598207
 20
30.943025
 30
0.0
 10
115.095338
 20
30.943025
 30
0.0
 10
115.498342
 20
31.335557
 30
0.0
 10
115.498342
 20
31.819768
 30
0.0
  0
SPLINE
  5
11c
100
AcDbEntity
  8
Layer_1
 62
7
100
AcDbSpline
 70
8
 71
3
 72
8
 73
4
 74
0
 40
0
 40
0
 40
0
 40
0
 40
1
 40
1
 40
1
 40
1
 10
115.498342
 20
31.819768
 30
0.0
 10
115.498342
 20
32.303980
 30
0.0
 10
115.095338
 20
32.696512
 30
0.0
 10
114.598207
 20
32.696512
 30
0.0
  0
LINE
  5
11d
100
AcDbEntity
  8
Layer_1
 62
7
100
AcDbLine
 10
114.597259
 20
32.695551
 30
0.0
 11
114.597259
 21
37.013665
 31
0.0
  0
SPLINE
  5
11e
100
AcDbEntity
  8
Layer_1
 62
7
100
AcDbSpline
 70
8
 71
3
 72
8
 73
4
 74
0
 40
0
 40
0
 40
0
 40
0
 40
1
 40
1
 40
1
 40
1
 10
117.599606
 20
39.892408
 30
0.0
 10
116.803333
 20
39.892409
 30
0.0
 10
116.039674
 20
39.589113
 30
0.0
 10
115.476625
 20
39.049244
 30
0.0
  0
SPLINE
  5
11f
100
AcDbEntity
  8
Layer_1
 62
7
100
AcDbSpline
 70
8
 71
3
 72
8
 73
4
 74
0
 40
0
 40
0
 40
0
 40
0
 40
1
 40
1
 40
1
 40
1
 10
115.476625
 20
39.049244
 30
0.0
 10
114.913576
 20
38.509375
 30
0.0
 10
114.597258
 20
37.777155
 30
0.0
 10
114.597259
 20
37.013665
 30
0.0
  0
SPLINE
  5
120
100
AcDbEntity
  8
Layer_1
 62
7
100
AcDbSpline
 70
8
 71
3
 72
8
 73
4
 74
0
 40
0
 40
0
 40
0
 40
0
 40
1
 40
1
 40
1
 40
1
 10
132.700379
 20
37.077826
 30
0.0
 10
132.700380
 20
37.824672
 30
0.0
 10
132.384069
 20
38.540930
 30
0.0
 10
131.821031
 20
39.069030
 30
0.0
  0
SPLINE
  5
121
100
AcDbEntity
  8
Layer_1
 62
7
100
AcDbSpline
 70
8
 71
3
 72
8
 73
4
 74
0
 40
0
 40
0
 40
0
 40
0
 40
1
 40
1
 40
1
 40
1
 10
131.821031
 20
39.069030
 30
0.0
 10
131.257993
 20
39.597130
 30
0.0
 10
130.494348
 20
39.893813
 30
0.0
 10
129.698091
 20
39.893813
 30
0.0
  0
LINE
  5
122
100
AcDbEntity
  8
Layer_1
 62
7
100
AcDbLine
 10
132.700929
 20
37.080231
 30
0.0
 11
132.700929
 21
31.819749
 31
0.0
  0
SPLINE
  5
123
100
AcDbEntity
  8
Layer_1
 62
7
100
AcDbSpline
 70
8
 71
3
 72
8
 73
4
 74
0
 40
0
 40
0
 40
0
 40
0
 40
1
 40
1
 40
1
 40
1
 10
132.700929
 20
31.819749
 30
0.0
 10
132.701454
 20
31.335899
 30
0.0
 10
133.104305
 20
30.943932
 30
0.0
 10
133.601064
 20
30.943932
 30
0.0
  0
SPLINE
  5
124
100
AcDbEntity
  8
Layer_1
 62
7
100
AcDbSpline
 70
8
 71
3
 72
8
 73
4
 74
0
 40
0
 40
0
 40
0
 40
0
 40
1
 40
1
 40
1
 40
1
 10
133.601064
 20
30.943932
 30
0.0
 10
134.097824
 20
30.943932
 30
0.0
 10
134.500674
 20
31.335899
 30
0.0
 10
134.501199
 20
31.819749
 30
0.0
  0
LINE
  5
125
100
AcDbEntity
  8
Layer_1
 62
7
100
AcDbLine
 10
134.501199
 20
31.819749
 30
0.0
 11
134.501199
 21
37.080231
 31
0.0
  0
SPLINE
  5
126
100
AcDbEntity
  8
Layer_1
 62
7
100
AcDbSpline
 70
8
 71
3
 72
8
 73
4
 74
0
 40
0
 40
0
 40
0
 40
0
 40
1
 40
1
 40
1
 40
1
 10
137.504040
 20
39.893813
 30
0.0
 10
136.707783
 20
39.893814
 30
0.0
 10
135.944138
 20
39.597131
 30
0.0
 10
135.381099
 20
39.069031
 30
0.0
  0
SPLINE
  5
127
100
AcDbEntity
  8
Layer_1
 62
7
100
AcDbSpline
 70
8
 71
3
 72
8
 73
4
 74
0
 40
0
 40
0
 40
0
 40
0
 40
1
 40
1
 40
1
 40
1
 10
135.381099
 20
39.069031
 30
0.0
 10
134.818060
 20
38.540930
 30
0.0
 10
134.501748
 20
37.824673
 30
0.0
 10
134.501750
 20
37.077826
 30
0.0
  0
SPLINE
  5
128
100
AcDbEntity
  8
Layer_1
 62
7
100
AcDbSpline
 70
8
 71
3
 72
8
 73
4
 74
0
 40
0
 40
0
 40
0
 40
0
 40
1
 40
1
 40
1
 40
1
 10
134.501199
 20
13.700394
 30
0.0
 10
134.501198
 20
12.925304
 30
0.0
 10
134.817316
 20
12.181959
 30
0.0
 10
135.380010
 20
11.633887
 30
0.0
  0
SPLINE
  5
129
100
AcDbEntity
  8
Layer_1
 62
7
100
AcDbSpline
 70
8
 71
3
 72
8
 73
4
 74
0
 40
0
 40
0
 40
0
 40
0
 40
1
 40
1
 40
1
 40
1
 10
135.380010
 20
11.633887
 30
0.0
 10
135.942705
 20
11.085815
 30
0.0
 10
136.705883
 20
10.777912
 30
0.0
 10
137.501654
 20
10.777912
 30
0.0
  0
LINE
  5
12a
100
AcDbEntity
  8
Layer_1
 62
7
100
AcDbLine
 10
134.501199
 20
13.700394
 30
0.0
 11
134.501199
 21
18.960866
 31
0.0
  0
SPLINE
  5
12b
100
AcDbEntity
  8
Layer_1
 62
7
100
AcDbSpline
 70
8
 71
3
 72
8
 73
4
 74
0
 40
0
 40
0
 40
0
 40
0
 40
1
 40
1
 40
1
 40
1
 10
134.501199
 20
18.960866
 30
0.0
 10
134.500674
 20
19.444716
 30
0.0
 10
134.097824
 20
19.836682
 30
0.0
 10
133.601064
 20
19.836682
 30
0.0
  0
SPLINE
  5
12c
100
AcDbEntity
  8
Layer_1
 62
7
100
AcDbSpline
 70
8
 71
3
 72
8
 73
4
 74
0
 40
0
 40
0
 40
0
 40
0
 40
1
 40
1
 40
1
 40
1
 10
133.601064
 20
19.836682
 30
0.0
 10
133.104305
 20
19.836682
 30
0.0
 10
132.701454
 20
19.444716
 30
0.0
 10
132.700929
 20
18.960866
 30
0.0
  0
LINE
  5
12d
100
AcDbEntity
  8
Layer_1
 62
7
100
AcDbLine
 10
132.700929
 20
18.960866
 30
0.0
 11
132.700929
 21
13.700394
 31
0.0
  0
SPLINE
  5
12e
100
AcDbEntity
  8
Layer_1
 62
7
100
AcDbSpline
 70
8
 71
3
 72
8
 73
4
 74
0
 40
0
 40
0
 40
0
 40
0
 40
1
 40
1
 40
1
 40
1
 10
129.700478
 20
10.777912
 30
0.0
 10
130.496248
 20
10.777912
 30
0.0
 10
131.259426
 20
11.085816
 30
0.0
 10
131.822120
 20
11.633888
 30
0.0
  0
SPLINE
  5
12f
100
AcDbEntity
  8
Layer_1
 62
7
100
AcDbSpline
 70
8
 71
3
 72
8
 73
4
 74
0
 40
0
 40
0
 40
0
 40
0
 40
1
 40
1
 40
1
 40
1
 10
131.822120
 20
11.633888
 30
0.0
 10
132.384814
 20
12.181959
 30
0.0
 10
132.700931
 20
12.925304
 30
0.0
 10
132.700929
 20
13.700394
 30
0.0
  0
LINE
  5
130
100
AcDbEntity
  8
Layer_1
 62
7
100
AcDbLine
 10
129.700478
 20
10.777912
 30
0.0
 11
117.598658
 21
10.777912
 31
0.0
  0
LINE
  5
131
100
AcDbEntity
  8
Layer_1
 62
7
100
AcDbLine
 10
14.140913
 20
-11.858938
 30
0.0
 11
30.196123
 21
-16.160904
 31
0.0
  0
SPLINE
  5
132
100
AcDbEntity
  8
Layer_1
 62
7
100
AcDbSpline
 70
8
 71
3
 72
8
 73
4
 74
0
 40
0
 40
0
 40
0
 40
0
 40
1
 40
1
 40
1
 40
1
 10
30.196123
 20
-16.160904
 30
0.0
 10
30.449363
 20
-16.228764
 30
0.0
 10
30.710406
 20
-16.263135
 30
0.0
 10
30.972580
 20
-16.263139
 30
0.0
  0
LINE
  5
133
100
AcDbEntity
  8
Layer_1
 62
7
100
AcDbLine
 10
30.972580
 20
-16.263139
 30
0.0
 11
373.559017
 21
-16.263139
 31
0.0
  0
LINE
  5
134
100
AcDbEntity
  8
Layer_1
 62
7
100
AcDbLine
 10
373.559017
 20
-16.263139
 30
0.0
 11
373.559017
 21
-17.863128
 31
0.0
  0
SPLINE
  5
135
100
AcDbEntity
  8
Layer_1
 62
7
100
AcDbSpline
 70
8
 71
3
 72
8
 73
4
 74
0
 40
0
 40
0
 40
0
 40
0
 40
1
 40
1
 40
1
 40
1
 10
373.559017
 20
-17.863128
 30
0.0
 10
373.559014
 20
-18.340522
 30
0.0
 10
373.748656
 20
-18.798364
 30
0.0
 10
374.086225
 20
-19.135933
 30
0.0
  0
SPLINE
  5
136
100
AcDbEntity
  8
Layer_1
 62
7
100
AcDbSpline
 70
8
 71
3
 72
8
 73
4
 74
0
 40
0
 40
0
 40
0
 40
0
 40
1
 40
1
 40
1
 40
1
 10
374.086225
 20
-19.135933
 30
0.0
 10
374.423794
 20
-19.473502
 30
0.0
 10
374.881636
 20
-19.663144
 30
0.0
 10
375.359030
 20
-19.663141
 30
0.0
  0
LINE
  5
137
100
AcDbEntity
  8
Layer_1
 62
7
100
AcDbLine
 10
375.359030
 20
-19.663141
 30
0.0
 11
381.759037
 21
-19.663141
 31
0.0
  0
SPLINE
  5
138
100
AcDbEntity
  8
Layer_1
 62
7
100
AcDbSpline
 70
8
 71
3
 72
8
 73
4
 74
0
 40
0
 40
0
 40
0
 40
0
 40
1
 40
1
 40
1
 40
1
 10
381.759037
 20
-19.663141
 30
0.0
 10
382.236426
 20
-19.663137
 30
0.0
 10
382.694262
 20
-19.473492
 30
0.0
 10
383.031825
 20
-19.135924
 30
0.0
  0
SPLINE
  5
139
100
AcDbEntity
  8
Layer_1
 62
7
100
AcDbSpline
 70
8
 71
3
 72
8
 73
4
 74
0
 40
0
 40
0
 40
0
 40
0
 40
1
 40
1
 40
1
 40
1
 10
383.031825
 20
-19.135924
 30
0.0
 10
383.369388
 20
-18.798356
 30
0.0
 10
383.559027
 20
-18.340517
 30
0.0
 10
383.559024
 20
-17.863128
 30
0.0
  0
LINE
  5
13a
100
AcDbEntity
  8
Layer_1
 62
7
100
AcDbLine
 10
383.559024
 20
-17.863128
 30
0.0
 11
383.559024
 21
6.536853
 31
0.0
  0
SPLINE
  5
13b
100
AcDbEntity
  8
Layer_1
 62
7
100
AcDbSpline
 70
8
 71
3
 72
8
 73
4
 74
0
 40
0
 40
0
 40
0
 40
0
 40
1
 40
1
 40
1
 40
1
 10
383.559024
 20
6.536853
 30
0.0
 10
383.559027
 20
7.014243
 30
0.0
 10
383.369388
 20
7.472081
 30
0.0
 10
383.031825
 20
7.809649
 30
0.0
  0
SPLINE
  5
13c
100
AcDbEntity
  8
Layer_1
 62
7
100
AcDbSpline
 70
8
 71
3
 72
8
 73
4
 74
0
 40
0
 40
0
 40
0
 40
0
 40
1
 40
1
 40
1
 40
1
 10
383.031825
 20
7.809649
 30
0.0
 10
382.694262
 20
8.147217
 30
0.0
 10
382.236426
 20
8.336863
 30
0.0
 10
381.759037
 20
8.336867
 30
0.0
  0
LINE
  5
13d
100
AcDbEntity
  8
Layer_1
 62
7
100
AcDbLine
 10
381.759037
 20
8.336867
 30
0.0
 11
375.359030
 21
8.336867
 31
0.0
  0
SPLINE
  5
13e
100
AcDbEntity
  8
Layer_1
 62
7
100
AcDbSpline
 70
8
 71
3
 72
8
 73
4
 74
0
 40
0
 40
0
 40
0
 40
0
 40
1
 40
1
 40
1
 40
1
 10
375.359030
 20
8.336867
 30
0.0
 10
374.881636
 20
8.336870
 30
0.0
 10
374.423794
 20
8.147227
 30
0.0
 10
374.086225
 20
7.809659
 30
0.0
  0
SPLINE
  5
13f
100
AcDbEntity
  8
Layer_1
 62
7
100
AcDbSpline
 70
8
 71
3
 72
8
 73
4
 74
0
 40
0
 40
0
 40
0
 40
0
 40
1
 40
1
 40
1
 40
1
 10
374.086225
 20
7.809659
 30
0.0
 10
373.748656
 20
7.472090
 30
0.0
 10
373.559014
 20
7.014247
 30
0.0
 10
373.559017
 20
6.536853
 30
0.0
  0
LINE
  5
140
100
AcDbEntity
  8
Layer_1
 62
7
100
AcDbLine
 10
373.559017
 20
6.536853
 30
0.0
 11
373.559017
 21
4.936865
 31
0.0
  0
LINE
  5
141
100
AcDbEntity
  8
Layer_1
 62
7
100
AcDbLine
 10
373.559017
 20
4.936865
 30
0.0
 11
30.972580
 21
4.936865
 31
0.0
  0
SPLINE
  5
142
100
AcDbEntity
  8
Layer_1
 62
7
100
AcDbSpline
 70
8
 71
3
 72
8
 73
4
 74
0
 40
0
 40
0
 40
0
 40
0
 40
1
 40
1
 40
1
 40
1
 10
30.972580
 20
4.936865
 30
0.0
 10
30.710406
 20
4.936861
 30
0.0
 10
30.449363
 20
4.902490
 30
0.0
 10
30.196123
 20
4.834630
 30
0.0
  0
LINE
  5
143
100
AcDbEntity
  8
Layer_1
 62
7
100
AcDbLine
 10
30.196123
 20
4.834630
 30
0.0
 11
14.140913
 21
0.532664
 31
0.0
  0
SPLINE
  5
144
100
AcDbEntity
  8
Layer_1
 62
7
100
AcDbSpline
 70
8
 71
3
 72
8
 73
4
 74
0
 40
0
 40
0
 40
0
 40
0
 40
1
 40
1
 40
1
 40
1
 10
14.140913
 20
0.532664
 30
0.0
 10
12.829365
 20
0.181235
 30
0.0
 10
11.917374
 20
-1.007292
 30
0.0
 10
11.917370
 20
-2.365106
 30
0.0
  0
LINE
  5
145
100
AcDbEntity
  8
Layer_1
 62
7
100
AcDbLine
 10
11.917370
 20
-2.365106
 30
0.0
 11
11.917370
 21
-8.961142
 31
0.0
  0
SPLINE
  5
146
100
AcDbEntity
  8
Layer_1
 62
7
100
AcDbSpline
 70
8
 71
3
 72
8
 73
4
 74
0
 40
0
 40
0
 40
0
 40
0
 40
1
 40
1
 40
1
 40
1
 10
11.917370
 20
-8.961168
 30
0.0
 10
11.917374
 20
-10.318983
 30
0.0
 10
12.829365
 20
-11.507510
 30
0.0
 10
14.140913
 20
-11.858938
 30
0.0
  0
LINE
  5
147
100
AcDbEntity
  8
Layer_1
 62
1
100
AcDbLine
 10
26.617269
 20
0.024187
 30
0.0
 11
27.589663
 21
0.008842
 31
0.0
  0
LINE
  5
148
100
AcDbEntity
  8
Layer_1
 62
1
100
AcDbLine
 10
29.065897
 20
-1.491028
 30
0.0
 11
29.065897
 21
-9.835246
 31
0.0
  0
SPLINE
  5
149
100
AcDbEntity
  8
Layer_1
 62
1
100
AcDbSpline
 70
8
 71
3
 72
8
 73
4
 74
0
 40
0
 40
0
 40
0
 40
0
 40
1
 40
1
 40
1
 40
1
 10
29.065897
 20
-1.491028
 30
0.0
 10
29.065900
 20
-0.671865
 30
0.0
 10
28.408723
 20
-0.004190
 30
0.0
 10
27.589663
 20
0.008789
 30
0.0
  0
LINE
  5
14a
100
AcDbEntity
  8
Layer_1
 62
1
100
AcDbLine
 10
27.589663
 20
-11.335063
 30
0.0
 11
26.617269
 21
-11.350409
 31
0.0
  0
SPLINE
  5
14b
100
AcDbEntity
  8
Layer_1
 62
1
100
AcDbSpline
 70
8
 71
3
 72
8
 73
4
 74
0
 40
0
 40
0
 40
0
 40
0
 40
1
 40
1
 40
1
 40
1
 10
27.589663
 20
-11.335063
 30
0.0
 10
28.408723
 20
-11.322085
 30
0.0
 10
29.065900
 20
-10.654409
 30
0.0
 10
29.065897
 20
-9.835246
 30
0.0
  0
LINE
  5
14c
100
AcDbEntity
  8
Layer_1
 62
1
100
AcDbLine
 10
34.174250
 20
0.024187
 30
0.0
 11
35.146641
 21
0.008842
 31
0.0
  0
LINE
  5
14d
100
AcDbEntity
  8
Layer_1
 62
1
100
AcDbLine
 10
36.622879
 20
-1.491028
 30
0.0
 11
36.622879
 21
-9.835246
 31
0.0
  0
SPLINE
  5
14e
100
AcDbEntity
  8
Layer_1
 62
1
100
AcDbSpline
 70
8
 71
3
 72
8
 73
4
 74
0
 40
0
 40
0
 40
0
 40
0
 40
1
 40
1
 40
1
 40
1
 10
36.622879
 20
-1.491028
 30
0.0
 10
36.622882
 20
-0.671864
 30
0.0
 10
35.965703
 20
-0.004188
 30
0.0
 10
35.146641
 20
0.008789
 30
0.0
  0
LINE
  5
14f
100
AcDbEntity
  8
Layer_1
 62
1
100
AcDbLine
 10
35.146641
 20
-11.335063
 30
0.0
 11
34.174250
 21
-11.350409
 31
0.0
  0
SPLINE
  5
150
100
AcDbEntity
  8
Layer_1
 62
1
100
AcDbSpline
 70
8
 71
3
 72
8
 73
4
 74
0
 40
0
 40
0
 40
0
 40
0
 40
1
 40
1
 40
1
 40
1
 10
35.146641
 20
-11.335063
 30
0.0
 10
35.965703
 20
-11.322086
 30
0.0
 10
36.622882
 20
-10.654410
 30
0.0
 10
36.622879
 20
-9.835246
 30
0.0
  0
LINE
  5
151
100
AcDbEntity
  8
Layer_1
 62
1
100
AcDbLine
 10
41.731232
 20
0.024187
 30
0.0
 11
42.703623
 21
0.008842
 31
0.0
  0
LINE
  5
152
100
AcDbEntity
  8
Layer_1
 62
1
100
AcDbLine
 10
44.179860
 20
-1.491028
 30
0.0
 11
44.179860
 21
-9.835246
 31
0.0
  0
SPLINE
  5
153
100
AcDbEntity
  8
Layer_1
 62
1
100
AcDbSpline
 70
8
 71
3
 72
8
 73
4
 74
0
 40
0
 40
0
 40
0
 40
0
 40
1
 40
1
 40
1
 40
1
 10
44.179860
 20
-1.491028
 30
0.0
 10
44.179863
 20
-0.671864
 30
0.0
 10
43.522684
 20
-0.004188
 30
0.0
 10
42.703623
 20
0.008789
 30
0.0
  0
LINE
  5
154
100
AcDbEntity
  8
Layer_1
 62
1
100
AcDbLine
 10
42.703623
 20
-11.335063
 30
0.0
 11
41.731232
 21
-11.350409
 31
0.0
  0
SPLINE
  5
155
100
AcDbEntity
  8
Layer_1
 62
1
100
AcDbSpline
 70
8
 71
3
 72
8
 73
4
 74
0
 40
0
 40
0
 40
0
 40
0
 40
1
 40
1
 40
1
 40
1
 10
42.703623
 20
-11.335063
 30
0.0
 10
43.522684
 20
-11.322086
 30
0.0
 10
44.179863
 20
-10.654410
 30
0.0
 10
44.179860
 20
-9.835246
 30
0.0
  0
LINE
  5
156
100
AcDbEntity
  8
Layer_1
 62
1
100
AcDbLine
 10
49.288213
 20
0.024187
 30
0.0
 11
50.260605
 21
0.008842
 31
0.0
  0
LINE
  5
157
100
AcDbEntity
  8
Layer_1
 62
1
100
AcDbLine
 10
51.736842
 20
-1.491028
 30
0.0
 11
51.736842
 21
-9.835246
 31
0.0
  0
SPLINE
  5
158
100
AcDbEntity
  8
Layer_1
 62
1
100
AcDbSpline
 70
8
 71
3
 72
8
 73
4
 74
0
 40
0
 40
0
 40
0
 40
0
 40
1
 40
1
 40
1
 40
1
 10
51.736842
 20
-1.491028
 30
0.0
 10
51.736845
 20
-0.671864
 30
0.0
 10
51.079666
 20
-0.004188
 30
0.0
 10
50.260605
 20
0.008789
 30
0.0
  0
LINE
  5
159
100
AcDbEntity
  8
Layer_1
 62
1
100
AcDbLine
 10
50.260605
 20
-11.335063
 30
0.0
 11
49.288213
 21
-11.350409
 31
0.0
  0
SPLINE
  5
15a
100
AcDbEntity
  8
Layer_1
 62
1
100
AcDbSpline
 70
8
 71
3
 72
8
 73
4
 74
0
 40
0
 40
0
 40
0
 40
0
 40
1
 40
1
 40
1
 40
1
 10
50.260605
 20
-11.335063
 30
0.0
 10
51.079666
 20
-11.322086
 30
0.0
 10
51.736845
 20
-10.654410
 30
0.0
 10
51.736842
 20
-9.835246
 30
0.0
  0
LINE
  5
15b
100
AcDbEntity
  8
Layer_1
 62
1
100
AcDbLine
 10
56.845192
 20
0.024187
 30
0.0
 11
57.817586
 21
0.008842
 31
0.0
  0
LINE
  5
15c
100
AcDbEntity
  8
Layer_1
 62
1
100
AcDbLine
 10
59.293821
 20
-1.491028
 30
0.0
 11
59.293821
 21
-9.835246
 31
0.0
  0
SPLINE
  5
15d
100
AcDbEntity
  8
Layer_1
 62
1
100
AcDbSpline
 70
8
 71
3
 72
8
 73
4
 74
0
 40
0
 40
0
 40
0
 40
0
 40
1
 40
1
 40
1
 40
1
 10
59.293821
 20
-1.491028
 30
0.0
 10
59.293824
 20
-0.671865
 30
0.0
 10
58.636646
 20
-0.004190
 30
0.0
 10
57.817586
 20
0.008789
 30
0.0
  0
LINE
  5
15e
100
AcDbEntity
  8
Layer_1
 62
1
100
AcDbLine
 10
57.817586
 20
-11.335063
 30
0.0
 11
56.845192
 21
-11.350409
 31
0.0
  0
SPLINE
  5
15f
100
AcDbEntity
  8
Layer_1
 62
1
100
AcDbSpline
 70
8
 71
3
 72
8
 73
4
 74
0
 40
0
 40
0
 40
0
 40
0
 40
1
 40
1
 40
1
 40
1
 10
57.817586
 20
-11.335063
 30
0.0
 10
58.636646
 20
-11.322085
 30
0.0
 10
59.293824
 20
-10.654409
 30
0.0
 10
59.293821
 20
-9.835246
 30
0.0
  0
LINE
  5
160
100
AcDbEntity
  8
Layer_1
 62
1
100
AcDbLine
 10
64.402174
 20
0.024187
 30
0.0
 11
65.374568
 21
0.008842
 31
0.0
  0
LINE
  5
161
100
AcDbEntity
  8
Layer_1
 62
1
100
AcDbLine
 10
66.850802
 20
-1.491028
 30
0.0
 11
66.850802
 21
-9.835246
 31
0.0
  0
SPLINE
  5
162
100
AcDbEntity
  8
Layer_1
 62
1
100
AcDbSpline
 70
8
 71
3
 72
8
 73
4
 74
0
 40
0
 40
0
 40
0
 40
0
 40
1
 40
1
 40
1
 40
1
 10
66.850802
 20
-1.491028
 30
0.0
 10
66.850805
 20
-0.671865
 30
0.0
 10
66.193628
 20
-0.004190
 30
0.0
 10
65.374568
 20
0.008789
 30
0.0
  0
LINE
  5
163
100
AcDbEntity
  8
Layer_1
 62
1
100
AcDbLine
 10
65.374568
 20
-11.335063
 30
0.0
 11
64.402174
 21
-11.350409
 31
0.0
  0
SPLINE
  5
164
100
AcDbEntity
  8
Layer_1
 62
1
100
AcDbSpline
 70
8
 71
3
 72
8
 73
4
 74
0
 40
0
 40
0
 40
0
 40
0
 40
1
 40
1
 40
1
 40
1
 10
65.374568
 20
-11.335063
 30
0.0
 10
66.193628
 20
-11.322085
 30
0.0
 10
66.850805
 20
-10.654409
 30
0.0
 10
66.850802
 20
-9.835246
 30
0.0
  0
LINE
  5
165
100
AcDbEntity
  8
Layer_1
 62
1
100
AcDbLine
 10
71.959155
 20
0.024187
 30
0.0
 11
72.931549
 21
0.008842
 31
0.0
  0
LINE
  5
166
100
AcDbEntity
  8
Layer_1
 62
1
100
AcDbLine
 10
74.407784
 20
-1.491028
 30
0.0
 11
74.407784
 21
-9.835246
 31
0.0
  0
SPLINE
  5
167
100
AcDbEntity
  8
Layer_1
 62
1
100
AcDbSpline
 70
8
 71
3
 72
8
 73
4
 74
0
 40
0
 40
0
 40
0
 40
0
 40
1
 40
1
 40
1
 40
1
 10
74.407784
 20
-1.491028
 30
0.0
 10
74.407787
 20
-0.671865
 30
0.0
 10
73.750609
 20
-0.004190
 30
0.0
 10
72.931549
 20
0.008789
 30
0.0
  0
LINE
  5
168
100
AcDbEntity
  8
Layer_1
 62
1
100
AcDbLine
 10
72.931549
 20
-11.335063
 30
0.0
 11
71.959155
 21
-11.350409
 31
0.0
  0
SPLINE
  5
169
100
AcDbEntity
  8
Layer_1
 62
1
100
AcDbSpline
 70
8
 71
3
 72
8
 73
4
 74
0
 40
0
 40
0
 40
0
 40
0
 40
1
 40
1
 40
1
 40
1
 10
72.931549
 20
-11.335063
 30
0.0
 10
73.750609
 20
-11.322085
 30
0.0
 10
74.407787
 20
-10.654409
 30
0.0
 10
74.407784
 20
-9.835246
 30
0.0
  0
LINE
  5
16a
100
AcDbEntity
  8
Layer_1
 62
1
100
AcDbLine
 10
79.516137
 20
0.024187
 30
0.0
 11
80.488528
 21
0.008842
 31
0.0
  0
LINE
  5
16b
100
AcDbEntity
  8
Layer_1
 62
1
100
AcDbLine
 10
81.964765
 20
-1.491028
 30
0.0
 11
81.964765
 21
-9.835246
 31
0.0
  0
SPLINE
  5
16c
100
AcDbEntity
  8
Layer_1
 62
1
100
AcDbSpline
 70
8
 71
3
 72
8
 73
4
 74
0
 40
0
 40
0
 40
0
 40
0
 40
1
 40
1
 40
1
 40
1
 10
81.964765
 20
-1.491028
 30
0.0
 10
81.964768
 20
-0.671864
 30
0.0
 10
81.307589
 20
-0.004188
 30
0.0
 10
80.488528
 20
0.008789
 30
0.0
  0
LINE
  5
16d
100
AcDbEntity
  8
Layer_1
 62
1
100
AcDbLine
 10
80.488528
 20
-11.335063
 30
0.0
 11
79.516137
 21
-11.350409
 31
0.0
  0
SPLINE
  5
16e
100
AcDbEntity
  8
Layer_1
 62
1
100
AcDbSpline
 70
8
 71
3
 72
8
 73
4
 74
0
 40
0
 40
0
 40
0
 40
0
 40
1
 40
1
 40
1
 40
1
 10
80.488528
 20
-11.335063
 30
0.0
 10
81.307589
 20
-11.322086
 30
0.0
 10
81.964768
 20
-10.654410
 30
0.0
 10
81.964765
 20
-9.835246
 30
0.0
  0
LINE
  5
16f
100
AcDbEntity
  8
Layer_1
 62
1
100
AcDbLine
 10
87.073118
 20
0.024187
 30
0.0
 11
88.045510
 21
0.008842
 31
0.0
  0
LINE
  5
170
100
AcDbEntity
  8
Layer_1
 62
1
100
AcDbLine
 10
89.521747
 20
-1.491028
 30
0.0
 11
89.521747
 21
-9.835246
 31
0.0
  0
SPLINE
  5
171
100
AcDbEntity
  8
Layer_1
 62
1
100
AcDbSpline
 70
8
 71
3
 72
8
 73
4
 74
0
 40
0
 40
0
 40
0
 40
0
 40
1
 40
1
 40
1
 40
1
 10
89.521747
 20
-1.491028
 30
0.0
 10
89.521750
 20
-0.671864
 30
0.0
 10
88.864571
 20
-0.004188
 30
0.0
 10
88.045510
 20
0.008789
 30
0.0
  0
LINE
  5
172
100
AcDbEntity
  8
Layer_1
 62
1
100
AcDbLine
 10
88.045510
 20
-11.335063
 30
0.0
 11
87.073118
 21
-11.350409
 31
0.0
  0
SPLINE
  5
173
100
AcDbEntity
  8
Layer_1
 62
1
100
AcDbSpline
 70
8
 71
3
 72
8
 73
4
 74
0
 40
0
 40
0
 40
0
 40
0
 40
1
 40
1
 40
1
 40
1
 10
88.045510
 20
-11.335063
 30
0.0
 10
88.864571
 20
-11.322086
 30
0.0
 10
89.521750
 20
-10.654410
 30
0.0
 10
89.521747
 20
-9.835246
 30
0.0
  0
LINE
  5
174
100
AcDbEntity
  8
Layer_1
 62
1
100
AcDbLine
 10
94.630097
 20
0.024187
 30
0.0
 11
95.602491
 21
0.008842
 31
0.0
  0
LINE
  5
175
100
AcDbEntity
  8
Layer_1
 62
1
100
AcDbLine
 10
97.078726
 20
-1.491028
 30
0.0
 11
97.078726
 21
-9.835246
 31
0.0
  0
SPLINE
  5
176
100
AcDbEntity
  8
Layer_1
 62
1
100
AcDbSpline
 70
8
 71
3
 72
8
 73
4
 74
0
 40
0
 40
0
 40
0
 40
0
 40
1
 40
1
 40
1
 40
1
 10
97.078726
 20
-1.491028
 30
0.0
 10
97.078729
 20
-0.671865
 30
0.0
 10
96.421551
 20
-0.004190
 30
0.0
 10
95.602491
 20
0.008789
 30
0.0
  0
LINE
  5
177
100
AcDbEntity
  8
Layer_1
 62
1
100
AcDbLine
 10
95.602491
 20
-11.335063
 30
0.0
 11
94.630097
 21
-11.350409
 31
0.0
  0
SPLINE
  5
178
100
AcDbEntity
  8
Layer_1
 62
1
100
AcDbSpline
 70
8
 71
3
 72
8
 73
4
 74
0
 40
0
 40
0
 40
0
 40
0
 40
1
 40
1
 40
1
 40
1
 10
95.602491
 20
-11.335063
 30
0.0
 10
96.421551
 20
-11.322085
 30
0.0
 10
97.078729
 20
-10.654409
 30
0.0
 10
97.078726
 20
-9.835246
 30
0.0
  0
LINE
  5
179
100
AcDbEntity
  8
Layer_1
 62
1
100
AcDbLine
 10
102.187079
 20
0.024187
 30
0.0
 11
103.159473
 21
0.008842
 31
0.0
  0
LINE
  5
17a
100
AcDbEntity
  8
Layer_1
 62
1
100
AcDbLine
 10
104.635707
 20
-1.491028
 30
0.0
 11
104.635707
 21
-9.835246
 31
0.0
  0
SPLINE
  5
17b
100
AcDbEntity
  8
Layer_1
 62
1
100
AcDbSpline
 70
8
 71
3
 72
8
 73
4
 74
0
 40
0
 40
0
 40
0
 40
0
 40
1
 40
1
 40
1
 40
1
 10
104.635707
 20
-1.491028
 30
0.0
 10
104.635710
 20
-0.671865
 30
0.0
 10
103.978533
 20
-0.004190
 30
0.0
 10
103.159473
 20
0.008789
 30
0.0
  0
LINE
  5
17c
100
AcDbEntity
  8
Layer_1
 62
1
100
AcDbLine
 10
103.159473
 20
-11.335063
 30
0.0
 11
102.187079
 21
-11.350409
 31
0.0
  0
SPLINE
  5
17d
100
AcDbEntity
  8
Layer_1
 62
1
100
AcDbSpline
 70
8
 71
3
 72
8
 73
4
 74
0
 40
0
 40
0
 40
0
 40
0
 40
1
 40
1
 40
1
 40
1
 10
103.159473
 20
-11.335063
 30
0.0
 10
103.978533
 20
-11.322085
 30
0.0
 10
104.635710
 20
-10.654409
 30
0.0
 10
104.635707
 20
-9.835246
 30
0.0
  0
LINE
  5
17e
100
AcDbEntity
  8
Layer_1
 62
1
100
AcDbLine
 10
109.744060
 20
0.024187
 30
0.0
 11
110.716452
 21
0.008842
 31
0.0
  0
LINE
  5
17f
100
AcDbEntity
  8
Layer_1
 62
1
100
AcDbLine
 10
112.192689
 20
-1.491028
 30
0.0
 11
112.192689
 21
-9.835246
 31
0.0
  0
SPLINE
  5
180
100
AcDbEntity
  8
Layer_1
 62
1
100
AcDbSpline
 70
8
 71
3
 72
8
 73
4
 74
0
 40
0
 40
0
 40
0
 40
0
 40
1
 40
1
 40
1
 40
1
 10
112.192689
 20
-1.491028
 30
0.0
 10
112.192692
 20
-0.671864
 30
0.0
 10
111.535513
 20
-0.004188
 30
0.0
 10
110.716452
 20
0.008789
 30
0.0
  0
LINE
  5
181
100
AcDbEntity
  8
Layer_1
 62
1
100
AcDbLine
 10
110.716452
 20
-11.335063
 30
0.0
 11
109.744060
 21
-11.350409
 31
0.0
  0
SPLINE
  5
182
100
AcDbEntity
  8
Layer_1
 62
1
100
AcDbSpline
 70
8
 71
3
 72
8
 73
4
 74
0
 40
0
 40
0
 40
0
 40
0
 40
1
 40
1
 40
1
 40
1
 10
110.716452
 20
-11.335063
 30
0.0
 10
111.535513
 20
-11.322086
 30
0.0
 10
112.192692
 20
-10.654410
 30
0.0
 10
112.192689
 20
-9.835246
 30
0.0
  0
LINE
  5
183
100
AcDbEntity
  8
Layer_1
 62
1
100
AcDbLine
 10
117.301042
 20
0.024187
 30
0.0
 11
118.273433
 21
0.008842
 31
0.0
  0
LINE
  5
184
100
AcDbEntity
  8
Layer_1
 62
1
100
AcDbLine
 10
119.749671
 20
-1.491028
 30
0.0
 11
119.749671
 21
-9.835246
 31
0.0
  0
SPLINE
  5
185
100
AcDbEntity
  8
Layer_1
 62
1
100
AcDbSpline
 70
8
 71
3
 72
8
 73
4
 74
0
 40
0
 40
0
 40
0
 40
0
 40
1
 40
1
 40
1
 40
1
 10
119.749671
 20
-1.491028
 30
0.0
 10
119.749673
 20
-0.671864
 30
0.0
 10
119.092494
 20
-0.004188
 30
0.0
 10
118.273433
 20
0.008789
 30
0.0
  0
LINE
  5
186
100
AcDbEntity
  8
Layer_1
 62
1
100
AcDbLine
 10
118.273433
 20
-11.335063
 30
0.0
 11
117.301042
 21
-11.350409
 31
0.0
  0
SPLINE
  5
187
100
AcDbEntity
  8
Layer_1
 62
1
100
AcDbSpline
 70
8
 71
3
 72
8
 73
4
 74
0
 40
0
 40
0
 40
0
 40
0
 40
1
 40
1
 40
1
 40
1
 10
118.273433
 20
-11.335063
 30
0.0
 10
119.092494
 20
-11.322086
 30
0.0
 10
119.749673
 20
-10.654410
 30
0.0
 10
119.749671
 20
-9.835246
 30
0.0
  0
LINE
  5
188
100
AcDbEntity
  8
Layer_1
 62
1
100
AcDbLine
 10
124.858023
 20
0.024187
 30
0.0
 11
125.830415
 21
0.008842
 31
0.0
  0
LINE
  5
189
100
AcDbEntity
  8
Layer_1
 62
1
100
AcDbLine
 10
127.306652
 20
-1.491028
 30
0.0
 11
127.306652
 21
-9.835246
 31
0.0
  0
SPLINE
  5
18a
100
AcDbEntity
  8
Layer_1
 62
1
100
AcDbSpline
 70
8
 71
3
 72
8
 73
4
 74
0
 40
0
 40
0
 40
0
 40
0
 40
1
 40
1
 40
1
 40
1
 10
127.306652
 20
-1.491028
 30
0.0
 10
127.306655
 20
-0.671864
 30
0.0
 10
126.649476
 20
-0.004188
 30
0.0
 10
125.830415
 20
0.008789
 30
0.0
  0
LINE
  5
18b
100
AcDbEntity
  8
Layer_1
 62
1
100
AcDbLine
 10
125.830415
 20
-11.335063
 30
0.0
 11
124.858023
 21
-11.350409
 31
0.0
  0
SPLINE
  5
18c
100
AcDbEntity
  8
Layer_1
 62
1
100
AcDbSpline
 70
8
 71
3
 72
8
 73
4
 74
0
 40
0
 40
0
 40
0
 40
0
 40
1
 40
1
 40
1
 40
1
 10
125.830415
 20
-11.335063
 30
0.0
 10
126.649476
 20
-11.322086
 30
0.0
 10
127.306655
 20
-10.654410
 30
0.0
 10
127.306652
 20
-9.835246
 30
0.0
  0
LINE
  5
18d
100
AcDbEntity
  8
Layer_1
 62
1
100
AcDbLine
 10
132.415002
 20
0.024187
 30
0.0
 11
133.387396
 21
0.008842
 31
0.0
  0
LINE
  5
18e
100
AcDbEntity
  8
Layer_1
 62
1
100
AcDbLine
 10
134.863631
 20
-1.491028
 30
0.0
 11
134.863631
 21
-9.835246
 31
0.0
  0
SPLINE
  5
18f
100
AcDbEntity
  8
Layer_1
 62
1
100
AcDbSpline
 70
8
 71
3
 72
8
 73
4
 74
0
 40
0
 40
0
 40
0
 40
0
 40
1
 40
1
 40
1
 40
1
 10
134.863631
 20
-1.491028
 30
0.0
 10
134.863634
 20
-0.671865
 30
0.0
 10
134.206456
 20
-0.004190
 30
0.0
 10
133.387396
 20
0.008789
 30
0.0
  0
LINE
  5
190
100
AcDbEntity
  8
Layer_1
 62
1
100
AcDbLine
 10
133.387396
 20
-11.335063
 30
0.0
 11
132.415002
 21
-11.350409
 31
0.0
  0
SPLINE
  5
191
100
AcDbEntity
  8
Layer_1
 62
1
100
AcDbSpline
 70
8
 71
3
 72
8
 73
4
 74
0
 40
0
 40
0
 40
0
 40
0
 40
1
 40
1
 40
1
 40
1
 10
133.387396
 20
-11.335063
 30
0.0
 10
134.206456
 20
-11.322085
 30
0.0
 10
134.863634
 20
-10.654409
 30
0.0
 10
134.863631
 20
-9.835246
 30
0.0
  0
LINE
  5
192
100
AcDbEntity
  8
Layer_1
 62
1
100
AcDbLine
 10
139.971984
 20
0.024187
 30
0.0
 11
140.944378
 21
0.008842
 31
0.0
  0
LINE
  5
193
100
AcDbEntity
  8
Layer_1
 62
1
100
AcDbLine
 10
142.420613
 20
-1.491028
 30
0.0
 11
142.420613
 21
-9.835246
 31
0.0
  0
SPLINE
  5
194
100
AcDbEntity
  8
Layer_1
 62
1
100
AcDbSpline
 70
8
 71
3
 72
8
 73
4
 74
0
 40
0
 40
0
 40
0
 40
0
 40
1
 40
1
 40
1
 40
1
 10
142.420613
 20
-1.491028
 30
0.0
 10
142.420615
 20
-0.671865
 30
0.0
 10
141.763438
 20
-0.004190
 30
0.0
 10
140.944378
 20
0.008789
 30
0.0
  0
LINE
  5
195
100
AcDbEntity
  8
Layer_1
 62
1
100
AcDbLine
 10
140.944378
 20
-11.335063
 30
0.0
 11
139.971984
 21
-11.350409
 31
0.0
  0
SPLINE
  5
196
100
AcDbEntity
  8
Layer_1
 62
1
100
AcDbSpline
 70
8
 71
3
 72
8
 73
4
 74
0
 40
0
 40
0
 40
0
 40
0
 40
1
 40
1
 40
1
 40
1
 10
140.944378
 20
-11.335063
 30
0.0
 10
141.763438
 20
-11.322085
 30
0.0
 10
142.420615
 20
-10.654409
 30
0.0
 10
142.420613
 20
-9.835246
 30
0.0
  0
LINE
  5
197
100
AcDbEntity
  8
Layer_1
 62
1
100
AcDbLine
 10
147.528965
 20
0.024187
 30
0.0
 11
148.501357
 21
0.008842
 31
0.0
  0
LINE
  5
198
100
AcDbEntity
  8
Layer_1
 62
1
100
AcDbLine
 10
149.977594
 20
-1.491028
 30
0.0
 11
149.977594
 21
-9.835246
 31
0.0
  0
SPLINE
  5
199
100
AcDbEntity
  8
Layer_1
 62
1
100
AcDbSpline
 70
8
 71
3
 72
8
 73
4
 74
0
 40
0
 40
0
 40
0
 40
0
 40
1
 40
1
 40
1
 40
1
 10
149.977594
 20
-1.491028
 30
0.0
 10
149.977597
 20
-0.671864
 30
0.0
 10
149.320418
 20
-0.004188
 30
0.0
 10
148.501357
 20
0.008789
 30
0.0
  0
LINE
  5
19a
100
AcDbEntity
  8
Layer_1
 62
1
100
AcDbLine
 10
148.501357
 20
-11.335063
 30
0.0
 11
147.528965
 21
-11.350409
 31
0.0
  0
SPLINE
  5
19b
100
AcDbEntity
  8
Layer_1
 62
1
100
AcDbSpline
 70
8
 71
3
 72
8
 73
4
 74
0
 40
0
 40
0
 40
0
 40
0
 40
1
 40
1
 40
1
 40
1
 10
148.501357
 20
-11.335063
 30
0.0
 10
149.320418
 20
-11.322086
 30
0.0
 10
149.977597
 20
-10.654410
 30
0.0
 10
149.977594
 20
-9.835246
 30
0.0
  0
LINE
  5
19c
100
AcDbEntity
  8
Layer_1
 62
1
100
AcDbLine
 10
155.085947
 20
0.024187
 30
0.0
 11
156.058338
 21
0.008842
 31
0.0
  0
LINE
  5
19d
100
AcDbEntity
  8
Layer_1
 62
1
100
AcDbLine
 10
157.534576
 20
-1.491028
 30
0.0
 11
157.534576
 21
-9.835246
 31
0.0
  0
SPLINE
  5
19e
100
AcDbEntity
  8
Layer_1
 62
1
100
AcDbSpline
 70
8
 71
3
 72
8
 73
4
 74
0
 40
0
 40
0
 40
0
 40
0
 40
1
 40
1
 40
1
 40
1
 10
157.534576
 20
-1.491028
 30
0.0
 10
157.534579
 20
-0.671864
 30
0.0
 10
156.877400
 20
-0.004188
 30
0.0
 10
156.058338
 20
0.008789
 30
0.0
  0
LINE
  5
19f
100
AcDbEntity
  8
Layer_1
 62
1
100
AcDbLine
 10
156.058338
 20
-11.335063
 30
0.0
 11
155.085947
 21
-11.350409
 31
0.0
  0
SPLINE
  5
1a0
100
AcDbEntity
  8
Layer_1
 62
1
100
AcDbSpline
 70
8
 71
3
 72
8
 73
4
 74
0
 40
0
 40
0
 40
0
 40
0
 40
1
 40
1
 40
1
 40
1
 10
156.058338
 20
-11.335063
 30
0.0
 10
156.877400
 20
-11.322086
 30
0.0
 10
157.534579
 20
-10.654410
 30
0.0
 10
157.534576
 20
-9.835246
 30
0.0
  0
SPLINE
  5
1a1
100
AcDbEntity
  8
Layer_1
 62
1
100
AcDbSpline
 70
8
 71
3
 72
8
 73
4
 74
0
 40
0
 40
0
 40
0
 40
0
 40
1
 40
1
 40
1
 40
1
 10
25.287393
 20
15.611453
 30
0.0
 10
25.287393
 20
15.289914
 30
0.0
 10
25.458932
 20
14.992800
 30
0.0
 10
25.737393
 20
14.832030
 30
0.0
  0
SPLINE
  5
1a2
100
AcDbEntity
  8
Layer_1
 62
1
100
AcDbSpline
 70
8
 71
3
 72
8
 73
4
 74
0
 40
0
 40
0
 40
0
 40
0
 40
1
 40
1
 40
1
 40
1
 10
25.737393
 20
14.832030
 30
0.0
 10
26.015854
 20
14.671261
 30
0.0
 10
26.358932
 20
14.671261
 30
0.0
 10
26.637393
 20
14.832030
 30
0.0
  0
SPLINE
  5
1a3
100
AcDbEntity
  8
Layer_1
 62
1
100
AcDbSpline
 70
8
 71
3
 72
8
 73
4
 74
0
 40
0
 40
0
 40
0
 40
0
 40
1
 40
1
 40
1
 40
1
 10
26.637393
 20
14.832030
 30
0.0
 10
26.915854
 20
14.992800
 30
0.0
 10
27.087393
 20
15.289914
 30
0.0
 10
27.087393
 20
15.611453
 30
0.0
  0
SPLINE
  5
1a4
100
AcDbEntity
  8
Layer_1
 62
1
100
AcDbSpline
 70
8
 71
3
 72
8
 73
4
 74
0
 40
0
 40
0
 40
0
 40
0
 40
1
 40
1
 40
1
 40
1
 10
27.087393
 20
35.111462
 30
0.0
 10
27.087393
 20
35.433001
 30
0.0
 10
26.915854
 20
35.730115
 30
0.0
 10
26.637393
 20
35.890885
 30
0.0
  0
SPLINE
  5
1a5
100
AcDbEntity
  8
Layer_1
 62
1
100
AcDbSpline
 70
8
 71
3
 72
8
 73
4
 74
0
 40
0
 40
0
 40
0
 40
0
 40
1
 40
1
 40
1
 40
1
 10
26.637393
 20
35.890885
 30
0.0
 10
26.358932
 20
36.051654
 30
0.0
 10
26.015854
 20
36.051654
 30
0.0
 10
25.737393
 20
35.890885
 30
0.0
  0
SPLINE
  5
1a6
100
AcDbEntity
  8
Layer_1
 62
1
100
AcDbSpline
 70
8
 71
3
 72
8
 73
4
 74
0
 40
0
 40
0
 40
0
 40
0
 40
1
 40
1
 40
1
 40
1
 10
25.737393
 20
35.890885
 30
0.0
 10
25.458932
 20
35.730115
 30
0.0
 10
25.287393
 20
35.433001
 30
0.0
 10
25.287393
 20
35.111462
 30
0.0
  0
LINE
  5
1a7
100
AcDbEntity
  8
Layer_1
 62
1
100
AcDbLine
 10
27.087393
 20
35.111462
 30
0.0
 11
27.087393
 21
15.611453
 31
0.0
  0
LINE
  5
1a8
100
AcDbEntity
  8
Layer_1
 62
1
100
AcDbLine
 10
10.287393
 20
15.611453
 30
0.0
 11
10.287393
 21
35.111462
 31
0.0
  0
SPLINE
  5
1a9
100
AcDbEntity
  8
Layer_1
 62
1
100
AcDbSpline
 70
8
 71
3
 72
8
 73
4
 74
0
 40
0
 40
0
 40
0
 40
0
 40
1
 40
1
 40
1
 40
1
 10
12.087392
 20
35.111462
 30
0.0
 10
12.087123
 20
35.608327
 30
0.0
 10
11.684258
 20
36.010974
 30
0.0
 10
11.187393
 20
36.010974
 30
0.0
  0
SPLINE
  5
1aa
100
AcDbEntity
  8
Layer_1
 62
1
100
AcDbSpline
 70
8
 71
3
 72
8
 73
4
 74
0
 40
0
 40
0
 40
0
 40
0
 40
1
 40
1
 40
1
 40
1
 10
11.187393
 20
36.010974
 30
0.0
 10
10.690527
 20
36.010974
 30
0.0
 10
10.287662
 20
35.608327
 30
0.0
 10
10.287393
 20
35.111462
 30
0.0
  0
SPLINE
  5
1ab
100
AcDbEntity
  8
Layer_1
 62
1
100
AcDbSpline
 70
8
 71
3
 72
8
 73
4
 74
0
 40
0
 40
0
 40
0
 40
0
 40
1
 40
1
 40
1
 40
1
 10
10.287393
 20
15.611453
 30
0.0
 10
10.287662
 20
15.114587
 30
0.0
 10
10.690527
 20
14.711941
 30
0.0
 10
11.187393
 20
14.711941
 30
0.0
  0
SPLINE
  5
1ac
100
AcDbEntity
  8
Layer_1
 62
1
100
AcDbSpline
 70
8
 71
3
 72
8
 73
4
 74
0
 40
0
 40
0
 40
0
 40
0
 40
1
 40
1
 40
1
 40
1
 10
11.187393
 20
14.711941
 30
0.0
 10
11.684258
 20
14.711941
 30
0.0
 10
12.087123
 20
15.114587
 30
0.0
 10
12.087392
 20
15.611453
 30
0.0
  0
SPLINE
  5
1ad
100
AcDbEntity
  8
Layer_1
 62
1
100
AcDbSpline
 70
8
 71
3
 72
8
 73
4
 74
0
 40
0
 40
0
 40
0
 40
0
 40
1
 40
1
 40
1
 40
1
 10
56.274290
 20
31.961459
 30
0.0
 10
56.512987
 20
31.961460
 30
0.0
 10
56.741908
 20
32.056283
 30
0.0
 10
56.910690
 20
32.225069
 30
0.0
  0
SPLINE
  5
1ae
100
AcDbEntity
  8
Layer_1
 62
1
100
AcDbSpline
 70
8
 71
3
 72
8
 73
4
 74
0
 40
0
 40
0
 40
0
 40
0
 40
1
 40
1
 40
1
 40
1
 10
56.910690
 20
32.225069
 30
0.0
 10
57.079473
 20
32.393855
 30
0.0
 10
57.174293
 20
32.622777
 30
0.0
 10
57.174289
 20
32.861474
 30
0.0
  0
LINE
  5
1af
100
AcDbEntity
  8
Layer_1
 62
1
100
AcDbLine
 10
57.174289
 20
32.861474
 30
0.0
 11
57.174289
 21
32.861474
 31
0.0
  0
SPLINE
  5
1b0
100
AcDbEntity
  8
Layer_1
 62
1
100
AcDbSpline
 70
8
 71
3
 72
8
 73
4
 74
0
 40
0
 40
0
 40
0
 40
0
 40
1
 40
1
 40
1
 40
1
 10
57.174289
 20
32.861474
 30
0.0
 10
57.174278
 20
33.358522
 30
0.0
 10
56.771338
 20
33.761454
 30
0.0
 10
56.274290
 20
33.761454
 30
0.0
  0
LINE
  5
1b1
100
AcDbEntity
  8
Layer_1
 62
1
100
AcDbLine
 10
56.274290
 20
33.761454
 30
0.0
 11
38.374288
 21
33.761454
 31
0.0
  0
SPLINE
  5
1b2
100
AcDbEntity
  8
Layer_1
 62
1
100
AcDbSpline
 70
8
 71
3
 72
8
 73
4
 74
0
 40
0
 40
0
 40
0
 40
0
 40
1
 40
1
 40
1
 40
1
 10
38.374288
 20
33.761454
 30
0.0
 10
37.877240
 20
33.761454
 30
0.0
 10
37.474300
 20
33.358522
 30
0.0
 10
37.474290
 20
32.861474
 30
0.0
  0
LINE
  5
1b3
100
AcDbEntity
  8
Layer_1
 62
1
100
AcDbLine
 10
37.474290
 20
32.861474
 30
0.0
 11
37.474290
 21
32.861474
 31
0.0
  0
SPLINE
  5
1b4
100
AcDbEntity
  8
Layer_1
 62
1
100
AcDbSpline
 70
8
 71
3
 72
8
 73
4
 74
0
 40
0
 40
0
 40
0
 40
0
 40
1
 40
1
 40
1
 40
1
 10
37.474290
 20
32.861474
 30
0.0
 10
37.474286
 20
32.622777
 30
0.0
 10
37.569105
 20
32.393855
 30
0.0
 10
37.737888
 20
32.225069
 30
0.0
  0
SPLINE
  5
1b5
100
AcDbEntity
  8
Layer_1
 62
1
100
AcDbSpline
 70
8
 71
3
 72
8
 73
4
 74
0
 40
0
 40
0
 40
0
 40
0
 40
1
 40
1
 40
1
 40
1
 10
37.737888
 20
32.225069
 30
0.0
 10
37.906671
 20
32.056283
 30
0.0
 10
38.135591
 20
31.961460
 30
0.0
 10
38.374288
 20
31.961459
 30
0.0
  0
LINE
  5
1b6
100
AcDbEntity
  8
Layer_1
 62
1
100
AcDbLine
 10
38.374288
 20
16.961463
 30
0.0
 11
56.274290
 21
16.961463
 31
0.0
  0
SPLINE
  5
1b7
100
AcDbEntity
  8
Layer_1
 62
1
100
AcDbSpline
 70
8
 71
3
 72
8
 73
4
 74
0
 40
0
 40
0
 40
0
 40
0
 40
1
 40
1
 40
1
 40
1
 10
56.274290
 20
16.961463
 30
0.0
 10
56.771338
 20
16.961464
 30
0.0
 10
57.174278
 20
17.364395
 30
0.0
 10
57.174289
 20
17.861443
 30
0.0
  0
LINE
  5
1b8
100
AcDbEntity
  8
Layer_1
 62
1
100
AcDbLine
 10
57.174289
 20
17.861443
 30
0.0
 11
57.174289
 21
17.861443
 31
0.0
  0
SPLINE
  5
1b9
100
AcDbEntity
  8
Layer_1
 62
1
100
AcDbSpline
 70
8
 71
3
 72
8
 73
4
 74
0
 40
0
 40
0
 40
0
 40
0
 40
1
 40
1
 40
1
 40
1
 10
57.174289
 20
17.861443
 30
0.0
 10
57.174291
 20
18.100139
 30
0.0
 10
57.079470
 20
18.329059
 30
0.0
 10
56.910688
 20
18.497843
 30
0.0
  0
SPLINE
  5
1ba
100
AcDbEntity
  8
Layer_1
 62
1
100
AcDbSpline
 70
8
 71
3
 72
8
 73
4
 74
0
 40
0
 40
0
 40
0
 40
0
 40
1
 40
1
 40
1
 40
1
 10
56.910688
 20
18.497843
 30
0.0
 10
56.741905
 20
18.666627
 30
0.0
 10
56.512986
 20
18.761449
 30
0.0
 10
56.274290
 20
18.761450
 30
0.0
  0
SPLINE
  5
1bb
100
AcDbEntity
  8
Layer_1
 62
1
100
AcDbSpline
 70
8
 71
3
 72
8
 73
4
 74
0
 40
0
 40
0
 40
0
 40
0
 40
1
 40
1
 40
1
 40
1
 10
38.374288
 20
18.761450
 30
0.0
 10
38.135592
 20
18.761449
 30
0.0
 10
37.906673
 20
18.666627
 30
0.0
 10
37.737891
 20
18.497843
 30
0.0
  0
SPLINE
  5
1bc
100
AcDbEntity
  8
Layer_1
 62
1
100
AcDbSpline
 70
8
 71
3
 72
8
 73
4
 74
0
 40
0
 40
0
 40
0
 40
0
 40
1
 40
1
 40
1
 40
1
 10
37.737891
 20
18.497843
 30
0.0
 10
37.569108
 20
18.329059
 30
0.0
 10
37.474288
 20
18.100139
 30
0.0
 10
37.474290
 20
17.861443
 30
0.0
  0
LINE
  5
1bd
100
AcDbEntity
  8
Layer_1
 62
1
100
AcDbLine
 10
37.474290
 20
17.861443
 30
0.0
 11
37.474290
 21
17.861443
 31
0.0
  0
SPLINE
  5
1be
100
AcDbEntity
  8
Layer_1
 62
1
100
AcDbSpline
 70
8
 71
3
 72
8
 73
4
 74
0
 40
0
 40
0
 40
0
 40
0
 40
1
 40
1
 40
1
 40
1
 10
37.474290
 20
17.861443
 30
0.0
 10
37.474300
 20
17.364395
 30
0.0
 10
37.877240
 20
16.961464
 30
0.0
 10
38.374288
 20
16.961463
 30
0.0
  0
SPLINE
  5
1bf
100
AcDbEntity
  8
Layer_1
 62
1
100
AcDbSpline
 70
8
 71
3
 72
8
 73
4
 74
0
 40
0
 40
0
 40
0
 40
0
 40
1
 40
1
 40
1
 40
1
 10
384.352297
 20
16.501326
 30
0.0
 10
384.352297
 20
16.179785
 30
0.0
 10
384.523838
 20
15.882668
 30
0.0
 10
384.802301
 20
15.721897
 30
0.0
  0
SPLINE
  5
1c0
100
AcDbEntity
  8
Layer_1
 62
1
100
AcDbSpline
 70
8
 71
3
 72
8
 73
4
 74
0
 40
0
 40
0
 40
0
 40
0
 40
1
 40
1
 40
1
 40
1
 10
384.802301
 20
15.721897
 30
0.0
 10
385.080764
 20
15.561127
 30
0.0
 10
385.423844
 20
15.561127
 30
0.0
 10
385.702307
 20
15.721897
 30
0.0
  0
SPLINE
  5
1c1
100
AcDbEntity
  8
Layer_1
 62
1
100
AcDbSpline
 70
8
 71
3
 72
8
 73
4
 74
0
 40
0
 40
0
 40
0
 40
0
 40
1
 40
1
 40
1
 40
1
 10
385.702307
 20
15.721897
 30
0.0
 10
385.980770
 20
15.882668
 30
0.0
 10
386.152311
 20
16.179785
 30
0.0
 10
386.152311
 20
16.501326
 30
0.0
  0
LINE
  5
1c2
100
AcDbEntity
  8
Layer_1
 62
1
100
AcDbLine
 10
384.352297
 20
16.501326
 30
0.0
 11
384.352297
 21
36.001337
 31
0.0
  0
SPLINE
  5
1c3
100
AcDbEntity
  8
Layer_1
 62
1
100
AcDbSpline
 70
8
 71
3
 72
8
 73
4
 74
0
 40
0
 40
0
 40
0
 40
0
 40
1
 40
1
 40
1
 40
1
 10
386.152311
 20
36.001337
 30
0.0
 10
386.152311
 20
36.322879
 30
0.0
 10
385.980770
 20
36.619995
 30
0.0
 10
385.702307
 20
36.780766
 30
0.0
  0
SPLINE
  5
1c4
100
AcDbEntity
  8
Layer_1
 62
1
100
AcDbSpline
 70
8
 71
3
 72
8
 73
4
 74
0
 40
0
 40
0
 40
0
 40
0
 40
1
 40
1
 40
1
 40
1
 10
385.702307
 20
36.780766
 30
0.0
 10
385.423844
 20
36.941537
 30
0.0
 10
385.080764
 20
36.941537
 30
0.0
 10
384.802301
 20
36.780766
 30
0.0
  0
SPLINE
  5
1c5
100
AcDbEntity
  8
Layer_1
 62
1
100
AcDbSpline
 70
8
 71
3
 72
8
 73
4
 74
0
 40
0
 40
0
 40
0
 40
0
 40
1
 40
1
 40
1
 40
1
 10
384.802301
 20
36.780766
 30
0.0
 10
384.523838
 20
36.619995
 30
0.0
 10
384.352297
 20
36.322879
 30
0.0
 10
384.352297
 20
36.001337
 30
0.0
  0
SPLINE
  5
1c6
100
AcDbEntity
  8
Layer_1
 62
1
100
AcDbSpline
 70
8
 71
3
 72
8
 73
4
 74
0
 40
0
 40
0
 40
0
 40
0
 40
1
 40
1
 40
1
 40
1
 10
369.352301
 20
16.501326
 30
0.0
 10
369.352301
 20
16.179785
 30
0.0
 10
369.523841
 20
15.882668
 30
0.0
 10
369.802304
 20
15.721897
 30
0.0
  0
SPLINE
  5
1c7
100
AcDbEntity
  8
Layer_1
 62
1
100
AcDbSpline
 70
8
 71
3
 72
8
 73
4
 74
0
 40
0
 40
0
 40
0
 40
0
 40
1
 40
1
 40
1
 40
1
 10
369.802304
 20
15.721897
 30
0.0
 10
370.080767
 20
15.561127
 30
0.0
 10
370.423848
 20
15.561127
 30
0.0
 10
370.702311
 20
15.721897
 30
0.0
  0
SPLINE
  5
1c8
100
AcDbEntity
  8
Layer_1
 62
1
100
AcDbSpline
 70
8
 71
3
 72
8
 73
4
 74
0
 40
0
 40
0
 40
0
 40
0
 40
1
 40
1
 40
1
 40
1
 10
370.702311
 20
15.721897
 30
0.0
 10
370.980774
 20
15.882668
 30
0.0
 10
371.152314
 20
16.179785
 30
0.0
 10
371.152314
 20
16.501326
 30
0.0
  0
SPLINE
  5
1c9
100
AcDbEntity
  8
Layer_1
 62
1
100
AcDbSpline
 70
8
 71
3
 72
8
 73
4
 74
0
 40
0
 40
0
 40
0
 40
0
 40
1
 40
1
 40
1
 40
1
 10
371.152314
 20
36.001337
 30
0.0
 10
371.152314
 20
36.322879
 30
0.0
 10
370.980774
 20
36.619995
 30
0.0
 10
370.702311
 20
36.780766
 30
0.0
  0
SPLINE
  5
1ca
100
AcDbEntity
  8
Layer_1
 62
1
100
AcDbSpline
 70
8
 71
3
 72
8
 73
4
 74
0
 40
0
 40
0
 40
0
 40
0
 40
1
 40
1
 40
1
 40
1
 10
370.702311
 20
36.780766
 30
0.0
 10
370.423848
 20
36.941537
 30
0.0
 10
370.080767
 20
36.941537
 30
0.0
 10
369.802304
 20
36.780766
 30
0.0
  0
SPLINE
  5
1cb
100
AcDbEntity
  8
Layer_1
 62
1
100
AcDbSpline
 70
8
 71
3
 72
8
 73
4
 74
0
 40
0
 40
0
 40
0
 40
0
 40
1
 40
1
 40
1
 40
1
 10
369.802304
 20
36.780766
 30
0.0
 10
369.523841
 20
36.619995
 30
0.0
 10
369.352301
 20
36.322879
 30
0.0
 10
369.352301
 20
36.001337
 30
0.0
  0
LINE
  5
1cc
100
AcDbEntity
  8
Layer_1
 62
1
100
AcDbLine
 10
371.152314
 20
36.001337
 30
0.0
 11
371.152314
 21
16.501326
 31
0.0
  0
SPLINE
  5
1cd
100
AcDbEntity
  8
Layer_1
 62
7
100
AcDbSpline
 70
8
 71
3
 72
8
 73
4
 74
0
 40
0
 40
0
 40
0
 40
0
 40
1
 40
1
 40
1
 40
1
 10
8.939998
 20
10.722588
 30
0.0
 10
6.169995
 20
10.722588
 30
0.0
 10
3.939796
 20
12.952814
 30
0.0
 10
3.878042
 20
15.765467
 30
0.0
  0
LINE
  5
1ce
100
AcDbEntity
  8
Layer_1
 62
7
100
AcDbLine
 10
3.878042
 20
15.765467
 30
0.0
 11
3.834042
 21
37.522184
 31
0.0
  0
SPLINE
  5
1cf
100
AcDbEntity
  8
Layer_1
 62
7
100
AcDbSpline
 70
8
 71
3
 72
8
 73
4
 74
0
 40
0
 40
0
 40
0
 40
0
 40
1
 40
1
 40
1
 40
1
 10
3.834042
 20
37.522184
 30
0.0
 10
3.810494
 20
40.138860
 30
0.0
 10
5.734650
 20
42.730533
 30
0.0
 10
8.407471
 20
43.410036
 30
0.0
  0
SPLINE
  5
1d0
100
AcDbEntity
  8
Layer_1
 62
7
100
AcDbSpline
 70
8
 71
3
 72
8
 73
4
 74
0
 40
0
 40
0
 40
0
 40
0
 40
1
 40
1
 40
1
 40
1
 10
8.407471
 20
43.410036
 30
0.0
 10
10.860158
 20
43.968651
 30
0.0
 10
12.869642
 20
46.188452
 30
0.0
 10
12.838315
 20
48.694770
 30
0.0
  0
LINE
  5
1d1
100
AcDbEntity
  8
Layer_1
 62
7
100
AcDbLine
 10
12.838315
 20
48.694770
 30
0.0
 11
12.840961
 21
59.884238
 31
0.0
  0
SPLINE
  5
1d2
100
AcDbEntity
  8
Layer_1
 62
1
100
AcDbSpline
 70
8
 71
3
 72
8
 73
4
 74
0
 40
0
 40
0
 40
0
 40
0
 40
1
 40
1
 40
1
 40
1
 10
70.372645
 20
52.996046
 30
0.0
 10
70.372645
 20
51.194421
 30
0.0
 10
75.008150
 20
49.733916
 30
0.0
 10
76.809775
 20
49.733916
 30
0.0
  0
SPLINE
  5
1d3
100
AcDbEntity
  8
Layer_1
 62
1
100
AcDbSpline
 70
8
 71
3
 72
8
 73
4
 74
0
 40
0
 40
0
 40
0
 40
0
 40
1
 40
1
 40
1
 40
1
 10
76.809775
 20
49.733916
 30
0.0
 10
77.491746
 20
49.733916
 30
0.0
 10
78.049017
 20
49.943185
 30
0.0
 10
78.461846
 20
50.299738
 30
0.0
  0
SPLINE
  5
1d4
100
AcDbEntity
  8
Layer_1
 62
1
100
AcDbSpline
 70
8
 71
3
 72
8
 73
4
 74
0
 40
0
 40
0
 40
0
 40
0
 40
1
 40
1
 40
1
 40
1
 10
78.461846
 20
50.299738
 30
0.0
 10
78.529648
 20
50.362373
 30
0.0
 10
78.648436
 20
50.415498
 30
0.0
 10
78.748570
 20
50.400298
 30
0.0
  0
SPLINE
  5
1d5
100
AcDbEntity
  8
Layer_1
 62
1
100
AcDbSpline
 70
8
 71
3
 72
8
 73
4
 74
0
 40
0
 40
0
 40
0
 40
0
 40
1
 40
1
 40
1
 40
1
 10
78.748570
 20
50.400298
 30
0.0
 10
79.017514
 20
50.359470
 30
0.0
 10
79.553020
 20
50.013519
 30
0.0
 10
79.681149
 20
49.796519
 30
0.0
  0
SPLINE
  5
1d6
100
AcDbEntity
  8
Layer_1
 62
1
100
AcDbSpline
 70
8
 71
3
 72
8
 73
4
 74
0
 40
0
 40
0
 40
0
 40
0
 40
1
 40
1
 40
1
 40
1
 10
70.372645
 20
52.996046
 30
0.0
 10
70.372645
 20
54.797670
 30
0.0
 10
75.008150
 20
56.258176
 30
0.0
 10
76.809775
 20
56.258176
 30
0.0
  0
SPLINE
  5
1d7
100
AcDbEntity
  8
Layer_1
 62
1
100
AcDbSpline
 70
8
 71
3
 72
8
 73
4
 74
0
 40
0
 40
0
 40
0
 40
0
 40
1
 40
1
 40
1
 40
1
 10
76.809775
 20
56.258176
 30
0.0
 10
77.491746
 20
56.258176
 30
0.0
 10
78.049017
 20
56.048906
 30
0.0
 10
78.461846
 20
55.692354
 30
0.0
  0
SPLINE
  5
1d8
100
AcDbEntity
  8
Layer_1
 62
1
100
AcDbSpline
 70
8
 71
3
 72
8
 73
4
 74
0
 40
0
 40
0
 40
0
 40
0
 40
1
 40
1
 40
1
 40
1
 10
78.461846
 20
55.692354
 30
0.0
 10
78.529648
 20
55.629719
 30
0.0
 10
78.648436
 20
55.576593
 30
0.0
 10
78.748570
 20
55.591793
 30
0.0
  0
SPLINE
  5
1d9
100
AcDbEntity
  8
Layer_1
 62
1
100
AcDbSpline
 70
8
 71
3
 72
8
 73
4
 74
0
 40
0
 40
0
 40
0
 40
0
 40
1
 40
1
 40
1
 40
1
 10
78.748570
 20
55.591793
 30
0.0
 10
79.017514
 20
55.632621
 30
0.0
 10
79.553020
 20
55.978572
 30
0.0
 10
79.681149
 20
56.195573
 30
0.0
  0
SPLINE
  5
1da
100
AcDbEntity
  8
Layer_1
 62
1
100
AcDbSpline
 70
8
 71
3
 72
8
 73
4
 74
0
 40
0
 40
0
 40
0
 40
0
 40
1
 40
1
 40
1
 40
1
 10
150.011477
 20
53.015053
 30
0.0
 10
150.011477
 20
51.213429
 30
0.0
 10
154.646982
 20
49.752923
 30
0.0
 10
156.448607
 20
49.752923
 30
0.0
  0
SPLINE
  5
1db
100
AcDbEntity
  8
Layer_1
 62
1
100
AcDbSpline
 70
8
 71
3
 72
8
 73
4
 74
0
 40
0
 40
0
 40
0
 40
0
 40
1
 40
1
 40
1
 40
1
 10
156.448607
 20
49.752923
 30
0.0
 10
157.130578
 20
49.752923
 30
0.0
 10
157.687849
 20
49.962193
 30
0.0
 10
158.100678
 20
50.318745
 30
0.0
  0
SPLINE
  5
1dc
100
AcDbEntity
  8
Layer_1
 62
1
100
AcDbSpline
 70
8
 71
3
 72
8
 73
4
 74
0
 40
0
 40
0
 40
0
 40
0
 40
1
 40
1
 40
1
 40
1
 10
158.100678
 20
50.318745
 30
0.0
 10
158.168480
 20
50.381380
 30
0.0
 10
158.287268
 20
50.434506
 30
0.0
 10
158.387402
 20
50.419306
 30
0.0
  0
SPLINE
  5
1dd
100
AcDbEntity
  8
Layer_1
 62
1
100
AcDbSpline
 70
8
 71
3
 72
8
 73
4
 74
0
 40
0
 40
0
 40
0
 40
0
 40
1
 40
1
 40
1
 40
1
 10
158.387402
 20
50.419306
 30
0.0
 10
158.656345
 20
50.378478
 30
0.0
 10
159.191852
 20
50.032527
 30
0.0
 10
159.319981
 20
49.815526
 30
0.0
  0
SPLINE
  5
1de
100
AcDbEntity
  8
Layer_1
 62
1
100
AcDbSpline
 70
8
 71
3
 72
8
 73
4
 74
0
 40
0
 40
0
 40
0
 40
0
 40
1
 40
1
 40
1
 40
1
 10
150.011477
 20
53.015053
 30
0.0
 10
150.011477
 20
54.816678
 30
0.0
 10
154.646982
 20
56.277183
 30
0.0
 10
156.448607
 20
56.277183
 30
0.0
  0
SPLINE
  5
1df
100
AcDbEntity
  8
Layer_1
 62
1
100
AcDbSpline
 70
8
 71
3
 72
8
 73
4
 74
0
 40
0
 40
0
 40
0
 40
0
 40
1
 40
1
 40
1
 40
1
 10
156.448607
 20
56.277183
 30
0.0
 10
157.130578
 20
56.277183
 30
0.0
 10
157.687849
 20
56.067914
 30
0.0
 10
158.100678
 20
55.711361
 30
0.0
  0
SPLINE
  5
1e0
100
AcDbEntity
  8
Layer_1
 62
1
100
AcDbSpline
 70
8
 71
3
 72
8
 73
4
 74
0
 40
0
 40
0
 40
0
 40
0
 40
1
 40
1
 40
1
 40
1
 10
158.100678
 20
55.711361
 30
0.0
 10
158.168480
 20
55.648726
 30
0.0
 10
158.287268
 20
55.595601
 30
0.0
 10
158.387402
 20
55.610801
 30
0.0
  0
SPLINE
  5
1e1
100
AcDbEntity
  8
Layer_1
 62
1
100
AcDbSpline
 70
8
 71
3
 72
8
 73
4
 74
0
 40
0
 40
0
 40
0
 40
0
 40
1
 40
1
 40
1
 40
1
 10
158.387402
 20
55.610801
 30
0.0
 10
158.656345
 20
55.651629
 30
0.0
 10
159.191852
 20
55.997580
 30
0.0
 10
159.319981
 20
56.214580
 30
0.0
  0
SPLINE
  5
1e2
100
AcDbEntity
  8
Layer_1
 62
1
100
AcDbSpline
 70
8
 71
3
 72
8
 73
4
 74
0
 40
0
 40
0
 40
0
 40
0
 40
1
 40
1
 40
1
 40
1
 10
247.691902
 20
53.090401
 30
0.0
 10
247.691902
 20
51.288777
 30
0.0
 10
243.056397
 20
49.828271
 30
0.0
 10
241.254772
 20
49.828271
 30
0.0
  0
SPLINE
  5
1e3
100
AcDbEntity
  8
Layer_1
 62
1
100
AcDbSpline
 70
8
 71
3
 72
8
 73
4
 74
0
 40
0
 40
0
 40
0
 40
0
 40
1
 40
1
 40
1
 40
1
 10
241.254772
 20
49.828271
 30
0.0
 10
240.572801
 20
49.828271
 30
0.0
 10
240.015530
 20
50.037541
 30
0.0
 10
239.602701
 20
50.394093
 30
0.0
  0
SPLINE
  5
1e4
100
AcDbEntity
  8
Layer_1
 62
1
100
AcDbSpline
 70
8
 71
3
 72
8
 73
4
 74
0
 40
0
 40
0
 40
0
 40
0
 40
1
 40
1
 40
1
 40
1
 10
239.602701
 20
50.394093
 30
0.0
 10
239.534898
 20
50.456728
 30
0.0
 10
239.416111
 20
50.509854
 30
0.0
 10
239.315977
 20
50.494654
 30
0.0
  0
SPLINE
  5
1e5
100
AcDbEntity
  8
Layer_1
 62
1
100
AcDbSpline
 70
8
 71
3
 72
8
 73
4
 74
0
 40
0
 40
0
 40
0
 40
0
 40
1
 40
1
 40
1
 40
1
 10
239.315977
 20
50.494654
 30
0.0
 10
239.047033
 20
50.453826
 30
0.0
 10
238.511527
 20
50.107875
 30
0.0
 10
238.383397
 20
49.890874
 30
0.0
  0
SPLINE
  5
1e6
100
AcDbEntity
  8
Layer_1
 62
1
100
AcDbSpline
 70
8
 71
3
 72
8
 73
4
 74
0
 40
0
 40
0
 40
0
 40
0
 40
1
 40
1
 40
1
 40
1
 10
247.691902
 20
53.090401
 30
0.0
 10
247.691902
 20
54.892026
 30
0.0
 10
243.056397
 20
56.352531
 30
0.0
 10
241.254772
 20
56.352531
 30
0.0
  0
SPLINE
  5
1e7
100
AcDbEntity
  8
Layer_1
 62
1
100
AcDbSpline
 70
8
 71
3
 72
8
 73
4
 74
0
 40
0
 40
0
 40
0
 40
0
 40
1
 40
1
 40
1
 40
1
 10
241.254772
 20
56.352531
 30
0.0
 10
240.572801
 20
56.352531
 30
0.0
 10
240.015530
 20
56.143262
 30
0.0
 10
239.602701
 20
55.786709
 30
0.0
  0
SPLINE
  5
1e8
100
AcDbEntity
  8
Layer_1
 62
1
100
AcDbSpline
 70
8
 71
3
 72
8
 73
4
 74
0
 40
0
 40
0
 40
0
 40
0
 40
1
 40
1
 40
1
 40
1
 10
239.602701
 20
55.786709
 30
0.0
 10
239.534898
 20
55.724074
 30
0.0
 10
239.416111
 20
55.670949
 30
0.0
 10
239.315977
 20
55.686149
 30
0.0
  0
SPLINE
  5
1e9
100
AcDbEntity
  8
Layer_1
 62
1
100
AcDbSpline
 70
8
 71
3
 72
8
 73
4
 74
0
 40
0
 40
0
 40
0
 40
0
 40
1
 40
1
 40
1
 40
1
 10
239.315977
 20
55.686149
 30
0.0
 10
239.047033
 20
55.726977
 30
0.0
 10
238.511527
 20
56.072928
 30
0.0
 10
238.383397
 20
56.289928
 30
0.0
  0
SPLINE
  5
1ea
100
AcDbEntity
  8
Layer_1
 62
1
100
AcDbSpline
 70
8
 71
3
 72
8
 73
4
 74
0
 40
0
 40
0
 40
0
 40
0
 40
1
 40
1
 40
1
 40
1
 10
327.425447
 20
53.090401
 30
0.0
 10
327.425447
 20
51.288777
 30
0.0
 10
322.789947
 20
49.828271
 30
0.0
 10
320.988320
 20
49.828271
 30
0.0
  0
SPLINE
  5
1eb
100
AcDbEntity
  8
Layer_1
 62
1
100
AcDbSpline
 70
8
 71
3
 72
8
 73
4
 74
0
 40
0
 40
0
 40
0
 40
0
 40
1
 40
1
 40
1
 40
1
 10
320.988320
 20
49.828271
 30
0.0
 10
320.306356
 20
49.828271
 30
0.0
 10
319.749091
 20
50.037541
 30
0.0
 10
319.336261
 20
50.394093
 30
0.0
  0
SPLINE
  5
1ec
100
AcDbEntity
  8
Layer_1
 62
1
100
AcDbSpline
 70
8
 71
3
 72
8
 73
4
 74
0
 40
0
 40
0
 40
0
 40
0
 40
1
 40
1
 40
1
 40
1
 10
319.336261
 20
50.394093
 30
0.0
 10
319.268449
 20
50.456728
 30
0.0
 10
319.149677
 20
50.509854
 30
0.0
 10
319.049532
 20
50.494654
 30
0.0
  0
SPLINE
  5
1ed
100
AcDbEntity
  8
Layer_1
 62
1
100
AcDbSpline
 70
8
 71
3
 72
8
 73
4
 74
0
 40
0
 40
0
 40
0
 40
0
 40
1
 40
1
 40
1
 40
1
 10
319.049532
 20
50.494654
 30
0.0
 10
318.780583
 20
50.453826
 30
0.0
 10
318.245093
 20
50.107875
 30
0.0
 10
318.116955
 20
49.890874
 30
0.0
  0
SPLINE
  5
1ee
100
AcDbEntity
  8
Layer_1
 62
1
100
AcDbSpline
 70
8
 71
3
 72
8
 73
4
 74
0
 40
0
 40
0
 40
0
 40
0
 40
1
 40
1
 40
1
 40
1
 10
327.425447
 20
53.090401
 30
0.0
 10
327.425447
 20
54.892026
 30
0.0
 10
322.789947
 20
56.352531
 30
0.0
 10
320.988320
 20
56.352531
 30
0.0
  0
SPLINE
  5
1ef
100
AcDbEntity
  8
Layer_1
 62
1
100
AcDbSpline
 70
8
 71
3
 72
8
 73
4
 74
0
 40
0
 40
0
 40
0
 40
0
 40
1
 40
1
 40
1
 40
1
 10
320.988320
 20
56.352531
 30
0.0
 10
320.306356
 20
56.352531
 30
0.0
 10
319.749091
 20
56.143262
 30
0.0
 10
319.336261
 20
55.786709
 30
0.0
  0
SPLINE
  5
1f0
100
AcDbEntity
  8
Layer_1
 62
1
100
AcDbSpline
 70
8
 71
3
 72
8
 73
4
 74
0
 40
0
 40
0
 40
0
 40
0
 40
1
 40
1
 40
1
 40
1
 10
319.336261
 20
55.786709
 30
0.0
 10
319.268449
 20
55.724074
 30
0.0
 10
319.149677
 20
55.670949
 30
0.0
 10
319.049532
 20
55.686149
 30
0.0
  0
SPLINE
  5
1f1
100
AcDbEntity
  8
Layer_1
 62
1
100
AcDbSpline
 70
8
 71
3
 72
8
 73
4
 74
0
 40
0
 40
0
 40
0
 40
0
 40
1
 40
1
 40
1
 40
1
 10
319.049532
 20
55.686149
 30
0.0
 10
318.780583
 20
55.726977
 30
0.0
 10
318.245093
 20
56.072928
 30
0.0
 10
318.116955
 20
56.289928
 30
0.0
  0
LINE
  5
1f2
100
AcDbEntity
  8
Layer_1
 62
7
100
AcDbLine
 10
23.242153
 20
55.899181
 30
0.0
 11
23.242153
 21
50.342931
 31
0.0
  0
LINE
  5
1f3
100
AcDbEntity
  8
Layer_1
 62
7
100
AcDbLine
 10
23.242153
 20
55.899181
 30
0.0
 11
25.094236
 21
55.899181
 31
0.0
  0
LINE
  5
1f4
100
AcDbEntity
  8
Layer_1
 62
7
100
AcDbLine
 10
25.094236
 20
55.899181
 30
0.0
 11
25.887986
 21
55.634598
 31
0.0
  0
LINE
  5
1f5
100
AcDbEntity
  8
Layer_1
 62
7
100
AcDbLine
 10
25.887986
 20
55.634598
 30
0.0
 11
26.417153
 21
55.105431
 31
0.0
  0
LINE
  5
1f6
100
AcDbEntity
  8
Layer_1
 62
7
100
AcDbLine
 10
26.417153
 20
55.105431
 30
0.0
 11
26.681737
 21
54.576264
 31
0.0
  0
LINE
  5
1f7
100
AcDbEntity
  8
Layer_1
 62
7
100
AcDbLine
 10
26.681737
 20
54.576264
 30
0.0
 11
26.946320
 21
53.782514
 31
0.0
  0
LINE
  5
1f8
100
AcDbEntity
  8
Layer_1
 62
7
100
AcDbLine
 10
26.946320
 20
53.782514
 30
0.0
 11
26.946320
 21
52.459598
 31
0.0
  0
LINE
  5
1f9
100
AcDbEntity
  8
Layer_1
 62
7
100
AcDbLine
 10
26.946320
 20
52.459598
 30
0.0
 11
26.681737
 21
51.665848
 31
0.0
  0
LINE
  5
1fa
100
AcDbEntity
  8
Layer_1
 62
7
100
AcDbLine
 10
26.681737
 20
51.665848
 30
0.0
 11
26.417153
 21
51.136681
 31
0.0
  0
LINE
  5
1fb
100
AcDbEntity
  8
Layer_1
 62
7
100
AcDbLine
 10
26.417153
 20
51.136681
 30
0.0
 11
25.887986
 21
50.607514
 31
0.0
  0
LINE
  5
1fc
100
AcDbEntity
  8
Layer_1
 62
7
100
AcDbLine
 10
25.887986
 20
50.607514
 30
0.0
 11
25.094236
 21
50.342931
 31
0.0
  0
LINE
  5
1fd
100
AcDbEntity
  8
Layer_1
 62
7
100
AcDbLine
 10
25.094236
 20
50.342931
 30
0.0
 11
23.242153
 21
50.342931
 31
0.0
  0
LINE
  5
1fe
100
AcDbEntity
  8
Layer_1
 62
7
100
AcDbLine
 10
29.856737
 20
54.047098
 30
0.0
 11
29.327570
 21
53.782514
 31
0.0
  0
LINE
  5
1ff
100
AcDbEntity
  8
Layer_1
 62
7
100
AcDbLine
 10
29.327570
 20
53.782514
 30
0.0
 11
28.798404
 21
53.253348
 31
0.0
  0
LINE
  5
200
100
AcDbEntity
  8
Layer_1
 62
7
100
AcDbLine
 10
28.798404
 20
53.253348
 30
0.0
 11
28.533820
 21
52.459598
 31
0.0
  0
LINE
  5
201
100
AcDbEntity
  8
Layer_1
 62
7
100
AcDbLine
 10
28.533820
 20
52.459598
 30
0.0
 11
28.533820
 21
51.930431
 31
0.0
  0
LINE
  5
202
100
AcDbEntity
  8
Layer_1
 62
7
100
AcDbLine
 10
28.533820
 20
51.930431
 30
0.0
 11
28.798404
 21
51.136681
 31
0.0
  0
LINE
  5
203
100
AcDbEntity
  8
Layer_1
 62
7
100
AcDbLine
 10
28.798404
 20
51.136681
 30
0.0
 11
29.327570
 21
50.607514
 31
0.0
  0
LINE
  5
204
100
AcDbEntity
  8
Layer_1
 62
7
100
AcDbLine
 10
29.327570
 20
50.607514
 30
0.0
 11
29.856737
 21
50.342931
 31
0.0
  0
LINE
  5
205
100
AcDbEntity
  8
Layer_1
 62
7
100
AcDbLine
 10
29.856737
 20
50.342931
 30
0.0
 11
30.650487
 21
50.342931
 31
0.0
  0
LINE
  5
206
100
AcDbEntity
  8
Layer_1
 62
7
100
AcDbLine
 10
30.650487
 20
50.342931
 30
0.0
 11
31.179654
 21
50.607514
 31
0.0
  0
LINE
  5
207
100
AcDbEntity
  8
Layer_1
 62
7
100
AcDbLine
 10
31.179654
 20
50.607514
 30
0.0
 11
31.708820
 21
51.136681
 31
0.0
  0
LINE
  5
208
100
AcDbEntity
  8
Layer_1
 62
7
100
AcDbLine
 10
31.708820
 20
51.136681
 30
0.0
 11
31.973404
 21
51.930431
 31
0.0
  0
LINE
  5
209
100
AcDbEntity
  8
Layer_1
 62
7
100
AcDbLine
 10
31.973404
 20
51.930431
 30
0.0
 11
31.973404
 21
52.459598
 31
0.0
  0
LINE
  5
20a
100
AcDbEntity
  8
Layer_1
 62
7
100
AcDbLine
 10
31.973404
 20
52.459598
 30
0.0
 11
31.708820
 21
53.253348
 31
0.0
  0
LINE
  5
20b
100
AcDbEntity
  8
Layer_1
 62
7
100
AcDbLine
 10
31.708820
 20
53.253348
 30
0.0
 11
31.179654
 21
53.782514
 31
0.0
  0
LINE
  5
20c
100
AcDbEntity
  8
Layer_1
 62
7
100
AcDbLine
 10
31.179654
 20
53.782514
 30
0.0
 11
30.650487
 21
54.047098
 31
0.0
  0
LINE
  5
20d
100
AcDbEntity
  8
Layer_1
 62
7
100
AcDbLine
 10
30.650487
 20
54.047098
 30
0.0
 11
29.856737
 21
54.047098
 31
0.0
  0
LINE
  5
20e
100
AcDbEntity
  8
Layer_1
 62
7
100
AcDbLine
 10
33.825487
 20
55.899181
 30
0.0
 11
33.825487
 21
50.342931
 31
0.0
  0
LINE
  5
20f
100
AcDbEntity
  8
Layer_1
 62
7
100
AcDbLine
 10
33.825487
 20
55.899181
 30
0.0
 11
37.265070
 21
55.899181
 31
0.0
  0
LINE
  5
210
100
AcDbEntity
  8
Layer_1
 62
7
100
AcDbLine
 10
33.825487
 20
53.253348
 30
0.0
 11
35.942154
 21
53.253348
 31
0.0
  0
LINE
  5
211
100
AcDbEntity
  8
Layer_1
 62
7
100
AcDbLine
 10
33.825487
 20
50.342931
 30
0.0
 11
37.265070
 21
50.342931
 31
0.0
  0
LINE
  5
212
100
AcDbEntity
  8
Layer_1
 62
7
100
AcDbLine
 10
42.292154
 20
55.105431
 30
0.0
 11
41.762987
 21
55.634598
 31
0.0
  0
LINE
  5
213
100
AcDbEntity
  8
Layer_1
 62
7
100
AcDbLine
 10
41.762987
 20
55.634598
 30
0.0
 11
40.969237
 21
55.899181
 31
0.0
  0
LINE
  5
214
100
AcDbEntity
  8
Layer_1
 62
7
100
AcDbLine
 10
40.969237
 20
55.899181
 30
0.0
 11
39.910904
 21
55.899181
 31
0.0
  0
LINE
  5
215
100
AcDbEntity
  8
Layer_1
 62
7
100
AcDbLine
 10
39.910904
 20
55.899181
 30
0.0
 11
39.117154
 21
55.634598
 31
0.0
  0
LINE
  5
216
100
AcDbEntity
  8
Layer_1
 62
7
100
AcDbLine
 10
39.117154
 20
55.634598
 30
0.0
 11
38.587987
 21
55.105431
 31
0.0
  0
LINE
  5
217
100
AcDbEntity
  8
Layer_1
 62
7
100
AcDbLine
 10
38.587987
 20
55.105431
 30
0.0
 11
38.587987
 21
54.576264
 31
0.0
  0
LINE
  5
218
100
AcDbEntity
  8
Layer_1
 62
7
100
AcDbLine
 10
38.587987
 20
54.576264
 30
0.0
 11
38.852570
 21
54.047098
 31
0.0
  0
LINE
  5
219
100
AcDbEntity
  8
Layer_1
 62
7
100
AcDbLine
 10
38.852570
 20
54.047098
 30
0.0
 11
39.117154
 21
53.782514
 31
0.0
  0
LINE
  5
21a
100
AcDbEntity
  8
Layer_1
 62
7
100
AcDbLine
 10
39.117154
 20
53.782514
 30
0.0
 11
39.646320
 21
53.517931
 31
0.0
  0
LINE
  5
21b
100
AcDbEntity
  8
Layer_1
 62
7
100
AcDbLine
 10
39.646320
 20
53.517931
 30
0.0
 11
41.233820
 21
52.988764
 31
0.0
  0
LINE
  5
21c
100
AcDbEntity
  8
Layer_1
 62
7
100
AcDbLine
 10
41.233820
 20
52.988764
 30
0.0
 11
41.762987
 21
52.724181
 31
0.0
  0
LINE
  5
21d
100
AcDbEntity
  8
Layer_1
 62
7
100
AcDbLine
 10
41.762987
 20
52.724181
 30
0.0
 11
42.027570
 21
52.459598
 31
0.0
  0
LINE
  5
21e
100
AcDbEntity
  8
Layer_1
 62
7
100
AcDbLine
 10
42.027570
 20
52.459598
 30
0.0
 11
42.292154
 21
51.930431
 31
0.0
  0
LINE
  5
21f
100
AcDbEntity
  8
Layer_1
 62
7
100
AcDbLine
 10
42.292154
 20
51.930431
 30
0.0
 11
42.292154
 21
51.136681
 31
0.0
  0
LINE
  5
220
100
AcDbEntity
  8
Layer_1
 62
7
100
AcDbLine
 10
42.292154
 20
51.136681
 30
0.0
 11
41.762987
 21
50.607514
 31
0.0
  0
LINE
  5
221
100
AcDbEntity
  8
Layer_1
 62
7
100
AcDbLine
 10
41.762987
 20
50.607514
 30
0.0
 11
40.969237
 21
50.342931
 31
0.0
  0
LINE
  5
222
100
AcDbEntity
  8
Layer_1
 62
7
100
AcDbLine
 10
40.969237
 20
50.342931
 30
0.0
 11
39.910904
 21
50.342931
 31
0.0
  0
LINE
  5
223
100
AcDbEntity
  8
Layer_1
 62
7
100
AcDbLine
 10
39.910904
 20
50.342931
 30
0.0
 11
39.117154
 21
50.607514
 31
0.0
  0
LINE
  5
224
100
AcDbEntity
  8
Layer_1
 62
7
100
AcDbLine
 10
39.117154
 20
50.607514
 30
0.0
 11
38.587987
 21
51.136681
 31
0.0
  0
LINE
  5
225
100
AcDbEntity
  8
Layer_1
 62
7
100
AcDbLine
 10
28.594618
 20
46.793864
 30
0.0
 11
30.182118
 21
43.089697
 31
0.0
  0
LINE
  5
226
100
AcDbEntity
  8
Layer_1
 62
7
100
AcDbLine
 10
31.769618
 20
46.793864
 30
0.0
 11
30.182118
 21
43.089697
 31
0.0
  0
LINE
  5
227
100
AcDbEntity
  8
Layer_1
 62
7
100
AcDbLine
 10
35.738368
 20
48.645947
 30
0.0
 11
33.092534
 21
44.941781
 31
0.0
  0
LINE
  5
228
100
AcDbEntity
  8
Layer_1
 62
7
100
AcDbLine
 10
33.092534
 20
44.941781
 30
0.0
 11
37.061284
 21
44.941781
 31
0.0
  0
LINE
  5
229
100
AcDbEntity
  8
Layer_1
 62
7
100
AcDbLine
 10
35.738368
 20
48.645947
 30
0.0
 11
35.738368
 21
43.089697
 31
0.0
  0
ENDSEC
  0
SECTION
  2
OBJECTS
  0
DICTIONARY
  5
C
330
0
100
AcDbDictionary
  3
ACAD_GROUP
350
D
  3
ACAD_MLINESTYLE
350
17
  0
DICTIONARY
  5
D
330
C
100
AcDbDictionary
  0
DICTIONARY
  5
1A
330
C
100
AcDbDictionary
  0
DICTIONARY
  5
17
330
C
100
AcDbDictionary
  3
STANDARD
350
18
  0
DICTIONARY
  5
19
330
C
100
AcDbDictionary
  0
ENDSEC
  0
EOF
