  0
SECTION
  2
HEADER
  9
$ACADVER
  1
AC1014
  9
$HANDSEED
  5
FFFF
  9
$MEASUREMENT
 70
     1
  0
ENDSEC
  0
SECTION
  2
TABLES
  0
TABLE
  2
VPORT
  5
8
330
0
100
AcDbSymbolTable
 70
     4
  0
VPORT
  5
2E
330
8
100
AcDbSymbolTableRecord
100
AcDbViewportTableRecord
  2
*ACTIVE
 70
     0
 10
0.0
 20
0.0
 11
1.0
 21
1.0
 12
210.0
 22
148.5
 13
0.0
 23
0.0
 14
10.0
 24
10.0
 15
10.0
 25
10.0
 16
0.0
 26
0.0
 36
1.0
 17
0.0
 27
0.0
 37
0.0
 40
341.0
 41
1.24
 42
50.0
 43
0.0
 44
0.0
 50
0.0
 51
0.0
 71
     0
 72
   100
 73
     1
 74
     3
 75
     0
 76
     0
 77
     0
 78
     0
  0
ENDTAB
  0
TABLE
  2
LTYPE
  5
5
330
0
100
AcDbSymbolTable
 70
     1
  0
LTYPE
  5
14
330
5
100
AcDbSymbolTableRecord
100
AcDbLinetypeTableRecord
  2
BYBLOCK
 70
     0
  3

 72
    65
 73
     0
 40
0.0
  0
LTYPE
  5
15
330
5
100
AcDbSymbolTableRecord
100
AcDbLinetypeTableRecord
  2
BYLAYER
 70
     0
  3

 72
    65
 73
     0
 40
0.0
  0
LTYPE
  5
16
330
5
100
AcDbSymbolTableRecord
100
AcDbLinetypeTableRecord
  2
CONTINUOUS
 70
     0
  3
Solid line
 72
    65
 73
     0
 40
0.0
  0
ENDTAB
  0
TABLE
  2
LAYER
  5
2
100
AcDbSymbolTable
 70
2
  0
LAYER
  5
50
100
AcDbSymbolTableRecord
100
AcDbLayerTableRecord
  2
0
 70
0
  6
CONTINUOUS
  0
LAYER
  5
51
100
AcDbSymbolTableRecord
100
AcDbLayerTableRecord
  2
Layer_1
 70
0
  6
CONTINUOUS
  0
ENDTAB
  0
TABLE
  2
STYLE
  5
3
330
0
100
AcDbSymbolTable
 70
     1
  0
STYLE
  5
11
330
3
100
AcDbSymbolTableRecord
100
AcDbTextStyleTableRecord
  2
STANDARD
 70
     0
 40
0.0
 41
1.0
 50
0.0
 71
     0
 42
2.5
  3
txt
  4

  0
ENDTAB
  0
TABLE
  2
VIEW
  5
6
330
0
100
AcDbSymbolTable
 70
     0
  0
ENDTAB
  0
TABLE
  2
UCS
  5
7
330
0
100
AcDbSymbolTable
 70
     0
  0
ENDTAB
  0
TABLE
  2
APPID
  5
9
330
0
100
AcDbSymbolTable
 70
     2
  0
APPID
  5
12
330
9
100
AcDbSymbolTableRecord
100
AcDbRegAppTableRecord
  2
ACAD
 70
     0
  0
ENDTAB
  0
TABLE
  2
DIMSTYLE
  5
A
330
0
100
AcDbSymbolTable
 70
     1
  0
DIMSTYLE
105
27
330
A
100
AcDbSymbolTableRecord
100
AcDbDimStyleTableRecord
  2
ISO-25
 70
     0
  3

  4

  5

  6

  7

 40
1.0
 41
2.5
 42
0.625
 43
3.75
 44
1.25
 45
0.0
 46
0.0
 47
0.0
 48
0.0
140
2.5
141
2.5
142
0.0
143
0.03937007874016
144
1.0
145
0.0
146
1.0
147
0.625
 71
     0
 72
     0
 73
     0
 74
     0
 75
     0
 76
     0
 77
     1
 78
     8
170
     0
171
     3
172
     1
173
     0
174
     0
175
     0
176
     0
177
     0
178
     0
270
     2
271
     2
272
     2
273
     2
274
     3
340
11
275
     0
280
     0
281
     0
282
     0
283
     0
284
     8
285
     0
286
     0
287
     3
288
     0
  0
ENDTAB
  0
TABLE
  2
BLOCK_RECORD
  5
1
330
0
100
AcDbSymbolTable
 70
     1
  0
BLOCK_RECORD
  5
1F
330
1
100
AcDbSymbolTableRecord
100
AcDbBlockTableRecord
  2
*MODEL_SPACE
  0
BLOCK_RECORD
  5
1B
330
1
100
AcDbSymbolTableRecord
100
AcDbBlockTableRecord
  2
*PAPER_SPACE
  0
ENDTAB
  0
ENDSEC
  0
SECTION
  2
BLOCKS
  0
BLOCK
  5
20
330
1F
100
AcDbEntity
  8
0
100
AcDbBlockBegin
  2
*MODEL_SPACE
 70
     0
 10
0.0
 20
0.0
 30
0.0
  3
*MODEL_SPACE
  1

  0
ENDBLK
  5
21
330
1F
100
AcDbEntity
  8
0
100
AcDbBlockEnd
  0
BLOCK
  5
1C
330
1B
100
AcDbEntity
 67
     1
  8
0
100
AcDbBlockBegin
  2
*PAPER_SPACE
  1

  0
ENDBLK
  5
1D
330
1B
100
AcDbEntity
 67
     1
  8
0
100
AcDbBlockEnd
  0
ENDSEC
  0
SECTION
  2
ENTITIES
  0
LINE
  5
100
100
AcDbEntity
  8
Layer_1
 62
7
100
AcDbLine
 10
-138.874610
 20
171.924420
 30
0.0
 11
-122.819390
 21
167.622450
 31
0.0
  0
SPLINE
  5
101
100
AcDbEntity
  8
Layer_1
 62
7
100
AcDbSpline
 70
8
 71
3
 72
8
 73
4
 74
0
 40
0
 40
0
 40
0
 40
0
 40
1
 40
1
 40
1
 40
1
 10
-122.819390
 20
167.622450
 30
0.0
 10
-122.566153
 20
167.554589
 30
0.0
 10
-122.305112
 20
167.520216
 30
0.0
 10
-122.042940
 20
167.520210
 30
0.0
  0
LINE
  5
102
100
AcDbEntity
  8
Layer_1
 62
7
100
AcDbLine
 10
3.836458
 20
167.520210
 30
0.0
 11
220.543500
 21
167.520210
 31
0.0
  0
LINE
  5
103
100
AcDbEntity
  8
Layer_1
 62
7
100
AcDbLine
 10
220.543500
 20
167.520210
 30
0.0
 11
220.543500
 21
165.920230
 31
0.0
  0
SPLINE
  5
104
100
AcDbEntity
  8
Layer_1
 62
7
100
AcDbSpline
 70
8
 71
3
 72
8
 73
4
 74
0
 40
0
 40
0
 40
0
 40
0
 40
1
 40
1
 40
1
 40
1
 10
220.543500
 20
165.920230
 30
0.0
 10
220.543495
 20
165.442833
 30
0.0
 10
220.733137
 20
164.984988
 30
0.0
 10
221.070708
 20
164.647418
 30
0.0
  0
SPLINE
  5
105
100
AcDbEntity
  8
Layer_1
 62
7
100
AcDbSpline
 70
8
 71
3
 72
8
 73
4
 74
0
 40
0
 40
0
 40
0
 40
0
 40
1
 40
1
 40
1
 40
1
 10
221.070708
 20
164.647418
 30
0.0
 10
221.408278
 20
164.309847
 30
0.0
 10
221.866123
 20
164.120205
 30
0.0
 10
222.343520
 20
164.120210
 30
0.0
  0
LINE
  5
106
100
AcDbEntity
  8
Layer_1
 62
7
100
AcDbLine
 10
222.343520
 20
164.120210
 30
0.0
 11
228.743520
 21
164.120210
 31
0.0
  0
SPLINE
  5
107
100
AcDbEntity
  8
Layer_1
 62
7
100
AcDbSpline
 70
8
 71
3
 72
8
 73
4
 74
0
 40
0
 40
0
 40
0
 40
0
 40
1
 40
1
 40
1
 40
1
 10
228.743520
 20
164.120210
 30
0.0
 10
229.220911
 20
164.120213
 30
0.0
 10
229.678749
 20
164.309859
 30
0.0
 10
230.016313
 20
164.647428
 30
0.0
  0
SPLINE
  5
108
100
AcDbEntity
  8
Layer_1
 62
7
100
AcDbSpline
 70
8
 71
3
 72
8
 73
4
 74
0
 40
0
 40
0
 40
0
 40
0
 40
1
 40
1
 40
1
 40
1
 10
230.016313
 20
164.647428
 30
0.0
 10
230.353877
 20
164.984998
 30
0.0
 10
230.543515
 20
165.442839
 30
0.0
 10
230.543510
 20
165.920230
 30
0.0
  0
LINE
  5
109
100
AcDbEntity
  8
Layer_1
 62
7
100
AcDbLine
 10
230.543510
 20
165.920230
 30
0.0
 11
230.543510
 21
190.320220
 31
0.0
  0
SPLINE
  5
10a
100
AcDbEntity
  8
Layer_1
 62
7
100
AcDbSpline
 70
8
 71
3
 72
8
 73
4
 74
0
 40
0
 40
0
 40
0
 40
0
 40
1
 40
1
 40
1
 40
1
 10
230.543510
 20
190.320220
 30
0.0
 10
230.543515
 20
191.314333
 30
0.0
 10
229.737633
 20
192.120224
 30
0.0
 10
228.743520
 20
192.120230
 30
0.0
  0
LINE
  5
10b
100
AcDbEntity
  8
Layer_1
 62
7
100
AcDbLine
 10
228.743520
 20
192.120230
 30
0.0
 11
222.343520
 21
192.120230
 31
0.0
  0
SPLINE
  5
10c
100
AcDbEntity
  8
Layer_1
 62
7
100
AcDbSpline
 70
8
 71
3
 72
8
 73
4
 74
0
 40
0
 40
0
 40
0
 40
0
 40
1
 40
1
 40
1
 40
1
 10
222.343520
 20
192.120230
 30
0.0
 10
221.866125
 20
192.120235
 30
0.0
 10
221.408281
 20
191.930594
 30
0.0
 10
221.070711
 20
191.593026
 30
0.0
  0
SPLINE
  5
10d
100
AcDbEntity
  8
Layer_1
 62
7
100
AcDbSpline
 70
8
 71
3
 72
8
 73
4
 74
0
 40
0
 40
0
 40
0
 40
0
 40
1
 40
1
 40
1
 40
1
 10
221.070711
 20
191.593026
 30
0.0
 10
220.733141
 20
191.255458
 30
0.0
 10
220.543497
 20
190.797615
 30
0.0
 10
220.543500
 20
190.320220
 30
0.0
  0
LINE
  5
10e
100
AcDbEntity
  8
Layer_1
 62
7
100
AcDbLine
 10
220.543500
 20
190.320220
 30
0.0
 11
220.543500
 21
188.720230
 31
0.0
  0
LINE
  5
10f
100
AcDbEntity
  8
Layer_1
 62
7
100
AcDbLine
 10
220.543500
 20
188.720230
 30
0.0
 11
3.874256
 21
188.720230
 31
0.0
  0
SPLINE
  5
110
100
AcDbEntity
  8
Layer_1
 62
7
100
AcDbSpline
 70
8
 71
3
 72
8
 73
4
 74
0
 40
0
 40
0
 40
0
 40
0
 40
1
 40
1
 40
1
 40
1
 10
-122.042940
 20
188.720230
 30
0.0
 10
-122.305112
 20
188.720224
 30
0.0
 10
-122.566153
 20
188.685851
 30
0.0
 10
-122.819390
 20
188.617990
 30
0.0
  0
LINE
  5
111
100
AcDbEntity
  8
Layer_1
 62
7
100
AcDbLine
 10
-122.819390
 20
188.617990
 30
0.0
 11
-138.874610
 21
184.316020
 31
0.0
  0
SPLINE
  5
112
100
AcDbEntity
  8
Layer_1
 62
7
100
AcDbSpline
 70
8
 71
3
 72
8
 73
4
 74
0
 40
0
 40
0
 40
0
 40
0
 40
1
 40
1
 40
1
 40
1
 10
-138.874610
 20
184.316020
 30
0.0
 10
-140.186157
 20
183.964591
 30
0.0
 10
-141.098147
 20
182.776063
 30
0.0
 10
-141.098150
 20
181.418250
 30
0.0
  0
LINE
  5
113
100
AcDbEntity
  8
Layer_1
 62
7
100
AcDbLine
 10
-141.098150
 20
181.418250
 30
0.0
 11
-141.098150
 21
174.822210
 31
0.0
  0
SPLINE
  5
114
100
AcDbEntity
  8
Layer_1
 62
7
100
AcDbSpline
 70
8
 71
3
 72
8
 73
4
 74
0
 40
0
 40
0
 40
0
 40
0
 40
1
 40
1
 40
1
 40
1
 10
-141.098150
 20
174.822180
 30
0.0
 10
-141.098142
 20
173.464370
 30
0.0
 10
-140.186153
 20
172.275848
 30
0.0
 10
-138.874610
 20
171.924420
 30
0.0
  0
LINE
  5
115
100
AcDbEntity
  8
Layer_1
 62
7
100
AcDbLine
 10
-122.218080
 20
167.622450
 30
0.0
 11
-121.068080
 21
165.638450
 31
0.0
  0
LINE
  5
116
100
AcDbEntity
  8
Layer_1
 62
7
100
AcDbLine
 10
-121.068080
 20
165.638450
 30
0.0
 11
-120.234080
 21
165.638450
 31
0.0
  0
LINE
  5
117
100
AcDbEntity
  8
Layer_1
 62
7
100
AcDbLine
 10
-120.234080
 20
165.638450
 30
0.0
 11
-119.083080
 21
167.622450
 31
0.0
  0
LINE
  5
118
100
AcDbEntity
  8
Layer_1
 62
7
100
AcDbLine
 10
-119.083080
 20
167.622450
 30
0.0
 11
-118.249080
 21
167.622450
 31
0.0
  0
LINE
  5
119
100
AcDbEntity
  8
Layer_1
 62
7
100
AcDbLine
 10
-118.249080
 20
167.622450
 30
0.0
 11
-117.099080
 21
165.638450
 31
0.0
  0
LINE
  5
11a
100
AcDbEntity
  8
Layer_1
 62
7
100
AcDbLine
 10
-117.099080
 20
165.638450
 30
0.0
 11
-116.265080
 21
165.638450
 31
0.0
  0
LINE
  5
11b
100
AcDbEntity
  8
Layer_1
 62
7
100
AcDbLine
 10
-116.265080
 20
165.638450
 30
0.0
 11
-115.115080
 21
167.622450
 31
0.0
  0
LINE
  5
11c
100
AcDbEntity
  8
Layer_1
 62
7
100
AcDbLine
 10
-115.115080
 20
167.622450
 30
0.0
 11
-114.281080
 21
167.622450
 31
0.0
  0
LINE
  5
11d
100
AcDbEntity
  8
Layer_1
 62
7
100
AcDbLine
 10
-114.281080
 20
167.622450
 30
0.0
 11
-113.130080
 21
165.638450
 31
0.0
  0
LINE
  5
11e
100
AcDbEntity
  8
Layer_1
 62
7
100
AcDbLine
 10
-113.130080
 20
165.638450
 30
0.0
 11
-112.296080
 21
165.638450
 31
0.0
  0
LINE
  5
11f
100
AcDbEntity
  8
Layer_1
 62
7
100
AcDbLine
 10
-112.296080
 20
165.638450
 30
0.0
 11
-111.146080
 21
167.622450
 31
0.0
  0
LINE
  5
120
100
AcDbEntity
  8
Layer_1
 62
7
100
AcDbLine
 10
-111.146080
 20
167.622450
 30
0.0
 11
-110.312080
 21
167.622450
 31
0.0
  0
LINE
  5
121
100
AcDbEntity
  8
Layer_1
 62
7
100
AcDbLine
 10
-110.312080
 20
167.622450
 30
0.0
 11
-109.161080
 21
165.638450
 31
0.0
  0
LINE
  5
122
100
AcDbEntity
  8
Layer_1
 62
7
100
AcDbLine
 10
-109.161080
 20
165.638450
 30
0.0
 11
-108.327080
 21
165.638450
 31
0.0
  0
LINE
  5
123
100
AcDbEntity
  8
Layer_1
 62
7
100
AcDbLine
 10
-108.327080
 20
165.638450
 30
0.0
 11
-107.177080
 21
167.622450
 31
0.0
  0
LINE
  5
124
100
AcDbEntity
  8
Layer_1
 62
7
100
AcDbLine
 10
-107.177080
 20
167.622450
 30
0.0
 11
-106.343080
 21
167.622450
 31
0.0
  0
LINE
  5
125
100
AcDbEntity
  8
Layer_1
 62
7
100
AcDbLine
 10
-106.343080
 20
167.622450
 30
0.0
 11
-105.193080
 21
165.638450
 31
0.0
  0
LINE
  5
126
100
AcDbEntity
  8
Layer_1
 62
7
100
AcDbLine
 10
-105.193080
 20
165.638450
 30
0.0
 11
-104.359080
 21
165.638450
 31
0.0
  0
LINE
  5
127
100
AcDbEntity
  8
Layer_1
 62
7
100
AcDbLine
 10
-104.359080
 20
165.638450
 30
0.0
 11
-103.208080
 21
167.622450
 31
0.0
  0
LINE
  5
128
100
AcDbEntity
  8
Layer_1
 62
7
100
AcDbLine
 10
-103.208080
 20
167.622450
 30
0.0
 11
-102.374080
 21
167.622450
 31
0.0
  0
LINE
  5
129
100
AcDbEntity
  8
Layer_1
 62
7
100
AcDbLine
 10
-102.374080
 20
167.622450
 30
0.0
 11
-101.224080
 21
165.638450
 31
0.0
  0
LINE
  5
12a
100
AcDbEntity
  8
Layer_1
 62
7
100
AcDbLine
 10
-101.224080
 20
165.638450
 30
0.0
 11
-100.390080
 21
165.638450
 31
0.0
  0
LINE
  5
12b
100
AcDbEntity
  8
Layer_1
 62
7
100
AcDbLine
 10
-100.390080
 20
165.638450
 30
0.0
 11
-99.240080
 21
167.622450
 31
0.0
  0
LINE
  5
12c
100
AcDbEntity
  8
Layer_1
 62
7
100
AcDbLine
 10
-99.240080
 20
167.622450
 30
0.0
 11
-98.406080
 21
167.622450
 31
0.0
  0
LINE
  5
12d
100
AcDbEntity
  8
Layer_1
 62
7
100
AcDbLine
 10
-98.406080
 20
167.622450
 30
0.0
 11
-97.255080
 21
165.638450
 31
0.0
  0
LINE
  5
12e
100
AcDbEntity
  8
Layer_1
 62
7
100
AcDbLine
 10
-97.255080
 20
165.638450
 30
0.0
 11
-96.421080
 21
165.638450
 31
0.0
  0
LINE
  5
12f
100
AcDbEntity
  8
Layer_1
 62
7
100
AcDbLine
 10
-96.421080
 20
165.638450
 30
0.0
 11
-95.271080
 21
167.622450
 31
0.0
  0
LINE
  5
130
100
AcDbEntity
  8
Layer_1
 62
7
100
AcDbLine
 10
-95.271080
 20
167.622450
 30
0.0
 11
-94.437080
 21
167.622450
 31
0.0
  0
LINE
  5
131
100
AcDbEntity
  8
Layer_1
 62
7
100
AcDbLine
 10
-94.437080
 20
167.622450
 30
0.0
 11
-93.286080
 21
165.638450
 31
0.0
  0
LINE
  5
132
100
AcDbEntity
  8
Layer_1
 62
7
100
AcDbLine
 10
-93.286080
 20
165.638450
 30
0.0
 11
-92.452080
 21
165.638450
 31
0.0
  0
LINE
  5
133
100
AcDbEntity
  8
Layer_1
 62
7
100
AcDbLine
 10
-92.452080
 20
165.638450
 30
0.0
 11
-91.302080
 21
167.622450
 31
0.0
  0
LINE
  5
134
100
AcDbEntity
  8
Layer_1
 62
7
100
AcDbLine
 10
-91.302080
 20
167.622450
 30
0.0
 11
-90.468080
 21
167.622450
 31
0.0
  0
LINE
  5
135
100
AcDbEntity
  8
Layer_1
 62
7
100
AcDbLine
 10
-90.468080
 20
167.622450
 30
0.0
 11
-89.318080
 21
165.638450
 31
0.0
  0
LINE
  5
136
100
AcDbEntity
  8
Layer_1
 62
7
100
AcDbLine
 10
-89.318080
 20
165.638450
 30
0.0
 11
-88.484080
 21
165.638450
 31
0.0
  0
LINE
  5
137
100
AcDbEntity
  8
Layer_1
 62
7
100
AcDbLine
 10
-88.484080
 20
165.638450
 30
0.0
 11
-87.333080
 21
167.622450
 31
0.0
  0
LINE
  5
138
100
AcDbEntity
  8
Layer_1
 62
7
100
AcDbLine
 10
-87.333080
 20
167.622450
 30
0.0
 11
-86.499080
 21
167.622450
 31
0.0
  0
LINE
  5
139
100
AcDbEntity
  8
Layer_1
 62
7
100
AcDbLine
 10
-86.499080
 20
167.622450
 30
0.0
 11
-85.349080
 21
165.638450
 31
0.0
  0
LINE
  5
13a
100
AcDbEntity
  8
Layer_1
 62
7
100
AcDbLine
 10
-85.349080
 20
165.638450
 30
0.0
 11
-84.515080
 21
165.638450
 31
0.0
  0
LINE
  5
13b
100
AcDbEntity
  8
Layer_1
 62
7
100
AcDbLine
 10
-84.515080
 20
165.638450
 30
0.0
 11
-83.365080
 21
167.622450
 31
0.0
  0
LINE
  5
13c
100
AcDbEntity
  8
Layer_1
 62
7
100
AcDbLine
 10
-83.365080
 20
167.622450
 30
0.0
 11
-82.531080
 21
167.622450
 31
0.0
  0
LINE
  5
13d
100
AcDbEntity
  8
Layer_1
 62
7
100
AcDbLine
 10
-82.531080
 20
167.622450
 30
0.0
 11
-81.380080
 21
165.638450
 31
0.0
  0
LINE
  5
13e
100
AcDbEntity
  8
Layer_1
 62
7
100
AcDbLine
 10
-81.380080
 20
165.638450
 30
0.0
 11
-80.546080
 21
165.638450
 31
0.0
  0
LINE
  5
13f
100
AcDbEntity
  8
Layer_1
 62
7
100
AcDbLine
 10
-80.546080
 20
165.638450
 30
0.0
 11
-79.396080
 21
167.622450
 31
0.0
  0
LINE
  5
140
100
AcDbEntity
  8
Layer_1
 62
7
100
AcDbLine
 10
-79.396080
 20
167.622450
 30
0.0
 11
-78.562080
 21
167.622450
 31
0.0
  0
LINE
  5
141
100
AcDbEntity
  8
Layer_1
 62
7
100
AcDbLine
 10
-78.562080
 20
167.622450
 30
0.0
 11
-77.411080
 21
165.638450
 31
0.0
  0
LINE
  5
142
100
AcDbEntity
  8
Layer_1
 62
7
100
AcDbLine
 10
-77.411080
 20
165.638450
 30
0.0
 11
-76.577080
 21
165.638450
 31
0.0
  0
LINE
  5
143
100
AcDbEntity
  8
Layer_1
 62
7
100
AcDbLine
 10
-76.577080
 20
165.638450
 30
0.0
 11
-75.427080
 21
167.622450
 31
0.0
  0
LINE
  5
144
100
AcDbEntity
  8
Layer_1
 62
7
100
AcDbLine
 10
-75.427080
 20
167.622450
 30
0.0
 11
-74.593080
 21
167.622450
 31
0.0
  0
LINE
  5
145
100
AcDbEntity
  8
Layer_1
 62
7
100
AcDbLine
 10
-74.593080
 20
167.622450
 30
0.0
 11
-73.443080
 21
165.638450
 31
0.0
  0
LINE
  5
146
100
AcDbEntity
  8
Layer_1
 62
7
100
AcDbLine
 10
-73.443080
 20
165.638450
 30
0.0
 11
-72.609080
 21
165.638450
 31
0.0
  0
LINE
  5
147
100
AcDbEntity
  8
Layer_1
 62
7
100
AcDbLine
 10
-72.609080
 20
165.638450
 30
0.0
 11
-71.458080
 21
167.622450
 31
0.0
  0
LINE
  5
148
100
AcDbEntity
  8
Layer_1
 62
7
100
AcDbLine
 10
-71.458080
 20
167.622450
 30
0.0
 11
-70.624080
 21
167.622450
 31
0.0
  0
LINE
  5
149
100
AcDbEntity
  8
Layer_1
 62
7
100
AcDbLine
 10
-70.624080
 20
167.622450
 30
0.0
 11
-69.474080
 21
165.638450
 31
0.0
  0
LINE
  5
14a
100
AcDbEntity
  8
Layer_1
 62
7
100
AcDbLine
 10
-69.474080
 20
165.638450
 30
0.0
 11
-68.640080
 21
165.638450
 31
0.0
  0
LINE
  5
14b
100
AcDbEntity
  8
Layer_1
 62
7
100
AcDbLine
 10
-68.640080
 20
165.638450
 30
0.0
 11
-67.490080
 21
167.622450
 31
0.0
  0
LINE
  5
14c
100
AcDbEntity
  8
Layer_1
 62
7
100
AcDbLine
 10
-67.490080
 20
167.622450
 30
0.0
 11
-66.656080
 21
167.622450
 31
0.0
  0
LINE
  5
14d
100
AcDbEntity
  8
Layer_1
 62
7
100
AcDbLine
 10
-66.656080
 20
167.622450
 30
0.0
 11
-65.505080
 21
165.638450
 31
0.0
  0
LINE
  5
14e
100
AcDbEntity
  8
Layer_1
 62
7
100
AcDbLine
 10
-65.505080
 20
165.638450
 30
0.0
 11
-64.671080
 21
165.638450
 31
0.0
  0
LINE
  5
14f
100
AcDbEntity
  8
Layer_1
 62
7
100
AcDbLine
 10
-64.671080
 20
165.638450
 30
0.0
 11
-63.521080
 21
167.622450
 31
0.0
  0
LINE
  5
150
100
AcDbEntity
  8
Layer_1
 62
7
100
AcDbLine
 10
-63.521080
 20
167.622450
 30
0.0
 11
-62.687080
 21
167.622450
 31
0.0
  0
LINE
  5
151
100
AcDbEntity
  8
Layer_1
 62
7
100
AcDbLine
 10
-62.687080
 20
167.622450
 30
0.0
 11
-61.536080
 21
165.638450
 31
0.0
  0
LINE
  5
152
100
AcDbEntity
  8
Layer_1
 62
7
100
AcDbLine
 10
-61.536080
 20
165.638450
 30
0.0
 11
-60.702080
 21
165.638450
 31
0.0
  0
LINE
  5
153
100
AcDbEntity
  8
Layer_1
 62
7
100
AcDbLine
 10
-60.702080
 20
165.638450
 30
0.0
 11
-59.552080
 21
167.622450
 31
0.0
  0
LINE
  5
154
100
AcDbEntity
  8
Layer_1
 62
7
100
AcDbLine
 10
-59.552080
 20
167.622450
 30
0.0
 11
-58.718080
 21
167.622450
 31
0.0
  0
LINE
  5
155
100
AcDbEntity
  8
Layer_1
 62
7
100
AcDbLine
 10
-58.718080
 20
167.622450
 30
0.0
 11
-57.568080
 21
165.638450
 31
0.0
  0
LINE
  5
156
100
AcDbEntity
  8
Layer_1
 62
7
100
AcDbLine
 10
-57.568080
 20
165.638450
 30
0.0
 11
-56.734080
 21
165.638450
 31
0.0
  0
LINE
  5
157
100
AcDbEntity
  8
Layer_1
 62
7
100
AcDbLine
 10
-56.734080
 20
165.638450
 30
0.0
 11
-55.583080
 21
167.622450
 31
0.0
  0
LINE
  5
158
100
AcDbEntity
  8
Layer_1
 62
7
100
AcDbLine
 10
-55.583080
 20
167.622450
 30
0.0
 11
-54.749080
 21
167.622450
 31
0.0
  0
LINE
  5
159
100
AcDbEntity
  8
Layer_1
 62
7
100
AcDbLine
 10
-54.749080
 20
167.622450
 30
0.0
 11
-53.599080
 21
165.638450
 31
0.0
  0
LINE
  5
15a
100
AcDbEntity
  8
Layer_1
 62
7
100
AcDbLine
 10
-53.599080
 20
165.638450
 30
0.0
 11
-52.765080
 21
165.638450
 31
0.0
  0
LINE
  5
15b
100
AcDbEntity
  8
Layer_1
 62
7
100
AcDbLine
 10
-52.765080
 20
165.638450
 30
0.0
 11
-51.615080
 21
167.622450
 31
0.0
  0
LINE
  5
15c
100
AcDbEntity
  8
Layer_1
 62
7
100
AcDbLine
 10
-51.615080
 20
167.622450
 30
0.0
 11
-50.781080
 21
167.622450
 31
0.0
  0
LINE
  5
15d
100
AcDbEntity
  8
Layer_1
 62
7
100
AcDbLine
 10
-50.781080
 20
167.622450
 30
0.0
 11
-49.630080
 21
165.638450
 31
0.0
  0
LINE
  5
15e
100
AcDbEntity
  8
Layer_1
 62
7
100
AcDbLine
 10
-49.630080
 20
165.638450
 30
0.0
 11
-48.796080
 21
165.638450
 31
0.0
  0
LINE
  5
15f
100
AcDbEntity
  8
Layer_1
 62
7
100
AcDbLine
 10
-48.796080
 20
165.638450
 30
0.0
 11
-47.646080
 21
167.622450
 31
0.0
  0
LINE
  5
160
100
AcDbEntity
  8
Layer_1
 62
7
100
AcDbLine
 10
-47.646080
 20
167.622450
 30
0.0
 11
-46.812080
 21
167.622450
 31
0.0
  0
LINE
  5
161
100
AcDbEntity
  8
Layer_1
 62
7
100
AcDbLine
 10
-46.812080
 20
167.622450
 30
0.0
 11
-45.661080
 21
165.638450
 31
0.0
  0
LINE
  5
162
100
AcDbEntity
  8
Layer_1
 62
7
100
AcDbLine
 10
-45.661080
 20
165.638450
 30
0.0
 11
-44.827080
 21
165.638450
 31
0.0
  0
LINE
  5
163
100
AcDbEntity
  8
Layer_1
 62
7
100
AcDbLine
 10
-44.827080
 20
165.638450
 30
0.0
 11
-43.677080
 21
167.622450
 31
0.0
  0
LINE
  5
164
100
AcDbEntity
  8
Layer_1
 62
7
100
AcDbLine
 10
-43.677080
 20
167.622450
 30
0.0
 11
-42.843080
 21
167.622450
 31
0.0
  0
LINE
  5
165
100
AcDbEntity
  8
Layer_1
 62
7
100
AcDbLine
 10
-42.843080
 20
167.622450
 30
0.0
 11
-41.693080
 21
165.638450
 31
0.0
  0
LINE
  5
166
100
AcDbEntity
  8
Layer_1
 62
7
100
AcDbLine
 10
-41.693080
 20
165.638450
 30
0.0
 11
-40.859080
 21
165.638450
 31
0.0
  0
LINE
  5
167
100
AcDbEntity
  8
Layer_1
 62
7
100
AcDbLine
 10
-40.859080
 20
165.638450
 30
0.0
 11
-39.708080
 21
167.622450
 31
0.0
  0
LINE
  5
168
100
AcDbEntity
  8
Layer_1
 62
7
100
AcDbLine
 10
-39.708080
 20
167.622450
 30
0.0
 11
-38.874080
 21
167.622450
 31
0.0
  0
LINE
  5
169
100
AcDbEntity
  8
Layer_1
 62
7
100
AcDbLine
 10
-38.874080
 20
167.622450
 30
0.0
 11
-37.724080
 21
165.638450
 31
0.0
  0
LINE
  5
16a
100
AcDbEntity
  8
Layer_1
 62
7
100
AcDbLine
 10
-37.724080
 20
165.638450
 30
0.0
 11
-36.890080
 21
165.638450
 31
0.0
  0
LINE
  5
16b
100
AcDbEntity
  8
Layer_1
 62
7
100
AcDbLine
 10
-36.890080
 20
165.638450
 30
0.0
 11
-35.740080
 21
167.622450
 31
0.0
  0
LINE
  5
16c
100
AcDbEntity
  8
Layer_1
 62
7
100
AcDbLine
 10
-35.740080
 20
167.622450
 30
0.0
 11
-34.906080
 21
167.622450
 31
0.0
  0
LINE
  5
16d
100
AcDbEntity
  8
Layer_1
 62
7
100
AcDbLine
 10
-34.906080
 20
167.622450
 30
0.0
 11
-33.755080
 21
165.638450
 31
0.0
  0
LINE
  5
16e
100
AcDbEntity
  8
Layer_1
 62
7
100
AcDbLine
 10
-33.755080
 20
165.638450
 30
0.0
 11
-32.921080
 21
165.638450
 31
0.0
  0
LINE
  5
16f
100
AcDbEntity
  8
Layer_1
 62
7
100
AcDbLine
 10
-32.921080
 20
165.638450
 30
0.0
 11
-31.771080
 21
167.622450
 31
0.0
  0
LINE
  5
170
100
AcDbEntity
  8
Layer_1
 62
7
100
AcDbLine
 10
-31.771080
 20
167.622450
 30
0.0
 11
-30.937080
 21
167.622450
 31
0.0
  0
LINE
  5
171
100
AcDbEntity
  8
Layer_1
 62
7
100
AcDbLine
 10
-30.937080
 20
167.622450
 30
0.0
 11
-29.786080
 21
165.638450
 31
0.0
  0
LINE
  5
172
100
AcDbEntity
  8
Layer_1
 62
7
100
AcDbLine
 10
-29.786080
 20
165.638450
 30
0.0
 11
-28.952080
 21
165.638450
 31
0.0
  0
LINE
  5
173
100
AcDbEntity
  8
Layer_1
 62
7
100
AcDbLine
 10
-28.952080
 20
165.638450
 30
0.0
 11
-27.802080
 21
167.622450
 31
0.0
  0
LINE
  5
174
100
AcDbEntity
  8
Layer_1
 62
7
100
AcDbLine
 10
-27.802080
 20
167.622450
 30
0.0
 11
-26.968080
 21
167.622450
 31
0.0
  0
LINE
  5
175
100
AcDbEntity
  8
Layer_1
 62
7
100
AcDbLine
 10
-26.968080
 20
167.622450
 30
0.0
 11
-25.818080
 21
165.638450
 31
0.0
  0
LINE
  5
176
100
AcDbEntity
  8
Layer_1
 62
7
100
AcDbLine
 10
-25.818080
 20
165.638450
 30
0.0
 11
-24.984080
 21
165.638450
 31
0.0
  0
LINE
  5
177
100
AcDbEntity
  8
Layer_1
 62
7
100
AcDbLine
 10
-24.984080
 20
165.638450
 30
0.0
 11
-23.833080
 21
167.622450
 31
0.0
  0
LINE
  5
178
100
AcDbEntity
  8
Layer_1
 62
7
100
AcDbLine
 10
-23.833080
 20
167.622450
 30
0.0
 11
-22.999080
 21
167.622450
 31
0.0
  0
LINE
  5
179
100
AcDbEntity
  8
Layer_1
 62
7
100
AcDbLine
 10
-22.999080
 20
167.622450
 30
0.0
 11
-21.849080
 21
165.638450
 31
0.0
  0
LINE
  5
17a
100
AcDbEntity
  8
Layer_1
 62
7
100
AcDbLine
 10
-21.849080
 20
165.638450
 30
0.0
 11
-21.015080
 21
165.638450
 31
0.0
  0
LINE
  5
17b
100
AcDbEntity
  8
Layer_1
 62
7
100
AcDbLine
 10
-21.015080
 20
165.638450
 30
0.0
 11
-19.865080
 21
167.622450
 31
0.0
  0
LINE
  5
17c
100
AcDbEntity
  8
Layer_1
 62
7
100
AcDbLine
 10
-19.865080
 20
167.622450
 30
0.0
 11
-19.031080
 21
167.622450
 31
0.0
  0
LINE
  5
17d
100
AcDbEntity
  8
Layer_1
 62
7
100
AcDbLine
 10
-19.031080
 20
167.622450
 30
0.0
 11
-17.880080
 21
165.638450
 31
0.0
  0
LINE
  5
17e
100
AcDbEntity
  8
Layer_1
 62
7
100
AcDbLine
 10
-17.880080
 20
165.638450
 30
0.0
 11
-17.046080
 21
165.638450
 31
0.0
  0
LINE
  5
17f
100
AcDbEntity
  8
Layer_1
 62
7
100
AcDbLine
 10
-17.046080
 20
165.638450
 30
0.0
 11
-15.896080
 21
167.622450
 31
0.0
  0
LINE
  5
180
100
AcDbEntity
  8
Layer_1
 62
7
100
AcDbLine
 10
-15.896080
 20
167.622450
 30
0.0
 11
-15.062080
 21
167.622450
 31
0.0
  0
LINE
  5
181
100
AcDbEntity
  8
Layer_1
 62
7
100
AcDbLine
 10
-15.062080
 20
167.622450
 30
0.0
 11
-13.911080
 21
165.638450
 31
0.0
  0
LINE
  5
182
100
AcDbEntity
  8
Layer_1
 62
7
100
AcDbLine
 10
-13.911080
 20
165.638450
 30
0.0
 11
-13.077080
 21
165.638450
 31
0.0
  0
LINE
  5
183
100
AcDbEntity
  8
Layer_1
 62
7
100
AcDbLine
 10
-13.077080
 20
165.638450
 30
0.0
 11
-11.927080
 21
167.622450
 31
0.0
  0
LINE
  5
184
100
AcDbEntity
  8
Layer_1
 62
7
100
AcDbLine
 10
-11.927080
 20
167.622450
 30
0.0
 11
-11.093080
 21
167.622450
 31
0.0
  0
LINE
  5
185
100
AcDbEntity
  8
Layer_1
 62
7
100
AcDbLine
 10
-11.093080
 20
167.622450
 30
0.0
 11
-9.943080
 21
165.638450
 31
0.0
  0
LINE
  5
186
100
AcDbEntity
  8
Layer_1
 62
7
100
AcDbLine
 10
-9.943080
 20
165.638450
 30
0.0
 11
-9.109080
 21
165.638450
 31
0.0
  0
LINE
  5
187
100
AcDbEntity
  8
Layer_1
 62
7
100
AcDbLine
 10
-9.109080
 20
165.638450
 30
0.0
 11
-7.958080
 21
167.622450
 31
0.0
  0
LINE
  5
188
100
AcDbEntity
  8
Layer_1
 62
7
100
AcDbLine
 10
-7.958080
 20
167.622450
 30
0.0
 11
-7.124080
 21
167.622450
 31
0.0
  0
LINE
  5
189
100
AcDbEntity
  8
Layer_1
 62
7
100
AcDbLine
 10
-7.124080
 20
167.622450
 30
0.0
 11
-5.974080
 21
165.638450
 31
0.0
  0
LINE
  5
18a
100
AcDbEntity
  8
Layer_1
 62
7
100
AcDbLine
 10
-5.974080
 20
165.638450
 30
0.0
 11
-5.140080
 21
165.638450
 31
0.0
  0
LINE
  5
18b
100
AcDbEntity
  8
Layer_1
 62
7
100
AcDbLine
 10
-5.140080
 20
165.638450
 30
0.0
 11
-3.990080
 21
167.622450
 31
0.0
  0
LINE
  5
18c
100
AcDbEntity
  8
Layer_1
 62
7
100
AcDbLine
 10
-3.990080
 20
167.622450
 30
0.0
 11
-3.156080
 21
167.622450
 31
0.0
  0
LINE
  5
18d
100
AcDbEntity
  8
Layer_1
 62
7
100
AcDbLine
 10
-3.156080
 20
167.622450
 30
0.0
 11
-2.005080
 21
165.638450
 31
0.0
  0
LINE
  5
18e
100
AcDbEntity
  8
Layer_1
 62
7
100
AcDbLine
 10
-2.005080
 20
165.638450
 30
0.0
 11
-1.171080
 21
165.638450
 31
0.0
  0
LINE
  5
18f
100
AcDbEntity
  8
Layer_1
 62
7
100
AcDbLine
 10
-1.171080
 20
165.638450
 30
0.0
 11
-0.021080
 21
167.622450
 31
0.0
  0
LINE
  5
190
100
AcDbEntity
  8
Layer_1
 62
7
100
AcDbLine
 10
-0.021080
 20
167.622450
 30
0.0
 11
0.812920
 21
167.622450
 31
0.0
  0
LINE
  5
191
100
AcDbEntity
  8
Layer_1
 62
7
100
AcDbLine
 10
0.812920
 20
167.622450
 30
0.0
 11
1.963920
 21
165.638450
 31
0.0
  0
LINE
  5
192
100
AcDbEntity
  8
Layer_1
 62
7
100
AcDbLine
 10
1.963920
 20
165.638450
 30
0.0
 11
2.797920
 21
165.638450
 31
0.0
  0
LINE
  5
193
100
AcDbEntity
  8
Layer_1
 62
7
100
AcDbLine
 10
2.797920
 20
165.638450
 30
0.0
 11
3.947920
 21
167.622450
 31
0.0
  0
LINE
  5
194
100
AcDbEntity
  8
Layer_1
 62
7
100
AcDbLine
 10
-122.218080
 20
188.941050
 30
0.0
 11
-121.068080
 21
190.925050
 31
0.0
  0
LINE
  5
195
100
AcDbEntity
  8
Layer_1
 62
7
100
AcDbLine
 10
-121.068080
 20
190.925050
 30
0.0
 11
-120.234080
 21
190.925050
 31
0.0
  0
LINE
  5
196
100
AcDbEntity
  8
Layer_1
 62
7
100
AcDbLine
 10
-120.234080
 20
190.925050
 30
0.0
 11
-119.083080
 21
188.941050
 31
0.0
  0
LINE
  5
197
100
AcDbEntity
  8
Layer_1
 62
7
100
AcDbLine
 10
-119.083080
 20
188.941050
 30
0.0
 11
-118.249080
 21
188.941050
 31
0.0
  0
LINE
  5
198
100
AcDbEntity
  8
Layer_1
 62
7
100
AcDbLine
 10
-118.249080
 20
188.941050
 30
0.0
 11
-117.099080
 21
190.925050
 31
0.0
  0
LINE
  5
199
100
AcDbEntity
  8
Layer_1
 62
7
100
AcDbLine
 10
-117.099080
 20
190.925050
 30
0.0
 11
-116.265080
 21
190.925050
 31
0.0
  0
LINE
  5
19a
100
AcDbEntity
  8
Layer_1
 62
7
100
AcDbLine
 10
-116.265080
 20
190.925050
 30
0.0
 11
-115.115080
 21
188.941050
 31
0.0
  0
LINE
  5
19b
100
AcDbEntity
  8
Layer_1
 62
7
100
AcDbLine
 10
-115.115080
 20
188.941050
 30
0.0
 11
-114.281080
 21
188.941050
 31
0.0
  0
LINE
  5
19c
100
AcDbEntity
  8
Layer_1
 62
7
100
AcDbLine
 10
-114.281080
 20
188.941050
 30
0.0
 11
-113.130080
 21
190.925050
 31
0.0
  0
LINE
  5
19d
100
AcDbEntity
  8
Layer_1
 62
7
100
AcDbLine
 10
-113.130080
 20
190.925050
 30
0.0
 11
-112.296080
 21
190.925050
 31
0.0
  0
LINE
  5
19e
100
AcDbEntity
  8
Layer_1
 62
7
100
AcDbLine
 10
-112.296080
 20
190.925050
 30
0.0
 11
-111.146080
 21
188.941050
 31
0.0
  0
LINE
  5
19f
100
AcDbEntity
  8
Layer_1
 62
7
100
AcDbLine
 10
-111.146080
 20
188.941050
 30
0.0
 11
-110.312080
 21
188.941050
 31
0.0
  0
LINE
  5
1a0
100
AcDbEntity
  8
Layer_1
 62
7
100
AcDbLine
 10
-110.312080
 20
188.941050
 30
0.0
 11
-109.161080
 21
190.925050
 31
0.0
  0
LINE
  5
1a1
100
AcDbEntity
  8
Layer_1
 62
7
100
AcDbLine
 10
-109.161080
 20
190.925050
 30
0.0
 11
-108.327080
 21
190.925050
 31
0.0
  0
LINE
  5
1a2
100
AcDbEntity
  8
Layer_1
 62
7
100
AcDbLine
 10
-108.327080
 20
190.925050
 30
0.0
 11
-107.177080
 21
188.941050
 31
0.0
  0
LINE
  5
1a3
100
AcDbEntity
  8
Layer_1
 62
7
100
AcDbLine
 10
-107.177080
 20
188.941050
 30
0.0
 11
-106.343080
 21
188.941050
 31
0.0
  0
LINE
  5
1a4
100
AcDbEntity
  8
Layer_1
 62
7
100
AcDbLine
 10
-106.343080
 20
188.941050
 30
0.0
 11
-105.193080
 21
190.925050
 31
0.0
  0
LINE
  5
1a5
100
AcDbEntity
  8
Layer_1
 62
7
100
AcDbLine
 10
-105.193080
 20
190.925050
 30
0.0
 11
-104.359080
 21
190.925050
 31
0.0
  0
LINE
  5
1a6
100
AcDbEntity
  8
Layer_1
 62
7
100
AcDbLine
 10
-104.359080
 20
190.925050
 30
0.0
 11
-103.208080
 21
188.941050
 31
0.0
  0
LINE
  5
1a7
100
AcDbEntity
  8
Layer_1
 62
7
100
AcDbLine
 10
-103.208080
 20
188.941050
 30
0.0
 11
-102.374080
 21
188.941050
 31
0.0
  0
LINE
  5
1a8
100
AcDbEntity
  8
Layer_1
 62
7
100
AcDbLine
 10
-102.374080
 20
188.941050
 30
0.0
 11
-101.224080
 21
190.925050
 31
0.0
  0
LINE
  5
1a9
100
AcDbEntity
  8
Layer_1
 62
7
100
AcDbLine
 10
-101.224080
 20
190.925050
 30
0.0
 11
-100.390080
 21
190.925050
 31
0.0
  0
LINE
  5
1aa
100
AcDbEntity
  8
Layer_1
 62
7
100
AcDbLine
 10
-100.390080
 20
190.925050
 30
0.0
 11
-99.240076
 21
188.941050
 31
0.0
  0
LINE
  5
1ab
100
AcDbEntity
  8
Layer_1
 62
7
100
AcDbLine
 10
-99.240076
 20
188.941050
 30
0.0
 11
-98.406076
 21
188.941050
 31
0.0
  0
LINE
  5
1ac
100
AcDbEntity
  8
Layer_1
 62
7
100
AcDbLine
 10
-98.406076
 20
188.941050
 30
0.0
 11
-97.255076
 21
190.925050
 31
0.0
  0
LINE
  5
1ad
100
AcDbEntity
  8
Layer_1
 62
7
100
AcDbLine
 10
-97.255076
 20
190.925050
 30
0.0
 11
-96.421076
 21
190.925050
 31
0.0
  0
LINE
  5
1ae
100
AcDbEntity
  8
Layer_1
 62
7
100
AcDbLine
 10
-96.421076
 20
190.925050
 30
0.0
 11
-95.271076
 21
188.941050
 31
0.0
  0
LINE
  5
1af
100
AcDbEntity
  8
Layer_1
 62
7
100
AcDbLine
 10
-95.271076
 20
188.941050
 30
0.0
 11
-94.437076
 21
188.941050
 31
0.0
  0
LINE
  5
1b0
100
AcDbEntity
  8
Layer_1
 62
7
100
AcDbLine
 10
-94.437076
 20
188.941050
 30
0.0
 11
-93.286066
 21
190.925050
 31
0.0
  0
LINE
  5
1b1
100
AcDbEntity
  8
Layer_1
 62
7
100
AcDbLine
 10
-93.286066
 20
190.925050
 30
0.0
 11
-92.452076
 21
190.925050
 31
0.0
  0
LINE
  5
1b2
100
AcDbEntity
  8
Layer_1
 62
7
100
AcDbLine
 10
-92.452076
 20
190.925050
 30
0.0
 11
-91.302066
 21
188.941050
 31
0.0
  0
LINE
  5
1b3
100
AcDbEntity
  8
Layer_1
 62
7
100
AcDbLine
 10
-91.302066
 20
188.941050
 30
0.0
 11
-90.468076
 21
188.941050
 31
0.0
  0
LINE
  5
1b4
100
AcDbEntity
  8
Layer_1
 62
7
100
AcDbLine
 10
-90.468076
 20
188.941050
 30
0.0
 11
-89.318076
 21
190.925050
 31
0.0
  0
LINE
  5
1b5
100
AcDbEntity
  8
Layer_1
 62
7
100
AcDbLine
 10
-89.318076
 20
190.925050
 30
0.0
 11
-88.484066
 21
190.925050
 31
0.0
  0
LINE
  5
1b6
100
AcDbEntity
  8
Layer_1
 62
7
100
AcDbLine
 10
-88.484066
 20
190.925050
 30
0.0
 11
-87.333076
 21
188.941050
 31
0.0
  0
LINE
  5
1b7
100
AcDbEntity
  8
Layer_1
 62
7
100
AcDbLine
 10
-87.333076
 20
188.941050
 30
0.0
 11
-86.499076
 21
188.941050
 31
0.0
  0
LINE
  5
1b8
100
AcDbEntity
  8
Layer_1
 62
7
100
AcDbLine
 10
-86.499076
 20
188.941050
 30
0.0
 11
-85.349066
 21
190.925050
 31
0.0
  0
LINE
  5
1b9
100
AcDbEntity
  8
Layer_1
 62
7
100
AcDbLine
 10
-85.349066
 20
190.925050
 30
0.0
 11
-84.515076
 21
190.925050
 31
0.0
  0
LINE
  5
1ba
100
AcDbEntity
  8
Layer_1
 62
7
100
AcDbLine
 10
-84.515076
 20
190.925050
 30
0.0
 11
-83.365076
 21
188.941050
 31
0.0
  0
LINE
  5
1bb
100
AcDbEntity
  8
Layer_1
 62
7
100
AcDbLine
 10
-83.365076
 20
188.941050
 30
0.0
 11
-82.531066
 21
188.941050
 31
0.0
  0
LINE
  5
1bc
100
AcDbEntity
  8
Layer_1
 62
7
100
AcDbLine
 10
-82.531066
 20
188.941050
 30
0.0
 11
-81.380076
 21
190.925050
 31
0.0
  0
LINE
  5
1bd
100
AcDbEntity
  8
Layer_1
 62
7
100
AcDbLine
 10
-81.380076
 20
190.925050
 30
0.0
 11
-80.546066
 21
190.925050
 31
0.0
  0
LINE
  5
1be
100
AcDbEntity
  8
Layer_1
 62
7
100
AcDbLine
 10
-80.546066
 20
190.925050
 30
0.0
 11
-79.396076
 21
188.941050
 31
0.0
  0
LINE
  5
1bf
100
AcDbEntity
  8
Layer_1
 62
7
100
AcDbLine
 10
-79.396076
 20
188.941050
 30
0.0
 11
-78.562076
 21
188.941050
 31
0.0
  0
LINE
  5
1c0
100
AcDbEntity
  8
Layer_1
 62
7
100
AcDbLine
 10
-78.562076
 20
188.941050
 30
0.0
 11
-77.411066
 21
190.925050
 31
0.0
  0
LINE
  5
1c1
100
AcDbEntity
  8
Layer_1
 62
7
100
AcDbLine
 10
-77.411066
 20
190.925050
 30
0.0
 11
-76.577076
 21
190.925050
 31
0.0
  0
LINE
  5
1c2
100
AcDbEntity
  8
Layer_1
 62
7
100
AcDbLine
 10
-76.577076
 20
190.925050
 30
0.0
 11
-75.427066
 21
188.941050
 31
0.0
  0
LINE
  5
1c3
100
AcDbEntity
  8
Layer_1
 62
7
100
AcDbLine
 10
-75.427066
 20
188.941050
 30
0.0
 11
-74.593066
 21
188.941050
 31
0.0
  0
LINE
  5
1c4
100
AcDbEntity
  8
Layer_1
 62
7
100
AcDbLine
 10
-74.593066
 20
188.941050
 30
0.0
 11
-73.443076
 21
190.925050
 31
0.0
  0
LINE
  5
1c5
100
AcDbEntity
  8
Layer_1
 62
7
100
AcDbLine
 10
-73.443076
 20
190.925050
 30
0.0
 11
-72.609066
 21
190.925050
 31
0.0
  0
LINE
  5
1c6
100
AcDbEntity
  8
Layer_1
 62
7
100
AcDbLine
 10
-72.609066
 20
190.925050
 30
0.0
 11
-71.458076
 21
188.941050
 31
0.0
  0
LINE
  5
1c7
100
AcDbEntity
  8
Layer_1
 62
7
100
AcDbLine
 10
-71.458076
 20
188.941050
 30
0.0
 11
-70.624076
 21
188.941050
 31
0.0
  0
LINE
  5
1c8
100
AcDbEntity
  8
Layer_1
 62
7
100
AcDbLine
 10
-70.624076
 20
188.941050
 30
0.0
 11
-69.474066
 21
190.925050
 31
0.0
  0
LINE
  5
1c9
100
AcDbEntity
  8
Layer_1
 62
7
100
AcDbLine
 10
-69.474066
 20
190.925050
 30
0.0
 11
-68.640076
 21
190.925050
 31
0.0
  0
LINE
  5
1ca
100
AcDbEntity
  8
Layer_1
 62
7
100
AcDbLine
 10
-68.640076
 20
190.925050
 30
0.0
 11
-67.490076
 21
188.941050
 31
0.0
  0
LINE
  5
1cb
100
AcDbEntity
  8
Layer_1
 62
7
100
AcDbLine
 10
-67.490076
 20
188.941050
 30
0.0
 11
-66.656066
 21
188.941050
 31
0.0
  0
LINE
  5
1cc
100
AcDbEntity
  8
Layer_1
 62
7
100
AcDbLine
 10
-66.656066
 20
188.941050
 30
0.0
 11
-65.505076
 21
190.925050
 31
0.0
  0
LINE
  5
1cd
100
AcDbEntity
  8
Layer_1
 62
7
100
AcDbLine
 10
-65.505076
 20
190.925050
 30
0.0
 11
-64.671066
 21
190.925050
 31
0.0
  0
LINE
  5
1ce
100
AcDbEntity
  8
Layer_1
 62
7
100
AcDbLine
 10
-64.671066
 20
190.925050
 30
0.0
 11
-63.521066
 21
188.941050
 31
0.0
  0
LINE
  5
1cf
100
AcDbEntity
  8
Layer_1
 62
7
100
AcDbLine
 10
-63.521066
 20
188.941050
 30
0.0
 11
-62.687076
 21
188.941050
 31
0.0
  0
LINE
  5
1d0
100
AcDbEntity
  8
Layer_1
 62
7
100
AcDbLine
 10
-62.687076
 20
188.941050
 30
0.0
 11
-61.536066
 21
190.925050
 31
0.0
  0
LINE
  5
1d1
100
AcDbEntity
  8
Layer_1
 62
7
100
AcDbLine
 10
-61.536066
 20
190.925050
 30
0.0
 11
-60.702076
 21
190.925050
 31
0.0
  0
LINE
  5
1d2
100
AcDbEntity
  8
Layer_1
 62
7
100
AcDbLine
 10
-60.702076
 20
190.925050
 30
0.0
 11
-59.552066
 21
188.941050
 31
0.0
  0
LINE
  5
1d3
100
AcDbEntity
  8
Layer_1
 62
7
100
AcDbLine
 10
-59.552066
 20
188.941050
 30
0.0
 11
-58.718066
 21
188.941050
 31
0.0
  0
LINE
  5
1d4
100
AcDbEntity
  8
Layer_1
 62
7
100
AcDbLine
 10
-58.718066
 20
188.941050
 30
0.0
 11
-57.568076
 21
190.925050
 31
0.0
  0
LINE
  5
1d5
100
AcDbEntity
  8
Layer_1
 62
7
100
AcDbLine
 10
-57.568076
 20
190.925050
 30
0.0
 11
-56.734066
 21
190.925050
 31
0.0
  0
LINE
  5
1d6
100
AcDbEntity
  8
Layer_1
 62
7
100
AcDbLine
 10
-56.734066
 20
190.925050
 30
0.0
 11
-55.583066
 21
188.941050
 31
0.0
  0
LINE
  5
1d7
100
AcDbEntity
  8
Layer_1
 62
7
100
AcDbLine
 10
-55.583066
 20
188.941050
 30
0.0
 11
-54.749076
 21
188.941050
 31
0.0
  0
LINE
  5
1d8
100
AcDbEntity
  8
Layer_1
 62
7
100
AcDbLine
 10
-54.749076
 20
188.941050
 30
0.0
 11
-53.599066
 21
190.925050
 31
0.0
  0
LINE
  5
1d9
100
AcDbEntity
  8
Layer_1
 62
7
100
AcDbLine
 10
-53.599066
 20
190.925050
 30
0.0
 11
-52.765076
 21
190.925050
 31
0.0
  0
LINE
  5
1da
100
AcDbEntity
  8
Layer_1
 62
7
100
AcDbLine
 10
-52.765076
 20
190.925050
 30
0.0
 11
-51.615076
 21
188.941050
 31
0.0
  0
LINE
  5
1db
100
AcDbEntity
  8
Layer_1
 62
7
100
AcDbLine
 10
-51.615076
 20
188.941050
 30
0.0
 11
-50.781066
 21
188.941050
 31
0.0
  0
LINE
  5
1dc
100
AcDbEntity
  8
Layer_1
 62
7
100
AcDbLine
 10
-50.781066
 20
188.941050
 30
0.0
 11
-49.630076
 21
190.925050
 31
0.0
  0
LINE
  5
1dd
100
AcDbEntity
  8
Layer_1
 62
7
100
AcDbLine
 10
-49.630076
 20
190.925050
 30
0.0
 11
-48.796066
 21
190.925050
 31
0.0
  0
LINE
  5
1de
100
AcDbEntity
  8
Layer_1
 62
7
100
AcDbLine
 10
-48.796066
 20
190.925050
 30
0.0
 11
-47.646066
 21
188.941050
 31
0.0
  0
LINE
  5
1df
100
AcDbEntity
  8
Layer_1
 62
7
100
AcDbLine
 10
-47.646066
 20
188.941050
 30
0.0
 11
-46.812076
 21
188.941050
 31
0.0
  0
LINE
  5
1e0
100
AcDbEntity
  8
Layer_1
 62
7
100
AcDbLine
 10
-46.812076
 20
188.941050
 30
0.0
 11
-45.661066
 21
190.925050
 31
0.0
  0
LINE
  5
1e1
100
AcDbEntity
  8
Layer_1
 62
7
100
AcDbLine
 10
-45.661066
 20
190.925050
 30
0.0
 11
-44.827076
 21
190.925050
 31
0.0
  0
LINE
  5
1e2
100
AcDbEntity
  8
Layer_1
 62
7
100
AcDbLine
 10
-44.827076
 20
190.925050
 30
0.0
 11
-43.677066
 21
188.941050
 31
0.0
  0
LINE
  5
1e3
100
AcDbEntity
  8
Layer_1
 62
7
100
AcDbLine
 10
-43.677066
 20
188.941050
 30
0.0
 11
-42.843066
 21
188.941050
 31
0.0
  0
LINE
  5
1e4
100
AcDbEntity
  8
Layer_1
 62
7
100
AcDbLine
 10
-42.843066
 20
188.941050
 30
0.0
 11
-41.693076
 21
190.925050
 31
0.0
  0
LINE
  5
1e5
100
AcDbEntity
  8
Layer_1
 62
7
100
AcDbLine
 10
-41.693076
 20
190.925050
 30
0.0
 11
-40.859066
 21
190.925050
 31
0.0
  0
LINE
  5
1e6
100
AcDbEntity
  8
Layer_1
 62
7
100
AcDbLine
 10
-40.859066
 20
190.925050
 30
0.0
 11
-39.708066
 21
188.941050
 31
0.0
  0
LINE
  5
1e7
100
AcDbEntity
  8
Layer_1
 62
7
100
AcDbLine
 10
-39.708066
 20
188.941050
 30
0.0
 11
-38.874076
 21
188.941050
 31
0.0
  0
LINE
  5
1e8
100
AcDbEntity
  8
Layer_1
 62
7
100
AcDbLine
 10
-38.874076
 20
188.941050
 30
0.0
 11
-37.724066
 21
190.925050
 31
0.0
  0
LINE
  5
1e9
100
AcDbEntity
  8
Layer_1
 62
7
100
AcDbLine
 10
-37.724066
 20
190.925050
 30
0.0
 11
-36.890076
 21
190.925050
 31
0.0
  0
LINE
  5
1ea
100
AcDbEntity
  8
Layer_1
 62
7
100
AcDbLine
 10
-36.890076
 20
190.925050
 30
0.0
 11
-35.740076
 21
188.941050
 31
0.0
  0
LINE
  5
1eb
100
AcDbEntity
  8
Layer_1
 62
7
100
AcDbLine
 10
-35.740076
 20
188.941050
 30
0.0
 11
-34.906066
 21
188.941050
 31
0.0
  0
LINE
  5
1ec
100
AcDbEntity
  8
Layer_1
 62
7
100
AcDbLine
 10
-34.906066
 20
188.941050
 30
0.0
 11
-33.755076
 21
190.925050
 31
0.0
  0
LINE
  5
1ed
100
AcDbEntity
  8
Layer_1
 62
7
100
AcDbLine
 10
-33.755076
 20
190.925050
 30
0.0
 11
-32.921066
 21
190.925050
 31
0.0
  0
LINE
  5
1ee
100
AcDbEntity
  8
Layer_1
 62
7
100
AcDbLine
 10
-32.921066
 20
190.925050
 30
0.0
 11
-31.771066
 21
188.941050
 31
0.0
  0
LINE
  5
1ef
100
AcDbEntity
  8
Layer_1
 62
7
100
AcDbLine
 10
-31.771066
 20
188.941050
 30
0.0
 11
-30.937076
 21
188.941050
 31
0.0
  0
LINE
  5
1f0
100
AcDbEntity
  8
Layer_1
 62
7
100
AcDbLine
 10
-30.937076
 20
188.941050
 30
0.0
 11
-29.786066
 21
190.925050
 31
0.0
  0
LINE
  5
1f1
100
AcDbEntity
  8
Layer_1
 62
7
100
AcDbLine
 10
-29.786066
 20
190.925050
 30
0.0
 11
-28.952076
 21
190.925050
 31
0.0
  0
LINE
  5
1f2
100
AcDbEntity
  8
Layer_1
 62
7
100
AcDbLine
 10
-28.952076
 20
190.925050
 30
0.0
 11
-27.802066
 21
188.941050
 31
0.0
  0
LINE
  5
1f3
100
AcDbEntity
  8
Layer_1
 62
7
100
AcDbLine
 10
-27.802066
 20
188.941050
 30
0.0
 11
-26.968066
 21
188.941050
 31
0.0
  0
LINE
  5
1f4
100
AcDbEntity
  8
Layer_1
 62
7
100
AcDbLine
 10
-26.968066
 20
188.941050
 30
0.0
 11
-25.818076
 21
190.925050
 31
0.0
  0
LINE
  5
1f5
100
AcDbEntity
  8
Layer_1
 62
7
100
AcDbLine
 10
-25.818076
 20
190.925050
 30
0.0
 11
-24.984066
 21
190.925050
 31
0.0
  0
LINE
  5
1f6
100
AcDbEntity
  8
Layer_1
 62
7
100
AcDbLine
 10
-24.984066
 20
190.925050
 30
0.0
 11
-23.833067
 21
188.941050
 31
0.0
  0
LINE
  5
1f7
100
AcDbEntity
  8
Layer_1
 62
7
100
AcDbLine
 10
-23.833067
 20
188.941050
 30
0.0
 11
-22.999077
 21
188.941050
 31
0.0
  0
LINE
  5
1f8
100
AcDbEntity
  8
Layer_1
 62
7
100
AcDbLine
 10
-22.999077
 20
188.941050
 30
0.0
 11
-21.849070
 21
190.925050
 31
0.0
  0
LINE
  5
1f9
100
AcDbEntity
  8
Layer_1
 62
7
100
AcDbLine
 10
-21.849070
 20
190.925050
 30
0.0
 11
-21.015070
 21
190.925050
 31
0.0
  0
LINE
  5
1fa
100
AcDbEntity
  8
Layer_1
 62
7
100
AcDbLine
 10
-21.015070
 20
190.925050
 30
0.0
 11
-19.865080
 21
188.941050
 31
0.0
  0
LINE
  5
1fb
100
AcDbEntity
  8
Layer_1
 62
7
100
AcDbLine
 10
-19.865080
 20
188.941050
 30
0.0
 11
-19.031070
 21
188.941050
 31
0.0
  0
LINE
  5
1fc
100
AcDbEntity
  8
Layer_1
 62
7
100
AcDbLine
 10
-19.031070
 20
188.941050
 30
0.0
 11
-17.880080
 21
190.925050
 31
0.0
  0
LINE
  5
1fd
100
AcDbEntity
  8
Layer_1
 62
7
100
AcDbLine
 10
-17.880080
 20
190.925050
 30
0.0
 11
-17.046070
 21
190.925050
 31
0.0
  0
LINE
  5
1fe
100
AcDbEntity
  8
Layer_1
 62
7
100
AcDbLine
 10
-17.046070
 20
190.925050
 30
0.0
 11
-15.896070
 21
188.941050
 31
0.0
  0
LINE
  5
1ff
100
AcDbEntity
  8
Layer_1
 62
7
100
AcDbLine
 10
-15.896070
 20
188.941050
 30
0.0
 11
-15.062080
 21
188.941050
 31
0.0
  0
LINE
  5
200
100
AcDbEntity
  8
Layer_1
 62
7
100
AcDbLine
 10
-15.062080
 20
188.941050
 30
0.0
 11
-13.911070
 21
190.925050
 31
0.0
  0
LINE
  5
201
100
AcDbEntity
  8
Layer_1
 62
7
100
AcDbLine
 10
-13.911070
 20
190.925050
 30
0.0
 11
-13.077070
 21
190.925050
 31
0.0
  0
LINE
  5
202
100
AcDbEntity
  8
Layer_1
 62
7
100
AcDbLine
 10
-13.077070
 20
190.925050
 30
0.0
 11
-11.927070
 21
188.941050
 31
0.0
  0
LINE
  5
203
100
AcDbEntity
  8
Layer_1
 62
7
100
AcDbLine
 10
-11.927070
 20
188.941050
 30
0.0
 11
-11.093070
 21
188.941050
 31
0.0
  0
LINE
  5
204
100
AcDbEntity
  8
Layer_1
 62
7
100
AcDbLine
 10
-11.093070
 20
188.941050
 30
0.0
 11
-9.943080
 21
190.925050
 31
0.0
  0
LINE
  5
205
100
AcDbEntity
  8
Layer_1
 62
7
100
AcDbLine
 10
-9.943080
 20
190.925050
 30
0.0
 11
-9.109070
 21
190.925050
 31
0.0
  0
LINE
  5
206
100
AcDbEntity
  8
Layer_1
 62
7
100
AcDbLine
 10
-9.109070
 20
190.925050
 30
0.0
 11
-7.958070
 21
188.941050
 31
0.0
  0
LINE
  5
207
100
AcDbEntity
  8
Layer_1
 62
7
100
AcDbLine
 10
-7.958070
 20
188.941050
 30
0.0
 11
-7.124080
 21
188.941050
 31
0.0
  0
LINE
  5
208
100
AcDbEntity
  8
Layer_1
 62
7
100
AcDbLine
 10
-7.124080
 20
188.941050
 30
0.0
 11
-5.974070
 21
190.925050
 31
0.0
  0
LINE
  5
209
100
AcDbEntity
  8
Layer_1
 62
7
100
AcDbLine
 10
-5.974070
 20
190.925050
 30
0.0
 11
-5.140070
 21
190.925050
 31
0.0
  0
LINE
  5
20a
100
AcDbEntity
  8
Layer_1
 62
7
100
AcDbLine
 10
-5.140070
 20
190.925050
 30
0.0
 11
-3.990080
 21
188.941050
 31
0.0
  0
LINE
  5
20b
100
AcDbEntity
  8
Layer_1
 62
7
100
AcDbLine
 10
-3.990080
 20
188.941050
 30
0.0
 11
-3.156070
 21
188.941050
 31
0.0
  0
LINE
  5
20c
100
AcDbEntity
  8
Layer_1
 62
7
100
AcDbLine
 10
-3.156070
 20
188.941050
 30
0.0
 11
-2.005070
 21
190.925050
 31
0.0
  0
LINE
  5
20d
100
AcDbEntity
  8
Layer_1
 62
7
100
AcDbLine
 10
-2.005070
 20
190.925050
 30
0.0
 11
-1.171070
 21
190.925050
 31
0.0
  0
LINE
  5
20e
100
AcDbEntity
  8
Layer_1
 62
7
100
AcDbLine
 10
-1.171070
 20
190.925050
 30
0.0
 11
-0.021070
 21
188.941050
 31
0.0
  0
LINE
  5
20f
100
AcDbEntity
  8
Layer_1
 62
7
100
AcDbLine
 10
-0.021070
 20
188.941050
 30
0.0
 11
0.812920
 21
188.941050
 31
0.0
  0
LINE
  5
210
100
AcDbEntity
  8
Layer_1
 62
7
100
AcDbLine
 10
0.812920
 20
188.941050
 30
0.0
 11
1.963930
 21
190.925050
 31
0.0
  0
LINE
  5
211
100
AcDbEntity
  8
Layer_1
 62
7
100
AcDbLine
 10
1.963930
 20
190.925050
 30
0.0
 11
2.797930
 21
190.925050
 31
0.0
  0
LINE
  5
212
100
AcDbEntity
  8
Layer_1
 62
7
100
AcDbLine
 10
2.797930
 20
190.925050
 30
0.0
 11
3.947930
 21
188.941050
 31
0.0
  0
ENDSEC
  0
SECTION
  2
OBJECTS
  0
DICTIONARY
  5
C
330
0
100
AcDbDictionary
  3
ACAD_GROUP
350
D
  3
ACAD_MLINESTYLE
350
17
  0
DICTIONARY
  5
D
330
C
100
AcDbDictionary
  0
DICTIONARY
  5
1A
330
C
100
AcDbDictionary
  0
DICTIONARY
  5
17
330
C
100
AcDbDictionary
  3
STANDARD
350
18
  0
DICTIONARY
  5
19
330
C
100
AcDbDictionary
  0
ENDSEC
  0
EOF
