  0
SECTION
  2
HEADER
  9
$ACADVER
  1
AC1014
  9
$HANDSEED
  5
FFFF
  9
$MEASUREMENT
 70
     1
  0
ENDSEC
  0
SECTION
  2
TABLES
  0
TABLE
  2
VPORT
  5
8
330
0
100
AcDbSymbolTable
 70
     4
  0
VPORT
  5
2E
330
8
100
AcDbSymbolTableRecord
100
AcDbViewportTableRecord
  2
*ACTIVE
 70
     0
 10
0.0
 20
0.0
 11
1.0
 21
1.0
 12
210.0
 22
148.5
 13
0.0
 23
0.0
 14
10.0
 24
10.0
 15
10.0
 25
10.0
 16
0.0
 26
0.0
 36
1.0
 17
0.0
 27
0.0
 37
0.0
 40
341.0
 41
1.24
 42
50.0
 43
0.0
 44
0.0
 50
0.0
 51
0.0
 71
     0
 72
   100
 73
     1
 74
     3
 75
     0
 76
     0
 77
     0
 78
     0
  0
ENDTAB
  0
TABLE
  2
LTYPE
  5
5
330
0
100
AcDbSymbolTable
 70
     1
  0
LTYPE
  5
14
330
5
100
AcDbSymbolTableRecord
100
AcDbLinetypeTableRecord
  2
BYBLOCK
 70
     0
  3

 72
    65
 73
     0
 40
0.0
  0
LTYPE
  5
15
330
5
100
AcDbSymbolTableRecord
100
AcDbLinetypeTableRecord
  2
BYLAYER
 70
     0
  3

 72
    65
 73
     0
 40
0.0
  0
LTYPE
  5
16
330
5
100
AcDbSymbolTableRecord
100
AcDbLinetypeTableRecord
  2
CONTINUOUS
 70
     0
  3
Solid line
 72
    65
 73
     0
 40
0.0
  0
ENDTAB
  0
TABLE
  2
LAYER
  5
2
100
AcDbSymbolTable
 70
2
  0
LAYER
  5
50
100
AcDbSymbolTableRecord
100
AcDbLayerTableRecord
  2
0
 70
0
  6
CONTINUOUS
  0
LAYER
  5
51
100
AcDbSymbolTableRecord
100
AcDbLayerTableRecord
  2
Layer_1
 70
0
  6
CONTINUOUS
  0
ENDTAB
  0
TABLE
  2
STYLE
  5
3
330
0
100
AcDbSymbolTable
 70
     1
  0
STYLE
  5
11
330
3
100
AcDbSymbolTableRecord
100
AcDbTextStyleTableRecord
  2
STANDARD
 70
     0
 40
0.0
 41
1.0
 50
0.0
 71
     0
 42
2.5
  3
txt
  4

  0
ENDTAB
  0
TABLE
  2
VIEW
  5
6
330
0
100
AcDbSymbolTable
 70
     0
  0
ENDTAB
  0
TABLE
  2
UCS
  5
7
330
0
100
AcDbSymbolTable
 70
     0
  0
ENDTAB
  0
TABLE
  2
APPID
  5
9
330
0
100
AcDbSymbolTable
 70
     2
  0
APPID
  5
12
330
9
100
AcDbSymbolTableRecord
100
AcDbRegAppTableRecord
  2
ACAD
 70
     0
  0
ENDTAB
  0
TABLE
  2
DIMSTYLE
  5
A
330
0
100
AcDbSymbolTable
 70
     1
  0
DIMSTYLE
105
27
330
A
100
AcDbSymbolTableRecord
100
AcDbDimStyleTableRecord
  2
ISO-25
 70
     0
  3

  4

  5

  6

  7

 40
1.0
 41
2.5
 42
0.625
 43
3.75
 44
1.25
 45
0.0
 46
0.0
 47
0.0
 48
0.0
140
2.5
141
2.5
142
0.0
143
0.03937007874016
144
1.0
145
0.0
146
1.0
147
0.625
 71
     0
 72
     0
 73
     0
 74
     0
 75
     0
 76
     0
 77
     1
 78
     8
170
     0
171
     3
172
     1
173
     0
174
     0
175
     0
176
     0
177
     0
178
     0
270
     2
271
     2
272
     2
273
     2
274
     3
340
11
275
     0
280
     0
281
     0
282
     0
283
     0
284
     8
285
     0
286
     0
287
     3
288
     0
  0
ENDTAB
  0
TABLE
  2
BLOCK_RECORD
  5
1
330
0
100
AcDbSymbolTable
 70
     1
  0
BLOCK_RECORD
  5
1F
330
1
100
AcDbSymbolTableRecord
100
AcDbBlockTableRecord
  2
*MODEL_SPACE
  0
BLOCK_RECORD
  5
1B
330
1
100
AcDbSymbolTableRecord
100
AcDbBlockTableRecord
  2
*PAPER_SPACE
  0
ENDTAB
  0
ENDSEC
  0
SECTION
  2
BLOCKS
  0
BLOCK
  5
20
330
1F
100
AcDbEntity
  8
0
100
AcDbBlockBegin
  2
*MODEL_SPACE
 70
     0
 10
0.0
 20
0.0
 30
0.0
  3
*MODEL_SPACE
  1

  0
ENDBLK
  5
21
330
1F
100
AcDbEntity
  8
0
100
AcDbBlockEnd
  0
BLOCK
  5
1C
330
1B
100
AcDbEntity
 67
     1
  8
0
100
AcDbBlockBegin
  2
*PAPER_SPACE
  1

  0
ENDBLK
  5
1D
330
1B
100
AcDbEntity
 67
     1
  8
0
100
AcDbBlockEnd
  0
ENDSEC
  0
SECTION
  2
ENTITIES
  0
SPLINE
  5
100
100
AcDbEntity
  8
Layer_1
 62
7
100
AcDbSpline
 70
8
 71
3
 72
8
 73
4
 74
0
 40
0
 40
0
 40
0
 40
0
 40
1
 40
1
 40
1
 40
1
 10
387.805321
 20
10.756931
 30
0.0
 10
390.575324
 20
10.756931
 30
0.0
 10
392.805523
 20
12.987157
 30
0.0
 10
392.867277
 20
15.799810
 30
0.0
  0
LINE
  5
101
100
AcDbEntity
  8
Layer_1
 62
7
100
AcDbLine
 10
392.867277
 20
15.799810
 30
0.0
 11
392.911277
 21
37.556511
 31
0.0
  0
SPLINE
  5
102
100
AcDbEntity
  8
Layer_1
 62
7
100
AcDbSpline
 70
8
 71
3
 72
8
 73
4
 74
0
 40
0
 40
0
 40
0
 40
0
 40
1
 40
1
 40
1
 40
1
 10
392.911277
 20
37.556511
 30
0.0
 10
392.934825
 20
40.173197
 30
0.0
 10
391.010669
 20
42.764868
 30
0.0
 10
388.337848
 20
43.444363
 30
0.0
  0
SPLINE
  5
103
100
AcDbEntity
  8
Layer_1
 62
7
100
AcDbSpline
 70
8
 71
3
 72
8
 73
4
 74
0
 40
0
 40
0
 40
0
 40
0
 40
1
 40
1
 40
1
 40
1
 10
388.337848
 20
43.444363
 30
0.0
 10
385.885161
 20
44.002988
 30
0.0
 10
383.875677
 20
46.222782
 30
0.0
 10
383.907004
 20
48.729108
 30
0.0
  0
LINE
  5
104
100
AcDbEntity
  8
Layer_1
 62
7
100
AcDbLine
 10
383.907004
 20
48.729108
 30
0.0
 11
383.904358
 21
59.918570
 31
0.0
  0
LINE
  5
105
100
AcDbEntity
  8
Layer_1
 62
7
100
AcDbLine
 10
67.157722
 20
39.778188
 30
0.0
 11
89.037073
 21
39.889421
 31
0.0
  0
LINE
  5
106
100
AcDbEntity
  8
Layer_1
 62
7
100
AcDbLine
 10
89.037073
 20
39.889421
 30
0.0
 11
339.223324
 21
39.889421
 31
0.0
  0
LINE
  5
107
100
AcDbEntity
  8
Layer_1
 62
7
100
AcDbLine
 10
136.963661
 20
10.756481
 30
0.0
 11
387.805321
 21
10.756481
 31
0.0
  0
SPLINE
  5
108
100
AcDbEntity
  8
Layer_1
 62
7
100
AcDbSpline
 70
8
 71
3
 72
8
 73
4
 74
0
 40
0
 40
0
 40
0
 40
0
 40
1
 40
1
 40
1
 40
1
 10
383.880677
 20
59.832469
 30
0.0
 10
383.880677
 20
62.603353
 30
0.0
 10
381.703924
 20
64.833756
 30
0.0
 10
378.999618
 20
64.833756
 30
0.0
  0
LINE
  5
109
100
AcDbEntity
  8
Layer_1
 62
7
100
AcDbLine
 10
378.999618
 20
64.833756
 30
0.0
 11
214.289897
 21
64.833756
 31
0.0
  0
LINE
  5
10a
100
AcDbEntity
  8
Layer_1
 62
7
100
AcDbLine
 10
214.289897
 20
64.833756
 30
0.0
 11
26.341796
 21
64.833756
 31
0.0
  0
LINE
  5
10b
100
AcDbEntity
  8
Layer_1
 62
7
100
AcDbLine
 10
26.341796
 20
64.833756
 30
0.0
 11
17.835103
 21
64.834285
 31
0.0
  0
SPLINE
  5
10c
100
AcDbEntity
  8
Layer_1
 62
7
100
AcDbSpline
 70
8
 71
3
 72
8
 73
4
 74
0
 40
0
 40
0
 40
0
 40
0
 40
1
 40
1
 40
1
 40
1
 10
12.834629
 20
59.833477
 30
0.0
 10
12.834629
 20
62.603498
 30
0.0
 10
15.064299
 20
64.833208
 30
0.0
 10
17.834328
 20
64.833208
 30
0.0
  0
SPLINE
  5
10d
100
AcDbEntity
  8
Layer_1
 62
7
100
AcDbSpline
 70
8
 71
3
 72
8
 73
4
 74
0
 40
0
 40
0
 40
0
 40
0
 40
1
 40
1
 40
1
 40
1
 10
58.643655
 20
10.757116
 30
0.0
 10
61.413684
 20
10.757116
 30
0.0
 10
63.644034
 20
12.987368
 30
0.0
 10
63.644034
 20
15.757371
 30
0.0
  0
SPLINE
  5
10e
100
AcDbEntity
  8
Layer_1
 62
7
100
AcDbSpline
 70
8
 71
3
 72
8
 73
4
 74
0
 40
0
 40
0
 40
0
 40
0
 40
1
 40
1
 40
1
 40
1
 10
63.639068
 20
34.990912
 30
0.0
 10
63.639068
 20
37.267419
 30
0.0
 10
65.146452
 20
39.176017
 30
0.0
 10
67.220759
 20
39.784948
 30
0.0
  0
LINE
  5
10f
100
AcDbEntity
  8
Layer_1
 62
7
100
AcDbLine
 10
63.644034
 20
15.757371
 30
0.0
 11
63.644034
 21
34.990912
 31
0.0
  0
SPLINE
  5
110
100
AcDbEntity
  8
Layer_1
 62
1
100
AcDbSpline
 70
8
 71
3
 72
8
 73
4
 74
0
 40
0
 40
0
 40
0
 40
0
 40
1
 40
1
 40
1
 40
1
 10
150.748053
 20
50.599929
 30
0.0
 10
149.675138
 20
50.599929
 30
0.0
 10
148.683768
 20
51.079275
 30
0.0
 10
148.147312
 20
51.857401
 30
0.0
  0
SPLINE
  5
111
100
AcDbEntity
  8
Layer_1
 62
1
100
AcDbSpline
 70
8
 71
3
 72
8
 73
4
 74
0
 40
0
 40
0
 40
0
 40
0
 40
1
 40
1
 40
1
 40
1
 10
148.147312
 20
51.857401
 30
0.0
 10
147.610856
 20
52.635530
 30
0.0
 10
147.610856
 20
53.594219
 30
0.0
 10
148.147312
 20
54.372345
 30
0.0
  0
SPLINE
  5
112
100
AcDbEntity
  8
Layer_1
 62
1
100
AcDbSpline
 70
8
 71
3
 72
8
 73
4
 74
0
 40
0
 40
0
 40
0
 40
0
 40
1
 40
1
 40
1
 40
1
 10
148.147312
 20
54.372345
 30
0.0
 10
148.683768
 20
55.150474
 30
0.0
 10
149.675183
 20
55.629627
 30
0.0
 10
150.748098
 20
55.629627
 30
0.0
  0
LINE
  5
113
100
AcDbEntity
  8
Layer_1
 62
7
100
AcDbLine
 10
8.907568
 20
10.700866
 30
0.0
 11
58.643327
 21
10.700866
 31
0.0
  0
SPLINE
  5
114
100
AcDbEntity
  8
Layer_1
 62
1
100
AcDbSpline
 70
8
 71
3
 72
8
 73
4
 74
0
 40
0
 40
0
 40
0
 40
0
 40
1
 40
1
 40
1
 40
1
 10
72.335551
 20
50.599937
 30
0.0
 10
71.262637
 20
50.599937
 30
0.0
 10
70.271267
 20
51.079280
 30
0.0
 10
69.734811
 20
51.857409
 30
0.0
  0
SPLINE
  5
115
100
AcDbEntity
  8
Layer_1
 62
1
100
AcDbSpline
 70
8
 71
3
 72
8
 73
4
 74
0
 40
0
 40
0
 40
0
 40
0
 40
1
 40
1
 40
1
 40
1
 10
69.734811
 20
51.857409
 30
0.0
 10
69.198355
 20
52.635535
 30
0.0
 10
69.198355
 20
53.594224
 30
0.0
 10
69.734811
 20
54.372353
 30
0.0
  0
SPLINE
  5
116
100
AcDbEntity
  8
Layer_1
 62
1
100
AcDbSpline
 70
8
 71
3
 72
8
 73
4
 74
0
 40
0
 40
0
 40
0
 40
0
 40
1
 40
1
 40
1
 40
1
 10
69.734811
 20
54.372353
 30
0.0
 10
70.271267
 20
55.150482
 30
0.0
 10
71.262682
 20
55.629632
 30
0.0
 10
72.335596
 20
55.629632
 30
0.0
  0
LINE
  5
117
100
AcDbEntity
  8
Layer_1
 62
1
100
AcDbLine
 10
150.749754
 20
55.629627
 30
0.0
 11
159.875088
 21
55.653095
 31
0.0
  0
LINE
  5
118
100
AcDbEntity
  8
Layer_1
 62
1
100
AcDbLine
 10
150.749370
 20
50.599919
 30
0.0
 11
159.874085
 21
50.646684
 31
0.0
  0
LINE
  5
119
100
AcDbEntity
  8
Layer_1
 62
1
100
AcDbLine
 10
72.337255
 20
55.629632
 30
0.0
 11
81.462586
 21
55.653100
 31
0.0
  0
SPLINE
  5
11a
100
AcDbEntity
  8
Layer_1
 62
1
100
AcDbSpline
 70
8
 71
3
 72
8
 73
4
 74
0
 40
0
 40
0
 40
0
 40
0
 40
1
 40
1
 40
1
 40
1
 10
255.392838
 20
55.653090
 30
0.0
 10
256.465753
 20
55.653090
 30
0.0
 10
257.457123
 20
55.173744
 30
0.0
 10
257.993579
 20
54.395618
 30
0.0
  0
SPLINE
  5
11b
100
AcDbEntity
  8
Layer_1
 62
1
100
AcDbSpline
 70
8
 71
3
 72
8
 73
4
 74
0
 40
0
 40
0
 40
0
 40
0
 40
1
 40
1
 40
1
 40
1
 10
257.993579
 20
54.395618
 30
0.0
 10
258.530034
 20
53.617491
 30
0.0
 10
258.530034
 20
52.658800
 30
0.0
 10
257.993579
 20
51.880674
 30
0.0
  0
SPLINE
  5
11c
100
AcDbEntity
  8
Layer_1
 62
1
100
AcDbSpline
 70
8
 71
3
 72
8
 73
4
 74
0
 40
0
 40
0
 40
0
 40
0
 40
1
 40
1
 40
1
 40
1
 10
257.993579
 20
51.880674
 30
0.0
 10
257.457123
 20
51.102545
 30
0.0
 10
256.465708
 20
50.623392
 30
0.0
 10
255.392793
 20
50.623392
 30
0.0
  0
LINE
  5
11d
100
AcDbEntity
  8
Layer_1
 62
1
100
AcDbLine
 10
72.336869
 20
50.599924
 30
0.0
 11
81.461584
 21
50.646689
 31
0.0
  0
SPLINE
  5
11e
100
AcDbEntity
  8
Layer_1
 62
1
100
AcDbSpline
 70
8
 71
3
 72
8
 73
4
 74
0
 40
0
 40
0
 40
0
 40
0
 40
1
 40
1
 40
1
 40
1
 10
333.805345
 20
55.653087
 30
0.0
 10
334.878257
 20
55.653087
 30
0.0
 10
335.869624
 20
55.173742
 30
0.0
 10
336.406067
 20
54.395615
 30
0.0
  0
SPLINE
  5
11f
100
AcDbEntity
  8
Layer_1
 62
1
100
AcDbSpline
 70
8
 71
3
 72
8
 73
4
 74
0
 40
0
 40
0
 40
0
 40
0
 40
1
 40
1
 40
1
 40
1
 10
336.406067
 20
54.395615
 30
0.0
 10
336.942536
 20
53.617489
 30
0.0
 10
336.942536
 20
52.658798
 30
0.0
 10
336.406067
 20
51.880669
 30
0.0
  0
SPLINE
  5
120
100
AcDbEntity
  8
Layer_1
 62
1
100
AcDbSpline
 70
8
 71
3
 72
8
 73
4
 74
0
 40
0
 40
0
 40
0
 40
0
 40
1
 40
1
 40
1
 40
1
 10
336.406067
 20
51.880669
 30
0.0
 10
335.869624
 20
51.102542
 30
0.0
 10
334.878204
 20
50.623390
 30
0.0
 10
333.805292
 20
50.623390
 30
0.0
  0
LINE
  5
121
100
AcDbEntity
  8
Layer_1
 62
1
100
AcDbLine
 10
255.391134
 20
50.623392
 30
0.0
 11
246.265803
 21
50.599924
 31
0.0
  0
LINE
  5
122
100
AcDbEntity
  8
Layer_1
 62
1
100
AcDbLine
 10
255.391520
 20
55.653100
 30
0.0
 11
246.266806
 21
55.606335
 31
0.0
  0
LINE
  5
123
100
AcDbEntity
  8
Layer_1
 62
1
100
AcDbLine
 10
333.803625
 20
50.623390
 30
0.0
 11
324.678305
 21
50.599921
 31
0.0
  0
LINE
  5
124
100
AcDbEntity
  8
Layer_1
 62
1
100
AcDbLine
 10
333.804022
 20
55.653098
 30
0.0
 11
324.679310
 21
55.606333
 31
0.0
  0
LINE
  5
125
100
AcDbEntity
  8
Layer_1
 62
5
100
AcDbLine
 10
-122.835016
 20
267.699352
 30
0.0
 11
-73.396303
 21
267.699352
 31
0.0
  0
LINE
  5
126
100
AcDbEntity
  8
Layer_1
 62
5
100
AcDbLine
 10
-73.396303
 20
267.699352
 30
0.0
 11
-73.396303
 21
217.696195
 31
0.0
  0
LINE
  5
127
100
AcDbEntity
  8
Layer_1
 62
5
100
AcDbLine
 10
-73.396303
 20
217.696195
 30
0.0
 11
-122.835016
 21
217.696195
 31
0.0
  0
LINE
  5
128
100
AcDbEntity
  8
Layer_1
 62
5
100
AcDbLine
 10
-122.835016
 20
217.696195
 30
0.0
 11
-122.835016
 21
267.699352
 31
0.0
  0
LINE
  5
129
100
AcDbEntity
  8
Layer_1
 62
5
100
AcDbLine
 10
48.908089
 20
51.731364
 30
0.0
 11
50.495589
 21
48.027198
 31
0.0
  0
LINE
  5
12a
100
AcDbEntity
  8
Layer_1
 62
5
100
AcDbLine
 10
52.083089
 20
51.731364
 30
0.0
 11
50.495589
 21
48.027198
 31
0.0
  0
LINE
  5
12b
100
AcDbEntity
  8
Layer_1
 62
5
100
AcDbLine
 10
23.615028
 20
46.418925
 30
0.0
 11
20.969196
 21
42.714758
 31
0.0
  0
LINE
  5
12c
100
AcDbEntity
  8
Layer_1
 62
5
100
AcDbLine
 10
20.969196
 20
42.714758
 30
0.0
 11
24.937947
 21
42.714758
 31
0.0
  0
LINE
  5
12d
100
AcDbEntity
  8
Layer_1
 62
5
100
AcDbLine
 10
23.615028
 20
46.418925
 30
0.0
 11
23.615028
 21
40.862680
 31
0.0
  0
LINE
  5
12e
100
AcDbEntity
  8
Layer_1
 62
5
100
AcDbLine
 10
28.089151
 20
45.123017
 30
0.0
 11
28.089151
 21
39.566772
 31
0.0
  0
LINE
  5
12f
100
AcDbEntity
  8
Layer_1
 62
5
100
AcDbLine
 10
28.200384
 20
44.218031
 30
0.0
 11
28.729551
 21
44.747198
 31
0.0
  0
LINE
  5
130
100
AcDbEntity
  8
Layer_1
 62
5
100
AcDbLine
 10
28.729551
 20
44.747198
 30
0.0
 11
29.258718
 21
45.011781
 31
0.0
  0
LINE
  5
131
100
AcDbEntity
  8
Layer_1
 62
5
100
AcDbLine
 10
29.258718
 20
45.011781
 30
0.0
 11
30.052468
 21
45.011781
 31
0.0
  0
LINE
  5
132
100
AcDbEntity
  8
Layer_1
 62
5
100
AcDbLine
 10
30.052468
 20
45.011781
 30
0.0
 11
30.581634
 21
44.747198
 31
0.0
  0
LINE
  5
133
100
AcDbEntity
  8
Layer_1
 62
5
100
AcDbLine
 10
30.581634
 20
44.747198
 30
0.0
 11
31.110801
 21
44.218031
 31
0.0
  0
LINE
  5
134
100
AcDbEntity
  8
Layer_1
 62
5
100
AcDbLine
 10
31.110801
 20
44.218031
 30
0.0
 11
31.375384
 21
43.424281
 31
0.0
  0
LINE
  5
135
100
AcDbEntity
  8
Layer_1
 62
5
100
AcDbLine
 10
31.375384
 20
43.424281
 30
0.0
 11
31.375384
 21
42.895114
 31
0.0
  0
LINE
  5
136
100
AcDbEntity
  8
Layer_1
 62
5
100
AcDbLine
 10
31.375384
 20
42.895114
 30
0.0
 11
31.110801
 21
42.101370
 31
0.0
  0
LINE
  5
137
100
AcDbEntity
  8
Layer_1
 62
5
100
AcDbLine
 10
31.110801
 20
42.101370
 30
0.0
 11
30.581634
 21
41.572203
 31
0.0
  0
LINE
  5
138
100
AcDbEntity
  8
Layer_1
 62
5
100
AcDbLine
 10
30.581634
 20
41.572203
 30
0.0
 11
30.052468
 21
41.307620
 31
0.0
  0
LINE
  5
139
100
AcDbEntity
  8
Layer_1
 62
5
100
AcDbLine
 10
30.052468
 20
41.307620
 30
0.0
 11
29.258718
 21
41.307620
 31
0.0
  0
LINE
  5
13a
100
AcDbEntity
  8
Layer_1
 62
5
100
AcDbLine
 10
29.258718
 20
41.307620
 30
0.0
 11
28.729551
 21
41.572203
 31
0.0
  0
LINE
  5
13b
100
AcDbEntity
  8
Layer_1
 62
5
100
AcDbLine
 10
28.729551
 20
41.572203
 30
0.0
 11
28.200384
 21
42.101370
 31
0.0
  0
LINE
  5
13c
100
AcDbEntity
  8
Layer_1
 62
5
100
AcDbLine
 10
33.227468
 20
45.011781
 30
0.0
 11
33.227468
 21
42.365953
 31
0.0
  0
LINE
  5
13d
100
AcDbEntity
  8
Layer_1
 62
5
100
AcDbLine
 10
33.227468
 20
42.365953
 30
0.0
 11
33.492051
 21
41.572203
 31
0.0
  0
LINE
  5
13e
100
AcDbEntity
  8
Layer_1
 62
5
100
AcDbLine
 10
33.492051
 20
41.572203
 30
0.0
 11
34.021218
 21
41.307620
 31
0.0
  0
LINE
  5
13f
100
AcDbEntity
  8
Layer_1
 62
5
100
AcDbLine
 10
34.021218
 20
41.307620
 30
0.0
 11
34.814968
 21
41.307620
 31
0.0
  0
LINE
  5
140
100
AcDbEntity
  8
Layer_1
 62
5
100
AcDbLine
 10
34.814968
 20
41.307620
 30
0.0
 11
35.344134
 21
41.572203
 31
0.0
  0
LINE
  5
141
100
AcDbEntity
  8
Layer_1
 62
5
100
AcDbLine
 10
35.344134
 20
41.572203
 30
0.0
 11
36.137884
 21
42.365953
 31
0.0
  0
LINE
  5
142
100
AcDbEntity
  8
Layer_1
 62
5
100
AcDbLine
 10
36.137884
 20
45.011781
 30
0.0
 11
36.137884
 21
41.307620
 31
0.0
  0
LINE
  5
143
100
AcDbEntity
  8
Layer_1
 62
5
100
AcDbLine
 10
38.254551
 20
45.011781
 30
0.0
 11
38.254551
 21
41.307620
 31
0.0
  0
LINE
  5
144
100
AcDbEntity
  8
Layer_1
 62
5
100
AcDbLine
 10
38.254551
 20
43.953448
 30
0.0
 11
39.048301
 21
44.747198
 31
0.0
  0
LINE
  5
145
100
AcDbEntity
  8
Layer_1
 62
5
100
AcDbLine
 10
39.048301
 20
44.747198
 30
0.0
 11
39.577468
 21
45.011781
 31
0.0
  0
LINE
  5
146
100
AcDbEntity
  8
Layer_1
 62
5
100
AcDbLine
 10
39.577468
 20
45.011781
 30
0.0
 11
40.371218
 21
45.011781
 31
0.0
  0
LINE
  5
147
100
AcDbEntity
  8
Layer_1
 62
5
100
AcDbLine
 10
40.371218
 20
45.011781
 30
0.0
 11
40.900384
 21
44.747198
 31
0.0
  0
LINE
  5
148
100
AcDbEntity
  8
Layer_1
 62
5
100
AcDbLine
 10
40.900384
 20
44.747198
 30
0.0
 11
41.164968
 21
43.953448
 31
0.0
  0
LINE
  5
149
100
AcDbEntity
  8
Layer_1
 62
5
100
AcDbLine
 10
41.164968
 20
43.953448
 30
0.0
 11
41.164968
 21
41.307620
 31
0.0
  0
LINE
  5
14a
100
AcDbEntity
  8
Layer_1
 62
5
100
AcDbLine
 10
46.192051
 20
44.218031
 30
0.0
 11
45.662884
 21
44.747198
 31
0.0
  0
LINE
  5
14b
100
AcDbEntity
  8
Layer_1
 62
5
100
AcDbLine
 10
45.662884
 20
44.747198
 30
0.0
 11
45.133718
 21
45.011781
 31
0.0
  0
LINE
  5
14c
100
AcDbEntity
  8
Layer_1
 62
5
100
AcDbLine
 10
45.133718
 20
45.011781
 30
0.0
 11
44.339968
 21
45.011781
 31
0.0
  0
LINE
  5
14d
100
AcDbEntity
  8
Layer_1
 62
5
100
AcDbLine
 10
44.339968
 20
45.011781
 30
0.0
 11
43.810801
 21
44.747198
 31
0.0
  0
LINE
  5
14e
100
AcDbEntity
  8
Layer_1
 62
5
100
AcDbLine
 10
43.810801
 20
44.747198
 30
0.0
 11
43.281634
 21
44.218031
 31
0.0
  0
LINE
  5
14f
100
AcDbEntity
  8
Layer_1
 62
5
100
AcDbLine
 10
43.281634
 20
44.218031
 30
0.0
 11
43.017051
 21
43.424281
 31
0.0
  0
LINE
  5
150
100
AcDbEntity
  8
Layer_1
 62
5
100
AcDbLine
 10
43.017051
 20
43.424281
 30
0.0
 11
43.017051
 21
42.895114
 31
0.0
  0
LINE
  5
151
100
AcDbEntity
  8
Layer_1
 62
5
100
AcDbLine
 10
43.017051
 20
42.895114
 30
0.0
 11
43.281634
 21
42.101370
 31
0.0
  0
LINE
  5
152
100
AcDbEntity
  8
Layer_1
 62
5
100
AcDbLine
 10
43.281634
 20
42.101370
 30
0.0
 11
43.810801
 21
41.572203
 31
0.0
  0
LINE
  5
153
100
AcDbEntity
  8
Layer_1
 62
5
100
AcDbLine
 10
43.810801
 20
41.572203
 30
0.0
 11
44.339968
 21
41.307620
 31
0.0
  0
LINE
  5
154
100
AcDbEntity
  8
Layer_1
 62
5
100
AcDbLine
 10
44.339968
 20
41.307620
 30
0.0
 11
45.133718
 21
41.307620
 31
0.0
  0
LINE
  5
155
100
AcDbEntity
  8
Layer_1
 62
5
100
AcDbLine
 10
45.133718
 20
41.307620
 30
0.0
 11
45.662884
 21
41.572203
 31
0.0
  0
LINE
  5
156
100
AcDbEntity
  8
Layer_1
 62
5
100
AcDbLine
 10
45.662884
 20
41.572203
 30
0.0
 11
46.192051
 21
42.101370
 31
0.0
  0
LINE
  5
157
100
AcDbEntity
  8
Layer_1
 62
5
100
AcDbLine
 10
48.044134
 20
46.863864
 30
0.0
 11
48.044134
 21
41.307620
 31
0.0
  0
LINE
  5
158
100
AcDbEntity
  8
Layer_1
 62
5
100
AcDbLine
 10
48.044134
 20
43.953448
 30
0.0
 11
48.837884
 21
44.747198
 31
0.0
  0
LINE
  5
159
100
AcDbEntity
  8
Layer_1
 62
5
100
AcDbLine
 10
48.837884
 20
44.747198
 30
0.0
 11
49.367051
 21
45.011781
 31
0.0
  0
LINE
  5
15a
100
AcDbEntity
  8
Layer_1
 62
5
100
AcDbLine
 10
49.367051
 20
45.011781
 30
0.0
 11
50.160801
 21
45.011781
 31
0.0
  0
LINE
  5
15b
100
AcDbEntity
  8
Layer_1
 62
5
100
AcDbLine
 10
50.160801
 20
45.011781
 30
0.0
 11
50.689968
 21
44.747198
 31
0.0
  0
LINE
  5
15c
100
AcDbEntity
  8
Layer_1
 62
5
100
AcDbLine
 10
50.689968
 20
44.747198
 30
0.0
 11
50.954551
 21
43.953448
 31
0.0
  0
LINE
  5
15d
100
AcDbEntity
  8
Layer_1
 62
5
100
AcDbLine
 10
50.954551
 20
43.953448
 30
0.0
 11
50.954551
 21
41.307620
 31
0.0
  0
SPLINE
  5
15e
100
AcDbEntity
  8
Layer_1
 62
7
100
AcDbSpline
 70
8
 71
3
 72
8
 73
4
 74
0
 40
0
 40
0
 40
0
 40
0
 40
1
 40
1
 40
1
 40
1
 10
114.598207
 20
13.700394
 30
0.0
 10
114.598205
 20
12.925304
 30
0.0
 10
114.914322
 20
12.181959
 30
0.0
 10
115.477016
 20
11.633888
 30
0.0
  0
SPLINE
  5
15f
100
AcDbEntity
  8
Layer_1
 62
7
100
AcDbSpline
 70
8
 71
3
 72
8
 73
4
 74
0
 40
0
 40
0
 40
0
 40
0
 40
1
 40
1
 40
1
 40
1
 10
115.477016
 20
11.633888
 30
0.0
 10
116.039710
 20
11.085816
 30
0.0
 10
116.802888
 20
10.777912
 30
0.0
 10
117.598658
 20
10.777912
 30
0.0
  0
LINE
  5
160
100
AcDbEntity
  8
Layer_1
 62
7
100
AcDbLine
 10
114.598207
 20
13.700394
 30
0.0
 11
114.598207
 21
18.084117
 31
0.0
  0
SPLINE
  5
161
100
AcDbEntity
  8
Layer_1
 62
7
100
AcDbSpline
 70
8
 71
3
 72
8
 73
4
 74
0
 40
0
 40
0
 40
0
 40
0
 40
1
 40
1
 40
1
 40
1
 10
114.598207
 20
18.084117
 30
0.0
 10
115.093882
 20
18.086112
 30
0.0
 10
115.494623
 20
18.478055
 30
0.0
 10
115.494623
 20
18.960853
 30
0.0
  0
SPLINE
  5
162
100
AcDbEntity
  8
Layer_1
 62
7
100
AcDbSpline
 70
8
 71
3
 72
8
 73
4
 74
0
 40
0
 40
0
 40
0
 40
0
 40
1
 40
1
 40
1
 40
1
 10
115.494623
 20
18.960853
 30
0.0
 10
115.494623
 20
19.443651
 30
0.0
 10
115.093882
 20
19.835594
 30
0.0
 10
114.598207
 20
19.837590
 30
0.0
  0
LINE
  5
163
100
AcDbEntity
  8
Layer_1
 62
7
100
AcDbLine
 10
114.598207
 20
19.837590
 30
0.0
 11
114.598207
 21
30.943025
 31
0.0
  0
SPLINE
  5
164
100
AcDbEntity
  8
Layer_1
 62
7
100
AcDbSpline
 70
8
 71
3
 72
8
 73
4
 74
0
 40
0
 40
0
 40
0
 40
0
 40
1
 40
1
 40
1
 40
1
 10
114.598207
 20
30.943025
 30
0.0
 10
115.095338
 20
30.943025
 30
0.0
 10
115.498342
 20
31.335557
 30
0.0
 10
115.498342
 20
31.819768
 30
0.0
  0
SPLINE
  5
165
100
AcDbEntity
  8
Layer_1
 62
7
100
AcDbSpline
 70
8
 71
3
 72
8
 73
4
 74
0
 40
0
 40
0
 40
0
 40
0
 40
1
 40
1
 40
1
 40
1
 10
115.498342
 20
31.819768
 30
0.0
 10
115.498342
 20
32.303980
 30
0.0
 10
115.095338
 20
32.696512
 30
0.0
 10
114.598207
 20
32.696512
 30
0.0
  0
LINE
  5
166
100
AcDbEntity
  8
Layer_1
 62
7
100
AcDbLine
 10
114.597259
 20
32.695551
 30
0.0
 11
114.597259
 21
37.013665
 31
0.0
  0
SPLINE
  5
167
100
AcDbEntity
  8
Layer_1
 62
7
100
AcDbSpline
 70
8
 71
3
 72
8
 73
4
 74
0
 40
0
 40
0
 40
0
 40
0
 40
1
 40
1
 40
1
 40
1
 10
117.599606
 20
39.892408
 30
0.0
 10
116.803333
 20
39.892409
 30
0.0
 10
116.039674
 20
39.589113
 30
0.0
 10
115.476625
 20
39.049244
 30
0.0
  0
SPLINE
  5
168
100
AcDbEntity
  8
Layer_1
 62
7
100
AcDbSpline
 70
8
 71
3
 72
8
 73
4
 74
0
 40
0
 40
0
 40
0
 40
0
 40
1
 40
1
 40
1
 40
1
 10
115.476625
 20
39.049244
 30
0.0
 10
114.913576
 20
38.509375
 30
0.0
 10
114.597258
 20
37.777155
 30
0.0
 10
114.597259
 20
37.013665
 30
0.0
  0
SPLINE
  5
169
100
AcDbEntity
  8
Layer_1
 62
7
100
AcDbSpline
 70
8
 71
3
 72
8
 73
4
 74
0
 40
0
 40
0
 40
0
 40
0
 40
1
 40
1
 40
1
 40
1
 10
132.700379
 20
37.077826
 30
0.0
 10
132.700380
 20
37.824672
 30
0.0
 10
132.384069
 20
38.540930
 30
0.0
 10
131.821031
 20
39.069030
 30
0.0
  0
SPLINE
  5
16a
100
AcDbEntity
  8
Layer_1
 62
7
100
AcDbSpline
 70
8
 71
3
 72
8
 73
4
 74
0
 40
0
 40
0
 40
0
 40
0
 40
1
 40
1
 40
1
 40
1
 10
131.821031
 20
39.069030
 30
0.0
 10
131.257993
 20
39.597130
 30
0.0
 10
130.494348
 20
39.893813
 30
0.0
 10
129.698091
 20
39.893813
 30
0.0
  0
LINE
  5
16b
100
AcDbEntity
  8
Layer_1
 62
7
100
AcDbLine
 10
132.700929
 20
37.080231
 30
0.0
 11
132.700929
 21
31.819749
 31
0.0
  0
SPLINE
  5
16c
100
AcDbEntity
  8
Layer_1
 62
7
100
AcDbSpline
 70
8
 71
3
 72
8
 73
4
 74
0
 40
0
 40
0
 40
0
 40
0
 40
1
 40
1
 40
1
 40
1
 10
132.700929
 20
31.819749
 30
0.0
 10
132.701454
 20
31.335899
 30
0.0
 10
133.104305
 20
30.943932
 30
0.0
 10
133.601064
 20
30.943932
 30
0.0
  0
SPLINE
  5
16d
100
AcDbEntity
  8
Layer_1
 62
7
100
AcDbSpline
 70
8
 71
3
 72
8
 73
4
 74
0
 40
0
 40
0
 40
0
 40
0
 40
1
 40
1
 40
1
 40
1
 10
133.601064
 20
30.943932
 30
0.0
 10
134.097824
 20
30.943932
 30
0.0
 10
134.500674
 20
31.335899
 30
0.0
 10
134.501199
 20
31.819749
 30
0.0
  0
LINE
  5
16e
100
AcDbEntity
  8
Layer_1
 62
7
100
AcDbLine
 10
134.501199
 20
31.819749
 30
0.0
 11
134.501199
 21
37.080231
 31
0.0
  0
SPLINE
  5
16f
100
AcDbEntity
  8
Layer_1
 62
7
100
AcDbSpline
 70
8
 71
3
 72
8
 73
4
 74
0
 40
0
 40
0
 40
0
 40
0
 40
1
 40
1
 40
1
 40
1
 10
137.504040
 20
39.893813
 30
0.0
 10
136.707783
 20
39.893814
 30
0.0
 10
135.944138
 20
39.597131
 30
0.0
 10
135.381099
 20
39.069031
 30
0.0
  0
SPLINE
  5
170
100
AcDbEntity
  8
Layer_1
 62
7
100
AcDbSpline
 70
8
 71
3
 72
8
 73
4
 74
0
 40
0
 40
0
 40
0
 40
0
 40
1
 40
1
 40
1
 40
1
 10
135.381099
 20
39.069031
 30
0.0
 10
134.818060
 20
38.540930
 30
0.0
 10
134.501748
 20
37.824673
 30
0.0
 10
134.501750
 20
37.077826
 30
0.0
  0
SPLINE
  5
171
100
AcDbEntity
  8
Layer_1
 62
7
100
AcDbSpline
 70
8
 71
3
 72
8
 73
4
 74
0
 40
0
 40
0
 40
0
 40
0
 40
1
 40
1
 40
1
 40
1
 10
134.501199
 20
13.700394
 30
0.0
 10
134.501198
 20
12.925304
 30
0.0
 10
134.817316
 20
12.181959
 30
0.0
 10
135.380010
 20
11.633887
 30
0.0
  0
SPLINE
  5
172
100
AcDbEntity
  8
Layer_1
 62
7
100
AcDbSpline
 70
8
 71
3
 72
8
 73
4
 74
0
 40
0
 40
0
 40
0
 40
0
 40
1
 40
1
 40
1
 40
1
 10
135.380010
 20
11.633887
 30
0.0
 10
135.942705
 20
11.085815
 30
0.0
 10
136.705883
 20
10.777912
 30
0.0
 10
137.501654
 20
10.777912
 30
0.0
  0
LINE
  5
173
100
AcDbEntity
  8
Layer_1
 62
7
100
AcDbLine
 10
134.501199
 20
13.700394
 30
0.0
 11
134.501199
 21
18.960866
 31
0.0
  0
SPLINE
  5
174
100
AcDbEntity
  8
Layer_1
 62
7
100
AcDbSpline
 70
8
 71
3
 72
8
 73
4
 74
0
 40
0
 40
0
 40
0
 40
0
 40
1
 40
1
 40
1
 40
1
 10
134.501199
 20
18.960866
 30
0.0
 10
134.500674
 20
19.444716
 30
0.0
 10
134.097824
 20
19.836682
 30
0.0
 10
133.601064
 20
19.836682
 30
0.0
  0
SPLINE
  5
175
100
AcDbEntity
  8
Layer_1
 62
7
100
AcDbSpline
 70
8
 71
3
 72
8
 73
4
 74
0
 40
0
 40
0
 40
0
 40
0
 40
1
 40
1
 40
1
 40
1
 10
133.601064
 20
19.836682
 30
0.0
 10
133.104305
 20
19.836682
 30
0.0
 10
132.701454
 20
19.444716
 30
0.0
 10
132.700929
 20
18.960866
 30
0.0
  0
LINE
  5
176
100
AcDbEntity
  8
Layer_1
 62
7
100
AcDbLine
 10
132.700929
 20
18.960866
 30
0.0
 11
132.700929
 21
13.700394
 31
0.0
  0
SPLINE
  5
177
100
AcDbEntity
  8
Layer_1
 62
7
100
AcDbSpline
 70
8
 71
3
 72
8
 73
4
 74
0
 40
0
 40
0
 40
0
 40
0
 40
1
 40
1
 40
1
 40
1
 10
129.700478
 20
10.777912
 30
0.0
 10
130.496248
 20
10.777912
 30
0.0
 10
131.259426
 20
11.085816
 30
0.0
 10
131.822120
 20
11.633888
 30
0.0
  0
SPLINE
  5
178
100
AcDbEntity
  8
Layer_1
 62
7
100
AcDbSpline
 70
8
 71
3
 72
8
 73
4
 74
0
 40
0
 40
0
 40
0
 40
0
 40
1
 40
1
 40
1
 40
1
 10
131.822120
 20
11.633888
 30
0.0
 10
132.384814
 20
12.181959
 30
0.0
 10
132.700931
 20
12.925304
 30
0.0
 10
132.700929
 20
13.700394
 30
0.0
  0
LINE
  5
179
100
AcDbEntity
  8
Layer_1
 62
7
100
AcDbLine
 10
129.700478
 20
10.777912
 30
0.0
 11
117.598658
 21
10.777912
 31
0.0
  0
SPLINE
  5
17a
100
AcDbEntity
  8
Layer_1
 62
7
100
AcDbSpline
 70
8
 71
3
 72
8
 73
4
 74
0
 40
0
 40
0
 40
0
 40
0
 40
1
 40
1
 40
1
 40
1
 10
341.601081
 20
39.710714
 30
0.0
 10
341.601081
 20
39.386198
 30
0.0
 10
341.472167
 20
39.074974
 30
0.0
 10
341.242698
 20
38.845508
 30
0.0
  0
SPLINE
  5
17b
100
AcDbEntity
  8
Layer_1
 62
7
100
AcDbSpline
 70
8
 71
3
 72
8
 73
4
 74
0
 40
0
 40
0
 40
0
 40
0
 40
1
 40
1
 40
1
 40
1
 10
341.242698
 20
38.845508
 30
0.0
 10
341.013230
 20
38.616042
 30
0.0
 10
340.702005
 20
38.487131
 30
0.0
 10
340.377489
 20
38.487135
 30
0.0
  0
SPLINE
  5
17c
100
AcDbEntity
  8
Layer_1
 62
7
100
AcDbSpline
 70
8
 71
3
 72
8
 73
4
 74
0
 40
0
 40
0
 40
0
 40
0
 40
1
 40
1
 40
1
 40
1
 10
340.377489
 20
38.487135
 30
0.0
 10
339.701730
 20
38.487142
 30
0.0
 10
339.153924
 20
39.034955
 30
0.0
 10
339.153923
 20
39.710714
 30
0.0
  0
SPLINE
  5
17d
100
AcDbEntity
  8
Layer_1
 62
7
100
AcDbSpline
 70
8
 71
3
 72
8
 73
4
 74
0
 40
0
 40
0
 40
0
 40
0
 40
1
 40
1
 40
1
 40
1
 10
339.153923
 20
39.710714
 30
0.0
 10
339.153924
 20
40.386472
 30
0.0
 10
339.701730
 20
40.934285
 30
0.0
 10
340.377489
 20
40.934293
 30
0.0
  0
SPLINE
  5
17e
100
AcDbEntity
  8
Layer_1
 62
7
100
AcDbSpline
 70
8
 71
3
 72
8
 73
4
 74
0
 40
0
 40
0
 40
0
 40
0
 40
1
 40
1
 40
1
 40
1
 10
340.377489
 20
40.934293
 30
0.0
 10
340.702005
 20
40.934296
 30
0.0
 10
341.013230
 20
40.805385
 30
0.0
 10
341.242698
 20
40.575919
 30
0.0
  0
SPLINE
  5
17f
100
AcDbEntity
  8
Layer_1
 62
7
100
AcDbSpline
 70
8
 71
3
 72
8
 73
4
 74
0
 40
0
 40
0
 40
0
 40
0
 40
1
 40
1
 40
1
 40
1
 10
341.242698
 20
40.575919
 30
0.0
 10
341.472167
 20
40.346453
 30
0.0
 10
341.601081
 20
40.035229
 30
0.0
 10
341.601081
 20
39.710714
 30
0.0
  0
LINE
  5
180
100
AcDbEntity
  8
Layer_1
 62
7
100
AcDbLine
 10
341.601081
 20
39.710714
 30
0.0
 11
341.601081
 21
39.710714
 31
0.0
  0
LINE
  5
181
100
AcDbEntity
  8
Layer_1
 62
7
100
AcDbLine
 10
14.140913
 20
-11.858938
 30
0.0
 11
30.196123
 21
-16.160904
 31
0.0
  0
SPLINE
  5
182
100
AcDbEntity
  8
Layer_1
 62
7
100
AcDbSpline
 70
8
 71
3
 72
8
 73
4
 74
0
 40
0
 40
0
 40
0
 40
0
 40
1
 40
1
 40
1
 40
1
 10
30.196123
 20
-16.160904
 30
0.0
 10
30.449363
 20
-16.228764
 30
0.0
 10
30.710406
 20
-16.263135
 30
0.0
 10
30.972580
 20
-16.263139
 30
0.0
  0
LINE
  5
183
100
AcDbEntity
  8
Layer_1
 62
7
100
AcDbLine
 10
30.972580
 20
-16.263139
 30
0.0
 11
373.559017
 21
-16.263139
 31
0.0
  0
LINE
  5
184
100
AcDbEntity
  8
Layer_1
 62
7
100
AcDbLine
 10
373.559017
 20
-16.263139
 30
0.0
 11
373.559017
 21
-17.863128
 31
0.0
  0
SPLINE
  5
185
100
AcDbEntity
  8
Layer_1
 62
7
100
AcDbSpline
 70
8
 71
3
 72
8
 73
4
 74
0
 40
0
 40
0
 40
0
 40
0
 40
1
 40
1
 40
1
 40
1
 10
373.559017
 20
-17.863128
 30
0.0
 10
373.559014
 20
-18.340522
 30
0.0
 10
373.748656
 20
-18.798364
 30
0.0
 10
374.086225
 20
-19.135933
 30
0.0
  0
SPLINE
  5
186
100
AcDbEntity
  8
Layer_1
 62
7
100
AcDbSpline
 70
8
 71
3
 72
8
 73
4
 74
0
 40
0
 40
0
 40
0
 40
0
 40
1
 40
1
 40
1
 40
1
 10
374.086225
 20
-19.135933
 30
0.0
 10
374.423794
 20
-19.473502
 30
0.0
 10
374.881636
 20
-19.663144
 30
0.0
 10
375.359030
 20
-19.663141
 30
0.0
  0
LINE
  5
187
100
AcDbEntity
  8
Layer_1
 62
7
100
AcDbLine
 10
375.359030
 20
-19.663141
 30
0.0
 11
381.759037
 21
-19.663141
 31
0.0
  0
SPLINE
  5
188
100
AcDbEntity
  8
Layer_1
 62
7
100
AcDbSpline
 70
8
 71
3
 72
8
 73
4
 74
0
 40
0
 40
0
 40
0
 40
0
 40
1
 40
1
 40
1
 40
1
 10
381.759037
 20
-19.663141
 30
0.0
 10
382.236426
 20
-19.663137
 30
0.0
 10
382.694262
 20
-19.473492
 30
0.0
 10
383.031825
 20
-19.135924
 30
0.0
  0
SPLINE
  5
189
100
AcDbEntity
  8
Layer_1
 62
7
100
AcDbSpline
 70
8
 71
3
 72
8
 73
4
 74
0
 40
0
 40
0
 40
0
 40
0
 40
1
 40
1
 40
1
 40
1
 10
383.031825
 20
-19.135924
 30
0.0
 10
383.369388
 20
-18.798356
 30
0.0
 10
383.559027
 20
-18.340517
 30
0.0
 10
383.559024
 20
-17.863128
 30
0.0
  0
LINE
  5
18a
100
AcDbEntity
  8
Layer_1
 62
7
100
AcDbLine
 10
383.559024
 20
-17.863128
 30
0.0
 11
383.559024
 21
6.536853
 31
0.0
  0
SPLINE
  5
18b
100
AcDbEntity
  8
Layer_1
 62
7
100
AcDbSpline
 70
8
 71
3
 72
8
 73
4
 74
0
 40
0
 40
0
 40
0
 40
0
 40
1
 40
1
 40
1
 40
1
 10
383.559024
 20
6.536853
 30
0.0
 10
383.559027
 20
7.014243
 30
0.0
 10
383.369388
 20
7.472081
 30
0.0
 10
383.031825
 20
7.809649
 30
0.0
  0
SPLINE
  5
18c
100
AcDbEntity
  8
Layer_1
 62
7
100
AcDbSpline
 70
8
 71
3
 72
8
 73
4
 74
0
 40
0
 40
0
 40
0
 40
0
 40
1
 40
1
 40
1
 40
1
 10
383.031825
 20
7.809649
 30
0.0
 10
382.694262
 20
8.147217
 30
0.0
 10
382.236426
 20
8.336863
 30
0.0
 10
381.759037
 20
8.336867
 30
0.0
  0
LINE
  5
18d
100
AcDbEntity
  8
Layer_1
 62
7
100
AcDbLine
 10
381.759037
 20
8.336867
 30
0.0
 11
375.359030
 21
8.336867
 31
0.0
  0
SPLINE
  5
18e
100
AcDbEntity
  8
Layer_1
 62
7
100
AcDbSpline
 70
8
 71
3
 72
8
 73
4
 74
0
 40
0
 40
0
 40
0
 40
0
 40
1
 40
1
 40
1
 40
1
 10
375.359030
 20
8.336867
 30
0.0
 10
374.881636
 20
8.336870
 30
0.0
 10
374.423794
 20
8.147227
 30
0.0
 10
374.086225
 20
7.809659
 30
0.0
  0
SPLINE
  5
18f
100
AcDbEntity
  8
Layer_1
 62
7
100
AcDbSpline
 70
8
 71
3
 72
8
 73
4
 74
0
 40
0
 40
0
 40
0
 40
0
 40
1
 40
1
 40
1
 40
1
 10
374.086225
 20
7.809659
 30
0.0
 10
373.748656
 20
7.472090
 30
0.0
 10
373.559014
 20
7.014247
 30
0.0
 10
373.559017
 20
6.536853
 30
0.0
  0
LINE
  5
190
100
AcDbEntity
  8
Layer_1
 62
7
100
AcDbLine
 10
373.559017
 20
6.536853
 30
0.0
 11
373.559017
 21
4.936865
 31
0.0
  0
LINE
  5
191
100
AcDbEntity
  8
Layer_1
 62
7
100
AcDbLine
 10
373.559017
 20
4.936865
 30
0.0
 11
30.972580
 21
4.936865
 31
0.0
  0
SPLINE
  5
192
100
AcDbEntity
  8
Layer_1
 62
7
100
AcDbSpline
 70
8
 71
3
 72
8
 73
4
 74
0
 40
0
 40
0
 40
0
 40
0
 40
1
 40
1
 40
1
 40
1
 10
30.972580
 20
4.936865
 30
0.0
 10
30.710406
 20
4.936861
 30
0.0
 10
30.449363
 20
4.902490
 30
0.0
 10
30.196123
 20
4.834630
 30
0.0
  0
LINE
  5
193
100
AcDbEntity
  8
Layer_1
 62
7
100
AcDbLine
 10
30.196123
 20
4.834630
 30
0.0
 11
14.140913
 21
0.532664
 31
0.0
  0
SPLINE
  5
194
100
AcDbEntity
  8
Layer_1
 62
7
100
AcDbSpline
 70
8
 71
3
 72
8
 73
4
 74
0
 40
0
 40
0
 40
0
 40
0
 40
1
 40
1
 40
1
 40
1
 10
14.140913
 20
0.532664
 30
0.0
 10
12.829365
 20
0.181235
 30
0.0
 10
11.917374
 20
-1.007292
 30
0.0
 10
11.917370
 20
-2.365106
 30
0.0
  0
LINE
  5
195
100
AcDbEntity
  8
Layer_1
 62
7
100
AcDbLine
 10
11.917370
 20
-2.365106
 30
0.0
 11
11.917370
 21
-8.961142
 31
0.0
  0
SPLINE
  5
196
100
AcDbEntity
  8
Layer_1
 62
7
100
AcDbSpline
 70
8
 71
3
 72
8
 73
4
 74
0
 40
0
 40
0
 40
0
 40
0
 40
1
 40
1
 40
1
 40
1
 10
11.917370
 20
-8.961168
 30
0.0
 10
11.917374
 20
-10.318983
 30
0.0
 10
12.829365
 20
-11.507510
 30
0.0
 10
14.140913
 20
-11.858938
 30
0.0
  0
SPLINE
  5
197
100
AcDbEntity
  8
Layer_1
 62
1
100
AcDbSpline
 70
8
 71
3
 72
8
 73
4
 74
0
 40
0
 40
0
 40
0
 40
0
 40
1
 40
1
 40
1
 40
1
 10
26.617369
 20
0.036861
 30
0.0
 10
26.617654
 20
0.322863
 30
0.0
 10
26.465237
 20
0.587262
 30
0.0
 10
26.217600
 20
0.730345
 30
0.0
  0
SPLINE
  5
198
100
AcDbEntity
  8
Layer_1
 62
1
100
AcDbSpline
 70
8
 71
3
 72
8
 73
4
 74
0
 40
0
 40
0
 40
0
 40
0
 40
1
 40
1
 40
1
 40
1
 10
26.217600
 20
0.730345
 30
0.0
 10
25.969962
 20
0.873429
 30
0.0
 10
25.664777
 20
0.873429
 30
0.0
 10
25.417139
 20
0.730345
 30
0.0
  0
SPLINE
  5
199
100
AcDbEntity
  8
Layer_1
 62
1
100
AcDbSpline
 70
8
 71
3
 72
8
 73
4
 74
0
 40
0
 40
0
 40
0
 40
0
 40
1
 40
1
 40
1
 40
1
 10
25.417139
 20
0.730345
 30
0.0
 10
25.169502
 20
0.587262
 30
0.0
 10
25.017085
 20
0.322863
 30
0.0
 10
25.017370
 20
0.036861
 30
0.0
  0
SPLINE
  5
19a
100
AcDbEntity
  8
Layer_1
 62
1
100
AcDbSpline
 70
8
 71
3
 72
8
 73
4
 74
0
 40
0
 40
0
 40
0
 40
0
 40
1
 40
1
 40
1
 40
1
 10
25.017370
 20
0.036861
 30
0.0
 10
25.017085
 20
-0.249141
 30
0.0
 10
25.169502
 20
-0.513540
 30
0.0
 10
25.417139
 20
-0.656623
 30
0.0
  0
SPLINE
  5
19b
100
AcDbEntity
  8
Layer_1
 62
1
100
AcDbSpline
 70
8
 71
3
 72
8
 73
4
 74
0
 40
0
 40
0
 40
0
 40
0
 40
1
 40
1
 40
1
 40
1
 10
25.417139
 20
-0.656623
 30
0.0
 10
25.664777
 20
-0.799707
 30
0.0
 10
25.969962
 20
-0.799707
 30
0.0
 10
26.217600
 20
-0.656623
 30
0.0
  0
SPLINE
  5
19c
100
AcDbEntity
  8
Layer_1
 62
1
100
AcDbSpline
 70
8
 71
3
 72
8
 73
4
 74
0
 40
0
 40
0
 40
0
 40
0
 40
1
 40
1
 40
1
 40
1
 10
26.217600
 20
-0.656623
 30
0.0
 10
26.465237
 20
-0.513540
 30
0.0
 10
26.617654
 20
-0.249141
 30
0.0
 10
26.617369
 20
0.036861
 30
0.0
  0
LINE
  5
19d
100
AcDbEntity
  8
Layer_1
 62
1
100
AcDbLine
 10
26.617369
 20
0.036861
 30
0.0
 11
26.617369
 21
0.036861
 31
0.0
  0
SPLINE
  5
19e
100
AcDbEntity
  8
Layer_1
 62
1
100
AcDbSpline
 70
8
 71
3
 72
8
 73
4
 74
0
 40
0
 40
0
 40
0
 40
0
 40
1
 40
1
 40
1
 40
1
 10
26.617369
 20
-11.363135
 30
0.0
 10
26.617654
 20
-11.077133
 30
0.0
 10
26.465237
 20
-10.812734
 30
0.0
 10
26.217600
 20
-10.669651
 30
0.0
  0
SPLINE
  5
19f
100
AcDbEntity
  8
Layer_1
 62
1
100
AcDbSpline
 70
8
 71
3
 72
8
 73
4
 74
0
 40
0
 40
0
 40
0
 40
0
 40
1
 40
1
 40
1
 40
1
 10
26.217600
 20
-10.669651
 30
0.0
 10
25.969962
 20
-10.526568
 30
0.0
 10
25.664777
 20
-10.526568
 30
0.0
 10
25.417139
 20
-10.669651
 30
0.0
  0
SPLINE
  5
1a0
100
AcDbEntity
  8
Layer_1
 62
1
100
AcDbSpline
 70
8
 71
3
 72
8
 73
4
 74
0
 40
0
 40
0
 40
0
 40
0
 40
1
 40
1
 40
1
 40
1
 10
25.417139
 20
-10.669651
 30
0.0
 10
25.169502
 20
-10.812734
 30
0.0
 10
25.017085
 20
-11.077133
 30
0.0
 10
25.017370
 20
-11.363135
 30
0.0
  0
SPLINE
  5
1a1
100
AcDbEntity
  8
Layer_1
 62
1
100
AcDbSpline
 70
8
 71
3
 72
8
 73
4
 74
0
 40
0
 40
0
 40
0
 40
0
 40
1
 40
1
 40
1
 40
1
 10
25.017370
 20
-11.363135
 30
0.0
 10
25.017085
 20
-11.649137
 30
0.0
 10
25.169502
 20
-11.913536
 30
0.0
 10
25.417139
 20
-12.056620
 30
0.0
  0
SPLINE
  5
1a2
100
AcDbEntity
  8
Layer_1
 62
1
100
AcDbSpline
 70
8
 71
3
 72
8
 73
4
 74
0
 40
0
 40
0
 40
0
 40
0
 40
1
 40
1
 40
1
 40
1
 10
25.417139
 20
-12.056620
 30
0.0
 10
25.664777
 20
-12.199703
 30
0.0
 10
25.969962
 20
-12.199703
 30
0.0
 10
26.217600
 20
-12.056620
 30
0.0
  0
SPLINE
  5
1a3
100
AcDbEntity
  8
Layer_1
 62
1
100
AcDbSpline
 70
8
 71
3
 72
8
 73
4
 74
0
 40
0
 40
0
 40
0
 40
0
 40
1
 40
1
 40
1
 40
1
 10
26.217600
 20
-12.056620
 30
0.0
 10
26.465237
 20
-11.913536
 30
0.0
 10
26.617654
 20
-11.649137
 30
0.0
 10
26.617369
 20
-11.363135
 30
0.0
  0
LINE
  5
1a4
100
AcDbEntity
  8
Layer_1
 62
1
100
AcDbLine
 10
26.617369
 20
-11.363135
 30
0.0
 11
26.617369
 21
-11.363135
 31
0.0
  0
LINE
  5
1a5
100
AcDbEntity
  8
Layer_1
 62
1
100
AcDbLine
 10
26.617269
 20
0.024187
 30
0.0
 11
27.589663
 21
0.008842
 31
0.0
  0
LINE
  5
1a6
100
AcDbEntity
  8
Layer_1
 62
1
100
AcDbLine
 10
29.065897
 20
-1.491028
 30
0.0
 11
29.065897
 21
-9.835246
 31
0.0
  0
SPLINE
  5
1a7
100
AcDbEntity
  8
Layer_1
 62
1
100
AcDbSpline
 70
8
 71
3
 72
8
 73
4
 74
0
 40
0
 40
0
 40
0
 40
0
 40
1
 40
1
 40
1
 40
1
 10
29.065897
 20
-1.491028
 30
0.0
 10
29.065900
 20
-0.671865
 30
0.0
 10
28.408723
 20
-0.004190
 30
0.0
 10
27.589663
 20
0.008789
 30
0.0
  0
LINE
  5
1a8
100
AcDbEntity
  8
Layer_1
 62
1
100
AcDbLine
 10
27.589663
 20
-11.335063
 30
0.0
 11
26.617269
 21
-11.350409
 31
0.0
  0
SPLINE
  5
1a9
100
AcDbEntity
  8
Layer_1
 62
1
100
AcDbSpline
 70
8
 71
3
 72
8
 73
4
 74
0
 40
0
 40
0
 40
0
 40
0
 40
1
 40
1
 40
1
 40
1
 10
27.589663
 20
-11.335063
 30
0.0
 10
28.408723
 20
-11.322085
 30
0.0
 10
29.065900
 20
-10.654409
 30
0.0
 10
29.065897
 20
-9.835246
 30
0.0
  0
SPLINE
  5
1aa
100
AcDbEntity
  8
Layer_1
 62
1
100
AcDbSpline
 70
8
 71
3
 72
8
 73
4
 74
0
 40
0
 40
0
 40
0
 40
0
 40
1
 40
1
 40
1
 40
1
 10
34.174351
 20
0.036861
 30
0.0
 10
34.174680
 20
0.322892
 30
0.0
 10
34.022273
 20
0.587337
 30
0.0
 10
33.774617
 20
0.730448
 30
0.0
  0
SPLINE
  5
1ab
100
AcDbEntity
  8
Layer_1
 62
1
100
AcDbSpline
 70
8
 71
3
 72
8
 73
4
 74
0
 40
0
 40
0
 40
0
 40
0
 40
1
 40
1
 40
1
 40
1
 10
33.774617
 20
0.730448
 30
0.0
 10
33.526961
 20
0.873559
 30
0.0
 10
33.221741
 20
0.873559
 30
0.0
 10
32.974086
 20
0.730448
 30
0.0
  0
SPLINE
  5
1ac
100
AcDbEntity
  8
Layer_1
 62
1
100
AcDbSpline
 70
8
 71
3
 72
8
 73
4
 74
0
 40
0
 40
0
 40
0
 40
0
 40
1
 40
1
 40
1
 40
1
 10
32.974086
 20
0.730448
 30
0.0
 10
32.726430
 20
0.587337
 30
0.0
 10
32.574023
 20
0.322892
 30
0.0
 10
32.574352
 20
0.036861
 30
0.0
  0
SPLINE
  5
1ad
100
AcDbEntity
  8
Layer_1
 62
1
100
AcDbSpline
 70
8
 71
3
 72
8
 73
4
 74
0
 40
0
 40
0
 40
0
 40
0
 40
1
 40
1
 40
1
 40
1
 10
32.574352
 20
0.036861
 30
0.0
 10
32.574023
 20
-0.249171
 30
0.0
 10
32.726430
 20
-0.513615
 30
0.0
 10
32.974086
 20
-0.656726
 30
0.0
  0
SPLINE
  5
1ae
100
AcDbEntity
  8
Layer_1
 62
1
100
AcDbSpline
 70
8
 71
3
 72
8
 73
4
 74
0
 40
0
 40
0
 40
0
 40
0
 40
1
 40
1
 40
1
 40
1
 10
32.974086
 20
-0.656726
 30
0.0
 10
33.221741
 20
-0.799837
 30
0.0
 10
33.526961
 20
-0.799837
 30
0.0
 10
33.774617
 20
-0.656726
 30
0.0
  0
SPLINE
  5
1af
100
AcDbEntity
  8
Layer_1
 62
1
100
AcDbSpline
 70
8
 71
3
 72
8
 73
4
 74
0
 40
0
 40
0
 40
0
 40
0
 40
1
 40
1
 40
1
 40
1
 10
33.774617
 20
-0.656726
 30
0.0
 10
34.022273
 20
-0.513615
 30
0.0
 10
34.174680
 20
-0.249171
 30
0.0
 10
34.174351
 20
0.036861
 30
0.0
  0
LINE
  5
1b0
100
AcDbEntity
  8
Layer_1
 62
1
100
AcDbLine
 10
34.174351
 20
0.036861
 30
0.0
 11
34.174351
 21
0.036861
 31
0.0
  0
SPLINE
  5
1b1
100
AcDbEntity
  8
Layer_1
 62
1
100
AcDbSpline
 70
8
 71
3
 72
8
 73
4
 74
0
 40
0
 40
0
 40
0
 40
0
 40
1
 40
1
 40
1
 40
1
 10
34.174351
 20
-11.363135
 30
0.0
 10
34.174680
 20
-11.077104
 30
0.0
 10
34.022273
 20
-10.812659
 30
0.0
 10
33.774617
 20
-10.669548
 30
0.0
  0
SPLINE
  5
1b2
100
AcDbEntity
  8
Layer_1
 62
1
100
AcDbSpline
 70
8
 71
3
 72
8
 73
4
 74
0
 40
0
 40
0
 40
0
 40
0
 40
1
 40
1
 40
1
 40
1
 10
33.774617
 20
-10.669548
 30
0.0
 10
33.526961
 20
-10.526438
 30
0.0
 10
33.221741
 20
-10.526438
 30
0.0
 10
32.974086
 20
-10.669548
 30
0.0
  0
SPLINE
  5
1b3
100
AcDbEntity
  8
Layer_1
 62
1
100
AcDbSpline
 70
8
 71
3
 72
8
 73
4
 74
0
 40
0
 40
0
 40
0
 40
0
 40
1
 40
1
 40
1
 40
1
 10
32.974086
 20
-10.669548
 30
0.0
 10
32.726430
 20
-10.812659
 30
0.0
 10
32.574023
 20
-11.077104
 30
0.0
 10
32.574352
 20
-11.363135
 30
0.0
  0
SPLINE
  5
1b4
100
AcDbEntity
  8
Layer_1
 62
1
100
AcDbSpline
 70
8
 71
3
 72
8
 73
4
 74
0
 40
0
 40
0
 40
0
 40
0
 40
1
 40
1
 40
1
 40
1
 10
32.574352
 20
-11.363135
 30
0.0
 10
32.574023
 20
-11.649167
 30
0.0
 10
32.726430
 20
-11.913612
 30
0.0
 10
32.974086
 20
-12.056722
 30
0.0
  0
SPLINE
  5
1b5
100
AcDbEntity
  8
Layer_1
 62
1
100
AcDbSpline
 70
8
 71
3
 72
8
 73
4
 74
0
 40
0
 40
0
 40
0
 40
0
 40
1
 40
1
 40
1
 40
1
 10
32.974086
 20
-12.056722
 30
0.0
 10
33.221741
 20
-12.199833
 30
0.0
 10
33.526961
 20
-12.199833
 30
0.0
 10
33.774617
 20
-12.056722
 30
0.0
  0
SPLINE
  5
1b6
100
AcDbEntity
  8
Layer_1
 62
1
100
AcDbSpline
 70
8
 71
3
 72
8
 73
4
 74
0
 40
0
 40
0
 40
0
 40
0
 40
1
 40
1
 40
1
 40
1
 10
33.774617
 20
-12.056722
 30
0.0
 10
34.022273
 20
-11.913612
 30
0.0
 10
34.174680
 20
-11.649167
 30
0.0
 10
34.174351
 20
-11.363135
 30
0.0
  0
LINE
  5
1b7
100
AcDbEntity
  8
Layer_1
 62
1
100
AcDbLine
 10
34.174351
 20
-11.363135
 30
0.0
 11
34.174351
 21
-11.363135
 31
0.0
  0
LINE
  5
1b8
100
AcDbEntity
  8
Layer_1
 62
1
100
AcDbLine
 10
34.174250
 20
0.024187
 30
0.0
 11
35.146641
 21
0.008842
 31
0.0
  0
LINE
  5
1b9
100
AcDbEntity
  8
Layer_1
 62
1
100
AcDbLine
 10
36.622879
 20
-1.491028
 30
0.0
 11
36.622879
 21
-9.835246
 31
0.0
  0
SPLINE
  5
1ba
100
AcDbEntity
  8
Layer_1
 62
1
100
AcDbSpline
 70
8
 71
3
 72
8
 73
4
 74
0
 40
0
 40
0
 40
0
 40
0
 40
1
 40
1
 40
1
 40
1
 10
36.622879
 20
-1.491028
 30
0.0
 10
36.622882
 20
-0.671864
 30
0.0
 10
35.965703
 20
-0.004188
 30
0.0
 10
35.146641
 20
0.008789
 30
0.0
  0
LINE
  5
1bb
100
AcDbEntity
  8
Layer_1
 62
1
100
AcDbLine
 10
35.146641
 20
-11.335063
 30
0.0
 11
34.174250
 21
-11.350409
 31
0.0
  0
SPLINE
  5
1bc
100
AcDbEntity
  8
Layer_1
 62
1
100
AcDbSpline
 70
8
 71
3
 72
8
 73
4
 74
0
 40
0
 40
0
 40
0
 40
0
 40
1
 40
1
 40
1
 40
1
 10
35.146641
 20
-11.335063
 30
0.0
 10
35.965703
 20
-11.322086
 30
0.0
 10
36.622882
 20
-10.654410
 30
0.0
 10
36.622879
 20
-9.835246
 30
0.0
  0
SPLINE
  5
1bd
100
AcDbEntity
  8
Layer_1
 62
1
100
AcDbSpline
 70
8
 71
3
 72
8
 73
4
 74
0
 40
0
 40
0
 40
0
 40
0
 40
1
 40
1
 40
1
 40
1
 10
41.731332
 20
0.036861
 30
0.0
 10
41.731332
 20
0.322674
 30
0.0
 10
41.578853
 20
0.586776
 30
0.0
 10
41.331332
 20
0.729682
 30
0.0
  0
SPLINE
  5
1be
100
AcDbEntity
  8
Layer_1
 62
1
100
AcDbSpline
 70
8
 71
3
 72
8
 73
4
 74
0
 40
0
 40
0
 40
0
 40
0
 40
1
 40
1
 40
1
 40
1
 10
41.331332
 20
0.729682
 30
0.0
 10
41.083811
 20
0.872588
 30
0.0
 10
40.778852
 20
0.872588
 30
0.0
 10
40.531331
 20
0.729682
 30
0.0
  0
SPLINE
  5
1bf
100
AcDbEntity
  8
Layer_1
 62
1
100
AcDbSpline
 70
8
 71
3
 72
8
 73
4
 74
0
 40
0
 40
0
 40
0
 40
0
 40
1
 40
1
 40
1
 40
1
 10
40.531331
 20
0.729682
 30
0.0
 10
40.283810
 20
0.586776
 30
0.0
 10
40.131331
 20
0.322674
 30
0.0
 10
40.131331
 20
0.036861
 30
0.0
  0
SPLINE
  5
1c0
100
AcDbEntity
  8
Layer_1
 62
1
100
AcDbSpline
 70
8
 71
3
 72
8
 73
4
 74
0
 40
0
 40
0
 40
0
 40
0
 40
1
 40
1
 40
1
 40
1
 10
40.131331
 20
0.036861
 30
0.0
 10
40.131331
 20
-0.248952
 30
0.0
 10
40.283810
 20
-0.513054
 30
0.0
 10
40.531331
 20
-0.655960
 30
0.0
  0
SPLINE
  5
1c1
100
AcDbEntity
  8
Layer_1
 62
1
100
AcDbSpline
 70
8
 71
3
 72
8
 73
4
 74
0
 40
0
 40
0
 40
0
 40
0
 40
1
 40
1
 40
1
 40
1
 10
40.531331
 20
-0.655960
 30
0.0
 10
40.778852
 20
-0.798866
 30
0.0
 10
41.083811
 20
-0.798866
 30
0.0
 10
41.331332
 20
-0.655960
 30
0.0
  0
SPLINE
  5
1c2
100
AcDbEntity
  8
Layer_1
 62
1
100
AcDbSpline
 70
8
 71
3
 72
8
 73
4
 74
0
 40
0
 40
0
 40
0
 40
0
 40
1
 40
1
 40
1
 40
1
 10
41.331332
 20
-0.655960
 30
0.0
 10
41.578853
 20
-0.513054
 30
0.0
 10
41.731332
 20
-0.248952
 30
0.0
 10
41.731332
 20
0.036861
 30
0.0
  0
LINE
  5
1c3
100
AcDbEntity
  8
Layer_1
 62
1
100
AcDbLine
 10
41.731332
 20
0.036861
 30
0.0
 11
41.731332
 21
0.036861
 31
0.0
  0
SPLINE
  5
1c4
100
AcDbEntity
  8
Layer_1
 62
1
100
AcDbSpline
 70
8
 71
3
 72
8
 73
4
 74
0
 40
0
 40
0
 40
0
 40
0
 40
1
 40
1
 40
1
 40
1
 10
41.731332
 20
-11.363135
 30
0.0
 10
41.731332
 20
-11.077323
 30
0.0
 10
41.578853
 20
-10.813221
 30
0.0
 10
41.331332
 20
-10.670314
 30
0.0
  0
SPLINE
  5
1c5
100
AcDbEntity
  8
Layer_1
 62
1
100
AcDbSpline
 70
8
 71
3
 72
8
 73
4
 74
0
 40
0
 40
0
 40
0
 40
0
 40
1
 40
1
 40
1
 40
1
 10
41.331332
 20
-10.670314
 30
0.0
 10
41.083811
 20
-10.527408
 30
0.0
 10
40.778852
 20
-10.527408
 30
0.0
 10
40.531331
 20
-10.670314
 30
0.0
  0
SPLINE
  5
1c6
100
AcDbEntity
  8
Layer_1
 62
1
100
AcDbSpline
 70
8
 71
3
 72
8
 73
4
 74
0
 40
0
 40
0
 40
0
 40
0
 40
1
 40
1
 40
1
 40
1
 10
40.531331
 20
-10.670314
 30
0.0
 10
40.283810
 20
-10.813221
 30
0.0
 10
40.131331
 20
-11.077323
 30
0.0
 10
40.131331
 20
-11.363135
 30
0.0
  0
SPLINE
  5
1c7
100
AcDbEntity
  8
Layer_1
 62
1
100
AcDbSpline
 70
8
 71
3
 72
8
 73
4
 74
0
 40
0
 40
0
 40
0
 40
0
 40
1
 40
1
 40
1
 40
1
 10
40.131331
 20
-11.363135
 30
0.0
 10
40.131331
 20
-11.648948
 30
0.0
 10
40.283810
 20
-11.913050
 30
0.0
 10
40.531331
 20
-12.055956
 30
0.0
  0
SPLINE
  5
1c8
100
AcDbEntity
  8
Layer_1
 62
1
100
AcDbSpline
 70
8
 71
3
 72
8
 73
4
 74
0
 40
0
 40
0
 40
0
 40
0
 40
1
 40
1
 40
1
 40
1
 10
40.531331
 20
-12.055956
 30
0.0
 10
40.778852
 20
-12.198863
 30
0.0
 10
41.083811
 20
-12.198863
 30
0.0
 10
41.331332
 20
-12.055956
 30
0.0
  0
SPLINE
  5
1c9
100
AcDbEntity
  8
Layer_1
 62
1
100
AcDbSpline
 70
8
 71
3
 72
8
 73
4
 74
0
 40
0
 40
0
 40
0
 40
0
 40
1
 40
1
 40
1
 40
1
 10
41.331332
 20
-12.055956
 30
0.0
 10
41.578853
 20
-11.913050
 30
0.0
 10
41.731332
 20
-11.648948
 30
0.0
 10
41.731332
 20
-11.363135
 30
0.0
  0
LINE
  5
1ca
100
AcDbEntity
  8
Layer_1
 62
1
100
AcDbLine
 10
41.731332
 20
-11.363135
 30
0.0
 11
41.731332
 21
-11.363135
 31
0.0
  0
LINE
  5
1cb
100
AcDbEntity
  8
Layer_1
 62
1
100
AcDbLine
 10
41.731232
 20
0.024187
 30
0.0
 11
42.703623
 21
0.008842
 31
0.0
  0
LINE
  5
1cc
100
AcDbEntity
  8
Layer_1
 62
1
100
AcDbLine
 10
44.179860
 20
-1.491028
 30
0.0
 11
44.179860
 21
-9.835246
 31
0.0
  0
SPLINE
  5
1cd
100
AcDbEntity
  8
Layer_1
 62
1
100
AcDbSpline
 70
8
 71
3
 72
8
 73
4
 74
0
 40
0
 40
0
 40
0
 40
0
 40
1
 40
1
 40
1
 40
1
 10
44.179860
 20
-1.491028
 30
0.0
 10
44.179863
 20
-0.671864
 30
0.0
 10
43.522684
 20
-0.004188
 30
0.0
 10
42.703623
 20
0.008789
 30
0.0
  0
LINE
  5
1ce
100
AcDbEntity
  8
Layer_1
 62
1
100
AcDbLine
 10
42.703623
 20
-11.335063
 30
0.0
 11
41.731232
 21
-11.350409
 31
0.0
  0
SPLINE
  5
1cf
100
AcDbEntity
  8
Layer_1
 62
1
100
AcDbSpline
 70
8
 71
3
 72
8
 73
4
 74
0
 40
0
 40
0
 40
0
 40
0
 40
1
 40
1
 40
1
 40
1
 10
42.703623
 20
-11.335063
 30
0.0
 10
43.522684
 20
-11.322086
 30
0.0
 10
44.179863
 20
-10.654410
 30
0.0
 10
44.179860
 20
-9.835246
 30
0.0
  0
SPLINE
  5
1d0
100
AcDbEntity
  8
Layer_1
 62
1
100
AcDbSpline
 70
8
 71
3
 72
8
 73
4
 74
0
 40
0
 40
0
 40
0
 40
0
 40
1
 40
1
 40
1
 40
1
 10
49.288314
 20
0.036861
 30
0.0
 10
49.288314
 20
0.322674
 30
0.0
 10
49.135834
 20
0.586776
 30
0.0
 10
48.888313
 20
0.729682
 30
0.0
  0
SPLINE
  5
1d1
100
AcDbEntity
  8
Layer_1
 62
1
100
AcDbSpline
 70
8
 71
3
 72
8
 73
4
 74
0
 40
0
 40
0
 40
0
 40
0
 40
1
 40
1
 40
1
 40
1
 10
48.888313
 20
0.729682
 30
0.0
 10
48.640792
 20
0.872588
 30
0.0
 10
48.335834
 20
0.872588
 30
0.0
 10
48.088313
 20
0.729682
 30
0.0
  0
SPLINE
  5
1d2
100
AcDbEntity
  8
Layer_1
 62
1
100
AcDbSpline
 70
8
 71
3
 72
8
 73
4
 74
0
 40
0
 40
0
 40
0
 40
0
 40
1
 40
1
 40
1
 40
1
 10
48.088313
 20
0.729682
 30
0.0
 10
47.840791
 20
0.586776
 30
0.0
 10
47.688312
 20
0.322674
 30
0.0
 10
47.688312
 20
0.036861
 30
0.0
  0
SPLINE
  5
1d3
100
AcDbEntity
  8
Layer_1
 62
1
100
AcDbSpline
 70
8
 71
3
 72
8
 73
4
 74
0
 40
0
 40
0
 40
0
 40
0
 40
1
 40
1
 40
1
 40
1
 10
47.688312
 20
0.036861
 30
0.0
 10
47.688312
 20
-0.248952
 30
0.0
 10
47.840791
 20
-0.513054
 30
0.0
 10
48.088313
 20
-0.655960
 30
0.0
  0
SPLINE
  5
1d4
100
AcDbEntity
  8
Layer_1
 62
1
100
AcDbSpline
 70
8
 71
3
 72
8
 73
4
 74
0
 40
0
 40
0
 40
0
 40
0
 40
1
 40
1
 40
1
 40
1
 10
48.088313
 20
-0.655960
 30
0.0
 10
48.335834
 20
-0.798866
 30
0.0
 10
48.640792
 20
-0.798866
 30
0.0
 10
48.888313
 20
-0.655960
 30
0.0
  0
SPLINE
  5
1d5
100
AcDbEntity
  8
Layer_1
 62
1
100
AcDbSpline
 70
8
 71
3
 72
8
 73
4
 74
0
 40
0
 40
0
 40
0
 40
0
 40
1
 40
1
 40
1
 40
1
 10
48.888313
 20
-0.655960
 30
0.0
 10
49.135834
 20
-0.513054
 30
0.0
 10
49.288314
 20
-0.248952
 30
0.0
 10
49.288314
 20
0.036861
 30
0.0
  0
LINE
  5
1d6
100
AcDbEntity
  8
Layer_1
 62
1
100
AcDbLine
 10
49.288314
 20
0.036861
 30
0.0
 11
49.288314
 21
0.036861
 31
0.0
  0
SPLINE
  5
1d7
100
AcDbEntity
  8
Layer_1
 62
1
100
AcDbSpline
 70
8
 71
3
 72
8
 73
4
 74
0
 40
0
 40
0
 40
0
 40
0
 40
1
 40
1
 40
1
 40
1
 10
49.288314
 20
-11.363135
 30
0.0
 10
49.288314
 20
-11.077323
 30
0.0
 10
49.135834
 20
-10.813221
 30
0.0
 10
48.888313
 20
-10.670314
 30
0.0
  0
SPLINE
  5
1d8
100
AcDbEntity
  8
Layer_1
 62
1
100
AcDbSpline
 70
8
 71
3
 72
8
 73
4
 74
0
 40
0
 40
0
 40
0
 40
0
 40
1
 40
1
 40
1
 40
1
 10
48.888313
 20
-10.670314
 30
0.0
 10
48.640792
 20
-10.527408
 30
0.0
 10
48.335834
 20
-10.527408
 30
0.0
 10
48.088313
 20
-10.670314
 30
0.0
  0
SPLINE
  5
1d9
100
AcDbEntity
  8
Layer_1
 62
1
100
AcDbSpline
 70
8
 71
3
 72
8
 73
4
 74
0
 40
0
 40
0
 40
0
 40
0
 40
1
 40
1
 40
1
 40
1
 10
48.088313
 20
-10.670314
 30
0.0
 10
47.840791
 20
-10.813221
 30
0.0
 10
47.688312
 20
-11.077323
 30
0.0
 10
47.688312
 20
-11.363135
 30
0.0
  0
SPLINE
  5
1da
100
AcDbEntity
  8
Layer_1
 62
1
100
AcDbSpline
 70
8
 71
3
 72
8
 73
4
 74
0
 40
0
 40
0
 40
0
 40
0
 40
1
 40
1
 40
1
 40
1
 10
47.688312
 20
-11.363135
 30
0.0
 10
47.688312
 20
-11.648948
 30
0.0
 10
47.840791
 20
-11.913050
 30
0.0
 10
48.088313
 20
-12.055956
 30
0.0
  0
SPLINE
  5
1db
100
AcDbEntity
  8
Layer_1
 62
1
100
AcDbSpline
 70
8
 71
3
 72
8
 73
4
 74
0
 40
0
 40
0
 40
0
 40
0
 40
1
 40
1
 40
1
 40
1
 10
48.088313
 20
-12.055956
 30
0.0
 10
48.335834
 20
-12.198863
 30
0.0
 10
48.640792
 20
-12.198863
 30
0.0
 10
48.888313
 20
-12.055956
 30
0.0
  0
SPLINE
  5
1dc
100
AcDbEntity
  8
Layer_1
 62
1
100
AcDbSpline
 70
8
 71
3
 72
8
 73
4
 74
0
 40
0
 40
0
 40
0
 40
0
 40
1
 40
1
 40
1
 40
1
 10
48.888313
 20
-12.055956
 30
0.0
 10
49.135834
 20
-11.913050
 30
0.0
 10
49.288314
 20
-11.648948
 30
0.0
 10
49.288314
 20
-11.363135
 30
0.0
  0
LINE
  5
1dd
100
AcDbEntity
  8
Layer_1
 62
1
100
AcDbLine
 10
49.288314
 20
-11.363135
 30
0.0
 11
49.288314
 21
-11.363135
 31
0.0
  0
LINE
  5
1de
100
AcDbEntity
  8
Layer_1
 62
1
100
AcDbLine
 10
49.288213
 20
0.024187
 30
0.0
 11
50.260605
 21
0.008842
 31
0.0
  0
LINE
  5
1df
100
AcDbEntity
  8
Layer_1
 62
1
100
AcDbLine
 10
51.736842
 20
-1.491028
 30
0.0
 11
51.736842
 21
-9.835246
 31
0.0
  0
SPLINE
  5
1e0
100
AcDbEntity
  8
Layer_1
 62
1
100
AcDbSpline
 70
8
 71
3
 72
8
 73
4
 74
0
 40
0
 40
0
 40
0
 40
0
 40
1
 40
1
 40
1
 40
1
 10
51.736842
 20
-1.491028
 30
0.0
 10
51.736845
 20
-0.671864
 30
0.0
 10
51.079666
 20
-0.004188
 30
0.0
 10
50.260605
 20
0.008789
 30
0.0
  0
LINE
  5
1e1
100
AcDbEntity
  8
Layer_1
 62
1
100
AcDbLine
 10
50.260605
 20
-11.335063
 30
0.0
 11
49.288213
 21
-11.350409
 31
0.0
  0
SPLINE
  5
1e2
100
AcDbEntity
  8
Layer_1
 62
1
100
AcDbSpline
 70
8
 71
3
 72
8
 73
4
 74
0
 40
0
 40
0
 40
0
 40
0
 40
1
 40
1
 40
1
 40
1
 10
50.260605
 20
-11.335063
 30
0.0
 10
51.079666
 20
-11.322086
 30
0.0
 10
51.736845
 20
-10.654410
 30
0.0
 10
51.736842
 20
-9.835246
 30
0.0
  0
SPLINE
  5
1e3
100
AcDbEntity
  8
Layer_1
 62
1
100
AcDbSpline
 70
8
 71
3
 72
8
 73
4
 74
0
 40
0
 40
0
 40
0
 40
0
 40
1
 40
1
 40
1
 40
1
 10
56.845293
 20
0.036861
 30
0.0
 10
56.845622
 20
0.322892
 30
0.0
 10
56.693215
 20
0.587337
 30
0.0
 10
56.445559
 20
0.730448
 30
0.0
  0
SPLINE
  5
1e4
100
AcDbEntity
  8
Layer_1
 62
1
100
AcDbSpline
 70
8
 71
3
 72
8
 73
4
 74
0
 40
0
 40
0
 40
0
 40
0
 40
1
 40
1
 40
1
 40
1
 10
56.445559
 20
0.730448
 30
0.0
 10
56.197903
 20
0.873559
 30
0.0
 10
55.892683
 20
0.873559
 30
0.0
 10
55.645028
 20
0.730448
 30
0.0
  0
SPLINE
  5
1e5
100
AcDbEntity
  8
Layer_1
 62
1
100
AcDbSpline
 70
8
 71
3
 72
8
 73
4
 74
0
 40
0
 40
0
 40
0
 40
0
 40
1
 40
1
 40
1
 40
1
 10
55.645028
 20
0.730448
 30
0.0
 10
55.397372
 20
0.587337
 30
0.0
 10
55.244965
 20
0.322892
 30
0.0
 10
55.245294
 20
0.036861
 30
0.0
  0
SPLINE
  5
1e6
100
AcDbEntity
  8
Layer_1
 62
1
100
AcDbSpline
 70
8
 71
3
 72
8
 73
4
 74
0
 40
0
 40
0
 40
0
 40
0
 40
1
 40
1
 40
1
 40
1
 10
55.245294
 20
0.036861
 30
0.0
 10
55.244965
 20
-0.249171
 30
0.0
 10
55.397372
 20
-0.513615
 30
0.0
 10
55.645028
 20
-0.656726
 30
0.0
  0
SPLINE
  5
1e7
100
AcDbEntity
  8
Layer_1
 62
1
100
AcDbSpline
 70
8
 71
3
 72
8
 73
4
 74
0
 40
0
 40
0
 40
0
 40
0
 40
1
 40
1
 40
1
 40
1
 10
55.645028
 20
-0.656726
 30
0.0
 10
55.892683
 20
-0.799837
 30
0.0
 10
56.197903
 20
-0.799837
 30
0.0
 10
56.445559
 20
-0.656726
 30
0.0
  0
SPLINE
  5
1e8
100
AcDbEntity
  8
Layer_1
 62
1
100
AcDbSpline
 70
8
 71
3
 72
8
 73
4
 74
0
 40
0
 40
0
 40
0
 40
0
 40
1
 40
1
 40
1
 40
1
 10
56.445559
 20
-0.656726
 30
0.0
 10
56.693215
 20
-0.513615
 30
0.0
 10
56.845622
 20
-0.249171
 30
0.0
 10
56.845293
 20
0.036861
 30
0.0
  0
LINE
  5
1e9
100
AcDbEntity
  8
Layer_1
 62
1
100
AcDbLine
 10
56.845293
 20
0.036861
 30
0.0
 11
56.845293
 21
0.036861
 31
0.0
  0
SPLINE
  5
1ea
100
AcDbEntity
  8
Layer_1
 62
1
100
AcDbSpline
 70
8
 71
3
 72
8
 73
4
 74
0
 40
0
 40
0
 40
0
 40
0
 40
1
 40
1
 40
1
 40
1
 10
56.845293
 20
-11.363135
 30
0.0
 10
56.845622
 20
-11.077104
 30
0.0
 10
56.693215
 20
-10.812659
 30
0.0
 10
56.445559
 20
-10.669548
 30
0.0
  0
SPLINE
  5
1eb
100
AcDbEntity
  8
Layer_1
 62
1
100
AcDbSpline
 70
8
 71
3
 72
8
 73
4
 74
0
 40
0
 40
0
 40
0
 40
0
 40
1
 40
1
 40
1
 40
1
 10
56.445559
 20
-10.669548
 30
0.0
 10
56.197903
 20
-10.526438
 30
0.0
 10
55.892683
 20
-10.526438
 30
0.0
 10
55.645028
 20
-10.669548
 30
0.0
  0
SPLINE
  5
1ec
100
AcDbEntity
  8
Layer_1
 62
1
100
AcDbSpline
 70
8
 71
3
 72
8
 73
4
 74
0
 40
0
 40
0
 40
0
 40
0
 40
1
 40
1
 40
1
 40
1
 10
55.645028
 20
-10.669548
 30
0.0
 10
55.397372
 20
-10.812659
 30
0.0
 10
55.244965
 20
-11.077104
 30
0.0
 10
55.245294
 20
-11.363135
 30
0.0
  0
SPLINE
  5
1ed
100
AcDbEntity
  8
Layer_1
 62
1
100
AcDbSpline
 70
8
 71
3
 72
8
 73
4
 74
0
 40
0
 40
0
 40
0
 40
0
 40
1
 40
1
 40
1
 40
1
 10
55.245294
 20
-11.363135
 30
0.0
 10
55.244965
 20
-11.649167
 30
0.0
 10
55.397372
 20
-11.913612
 30
0.0
 10
55.645028
 20
-12.056722
 30
0.0
  0
SPLINE
  5
1ee
100
AcDbEntity
  8
Layer_1
 62
1
100
AcDbSpline
 70
8
 71
3
 72
8
 73
4
 74
0
 40
0
 40
0
 40
0
 40
0
 40
1
 40
1
 40
1
 40
1
 10
55.645028
 20
-12.056722
 30
0.0
 10
55.892683
 20
-12.199833
 30
0.0
 10
56.197903
 20
-12.199833
 30
0.0
 10
56.445559
 20
-12.056722
 30
0.0
  0
SPLINE
  5
1ef
100
AcDbEntity
  8
Layer_1
 62
1
100
AcDbSpline
 70
8
 71
3
 72
8
 73
4
 74
0
 40
0
 40
0
 40
0
 40
0
 40
1
 40
1
 40
1
 40
1
 10
56.445559
 20
-12.056722
 30
0.0
 10
56.693215
 20
-11.913612
 30
0.0
 10
56.845622
 20
-11.649167
 30
0.0
 10
56.845293
 20
-11.363135
 30
0.0
  0
LINE
  5
1f0
100
AcDbEntity
  8
Layer_1
 62
1
100
AcDbLine
 10
56.845293
 20
-11.363135
 30
0.0
 11
56.845293
 21
-11.363135
 31
0.0
  0
LINE
  5
1f1
100
AcDbEntity
  8
Layer_1
 62
1
100
AcDbLine
 10
56.845192
 20
0.024187
 30
0.0
 11
57.817586
 21
0.008842
 31
0.0
  0
LINE
  5
1f2
100
AcDbEntity
  8
Layer_1
 62
1
100
AcDbLine
 10
59.293821
 20
-1.491028
 30
0.0
 11
59.293821
 21
-9.835246
 31
0.0
  0
SPLINE
  5
1f3
100
AcDbEntity
  8
Layer_1
 62
1
100
AcDbSpline
 70
8
 71
3
 72
8
 73
4
 74
0
 40
0
 40
0
 40
0
 40
0
 40
1
 40
1
 40
1
 40
1
 10
59.293821
 20
-1.491028
 30
0.0
 10
59.293824
 20
-0.671865
 30
0.0
 10
58.636646
 20
-0.004190
 30
0.0
 10
57.817586
 20
0.008789
 30
0.0
  0
LINE
  5
1f4
100
AcDbEntity
  8
Layer_1
 62
1
100
AcDbLine
 10
57.817586
 20
-11.335063
 30
0.0
 11
56.845192
 21
-11.350409
 31
0.0
  0
SPLINE
  5
1f5
100
AcDbEntity
  8
Layer_1
 62
1
100
AcDbSpline
 70
8
 71
3
 72
8
 73
4
 74
0
 40
0
 40
0
 40
0
 40
0
 40
1
 40
1
 40
1
 40
1
 10
57.817586
 20
-11.335063
 30
0.0
 10
58.636646
 20
-11.322085
 30
0.0
 10
59.293824
 20
-10.654409
 30
0.0
 10
59.293821
 20
-9.835246
 30
0.0
  0
SPLINE
  5
1f6
100
AcDbEntity
  8
Layer_1
 62
1
100
AcDbSpline
 70
8
 71
3
 72
8
 73
4
 74
0
 40
0
 40
0
 40
0
 40
0
 40
1
 40
1
 40
1
 40
1
 10
64.402274
 20
0.036861
 30
0.0
 10
64.402603
 20
0.322892
 30
0.0
 10
64.250196
 20
0.587337
 30
0.0
 10
64.002540
 20
0.730448
 30
0.0
  0
SPLINE
  5
1f7
100
AcDbEntity
  8
Layer_1
 62
1
100
AcDbSpline
 70
8
 71
3
 72
8
 73
4
 74
0
 40
0
 40
0
 40
0
 40
0
 40
1
 40
1
 40
1
 40
1
 10
64.002540
 20
0.730448
 30
0.0
 10
63.754884
 20
0.873559
 30
0.0
 10
63.449665
 20
0.873559
 30
0.0
 10
63.202009
 20
0.730448
 30
0.0
  0
SPLINE
  5
1f8
100
AcDbEntity
  8
Layer_1
 62
1
100
AcDbSpline
 70
8
 71
3
 72
8
 73
4
 74
0
 40
0
 40
0
 40
0
 40
0
 40
1
 40
1
 40
1
 40
1
 10
63.202009
 20
0.730448
 30
0.0
 10
62.954353
 20
0.587337
 30
0.0
 10
62.801946
 20
0.322892
 30
0.0
 10
62.802275
 20
0.036861
 30
0.0
  0
SPLINE
  5
1f9
100
AcDbEntity
  8
Layer_1
 62
1
100
AcDbSpline
 70
8
 71
3
 72
8
 73
4
 74
0
 40
0
 40
0
 40
0
 40
0
 40
1
 40
1
 40
1
 40
1
 10
62.802275
 20
0.036861
 30
0.0
 10
62.801946
 20
-0.249171
 30
0.0
 10
62.954353
 20
-0.513615
 30
0.0
 10
63.202009
 20
-0.656726
 30
0.0
  0
SPLINE
  5
1fa
100
AcDbEntity
  8
Layer_1
 62
1
100
AcDbSpline
 70
8
 71
3
 72
8
 73
4
 74
0
 40
0
 40
0
 40
0
 40
0
 40
1
 40
1
 40
1
 40
1
 10
63.202009
 20
-0.656726
 30
0.0
 10
63.449665
 20
-0.799837
 30
0.0
 10
63.754884
 20
-0.799837
 30
0.0
 10
64.002540
 20
-0.656726
 30
0.0
  0
SPLINE
  5
1fb
100
AcDbEntity
  8
Layer_1
 62
1
100
AcDbSpline
 70
8
 71
3
 72
8
 73
4
 74
0
 40
0
 40
0
 40
0
 40
0
 40
1
 40
1
 40
1
 40
1
 10
64.002540
 20
-0.656726
 30
0.0
 10
64.250196
 20
-0.513615
 30
0.0
 10
64.402603
 20
-0.249171
 30
0.0
 10
64.402274
 20
0.036861
 30
0.0
  0
LINE
  5
1fc
100
AcDbEntity
  8
Layer_1
 62
1
100
AcDbLine
 10
64.402274
 20
0.036861
 30
0.0
 11
64.402274
 21
0.036861
 31
0.0
  0
SPLINE
  5
1fd
100
AcDbEntity
  8
Layer_1
 62
1
100
AcDbSpline
 70
8
 71
3
 72
8
 73
4
 74
0
 40
0
 40
0
 40
0
 40
0
 40
1
 40
1
 40
1
 40
1
 10
64.402274
 20
-11.363135
 30
0.0
 10
64.402603
 20
-11.077104
 30
0.0
 10
64.250196
 20
-10.812659
 30
0.0
 10
64.002540
 20
-10.669548
 30
0.0
  0
SPLINE
  5
1fe
100
AcDbEntity
  8
Layer_1
 62
1
100
AcDbSpline
 70
8
 71
3
 72
8
 73
4
 74
0
 40
0
 40
0
 40
0
 40
0
 40
1
 40
1
 40
1
 40
1
 10
64.002540
 20
-10.669548
 30
0.0
 10
63.754884
 20
-10.526438
 30
0.0
 10
63.449665
 20
-10.526438
 30
0.0
 10
63.202009
 20
-10.669548
 30
0.0
  0
SPLINE
  5
1ff
100
AcDbEntity
  8
Layer_1
 62
1
100
AcDbSpline
 70
8
 71
3
 72
8
 73
4
 74
0
 40
0
 40
0
 40
0
 40
0
 40
1
 40
1
 40
1
 40
1
 10
63.202009
 20
-10.669548
 30
0.0
 10
62.954353
 20
-10.812659
 30
0.0
 10
62.801946
 20
-11.077104
 30
0.0
 10
62.802275
 20
-11.363135
 30
0.0
  0
SPLINE
  5
200
100
AcDbEntity
  8
Layer_1
 62
1
100
AcDbSpline
 70
8
 71
3
 72
8
 73
4
 74
0
 40
0
 40
0
 40
0
 40
0
 40
1
 40
1
 40
1
 40
1
 10
62.802275
 20
-11.363135
 30
0.0
 10
62.801946
 20
-11.649167
 30
0.0
 10
62.954353
 20
-11.913612
 30
0.0
 10
63.202009
 20
-12.056722
 30
0.0
  0
SPLINE
  5
201
100
AcDbEntity
  8
Layer_1
 62
1
100
AcDbSpline
 70
8
 71
3
 72
8
 73
4
 74
0
 40
0
 40
0
 40
0
 40
0
 40
1
 40
1
 40
1
 40
1
 10
63.202009
 20
-12.056722
 30
0.0
 10
63.449665
 20
-12.199833
 30
0.0
 10
63.754884
 20
-12.199833
 30
0.0
 10
64.002540
 20
-12.056722
 30
0.0
  0
SPLINE
  5
202
100
AcDbEntity
  8
Layer_1
 62
1
100
AcDbSpline
 70
8
 71
3
 72
8
 73
4
 74
0
 40
0
 40
0
 40
0
 40
0
 40
1
 40
1
 40
1
 40
1
 10
64.002540
 20
-12.056722
 30
0.0
 10
64.250196
 20
-11.913612
 30
0.0
 10
64.402603
 20
-11.649167
 30
0.0
 10
64.402274
 20
-11.363135
 30
0.0
  0
LINE
  5
203
100
AcDbEntity
  8
Layer_1
 62
1
100
AcDbLine
 10
64.402274
 20
-11.363135
 30
0.0
 11
64.402274
 21
-11.363135
 31
0.0
  0
LINE
  5
204
100
AcDbEntity
  8
Layer_1
 62
1
100
AcDbLine
 10
64.402174
 20
0.024187
 30
0.0
 11
65.374568
 21
0.008842
 31
0.0
  0
LINE
  5
205
100
AcDbEntity
  8
Layer_1
 62
1
100
AcDbLine
 10
66.850802
 20
-1.491028
 30
0.0
 11
66.850802
 21
-9.835246
 31
0.0
  0
SPLINE
  5
206
100
AcDbEntity
  8
Layer_1
 62
1
100
AcDbSpline
 70
8
 71
3
 72
8
 73
4
 74
0
 40
0
 40
0
 40
0
 40
0
 40
1
 40
1
 40
1
 40
1
 10
66.850802
 20
-1.491028
 30
0.0
 10
66.850805
 20
-0.671865
 30
0.0
 10
66.193628
 20
-0.004190
 30
0.0
 10
65.374568
 20
0.008789
 30
0.0
  0
LINE
  5
207
100
AcDbEntity
  8
Layer_1
 62
1
100
AcDbLine
 10
65.374568
 20
-11.335063
 30
0.0
 11
64.402174
 21
-11.350409
 31
0.0
  0
SPLINE
  5
208
100
AcDbEntity
  8
Layer_1
 62
1
100
AcDbSpline
 70
8
 71
3
 72
8
 73
4
 74
0
 40
0
 40
0
 40
0
 40
0
 40
1
 40
1
 40
1
 40
1
 10
65.374568
 20
-11.335063
 30
0.0
 10
66.193628
 20
-11.322085
 30
0.0
 10
66.850805
 20
-10.654409
 30
0.0
 10
66.850802
 20
-9.835246
 30
0.0
  0
SPLINE
  5
209
100
AcDbEntity
  8
Layer_1
 62
1
100
AcDbSpline
 70
8
 71
3
 72
8
 73
4
 74
0
 40
0
 40
0
 40
0
 40
0
 40
1
 40
1
 40
1
 40
1
 10
71.959256
 20
0.036861
 30
0.0
 10
71.959585
 20
0.322892
 30
0.0
 10
71.807178
 20
0.587337
 30
0.0
 10
71.559522
 20
0.730448
 30
0.0
  0
SPLINE
  5
20a
100
AcDbEntity
  8
Layer_1
 62
1
100
AcDbSpline
 70
8
 71
3
 72
8
 73
4
 74
0
 40
0
 40
0
 40
0
 40
0
 40
1
 40
1
 40
1
 40
1
 10
71.559522
 20
0.730448
 30
0.0
 10
71.311866
 20
0.873559
 30
0.0
 10
71.006646
 20
0.873559
 30
0.0
 10
70.758991
 20
0.730448
 30
0.0
  0
SPLINE
  5
20b
100
AcDbEntity
  8
Layer_1
 62
1
100
AcDbSpline
 70
8
 71
3
 72
8
 73
4
 74
0
 40
0
 40
0
 40
0
 40
0
 40
1
 40
1
 40
1
 40
1
 10
70.758991
 20
0.730448
 30
0.0
 10
70.511335
 20
0.587337
 30
0.0
 10
70.358928
 20
0.322892
 30
0.0
 10
70.359257
 20
0.036861
 30
0.0
  0
SPLINE
  5
20c
100
AcDbEntity
  8
Layer_1
 62
1
100
AcDbSpline
 70
8
 71
3
 72
8
 73
4
 74
0
 40
0
 40
0
 40
0
 40
0
 40
1
 40
1
 40
1
 40
1
 10
70.359257
 20
0.036861
 30
0.0
 10
70.358928
 20
-0.249171
 30
0.0
 10
70.511335
 20
-0.513615
 30
0.0
 10
70.758991
 20
-0.656726
 30
0.0
  0
SPLINE
  5
20d
100
AcDbEntity
  8
Layer_1
 62
1
100
AcDbSpline
 70
8
 71
3
 72
8
 73
4
 74
0
 40
0
 40
0
 40
0
 40
0
 40
1
 40
1
 40
1
 40
1
 10
70.758991
 20
-0.656726
 30
0.0
 10
71.006646
 20
-0.799837
 30
0.0
 10
71.311866
 20
-0.799837
 30
0.0
 10
71.559522
 20
-0.656726
 30
0.0
  0
SPLINE
  5
20e
100
AcDbEntity
  8
Layer_1
 62
1
100
AcDbSpline
 70
8
 71
3
 72
8
 73
4
 74
0
 40
0
 40
0
 40
0
 40
0
 40
1
 40
1
 40
1
 40
1
 10
71.559522
 20
-0.656726
 30
0.0
 10
71.807178
 20
-0.513615
 30
0.0
 10
71.959585
 20
-0.249171
 30
0.0
 10
71.959256
 20
0.036861
 30
0.0
  0
LINE
  5
20f
100
AcDbEntity
  8
Layer_1
 62
1
100
AcDbLine
 10
71.959256
 20
0.036861
 30
0.0
 11
71.959256
 21
0.036861
 31
0.0
  0
SPLINE
  5
210
100
AcDbEntity
  8
Layer_1
 62
1
100
AcDbSpline
 70
8
 71
3
 72
8
 73
4
 74
0
 40
0
 40
0
 40
0
 40
0
 40
1
 40
1
 40
1
 40
1
 10
71.959256
 20
-11.363135
 30
0.0
 10
71.959585
 20
-11.077104
 30
0.0
 10
71.807178
 20
-10.812659
 30
0.0
 10
71.559522
 20
-10.669548
 30
0.0
  0
SPLINE
  5
211
100
AcDbEntity
  8
Layer_1
 62
1
100
AcDbSpline
 70
8
 71
3
 72
8
 73
4
 74
0
 40
0
 40
0
 40
0
 40
0
 40
1
 40
1
 40
1
 40
1
 10
71.559522
 20
-10.669548
 30
0.0
 10
71.311866
 20
-10.526438
 30
0.0
 10
71.006646
 20
-10.526438
 30
0.0
 10
70.758991
 20
-10.669548
 30
0.0
  0
SPLINE
  5
212
100
AcDbEntity
  8
Layer_1
 62
1
100
AcDbSpline
 70
8
 71
3
 72
8
 73
4
 74
0
 40
0
 40
0
 40
0
 40
0
 40
1
 40
1
 40
1
 40
1
 10
70.758991
 20
-10.669548
 30
0.0
 10
70.511335
 20
-10.812659
 30
0.0
 10
70.358928
 20
-11.077104
 30
0.0
 10
70.359257
 20
-11.363135
 30
0.0
  0
SPLINE
  5
213
100
AcDbEntity
  8
Layer_1
 62
1
100
AcDbSpline
 70
8
 71
3
 72
8
 73
4
 74
0
 40
0
 40
0
 40
0
 40
0
 40
1
 40
1
 40
1
 40
1
 10
70.359257
 20
-11.363135
 30
0.0
 10
70.358928
 20
-11.649167
 30
0.0
 10
70.511335
 20
-11.913612
 30
0.0
 10
70.758991
 20
-12.056722
 30
0.0
  0
SPLINE
  5
214
100
AcDbEntity
  8
Layer_1
 62
1
100
AcDbSpline
 70
8
 71
3
 72
8
 73
4
 74
0
 40
0
 40
0
 40
0
 40
0
 40
1
 40
1
 40
1
 40
1
 10
70.758991
 20
-12.056722
 30
0.0
 10
71.006646
 20
-12.199833
 30
0.0
 10
71.311866
 20
-12.199833
 30
0.0
 10
71.559522
 20
-12.056722
 30
0.0
  0
SPLINE
  5
215
100
AcDbEntity
  8
Layer_1
 62
1
100
AcDbSpline
 70
8
 71
3
 72
8
 73
4
 74
0
 40
0
 40
0
 40
0
 40
0
 40
1
 40
1
 40
1
 40
1
 10
71.559522
 20
-12.056722
 30
0.0
 10
71.807178
 20
-11.913612
 30
0.0
 10
71.959585
 20
-11.649167
 30
0.0
 10
71.959256
 20
-11.363135
 30
0.0
  0
LINE
  5
216
100
AcDbEntity
  8
Layer_1
 62
1
100
AcDbLine
 10
71.959256
 20
-11.363135
 30
0.0
 11
71.959256
 21
-11.363135
 31
0.0
  0
LINE
  5
217
100
AcDbEntity
  8
Layer_1
 62
1
100
AcDbLine
 10
71.959155
 20
0.024187
 30
0.0
 11
72.931549
 21
0.008842
 31
0.0
  0
LINE
  5
218
100
AcDbEntity
  8
Layer_1
 62
1
100
AcDbLine
 10
74.407784
 20
-1.491028
 30
0.0
 11
74.407784
 21
-9.835246
 31
0.0
  0
SPLINE
  5
219
100
AcDbEntity
  8
Layer_1
 62
1
100
AcDbSpline
 70
8
 71
3
 72
8
 73
4
 74
0
 40
0
 40
0
 40
0
 40
0
 40
1
 40
1
 40
1
 40
1
 10
74.407784
 20
-1.491028
 30
0.0
 10
74.407787
 20
-0.671865
 30
0.0
 10
73.750609
 20
-0.004190
 30
0.0
 10
72.931549
 20
0.008789
 30
0.0
  0
LINE
  5
21a
100
AcDbEntity
  8
Layer_1
 62
1
100
AcDbLine
 10
72.931549
 20
-11.335063
 30
0.0
 11
71.959155
 21
-11.350409
 31
0.0
  0
SPLINE
  5
21b
100
AcDbEntity
  8
Layer_1
 62
1
100
AcDbSpline
 70
8
 71
3
 72
8
 73
4
 74
0
 40
0
 40
0
 40
0
 40
0
 40
1
 40
1
 40
1
 40
1
 10
72.931549
 20
-11.335063
 30
0.0
 10
73.750609
 20
-11.322085
 30
0.0
 10
74.407787
 20
-10.654409
 30
0.0
 10
74.407784
 20
-9.835246
 30
0.0
  0
SPLINE
  5
21c
100
AcDbEntity
  8
Layer_1
 62
1
100
AcDbSpline
 70
8
 71
3
 72
8
 73
4
 74
0
 40
0
 40
0
 40
0
 40
0
 40
1
 40
1
 40
1
 40
1
 10
79.516237
 20
0.036861
 30
0.0
 10
79.516237
 20
0.322674
 30
0.0
 10
79.363758
 20
0.586776
 30
0.0
 10
79.116237
 20
0.729682
 30
0.0
  0
SPLINE
  5
21d
100
AcDbEntity
  8
Layer_1
 62
1
100
AcDbSpline
 70
8
 71
3
 72
8
 73
4
 74
0
 40
0
 40
0
 40
0
 40
0
 40
1
 40
1
 40
1
 40
1
 10
79.116237
 20
0.729682
 30
0.0
 10
78.868716
 20
0.872588
 30
0.0
 10
78.563757
 20
0.872588
 30
0.0
 10
78.316236
 20
0.729682
 30
0.0
  0
SPLINE
  5
21e
100
AcDbEntity
  8
Layer_1
 62
1
100
AcDbSpline
 70
8
 71
3
 72
8
 73
4
 74
0
 40
0
 40
0
 40
0
 40
0
 40
1
 40
1
 40
1
 40
1
 10
78.316236
 20
0.729682
 30
0.0
 10
78.068715
 20
0.586776
 30
0.0
 10
77.916236
 20
0.322674
 30
0.0
 10
77.916236
 20
0.036861
 30
0.0
  0
SPLINE
  5
21f
100
AcDbEntity
  8
Layer_1
 62
1
100
AcDbSpline
 70
8
 71
3
 72
8
 73
4
 74
0
 40
0
 40
0
 40
0
 40
0
 40
1
 40
1
 40
1
 40
1
 10
77.916236
 20
0.036861
 30
0.0
 10
77.916236
 20
-0.248952
 30
0.0
 10
78.068715
 20
-0.513054
 30
0.0
 10
78.316236
 20
-0.655960
 30
0.0
  0
SPLINE
  5
220
100
AcDbEntity
  8
Layer_1
 62
1
100
AcDbSpline
 70
8
 71
3
 72
8
 73
4
 74
0
 40
0
 40
0
 40
0
 40
0
 40
1
 40
1
 40
1
 40
1
 10
78.316236
 20
-0.655960
 30
0.0
 10
78.563757
 20
-0.798866
 30
0.0
 10
78.868716
 20
-0.798866
 30
0.0
 10
79.116237
 20
-0.655960
 30
0.0
  0
SPLINE
  5
221
100
AcDbEntity
  8
Layer_1
 62
1
100
AcDbSpline
 70
8
 71
3
 72
8
 73
4
 74
0
 40
0
 40
0
 40
0
 40
0
 40
1
 40
1
 40
1
 40
1
 10
79.116237
 20
-0.655960
 30
0.0
 10
79.363758
 20
-0.513054
 30
0.0
 10
79.516237
 20
-0.248952
 30
0.0
 10
79.516237
 20
0.036861
 30
0.0
  0
LINE
  5
222
100
AcDbEntity
  8
Layer_1
 62
1
100
AcDbLine
 10
79.516237
 20
0.036861
 30
0.0
 11
79.516237
 21
0.036861
 31
0.0
  0
SPLINE
  5
223
100
AcDbEntity
  8
Layer_1
 62
1
100
AcDbSpline
 70
8
 71
3
 72
8
 73
4
 74
0
 40
0
 40
0
 40
0
 40
0
 40
1
 40
1
 40
1
 40
1
 10
79.516237
 20
-11.363135
 30
0.0
 10
79.516237
 20
-11.077323
 30
0.0
 10
79.363758
 20
-10.813221
 30
0.0
 10
79.116237
 20
-10.670314
 30
0.0
  0
SPLINE
  5
224
100
AcDbEntity
  8
Layer_1
 62
1
100
AcDbSpline
 70
8
 71
3
 72
8
 73
4
 74
0
 40
0
 40
0
 40
0
 40
0
 40
1
 40
1
 40
1
 40
1
 10
79.116237
 20
-10.670314
 30
0.0
 10
78.868716
 20
-10.527408
 30
0.0
 10
78.563757
 20
-10.527408
 30
0.0
 10
78.316236
 20
-10.670314
 30
0.0
  0
SPLINE
  5
225
100
AcDbEntity
  8
Layer_1
 62
1
100
AcDbSpline
 70
8
 71
3
 72
8
 73
4
 74
0
 40
0
 40
0
 40
0
 40
0
 40
1
 40
1
 40
1
 40
1
 10
78.316236
 20
-10.670314
 30
0.0
 10
78.068715
 20
-10.813221
 30
0.0
 10
77.916236
 20
-11.077323
 30
0.0
 10
77.916236
 20
-11.363135
 30
0.0
  0
SPLINE
  5
226
100
AcDbEntity
  8
Layer_1
 62
1
100
AcDbSpline
 70
8
 71
3
 72
8
 73
4
 74
0
 40
0
 40
0
 40
0
 40
0
 40
1
 40
1
 40
1
 40
1
 10
77.916236
 20
-11.363135
 30
0.0
 10
77.916236
 20
-11.648948
 30
0.0
 10
78.068715
 20
-11.913050
 30
0.0
 10
78.316236
 20
-12.055956
 30
0.0
  0
SPLINE
  5
227
100
AcDbEntity
  8
Layer_1
 62
1
100
AcDbSpline
 70
8
 71
3
 72
8
 73
4
 74
0
 40
0
 40
0
 40
0
 40
0
 40
1
 40
1
 40
1
 40
1
 10
78.316236
 20
-12.055956
 30
0.0
 10
78.563757
 20
-12.198863
 30
0.0
 10
78.868716
 20
-12.198863
 30
0.0
 10
79.116237
 20
-12.055956
 30
0.0
  0
SPLINE
  5
228
100
AcDbEntity
  8
Layer_1
 62
1
100
AcDbSpline
 70
8
 71
3
 72
8
 73
4
 74
0
 40
0
 40
0
 40
0
 40
0
 40
1
 40
1
 40
1
 40
1
 10
79.116237
 20
-12.055956
 30
0.0
 10
79.363758
 20
-11.913050
 30
0.0
 10
79.516237
 20
-11.648948
 30
0.0
 10
79.516237
 20
-11.363135
 30
0.0
  0
LINE
  5
229
100
AcDbEntity
  8
Layer_1
 62
1
100
AcDbLine
 10
79.516237
 20
-11.363135
 30
0.0
 11
79.516237
 21
-11.363135
 31
0.0
  0
LINE
  5
22a
100
AcDbEntity
  8
Layer_1
 62
1
100
AcDbLine
 10
79.516137
 20
0.024187
 30
0.0
 11
80.488528
 21
0.008842
 31
0.0
  0
LINE
  5
22b
100
AcDbEntity
  8
Layer_1
 62
1
100
AcDbLine
 10
81.964765
 20
-1.491028
 30
0.0
 11
81.964765
 21
-9.835246
 31
0.0
  0
SPLINE
  5
22c
100
AcDbEntity
  8
Layer_1
 62
1
100
AcDbSpline
 70
8
 71
3
 72
8
 73
4
 74
0
 40
0
 40
0
 40
0
 40
0
 40
1
 40
1
 40
1
 40
1
 10
81.964765
 20
-1.491028
 30
0.0
 10
81.964768
 20
-0.671864
 30
0.0
 10
81.307589
 20
-0.004188
 30
0.0
 10
80.488528
 20
0.008789
 30
0.0
  0
LINE
  5
22d
100
AcDbEntity
  8
Layer_1
 62
1
100
AcDbLine
 10
80.488528
 20
-11.335063
 30
0.0
 11
79.516137
 21
-11.350409
 31
0.0
  0
SPLINE
  5
22e
100
AcDbEntity
  8
Layer_1
 62
1
100
AcDbSpline
 70
8
 71
3
 72
8
 73
4
 74
0
 40
0
 40
0
 40
0
 40
0
 40
1
 40
1
 40
1
 40
1
 10
80.488528
 20
-11.335063
 30
0.0
 10
81.307589
 20
-11.322086
 30
0.0
 10
81.964768
 20
-10.654410
 30
0.0
 10
81.964765
 20
-9.835246
 30
0.0
  0
SPLINE
  5
22f
100
AcDbEntity
  8
Layer_1
 62
1
100
AcDbSpline
 70
8
 71
3
 72
8
 73
4
 74
0
 40
0
 40
0
 40
0
 40
0
 40
1
 40
1
 40
1
 40
1
 10
87.073219
 20
0.036861
 30
0.0
 10
87.073219
 20
0.322674
 30
0.0
 10
86.920739
 20
0.586776
 30
0.0
 10
86.673218
 20
0.729682
 30
0.0
  0
SPLINE
  5
230
100
AcDbEntity
  8
Layer_1
 62
1
100
AcDbSpline
 70
8
 71
3
 72
8
 73
4
 74
0
 40
0
 40
0
 40
0
 40
0
 40
1
 40
1
 40
1
 40
1
 10
86.673218
 20
0.729682
 30
0.0
 10
86.425697
 20
0.872588
 30
0.0
 10
86.120739
 20
0.872588
 30
0.0
 10
85.873218
 20
0.729682
 30
0.0
  0
SPLINE
  5
231
100
AcDbEntity
  8
Layer_1
 62
1
100
AcDbSpline
 70
8
 71
3
 72
8
 73
4
 74
0
 40
0
 40
0
 40
0
 40
0
 40
1
 40
1
 40
1
 40
1
 10
85.873218
 20
0.729682
 30
0.0
 10
85.625696
 20
0.586776
 30
0.0
 10
85.473217
 20
0.322674
 30
0.0
 10
85.473217
 20
0.036861
 30
0.0
  0
SPLINE
  5
232
100
AcDbEntity
  8
Layer_1
 62
1
100
AcDbSpline
 70
8
 71
3
 72
8
 73
4
 74
0
 40
0
 40
0
 40
0
 40
0
 40
1
 40
1
 40
1
 40
1
 10
85.473217
 20
0.036861
 30
0.0
 10
85.473217
 20
-0.248952
 30
0.0
 10
85.625696
 20
-0.513054
 30
0.0
 10
85.873218
 20
-0.655960
 30
0.0
  0
SPLINE
  5
233
100
AcDbEntity
  8
Layer_1
 62
1
100
AcDbSpline
 70
8
 71
3
 72
8
 73
4
 74
0
 40
0
 40
0
 40
0
 40
0
 40
1
 40
1
 40
1
 40
1
 10
85.873218
 20
-0.655960
 30
0.0
 10
86.120739
 20
-0.798866
 30
0.0
 10
86.425697
 20
-0.798866
 30
0.0
 10
86.673218
 20
-0.655960
 30
0.0
  0
SPLINE
  5
234
100
AcDbEntity
  8
Layer_1
 62
1
100
AcDbSpline
 70
8
 71
3
 72
8
 73
4
 74
0
 40
0
 40
0
 40
0
 40
0
 40
1
 40
1
 40
1
 40
1
 10
86.673218
 20
-0.655960
 30
0.0
 10
86.920739
 20
-0.513054
 30
0.0
 10
87.073219
 20
-0.248952
 30
0.0
 10
87.073219
 20
0.036861
 30
0.0
  0
LINE
  5
235
100
AcDbEntity
  8
Layer_1
 62
1
100
AcDbLine
 10
87.073219
 20
0.036861
 30
0.0
 11
87.073219
 21
0.036861
 31
0.0
  0
SPLINE
  5
236
100
AcDbEntity
  8
Layer_1
 62
1
100
AcDbSpline
 70
8
 71
3
 72
8
 73
4
 74
0
 40
0
 40
0
 40
0
 40
0
 40
1
 40
1
 40
1
 40
1
 10
87.073219
 20
-11.363135
 30
0.0
 10
87.073219
 20
-11.077323
 30
0.0
 10
86.920739
 20
-10.813221
 30
0.0
 10
86.673218
 20
-10.670314
 30
0.0
  0
SPLINE
  5
237
100
AcDbEntity
  8
Layer_1
 62
1
100
AcDbSpline
 70
8
 71
3
 72
8
 73
4
 74
0
 40
0
 40
0
 40
0
 40
0
 40
1
 40
1
 40
1
 40
1
 10
86.673218
 20
-10.670314
 30
0.0
 10
86.425697
 20
-10.527408
 30
0.0
 10
86.120739
 20
-10.527408
 30
0.0
 10
85.873218
 20
-10.670314
 30
0.0
  0
SPLINE
  5
238
100
AcDbEntity
  8
Layer_1
 62
1
100
AcDbSpline
 70
8
 71
3
 72
8
 73
4
 74
0
 40
0
 40
0
 40
0
 40
0
 40
1
 40
1
 40
1
 40
1
 10
85.873218
 20
-10.670314
 30
0.0
 10
85.625696
 20
-10.813221
 30
0.0
 10
85.473217
 20
-11.077323
 30
0.0
 10
85.473217
 20
-11.363135
 30
0.0
  0
SPLINE
  5
239
100
AcDbEntity
  8
Layer_1
 62
1
100
AcDbSpline
 70
8
 71
3
 72
8
 73
4
 74
0
 40
0
 40
0
 40
0
 40
0
 40
1
 40
1
 40
1
 40
1
 10
85.473217
 20
-11.363135
 30
0.0
 10
85.473217
 20
-11.648948
 30
0.0
 10
85.625696
 20
-11.913050
 30
0.0
 10
85.873218
 20
-12.055956
 30
0.0
  0
SPLINE
  5
23a
100
AcDbEntity
  8
Layer_1
 62
1
100
AcDbSpline
 70
8
 71
3
 72
8
 73
4
 74
0
 40
0
 40
0
 40
0
 40
0
 40
1
 40
1
 40
1
 40
1
 10
85.873218
 20
-12.055956
 30
0.0
 10
86.120739
 20
-12.198863
 30
0.0
 10
86.425697
 20
-12.198863
 30
0.0
 10
86.673218
 20
-12.055956
 30
0.0
  0
SPLINE
  5
23b
100
AcDbEntity
  8
Layer_1
 62
1
100
AcDbSpline
 70
8
 71
3
 72
8
 73
4
 74
0
 40
0
 40
0
 40
0
 40
0
 40
1
 40
1
 40
1
 40
1
 10
86.673218
 20
-12.055956
 30
0.0
 10
86.920739
 20
-11.913050
 30
0.0
 10
87.073219
 20
-11.648948
 30
0.0
 10
87.073219
 20
-11.363135
 30
0.0
  0
LINE
  5
23c
100
AcDbEntity
  8
Layer_1
 62
1
100
AcDbLine
 10
87.073219
 20
-11.363135
 30
0.0
 11
87.073219
 21
-11.363135
 31
0.0
  0
LINE
  5
23d
100
AcDbEntity
  8
Layer_1
 62
1
100
AcDbLine
 10
87.073118
 20
0.024187
 30
0.0
 11
88.045510
 21
0.008842
 31
0.0
  0
LINE
  5
23e
100
AcDbEntity
  8
Layer_1
 62
1
100
AcDbLine
 10
89.521747
 20
-1.491028
 30
0.0
 11
89.521747
 21
-9.835246
 31
0.0
  0
SPLINE
  5
23f
100
AcDbEntity
  8
Layer_1
 62
1
100
AcDbSpline
 70
8
 71
3
 72
8
 73
4
 74
0
 40
0
 40
0
 40
0
 40
0
 40
1
 40
1
 40
1
 40
1
 10
89.521747
 20
-1.491028
 30
0.0
 10
89.521750
 20
-0.671864
 30
0.0
 10
88.864571
 20
-0.004188
 30
0.0
 10
88.045510
 20
0.008789
 30
0.0
  0
LINE
  5
240
100
AcDbEntity
  8
Layer_1
 62
1
100
AcDbLine
 10
88.045510
 20
-11.335063
 30
0.0
 11
87.073118
 21
-11.350409
 31
0.0
  0
SPLINE
  5
241
100
AcDbEntity
  8
Layer_1
 62
1
100
AcDbSpline
 70
8
 71
3
 72
8
 73
4
 74
0
 40
0
 40
0
 40
0
 40
0
 40
1
 40
1
 40
1
 40
1
 10
88.045510
 20
-11.335063
 30
0.0
 10
88.864571
 20
-11.322086
 30
0.0
 10
89.521750
 20
-10.654410
 30
0.0
 10
89.521747
 20
-9.835246
 30
0.0
  0
SPLINE
  5
242
100
AcDbEntity
  8
Layer_1
 62
1
100
AcDbSpline
 70
8
 71
3
 72
8
 73
4
 74
0
 40
0
 40
0
 40
0
 40
0
 40
1
 40
1
 40
1
 40
1
 10
94.630198
 20
0.036861
 30
0.0
 10
94.630527
 20
0.322892
 30
0.0
 10
94.478120
 20
0.587337
 30
0.0
 10
94.230464
 20
0.730448
 30
0.0
  0
SPLINE
  5
243
100
AcDbEntity
  8
Layer_1
 62
1
100
AcDbSpline
 70
8
 71
3
 72
8
 73
4
 74
0
 40
0
 40
0
 40
0
 40
0
 40
1
 40
1
 40
1
 40
1
 10
94.230464
 20
0.730448
 30
0.0
 10
93.982808
 20
0.873559
 30
0.0
 10
93.677588
 20
0.873559
 30
0.0
 10
93.429933
 20
0.730448
 30
0.0
  0
SPLINE
  5
244
100
AcDbEntity
  8
Layer_1
 62
1
100
AcDbSpline
 70
8
 71
3
 72
8
 73
4
 74
0
 40
0
 40
0
 40
0
 40
0
 40
1
 40
1
 40
1
 40
1
 10
93.429933
 20
0.730448
 30
0.0
 10
93.182277
 20
0.587337
 30
0.0
 10
93.029870
 20
0.322892
 30
0.0
 10
93.030199
 20
0.036861
 30
0.0
  0
SPLINE
  5
245
100
AcDbEntity
  8
Layer_1
 62
1
100
AcDbSpline
 70
8
 71
3
 72
8
 73
4
 74
0
 40
0
 40
0
 40
0
 40
0
 40
1
 40
1
 40
1
 40
1
 10
93.030199
 20
0.036861
 30
0.0
 10
93.029870
 20
-0.249171
 30
0.0
 10
93.182277
 20
-0.513615
 30
0.0
 10
93.429933
 20
-0.656726
 30
0.0
  0
SPLINE
  5
246
100
AcDbEntity
  8
Layer_1
 62
1
100
AcDbSpline
 70
8
 71
3
 72
8
 73
4
 74
0
 40
0
 40
0
 40
0
 40
0
 40
1
 40
1
 40
1
 40
1
 10
93.429933
 20
-0.656726
 30
0.0
 10
93.677588
 20
-0.799837
 30
0.0
 10
93.982808
 20
-0.799837
 30
0.0
 10
94.230464
 20
-0.656726
 30
0.0
  0
SPLINE
  5
247
100
AcDbEntity
  8
Layer_1
 62
1
100
AcDbSpline
 70
8
 71
3
 72
8
 73
4
 74
0
 40
0
 40
0
 40
0
 40
0
 40
1
 40
1
 40
1
 40
1
 10
94.230464
 20
-0.656726
 30
0.0
 10
94.478120
 20
-0.513615
 30
0.0
 10
94.630527
 20
-0.249171
 30
0.0
 10
94.630198
 20
0.036861
 30
0.0
  0
LINE
  5
248
100
AcDbEntity
  8
Layer_1
 62
1
100
AcDbLine
 10
94.630198
 20
0.036861
 30
0.0
 11
94.630198
 21
0.036861
 31
0.0
  0
SPLINE
  5
249
100
AcDbEntity
  8
Layer_1
 62
1
100
AcDbSpline
 70
8
 71
3
 72
8
 73
4
 74
0
 40
0
 40
0
 40
0
 40
0
 40
1
 40
1
 40
1
 40
1
 10
94.630198
 20
-11.363135
 30
0.0
 10
94.630527
 20
-11.077104
 30
0.0
 10
94.478120
 20
-10.812659
 30
0.0
 10
94.230464
 20
-10.669548
 30
0.0
  0
SPLINE
  5
24a
100
AcDbEntity
  8
Layer_1
 62
1
100
AcDbSpline
 70
8
 71
3
 72
8
 73
4
 74
0
 40
0
 40
0
 40
0
 40
0
 40
1
 40
1
 40
1
 40
1
 10
94.230464
 20
-10.669548
 30
0.0
 10
93.982808
 20
-10.526438
 30
0.0
 10
93.677588
 20
-10.526438
 30
0.0
 10
93.429933
 20
-10.669548
 30
0.0
  0
SPLINE
  5
24b
100
AcDbEntity
  8
Layer_1
 62
1
100
AcDbSpline
 70
8
 71
3
 72
8
 73
4
 74
0
 40
0
 40
0
 40
0
 40
0
 40
1
 40
1
 40
1
 40
1
 10
93.429933
 20
-10.669548
 30
0.0
 10
93.182277
 20
-10.812659
 30
0.0
 10
93.029870
 20
-11.077104
 30
0.0
 10
93.030199
 20
-11.363135
 30
0.0
  0
SPLINE
  5
24c
100
AcDbEntity
  8
Layer_1
 62
1
100
AcDbSpline
 70
8
 71
3
 72
8
 73
4
 74
0
 40
0
 40
0
 40
0
 40
0
 40
1
 40
1
 40
1
 40
1
 10
93.030199
 20
-11.363135
 30
0.0
 10
93.029870
 20
-11.649167
 30
0.0
 10
93.182277
 20
-11.913612
 30
0.0
 10
93.429933
 20
-12.056722
 30
0.0
  0
SPLINE
  5
24d
100
AcDbEntity
  8
Layer_1
 62
1
100
AcDbSpline
 70
8
 71
3
 72
8
 73
4
 74
0
 40
0
 40
0
 40
0
 40
0
 40
1
 40
1
 40
1
 40
1
 10
93.429933
 20
-12.056722
 30
0.0
 10
93.677588
 20
-12.199833
 30
0.0
 10
93.982808
 20
-12.199833
 30
0.0
 10
94.230464
 20
-12.056722
 30
0.0
  0
SPLINE
  5
24e
100
AcDbEntity
  8
Layer_1
 62
1
100
AcDbSpline
 70
8
 71
3
 72
8
 73
4
 74
0
 40
0
 40
0
 40
0
 40
0
 40
1
 40
1
 40
1
 40
1
 10
94.230464
 20
-12.056722
 30
0.0
 10
94.478120
 20
-11.913612
 30
0.0
 10
94.630527
 20
-11.649167
 30
0.0
 10
94.630198
 20
-11.363135
 30
0.0
  0
LINE
  5
24f
100
AcDbEntity
  8
Layer_1
 62
1
100
AcDbLine
 10
94.630198
 20
-11.363135
 30
0.0
 11
94.630198
 21
-11.363135
 31
0.0
  0
LINE
  5
250
100
AcDbEntity
  8
Layer_1
 62
1
100
AcDbLine
 10
94.630097
 20
0.024187
 30
0.0
 11
95.602491
 21
0.008842
 31
0.0
  0
LINE
  5
251
100
AcDbEntity
  8
Layer_1
 62
1
100
AcDbLine
 10
97.078726
 20
-1.491028
 30
0.0
 11
97.078726
 21
-9.835246
 31
0.0
  0
SPLINE
  5
252
100
AcDbEntity
  8
Layer_1
 62
1
100
AcDbSpline
 70
8
 71
3
 72
8
 73
4
 74
0
 40
0
 40
0
 40
0
 40
0
 40
1
 40
1
 40
1
 40
1
 10
97.078726
 20
-1.491028
 30
0.0
 10
97.078729
 20
-0.671865
 30
0.0
 10
96.421551
 20
-0.004190
 30
0.0
 10
95.602491
 20
0.008789
 30
0.0
  0
LINE
  5
253
100
AcDbEntity
  8
Layer_1
 62
1
100
AcDbLine
 10
95.602491
 20
-11.335063
 30
0.0
 11
94.630097
 21
-11.350409
 31
0.0
  0
SPLINE
  5
254
100
AcDbEntity
  8
Layer_1
 62
1
100
AcDbSpline
 70
8
 71
3
 72
8
 73
4
 74
0
 40
0
 40
0
 40
0
 40
0
 40
1
 40
1
 40
1
 40
1
 10
95.602491
 20
-11.335063
 30
0.0
 10
96.421551
 20
-11.322085
 30
0.0
 10
97.078729
 20
-10.654409
 30
0.0
 10
97.078726
 20
-9.835246
 30
0.0
  0
SPLINE
  5
255
100
AcDbEntity
  8
Layer_1
 62
1
100
AcDbSpline
 70
8
 71
3
 72
8
 73
4
 74
0
 40
0
 40
0
 40
0
 40
0
 40
1
 40
1
 40
1
 40
1
 10
102.187179
 20
0.036861
 30
0.0
 10
102.187508
 20
0.322892
 30
0.0
 10
102.035101
 20
0.587337
 30
0.0
 10
101.787445
 20
0.730448
 30
0.0
  0
SPLINE
  5
256
100
AcDbEntity
  8
Layer_1
 62
1
100
AcDbSpline
 70
8
 71
3
 72
8
 73
4
 74
0
 40
0
 40
0
 40
0
 40
0
 40
1
 40
1
 40
1
 40
1
 10
101.787445
 20
0.730448
 30
0.0
 10
101.539790
 20
0.873559
 30
0.0
 10
101.234570
 20
0.873559
 30
0.0
 10
100.986914
 20
0.730448
 30
0.0
  0
SPLINE
  5
257
100
AcDbEntity
  8
Layer_1
 62
1
100
AcDbSpline
 70
8
 71
3
 72
8
 73
4
 74
0
 40
0
 40
0
 40
0
 40
0
 40
1
 40
1
 40
1
 40
1
 10
100.986914
 20
0.730448
 30
0.0
 10
100.739258
 20
0.587337
 30
0.0
 10
100.586851
 20
0.322892
 30
0.0
 10
100.587180
 20
0.036861
 30
0.0
  0
SPLINE
  5
258
100
AcDbEntity
  8
Layer_1
 62
1
100
AcDbSpline
 70
8
 71
3
 72
8
 73
4
 74
0
 40
0
 40
0
 40
0
 40
0
 40
1
 40
1
 40
1
 40
1
 10
100.587180
 20
0.036861
 30
0.0
 10
100.586851
 20
-0.249171
 30
0.0
 10
100.739258
 20
-0.513615
 30
0.0
 10
100.986914
 20
-0.656726
 30
0.0
  0
SPLINE
  5
259
100
AcDbEntity
  8
Layer_1
 62
1
100
AcDbSpline
 70
8
 71
3
 72
8
 73
4
 74
0
 40
0
 40
0
 40
0
 40
0
 40
1
 40
1
 40
1
 40
1
 10
100.986914
 20
-0.656726
 30
0.0
 10
101.234570
 20
-0.799837
 30
0.0
 10
101.539790
 20
-0.799837
 30
0.0
 10
101.787445
 20
-0.656726
 30
0.0
  0
SPLINE
  5
25a
100
AcDbEntity
  8
Layer_1
 62
1
100
AcDbSpline
 70
8
 71
3
 72
8
 73
4
 74
0
 40
0
 40
0
 40
0
 40
0
 40
1
 40
1
 40
1
 40
1
 10
101.787445
 20
-0.656726
 30
0.0
 10
102.035101
 20
-0.513615
 30
0.0
 10
102.187508
 20
-0.249171
 30
0.0
 10
102.187179
 20
0.036861
 30
0.0
  0
LINE
  5
25b
100
AcDbEntity
  8
Layer_1
 62
1
100
AcDbLine
 10
102.187179
 20
0.036861
 30
0.0
 11
102.187179
 21
0.036861
 31
0.0
  0
SPLINE
  5
25c
100
AcDbEntity
  8
Layer_1
 62
1
100
AcDbSpline
 70
8
 71
3
 72
8
 73
4
 74
0
 40
0
 40
0
 40
0
 40
0
 40
1
 40
1
 40
1
 40
1
 10
102.187179
 20
-11.363135
 30
0.0
 10
102.187508
 20
-11.077104
 30
0.0
 10
102.035101
 20
-10.812659
 30
0.0
 10
101.787445
 20
-10.669548
 30
0.0
  0
SPLINE
  5
25d
100
AcDbEntity
  8
Layer_1
 62
1
100
AcDbSpline
 70
8
 71
3
 72
8
 73
4
 74
0
 40
0
 40
0
 40
0
 40
0
 40
1
 40
1
 40
1
 40
1
 10
101.787445
 20
-10.669548
 30
0.0
 10
101.539790
 20
-10.526438
 30
0.0
 10
101.234570
 20
-10.526438
 30
0.0
 10
100.986914
 20
-10.669548
 30
0.0
  0
SPLINE
  5
25e
100
AcDbEntity
  8
Layer_1
 62
1
100
AcDbSpline
 70
8
 71
3
 72
8
 73
4
 74
0
 40
0
 40
0
 40
0
 40
0
 40
1
 40
1
 40
1
 40
1
 10
100.986914
 20
-10.669548
 30
0.0
 10
100.739258
 20
-10.812659
 30
0.0
 10
100.586851
 20
-11.077104
 30
0.0
 10
100.587180
 20
-11.363135
 30
0.0
  0
SPLINE
  5
25f
100
AcDbEntity
  8
Layer_1
 62
1
100
AcDbSpline
 70
8
 71
3
 72
8
 73
4
 74
0
 40
0
 40
0
 40
0
 40
0
 40
1
 40
1
 40
1
 40
1
 10
100.587180
 20
-11.363135
 30
0.0
 10
100.586851
 20
-11.649167
 30
0.0
 10
100.739258
 20
-11.913612
 30
0.0
 10
100.986914
 20
-12.056722
 30
0.0
  0
SPLINE
  5
260
100
AcDbEntity
  8
Layer_1
 62
1
100
AcDbSpline
 70
8
 71
3
 72
8
 73
4
 74
0
 40
0
 40
0
 40
0
 40
0
 40
1
 40
1
 40
1
 40
1
 10
100.986914
 20
-12.056722
 30
0.0
 10
101.234570
 20
-12.199833
 30
0.0
 10
101.539790
 20
-12.199833
 30
0.0
 10
101.787445
 20
-12.056722
 30
0.0
  0
SPLINE
  5
261
100
AcDbEntity
  8
Layer_1
 62
1
100
AcDbSpline
 70
8
 71
3
 72
8
 73
4
 74
0
 40
0
 40
0
 40
0
 40
0
 40
1
 40
1
 40
1
 40
1
 10
101.787445
 20
-12.056722
 30
0.0
 10
102.035101
 20
-11.913612
 30
0.0
 10
102.187508
 20
-11.649167
 30
0.0
 10
102.187179
 20
-11.363135
 30
0.0
  0
LINE
  5
262
100
AcDbEntity
  8
Layer_1
 62
1
100
AcDbLine
 10
102.187179
 20
-11.363135
 30
0.0
 11
102.187179
 21
-11.363135
 31
0.0
  0
LINE
  5
263
100
AcDbEntity
  8
Layer_1
 62
1
100
AcDbLine
 10
102.187079
 20
0.024187
 30
0.0
 11
103.159473
 21
0.008842
 31
0.0
  0
LINE
  5
264
100
AcDbEntity
  8
Layer_1
 62
1
100
AcDbLine
 10
104.635707
 20
-1.491028
 30
0.0
 11
104.635707
 21
-9.835246
 31
0.0
  0
SPLINE
  5
265
100
AcDbEntity
  8
Layer_1
 62
1
100
AcDbSpline
 70
8
 71
3
 72
8
 73
4
 74
0
 40
0
 40
0
 40
0
 40
0
 40
1
 40
1
 40
1
 40
1
 10
104.635707
 20
-1.491028
 30
0.0
 10
104.635710
 20
-0.671865
 30
0.0
 10
103.978533
 20
-0.004190
 30
0.0
 10
103.159473
 20
0.008789
 30
0.0
  0
LINE
  5
266
100
AcDbEntity
  8
Layer_1
 62
1
100
AcDbLine
 10
103.159473
 20
-11.335063
 30
0.0
 11
102.187079
 21
-11.350409
 31
0.0
  0
SPLINE
  5
267
100
AcDbEntity
  8
Layer_1
 62
1
100
AcDbSpline
 70
8
 71
3
 72
8
 73
4
 74
0
 40
0
 40
0
 40
0
 40
0
 40
1
 40
1
 40
1
 40
1
 10
103.159473
 20
-11.335063
 30
0.0
 10
103.978533
 20
-11.322085
 30
0.0
 10
104.635710
 20
-10.654409
 30
0.0
 10
104.635707
 20
-9.835246
 30
0.0
  0
SPLINE
  5
268
100
AcDbEntity
  8
Layer_1
 62
1
100
AcDbSpline
 70
8
 71
3
 72
8
 73
4
 74
0
 40
0
 40
0
 40
0
 40
0
 40
1
 40
1
 40
1
 40
1
 10
109.744161
 20
0.036861
 30
0.0
 10
109.744490
 20
0.322892
 30
0.0
 10
109.592083
 20
0.587337
 30
0.0
 10
109.344427
 20
0.730448
 30
0.0
  0
SPLINE
  5
269
100
AcDbEntity
  8
Layer_1
 62
1
100
AcDbSpline
 70
8
 71
3
 72
8
 73
4
 74
0
 40
0
 40
0
 40
0
 40
0
 40
1
 40
1
 40
1
 40
1
 10
109.344427
 20
0.730448
 30
0.0
 10
109.096771
 20
0.873559
 30
0.0
 10
108.791552
 20
0.873559
 30
0.0
 10
108.543896
 20
0.730448
 30
0.0
  0
SPLINE
  5
26a
100
AcDbEntity
  8
Layer_1
 62
1
100
AcDbSpline
 70
8
 71
3
 72
8
 73
4
 74
0
 40
0
 40
0
 40
0
 40
0
 40
1
 40
1
 40
1
 40
1
 10
108.543896
 20
0.730448
 30
0.0
 10
108.296240
 20
0.587337
 30
0.0
 10
108.143833
 20
0.322892
 30
0.0
 10
108.144162
 20
0.036861
 30
0.0
  0
SPLINE
  5
26b
100
AcDbEntity
  8
Layer_1
 62
1
100
AcDbSpline
 70
8
 71
3
 72
8
 73
4
 74
0
 40
0
 40
0
 40
0
 40
0
 40
1
 40
1
 40
1
 40
1
 10
108.144162
 20
0.036861
 30
0.0
 10
108.143833
 20
-0.249171
 30
0.0
 10
108.296240
 20
-0.513615
 30
0.0
 10
108.543896
 20
-0.656726
 30
0.0
  0
SPLINE
  5
26c
100
AcDbEntity
  8
Layer_1
 62
1
100
AcDbSpline
 70
8
 71
3
 72
8
 73
4
 74
0
 40
0
 40
0
 40
0
 40
0
 40
1
 40
1
 40
1
 40
1
 10
108.543896
 20
-0.656726
 30
0.0
 10
108.791552
 20
-0.799837
 30
0.0
 10
109.096771
 20
-0.799837
 30
0.0
 10
109.344427
 20
-0.656726
 30
0.0
  0
SPLINE
  5
26d
100
AcDbEntity
  8
Layer_1
 62
1
100
AcDbSpline
 70
8
 71
3
 72
8
 73
4
 74
0
 40
0
 40
0
 40
0
 40
0
 40
1
 40
1
 40
1
 40
1
 10
109.344427
 20
-0.656726
 30
0.0
 10
109.592083
 20
-0.513615
 30
0.0
 10
109.744490
 20
-0.249171
 30
0.0
 10
109.744161
 20
0.036861
 30
0.0
  0
LINE
  5
26e
100
AcDbEntity
  8
Layer_1
 62
1
100
AcDbLine
 10
109.744161
 20
0.036861
 30
0.0
 11
109.744161
 21
0.036861
 31
0.0
  0
SPLINE
  5
26f
100
AcDbEntity
  8
Layer_1
 62
1
100
AcDbSpline
 70
8
 71
3
 72
8
 73
4
 74
0
 40
0
 40
0
 40
0
 40
0
 40
1
 40
1
 40
1
 40
1
 10
109.744161
 20
-11.363135
 30
0.0
 10
109.744490
 20
-11.077104
 30
0.0
 10
109.592083
 20
-10.812659
 30
0.0
 10
109.344427
 20
-10.669548
 30
0.0
  0
SPLINE
  5
270
100
AcDbEntity
  8
Layer_1
 62
1
100
AcDbSpline
 70
8
 71
3
 72
8
 73
4
 74
0
 40
0
 40
0
 40
0
 40
0
 40
1
 40
1
 40
1
 40
1
 10
109.344427
 20
-10.669548
 30
0.0
 10
109.096771
 20
-10.526438
 30
0.0
 10
108.791552
 20
-10.526438
 30
0.0
 10
108.543896
 20
-10.669548
 30
0.0
  0
SPLINE
  5
271
100
AcDbEntity
  8
Layer_1
 62
1
100
AcDbSpline
 70
8
 71
3
 72
8
 73
4
 74
0
 40
0
 40
0
 40
0
 40
0
 40
1
 40
1
 40
1
 40
1
 10
108.543896
 20
-10.669548
 30
0.0
 10
108.296240
 20
-10.812659
 30
0.0
 10
108.143833
 20
-11.077104
 30
0.0
 10
108.144162
 20
-11.363135
 30
0.0
  0
SPLINE
  5
272
100
AcDbEntity
  8
Layer_1
 62
1
100
AcDbSpline
 70
8
 71
3
 72
8
 73
4
 74
0
 40
0
 40
0
 40
0
 40
0
 40
1
 40
1
 40
1
 40
1
 10
108.144162
 20
-11.363135
 30
0.0
 10
108.143833
 20
-11.649167
 30
0.0
 10
108.296240
 20
-11.913612
 30
0.0
 10
108.543896
 20
-12.056722
 30
0.0
  0
SPLINE
  5
273
100
AcDbEntity
  8
Layer_1
 62
1
100
AcDbSpline
 70
8
 71
3
 72
8
 73
4
 74
0
 40
0
 40
0
 40
0
 40
0
 40
1
 40
1
 40
1
 40
1
 10
108.543896
 20
-12.056722
 30
0.0
 10
108.791552
 20
-12.199833
 30
0.0
 10
109.096771
 20
-12.199833
 30
0.0
 10
109.344427
 20
-12.056722
 30
0.0
  0
SPLINE
  5
274
100
AcDbEntity
  8
Layer_1
 62
1
100
AcDbSpline
 70
8
 71
3
 72
8
 73
4
 74
0
 40
0
 40
0
 40
0
 40
0
 40
1
 40
1
 40
1
 40
1
 10
109.344427
 20
-12.056722
 30
0.0
 10
109.592083
 20
-11.913612
 30
0.0
 10
109.744490
 20
-11.649167
 30
0.0
 10
109.744161
 20
-11.363135
 30
0.0
  0
LINE
  5
275
100
AcDbEntity
  8
Layer_1
 62
1
100
AcDbLine
 10
109.744161
 20
-11.363135
 30
0.0
 11
109.744161
 21
-11.363135
 31
0.0
  0
LINE
  5
276
100
AcDbEntity
  8
Layer_1
 62
1
100
AcDbLine
 10
109.744060
 20
0.024187
 30
0.0
 11
110.716452
 21
0.008842
 31
0.0
  0
LINE
  5
277
100
AcDbEntity
  8
Layer_1
 62
1
100
AcDbLine
 10
112.192689
 20
-1.491028
 30
0.0
 11
112.192689
 21
-9.835246
 31
0.0
  0
SPLINE
  5
278
100
AcDbEntity
  8
Layer_1
 62
1
100
AcDbSpline
 70
8
 71
3
 72
8
 73
4
 74
0
 40
0
 40
0
 40
0
 40
0
 40
1
 40
1
 40
1
 40
1
 10
112.192689
 20
-1.491028
 30
0.0
 10
112.192692
 20
-0.671864
 30
0.0
 10
111.535513
 20
-0.004188
 30
0.0
 10
110.716452
 20
0.008789
 30
0.0
  0
LINE
  5
279
100
AcDbEntity
  8
Layer_1
 62
1
100
AcDbLine
 10
110.716452
 20
-11.335063
 30
0.0
 11
109.744060
 21
-11.350409
 31
0.0
  0
SPLINE
  5
27a
100
AcDbEntity
  8
Layer_1
 62
1
100
AcDbSpline
 70
8
 71
3
 72
8
 73
4
 74
0
 40
0
 40
0
 40
0
 40
0
 40
1
 40
1
 40
1
 40
1
 10
110.716452
 20
-11.335063
 30
0.0
 10
111.535513
 20
-11.322086
 30
0.0
 10
112.192692
 20
-10.654410
 30
0.0
 10
112.192689
 20
-9.835246
 30
0.0
  0
SPLINE
  5
27b
100
AcDbEntity
  8
Layer_1
 62
1
100
AcDbSpline
 70
8
 71
3
 72
8
 73
4
 74
0
 40
0
 40
0
 40
0
 40
0
 40
1
 40
1
 40
1
 40
1
 10
117.301142
 20
0.036861
 30
0.0
 10
117.301142
 20
0.322674
 30
0.0
 10
117.148663
 20
0.586776
 30
0.0
 10
116.901142
 20
0.729682
 30
0.0
  0
SPLINE
  5
27c
100
AcDbEntity
  8
Layer_1
 62
1
100
AcDbSpline
 70
8
 71
3
 72
8
 73
4
 74
0
 40
0
 40
0
 40
0
 40
0
 40
1
 40
1
 40
1
 40
1
 10
116.901142
 20
0.729682
 30
0.0
 10
116.653621
 20
0.872588
 30
0.0
 10
116.348662
 20
0.872588
 30
0.0
 10
116.101141
 20
0.729682
 30
0.0
  0
SPLINE
  5
27d
100
AcDbEntity
  8
Layer_1
 62
1
100
AcDbSpline
 70
8
 71
3
 72
8
 73
4
 74
0
 40
0
 40
0
 40
0
 40
0
 40
1
 40
1
 40
1
 40
1
 10
116.101141
 20
0.729682
 30
0.0
 10
115.853620
 20
0.586776
 30
0.0
 10
115.701141
 20
0.322674
 30
0.0
 10
115.701141
 20
0.036861
 30
0.0
  0
SPLINE
  5
27e
100
AcDbEntity
  8
Layer_1
 62
1
100
AcDbSpline
 70
8
 71
3
 72
8
 73
4
 74
0
 40
0
 40
0
 40
0
 40
0
 40
1
 40
1
 40
1
 40
1
 10
115.701141
 20
0.036861
 30
0.0
 10
115.701141
 20
-0.248952
 30
0.0
 10
115.853620
 20
-0.513054
 30
0.0
 10
116.101141
 20
-0.655960
 30
0.0
  0
SPLINE
  5
27f
100
AcDbEntity
  8
Layer_1
 62
1
100
AcDbSpline
 70
8
 71
3
 72
8
 73
4
 74
0
 40
0
 40
0
 40
0
 40
0
 40
1
 40
1
 40
1
 40
1
 10
116.101141
 20
-0.655960
 30
0.0
 10
116.348662
 20
-0.798866
 30
0.0
 10
116.653621
 20
-0.798866
 30
0.0
 10
116.901142
 20
-0.655960
 30
0.0
  0
SPLINE
  5
280
100
AcDbEntity
  8
Layer_1
 62
1
100
AcDbSpline
 70
8
 71
3
 72
8
 73
4
 74
0
 40
0
 40
0
 40
0
 40
0
 40
1
 40
1
 40
1
 40
1
 10
116.901142
 20
-0.655960
 30
0.0
 10
117.148663
 20
-0.513054
 30
0.0
 10
117.301142
 20
-0.248952
 30
0.0
 10
117.301142
 20
0.036861
 30
0.0
  0
LINE
  5
281
100
AcDbEntity
  8
Layer_1
 62
1
100
AcDbLine
 10
117.301142
 20
0.036861
 30
0.0
 11
117.301142
 21
0.036861
 31
0.0
  0
SPLINE
  5
282
100
AcDbEntity
  8
Layer_1
 62
1
100
AcDbSpline
 70
8
 71
3
 72
8
 73
4
 74
0
 40
0
 40
0
 40
0
 40
0
 40
1
 40
1
 40
1
 40
1
 10
117.301142
 20
-11.363135
 30
0.0
 10
117.301142
 20
-11.077323
 30
0.0
 10
117.148663
 20
-10.813221
 30
0.0
 10
116.901142
 20
-10.670314
 30
0.0
  0
SPLINE
  5
283
100
AcDbEntity
  8
Layer_1
 62
1
100
AcDbSpline
 70
8
 71
3
 72
8
 73
4
 74
0
 40
0
 40
0
 40
0
 40
0
 40
1
 40
1
 40
1
 40
1
 10
116.901142
 20
-10.670314
 30
0.0
 10
116.653621
 20
-10.527408
 30
0.0
 10
116.348662
 20
-10.527408
 30
0.0
 10
116.101141
 20
-10.670314
 30
0.0
  0
SPLINE
  5
284
100
AcDbEntity
  8
Layer_1
 62
1
100
AcDbSpline
 70
8
 71
3
 72
8
 73
4
 74
0
 40
0
 40
0
 40
0
 40
0
 40
1
 40
1
 40
1
 40
1
 10
116.101141
 20
-10.670314
 30
0.0
 10
115.853620
 20
-10.813221
 30
0.0
 10
115.701141
 20
-11.077323
 30
0.0
 10
115.701141
 20
-11.363135
 30
0.0
  0
SPLINE
  5
285
100
AcDbEntity
  8
Layer_1
 62
1
100
AcDbSpline
 70
8
 71
3
 72
8
 73
4
 74
0
 40
0
 40
0
 40
0
 40
0
 40
1
 40
1
 40
1
 40
1
 10
115.701141
 20
-11.363135
 30
0.0
 10
115.701141
 20
-11.648948
 30
0.0
 10
115.853620
 20
-11.913050
 30
0.0
 10
116.101141
 20
-12.055956
 30
0.0
  0
SPLINE
  5
286
100
AcDbEntity
  8
Layer_1
 62
1
100
AcDbSpline
 70
8
 71
3
 72
8
 73
4
 74
0
 40
0
 40
0
 40
0
 40
0
 40
1
 40
1
 40
1
 40
1
 10
116.101141
 20
-12.055956
 30
0.0
 10
116.348662
 20
-12.198863
 30
0.0
 10
116.653621
 20
-12.198863
 30
0.0
 10
116.901142
 20
-12.055956
 30
0.0
  0
SPLINE
  5
287
100
AcDbEntity
  8
Layer_1
 62
1
100
AcDbSpline
 70
8
 71
3
 72
8
 73
4
 74
0
 40
0
 40
0
 40
0
 40
0
 40
1
 40
1
 40
1
 40
1
 10
116.901142
 20
-12.055956
 30
0.0
 10
117.148663
 20
-11.913050
 30
0.0
 10
117.301142
 20
-11.648948
 30
0.0
 10
117.301142
 20
-11.363135
 30
0.0
  0
LINE
  5
288
100
AcDbEntity
  8
Layer_1
 62
1
100
AcDbLine
 10
117.301142
 20
-11.363135
 30
0.0
 11
117.301142
 21
-11.363135
 31
0.0
  0
LINE
  5
289
100
AcDbEntity
  8
Layer_1
 62
1
100
AcDbLine
 10
117.301042
 20
0.024187
 30
0.0
 11
118.273433
 21
0.008842
 31
0.0
  0
LINE
  5
28a
100
AcDbEntity
  8
Layer_1
 62
1
100
AcDbLine
 10
119.749671
 20
-1.491028
 30
0.0
 11
119.749671
 21
-9.835246
 31
0.0
  0
SPLINE
  5
28b
100
AcDbEntity
  8
Layer_1
 62
1
100
AcDbSpline
 70
8
 71
3
 72
8
 73
4
 74
0
 40
0
 40
0
 40
0
 40
0
 40
1
 40
1
 40
1
 40
1
 10
119.749671
 20
-1.491028
 30
0.0
 10
119.749673
 20
-0.671864
 30
0.0
 10
119.092494
 20
-0.004188
 30
0.0
 10
118.273433
 20
0.008789
 30
0.0
  0
LINE
  5
28c
100
AcDbEntity
  8
Layer_1
 62
1
100
AcDbLine
 10
118.273433
 20
-11.335063
 30
0.0
 11
117.301042
 21
-11.350409
 31
0.0
  0
SPLINE
  5
28d
100
AcDbEntity
  8
Layer_1
 62
1
100
AcDbSpline
 70
8
 71
3
 72
8
 73
4
 74
0
 40
0
 40
0
 40
0
 40
0
 40
1
 40
1
 40
1
 40
1
 10
118.273433
 20
-11.335063
 30
0.0
 10
119.092494
 20
-11.322086
 30
0.0
 10
119.749673
 20
-10.654410
 30
0.0
 10
119.749671
 20
-9.835246
 30
0.0
  0
SPLINE
  5
28e
100
AcDbEntity
  8
Layer_1
 62
1
100
AcDbSpline
 70
8
 71
3
 72
8
 73
4
 74
0
 40
0
 40
0
 40
0
 40
0
 40
1
 40
1
 40
1
 40
1
 10
124.858124
 20
0.036861
 30
0.0
 10
124.858124
 20
0.322674
 30
0.0
 10
124.705645
 20
0.586776
 30
0.0
 10
124.458123
 20
0.729682
 30
0.0
  0
SPLINE
  5
28f
100
AcDbEntity
  8
Layer_1
 62
1
100
AcDbSpline
 70
8
 71
3
 72
8
 73
4
 74
0
 40
0
 40
0
 40
0
 40
0
 40
1
 40
1
 40
1
 40
1
 10
124.458123
 20
0.729682
 30
0.0
 10
124.210602
 20
0.872588
 30
0.0
 10
123.905644
 20
0.872588
 30
0.0
 10
123.658123
 20
0.729682
 30
0.0
  0
SPLINE
  5
290
100
AcDbEntity
  8
Layer_1
 62
1
100
AcDbSpline
 70
8
 71
3
 72
8
 73
4
 74
0
 40
0
 40
0
 40
0
 40
0
 40
1
 40
1
 40
1
 40
1
 10
123.658123
 20
0.729682
 30
0.0
 10
123.410602
 20
0.586776
 30
0.0
 10
123.258122
 20
0.322674
 30
0.0
 10
123.258122
 20
0.036861
 30
0.0
  0
SPLINE
  5
291
100
AcDbEntity
  8
Layer_1
 62
1
100
AcDbSpline
 70
8
 71
3
 72
8
 73
4
 74
0
 40
0
 40
0
 40
0
 40
0
 40
1
 40
1
 40
1
 40
1
 10
123.258122
 20
0.036861
 30
0.0
 10
123.258122
 20
-0.248952
 30
0.0
 10
123.410602
 20
-0.513054
 30
0.0
 10
123.658123
 20
-0.655960
 30
0.0
  0
SPLINE
  5
292
100
AcDbEntity
  8
Layer_1
 62
1
100
AcDbSpline
 70
8
 71
3
 72
8
 73
4
 74
0
 40
0
 40
0
 40
0
 40
0
 40
1
 40
1
 40
1
 40
1
 10
123.658123
 20
-0.655960
 30
0.0
 10
123.905644
 20
-0.798866
 30
0.0
 10
124.210602
 20
-0.798866
 30
0.0
 10
124.458123
 20
-0.655960
 30
0.0
  0
SPLINE
  5
293
100
AcDbEntity
  8
Layer_1
 62
1
100
AcDbSpline
 70
8
 71
3
 72
8
 73
4
 74
0
 40
0
 40
0
 40
0
 40
0
 40
1
 40
1
 40
1
 40
1
 10
124.458123
 20
-0.655960
 30
0.0
 10
124.705645
 20
-0.513054
 30
0.0
 10
124.858124
 20
-0.248952
 30
0.0
 10
124.858124
 20
0.036861
 30
0.0
  0
LINE
  5
294
100
AcDbEntity
  8
Layer_1
 62
1
100
AcDbLine
 10
124.858124
 20
0.036861
 30
0.0
 11
124.858124
 21
0.036861
 31
0.0
  0
SPLINE
  5
295
100
AcDbEntity
  8
Layer_1
 62
1
100
AcDbSpline
 70
8
 71
3
 72
8
 73
4
 74
0
 40
0
 40
0
 40
0
 40
0
 40
1
 40
1
 40
1
 40
1
 10
124.858124
 20
-11.363135
 30
0.0
 10
124.858124
 20
-11.077323
 30
0.0
 10
124.705645
 20
-10.813221
 30
0.0
 10
124.458123
 20
-10.670314
 30
0.0
  0
SPLINE
  5
296
100
AcDbEntity
  8
Layer_1
 62
1
100
AcDbSpline
 70
8
 71
3
 72
8
 73
4
 74
0
 40
0
 40
0
 40
0
 40
0
 40
1
 40
1
 40
1
 40
1
 10
124.458123
 20
-10.670314
 30
0.0
 10
124.210602
 20
-10.527408
 30
0.0
 10
123.905644
 20
-10.527408
 30
0.0
 10
123.658123
 20
-10.670314
 30
0.0
  0
SPLINE
  5
297
100
AcDbEntity
  8
Layer_1
 62
1
100
AcDbSpline
 70
8
 71
3
 72
8
 73
4
 74
0
 40
0
 40
0
 40
0
 40
0
 40
1
 40
1
 40
1
 40
1
 10
123.658123
 20
-10.670314
 30
0.0
 10
123.410602
 20
-10.813221
 30
0.0
 10
123.258122
 20
-11.077323
 30
0.0
 10
123.258122
 20
-11.363135
 30
0.0
  0
SPLINE
  5
298
100
AcDbEntity
  8
Layer_1
 62
1
100
AcDbSpline
 70
8
 71
3
 72
8
 73
4
 74
0
 40
0
 40
0
 40
0
 40
0
 40
1
 40
1
 40
1
 40
1
 10
123.258122
 20
-11.363135
 30
0.0
 10
123.258122
 20
-11.648948
 30
0.0
 10
123.410602
 20
-11.913050
 30
0.0
 10
123.658123
 20
-12.055956
 30
0.0
  0
SPLINE
  5
299
100
AcDbEntity
  8
Layer_1
 62
1
100
AcDbSpline
 70
8
 71
3
 72
8
 73
4
 74
0
 40
0
 40
0
 40
0
 40
0
 40
1
 40
1
 40
1
 40
1
 10
123.658123
 20
-12.055956
 30
0.0
 10
123.905644
 20
-12.198863
 30
0.0
 10
124.210602
 20
-12.198863
 30
0.0
 10
124.458123
 20
-12.055956
 30
0.0
  0
SPLINE
  5
29a
100
AcDbEntity
  8
Layer_1
 62
1
100
AcDbSpline
 70
8
 71
3
 72
8
 73
4
 74
0
 40
0
 40
0
 40
0
 40
0
 40
1
 40
1
 40
1
 40
1
 10
124.458123
 20
-12.055956
 30
0.0
 10
124.705645
 20
-11.913050
 30
0.0
 10
124.858124
 20
-11.648948
 30
0.0
 10
124.858124
 20
-11.363135
 30
0.0
  0
LINE
  5
29b
100
AcDbEntity
  8
Layer_1
 62
1
100
AcDbLine
 10
124.858124
 20
-11.363135
 30
0.0
 11
124.858124
 21
-11.363135
 31
0.0
  0
LINE
  5
29c
100
AcDbEntity
  8
Layer_1
 62
1
100
AcDbLine
 10
124.858023
 20
0.024187
 30
0.0
 11
125.830415
 21
0.008842
 31
0.0
  0
LINE
  5
29d
100
AcDbEntity
  8
Layer_1
 62
1
100
AcDbLine
 10
127.306652
 20
-1.491028
 30
0.0
 11
127.306652
 21
-9.835246
 31
0.0
  0
SPLINE
  5
29e
100
AcDbEntity
  8
Layer_1
 62
1
100
AcDbSpline
 70
8
 71
3
 72
8
 73
4
 74
0
 40
0
 40
0
 40
0
 40
0
 40
1
 40
1
 40
1
 40
1
 10
127.306652
 20
-1.491028
 30
0.0
 10
127.306655
 20
-0.671864
 30
0.0
 10
126.649476
 20
-0.004188
 30
0.0
 10
125.830415
 20
0.008789
 30
0.0
  0
LINE
  5
29f
100
AcDbEntity
  8
Layer_1
 62
1
100
AcDbLine
 10
125.830415
 20
-11.335063
 30
0.0
 11
124.858023
 21
-11.350409
 31
0.0
  0
SPLINE
  5
2a0
100
AcDbEntity
  8
Layer_1
 62
1
100
AcDbSpline
 70
8
 71
3
 72
8
 73
4
 74
0
 40
0
 40
0
 40
0
 40
0
 40
1
 40
1
 40
1
 40
1
 10
125.830415
 20
-11.335063
 30
0.0
 10
126.649476
 20
-11.322086
 30
0.0
 10
127.306655
 20
-10.654410
 30
0.0
 10
127.306652
 20
-9.835246
 30
0.0
  0
SPLINE
  5
2a1
100
AcDbEntity
  8
Layer_1
 62
1
100
AcDbSpline
 70
8
 71
3
 72
8
 73
4
 74
0
 40
0
 40
0
 40
0
 40
0
 40
1
 40
1
 40
1
 40
1
 10
132.415103
 20
0.036861
 30
0.0
 10
132.415432
 20
0.322892
 30
0.0
 10
132.263025
 20
0.587337
 30
0.0
 10
132.015369
 20
0.730448
 30
0.0
  0
SPLINE
  5
2a2
100
AcDbEntity
  8
Layer_1
 62
1
100
AcDbSpline
 70
8
 71
3
 72
8
 73
4
 74
0
 40
0
 40
0
 40
0
 40
0
 40
1
 40
1
 40
1
 40
1
 10
132.015369
 20
0.730448
 30
0.0
 10
131.767713
 20
0.873559
 30
0.0
 10
131.462493
 20
0.873559
 30
0.0
 10
131.214838
 20
0.730448
 30
0.0
  0
SPLINE
  5
2a3
100
AcDbEntity
  8
Layer_1
 62
1
100
AcDbSpline
 70
8
 71
3
 72
8
 73
4
 74
0
 40
0
 40
0
 40
0
 40
0
 40
1
 40
1
 40
1
 40
1
 10
131.214838
 20
0.730448
 30
0.0
 10
130.967182
 20
0.587337
 30
0.0
 10
130.814775
 20
0.322892
 30
0.0
 10
130.815104
 20
0.036861
 30
0.0
  0
SPLINE
  5
2a4
100
AcDbEntity
  8
Layer_1
 62
1
100
AcDbSpline
 70
8
 71
3
 72
8
 73
4
 74
0
 40
0
 40
0
 40
0
 40
0
 40
1
 40
1
 40
1
 40
1
 10
130.815104
 20
0.036861
 30
0.0
 10
130.814775
 20
-0.249171
 30
0.0
 10
130.967182
 20
-0.513615
 30
0.0
 10
131.214838
 20
-0.656726
 30
0.0
  0
SPLINE
  5
2a5
100
AcDbEntity
  8
Layer_1
 62
1
100
AcDbSpline
 70
8
 71
3
 72
8
 73
4
 74
0
 40
0
 40
0
 40
0
 40
0
 40
1
 40
1
 40
1
 40
1
 10
131.214838
 20
-0.656726
 30
0.0
 10
131.462493
 20
-0.799837
 30
0.0
 10
131.767713
 20
-0.799837
 30
0.0
 10
132.015369
 20
-0.656726
 30
0.0
  0
SPLINE
  5
2a6
100
AcDbEntity
  8
Layer_1
 62
1
100
AcDbSpline
 70
8
 71
3
 72
8
 73
4
 74
0
 40
0
 40
0
 40
0
 40
0
 40
1
 40
1
 40
1
 40
1
 10
132.015369
 20
-0.656726
 30
0.0
 10
132.263025
 20
-0.513615
 30
0.0
 10
132.415432
 20
-0.249171
 30
0.0
 10
132.415103
 20
0.036861
 30
0.0
  0
LINE
  5
2a7
100
AcDbEntity
  8
Layer_1
 62
1
100
AcDbLine
 10
132.415103
 20
0.036861
 30
0.0
 11
132.415103
 21
0.036861
 31
0.0
  0
SPLINE
  5
2a8
100
AcDbEntity
  8
Layer_1
 62
1
100
AcDbSpline
 70
8
 71
3
 72
8
 73
4
 74
0
 40
0
 40
0
 40
0
 40
0
 40
1
 40
1
 40
1
 40
1
 10
132.415103
 20
-11.363135
 30
0.0
 10
132.415432
 20
-11.077104
 30
0.0
 10
132.263025
 20
-10.812659
 30
0.0
 10
132.015369
 20
-10.669548
 30
0.0
  0
SPLINE
  5
2a9
100
AcDbEntity
  8
Layer_1
 62
1
100
AcDbSpline
 70
8
 71
3
 72
8
 73
4
 74
0
 40
0
 40
0
 40
0
 40
0
 40
1
 40
1
 40
1
 40
1
 10
132.015369
 20
-10.669548
 30
0.0
 10
131.767713
 20
-10.526438
 30
0.0
 10
131.462493
 20
-10.526438
 30
0.0
 10
131.214838
 20
-10.669548
 30
0.0
  0
SPLINE
  5
2aa
100
AcDbEntity
  8
Layer_1
 62
1
100
AcDbSpline
 70
8
 71
3
 72
8
 73
4
 74
0
 40
0
 40
0
 40
0
 40
0
 40
1
 40
1
 40
1
 40
1
 10
131.214838
 20
-10.669548
 30
0.0
 10
130.967182
 20
-10.812659
 30
0.0
 10
130.814775
 20
-11.077104
 30
0.0
 10
130.815104
 20
-11.363135
 30
0.0
  0
SPLINE
  5
2ab
100
AcDbEntity
  8
Layer_1
 62
1
100
AcDbSpline
 70
8
 71
3
 72
8
 73
4
 74
0
 40
0
 40
0
 40
0
 40
0
 40
1
 40
1
 40
1
 40
1
 10
130.815104
 20
-11.363135
 30
0.0
 10
130.814775
 20
-11.649167
 30
0.0
 10
130.967182
 20
-11.913612
 30
0.0
 10
131.214838
 20
-12.056722
 30
0.0
  0
SPLINE
  5
2ac
100
AcDbEntity
  8
Layer_1
 62
1
100
AcDbSpline
 70
8
 71
3
 72
8
 73
4
 74
0
 40
0
 40
0
 40
0
 40
0
 40
1
 40
1
 40
1
 40
1
 10
131.214838
 20
-12.056722
 30
0.0
 10
131.462493
 20
-12.199833
 30
0.0
 10
131.767713
 20
-12.199833
 30
0.0
 10
132.015369
 20
-12.056722
 30
0.0
  0
SPLINE
  5
2ad
100
AcDbEntity
  8
Layer_1
 62
1
100
AcDbSpline
 70
8
 71
3
 72
8
 73
4
 74
0
 40
0
 40
0
 40
0
 40
0
 40
1
 40
1
 40
1
 40
1
 10
132.015369
 20
-12.056722
 30
0.0
 10
132.263025
 20
-11.913612
 30
0.0
 10
132.415432
 20
-11.649167
 30
0.0
 10
132.415103
 20
-11.363135
 30
0.0
  0
LINE
  5
2ae
100
AcDbEntity
  8
Layer_1
 62
1
100
AcDbLine
 10
132.415103
 20
-11.363135
 30
0.0
 11
132.415103
 21
-11.363135
 31
0.0
  0
LINE
  5
2af
100
AcDbEntity
  8
Layer_1
 62
1
100
AcDbLine
 10
132.415002
 20
0.024187
 30
0.0
 11
133.387396
 21
0.008842
 31
0.0
  0
LINE
  5
2b0
100
AcDbEntity
  8
Layer_1
 62
1
100
AcDbLine
 10
134.863631
 20
-1.491028
 30
0.0
 11
134.863631
 21
-9.835246
 31
0.0
  0
SPLINE
  5
2b1
100
AcDbEntity
  8
Layer_1
 62
1
100
AcDbSpline
 70
8
 71
3
 72
8
 73
4
 74
0
 40
0
 40
0
 40
0
 40
0
 40
1
 40
1
 40
1
 40
1
 10
134.863631
 20
-1.491028
 30
0.0
 10
134.863634
 20
-0.671865
 30
0.0
 10
134.206456
 20
-0.004190
 30
0.0
 10
133.387396
 20
0.008789
 30
0.0
  0
LINE
  5
2b2
100
AcDbEntity
  8
Layer_1
 62
1
100
AcDbLine
 10
133.387396
 20
-11.335063
 30
0.0
 11
132.415002
 21
-11.350409
 31
0.0
  0
SPLINE
  5
2b3
100
AcDbEntity
  8
Layer_1
 62
1
100
AcDbSpline
 70
8
 71
3
 72
8
 73
4
 74
0
 40
0
 40
0
 40
0
 40
0
 40
1
 40
1
 40
1
 40
1
 10
133.387396
 20
-11.335063
 30
0.0
 10
134.206456
 20
-11.322085
 30
0.0
 10
134.863634
 20
-10.654409
 30
0.0
 10
134.863631
 20
-9.835246
 30
0.0
  0
SPLINE
  5
2b4
100
AcDbEntity
  8
Layer_1
 62
1
100
AcDbSpline
 70
8
 71
3
 72
8
 73
4
 74
0
 40
0
 40
0
 40
0
 40
0
 40
1
 40
1
 40
1
 40
1
 10
139.972084
 20
0.036861
 30
0.0
 10
139.972413
 20
0.322892
 30
0.0
 10
139.820006
 20
0.587337
 30
0.0
 10
139.572350
 20
0.730448
 30
0.0
  0
SPLINE
  5
2b5
100
AcDbEntity
  8
Layer_1
 62
1
100
AcDbSpline
 70
8
 71
3
 72
8
 73
4
 74
0
 40
0
 40
0
 40
0
 40
0
 40
1
 40
1
 40
1
 40
1
 10
139.572350
 20
0.730448
 30
0.0
 10
139.324695
 20
0.873559
 30
0.0
 10
139.019475
 20
0.873559
 30
0.0
 10
138.771819
 20
0.730448
 30
0.0
  0
SPLINE
  5
2b6
100
AcDbEntity
  8
Layer_1
 62
1
100
AcDbSpline
 70
8
 71
3
 72
8
 73
4
 74
0
 40
0
 40
0
 40
0
 40
0
 40
1
 40
1
 40
1
 40
1
 10
138.771819
 20
0.730448
 30
0.0
 10
138.524163
 20
0.587337
 30
0.0
 10
138.371756
 20
0.322892
 30
0.0
 10
138.372085
 20
0.036861
 30
0.0
  0
SPLINE
  5
2b7
100
AcDbEntity
  8
Layer_1
 62
1
100
AcDbSpline
 70
8
 71
3
 72
8
 73
4
 74
0
 40
0
 40
0
 40
0
 40
0
 40
1
 40
1
 40
1
 40
1
 10
138.372085
 20
0.036861
 30
0.0
 10
138.371756
 20
-0.249171
 30
0.0
 10
138.524163
 20
-0.513615
 30
0.0
 10
138.771819
 20
-0.656726
 30
0.0
  0
SPLINE
  5
2b8
100
AcDbEntity
  8
Layer_1
 62
1
100
AcDbSpline
 70
8
 71
3
 72
8
 73
4
 74
0
 40
0
 40
0
 40
0
 40
0
 40
1
 40
1
 40
1
 40
1
 10
138.771819
 20
-0.656726
 30
0.0
 10
139.019475
 20
-0.799837
 30
0.0
 10
139.324695
 20
-0.799837
 30
0.0
 10
139.572350
 20
-0.656726
 30
0.0
  0
SPLINE
  5
2b9
100
AcDbEntity
  8
Layer_1
 62
1
100
AcDbSpline
 70
8
 71
3
 72
8
 73
4
 74
0
 40
0
 40
0
 40
0
 40
0
 40
1
 40
1
 40
1
 40
1
 10
139.572350
 20
-0.656726
 30
0.0
 10
139.820006
 20
-0.513615
 30
0.0
 10
139.972413
 20
-0.249171
 30
0.0
 10
139.972084
 20
0.036861
 30
0.0
  0
LINE
  5
2ba
100
AcDbEntity
  8
Layer_1
 62
1
100
AcDbLine
 10
139.972084
 20
0.036861
 30
0.0
 11
139.972084
 21
0.036861
 31
0.0
  0
SPLINE
  5
2bb
100
AcDbEntity
  8
Layer_1
 62
1
100
AcDbSpline
 70
8
 71
3
 72
8
 73
4
 74
0
 40
0
 40
0
 40
0
 40
0
 40
1
 40
1
 40
1
 40
1
 10
139.972084
 20
-11.363135
 30
0.0
 10
139.972413
 20
-11.077104
 30
0.0
 10
139.820006
 20
-10.812659
 30
0.0
 10
139.572350
 20
-10.669548
 30
0.0
  0
SPLINE
  5
2bc
100
AcDbEntity
  8
Layer_1
 62
1
100
AcDbSpline
 70
8
 71
3
 72
8
 73
4
 74
0
 40
0
 40
0
 40
0
 40
0
 40
1
 40
1
 40
1
 40
1
 10
139.572350
 20
-10.669548
 30
0.0
 10
139.324695
 20
-10.526438
 30
0.0
 10
139.019475
 20
-10.526438
 30
0.0
 10
138.771819
 20
-10.669548
 30
0.0
  0
SPLINE
  5
2bd
100
AcDbEntity
  8
Layer_1
 62
1
100
AcDbSpline
 70
8
 71
3
 72
8
 73
4
 74
0
 40
0
 40
0
 40
0
 40
0
 40
1
 40
1
 40
1
 40
1
 10
138.771819
 20
-10.669548
 30
0.0
 10
138.524163
 20
-10.812659
 30
0.0
 10
138.371756
 20
-11.077104
 30
0.0
 10
138.372085
 20
-11.363135
 30
0.0
  0
SPLINE
  5
2be
100
AcDbEntity
  8
Layer_1
 62
1
100
AcDbSpline
 70
8
 71
3
 72
8
 73
4
 74
0
 40
0
 40
0
 40
0
 40
0
 40
1
 40
1
 40
1
 40
1
 10
138.372085
 20
-11.363135
 30
0.0
 10
138.371756
 20
-11.649167
 30
0.0
 10
138.524163
 20
-11.913612
 30
0.0
 10
138.771819
 20
-12.056722
 30
0.0
  0
SPLINE
  5
2bf
100
AcDbEntity
  8
Layer_1
 62
1
100
AcDbSpline
 70
8
 71
3
 72
8
 73
4
 74
0
 40
0
 40
0
 40
0
 40
0
 40
1
 40
1
 40
1
 40
1
 10
138.771819
 20
-12.056722
 30
0.0
 10
139.019475
 20
-12.199833
 30
0.0
 10
139.324695
 20
-12.199833
 30
0.0
 10
139.572350
 20
-12.056722
 30
0.0
  0
SPLINE
  5
2c0
100
AcDbEntity
  8
Layer_1
 62
1
100
AcDbSpline
 70
8
 71
3
 72
8
 73
4
 74
0
 40
0
 40
0
 40
0
 40
0
 40
1
 40
1
 40
1
 40
1
 10
139.572350
 20
-12.056722
 30
0.0
 10
139.820006
 20
-11.913612
 30
0.0
 10
139.972413
 20
-11.649167
 30
0.0
 10
139.972084
 20
-11.363135
 30
0.0
  0
LINE
  5
2c1
100
AcDbEntity
  8
Layer_1
 62
1
100
AcDbLine
 10
139.972084
 20
-11.363135
 30
0.0
 11
139.972084
 21
-11.363135
 31
0.0
  0
LINE
  5
2c2
100
AcDbEntity
  8
Layer_1
 62
1
100
AcDbLine
 10
139.971984
 20
0.024187
 30
0.0
 11
140.944378
 21
0.008842
 31
0.0
  0
LINE
  5
2c3
100
AcDbEntity
  8
Layer_1
 62
1
100
AcDbLine
 10
142.420613
 20
-1.491028
 30
0.0
 11
142.420613
 21
-9.835246
 31
0.0
  0
SPLINE
  5
2c4
100
AcDbEntity
  8
Layer_1
 62
1
100
AcDbSpline
 70
8
 71
3
 72
8
 73
4
 74
0
 40
0
 40
0
 40
0
 40
0
 40
1
 40
1
 40
1
 40
1
 10
142.420613
 20
-1.491028
 30
0.0
 10
142.420615
 20
-0.671865
 30
0.0
 10
141.763438
 20
-0.004190
 30
0.0
 10
140.944378
 20
0.008789
 30
0.0
  0
LINE
  5
2c5
100
AcDbEntity
  8
Layer_1
 62
1
100
AcDbLine
 10
140.944378
 20
-11.335063
 30
0.0
 11
139.971984
 21
-11.350409
 31
0.0
  0
SPLINE
  5
2c6
100
AcDbEntity
  8
Layer_1
 62
1
100
AcDbSpline
 70
8
 71
3
 72
8
 73
4
 74
0
 40
0
 40
0
 40
0
 40
0
 40
1
 40
1
 40
1
 40
1
 10
140.944378
 20
-11.335063
 30
0.0
 10
141.763438
 20
-11.322085
 30
0.0
 10
142.420615
 20
-10.654409
 30
0.0
 10
142.420613
 20
-9.835246
 30
0.0
  0
SPLINE
  5
2c7
100
AcDbEntity
  8
Layer_1
 62
1
100
AcDbSpline
 70
8
 71
3
 72
8
 73
4
 74
0
 40
0
 40
0
 40
0
 40
0
 40
1
 40
1
 40
1
 40
1
 10
147.529066
 20
0.036861
 30
0.0
 10
147.529395
 20
0.322892
 30
0.0
 10
147.376988
 20
0.587337
 30
0.0
 10
147.129332
 20
0.730448
 30
0.0
  0
SPLINE
  5
2c8
100
AcDbEntity
  8
Layer_1
 62
1
100
AcDbSpline
 70
8
 71
3
 72
8
 73
4
 74
0
 40
0
 40
0
 40
0
 40
0
 40
1
 40
1
 40
1
 40
1
 10
147.129332
 20
0.730448
 30
0.0
 10
146.881676
 20
0.873559
 30
0.0
 10
146.576457
 20
0.873559
 30
0.0
 10
146.328801
 20
0.730448
 30
0.0
  0
SPLINE
  5
2c9
100
AcDbEntity
  8
Layer_1
 62
1
100
AcDbSpline
 70
8
 71
3
 72
8
 73
4
 74
0
 40
0
 40
0
 40
0
 40
0
 40
1
 40
1
 40
1
 40
1
 10
146.328801
 20
0.730448
 30
0.0
 10
146.081145
 20
0.587337
 30
0.0
 10
145.928738
 20
0.322892
 30
0.0
 10
145.929067
 20
0.036861
 30
0.0
  0
SPLINE
  5
2ca
100
AcDbEntity
  8
Layer_1
 62
1
100
AcDbSpline
 70
8
 71
3
 72
8
 73
4
 74
0
 40
0
 40
0
 40
0
 40
0
 40
1
 40
1
 40
1
 40
1
 10
145.929067
 20
0.036861
 30
0.0
 10
145.928738
 20
-0.249171
 30
0.0
 10
146.081145
 20
-0.513615
 30
0.0
 10
146.328801
 20
-0.656726
 30
0.0
  0
SPLINE
  5
2cb
100
AcDbEntity
  8
Layer_1
 62
1
100
AcDbSpline
 70
8
 71
3
 72
8
 73
4
 74
0
 40
0
 40
0
 40
0
 40
0
 40
1
 40
1
 40
1
 40
1
 10
146.328801
 20
-0.656726
 30
0.0
 10
146.576457
 20
-0.799837
 30
0.0
 10
146.881676
 20
-0.799837
 30
0.0
 10
147.129332
 20
-0.656726
 30
0.0
  0
SPLINE
  5
2cc
100
AcDbEntity
  8
Layer_1
 62
1
100
AcDbSpline
 70
8
 71
3
 72
8
 73
4
 74
0
 40
0
 40
0
 40
0
 40
0
 40
1
 40
1
 40
1
 40
1
 10
147.129332
 20
-0.656726
 30
0.0
 10
147.376988
 20
-0.513615
 30
0.0
 10
147.529395
 20
-0.249171
 30
0.0
 10
147.529066
 20
0.036861
 30
0.0
  0
LINE
  5
2cd
100
AcDbEntity
  8
Layer_1
 62
1
100
AcDbLine
 10
147.529066
 20
0.036861
 30
0.0
 11
147.529066
 21
0.036861
 31
0.0
  0
SPLINE
  5
2ce
100
AcDbEntity
  8
Layer_1
 62
1
100
AcDbSpline
 70
8
 71
3
 72
8
 73
4
 74
0
 40
0
 40
0
 40
0
 40
0
 40
1
 40
1
 40
1
 40
1
 10
147.529066
 20
-11.363135
 30
0.0
 10
147.529395
 20
-11.077104
 30
0.0
 10
147.376988
 20
-10.812659
 30
0.0
 10
147.129332
 20
-10.669548
 30
0.0
  0
SPLINE
  5
2cf
100
AcDbEntity
  8
Layer_1
 62
1
100
AcDbSpline
 70
8
 71
3
 72
8
 73
4
 74
0
 40
0
 40
0
 40
0
 40
0
 40
1
 40
1
 40
1
 40
1
 10
147.129332
 20
-10.669548
 30
0.0
 10
146.881676
 20
-10.526438
 30
0.0
 10
146.576457
 20
-10.526438
 30
0.0
 10
146.328801
 20
-10.669548
 30
0.0
  0
SPLINE
  5
2d0
100
AcDbEntity
  8
Layer_1
 62
1
100
AcDbSpline
 70
8
 71
3
 72
8
 73
4
 74
0
 40
0
 40
0
 40
0
 40
0
 40
1
 40
1
 40
1
 40
1
 10
146.328801
 20
-10.669548
 30
0.0
 10
146.081145
 20
-10.812659
 30
0.0
 10
145.928738
 20
-11.077104
 30
0.0
 10
145.929067
 20
-11.363135
 30
0.0
  0
SPLINE
  5
2d1
100
AcDbEntity
  8
Layer_1
 62
1
100
AcDbSpline
 70
8
 71
3
 72
8
 73
4
 74
0
 40
0
 40
0
 40
0
 40
0
 40
1
 40
1
 40
1
 40
1
 10
145.929067
 20
-11.363135
 30
0.0
 10
145.928738
 20
-11.649167
 30
0.0
 10
146.081145
 20
-11.913612
 30
0.0
 10
146.328801
 20
-12.056722
 30
0.0
  0
SPLINE
  5
2d2
100
AcDbEntity
  8
Layer_1
 62
1
100
AcDbSpline
 70
8
 71
3
 72
8
 73
4
 74
0
 40
0
 40
0
 40
0
 40
0
 40
1
 40
1
 40
1
 40
1
 10
146.328801
 20
-12.056722
 30
0.0
 10
146.576457
 20
-12.199833
 30
0.0
 10
146.881676
 20
-12.199833
 30
0.0
 10
147.129332
 20
-12.056722
 30
0.0
  0
SPLINE
  5
2d3
100
AcDbEntity
  8
Layer_1
 62
1
100
AcDbSpline
 70
8
 71
3
 72
8
 73
4
 74
0
 40
0
 40
0
 40
0
 40
0
 40
1
 40
1
 40
1
 40
1
 10
147.129332
 20
-12.056722
 30
0.0
 10
147.376988
 20
-11.913612
 30
0.0
 10
147.529395
 20
-11.649167
 30
0.0
 10
147.529066
 20
-11.363135
 30
0.0
  0
LINE
  5
2d4
100
AcDbEntity
  8
Layer_1
 62
1
100
AcDbLine
 10
147.529066
 20
-11.363135
 30
0.0
 11
147.529066
 21
-11.363135
 31
0.0
  0
LINE
  5
2d5
100
AcDbEntity
  8
Layer_1
 62
1
100
AcDbLine
 10
147.528965
 20
0.024187
 30
0.0
 11
148.501357
 21
0.008842
 31
0.0
  0
LINE
  5
2d6
100
AcDbEntity
  8
Layer_1
 62
1
100
AcDbLine
 10
149.977594
 20
-1.491028
 30
0.0
 11
149.977594
 21
-9.835246
 31
0.0
  0
SPLINE
  5
2d7
100
AcDbEntity
  8
Layer_1
 62
1
100
AcDbSpline
 70
8
 71
3
 72
8
 73
4
 74
0
 40
0
 40
0
 40
0
 40
0
 40
1
 40
1
 40
1
 40
1
 10
149.977594
 20
-1.491028
 30
0.0
 10
149.977597
 20
-0.671864
 30
0.0
 10
149.320418
 20
-0.004188
 30
0.0
 10
148.501357
 20
0.008789
 30
0.0
  0
LINE
  5
2d8
100
AcDbEntity
  8
Layer_1
 62
1
100
AcDbLine
 10
148.501357
 20
-11.335063
 30
0.0
 11
147.528965
 21
-11.350409
 31
0.0
  0
SPLINE
  5
2d9
100
AcDbEntity
  8
Layer_1
 62
1
100
AcDbSpline
 70
8
 71
3
 72
8
 73
4
 74
0
 40
0
 40
0
 40
0
 40
0
 40
1
 40
1
 40
1
 40
1
 10
148.501357
 20
-11.335063
 30
0.0
 10
149.320418
 20
-11.322086
 30
0.0
 10
149.977597
 20
-10.654410
 30
0.0
 10
149.977594
 20
-9.835246
 30
0.0
  0
SPLINE
  5
2da
100
AcDbEntity
  8
Layer_1
 62
1
100
AcDbSpline
 70
8
 71
3
 72
8
 73
4
 74
0
 40
0
 40
0
 40
0
 40
0
 40
1
 40
1
 40
1
 40
1
 10
155.086047
 20
0.036861
 30
0.0
 10
155.086047
 20
0.322674
 30
0.0
 10
154.933568
 20
0.586776
 30
0.0
 10
154.686047
 20
0.729682
 30
0.0
  0
SPLINE
  5
2db
100
AcDbEntity
  8
Layer_1
 62
1
100
AcDbSpline
 70
8
 71
3
 72
8
 73
4
 74
0
 40
0
 40
0
 40
0
 40
0
 40
1
 40
1
 40
1
 40
1
 10
154.686047
 20
0.729682
 30
0.0
 10
154.438526
 20
0.872588
 30
0.0
 10
154.133567
 20
0.872588
 30
0.0
 10
153.886046
 20
0.729682
 30
0.0
  0
SPLINE
  5
2dc
100
AcDbEntity
  8
Layer_1
 62
1
100
AcDbSpline
 70
8
 71
3
 72
8
 73
4
 74
0
 40
0
 40
0
 40
0
 40
0
 40
1
 40
1
 40
1
 40
1
 10
153.886046
 20
0.729682
 30
0.0
 10
153.638525
 20
0.586776
 30
0.0
 10
153.486046
 20
0.322674
 30
0.0
 10
153.486046
 20
0.036861
 30
0.0
  0
SPLINE
  5
2dd
100
AcDbEntity
  8
Layer_1
 62
1
100
AcDbSpline
 70
8
 71
3
 72
8
 73
4
 74
0
 40
0
 40
0
 40
0
 40
0
 40
1
 40
1
 40
1
 40
1
 10
153.486046
 20
0.036861
 30
0.0
 10
153.486046
 20
-0.248952
 30
0.0
 10
153.638525
 20
-0.513054
 30
0.0
 10
153.886046
 20
-0.655960
 30
0.0
  0
SPLINE
  5
2de
100
AcDbEntity
  8
Layer_1
 62
1
100
AcDbSpline
 70
8
 71
3
 72
8
 73
4
 74
0
 40
0
 40
0
 40
0
 40
0
 40
1
 40
1
 40
1
 40
1
 10
153.886046
 20
-0.655960
 30
0.0
 10
154.133567
 20
-0.798866
 30
0.0
 10
154.438526
 20
-0.798866
 30
0.0
 10
154.686047
 20
-0.655960
 30
0.0
  0
SPLINE
  5
2df
100
AcDbEntity
  8
Layer_1
 62
1
100
AcDbSpline
 70
8
 71
3
 72
8
 73
4
 74
0
 40
0
 40
0
 40
0
 40
0
 40
1
 40
1
 40
1
 40
1
 10
154.686047
 20
-0.655960
 30
0.0
 10
154.933568
 20
-0.513054
 30
0.0
 10
155.086047
 20
-0.248952
 30
0.0
 10
155.086047
 20
0.036861
 30
0.0
  0
LINE
  5
2e0
100
AcDbEntity
  8
Layer_1
 62
1
100
AcDbLine
 10
155.086047
 20
0.036861
 30
0.0
 11
155.086047
 21
0.036861
 31
0.0
  0
SPLINE
  5
2e1
100
AcDbEntity
  8
Layer_1
 62
1
100
AcDbSpline
 70
8
 71
3
 72
8
 73
4
 74
0
 40
0
 40
0
 40
0
 40
0
 40
1
 40
1
 40
1
 40
1
 10
155.086047
 20
-11.363135
 30
0.0
 10
155.086047
 20
-11.077323
 30
0.0
 10
154.933568
 20
-10.813221
 30
0.0
 10
154.686047
 20
-10.670314
 30
0.0
  0
SPLINE
  5
2e2
100
AcDbEntity
  8
Layer_1
 62
1
100
AcDbSpline
 70
8
 71
3
 72
8
 73
4
 74
0
 40
0
 40
0
 40
0
 40
0
 40
1
 40
1
 40
1
 40
1
 10
154.686047
 20
-10.670314
 30
0.0
 10
154.438526
 20
-10.527408
 30
0.0
 10
154.133567
 20
-10.527408
 30
0.0
 10
153.886046
 20
-10.670314
 30
0.0
  0
SPLINE
  5
2e3
100
AcDbEntity
  8
Layer_1
 62
1
100
AcDbSpline
 70
8
 71
3
 72
8
 73
4
 74
0
 40
0
 40
0
 40
0
 40
0
 40
1
 40
1
 40
1
 40
1
 10
153.886046
 20
-10.670314
 30
0.0
 10
153.638525
 20
-10.813221
 30
0.0
 10
153.486046
 20
-11.077323
 30
0.0
 10
153.486046
 20
-11.363135
 30
0.0
  0
SPLINE
  5
2e4
100
AcDbEntity
  8
Layer_1
 62
1
100
AcDbSpline
 70
8
 71
3
 72
8
 73
4
 74
0
 40
0
 40
0
 40
0
 40
0
 40
1
 40
1
 40
1
 40
1
 10
153.486046
 20
-11.363135
 30
0.0
 10
153.486046
 20
-11.648948
 30
0.0
 10
153.638525
 20
-11.913050
 30
0.0
 10
153.886046
 20
-12.055956
 30
0.0
  0
SPLINE
  5
2e5
100
AcDbEntity
  8
Layer_1
 62
1
100
AcDbSpline
 70
8
 71
3
 72
8
 73
4
 74
0
 40
0
 40
0
 40
0
 40
0
 40
1
 40
1
 40
1
 40
1
 10
153.886046
 20
-12.055956
 30
0.0
 10
154.133567
 20
-12.198863
 30
0.0
 10
154.438526
 20
-12.198863
 30
0.0
 10
154.686047
 20
-12.055956
 30
0.0
  0
SPLINE
  5
2e6
100
AcDbEntity
  8
Layer_1
 62
1
100
AcDbSpline
 70
8
 71
3
 72
8
 73
4
 74
0
 40
0
 40
0
 40
0
 40
0
 40
1
 40
1
 40
1
 40
1
 10
154.686047
 20
-12.055956
 30
0.0
 10
154.933568
 20
-11.913050
 30
0.0
 10
155.086047
 20
-11.648948
 30
0.0
 10
155.086047
 20
-11.363135
 30
0.0
  0
LINE
  5
2e7
100
AcDbEntity
  8
Layer_1
 62
1
100
AcDbLine
 10
155.086047
 20
-11.363135
 30
0.0
 11
155.086047
 21
-11.363135
 31
0.0
  0
LINE
  5
2e8
100
AcDbEntity
  8
Layer_1
 62
1
100
AcDbLine
 10
155.085947
 20
0.024187
 30
0.0
 11
156.058338
 21
0.008842
 31
0.0
  0
LINE
  5
2e9
100
AcDbEntity
  8
Layer_1
 62
1
100
AcDbLine
 10
157.534576
 20
-1.491028
 30
0.0
 11
157.534576
 21
-9.835246
 31
0.0
  0
SPLINE
  5
2ea
100
AcDbEntity
  8
Layer_1
 62
1
100
AcDbSpline
 70
8
 71
3
 72
8
 73
4
 74
0
 40
0
 40
0
 40
0
 40
0
 40
1
 40
1
 40
1
 40
1
 10
157.534576
 20
-1.491028
 30
0.0
 10
157.534579
 20
-0.671864
 30
0.0
 10
156.877400
 20
-0.004188
 30
0.0
 10
156.058338
 20
0.008789
 30
0.0
  0
LINE
  5
2eb
100
AcDbEntity
  8
Layer_1
 62
1
100
AcDbLine
 10
156.058338
 20
-11.335063
 30
0.0
 11
155.085947
 21
-11.350409
 31
0.0
  0
SPLINE
  5
2ec
100
AcDbEntity
  8
Layer_1
 62
1
100
AcDbSpline
 70
8
 71
3
 72
8
 73
4
 74
0
 40
0
 40
0
 40
0
 40
0
 40
1
 40
1
 40
1
 40
1
 10
156.058338
 20
-11.335063
 30
0.0
 10
156.877400
 20
-11.322086
 30
0.0
 10
157.534579
 20
-10.654410
 30
0.0
 10
157.534576
 20
-9.835246
 30
0.0
  0
LINE
  5
2ed
100
AcDbEntity
  8
Layer_1
 62
5
100
AcDbLine
 10
52.945379
 20
52.118455
 30
0.0
 11
53.474546
 21
52.383038
 31
0.0
  0
LINE
  5
2ee
100
AcDbEntity
  8
Layer_1
 62
5
100
AcDbLine
 10
53.474546
 20
52.383038
 30
0.0
 11
54.268296
 21
53.176788
 31
0.0
  0
LINE
  5
2ef
100
AcDbEntity
  8
Layer_1
 62
5
100
AcDbLine
 10
54.268296
 20
53.176788
 30
0.0
 11
54.268296
 21
47.620538
 31
0.0
  0
LINE
  5
2f0
100
AcDbEntity
  8
Layer_1
 62
5
100
AcDbLine
 10
20.983968
 20
53.288022
 30
0.0
 11
20.983968
 21
47.731772
 31
0.0
  0
LINE
  5
2f1
100
AcDbEntity
  8
Layer_1
 62
5
100
AcDbLine
 10
24.688134
 20
53.288022
 30
0.0
 11
24.688134
 21
47.731772
 31
0.0
  0
LINE
  5
2f2
100
AcDbEntity
  8
Layer_1
 62
5
100
AcDbLine
 10
20.983968
 20
50.642188
 30
0.0
 11
24.688134
 21
50.642188
 31
0.0
  0
LINE
  5
2f3
100
AcDbEntity
  8
Layer_1
 62
5
100
AcDbLine
 10
26.275633
 20
51.435938
 30
0.0
 11
27.863133
 21
47.731772
 31
0.0
  0
LINE
  5
2f4
100
AcDbEntity
  8
Layer_1
 62
5
100
AcDbLine
 10
29.450633
 20
51.435938
 30
0.0
 11
27.863133
 21
47.731772
 31
0.0
  0
LINE
  5
2f5
100
AcDbEntity
  8
Layer_1
 62
5
100
AcDbLine
 10
27.863133
 20
47.731772
 30
0.0
 11
27.333967
 21
46.673438
 31
0.0
  0
LINE
  5
2f6
100
AcDbEntity
  8
Layer_1
 62
5
100
AcDbLine
 10
27.333967
 20
46.673438
 30
0.0
 11
26.804800
 21
46.144272
 31
0.0
  0
LINE
  5
2f7
100
AcDbEntity
  8
Layer_1
 62
5
100
AcDbLine
 10
26.804800
 20
46.144272
 30
0.0
 11
26.275633
 21
45.879688
 31
0.0
  0
LINE
  5
2f8
100
AcDbEntity
  8
Layer_1
 62
5
100
AcDbLine
 10
26.275633
 20
45.879688
 30
0.0
 11
26.011050
 21
45.879688
 31
0.0
  0
LINE
  5
2f9
100
AcDbEntity
  8
Layer_1
 62
5
100
AcDbLine
 10
31.038133
 20
53.288022
 30
0.0
 11
31.038133
 21
47.731772
 31
0.0
  0
LINE
  5
2fa
100
AcDbEntity
  8
Layer_1
 62
5
100
AcDbLine
 10
31.038133
 20
50.642188
 30
0.0
 11
31.567300
 21
51.171355
 31
0.0
  0
LINE
  5
2fb
100
AcDbEntity
  8
Layer_1
 62
5
100
AcDbLine
 10
31.567300
 20
51.171355
 30
0.0
 11
32.096467
 21
51.435938
 31
0.0
  0
LINE
  5
2fc
100
AcDbEntity
  8
Layer_1
 62
5
100
AcDbLine
 10
32.096467
 20
51.435938
 30
0.0
 11
32.890217
 21
51.435938
 31
0.0
  0
LINE
  5
2fd
100
AcDbEntity
  8
Layer_1
 62
5
100
AcDbLine
 10
32.890217
 20
51.435938
 30
0.0
 11
33.419383
 21
51.171355
 31
0.0
  0
LINE
  5
2fe
100
AcDbEntity
  8
Layer_1
 62
5
100
AcDbLine
 10
33.419383
 20
51.171355
 30
0.0
 11
33.948550
 21
50.642188
 31
0.0
  0
LINE
  5
2ff
100
AcDbEntity
  8
Layer_1
 62
5
100
AcDbLine
 10
33.948550
 20
50.642188
 30
0.0
 11
34.213133
 21
49.848438
 31
0.0
  0
LINE
  5
300
100
AcDbEntity
  8
Layer_1
 62
5
100
AcDbLine
 10
34.213133
 20
49.848438
 30
0.0
 11
34.213133
 21
49.319272
 31
0.0
  0
LINE
  5
301
100
AcDbEntity
  8
Layer_1
 62
5
100
AcDbLine
 10
34.213133
 20
49.319272
 30
0.0
 11
33.948550
 21
48.525522
 31
0.0
  0
LINE
  5
302
100
AcDbEntity
  8
Layer_1
 62
5
100
AcDbLine
 10
33.948550
 20
48.525522
 30
0.0
 11
33.419383
 21
47.996355
 31
0.0
  0
LINE
  5
303
100
AcDbEntity
  8
Layer_1
 62
5
100
AcDbLine
 10
33.419383
 20
47.996355
 30
0.0
 11
32.890217
 21
47.731772
 31
0.0
  0
LINE
  5
304
100
AcDbEntity
  8
Layer_1
 62
5
100
AcDbLine
 10
32.890217
 20
47.731772
 30
0.0
 11
32.096467
 21
47.731772
 31
0.0
  0
LINE
  5
305
100
AcDbEntity
  8
Layer_1
 62
5
100
AcDbLine
 10
32.096467
 20
47.731772
 30
0.0
 11
31.567300
 21
47.996355
 31
0.0
  0
LINE
  5
306
100
AcDbEntity
  8
Layer_1
 62
5
100
AcDbLine
 10
31.567300
 20
47.996355
 30
0.0
 11
31.038133
 21
48.525522
 31
0.0
  0
LINE
  5
307
100
AcDbEntity
  8
Layer_1
 62
5
100
AcDbLine
 10
36.065217
 20
51.435938
 30
0.0
 11
36.065217
 21
47.731772
 31
0.0
  0
LINE
  5
308
100
AcDbEntity
  8
Layer_1
 62
5
100
AcDbLine
 10
36.065217
 20
49.848438
 30
0.0
 11
36.329800
 21
50.642188
 31
0.0
  0
LINE
  5
309
100
AcDbEntity
  8
Layer_1
 62
5
100
AcDbLine
 10
36.329800
 20
50.642188
 30
0.0
 11
36.858967
 21
51.171355
 31
0.0
  0
LINE
  5
30a
100
AcDbEntity
  8
Layer_1
 62
5
100
AcDbLine
 10
36.858967
 20
51.171355
 30
0.0
 11
37.388133
 21
51.435938
 31
0.0
  0
LINE
  5
30b
100
AcDbEntity
  8
Layer_1
 62
5
100
AcDbLine
 10
37.388133
 20
51.435938
 30
0.0
 11
38.181883
 21
51.435938
 31
0.0
  0
LINE
  5
30c
100
AcDbEntity
  8
Layer_1
 62
5
100
AcDbLine
 10
39.240217
 20
53.288022
 30
0.0
 11
39.504800
 21
53.023438
 31
0.0
  0
LINE
  5
30d
100
AcDbEntity
  8
Layer_1
 62
5
100
AcDbLine
 10
39.504800
 20
53.023438
 30
0.0
 11
39.769383
 21
53.288022
 31
0.0
  0
LINE
  5
30e
100
AcDbEntity
  8
Layer_1
 62
5
100
AcDbLine
 10
39.769383
 20
53.288022
 30
0.0
 11
39.504800
 21
53.552605
 31
0.0
  0
LINE
  5
30f
100
AcDbEntity
  8
Layer_1
 62
5
100
AcDbLine
 10
39.504800
 20
53.552605
 30
0.0
 11
39.240217
 21
53.288022
 31
0.0
  0
LINE
  5
310
100
AcDbEntity
  8
Layer_1
 62
5
100
AcDbLine
 10
39.504800
 20
51.435938
 30
0.0
 11
39.504800
 21
47.731772
 31
0.0
  0
LINE
  5
311
100
AcDbEntity
  8
Layer_1
 62
5
100
AcDbLine
 10
44.531883
 20
53.288022
 30
0.0
 11
44.531883
 21
47.731772
 31
0.0
  0
LINE
  5
312
100
AcDbEntity
  8
Layer_1
 62
5
100
AcDbLine
 10
44.531883
 20
50.642188
 30
0.0
 11
44.002717
 21
51.171355
 31
0.0
  0
LINE
  5
313
100
AcDbEntity
  8
Layer_1
 62
5
100
AcDbLine
 10
44.002717
 20
51.171355
 30
0.0
 11
43.473550
 21
51.435938
 31
0.0
  0
LINE
  5
314
100
AcDbEntity
  8
Layer_1
 62
5
100
AcDbLine
 10
43.473550
 20
51.435938
 30
0.0
 11
42.679800
 21
51.435938
 31
0.0
  0
LINE
  5
315
100
AcDbEntity
  8
Layer_1
 62
5
100
AcDbLine
 10
42.679800
 20
51.435938
 30
0.0
 11
42.150633
 21
51.171355
 31
0.0
  0
LINE
  5
316
100
AcDbEntity
  8
Layer_1
 62
5
100
AcDbLine
 10
42.150633
 20
51.171355
 30
0.0
 11
41.621467
 21
50.642188
 31
0.0
  0
LINE
  5
317
100
AcDbEntity
  8
Layer_1
 62
5
100
AcDbLine
 10
41.621467
 20
50.642188
 30
0.0
 11
41.356883
 21
49.848438
 31
0.0
  0
LINE
  5
318
100
AcDbEntity
  8
Layer_1
 62
5
100
AcDbLine
 10
41.356883
 20
49.848438
 30
0.0
 11
41.356883
 21
49.319272
 31
0.0
  0
LINE
  5
319
100
AcDbEntity
  8
Layer_1
 62
5
100
AcDbLine
 10
41.356883
 20
49.319272
 30
0.0
 11
41.621467
 21
48.525522
 31
0.0
  0
LINE
  5
31a
100
AcDbEntity
  8
Layer_1
 62
5
100
AcDbLine
 10
41.621467
 20
48.525522
 30
0.0
 11
42.150633
 21
47.996355
 31
0.0
  0
LINE
  5
31b
100
AcDbEntity
  8
Layer_1
 62
5
100
AcDbLine
 10
42.150633
 20
47.996355
 30
0.0
 11
42.679800
 21
47.731772
 31
0.0
  0
LINE
  5
31c
100
AcDbEntity
  8
Layer_1
 62
5
100
AcDbLine
 10
42.679800
 20
47.731772
 30
0.0
 11
43.473550
 21
47.731772
 31
0.0
  0
LINE
  5
31d
100
AcDbEntity
  8
Layer_1
 62
5
100
AcDbLine
 10
43.473550
 20
47.731772
 30
0.0
 11
44.002717
 21
47.996355
 31
0.0
  0
LINE
  5
31e
100
AcDbEntity
  8
Layer_1
 62
5
100
AcDbLine
 10
44.002717
 20
47.996355
 30
0.0
 11
44.531883
 21
48.525522
 31
0.0
  0
SPLINE
  5
31f
100
AcDbEntity
  8
Layer_1
 62
1
100
AcDbSpline
 70
8
 71
3
 72
8
 73
4
 74
0
 40
0
 40
0
 40
0
 40
0
 40
1
 40
1
 40
1
 40
1
 10
25.287393
 20
15.611453
 30
0.0
 10
25.287393
 20
15.289914
 30
0.0
 10
25.458932
 20
14.992800
 30
0.0
 10
25.737393
 20
14.832030
 30
0.0
  0
SPLINE
  5
320
100
AcDbEntity
  8
Layer_1
 62
1
100
AcDbSpline
 70
8
 71
3
 72
8
 73
4
 74
0
 40
0
 40
0
 40
0
 40
0
 40
1
 40
1
 40
1
 40
1
 10
25.737393
 20
14.832030
 30
0.0
 10
26.015854
 20
14.671261
 30
0.0
 10
26.358932
 20
14.671261
 30
0.0
 10
26.637393
 20
14.832030
 30
0.0
  0
SPLINE
  5
321
100
AcDbEntity
  8
Layer_1
 62
1
100
AcDbSpline
 70
8
 71
3
 72
8
 73
4
 74
0
 40
0
 40
0
 40
0
 40
0
 40
1
 40
1
 40
1
 40
1
 10
26.637393
 20
14.832030
 30
0.0
 10
26.915854
 20
14.992800
 30
0.0
 10
27.087393
 20
15.289914
 30
0.0
 10
27.087393
 20
15.611453
 30
0.0
  0
LINE
  5
322
100
AcDbEntity
  8
Layer_1
 62
1
100
AcDbLine
 10
25.287393
 20
15.611453
 30
0.0
 11
25.287393
 21
35.111462
 31
0.0
  0
SPLINE
  5
323
100
AcDbEntity
  8
Layer_1
 62
1
100
AcDbSpline
 70
8
 71
3
 72
8
 73
4
 74
0
 40
0
 40
0
 40
0
 40
0
 40
1
 40
1
 40
1
 40
1
 10
27.087393
 20
35.111462
 30
0.0
 10
27.087393
 20
35.433001
 30
0.0
 10
26.915854
 20
35.730115
 30
0.0
 10
26.637393
 20
35.890885
 30
0.0
  0
SPLINE
  5
324
100
AcDbEntity
  8
Layer_1
 62
1
100
AcDbSpline
 70
8
 71
3
 72
8
 73
4
 74
0
 40
0
 40
0
 40
0
 40
0
 40
1
 40
1
 40
1
 40
1
 10
26.637393
 20
35.890885
 30
0.0
 10
26.358932
 20
36.051654
 30
0.0
 10
26.015854
 20
36.051654
 30
0.0
 10
25.737393
 20
35.890885
 30
0.0
  0
SPLINE
  5
325
100
AcDbEntity
  8
Layer_1
 62
1
100
AcDbSpline
 70
8
 71
3
 72
8
 73
4
 74
0
 40
0
 40
0
 40
0
 40
0
 40
1
 40
1
 40
1
 40
1
 10
25.737393
 20
35.890885
 30
0.0
 10
25.458932
 20
35.730115
 30
0.0
 10
25.287393
 20
35.433001
 30
0.0
 10
25.287393
 20
35.111462
 30
0.0
  0
LINE
  5
326
100
AcDbEntity
  8
Layer_1
 62
1
100
AcDbLine
 10
27.087393
 20
35.111462
 30
0.0
 11
27.087393
 21
15.611453
 31
0.0
  0
LINE
  5
327
100
AcDbEntity
  8
Layer_1
 62
1
100
AcDbLine
 10
10.287393
 20
15.611453
 30
0.0
 11
10.287393
 21
35.111462
 31
0.0
  0
SPLINE
  5
328
100
AcDbEntity
  8
Layer_1
 62
1
100
AcDbSpline
 70
8
 71
3
 72
8
 73
4
 74
0
 40
0
 40
0
 40
0
 40
0
 40
1
 40
1
 40
1
 40
1
 10
12.087392
 20
35.111462
 30
0.0
 10
12.087123
 20
35.608327
 30
0.0
 10
11.684258
 20
36.010974
 30
0.0
 10
11.187393
 20
36.010974
 30
0.0
  0
SPLINE
  5
329
100
AcDbEntity
  8
Layer_1
 62
1
100
AcDbSpline
 70
8
 71
3
 72
8
 73
4
 74
0
 40
0
 40
0
 40
0
 40
0
 40
1
 40
1
 40
1
 40
1
 10
11.187393
 20
36.010974
 30
0.0
 10
10.690527
 20
36.010974
 30
0.0
 10
10.287662
 20
35.608327
 30
0.0
 10
10.287393
 20
35.111462
 30
0.0
  0
LINE
  5
32a
100
AcDbEntity
  8
Layer_1
 62
1
100
AcDbLine
 10
12.087392
 20
35.111462
 30
0.0
 11
12.087392
 21
15.611453
 31
0.0
  0
SPLINE
  5
32b
100
AcDbEntity
  8
Layer_1
 62
1
100
AcDbSpline
 70
8
 71
3
 72
8
 73
4
 74
0
 40
0
 40
0
 40
0
 40
0
 40
1
 40
1
 40
1
 40
1
 10
10.287393
 20
15.611453
 30
0.0
 10
10.287662
 20
15.114587
 30
0.0
 10
10.690527
 20
14.711941
 30
0.0
 10
11.187393
 20
14.711941
 30
0.0
  0
SPLINE
  5
32c
100
AcDbEntity
  8
Layer_1
 62
1
100
AcDbSpline
 70
8
 71
3
 72
8
 73
4
 74
0
 40
0
 40
0
 40
0
 40
0
 40
1
 40
1
 40
1
 40
1
 10
11.187393
 20
14.711941
 30
0.0
 10
11.684258
 20
14.711941
 30
0.0
 10
12.087123
 20
15.114587
 30
0.0
 10
12.087392
 20
15.611453
 30
0.0
  0
LINE
  5
32d
100
AcDbEntity
  8
Layer_1
 62
1
100
AcDbLine
 10
38.374288
 20
31.961459
 30
0.0
 11
56.274290
 21
31.961459
 31
0.0
  0
SPLINE
  5
32e
100
AcDbEntity
  8
Layer_1
 62
1
100
AcDbSpline
 70
8
 71
3
 72
8
 73
4
 74
0
 40
0
 40
0
 40
0
 40
0
 40
1
 40
1
 40
1
 40
1
 10
56.274290
 20
31.961459
 30
0.0
 10
56.512987
 20
31.961460
 30
0.0
 10
56.741908
 20
32.056283
 30
0.0
 10
56.910690
 20
32.225069
 30
0.0
  0
SPLINE
  5
32f
100
AcDbEntity
  8
Layer_1
 62
1
100
AcDbSpline
 70
8
 71
3
 72
8
 73
4
 74
0
 40
0
 40
0
 40
0
 40
0
 40
1
 40
1
 40
1
 40
1
 10
56.910690
 20
32.225069
 30
0.0
 10
57.079473
 20
32.393855
 30
0.0
 10
57.174293
 20
32.622777
 30
0.0
 10
57.174289
 20
32.861474
 30
0.0
  0
LINE
  5
330
100
AcDbEntity
  8
Layer_1
 62
1
100
AcDbLine
 10
57.174289
 20
32.861474
 30
0.0
 11
57.174289
 21
32.861474
 31
0.0
  0
SPLINE
  5
331
100
AcDbEntity
  8
Layer_1
 62
1
100
AcDbSpline
 70
8
 71
3
 72
8
 73
4
 74
0
 40
0
 40
0
 40
0
 40
0
 40
1
 40
1
 40
1
 40
1
 10
57.174289
 20
32.861474
 30
0.0
 10
57.174278
 20
33.358522
 30
0.0
 10
56.771338
 20
33.761454
 30
0.0
 10
56.274290
 20
33.761454
 30
0.0
  0
LINE
  5
332
100
AcDbEntity
  8
Layer_1
 62
1
100
AcDbLine
 10
56.274290
 20
33.761454
 30
0.0
 11
38.374288
 21
33.761454
 31
0.0
  0
SPLINE
  5
333
100
AcDbEntity
  8
Layer_1
 62
1
100
AcDbSpline
 70
8
 71
3
 72
8
 73
4
 74
0
 40
0
 40
0
 40
0
 40
0
 40
1
 40
1
 40
1
 40
1
 10
38.374288
 20
33.761454
 30
0.0
 10
37.877240
 20
33.761454
 30
0.0
 10
37.474300
 20
33.358522
 30
0.0
 10
37.474290
 20
32.861474
 30
0.0
  0
LINE
  5
334
100
AcDbEntity
  8
Layer_1
 62
1
100
AcDbLine
 10
37.474290
 20
32.861474
 30
0.0
 11
37.474290
 21
32.861474
 31
0.0
  0
SPLINE
  5
335
100
AcDbEntity
  8
Layer_1
 62
1
100
AcDbSpline
 70
8
 71
3
 72
8
 73
4
 74
0
 40
0
 40
0
 40
0
 40
0
 40
1
 40
1
 40
1
 40
1
 10
37.474290
 20
32.861474
 30
0.0
 10
37.474286
 20
32.622777
 30
0.0
 10
37.569105
 20
32.393855
 30
0.0
 10
37.737888
 20
32.225069
 30
0.0
  0
SPLINE
  5
336
100
AcDbEntity
  8
Layer_1
 62
1
100
AcDbSpline
 70
8
 71
3
 72
8
 73
4
 74
0
 40
0
 40
0
 40
0
 40
0
 40
1
 40
1
 40
1
 40
1
 10
37.737888
 20
32.225069
 30
0.0
 10
37.906671
 20
32.056283
 30
0.0
 10
38.135591
 20
31.961460
 30
0.0
 10
38.374288
 20
31.961459
 30
0.0
  0
LINE
  5
337
100
AcDbEntity
  8
Layer_1
 62
1
100
AcDbLine
 10
38.374288
 20
16.961463
 30
0.0
 11
56.274290
 21
16.961463
 31
0.0
  0
SPLINE
  5
338
100
AcDbEntity
  8
Layer_1
 62
1
100
AcDbSpline
 70
8
 71
3
 72
8
 73
4
 74
0
 40
0
 40
0
 40
0
 40
0
 40
1
 40
1
 40
1
 40
1
 10
56.274290
 20
16.961463
 30
0.0
 10
56.771338
 20
16.961464
 30
0.0
 10
57.174278
 20
17.364395
 30
0.0
 10
57.174289
 20
17.861443
 30
0.0
  0
LINE
  5
339
100
AcDbEntity
  8
Layer_1
 62
1
100
AcDbLine
 10
57.174289
 20
17.861443
 30
0.0
 11
57.174289
 21
17.861443
 31
0.0
  0
SPLINE
  5
33a
100
AcDbEntity
  8
Layer_1
 62
1
100
AcDbSpline
 70
8
 71
3
 72
8
 73
4
 74
0
 40
0
 40
0
 40
0
 40
0
 40
1
 40
1
 40
1
 40
1
 10
57.174289
 20
17.861443
 30
0.0
 10
57.174291
 20
18.100139
 30
0.0
 10
57.079470
 20
18.329059
 30
0.0
 10
56.910688
 20
18.497843
 30
0.0
  0
SPLINE
  5
33b
100
AcDbEntity
  8
Layer_1
 62
1
100
AcDbSpline
 70
8
 71
3
 72
8
 73
4
 74
0
 40
0
 40
0
 40
0
 40
0
 40
1
 40
1
 40
1
 40
1
 10
56.910688
 20
18.497843
 30
0.0
 10
56.741905
 20
18.666627
 30
0.0
 10
56.512986
 20
18.761449
 30
0.0
 10
56.274290
 20
18.761450
 30
0.0
  0
LINE
  5
33c
100
AcDbEntity
  8
Layer_1
 62
1
100
AcDbLine
 10
56.274290
 20
18.761450
 30
0.0
 11
38.374288
 21
18.761450
 31
0.0
  0
SPLINE
  5
33d
100
AcDbEntity
  8
Layer_1
 62
1
100
AcDbSpline
 70
8
 71
3
 72
8
 73
4
 74
0
 40
0
 40
0
 40
0
 40
0
 40
1
 40
1
 40
1
 40
1
 10
38.374288
 20
18.761450
 30
0.0
 10
38.135592
 20
18.761449
 30
0.0
 10
37.906673
 20
18.666627
 30
0.0
 10
37.737891
 20
18.497843
 30
0.0
  0
SPLINE
  5
33e
100
AcDbEntity
  8
Layer_1
 62
1
100
AcDbSpline
 70
8
 71
3
 72
8
 73
4
 74
0
 40
0
 40
0
 40
0
 40
0
 40
1
 40
1
 40
1
 40
1
 10
37.737891
 20
18.497843
 30
0.0
 10
37.569108
 20
18.329059
 30
0.0
 10
37.474288
 20
18.100139
 30
0.0
 10
37.474290
 20
17.861443
 30
0.0
  0
LINE
  5
33f
100
AcDbEntity
  8
Layer_1
 62
1
100
AcDbLine
 10
37.474290
 20
17.861443
 30
0.0
 11
37.474290
 21
17.861443
 31
0.0
  0
SPLINE
  5
340
100
AcDbEntity
  8
Layer_1
 62
1
100
AcDbSpline
 70
8
 71
3
 72
8
 73
4
 74
0
 40
0
 40
0
 40
0
 40
0
 40
1
 40
1
 40
1
 40
1
 10
37.474290
 20
17.861443
 30
0.0
 10
37.474300
 20
17.364395
 30
0.0
 10
37.877240
 20
16.961464
 30
0.0
 10
38.374288
 20
16.961463
 30
0.0
  0
SPLINE
  5
341
100
AcDbEntity
  8
Layer_1
 62
1
100
AcDbSpline
 70
8
 71
3
 72
8
 73
4
 74
0
 40
0
 40
0
 40
0
 40
0
 40
1
 40
1
 40
1
 40
1
 10
384.352297
 20
16.501326
 30
0.0
 10
384.352297
 20
16.179785
 30
0.0
 10
384.523838
 20
15.882668
 30
0.0
 10
384.802301
 20
15.721897
 30
0.0
  0
SPLINE
  5
342
100
AcDbEntity
  8
Layer_1
 62
1
100
AcDbSpline
 70
8
 71
3
 72
8
 73
4
 74
0
 40
0
 40
0
 40
0
 40
0
 40
1
 40
1
 40
1
 40
1
 10
384.802301
 20
15.721897
 30
0.0
 10
385.080764
 20
15.561127
 30
0.0
 10
385.423844
 20
15.561127
 30
0.0
 10
385.702307
 20
15.721897
 30
0.0
  0
SPLINE
  5
343
100
AcDbEntity
  8
Layer_1
 62
1
100
AcDbSpline
 70
8
 71
3
 72
8
 73
4
 74
0
 40
0
 40
0
 40
0
 40
0
 40
1
 40
1
 40
1
 40
1
 10
385.702307
 20
15.721897
 30
0.0
 10
385.980770
 20
15.882668
 30
0.0
 10
386.152311
 20
16.179785
 30
0.0
 10
386.152311
 20
16.501326
 30
0.0
  0
LINE
  5
344
100
AcDbEntity
  8
Layer_1
 62
1
100
AcDbLine
 10
384.352297
 20
16.501326
 30
0.0
 11
384.352297
 21
36.001337
 31
0.0
  0
SPLINE
  5
345
100
AcDbEntity
  8
Layer_1
 62
1
100
AcDbSpline
 70
8
 71
3
 72
8
 73
4
 74
0
 40
0
 40
0
 40
0
 40
0
 40
1
 40
1
 40
1
 40
1
 10
386.152311
 20
36.001337
 30
0.0
 10
386.152311
 20
36.322879
 30
0.0
 10
385.980770
 20
36.619995
 30
0.0
 10
385.702307
 20
36.780766
 30
0.0
  0
SPLINE
  5
346
100
AcDbEntity
  8
Layer_1
 62
1
100
AcDbSpline
 70
8
 71
3
 72
8
 73
4
 74
0
 40
0
 40
0
 40
0
 40
0
 40
1
 40
1
 40
1
 40
1
 10
385.702307
 20
36.780766
 30
0.0
 10
385.423844
 20
36.941537
 30
0.0
 10
385.080764
 20
36.941537
 30
0.0
 10
384.802301
 20
36.780766
 30
0.0
  0
SPLINE
  5
347
100
AcDbEntity
  8
Layer_1
 62
1
100
AcDbSpline
 70
8
 71
3
 72
8
 73
4
 74
0
 40
0
 40
0
 40
0
 40
0
 40
1
 40
1
 40
1
 40
1
 10
384.802301
 20
36.780766
 30
0.0
 10
384.523838
 20
36.619995
 30
0.0
 10
384.352297
 20
36.322879
 30
0.0
 10
384.352297
 20
36.001337
 30
0.0
  0
LINE
  5
348
100
AcDbEntity
  8
Layer_1
 62
1
100
AcDbLine
 10
386.152311
 20
36.001337
 30
0.0
 11
386.152311
 21
16.501326
 31
0.0
  0
SPLINE
  5
349
100
AcDbEntity
  8
Layer_1
 62
1
100
AcDbSpline
 70
8
 71
3
 72
8
 73
4
 74
0
 40
0
 40
0
 40
0
 40
0
 40
1
 40
1
 40
1
 40
1
 10
369.352301
 20
16.501326
 30
0.0
 10
369.352301
 20
16.179785
 30
0.0
 10
369.523841
 20
15.882668
 30
0.0
 10
369.802304
 20
15.721897
 30
0.0
  0
SPLINE
  5
34a
100
AcDbEntity
  8
Layer_1
 62
1
100
AcDbSpline
 70
8
 71
3
 72
8
 73
4
 74
0
 40
0
 40
0
 40
0
 40
0
 40
1
 40
1
 40
1
 40
1
 10
369.802304
 20
15.721897
 30
0.0
 10
370.080767
 20
15.561127
 30
0.0
 10
370.423848
 20
15.561127
 30
0.0
 10
370.702311
 20
15.721897
 30
0.0
  0
SPLINE
  5
34b
100
AcDbEntity
  8
Layer_1
 62
1
100
AcDbSpline
 70
8
 71
3
 72
8
 73
4
 74
0
 40
0
 40
0
 40
0
 40
0
 40
1
 40
1
 40
1
 40
1
 10
370.702311
 20
15.721897
 30
0.0
 10
370.980774
 20
15.882668
 30
0.0
 10
371.152314
 20
16.179785
 30
0.0
 10
371.152314
 20
16.501326
 30
0.0
  0
LINE
  5
34c
100
AcDbEntity
  8
Layer_1
 62
1
100
AcDbLine
 10
369.352301
 20
16.501326
 30
0.0
 11
369.352301
 21
36.001337
 31
0.0
  0
SPLINE
  5
34d
100
AcDbEntity
  8
Layer_1
 62
1
100
AcDbSpline
 70
8
 71
3
 72
8
 73
4
 74
0
 40
0
 40
0
 40
0
 40
0
 40
1
 40
1
 40
1
 40
1
 10
371.152314
 20
36.001337
 30
0.0
 10
371.152314
 20
36.322879
 30
0.0
 10
370.980774
 20
36.619995
 30
0.0
 10
370.702311
 20
36.780766
 30
0.0
  0
SPLINE
  5
34e
100
AcDbEntity
  8
Layer_1
 62
1
100
AcDbSpline
 70
8
 71
3
 72
8
 73
4
 74
0
 40
0
 40
0
 40
0
 40
0
 40
1
 40
1
 40
1
 40
1
 10
370.702311
 20
36.780766
 30
0.0
 10
370.423848
 20
36.941537
 30
0.0
 10
370.080767
 20
36.941537
 30
0.0
 10
369.802304
 20
36.780766
 30
0.0
  0
SPLINE
  5
34f
100
AcDbEntity
  8
Layer_1
 62
1
100
AcDbSpline
 70
8
 71
3
 72
8
 73
4
 74
0
 40
0
 40
0
 40
0
 40
0
 40
1
 40
1
 40
1
 40
1
 10
369.802304
 20
36.780766
 30
0.0
 10
369.523841
 20
36.619995
 30
0.0
 10
369.352301
 20
36.322879
 30
0.0
 10
369.352301
 20
36.001337
 30
0.0
  0
LINE
  5
350
100
AcDbEntity
  8
Layer_1
 62
1
100
AcDbLine
 10
371.152314
 20
36.001337
 30
0.0
 11
371.152314
 21
16.501326
 31
0.0
  0
SPLINE
  5
351
100
AcDbEntity
  8
Layer_1
 62
7
100
AcDbSpline
 70
8
 71
3
 72
8
 73
4
 74
0
 40
0
 40
0
 40
0
 40
0
 40
1
 40
1
 40
1
 40
1
 10
8.939998
 20
10.722588
 30
0.0
 10
6.169995
 20
10.722588
 30
0.0
 10
3.939796
 20
12.952814
 30
0.0
 10
3.878042
 20
15.765467
 30
0.0
  0
LINE
  5
352
100
AcDbEntity
  8
Layer_1
 62
7
100
AcDbLine
 10
3.878042
 20
15.765467
 30
0.0
 11
3.834042
 21
37.522184
 31
0.0
  0
SPLINE
  5
353
100
AcDbEntity
  8
Layer_1
 62
7
100
AcDbSpline
 70
8
 71
3
 72
8
 73
4
 74
0
 40
0
 40
0
 40
0
 40
0
 40
1
 40
1
 40
1
 40
1
 10
3.834042
 20
37.522184
 30
0.0
 10
3.810494
 20
40.138860
 30
0.0
 10
5.734650
 20
42.730533
 30
0.0
 10
8.407471
 20
43.410036
 30
0.0
  0
SPLINE
  5
354
100
AcDbEntity
  8
Layer_1
 62
7
100
AcDbSpline
 70
8
 71
3
 72
8
 73
4
 74
0
 40
0
 40
0
 40
0
 40
0
 40
1
 40
1
 40
1
 40
1
 10
8.407471
 20
43.410036
 30
0.0
 10
10.860158
 20
43.968651
 30
0.0
 10
12.869642
 20
46.188452
 30
0.0
 10
12.838315
 20
48.694770
 30
0.0
  0
LINE
  5
355
100
AcDbEntity
  8
Layer_1
 62
7
100
AcDbLine
 10
12.838315
 20
48.694770
 30
0.0
 11
12.840961
 21
59.884238
 31
0.0
  0
ENDSEC
  0
SECTION
  2
OBJECTS
  0
DICTIONARY
  5
C
330
0
100
AcDbDictionary
  3
ACAD_GROUP
350
D
  3
ACAD_MLINESTYLE
350
17
  0
DICTIONARY
  5
D
330
C
100
AcDbDictionary
  0
DICTIONARY
  5
1A
330
C
100
AcDbDictionary
  0
DICTIONARY
  5
17
330
C
100
AcDbDictionary
  3
STANDARD
350
18
  0
DICTIONARY
  5
19
330
C
100
AcDbDictionary
  0
ENDSEC
  0
EOF
