  0
SECTION
  2
HEADER
  9
$ACADVER
  1
AC1014
  9
$HANDSEED
  5
FFFF
  9
$MEASUREMENT
 70
     1
  0
ENDSEC
  0
SECTION
  2
TABLES
  0
TABLE
  2
VPORT
  5
8
330
0
100
AcDbSymbolTable
 70
     4
  0
VPORT
  5
2E
330
8
100
AcDbSymbolTableRecord
100
AcDbViewportTableRecord
  2
*ACTIVE
 70
     0
 10
0.0
 20
0.0
 11
1.0
 21
1.0
 12
210.0
 22
148.5
 13
0.0
 23
0.0
 14
10.0
 24
10.0
 15
10.0
 25
10.0
 16
0.0
 26
0.0
 36
1.0
 17
0.0
 27
0.0
 37
0.0
 40
341.0
 41
1.24
 42
50.0
 43
0.0
 44
0.0
 50
0.0
 51
0.0
 71
     0
 72
   100
 73
     1
 74
     3
 75
     0
 76
     0
 77
     0
 78
     0
  0
ENDTAB
  0
TABLE
  2
LTYPE
  5
5
330
0
100
AcDbSymbolTable
 70
     1
  0
LTYPE
  5
14
330
5
100
AcDbSymbolTableRecord
100
AcDbLinetypeTableRecord
  2
BYBLOCK
 70
     0
  3

 72
    65
 73
     0
 40
0.0
  0
LTYPE
  5
15
330
5
100
AcDbSymbolTableRecord
100
AcDbLinetypeTableRecord
  2
BYLAYER
 70
     0
  3

 72
    65
 73
     0
 40
0.0
  0
LTYPE
  5
16
330
5
100
AcDbSymbolTableRecord
100
AcDbLinetypeTableRecord
  2
CONTINUOUS
 70
     0
  3
Solid line
 72
    65
 73
     0
 40
0.0
  0
ENDTAB
  0
TABLE
  2
LAYER
  5
2
100
AcDbSymbolTable
 70
2
  0
LAYER
  5
50
100
AcDbSymbolTableRecord
100
AcDbLayerTableRecord
  2
0
 70
0
  6
CONTINUOUS
  0
LAYER
  5
51
100
AcDbSymbolTableRecord
100
AcDbLayerTableRecord
  2
Layer_1
 70
0
  6
CONTINUOUS
  0
ENDTAB
  0
TABLE
  2
STYLE
  5
3
330
0
100
AcDbSymbolTable
 70
     1
  0
STYLE
  5
11
330
3
100
AcDbSymbolTableRecord
100
AcDbTextStyleTableRecord
  2
STANDARD
 70
     0
 40
0.0
 41
1.0
 50
0.0
 71
     0
 42
2.5
  3
txt
  4

  0
ENDTAB
  0
TABLE
  2
VIEW
  5
6
330
0
100
AcDbSymbolTable
 70
     0
  0
ENDTAB
  0
TABLE
  2
UCS
  5
7
330
0
100
AcDbSymbolTable
 70
     0
  0
ENDTAB
  0
TABLE
  2
APPID
  5
9
330
0
100
AcDbSymbolTable
 70
     2
  0
APPID
  5
12
330
9
100
AcDbSymbolTableRecord
100
AcDbRegAppTableRecord
  2
ACAD
 70
     0
  0
ENDTAB
  0
TABLE
  2
DIMSTYLE
  5
A
330
0
100
AcDbSymbolTable
 70
     1
  0
DIMSTYLE
105
27
330
A
100
AcDbSymbolTableRecord
100
AcDbDimStyleTableRecord
  2
ISO-25
 70
     0
  3

  4

  5

  6

  7

 40
1.0
 41
2.5
 42
0.625
 43
3.75
 44
1.25
 45
0.0
 46
0.0
 47
0.0
 48
0.0
140
2.5
141
2.5
142
0.0
143
0.03937007874016
144
1.0
145
0.0
146
1.0
147
0.625
 71
     0
 72
     0
 73
     0
 74
     0
 75
     0
 76
     0
 77
     1
 78
     8
170
     0
171
     3
172
     1
173
     0
174
     0
175
     0
176
     0
177
     0
178
     0
270
     2
271
     2
272
     2
273
     2
274
     3
340
11
275
     0
280
     0
281
     0
282
     0
283
     0
284
     8
285
     0
286
     0
287
     3
288
     0
  0
ENDTAB
  0
TABLE
  2
BLOCK_RECORD
  5
1
330
0
100
AcDbSymbolTable
 70
     1
  0
BLOCK_RECORD
  5
1F
330
1
100
AcDbSymbolTableRecord
100
AcDbBlockTableRecord
  2
*MODEL_SPACE
  0
BLOCK_RECORD
  5
1B
330
1
100
AcDbSymbolTableRecord
100
AcDbBlockTableRecord
  2
*PAPER_SPACE
  0
ENDTAB
  0
ENDSEC
  0
SECTION
  2
BLOCKS
  0
BLOCK
  5
20
330
1F
100
AcDbEntity
  8
0
100
AcDbBlockBegin
  2
*MODEL_SPACE
 70
     0
 10
0.0
 20
0.0
 30
0.0
  3
*MODEL_SPACE
  1

  0
ENDBLK
  5
21
330
1F
100
AcDbEntity
  8
0
100
AcDbBlockEnd
  0
BLOCK
  5
1C
330
1B
100
AcDbEntity
 67
     1
  8
0
100
AcDbBlockBegin
  2
*PAPER_SPACE
  1

  0
ENDBLK
  5
1D
330
1B
100
AcDbEntity
 67
     1
  8
0
100
AcDbBlockEnd
  0
ENDSEC
  0
SECTION
  2
ENTITIES
  0
SPLINE
  5
100
100
AcDbEntity
  8
Layer_1
 62
7
100
AcDbSpline
 70
8
 71
3
 72
8
 73
4
 74
0
 40
0
 40
0
 40
0
 40
0
 40
1
 40
1
 40
1
 40
1
 10
-104.809073
 20
135.176568
 30
0.0
 10
-107.579062
 20
135.176568
 30
0.0
 10
-109.808761
 20
132.946850
 30
0.0
 10
-109.808761
 20
130.176840
 30
0.0
  0
SPLINE
  5
101
100
AcDbEntity
  8
Layer_1
 62
7
100
AcDbSpline
 70
8
 71
3
 72
8
 73
4
 74
0
 40
0
 40
0
 40
0
 40
0
 40
1
 40
1
 40
1
 40
1
 10
-109.808761
 20
128.176532
 30
0.0
 10
-109.808761
 20
125.406522
 30
0.0
 10
-107.579062
 20
123.176291
 30
0.0
 10
-104.809073
 20
123.176291
 30
0.0
  0
LWPOLYLINE
  5
102
100
AcDbEntity
  8
Layer_1
 62
7
100
AcDbPolyline
 90
4
 70
0
 10
-133.970001
 20
139.309008
 30
0.0
 10
136.608926
 20
139.308971
 30
0.0
 10
136.608926
 20
135.176568
 30
0.0
 10
-104.809073
 20
135.177097
 30
0.0
  0
SPLINE
  5
103
100
AcDbEntity
  8
Layer_1
 62
7
100
AcDbSpline
 70
8
 71
3
 72
8
 73
4
 74
0
 40
0
 40
0
 40
0
 40
0
 40
1
 40
1
 40
1
 40
1
 10
185.190916
 20
123.176291
 30
0.0
 10
187.960926
 20
123.176291
 30
0.0
 10
190.191115
 20
125.406522
 30
0.0
 10
190.191115
 20
128.176532
 30
0.0
  0
LWPOLYLINE
  5
104
100
AcDbEntity
  8
Layer_1
 62
7
100
AcDbPolyline
 90
2
 70
0
 10
-109.808761
 20
130.176840
 30
0.0
 10
-109.808761
 20
128.177008
 30
0.0
  0
LWPOLYLINE
  5
105
100
AcDbEntity
  8
Layer_1
 62
7
100
AcDbPolyline
 90
2
 70
0
 10
-104.809073
 20
123.176008
 30
0.0
 10
185.191000
 20
123.176008
 30
0.0
  0
SPLINE
  5
106
100
AcDbEntity
  8
Layer_1
 62
7
100
AcDbSpline
 70
8
 71
3
 72
8
 73
4
 74
0
 40
0
 40
0
 40
0
 40
0
 40
1
 40
1
 40
1
 40
1
 10
190.162707
 20
149.253000
 30
0.0
 10
190.162707
 20
152.023020
 30
0.0
 10
187.933036
 20
154.252730
 30
0.0
 10
185.163005
 20
154.252730
 30
0.0
  0
LWPOLYLINE
  5
107
100
AcDbEntity
  8
Layer_1
 62
7
100
AcDbPolyline
 90
2
 70
0
 10
190.191115
 20
128.177008
 30
0.0
 10
190.191115
 20
149.253007
 30
0.0
  0
SPLINE
  5
108
100
AcDbEntity
  8
Layer_1
 62
1
100
AcDbSpline
 70
8
 71
3
 72
8
 73
4
 74
0
 40
0
 40
0
 40
0
 40
0
 40
1
 40
1
 40
1
 40
1
 10
172.808835
 20
129.176288
 30
0.0
 10
172.808835
 20
130.237153
 30
0.0
 10
173.230285
 20
131.254570
 30
0.0
 10
173.980468
 20
132.004713
 30
0.0
  0
SPLINE
  5
109
100
AcDbEntity
  8
Layer_1
 62
1
100
AcDbSpline
 70
8
 71
3
 72
8
 73
4
 74
0
 40
0
 40
0
 40
0
 40
0
 40
1
 40
1
 40
1
 40
1
 10
173.980468
 20
132.004713
 30
0.0
 10
174.730653
 20
132.754859
 30
0.0
 10
175.748121
 20
133.176285
 30
0.0
 10
176.809040
 20
133.176285
 30
0.0
  0
SPLINE
  5
10a
100
AcDbEntity
  8
Layer_1
 62
1
100
AcDbSpline
 70
8
 71
3
 72
8
 73
4
 74
0
 40
0
 40
0
 40
0
 40
0
 40
1
 40
1
 40
1
 40
1
 10
176.809040
 20
133.176285
 30
0.0
 10
177.869960
 20
133.176285
 30
0.0
 10
178.887428
 20
132.754859
 30
0.0
 10
179.637613
 20
132.004713
 30
0.0
  0
SPLINE
  5
10b
100
AcDbEntity
  8
Layer_1
 62
1
100
AcDbSpline
 70
8
 71
3
 72
8
 73
4
 74
0
 40
0
 40
0
 40
0
 40
0
 40
1
 40
1
 40
1
 40
1
 10
179.637613
 20
132.004713
 30
0.0
 10
180.387798
 20
131.254570
 30
0.0
 10
180.809246
 20
130.237153
 30
0.0
 10
180.809246
 20
129.176288
 30
0.0
  0
SPLINE
  5
10c
100
AcDbEntity
  8
Layer_1
 62
1
100
AcDbSpline
 70
8
 71
3
 72
8
 73
4
 74
0
 40
0
 40
0
 40
0
 40
0
 40
1
 40
1
 40
1
 40
1
 10
180.809246
 20
129.176288
 30
0.0
 10
180.809246
 20
128.115424
 30
0.0
 10
180.387798
 20
127.098009
 30
0.0
 10
179.637613
 20
126.347863
 30
0.0
  0
SPLINE
  5
10d
100
AcDbEntity
  8
Layer_1
 62
1
100
AcDbSpline
 70
8
 71
3
 72
8
 73
4
 74
0
 40
0
 40
0
 40
0
 40
0
 40
1
 40
1
 40
1
 40
1
 10
179.637613
 20
126.347863
 30
0.0
 10
178.887428
 20
125.597719
 30
0.0
 10
177.869960
 20
125.176291
 30
0.0
 10
176.809040
 20
125.176291
 30
0.0
  0
SPLINE
  5
10e
100
AcDbEntity
  8
Layer_1
 62
1
100
AcDbSpline
 70
8
 71
3
 72
8
 73
4
 74
0
 40
0
 40
0
 40
0
 40
0
 40
1
 40
1
 40
1
 40
1
 10
176.809040
 20
125.176291
 30
0.0
 10
175.748121
 20
125.176291
 30
0.0
 10
174.730653
 20
125.597719
 30
0.0
 10
173.980468
 20
126.347863
 30
0.0
  0
SPLINE
  5
10f
100
AcDbEntity
  8
Layer_1
 62
1
100
AcDbSpline
 70
8
 71
3
 72
8
 73
4
 74
0
 40
0
 40
0
 40
0
 40
0
 40
1
 40
1
 40
1
 40
1
 10
173.980468
 20
126.347863
 30
0.0
 10
173.230285
 20
127.098009
 30
0.0
 10
172.808835
 20
128.115424
 30
0.0
 10
172.808835
 20
129.176288
 30
0.0
  0
SPLINE
  5
110
100
AcDbEntity
  8
Layer_1
 62
1
100
AcDbSpline
 70
8
 71
3
 72
8
 73
4
 74
0
 40
0
 40
0
 40
0
 40
0
 40
1
 40
1
 40
1
 40
1
 10
172.808826
 20
147.987292
 30
0.0
 10
172.808826
 20
149.048157
 30
0.0
 10
173.230254
 20
150.065573
 30
0.0
 10
173.980398
 20
150.815719
 30
0.0
  0
SPLINE
  5
111
100
AcDbEntity
  8
Layer_1
 62
1
100
AcDbSpline
 70
8
 71
3
 72
8
 73
4
 74
0
 40
0
 40
0
 40
0
 40
0
 40
1
 40
1
 40
1
 40
1
 10
173.980398
 20
150.815719
 30
0.0
 10
174.730545
 20
151.565866
 30
0.0
 10
175.747960
 20
151.987292
 30
0.0
 10
176.808826
 20
151.987292
 30
0.0
  0
SPLINE
  5
112
100
AcDbEntity
  8
Layer_1
 62
1
100
AcDbSpline
 70
8
 71
3
 72
8
 73
4
 74
0
 40
0
 40
0
 40
0
 40
0
 40
1
 40
1
 40
1
 40
1
 10
176.808826
 20
151.987292
 30
0.0
 10
177.869691
 20
151.987292
 30
0.0
 10
178.887107
 20
151.565866
 30
0.0
 10
179.637253
 20
150.815719
 30
0.0
  0
SPLINE
  5
113
100
AcDbEntity
  8
Layer_1
 62
1
100
AcDbSpline
 70
8
 71
3
 72
8
 73
4
 74
0
 40
0
 40
0
 40
0
 40
0
 40
1
 40
1
 40
1
 40
1
 10
179.637253
 20
150.815719
 30
0.0
 10
180.387400
 20
150.065573
 30
0.0
 10
180.808826
 20
149.048157
 30
0.0
 10
180.808826
 20
147.987292
 30
0.0
  0
SPLINE
  5
114
100
AcDbEntity
  8
Layer_1
 62
1
100
AcDbSpline
 70
8
 71
3
 72
8
 73
4
 74
0
 40
0
 40
0
 40
0
 40
0
 40
1
 40
1
 40
1
 40
1
 10
180.808826
 20
147.987292
 30
0.0
 10
180.808826
 20
146.926426
 30
0.0
 10
180.387400
 20
145.909011
 30
0.0
 10
179.637253
 20
145.158864
 30
0.0
  0
SPLINE
  5
115
100
AcDbEntity
  8
Layer_1
 62
1
100
AcDbSpline
 70
8
 71
3
 72
8
 73
4
 74
0
 40
0
 40
0
 40
0
 40
0
 40
1
 40
1
 40
1
 40
1
 10
179.637253
 20
145.158864
 30
0.0
 10
178.887107
 20
144.408720
 30
0.0
 10
177.869691
 20
143.987292
 30
0.0
 10
176.808826
 20
143.987292
 30
0.0
  0
SPLINE
  5
116
100
AcDbEntity
  8
Layer_1
 62
1
100
AcDbSpline
 70
8
 71
3
 72
8
 73
4
 74
0
 40
0
 40
0
 40
0
 40
0
 40
1
 40
1
 40
1
 40
1
 10
176.808826
 20
143.987292
 30
0.0
 10
175.747960
 20
143.987292
 30
0.0
 10
174.730545
 20
144.408720
 30
0.0
 10
173.980398
 20
145.158864
 30
0.0
  0
SPLINE
  5
117
100
AcDbEntity
  8
Layer_1
 62
1
100
AcDbSpline
 70
8
 71
3
 72
8
 73
4
 74
0
 40
0
 40
0
 40
0
 40
0
 40
1
 40
1
 40
1
 40
1
 10
173.980398
 20
145.158864
 30
0.0
 10
173.230254
 20
145.909011
 30
0.0
 10
172.808826
 20
146.926426
 30
0.0
 10
172.808826
 20
147.987292
 30
0.0
  0
SPLINE
  5
118
100
AcDbEntity
  8
Layer_1
 62
1
100
AcDbSpline
 70
8
 71
3
 72
8
 73
4
 74
0
 40
0
 40
0
 40
0
 40
0
 40
1
 40
1
 40
1
 40
1
 10
-98.461364
 20
129.176429
 30
0.0
 10
-98.461364
 20
130.237295
 30
0.0
 10
-98.039936
 20
131.254710
 30
0.0
 10
-97.289789
 20
132.004854
 30
0.0
  0
SPLINE
  5
119
100
AcDbEntity
  8
Layer_1
 62
1
100
AcDbSpline
 70
8
 71
3
 72
8
 73
4
 74
0
 40
0
 40
0
 40
0
 40
0
 40
1
 40
1
 40
1
 40
1
 10
-97.289789
 20
132.004854
 30
0.0
 10
-96.539645
 20
132.755001
 30
0.0
 10
-95.522230
 20
133.176429
 30
0.0
 10
-94.461364
 20
133.176429
 30
0.0
  0
SPLINE
  5
11a
100
AcDbEntity
  8
Layer_1
 62
1
100
AcDbSpline
 70
8
 71
3
 72
8
 73
4
 74
0
 40
0
 40
0
 40
0
 40
0
 40
1
 40
1
 40
1
 40
1
 10
-94.461364
 20
133.176429
 30
0.0
 10
-93.400496
 20
133.176429
 30
0.0
 10
-92.383081
 20
132.755001
 30
0.0
 10
-91.632937
 20
132.004854
 30
0.0
  0
SPLINE
  5
11b
100
AcDbEntity
  8
Layer_1
 62
1
100
AcDbSpline
 70
8
 71
3
 72
8
 73
4
 74
0
 40
0
 40
0
 40
0
 40
0
 40
1
 40
1
 40
1
 40
1
 10
-91.632937
 20
132.004854
 30
0.0
 10
-90.882790
 20
131.254710
 30
0.0
 10
-90.461364
 20
130.237295
 30
0.0
 10
-90.461364
 20
129.176429
 30
0.0
  0
SPLINE
  5
11c
100
AcDbEntity
  8
Layer_1
 62
1
100
AcDbSpline
 70
8
 71
3
 72
8
 73
4
 74
0
 40
0
 40
0
 40
0
 40
0
 40
1
 40
1
 40
1
 40
1
 10
-90.461364
 20
129.176429
 30
0.0
 10
-90.461364
 20
128.115561
 30
0.0
 10
-90.882790
 20
127.098146
 30
0.0
 10
-91.632937
 20
126.348002
 30
0.0
  0
SPLINE
  5
11d
100
AcDbEntity
  8
Layer_1
 62
1
100
AcDbSpline
 70
8
 71
3
 72
8
 73
4
 74
0
 40
0
 40
0
 40
0
 40
0
 40
1
 40
1
 40
1
 40
1
 10
-91.632937
 20
126.348002
 30
0.0
 10
-92.383081
 20
125.597855
 30
0.0
 10
-93.400496
 20
125.176430
 30
0.0
 10
-94.461364
 20
125.176430
 30
0.0
  0
SPLINE
  5
11e
100
AcDbEntity
  8
Layer_1
 62
1
100
AcDbSpline
 70
8
 71
3
 72
8
 73
4
 74
0
 40
0
 40
0
 40
0
 40
0
 40
1
 40
1
 40
1
 40
1
 10
-94.461364
 20
125.176430
 30
0.0
 10
-95.522230
 20
125.176430
 30
0.0
 10
-96.539645
 20
125.597855
 30
0.0
 10
-97.289789
 20
126.348002
 30
0.0
  0
SPLINE
  5
11f
100
AcDbEntity
  8
Layer_1
 62
1
100
AcDbSpline
 70
8
 71
3
 72
8
 73
4
 74
0
 40
0
 40
0
 40
0
 40
0
 40
1
 40
1
 40
1
 40
1
 10
-97.289789
 20
126.348002
 30
0.0
 10
-98.039936
 20
127.098146
 30
0.0
 10
-98.461364
 20
128.115561
 30
0.0
 10
-98.461364
 20
129.176429
 30
0.0
  0
SPLINE
  5
120
100
AcDbEntity
  8
Layer_1
 62
1
100
AcDbSpline
 70
8
 71
3
 72
8
 73
4
 74
0
 40
0
 40
0
 40
0
 40
0
 40
1
 40
1
 40
1
 40
1
 10
152.808635
 20
129.176292
 30
0.0
 10
152.808635
 20
130.237157
 30
0.0
 10
153.230063
 20
131.254575
 30
0.0
 10
153.980207
 20
132.004719
 30
0.0
  0
SPLINE
  5
121
100
AcDbEntity
  8
Layer_1
 62
1
100
AcDbSpline
 70
8
 71
3
 72
8
 73
4
 74
0
 40
0
 40
0
 40
0
 40
0
 40
1
 40
1
 40
1
 40
1
 10
153.980207
 20
132.004719
 30
0.0
 10
154.730354
 20
132.754866
 30
0.0
 10
155.747769
 20
133.176292
 30
0.0
 10
156.808635
 20
133.176292
 30
0.0
  0
SPLINE
  5
122
100
AcDbEntity
  8
Layer_1
 62
1
100
AcDbSpline
 70
8
 71
3
 72
8
 73
4
 74
0
 40
0
 40
0
 40
0
 40
0
 40
1
 40
1
 40
1
 40
1
 10
156.808635
 20
133.176292
 30
0.0
 10
157.869500
 20
133.176292
 30
0.0
 10
158.886916
 20
132.754866
 30
0.0
 10
159.637062
 20
132.004719
 30
0.0
  0
SPLINE
  5
123
100
AcDbEntity
  8
Layer_1
 62
1
100
AcDbSpline
 70
8
 71
3
 72
8
 73
4
 74
0
 40
0
 40
0
 40
0
 40
0
 40
1
 40
1
 40
1
 40
1
 10
159.637062
 20
132.004719
 30
0.0
 10
160.387209
 20
131.254575
 30
0.0
 10
160.808635
 20
130.237157
 30
0.0
 10
160.808635
 20
129.176292
 30
0.0
  0
SPLINE
  5
124
100
AcDbEntity
  8
Layer_1
 62
1
100
AcDbSpline
 70
8
 71
3
 72
8
 73
4
 74
0
 40
0
 40
0
 40
0
 40
0
 40
1
 40
1
 40
1
 40
1
 10
160.808635
 20
129.176292
 30
0.0
 10
160.808635
 20
128.115426
 30
0.0
 10
160.387209
 20
127.098011
 30
0.0
 10
159.637062
 20
126.347864
 30
0.0
  0
SPLINE
  5
125
100
AcDbEntity
  8
Layer_1
 62
1
100
AcDbSpline
 70
8
 71
3
 72
8
 73
4
 74
0
 40
0
 40
0
 40
0
 40
0
 40
1
 40
1
 40
1
 40
1
 10
159.637062
 20
126.347864
 30
0.0
 10
158.886916
 20
125.597720
 30
0.0
 10
157.869500
 20
125.176292
 30
0.0
 10
156.808635
 20
125.176292
 30
0.0
  0
SPLINE
  5
126
100
AcDbEntity
  8
Layer_1
 62
1
100
AcDbSpline
 70
8
 71
3
 72
8
 73
4
 74
0
 40
0
 40
0
 40
0
 40
0
 40
1
 40
1
 40
1
 40
1
 10
156.808635
 20
125.176292
 30
0.0
 10
155.747769
 20
125.176292
 30
0.0
 10
154.730354
 20
125.597720
 30
0.0
 10
153.980207
 20
126.347864
 30
0.0
  0
SPLINE
  5
127
100
AcDbEntity
  8
Layer_1
 62
1
100
AcDbSpline
 70
8
 71
3
 72
8
 73
4
 74
0
 40
0
 40
0
 40
0
 40
0
 40
1
 40
1
 40
1
 40
1
 10
153.980207
 20
126.347864
 30
0.0
 10
153.230063
 20
127.098011
 30
0.0
 10
152.808635
 20
128.115426
 30
0.0
 10
152.808635
 20
129.176292
 30
0.0
  0
SPLINE
  5
128
100
AcDbEntity
  8
Layer_1
 62
1
100
AcDbSpline
 70
8
 71
3
 72
8
 73
4
 74
0
 40
0
 40
0
 40
0
 40
0
 40
1
 40
1
 40
1
 40
1
 10
152.808639
 20
147.987506
 30
0.0
 10
152.808639
 20
149.048426
 30
0.0
 10
153.230067
 20
150.065894
 30
0.0
 10
153.980210
 20
150.816079
 30
0.0
  0
SPLINE
  5
129
100
AcDbEntity
  8
Layer_1
 62
1
100
AcDbSpline
 70
8
 71
3
 72
8
 73
4
 74
0
 40
0
 40
0
 40
0
 40
0
 40
1
 40
1
 40
1
 40
1
 10
153.980210
 20
150.816079
 30
0.0
 10
154.730356
 20
151.566264
 30
0.0
 10
155.747771
 20
151.987711
 30
0.0
 10
156.808635
 20
151.987711
 30
0.0
  0
SPLINE
  5
12a
100
AcDbEntity
  8
Layer_1
 62
1
100
AcDbSpline
 70
8
 71
3
 72
8
 73
4
 74
0
 40
0
 40
0
 40
0
 40
0
 40
1
 40
1
 40
1
 40
1
 10
156.808635
 20
151.987711
 30
0.0
 10
157.869500
 20
151.987711
 30
0.0
 10
158.886914
 20
151.566264
 30
0.0
 10
159.637061
 20
150.816079
 30
0.0
  0
SPLINE
  5
12b
100
AcDbEntity
  8
Layer_1
 62
1
100
AcDbSpline
 70
8
 71
3
 72
8
 73
4
 74
0
 40
0
 40
0
 40
0
 40
0
 40
1
 40
1
 40
1
 40
1
 10
159.637061
 20
150.816079
 30
0.0
 10
160.387207
 20
150.065894
 30
0.0
 10
160.808632
 20
149.048426
 30
0.0
 10
160.808632
 20
147.987506
 30
0.0
  0
SPLINE
  5
12c
100
AcDbEntity
  8
Layer_1
 62
1
100
AcDbSpline
 70
8
 71
3
 72
8
 73
4
 74
0
 40
0
 40
0
 40
0
 40
0
 40
1
 40
1
 40
1
 40
1
 10
160.808632
 20
147.987506
 30
0.0
 10
160.808632
 20
146.926586
 30
0.0
 10
160.387207
 20
145.909119
 30
0.0
 10
159.637061
 20
145.158933
 30
0.0
  0
SPLINE
  5
12d
100
AcDbEntity
  8
Layer_1
 62
1
100
AcDbSpline
 70
8
 71
3
 72
8
 73
4
 74
0
 40
0
 40
0
 40
0
 40
0
 40
1
 40
1
 40
1
 40
1
 10
159.637061
 20
145.158933
 30
0.0
 10
158.886914
 20
144.408751
 30
0.0
 10
157.869500
 20
143.987301
 30
0.0
 10
156.808635
 20
143.987301
 30
0.0
  0
SPLINE
  5
12e
100
AcDbEntity
  8
Layer_1
 62
1
100
AcDbSpline
 70
8
 71
3
 72
8
 73
4
 74
0
 40
0
 40
0
 40
0
 40
0
 40
1
 40
1
 40
1
 40
1
 10
156.808635
 20
143.987301
 30
0.0
 10
155.747771
 20
143.987301
 30
0.0
 10
154.730356
 20
144.408751
 30
0.0
 10
153.980210
 20
145.158933
 30
0.0
  0
SPLINE
  5
12f
100
AcDbEntity
  8
Layer_1
 62
1
100
AcDbSpline
 70
8
 71
3
 72
8
 73
4
 74
0
 40
0
 40
0
 40
0
 40
0
 40
1
 40
1
 40
1
 40
1
 10
153.980210
 20
145.158933
 30
0.0
 10
153.230067
 20
145.909119
 30
0.0
 10
152.808639
 20
146.926586
 30
0.0
 10
152.808639
 20
147.987506
 30
0.0
  0
SPLINE
  5
130
100
AcDbEntity
  8
Layer_1
 62
1
100
AcDbSpline
 70
8
 71
3
 72
8
 73
4
 74
0
 40
0
 40
0
 40
0
 40
0
 40
1
 40
1
 40
1
 40
1
 10
-78.461367
 20
129.176292
 30
0.0
 10
-78.461367
 20
130.237157
 30
0.0
 10
-78.039939
 20
131.254573
 30
0.0
 10
-77.289792
 20
132.004717
 30
0.0
  0
SPLINE
  5
131
100
AcDbEntity
  8
Layer_1
 62
1
100
AcDbSpline
 70
8
 71
3
 72
8
 73
4
 74
0
 40
0
 40
0
 40
0
 40
0
 40
1
 40
1
 40
1
 40
1
 10
-77.289792
 20
132.004717
 30
0.0
 10
-76.539648
 20
132.754863
 30
0.0
 10
-75.522233
 20
133.176292
 30
0.0
 10
-74.461367
 20
133.176292
 30
0.0
  0
SPLINE
  5
132
100
AcDbEntity
  8
Layer_1
 62
1
100
AcDbSpline
 70
8
 71
3
 72
8
 73
4
 74
0
 40
0
 40
0
 40
0
 40
0
 40
1
 40
1
 40
1
 40
1
 10
-74.461367
 20
133.176292
 30
0.0
 10
-73.400499
 20
133.176292
 30
0.0
 10
-72.383084
 20
132.754863
 30
0.0
 10
-71.632940
 20
132.004717
 30
0.0
  0
SPLINE
  5
133
100
AcDbEntity
  8
Layer_1
 62
1
100
AcDbSpline
 70
8
 71
3
 72
8
 73
4
 74
0
 40
0
 40
0
 40
0
 40
0
 40
1
 40
1
 40
1
 40
1
 10
-71.632940
 20
132.004717
 30
0.0
 10
-70.882793
 20
131.254573
 30
0.0
 10
-70.461367
 20
130.237157
 30
0.0
 10
-70.461367
 20
129.176292
 30
0.0
  0
SPLINE
  5
134
100
AcDbEntity
  8
Layer_1
 62
1
100
AcDbSpline
 70
8
 71
3
 72
8
 73
4
 74
0
 40
0
 40
0
 40
0
 40
0
 40
1
 40
1
 40
1
 40
1
 10
-70.461367
 20
129.176292
 30
0.0
 10
-70.461367
 20
128.115424
 30
0.0
 10
-70.882793
 20
127.098008
 30
0.0
 10
-71.632940
 20
126.347864
 30
0.0
  0
SPLINE
  5
135
100
AcDbEntity
  8
Layer_1
 62
1
100
AcDbSpline
 70
8
 71
3
 72
8
 73
4
 74
0
 40
0
 40
0
 40
0
 40
0
 40
1
 40
1
 40
1
 40
1
 10
-71.632940
 20
126.347864
 30
0.0
 10
-72.383084
 20
125.597718
 30
0.0
 10
-73.400499
 20
125.176292
 30
0.0
 10
-74.461367
 20
125.176292
 30
0.0
  0
SPLINE
  5
136
100
AcDbEntity
  8
Layer_1
 62
1
100
AcDbSpline
 70
8
 71
3
 72
8
 73
4
 74
0
 40
0
 40
0
 40
0
 40
0
 40
1
 40
1
 40
1
 40
1
 10
-74.461367
 20
125.176292
 30
0.0
 10
-75.522233
 20
125.176292
 30
0.0
 10
-76.539648
 20
125.597718
 30
0.0
 10
-77.289792
 20
126.347864
 30
0.0
  0
SPLINE
  5
137
100
AcDbEntity
  8
Layer_1
 62
1
100
AcDbSpline
 70
8
 71
3
 72
8
 73
4
 74
0
 40
0
 40
0
 40
0
 40
0
 40
1
 40
1
 40
1
 40
1
 10
-77.289792
 20
126.347864
 30
0.0
 10
-78.039939
 20
127.098008
 30
0.0
 10
-78.461367
 20
128.115424
 30
0.0
 10
-78.461367
 20
129.176292
 30
0.0
  0
SPLINE
  5
138
100
AcDbEntity
  8
Layer_1
 62
7
100
AcDbSpline
 70
8
 71
3
 72
8
 73
4
 74
0
 40
0
 40
0
 40
0
 40
0
 40
1
 40
1
 40
1
 40
1
 10
-184.808066
 20
123.176291
 30
0.0
 10
-187.578095
 20
123.176291
 30
0.0
 10
-189.808189
 20
125.406522
 30
0.0
 10
-189.808189
 20
128.176532
 30
0.0
  0
LWPOLYLINE
  5
139
100
AcDbEntity
  8
Layer_1
 62
7
100
AcDbPolyline
 90
4
 70
0
 10
185.163005
 20
154.252291
 30
0.0
 10
16.449802
 20
154.252291
 30
0.0
 10
-176.066614
 20
154.252291
 30
0.0
 10
-184.780073
 20
154.252820
 30
0.0
  0
SPLINE
  5
13a
100
AcDbEntity
  8
Layer_1
 62
7
100
AcDbSpline
 70
8
 71
3
 72
8
 73
4
 74
0
 40
0
 40
0
 40
0
 40
0
 40
1
 40
1
 40
1
 40
1
 10
-189.779709
 20
149.253000
 30
0.0
 10
-189.779709
 20
152.023020
 30
0.0
 10
-187.550039
 20
154.252730
 30
0.0
 10
-184.780010
 20
154.252730
 30
0.0
  0
SPLINE
  5
13b
100
AcDbEntity
  8
Layer_1
 62
7
100
AcDbSpline
 70
8
 71
3
 72
8
 73
4
 74
0
 40
0
 40
0
 40
0
 40
0
 40
1
 40
1
 40
1
 40
1
 10
-143.970745
 20
123.176291
 30
0.0
 10
-141.200717
 20
123.176291
 30
0.0
 10
-138.970366
 20
125.406522
 30
0.0
 10
-138.970366
 20
128.176532
 30
0.0
  0
LWPOLYLINE
  5
13c
100
AcDbEntity
  8
Layer_1
 62
7
100
AcDbPolyline
 90
2
 70
0
 10
-189.808189
 20
128.177008
 30
0.0
 10
-189.808189
 20
149.253007
 30
0.0
  0
SPLINE
  5
13d
100
AcDbEntity
  8
Layer_1
 62
1
100
AcDbSpline
 70
8
 71
3
 72
8
 73
4
 74
0
 40
0
 40
0
 40
0
 40
0
 40
1
 40
1
 40
1
 40
1
 10
-177.633360
 20
129.176292
 30
0.0
 10
-177.633360
 20
130.237157
 30
0.0
 10
-177.211932
 20
131.254575
 30
0.0
 10
-176.461788
 20
132.004719
 30
0.0
  0
SPLINE
  5
13e
100
AcDbEntity
  8
Layer_1
 62
1
100
AcDbSpline
 70
8
 71
3
 72
8
 73
4
 74
0
 40
0
 40
0
 40
0
 40
0
 40
1
 40
1
 40
1
 40
1
 10
-176.461788
 20
132.004719
 30
0.0
 10
-175.711641
 20
132.754866
 30
0.0
 10
-174.694226
 20
133.176292
 30
0.0
 10
-173.633360
 20
133.176292
 30
0.0
  0
SPLINE
  5
13f
100
AcDbEntity
  8
Layer_1
 62
1
100
AcDbSpline
 70
8
 71
3
 72
8
 73
4
 74
0
 40
0
 40
0
 40
0
 40
0
 40
1
 40
1
 40
1
 40
1
 10
-173.633360
 20
133.176292
 30
0.0
 10
-172.572495
 20
133.176292
 30
0.0
 10
-171.555079
 20
132.754866
 30
0.0
 10
-170.804933
 20
132.004719
 30
0.0
  0
SPLINE
  5
140
100
AcDbEntity
  8
Layer_1
 62
1
100
AcDbSpline
 70
8
 71
3
 72
8
 73
4
 74
0
 40
0
 40
0
 40
0
 40
0
 40
1
 40
1
 40
1
 40
1
 10
-170.804933
 20
132.004719
 30
0.0
 10
-170.054786
 20
131.254575
 30
0.0
 10
-169.633360
 20
130.237157
 30
0.0
 10
-169.633360
 20
129.176292
 30
0.0
  0
SPLINE
  5
141
100
AcDbEntity
  8
Layer_1
 62
1
100
AcDbSpline
 70
8
 71
3
 72
8
 73
4
 74
0
 40
0
 40
0
 40
0
 40
0
 40
1
 40
1
 40
1
 40
1
 10
-169.633360
 20
129.176292
 30
0.0
 10
-169.633360
 20
128.115426
 30
0.0
 10
-170.054786
 20
127.098011
 30
0.0
 10
-170.804933
 20
126.347864
 30
0.0
  0
SPLINE
  5
142
100
AcDbEntity
  8
Layer_1
 62
1
100
AcDbSpline
 70
8
 71
3
 72
8
 73
4
 74
0
 40
0
 40
0
 40
0
 40
0
 40
1
 40
1
 40
1
 40
1
 10
-170.804933
 20
126.347864
 30
0.0
 10
-171.555079
 20
125.597720
 30
0.0
 10
-172.572495
 20
125.176292
 30
0.0
 10
-173.633360
 20
125.176292
 30
0.0
  0
SPLINE
  5
143
100
AcDbEntity
  8
Layer_1
 62
1
100
AcDbSpline
 70
8
 71
3
 72
8
 73
4
 74
0
 40
0
 40
0
 40
0
 40
0
 40
1
 40
1
 40
1
 40
1
 10
-173.633360
 20
125.176292
 30
0.0
 10
-174.694226
 20
125.176292
 30
0.0
 10
-175.711641
 20
125.597720
 30
0.0
 10
-176.461788
 20
126.347864
 30
0.0
  0
SPLINE
  5
144
100
AcDbEntity
  8
Layer_1
 62
1
100
AcDbSpline
 70
8
 71
3
 72
8
 73
4
 74
0
 40
0
 40
0
 40
0
 40
0
 40
1
 40
1
 40
1
 40
1
 10
-176.461788
 20
126.347864
 30
0.0
 10
-177.211932
 20
127.098011
 30
0.0
 10
-177.633360
 20
128.115426
 30
0.0
 10
-177.633360
 20
129.176292
 30
0.0
  0
SPLINE
  5
145
100
AcDbEntity
  8
Layer_1
 62
1
100
AcDbSpline
 70
8
 71
3
 72
8
 73
4
 74
0
 40
0
 40
0
 40
0
 40
0
 40
1
 40
1
 40
1
 40
1
 10
-177.633360
 20
147.987292
 30
0.0
 10
-177.633360
 20
149.048157
 30
0.0
 10
-177.211932
 20
150.065573
 30
0.0
 10
-176.461788
 20
150.815719
 30
0.0
  0
SPLINE
  5
146
100
AcDbEntity
  8
Layer_1
 62
1
100
AcDbSpline
 70
8
 71
3
 72
8
 73
4
 74
0
 40
0
 40
0
 40
0
 40
0
 40
1
 40
1
 40
1
 40
1
 10
-176.461788
 20
150.815719
 30
0.0
 10
-175.711641
 20
151.565866
 30
0.0
 10
-174.694226
 20
151.987292
 30
0.0
 10
-173.633360
 20
151.987292
 30
0.0
  0
SPLINE
  5
147
100
AcDbEntity
  8
Layer_1
 62
1
100
AcDbSpline
 70
8
 71
3
 72
8
 73
4
 74
0
 40
0
 40
0
 40
0
 40
0
 40
1
 40
1
 40
1
 40
1
 10
-173.633360
 20
151.987292
 30
0.0
 10
-172.572495
 20
151.987292
 30
0.0
 10
-171.555079
 20
151.565866
 30
0.0
 10
-170.804933
 20
150.815719
 30
0.0
  0
SPLINE
  5
148
100
AcDbEntity
  8
Layer_1
 62
1
100
AcDbSpline
 70
8
 71
3
 72
8
 73
4
 74
0
 40
0
 40
0
 40
0
 40
0
 40
1
 40
1
 40
1
 40
1
 10
-170.804933
 20
150.815719
 30
0.0
 10
-170.054786
 20
150.065573
 30
0.0
 10
-169.633360
 20
149.048157
 30
0.0
 10
-169.633360
 20
147.987292
 30
0.0
  0
SPLINE
  5
149
100
AcDbEntity
  8
Layer_1
 62
1
100
AcDbSpline
 70
8
 71
3
 72
8
 73
4
 74
0
 40
0
 40
0
 40
0
 40
0
 40
1
 40
1
 40
1
 40
1
 10
-169.633360
 20
147.987292
 30
0.0
 10
-169.633360
 20
146.926426
 30
0.0
 10
-170.054786
 20
145.909011
 30
0.0
 10
-170.804933
 20
145.158864
 30
0.0
  0
SPLINE
  5
14a
100
AcDbEntity
  8
Layer_1
 62
1
100
AcDbSpline
 70
8
 71
3
 72
8
 73
4
 74
0
 40
0
 40
0
 40
0
 40
0
 40
1
 40
1
 40
1
 40
1
 10
-170.804933
 20
145.158864
 30
0.0
 10
-171.555079
 20
144.408720
 30
0.0
 10
-172.572495
 20
143.987292
 30
0.0
 10
-173.633360
 20
143.987292
 30
0.0
  0
SPLINE
  5
14b
100
AcDbEntity
  8
Layer_1
 62
1
100
AcDbSpline
 70
8
 71
3
 72
8
 73
4
 74
0
 40
0
 40
0
 40
0
 40
0
 40
1
 40
1
 40
1
 40
1
 10
-173.633360
 20
143.987292
 30
0.0
 10
-174.694226
 20
143.987292
 30
0.0
 10
-175.711641
 20
144.408720
 30
0.0
 10
-176.461788
 20
145.158864
 30
0.0
  0
SPLINE
  5
14c
100
AcDbEntity
  8
Layer_1
 62
1
100
AcDbSpline
 70
8
 71
3
 72
8
 73
4
 74
0
 40
0
 40
0
 40
0
 40
0
 40
1
 40
1
 40
1
 40
1
 10
-176.461788
 20
145.158864
 30
0.0
 10
-177.211932
 20
145.909011
 30
0.0
 10
-177.633360
 20
146.926426
 30
0.0
 10
-177.633360
 20
147.987292
 30
0.0
  0
SPLINE
  5
14d
100
AcDbEntity
  8
Layer_1
 62
1
100
AcDbSpline
 70
8
 71
3
 72
8
 73
4
 74
0
 40
0
 40
0
 40
0
 40
0
 40
1
 40
1
 40
1
 40
1
 10
-157.633374
 20
129.176292
 30
0.0
 10
-157.633374
 20
130.237157
 30
0.0
 10
-157.211945
 20
131.254575
 30
0.0
 10
-156.461801
 20
132.004719
 30
0.0
  0
SPLINE
  5
14e
100
AcDbEntity
  8
Layer_1
 62
1
100
AcDbSpline
 70
8
 71
3
 72
8
 73
4
 74
0
 40
0
 40
0
 40
0
 40
0
 40
1
 40
1
 40
1
 40
1
 10
-156.461801
 20
132.004719
 30
0.0
 10
-155.711655
 20
132.754866
 30
0.0
 10
-154.694239
 20
133.176292
 30
0.0
 10
-153.633374
 20
133.176292
 30
0.0
  0
SPLINE
  5
14f
100
AcDbEntity
  8
Layer_1
 62
1
100
AcDbSpline
 70
8
 71
3
 72
8
 73
4
 74
0
 40
0
 40
0
 40
0
 40
0
 40
1
 40
1
 40
1
 40
1
 10
-153.633374
 20
133.176292
 30
0.0
 10
-152.572508
 20
133.176292
 30
0.0
 10
-151.555093
 20
132.754866
 30
0.0
 10
-150.804946
 20
132.004719
 30
0.0
  0
SPLINE
  5
150
100
AcDbEntity
  8
Layer_1
 62
1
100
AcDbSpline
 70
8
 71
3
 72
8
 73
4
 74
0
 40
0
 40
0
 40
0
 40
0
 40
1
 40
1
 40
1
 40
1
 10
-150.804946
 20
132.004719
 30
0.0
 10
-150.054799
 20
131.254575
 30
0.0
 10
-149.633374
 20
130.237157
 30
0.0
 10
-149.633374
 20
129.176292
 30
0.0
  0
SPLINE
  5
151
100
AcDbEntity
  8
Layer_1
 62
1
100
AcDbSpline
 70
8
 71
3
 72
8
 73
4
 74
0
 40
0
 40
0
 40
0
 40
0
 40
1
 40
1
 40
1
 40
1
 10
-149.633374
 20
129.176292
 30
0.0
 10
-149.633374
 20
128.115426
 30
0.0
 10
-150.054799
 20
127.098011
 30
0.0
 10
-150.804946
 20
126.347864
 30
0.0
  0
SPLINE
  5
152
100
AcDbEntity
  8
Layer_1
 62
1
100
AcDbSpline
 70
8
 71
3
 72
8
 73
4
 74
0
 40
0
 40
0
 40
0
 40
0
 40
1
 40
1
 40
1
 40
1
 10
-150.804946
 20
126.347864
 30
0.0
 10
-151.555093
 20
125.597720
 30
0.0
 10
-152.572508
 20
125.176292
 30
0.0
 10
-153.633374
 20
125.176292
 30
0.0
  0
SPLINE
  5
153
100
AcDbEntity
  8
Layer_1
 62
1
100
AcDbSpline
 70
8
 71
3
 72
8
 73
4
 74
0
 40
0
 40
0
 40
0
 40
0
 40
1
 40
1
 40
1
 40
1
 10
-153.633374
 20
125.176292
 30
0.0
 10
-154.694239
 20
125.176292
 30
0.0
 10
-155.711655
 20
125.597720
 30
0.0
 10
-156.461801
 20
126.347864
 30
0.0
  0
SPLINE
  5
154
100
AcDbEntity
  8
Layer_1
 62
1
100
AcDbSpline
 70
8
 71
3
 72
8
 73
4
 74
0
 40
0
 40
0
 40
0
 40
0
 40
1
 40
1
 40
1
 40
1
 10
-156.461801
 20
126.347864
 30
0.0
 10
-157.211945
 20
127.098011
 30
0.0
 10
-157.633374
 20
128.115426
 30
0.0
 10
-157.633374
 20
129.176292
 30
0.0
  0
SPLINE
  5
155
100
AcDbEntity
  8
Layer_1
 62
1
100
AcDbSpline
 70
8
 71
3
 72
8
 73
4
 74
0
 40
0
 40
0
 40
0
 40
0
 40
1
 40
1
 40
1
 40
1
 10
-157.633374
 20
147.987292
 30
0.0
 10
-157.633374
 20
149.048157
 30
0.0
 10
-157.211945
 20
150.065573
 30
0.0
 10
-156.461801
 20
150.815719
 30
0.0
  0
SPLINE
  5
156
100
AcDbEntity
  8
Layer_1
 62
1
100
AcDbSpline
 70
8
 71
3
 72
8
 73
4
 74
0
 40
0
 40
0
 40
0
 40
0
 40
1
 40
1
 40
1
 40
1
 10
-156.461801
 20
150.815719
 30
0.0
 10
-155.711655
 20
151.565866
 30
0.0
 10
-154.694239
 20
151.987292
 30
0.0
 10
-153.633374
 20
151.987292
 30
0.0
  0
SPLINE
  5
157
100
AcDbEntity
  8
Layer_1
 62
1
100
AcDbSpline
 70
8
 71
3
 72
8
 73
4
 74
0
 40
0
 40
0
 40
0
 40
0
 40
1
 40
1
 40
1
 40
1
 10
-153.633374
 20
151.987292
 30
0.0
 10
-152.572508
 20
151.987292
 30
0.0
 10
-151.555093
 20
151.565866
 30
0.0
 10
-150.804946
 20
150.815719
 30
0.0
  0
SPLINE
  5
158
100
AcDbEntity
  8
Layer_1
 62
1
100
AcDbSpline
 70
8
 71
3
 72
8
 73
4
 74
0
 40
0
 40
0
 40
0
 40
0
 40
1
 40
1
 40
1
 40
1
 10
-150.804946
 20
150.815719
 30
0.0
 10
-150.054799
 20
150.065573
 30
0.0
 10
-149.633374
 20
149.048157
 30
0.0
 10
-149.633374
 20
147.987292
 30
0.0
  0
SPLINE
  5
159
100
AcDbEntity
  8
Layer_1
 62
1
100
AcDbSpline
 70
8
 71
3
 72
8
 73
4
 74
0
 40
0
 40
0
 40
0
 40
0
 40
1
 40
1
 40
1
 40
1
 10
-149.633374
 20
147.987292
 30
0.0
 10
-149.633374
 20
146.926426
 30
0.0
 10
-150.054799
 20
145.909011
 30
0.0
 10
-150.804946
 20
145.158864
 30
0.0
  0
SPLINE
  5
15a
100
AcDbEntity
  8
Layer_1
 62
1
100
AcDbSpline
 70
8
 71
3
 72
8
 73
4
 74
0
 40
0
 40
0
 40
0
 40
0
 40
1
 40
1
 40
1
 40
1
 10
-150.804946
 20
145.158864
 30
0.0
 10
-151.555093
 20
144.408720
 30
0.0
 10
-152.572508
 20
143.987292
 30
0.0
 10
-153.633374
 20
143.987292
 30
0.0
  0
SPLINE
  5
15b
100
AcDbEntity
  8
Layer_1
 62
1
100
AcDbSpline
 70
8
 71
3
 72
8
 73
4
 74
0
 40
0
 40
0
 40
0
 40
0
 40
1
 40
1
 40
1
 40
1
 10
-153.633374
 20
143.987292
 30
0.0
 10
-154.694239
 20
143.987292
 30
0.0
 10
-155.711655
 20
144.408720
 30
0.0
 10
-156.461801
 20
145.158864
 30
0.0
  0
SPLINE
  5
15c
100
AcDbEntity
  8
Layer_1
 62
1
100
AcDbSpline
 70
8
 71
3
 72
8
 73
4
 74
0
 40
0
 40
0
 40
0
 40
0
 40
1
 40
1
 40
1
 40
1
 10
-156.461801
 20
145.158864
 30
0.0
 10
-157.211945
 20
145.909011
 30
0.0
 10
-157.633374
 20
146.926426
 30
0.0
 10
-157.633374
 20
147.987292
 30
0.0
  0
LWPOLYLINE
  5
15d
100
AcDbEntity
  8
Layer_1
 62
7
100
AcDbPolyline
 90
2
 70
0
 10
-138.970366
 20
128.177008
 30
0.0
 10
-138.970366
 20
134.309007
 30
0.0
  0
LWPOLYLINE
  5
15e
100
AcDbEntity
  8
Layer_1
 62
5
100
AcDbPolyline
 90
2
 70
0
 10
-176.115869
 20
140.661402
 30
0.0
 10
-176.115869
 20
136.457702
 30
0.0
  0
LWPOLYLINE
  5
15f
100
AcDbEntity
  8
Layer_1
 62
5
100
AcDbPolyline
 90
12
 70
0
 10
-176.115869
 20
140.661402
 30
0.0
 10
-174.712519
 20
140.661402
 30
0.0
 10
-174.109269
 20
140.458202
 30
0.0
 10
-173.715569
 20
140.058152
 30
0.0
 10
-173.512369
 20
139.658102
 30
0.0
 10
-173.309169
 20
139.061202
 30
0.0
 10
-173.309169
 20
138.057902
 30
0.0
 10
-173.512369
 20
137.461002
 30
0.0
 10
-173.715569
 20
137.057777
 30
0.0
 10
-174.109269
 20
136.657727
 30
0.0
 10
-174.712519
 20
136.457702
 30
0.0
 10
-176.115869
 20
136.457702
 30
0.0
  0
LWPOLYLINE
  5
160
100
AcDbEntity
  8
Layer_1
 62
5
100
AcDbPolyline
 90
16
 70
1
 10
-171.112069
 20
139.258052
 30
0.0
 10
-171.505769
 20
139.061202
 30
0.0
 10
-171.912169
 20
138.654802
 30
0.0
 10
-172.109019
 20
138.057902
 30
0.0
 10
-172.109019
 20
137.657852
 30
0.0
 10
-171.912169
 20
137.057777
 30
0.0
 10
-171.505769
 20
136.657727
 30
0.0
 10
-171.112069
 20
136.457702
 30
0.0
 10
-170.508819
 20
136.457702
 30
0.0
 10
-170.108769
 20
136.657727
 30
0.0
 10
-169.708719
 20
137.057777
 30
0.0
 10
-169.511869
 20
137.657852
 30
0.0
 10
-169.511869
 20
138.057902
 30
0.0
 10
-169.708719
 20
138.654802
 30
0.0
 10
-170.108769
 20
139.061202
 30
0.0
 10
-170.508819
 20
139.258052
 30
0.0
  0
LWPOLYLINE
  5
161
100
AcDbEntity
  8
Layer_1
 62
5
100
AcDbPolyline
 90
2
 70
0
 10
-168.114869
 20
140.661402
 30
0.0
 10
-168.114869
 20
136.457702
 30
0.0
  0
LWPOLYLINE
  5
162
100
AcDbEntity
  8
Layer_1
 62
5
100
AcDbPolyline
 90
2
 70
0
 10
-168.114869
 20
140.661402
 30
0.0
 10
-165.511369
 20
140.661402
 30
0.0
  0
LWPOLYLINE
  5
163
100
AcDbEntity
  8
Layer_1
 62
5
100
AcDbPolyline
 90
2
 70
0
 10
-168.114869
 20
138.654802
 30
0.0
 10
-166.514669
 20
138.654802
 30
0.0
  0
LWPOLYLINE
  5
164
100
AcDbEntity
  8
Layer_1
 62
5
100
AcDbPolyline
 90
2
 70
0
 10
-168.114869
 20
136.457702
 30
0.0
 10
-165.511369
 20
136.457702
 30
0.0
  0
LWPOLYLINE
  5
165
100
AcDbEntity
  8
Layer_1
 62
5
100
AcDbPolyline
 90
20
 70
0
 10
-161.714069
 20
140.058152
 30
0.0
 10
-162.114119
 20
140.458202
 30
0.0
 10
-162.717369
 20
140.661402
 30
0.0
 10
-163.517469
 20
140.661402
 30
0.0
 10
-164.114369
 20
140.458202
 30
0.0
 10
-164.514419
 20
140.058152
 30
0.0
 10
-164.514419
 20
139.658102
 30
0.0
 10
-164.317569
 20
139.258052
 30
0.0
 10
-164.114369
 20
139.061202
 30
0.0
 10
-163.714319
 20
138.858002
 30
0.0
 10
-162.514169
 20
138.457952
 30
0.0
 10
-162.114119
 20
138.261102
 30
0.0
 10
-161.917269
 20
138.057902
 30
0.0
 10
-161.714069
 20
137.657852
 30
0.0
 10
-161.714069
 20
137.057777
 30
0.0
 10
-162.114119
 20
136.657727
 30
0.0
 10
-162.717369
 20
136.457702
 30
0.0
 10
-163.517469
 20
136.457702
 30
0.0
 10
-164.114369
 20
136.657727
 30
0.0
 10
-164.514419
 20
137.057777
 30
0.0
  0
LWPOLYLINE
  5
166
100
AcDbEntity
  8
Layer_1
 62
5
100
AcDbPolyline
 90
2
 70
0
 10
-158.310469
 20
139.258052
 30
0.0
 10
-157.116669
 20
136.457702
 30
0.0
  0
LWPOLYLINE
  5
167
100
AcDbEntity
  8
Layer_1
 62
5
100
AcDbPolyline
 90
2
 70
0
 10
-155.910169
 20
139.258052
 30
0.0
 10
-157.116669
 20
136.457702
 30
0.0
  0
LWPOLYLINE
  5
168
100
AcDbEntity
  8
Layer_1
 62
5
100
AcDbPolyline
 90
4
 70
0
 10
-154.309969
 20
139.861302
 30
0.0
 10
-153.916269
 20
140.058152
 30
0.0
 10
-153.313019
 20
140.661402
 30
0.0
 10
-153.313019
 20
136.457702
 30
0.0
  0
SPLINE
  5
169
100
AcDbEntity
  8
Layer_1
 62
1
100
AcDbSpline
 70
8
 71
3
 72
8
 73
4
 74
0
 40
0
 40
0
 40
0
 40
0
 40
1
 40
1
 40
1
 40
1
 10
-43.394754
 20
145.019763
 30
0.0
 10
-44.467734
 20
145.019763
 30
0.0
 10
-45.459163
 20
145.499138
 30
0.0
 10
-45.995651
 20
146.277311
 30
0.0
  0
SPLINE
  5
16a
100
AcDbEntity
  8
Layer_1
 62
1
100
AcDbSpline
 70
8
 71
3
 72
8
 73
4
 74
0
 40
0
 40
0
 40
0
 40
0
 40
1
 40
1
 40
1
 40
1
 10
-45.995651
 20
146.277311
 30
0.0
 10
-46.532140
 20
147.055485
 30
0.0
 10
-46.532140
 20
148.014234
 30
0.0
 10
-45.995651
 20
148.792407
 30
0.0
  0
SPLINE
  5
16b
100
AcDbEntity
  8
Layer_1
 62
1
100
AcDbSpline
 70
8
 71
3
 72
8
 73
4
 74
0
 40
0
 40
0
 40
0
 40
0
 40
1
 40
1
 40
1
 40
1
 10
-45.995651
 20
148.792407
 30
0.0
 10
-45.459163
 20
149.570583
 30
0.0
 10
-44.467689
 20
150.049765
 30
0.0
 10
-43.394709
 20
150.049765
 30
0.0
  0
LWPOLYLINE
  5
16c
100
AcDbEntity
  8
Layer_1
 62
7
100
AcDbPolyline
 90
2
 70
0
 10
-184.808000
 20
123.176008
 30
0.0
 10
-143.971074
 20
123.177066
 30
0.0
  0
LWPOLYLINE
  5
16d
100
AcDbEntity
  8
Layer_1
 62
1
100
AcDbPolyline
 90
2
 70
0
 10
-43.393051
 20
150.049765
 30
0.0
 10
-34.267167
 20
150.073240
 30
0.0
  0
SPLINE
  5
16e
100
AcDbEntity
  8
Layer_1
 62
1
100
AcDbSpline
 70
8
 71
3
 72
8
 73
4
 74
0
 40
0
 40
0
 40
0
 40
0
 40
1
 40
1
 40
1
 40
1
 10
-121.812000
 20
145.019763
 30
0.0
 10
-122.884979
 20
145.019763
 30
0.0
 10
-123.876409
 20
145.499137
 30
0.0
 10
-124.412897
 20
146.277311
 30
0.0
  0
SPLINE
  5
16f
100
AcDbEntity
  8
Layer_1
 62
1
100
AcDbSpline
 70
8
 71
3
 72
8
 73
4
 74
0
 40
0
 40
0
 40
0
 40
0
 40
1
 40
1
 40
1
 40
1
 10
-124.412897
 20
146.277311
 30
0.0
 10
-124.949385
 20
147.055484
 30
0.0
 10
-124.949385
 20
148.014233
 30
0.0
 10
-124.412897
 20
148.792407
 30
0.0
  0
SPLINE
  5
170
100
AcDbEntity
  8
Layer_1
 62
1
100
AcDbSpline
 70
8
 71
3
 72
8
 73
4
 74
0
 40
0
 40
0
 40
0
 40
0
 40
1
 40
1
 40
1
 40
1
 10
-124.412897
 20
148.792407
 30
0.0
 10
-123.876409
 20
149.570582
 30
0.0
 10
-122.884934
 20
150.049764
 30
0.0
 10
-121.811955
 20
150.049764
 30
0.0
  0
LWPOLYLINE
  5
171
100
AcDbEntity
  8
Layer_1
 62
1
100
AcDbPolyline
 90
2
 70
0
 10
-43.393435
 20
145.019752
 30
0.0
 10
-34.268168
 20
145.066520
 30
0.0
  0
LWPOLYLINE
  5
172
100
AcDbEntity
  8
Layer_1
 62
1
100
AcDbPolyline
 90
2
 70
0
 10
-121.810297
 20
150.049764
 30
0.0
 10
-112.684412
 20
150.073239
 30
0.0
  0
SPLINE
  5
173
100
AcDbEntity
  8
Layer_1
 62
1
100
AcDbSpline
 70
8
 71
3
 72
8
 73
4
 74
0
 40
0
 40
0
 40
0
 40
0
 40
1
 40
1
 40
1
 40
1
 10
43.782605
 20
150.072917
 30
0.0
 10
44.855519
 20
150.072917
 30
0.0
 10
45.846889
 20
149.593571
 30
0.0
 10
46.383345
 20
148.815445
 30
0.0
  0
SPLINE
  5
174
100
AcDbEntity
  8
Layer_1
 62
1
100
AcDbSpline
 70
8
 71
3
 72
8
 73
4
 74
0
 40
0
 40
0
 40
0
 40
0
 40
1
 40
1
 40
1
 40
1
 10
46.383345
 20
148.815445
 30
0.0
 10
46.919800
 20
148.037318
 30
0.0
 10
46.919800
 20
147.078627
 30
0.0
 10
46.383345
 20
146.300501
 30
0.0
  0
SPLINE
  5
175
100
AcDbEntity
  8
Layer_1
 62
1
100
AcDbSpline
 70
8
 71
3
 72
8
 73
4
 74
0
 40
0
 40
0
 40
0
 40
0
 40
1
 40
1
 40
1
 40
1
 10
46.383345
 20
146.300501
 30
0.0
 10
45.846889
 20
145.522372
 30
0.0
 10
44.855474
 20
145.043220
 30
0.0
 10
43.782560
 20
145.043220
 30
0.0
  0
LWPOLYLINE
  5
176
100
AcDbEntity
  8
Layer_1
 62
1
100
AcDbPolyline
 90
2
 70
0
 10
-121.810681
 20
145.019751
 30
0.0
 10
-112.685414
 20
145.066519
 30
0.0
  0
LWPOLYLINE
  5
177
100
AcDbEntity
  8
Layer_1
 62
1
100
AcDbPolyline
 90
2
 70
0
 10
43.780902
 20
145.043220
 30
0.0
 10
34.655570
 20
145.019746
 30
0.0
  0
SPLINE
  5
178
100
AcDbEntity
  8
Layer_1
 62
1
100
AcDbSpline
 70
8
 71
3
 72
8
 73
4
 74
0
 40
0
 40
0
 40
0
 40
0
 40
1
 40
1
 40
1
 40
1
 10
122.195104
 20
150.072918
 30
0.0
 10
123.268018
 20
150.072918
 30
0.0
 10
124.259388
 20
149.593573
 30
0.0
 10
124.795843
 20
148.815446
 30
0.0
  0
SPLINE
  5
179
100
AcDbEntity
  8
Layer_1
 62
1
100
AcDbSpline
 70
8
 71
3
 72
8
 73
4
 74
0
 40
0
 40
0
 40
0
 40
0
 40
1
 40
1
 40
1
 40
1
 10
124.795843
 20
148.815446
 30
0.0
 10
125.332299
 20
148.037320
 30
0.0
 10
125.332299
 20
147.078629
 30
0.0
 10
124.795843
 20
146.300503
 30
0.0
  0
SPLINE
  5
17a
100
AcDbEntity
  8
Layer_1
 62
1
100
AcDbSpline
 70
8
 71
3
 72
8
 73
4
 74
0
 40
0
 40
0
 40
0
 40
0
 40
1
 40
1
 40
1
 40
1
 10
124.795843
 20
146.300503
 30
0.0
 10
124.259388
 20
145.522374
 30
0.0
 10
123.267973
 20
145.043221
 30
0.0
 10
122.195059
 20
145.043221
 30
0.0
  0
LWPOLYLINE
  5
17b
100
AcDbEntity
  8
Layer_1
 62
1
100
AcDbPolyline
 90
2
 70
0
 10
43.781286
 20
150.072928
 30
0.0
 10
34.656571
 20
150.026163
 30
0.0
  0
LWPOLYLINE
  5
17c
100
AcDbEntity
  8
Layer_1
 62
1
100
AcDbPolyline
 90
2
 70
0
 10
122.193401
 20
145.043221
 30
0.0
 10
113.068069
 20
145.019748
 30
0.0
  0
SPLINE
  5
17d
100
AcDbEntity
  8
Layer_1
 62
7
100
AcDbSpline
 70
8
 71
3
 72
8
 73
4
 74
0
 40
0
 40
0
 40
0
 40
0
 40
1
 40
1
 40
1
 40
1
 10
-133.970001
 20
139.308728
 30
0.0
 10
-136.739990
 20
139.308728
 30
0.0
 10
-138.969708
 20
137.079018
 30
0.0
 10
-138.969708
 20
134.309007
 30
0.0
  0
LWPOLYLINE
  5
17e
100
AcDbEntity
  8
Layer_1
 62
1
100
AcDbPolyline
 90
2
 70
0
 10
122.193785
 20
150.072930
 30
0.0
 10
113.069070
 20
150.026164
 30
0.0
  0
ENDSEC
  0
SECTION
  2
OBJECTS
  0
DICTIONARY
  5
C
330
0
100
AcDbDictionary
  3
ACAD_GROUP
350
D
  3
ACAD_MLINESTYLE
350
17
  0
DICTIONARY
  5
D
330
C
100
AcDbDictionary
  0
DICTIONARY
  5
1A
330
C
100
AcDbDictionary
  0
DICTIONARY
  5
17
330
C
100
AcDbDictionary
  3
STANDARD
350
18
  0
DICTIONARY
  5
19
330
C
100
AcDbDictionary
  0
ENDSEC
  0
EOF
