  0
SECTION
  2
HEADER
  9
$ACADVER
  1
AC1014
  9
$HANDSEED
  5
FFFF
  9
$MEASUREMENT
 70
     1
  0
ENDSEC
  0
SECTION
  2
TABLES
  0
TABLE
  2
VPORT
  5
8
330
0
100
AcDbSymbolTable
 70
     4
  0
VPORT
  5
2E
330
8
100
AcDbSymbolTableRecord
100
AcDbViewportTableRecord
  2
*ACTIVE
 70
     0
 10
0.0
 20
0.0
 11
1.0
 21
1.0
 12
210.0
 22
148.5
 13
0.0
 23
0.0
 14
10.0
 24
10.0
 15
10.0
 25
10.0
 16
0.0
 26
0.0
 36
1.0
 17
0.0
 27
0.0
 37
0.0
 40
341.0
 41
1.24
 42
50.0
 43
0.0
 44
0.0
 50
0.0
 51
0.0
 71
     0
 72
   100
 73
     1
 74
     3
 75
     0
 76
     0
 77
     0
 78
     0
  0
ENDTAB
  0
TABLE
  2
LTYPE
  5
5
330
0
100
AcDbSymbolTable
 70
     1
  0
LTYPE
  5
14
330
5
100
AcDbSymbolTableRecord
100
AcDbLinetypeTableRecord
  2
BYBLOCK
 70
     0
  3

 72
    65
 73
     0
 40
0.0
  0
LTYPE
  5
15
330
5
100
AcDbSymbolTableRecord
100
AcDbLinetypeTableRecord
  2
BYLAYER
 70
     0
  3

 72
    65
 73
     0
 40
0.0
  0
LTYPE
  5
16
330
5
100
AcDbSymbolTableRecord
100
AcDbLinetypeTableRecord
  2
CONTINUOUS
 70
     0
  3
Solid line
 72
    65
 73
     0
 40
0.0
  0
ENDTAB
  0
TABLE
  2
LAYER
  5
2
100
AcDbSymbolTable
 70
2
  0
LAYER
  5
50
100
AcDbSymbolTableRecord
100
AcDbLayerTableRecord
  2
0
 70
0
  6
CONTINUOUS
  0
LAYER
  5
51
100
AcDbSymbolTableRecord
100
AcDbLayerTableRecord
  2
Layer_1
 70
0
  6
CONTINUOUS
  0
ENDTAB
  0
TABLE
  2
STYLE
  5
3
330
0
100
AcDbSymbolTable
 70
     1
  0
STYLE
  5
11
330
3
100
AcDbSymbolTableRecord
100
AcDbTextStyleTableRecord
  2
STANDARD
 70
     0
 40
0.0
 41
1.0
 50
0.0
 71
     0
 42
2.5
  3
txt
  4

  0
ENDTAB
  0
TABLE
  2
VIEW
  5
6
330
0
100
AcDbSymbolTable
 70
     0
  0
ENDTAB
  0
TABLE
  2
UCS
  5
7
330
0
100
AcDbSymbolTable
 70
     0
  0
ENDTAB
  0
TABLE
  2
APPID
  5
9
330
0
100
AcDbSymbolTable
 70
     2
  0
APPID
  5
12
330
9
100
AcDbSymbolTableRecord
100
AcDbRegAppTableRecord
  2
ACAD
 70
     0
  0
ENDTAB
  0
TABLE
  2
DIMSTYLE
  5
A
330
0
100
AcDbSymbolTable
 70
     1
  0
DIMSTYLE
105
27
330
A
100
AcDbSymbolTableRecord
100
AcDbDimStyleTableRecord
  2
ISO-25
 70
     0
  3

  4

  5

  6

  7

 40
1.0
 41
2.5
 42
0.625
 43
3.75
 44
1.25
 45
0.0
 46
0.0
 47
0.0
 48
0.0
140
2.5
141
2.5
142
0.0
143
0.03937007874016
144
1.0
145
0.0
146
1.0
147
0.625
 71
     0
 72
     0
 73
     0
 74
     0
 75
     0
 76
     0
 77
     1
 78
     8
170
     0
171
     3
172
     1
173
     0
174
     0
175
     0
176
     0
177
     0
178
     0
270
     2
271
     2
272
     2
273
     2
274
     3
340
11
275
     0
280
     0
281
     0
282
     0
283
     0
284
     8
285
     0
286
     0
287
     3
288
     0
  0
ENDTAB
  0
TABLE
  2
BLOCK_RECORD
  5
1
330
0
100
AcDbSymbolTable
 70
     1
  0
BLOCK_RECORD
  5
1F
330
1
100
AcDbSymbolTableRecord
100
AcDbBlockTableRecord
  2
*MODEL_SPACE
  0
BLOCK_RECORD
  5
1B
330
1
100
AcDbSymbolTableRecord
100
AcDbBlockTableRecord
  2
*PAPER_SPACE
  0
ENDTAB
  0
ENDSEC
  0
SECTION
  2
BLOCKS
  0
BLOCK
  5
20
330
1F
100
AcDbEntity
  8
0
100
AcDbBlockBegin
  2
*MODEL_SPACE
 70
     0
 10
0.0
 20
0.0
 30
0.0
  3
*MODEL_SPACE
  1

  0
ENDBLK
  5
21
330
1F
100
AcDbEntity
  8
0
100
AcDbBlockEnd
  0
BLOCK
  5
1C
330
1B
100
AcDbEntity
 67
     1
  8
0
100
AcDbBlockBegin
  2
*PAPER_SPACE
  1

  0
ENDBLK
  5
1D
330
1B
100
AcDbEntity
 67
     1
  8
0
100
AcDbBlockEnd
  0
ENDSEC
  0
SECTION
  2
ENTITIES
  0
SPLINE
  5
100
100
AcDbEntity
  8
Layer_1
 62
1
100
AcDbSpline
 70
8
 71
3
 72
8
 73
4
 74
0
 40
0
 40
0
 40
0
 40
0
 40
1
 40
1
 40
1
 40
1
 10
42.630691
 20
153.864195
 30
0.0
 10
41.557776
 20
153.864195
 30
0.0
 10
40.566406
 20
154.343541
 30
0.0
 10
40.029950
 20
155.121667
 30
0.0
  0
SPLINE
  5
101
100
AcDbEntity
  8
Layer_1
 62
1
100
AcDbSpline
 70
8
 71
3
 72
8
 73
4
 74
0
 40
0
 40
0
 40
0
 40
0
 40
1
 40
1
 40
1
 40
1
 10
40.029950
 20
155.121667
 30
0.0
 10
39.493494
 20
155.899794
 30
0.0
 10
39.493494
 20
156.858485
 30
0.0
 10
40.029950
 20
157.636611
 30
0.0
  0
SPLINE
  5
102
100
AcDbEntity
  8
Layer_1
 62
1
100
AcDbSpline
 70
8
 71
3
 72
8
 73
4
 74
0
 40
0
 40
0
 40
0
 40
0
 40
1
 40
1
 40
1
 40
1
 10
40.029950
 20
157.636611
 30
0.0
 10
40.566406
 20
158.414740
 30
0.0
 10
41.557821
 20
158.893893
 30
0.0
 10
42.630736
 20
158.893893
 30
0.0
  0
LINE
  5
103
100
AcDbEntity
  8
Layer_1
 62
1
100
AcDbLine
 10
42.632392
 20
158.893893
 30
0.0
 11
51.757726
 21
158.917361
 31
0.0
  0
SPLINE
  5
104
100
AcDbEntity
  8
Layer_1
 62
1
100
AcDbSpline
 70
8
 71
3
 72
8
 73
4
 74
0
 40
0
 40
0
 40
0
 40
0
 40
1
 40
1
 40
1
 40
1
 10
-35.781811
 20
153.864201
 30
0.0
 10
-36.854726
 20
153.864201
 30
0.0
 10
-37.846095
 20
154.343546
 30
0.0
 10
-38.382551
 20
155.121673
 30
0.0
  0
SPLINE
  5
105
100
AcDbEntity
  8
Layer_1
 62
1
100
AcDbSpline
 70
8
 71
3
 72
8
 73
4
 74
0
 40
0
 40
0
 40
0
 40
0
 40
1
 40
1
 40
1
 40
1
 10
-38.382551
 20
155.121673
 30
0.0
 10
-38.919007
 20
155.899799
 30
0.0
 10
-38.919007
 20
156.858490
 30
0.0
 10
-38.382551
 20
157.636617
 30
0.0
  0
SPLINE
  5
106
100
AcDbEntity
  8
Layer_1
 62
1
100
AcDbSpline
 70
8
 71
3
 72
8
 73
4
 74
0
 40
0
 40
0
 40
0
 40
0
 40
1
 40
1
 40
1
 40
1
 10
-38.382551
 20
157.636617
 30
0.0
 10
-37.846095
 20
158.414746
 30
0.0
 10
-36.854681
 20
158.893898
 30
0.0
 10
-35.781766
 20
158.893898
 30
0.0
  0
LINE
  5
107
100
AcDbEntity
  8
Layer_1
 62
1
100
AcDbLine
 10
42.632008
 20
153.864185
 30
0.0
 11
51.756723
 21
153.910950
 31
0.0
  0
LINE
  5
108
100
AcDbEntity
  8
Layer_1
 62
1
100
AcDbLine
 10
-35.780108
 20
158.893898
 30
0.0
 11
-26.654776
 21
158.917367
 31
0.0
  0
SPLINE
  5
109
100
AcDbEntity
  8
Layer_1
 62
1
100
AcDbSpline
 70
8
 71
3
 72
8
 73
4
 74
0
 40
0
 40
0
 40
0
 40
0
 40
1
 40
1
 40
1
 40
1
 10
128.754643
 20
158.917356
 30
0.0
 10
129.827557
 20
158.917356
 30
0.0
 10
130.818927
 20
158.438008
 30
0.0
 10
131.355383
 20
157.659884
 30
0.0
  0
SPLINE
  5
10a
100
AcDbEntity
  8
Layer_1
 62
1
100
AcDbSpline
 70
8
 71
3
 72
8
 73
4
 74
0
 40
0
 40
0
 40
0
 40
0
 40
1
 40
1
 40
1
 40
1
 10
131.355383
 20
157.659884
 30
0.0
 10
131.891839
 20
156.881755
 30
0.0
 10
131.891839
 20
155.923064
 30
0.0
 10
131.355383
 20
155.144940
 30
0.0
  0
SPLINE
  5
10b
100
AcDbEntity
  8
Layer_1
 62
1
100
AcDbSpline
 70
8
 71
3
 72
8
 73
4
 74
0
 40
0
 40
0
 40
0
 40
0
 40
1
 40
1
 40
1
 40
1
 10
131.355383
 20
155.144940
 30
0.0
 10
130.818927
 20
154.366811
 30
0.0
 10
129.827512
 20
153.887659
 30
0.0
 10
128.754598
 20
153.887659
 30
0.0
  0
LINE
  5
10c
100
AcDbEntity
  8
Layer_1
 62
1
100
AcDbLine
 10
-35.780492
 20
153.864190
 30
0.0
 11
-26.655778
 21
153.910955
 31
0.0
  0
LINE
  5
10d
100
AcDbEntity
  8
Layer_1
 62
1
100
AcDbLine
 10
128.752939
 20
153.887659
 30
0.0
 11
119.627608
 21
153.864190
 31
0.0
  0
SPLINE
  5
10e
100
AcDbEntity
  8
Layer_1
 62
1
100
AcDbSpline
 70
8
 71
3
 72
8
 73
4
 74
0
 40
0
 40
0
 40
0
 40
0
 40
1
 40
1
 40
1
 40
1
 10
207.167141
 20
158.917351
 30
0.0
 10
208.240056
 20
158.917351
 30
0.0
 10
209.231426
 20
158.438005
 30
0.0
 10
209.767882
 20
157.659879
 30
0.0
  0
SPLINE
  5
10f
100
AcDbEntity
  8
Layer_1
 62
1
100
AcDbSpline
 70
8
 71
3
 72
8
 73
4
 74
0
 40
0
 40
0
 40
0
 40
0
 40
1
 40
1
 40
1
 40
1
 10
209.767882
 20
157.659879
 30
0.0
 10
210.304338
 20
156.881752
 30
0.0
 10
210.304338
 20
155.923061
 30
0.0
 10
209.767882
 20
155.144935
 30
0.0
  0
SPLINE
  5
110
100
AcDbEntity
  8
Layer_1
 62
1
100
AcDbSpline
 70
8
 71
3
 72
8
 73
4
 74
0
 40
0
 40
0
 40
0
 40
0
 40
1
 40
1
 40
1
 40
1
 10
209.767882
 20
155.144935
 30
0.0
 10
209.231426
 20
154.366806
 30
0.0
 10
208.240011
 20
153.887653
 30
0.0
 10
207.167096
 20
153.887653
 30
0.0
  0
LINE
  5
111
100
AcDbEntity
  8
Layer_1
 62
1
100
AcDbLine
 10
128.753325
 20
158.917367
 30
0.0
 11
119.628610
 21
158.870602
 31
0.0
  0
LINE
  5
112
100
AcDbEntity
  8
Layer_1
 62
1
100
AcDbLine
 10
207.165440
 20
153.887653
 30
0.0
 11
198.040106
 21
153.864185
 31
0.0
  0
LINE
  5
113
100
AcDbEntity
  8
Layer_1
 62
1
100
AcDbLine
 10
207.165824
 20
158.917361
 30
0.0
 11
198.041109
 21
158.870596
 31
0.0
  0
LINE
  5
114
100
AcDbEntity
  8
Layer_1
 62
5
100
AcDbLine
 10
-90.118340
 20
139.959563
 30
0.0
 11
-90.118340
 21
134.403313
 31
0.0
  0
LINE
  5
115
100
AcDbEntity
  8
Layer_1
 62
5
100
AcDbLine
 10
-90.118340
 20
139.959563
 30
0.0
 11
-87.737090
 21
139.959563
 31
0.0
  0
LINE
  5
116
100
AcDbEntity
  8
Layer_1
 62
5
100
AcDbLine
 10
-87.737090
 20
139.959563
 30
0.0
 11
-86.943340
 21
139.694980
 31
0.0
  0
LINE
  5
117
100
AcDbEntity
  8
Layer_1
 62
5
100
AcDbLine
 10
-86.943340
 20
139.694980
 30
0.0
 11
-86.678757
 21
139.430394
 31
0.0
  0
LINE
  5
118
100
AcDbEntity
  8
Layer_1
 62
5
100
AcDbLine
 10
-86.678757
 20
139.430394
 30
0.0
 11
-86.414173
 21
138.901230
 31
0.0
  0
LINE
  5
119
100
AcDbEntity
  8
Layer_1
 62
5
100
AcDbLine
 10
-86.414173
 20
138.901230
 30
0.0
 11
-86.414173
 21
138.107480
 31
0.0
  0
LINE
  5
11a
100
AcDbEntity
  8
Layer_1
 62
5
100
AcDbLine
 10
-86.414173
 20
138.107480
 30
0.0
 11
-86.678757
 21
137.578313
 31
0.0
  0
LINE
  5
11b
100
AcDbEntity
  8
Layer_1
 62
5
100
AcDbLine
 10
-86.678757
 20
137.578313
 30
0.0
 11
-86.943340
 21
137.313730
 31
0.0
  0
LINE
  5
11c
100
AcDbEntity
  8
Layer_1
 62
5
100
AcDbLine
 10
-86.943340
 20
137.313730
 30
0.0
 11
-87.737090
 21
137.049144
 31
0.0
  0
LINE
  5
11d
100
AcDbEntity
  8
Layer_1
 62
5
100
AcDbLine
 10
-87.737090
 20
137.049144
 30
0.0
 11
-90.118340
 21
137.049144
 31
0.0
  0
LINE
  5
11e
100
AcDbEntity
  8
Layer_1
 62
5
100
AcDbLine
 10
-84.562090
 20
138.107480
 30
0.0
 11
-84.562090
 21
134.403313
 31
0.0
  0
LINE
  5
11f
100
AcDbEntity
  8
Layer_1
 62
5
100
AcDbLine
 10
-84.562090
 20
136.519980
 30
0.0
 11
-84.297507
 21
137.313730
 31
0.0
  0
LINE
  5
120
100
AcDbEntity
  8
Layer_1
 62
5
100
AcDbLine
 10
-84.297507
 20
137.313730
 30
0.0
 11
-83.768340
 21
137.842894
 31
0.0
  0
LINE
  5
121
100
AcDbEntity
  8
Layer_1
 62
5
100
AcDbLine
 10
-83.768340
 20
137.842894
 30
0.0
 11
-83.239173
 21
138.107480
 31
0.0
  0
LINE
  5
122
100
AcDbEntity
  8
Layer_1
 62
5
100
AcDbLine
 10
-83.239173
 20
138.107480
 30
0.0
 11
-82.445423
 21
138.107480
 31
0.0
  0
LINE
  5
123
100
AcDbEntity
  8
Layer_1
 62
5
100
AcDbLine
 10
-81.122507
 20
138.107480
 30
0.0
 11
-81.122507
 21
135.461644
 31
0.0
  0
LINE
  5
124
100
AcDbEntity
  8
Layer_1
 62
5
100
AcDbLine
 10
-81.122507
 20
135.461644
 30
0.0
 11
-80.857923
 21
134.667894
 31
0.0
  0
LINE
  5
125
100
AcDbEntity
  8
Layer_1
 62
5
100
AcDbLine
 10
-80.857923
 20
134.667894
 30
0.0
 11
-80.328757
 21
134.403313
 31
0.0
  0
LINE
  5
126
100
AcDbEntity
  8
Layer_1
 62
5
100
AcDbLine
 10
-80.328757
 20
134.403313
 30
0.0
 11
-79.535007
 21
134.403313
 31
0.0
  0
LINE
  5
127
100
AcDbEntity
  8
Layer_1
 62
5
100
AcDbLine
 10
-79.535007
 20
134.403313
 30
0.0
 11
-79.005840
 21
134.667894
 31
0.0
  0
LINE
  5
128
100
AcDbEntity
  8
Layer_1
 62
5
100
AcDbLine
 10
-79.005840
 20
134.667894
 30
0.0
 11
-78.212090
 21
135.461644
 31
0.0
  0
LINE
  5
129
100
AcDbEntity
  8
Layer_1
 62
5
100
AcDbLine
 10
-78.212090
 20
138.107480
 30
0.0
 11
-78.212090
 21
134.403313
 31
0.0
  0
LINE
  5
12a
100
AcDbEntity
  8
Layer_1
 62
5
100
AcDbLine
 10
-73.449590
 20
137.313730
 30
0.0
 11
-73.714173
 21
137.842894
 31
0.0
  0
LINE
  5
12b
100
AcDbEntity
  8
Layer_1
 62
5
100
AcDbLine
 10
-73.714173
 20
137.842894
 30
0.0
 11
-74.507923
 21
138.107480
 31
0.0
  0
LINE
  5
12c
100
AcDbEntity
  8
Layer_1
 62
5
100
AcDbLine
 10
-74.507923
 20
138.107480
 30
0.0
 11
-75.301673
 21
138.107480
 31
0.0
  0
LINE
  5
12d
100
AcDbEntity
  8
Layer_1
 62
5
100
AcDbLine
 10
-75.301673
 20
138.107480
 30
0.0
 11
-76.095423
 21
137.842894
 31
0.0
  0
LINE
  5
12e
100
AcDbEntity
  8
Layer_1
 62
5
100
AcDbLine
 10
-76.095423
 20
137.842894
 30
0.0
 11
-76.360007
 21
137.313730
 31
0.0
  0
LINE
  5
12f
100
AcDbEntity
  8
Layer_1
 62
5
100
AcDbLine
 10
-76.360007
 20
137.313730
 30
0.0
 11
-76.095423
 21
136.784563
 31
0.0
  0
LINE
  5
130
100
AcDbEntity
  8
Layer_1
 62
5
100
AcDbLine
 10
-76.095423
 20
136.784563
 30
0.0
 11
-75.566257
 21
136.519980
 31
0.0
  0
LINE
  5
131
100
AcDbEntity
  8
Layer_1
 62
5
100
AcDbLine
 10
-75.566257
 20
136.519980
 30
0.0
 11
-74.243340
 21
136.255394
 31
0.0
  0
LINE
  5
132
100
AcDbEntity
  8
Layer_1
 62
5
100
AcDbLine
 10
-74.243340
 20
136.255394
 30
0.0
 11
-73.714173
 21
135.990813
 31
0.0
  0
LINE
  5
133
100
AcDbEntity
  8
Layer_1
 62
5
100
AcDbLine
 10
-73.714173
 20
135.990813
 30
0.0
 11
-73.449590
 21
135.461644
 31
0.0
  0
LINE
  5
134
100
AcDbEntity
  8
Layer_1
 62
5
100
AcDbLine
 10
-73.449590
 20
135.461644
 30
0.0
 11
-73.449590
 21
135.197063
 31
0.0
  0
LINE
  5
135
100
AcDbEntity
  8
Layer_1
 62
5
100
AcDbLine
 10
-73.449590
 20
135.197063
 30
0.0
 11
-73.714173
 21
134.667894
 31
0.0
  0
LINE
  5
136
100
AcDbEntity
  8
Layer_1
 62
5
100
AcDbLine
 10
-73.714173
 20
134.667894
 30
0.0
 11
-74.507923
 21
134.403313
 31
0.0
  0
LINE
  5
137
100
AcDbEntity
  8
Layer_1
 62
5
100
AcDbLine
 10
-74.507923
 20
134.403313
 30
0.0
 11
-75.301673
 21
134.403313
 31
0.0
  0
LINE
  5
138
100
AcDbEntity
  8
Layer_1
 62
5
100
AcDbLine
 10
-75.301673
 20
134.403313
 30
0.0
 11
-76.095423
 21
134.667894
 31
0.0
  0
LINE
  5
139
100
AcDbEntity
  8
Layer_1
 62
5
100
AcDbLine
 10
-76.095423
 20
134.667894
 30
0.0
 11
-76.360007
 21
135.197063
 31
0.0
  0
LINE
  5
13a
100
AcDbEntity
  8
Layer_1
 62
5
100
AcDbLine
 10
-68.687090
 20
138.107480
 30
0.0
 11
-68.687090
 21
134.403313
 31
0.0
  0
LINE
  5
13b
100
AcDbEntity
  8
Layer_1
 62
5
100
AcDbLine
 10
-68.687090
 20
137.313730
 30
0.0
 11
-69.216257
 21
137.842894
 31
0.0
  0
LINE
  5
13c
100
AcDbEntity
  8
Layer_1
 62
5
100
AcDbLine
 10
-69.216257
 20
137.842894
 30
0.0
 11
-69.745423
 21
138.107480
 31
0.0
  0
LINE
  5
13d
100
AcDbEntity
  8
Layer_1
 62
5
100
AcDbLine
 10
-69.745423
 20
138.107480
 30
0.0
 11
-70.539173
 21
138.107480
 31
0.0
  0
LINE
  5
13e
100
AcDbEntity
  8
Layer_1
 62
5
100
AcDbLine
 10
-70.539173
 20
138.107480
 30
0.0
 11
-71.068340
 21
137.842894
 31
0.0
  0
LINE
  5
13f
100
AcDbEntity
  8
Layer_1
 62
5
100
AcDbLine
 10
-71.068340
 20
137.842894
 30
0.0
 11
-71.597507
 21
137.313730
 31
0.0
  0
LINE
  5
140
100
AcDbEntity
  8
Layer_1
 62
5
100
AcDbLine
 10
-71.597507
 20
137.313730
 30
0.0
 11
-71.862090
 21
136.519980
 31
0.0
  0
LINE
  5
141
100
AcDbEntity
  8
Layer_1
 62
5
100
AcDbLine
 10
-71.862090
 20
136.519980
 30
0.0
 11
-71.862090
 21
135.990813
 31
0.0
  0
LINE
  5
142
100
AcDbEntity
  8
Layer_1
 62
5
100
AcDbLine
 10
-71.862090
 20
135.990813
 30
0.0
 11
-71.597507
 21
135.197063
 31
0.0
  0
LINE
  5
143
100
AcDbEntity
  8
Layer_1
 62
5
100
AcDbLine
 10
-71.597507
 20
135.197063
 30
0.0
 11
-71.068340
 21
134.667894
 31
0.0
  0
LINE
  5
144
100
AcDbEntity
  8
Layer_1
 62
5
100
AcDbLine
 10
-71.068340
 20
134.667894
 30
0.0
 11
-70.539173
 21
134.403313
 31
0.0
  0
LINE
  5
145
100
AcDbEntity
  8
Layer_1
 62
5
100
AcDbLine
 10
-70.539173
 20
134.403313
 30
0.0
 11
-69.745423
 21
134.403313
 31
0.0
  0
LINE
  5
146
100
AcDbEntity
  8
Layer_1
 62
5
100
AcDbLine
 10
-69.745423
 20
134.403313
 30
0.0
 11
-69.216257
 21
134.667894
 31
0.0
  0
LINE
  5
147
100
AcDbEntity
  8
Layer_1
 62
5
100
AcDbLine
 10
-69.216257
 20
134.667894
 30
0.0
 11
-68.687090
 21
135.197063
 31
0.0
  0
SPLINE
  5
148
100
AcDbEntity
  8
Layer_1
 62
7
100
AcDbSpline
 70
8
 71
3
 72
8
 73
4
 74
0
 40
0
 40
0
 40
0
 40
0
 40
1
 40
1
 40
1
 40
1
 10
-19.572452
 20
143.045285
 30
0.0
 10
-22.342441
 20
143.045285
 30
0.0
 10
-24.572140
 20
140.815567
 30
0.0
 10
-24.572140
 20
138.045556
 30
0.0
  0
SPLINE
  5
149
100
AcDbEntity
  8
Layer_1
 62
7
100
AcDbSpline
 70
8
 71
3
 72
8
 73
4
 74
0
 40
0
 40
0
 40
0
 40
0
 40
1
 40
1
 40
1
 40
1
 10
-24.572140
 20
119.007487
 30
0.0
 10
-24.572140
 20
116.237476
 30
0.0
 10
-22.342441
 20
114.007245
 30
0.0
 10
-19.572452
 20
114.007245
 30
0.0
  0
SPLINE
  5
14a
100
AcDbEntity
  8
Layer_1
 62
7
100
AcDbSpline
 70
8
 71
3
 72
8
 73
4
 74
0
 40
0
 40
0
 40
0
 40
0
 40
1
 40
1
 40
1
 40
1
 10
270.427529
 20
114.007245
 30
0.0
 10
273.197558
 20
114.007245
 30
0.0
 10
275.427731
 20
116.237476
 30
0.0
 10
275.427731
 20
119.007487
 30
0.0
  0
LINE
  5
14b
100
AcDbEntity
  8
Layer_1
 62
7
100
AcDbLine
 10
-57.183451
 20
143.139749
 30
0.0
 11
-28.340706
 21
143.139749
 31
0.0
  0
LINE
  5
14c
100
AcDbEntity
  8
Layer_1
 62
7
100
AcDbLine
 10
-28.340706
 20
143.139749
 30
0.0
 11
221.845547
 21
143.139749
 31
0.0
  0
LINE
  5
14d
100
AcDbEntity
  8
Layer_1
 62
7
100
AcDbLine
 10
-24.572140
 20
138.512684
 30
0.0
 11
-24.572140
 21
119.007487
 31
0.0
  0
LINE
  5
14e
100
AcDbEntity
  8
Layer_1
 62
7
100
AcDbLine
 10
-19.572452
 20
114.006817
 30
0.0
 11
270.427529
 21
114.007346
 31
0.0
  0
SPLINE
  5
14f
100
AcDbEntity
  8
Layer_1
 62
7
100
AcDbSpline
 70
8
 71
3
 72
8
 73
4
 74
0
 40
0
 40
0
 40
0
 40
0
 40
1
 40
1
 40
1
 40
1
 10
275.399341
 20
163.083596
 30
0.0
 10
275.399341
 20
165.853617
 30
0.0
 10
273.169671
 20
168.083327
 30
0.0
 10
270.399616
 20
168.083327
 30
0.0
  0
LINE
  5
150
100
AcDbEntity
  8
Layer_1
 62
7
100
AcDbLine
 10
275.427731
 20
119.007487
 30
0.0
 11
275.399341
 21
163.083596
 31
0.0
  0
SPLINE
  5
151
100
AcDbEntity
  8
Layer_1
 62
1
100
AcDbSpline
 70
8
 71
3
 72
8
 73
4
 74
0
 40
0
 40
0
 40
0
 40
0
 40
1
 40
1
 40
1
 40
1
 10
258.045447
 20
128.258325
 30
0.0
 10
258.045447
 20
129.319191
 30
0.0
 10
258.466876
 20
130.336609
 30
0.0
 10
259.217020
 20
131.086753
 30
0.0
  0
SPLINE
  5
152
100
AcDbEntity
  8
Layer_1
 62
1
100
AcDbSpline
 70
8
 71
3
 72
8
 73
4
 74
0
 40
0
 40
0
 40
0
 40
0
 40
1
 40
1
 40
1
 40
1
 10
259.217020
 20
131.086753
 30
0.0
 10
259.967166
 20
131.836900
 30
0.0
 10
260.984582
 20
132.258325
 30
0.0
 10
262.045447
 20
132.258325
 30
0.0
  0
SPLINE
  5
153
100
AcDbEntity
  8
Layer_1
 62
1
100
AcDbSpline
 70
8
 71
3
 72
8
 73
4
 74
0
 40
0
 40
0
 40
0
 40
0
 40
1
 40
1
 40
1
 40
1
 10
262.045447
 20
132.258325
 30
0.0
 10
263.106313
 20
132.258325
 30
0.0
 10
264.123728
 20
131.836900
 30
0.0
 10
264.873872
 20
131.086753
 30
0.0
  0
SPLINE
  5
154
100
AcDbEntity
  8
Layer_1
 62
1
100
AcDbSpline
 70
8
 71
3
 72
8
 73
4
 74
0
 40
0
 40
0
 40
0
 40
0
 40
1
 40
1
 40
1
 40
1
 10
264.873872
 20
131.086753
 30
0.0
 10
265.624019
 20
130.336609
 30
0.0
 10
266.045447
 20
129.319191
 30
0.0
 10
266.045447
 20
128.258325
 30
0.0
  0
SPLINE
  5
155
100
AcDbEntity
  8
Layer_1
 62
1
100
AcDbSpline
 70
8
 71
3
 72
8
 73
4
 74
0
 40
0
 40
0
 40
0
 40
0
 40
1
 40
1
 40
1
 40
1
 10
266.045447
 20
128.258325
 30
0.0
 10
266.045447
 20
127.197460
 30
0.0
 10
265.624019
 20
126.180044
 30
0.0
 10
264.873872
 20
125.429898
 30
0.0
  0
SPLINE
  5
156
100
AcDbEntity
  8
Layer_1
 62
1
100
AcDbSpline
 70
8
 71
3
 72
8
 73
4
 74
0
 40
0
 40
0
 40
0
 40
0
 40
1
 40
1
 40
1
 40
1
 10
264.873872
 20
125.429898
 30
0.0
 10
264.123728
 20
124.679754
 30
0.0
 10
263.106313
 20
124.258325
 30
0.0
 10
262.045447
 20
124.258325
 30
0.0
  0
SPLINE
  5
157
100
AcDbEntity
  8
Layer_1
 62
1
100
AcDbSpline
 70
8
 71
3
 72
8
 73
4
 74
0
 40
0
 40
0
 40
0
 40
0
 40
1
 40
1
 40
1
 40
1
 10
262.045447
 20
124.258325
 30
0.0
 10
260.984582
 20
124.258325
 30
0.0
 10
259.967166
 20
124.679754
 30
0.0
 10
259.217020
 20
125.429898
 30
0.0
  0
SPLINE
  5
158
100
AcDbEntity
  8
Layer_1
 62
1
100
AcDbSpline
 70
8
 71
3
 72
8
 73
4
 74
0
 40
0
 40
0
 40
0
 40
0
 40
1
 40
1
 40
1
 40
1
 10
259.217020
 20
125.429898
 30
0.0
 10
258.466876
 20
126.180044
 30
0.0
 10
258.045447
 20
127.197460
 30
0.0
 10
258.045447
 20
128.258325
 30
0.0
  0
SPLINE
  5
159
100
AcDbEntity
  8
Layer_1
 62
1
100
AcDbSpline
 70
8
 71
3
 72
8
 73
4
 74
0
 40
0
 40
0
 40
0
 40
0
 40
1
 40
1
 40
1
 40
1
 10
258.045447
 20
154.612492
 30
0.0
 10
258.045447
 20
155.673358
 30
0.0
 10
258.466876
 20
156.690773
 30
0.0
 10
259.217020
 20
157.440920
 30
0.0
  0
SPLINE
  5
15a
100
AcDbEntity
  8
Layer_1
 62
1
100
AcDbSpline
 70
8
 71
3
 72
8
 73
4
 74
0
 40
0
 40
0
 40
0
 40
0
 40
1
 40
1
 40
1
 40
1
 10
259.217020
 20
157.440920
 30
0.0
 10
259.967166
 20
158.191066
 30
0.0
 10
260.984582
 20
158.612492
 30
0.0
 10
262.045447
 20
158.612492
 30
0.0
  0
SPLINE
  5
15b
100
AcDbEntity
  8
Layer_1
 62
1
100
AcDbSpline
 70
8
 71
3
 72
8
 73
4
 74
0
 40
0
 40
0
 40
0
 40
0
 40
1
 40
1
 40
1
 40
1
 10
262.045447
 20
158.612492
 30
0.0
 10
263.106313
 20
158.612492
 30
0.0
 10
264.123728
 20
158.191066
 30
0.0
 10
264.873872
 20
157.440920
 30
0.0
  0
SPLINE
  5
15c
100
AcDbEntity
  8
Layer_1
 62
1
100
AcDbSpline
 70
8
 71
3
 72
8
 73
4
 74
0
 40
0
 40
0
 40
0
 40
0
 40
1
 40
1
 40
1
 40
1
 10
264.873872
 20
157.440920
 30
0.0
 10
265.624019
 20
156.690773
 30
0.0
 10
266.045447
 20
155.673358
 30
0.0
 10
266.045447
 20
154.612492
 30
0.0
  0
SPLINE
  5
15d
100
AcDbEntity
  8
Layer_1
 62
1
100
AcDbSpline
 70
8
 71
3
 72
8
 73
4
 74
0
 40
0
 40
0
 40
0
 40
0
 40
1
 40
1
 40
1
 40
1
 10
266.045447
 20
154.612492
 30
0.0
 10
266.045447
 20
153.551627
 30
0.0
 10
265.624019
 20
152.534211
 30
0.0
 10
264.873872
 20
151.784065
 30
0.0
  0
SPLINE
  5
15e
100
AcDbEntity
  8
Layer_1
 62
1
100
AcDbSpline
 70
8
 71
3
 72
8
 73
4
 74
0
 40
0
 40
0
 40
0
 40
0
 40
1
 40
1
 40
1
 40
1
 10
264.873872
 20
151.784065
 30
0.0
 10
264.123728
 20
151.033921
 30
0.0
 10
263.106313
 20
150.612492
 30
0.0
 10
262.045447
 20
150.612492
 30
0.0
  0
SPLINE
  5
15f
100
AcDbEntity
  8
Layer_1
 62
1
100
AcDbSpline
 70
8
 71
3
 72
8
 73
4
 74
0
 40
0
 40
0
 40
0
 40
0
 40
1
 40
1
 40
1
 40
1
 10
262.045447
 20
150.612492
 30
0.0
 10
260.984582
 20
150.612492
 30
0.0
 10
259.967166
 20
151.033921
 30
0.0
 10
259.217020
 20
151.784065
 30
0.0
  0
SPLINE
  5
160
100
AcDbEntity
  8
Layer_1
 62
1
100
AcDbSpline
 70
8
 71
3
 72
8
 73
4
 74
0
 40
0
 40
0
 40
0
 40
0
 40
1
 40
1
 40
1
 40
1
 10
259.217020
 20
151.784065
 30
0.0
 10
258.466876
 20
152.534211
 30
0.0
 10
258.045447
 20
153.551627
 30
0.0
 10
258.045447
 20
154.612492
 30
0.0
  0
SPLINE
  5
161
100
AcDbEntity
  8
Layer_1
 62
1
100
AcDbSpline
 70
8
 71
3
 72
8
 73
4
 74
0
 40
0
 40
0
 40
0
 40
0
 40
1
 40
1
 40
1
 40
1
 10
-13.224743
 20
128.257868
 30
0.0
 10
-13.224743
 20
129.318733
 30
0.0
 10
-12.803315
 20
130.336148
 30
0.0
 10
-12.053168
 20
131.086292
 30
0.0
  0
SPLINE
  5
162
100
AcDbEntity
  8
Layer_1
 62
1
100
AcDbSpline
 70
8
 71
3
 72
8
 73
4
 74
0
 40
0
 40
0
 40
0
 40
0
 40
1
 40
1
 40
1
 40
1
 10
-12.053168
 20
131.086292
 30
0.0
 10
-11.303024
 20
131.836439
 30
0.0
 10
-10.285608
 20
132.257867
 30
0.0
 10
-9.224743
 20
132.257867
 30
0.0
  0
SPLINE
  5
163
100
AcDbEntity
  8
Layer_1
 62
1
100
AcDbSpline
 70
8
 71
3
 72
8
 73
4
 74
0
 40
0
 40
0
 40
0
 40
0
 40
1
 40
1
 40
1
 40
1
 10
-9.224743
 20
132.257867
 30
0.0
 10
-8.163875
 20
132.257867
 30
0.0
 10
-7.146459
 20
131.836439
 30
0.0
 10
-6.396315
 20
131.086292
 30
0.0
  0
SPLINE
  5
164
100
AcDbEntity
  8
Layer_1
 62
1
100
AcDbSpline
 70
8
 71
3
 72
8
 73
4
 74
0
 40
0
 40
0
 40
0
 40
0
 40
1
 40
1
 40
1
 40
1
 10
-6.396315
 20
131.086292
 30
0.0
 10
-5.646169
 20
130.336148
 30
0.0
 10
-5.224743
 20
129.318733
 30
0.0
 10
-5.224743
 20
128.257868
 30
0.0
  0
SPLINE
  5
165
100
AcDbEntity
  8
Layer_1
 62
1
100
AcDbSpline
 70
8
 71
3
 72
8
 73
4
 74
0
 40
0
 40
0
 40
0
 40
0
 40
1
 40
1
 40
1
 40
1
 10
-5.224743
 20
128.257868
 30
0.0
 10
-5.224743
 20
127.197000
 30
0.0
 10
-5.646169
 20
126.179584
 30
0.0
 10
-6.396315
 20
125.429440
 30
0.0
  0
SPLINE
  5
166
100
AcDbEntity
  8
Layer_1
 62
1
100
AcDbSpline
 70
8
 71
3
 72
8
 73
4
 74
0
 40
0
 40
0
 40
0
 40
0
 40
1
 40
1
 40
1
 40
1
 10
-6.396315
 20
125.429440
 30
0.0
 10
-7.146459
 20
124.679293
 30
0.0
 10
-8.163875
 20
124.257868
 30
0.0
 10
-9.224743
 20
124.257868
 30
0.0
  0
SPLINE
  5
167
100
AcDbEntity
  8
Layer_1
 62
1
100
AcDbSpline
 70
8
 71
3
 72
8
 73
4
 74
0
 40
0
 40
0
 40
0
 40
0
 40
1
 40
1
 40
1
 40
1
 10
-9.224743
 20
124.257868
 30
0.0
 10
-10.285608
 20
124.257868
 30
0.0
 10
-11.303024
 20
124.679293
 30
0.0
 10
-12.053168
 20
125.429440
 30
0.0
  0
SPLINE
  5
168
100
AcDbEntity
  8
Layer_1
 62
1
100
AcDbSpline
 70
8
 71
3
 72
8
 73
4
 74
0
 40
0
 40
0
 40
0
 40
0
 40
1
 40
1
 40
1
 40
1
 10
-12.053168
 20
125.429440
 30
0.0
 10
-12.803315
 20
126.179584
 30
0.0
 10
-13.224743
 20
127.197000
 30
0.0
 10
-13.224743
 20
128.257868
 30
0.0
  0
SPLINE
  5
169
100
AcDbEntity
  8
Layer_1
 62
1
100
AcDbSpline
 70
8
 71
3
 72
8
 73
4
 74
0
 40
0
 40
0
 40
0
 40
0
 40
1
 40
1
 40
1
 40
1
 10
238.045257
 20
128.258325
 30
0.0
 10
238.045257
 20
129.319191
 30
0.0
 10
238.466686
 20
130.336609
 30
0.0
 10
239.216830
 20
131.086753
 30
0.0
  0
SPLINE
  5
16a
100
AcDbEntity
  8
Layer_1
 62
1
100
AcDbSpline
 70
8
 71
3
 72
8
 73
4
 74
0
 40
0
 40
0
 40
0
 40
0
 40
1
 40
1
 40
1
 40
1
 10
239.216830
 20
131.086753
 30
0.0
 10
239.966976
 20
131.836900
 30
0.0
 10
240.984389
 20
132.258325
 30
0.0
 10
242.045257
 20
132.258325
 30
0.0
  0
SPLINE
  5
16b
100
AcDbEntity
  8
Layer_1
 62
1
100
AcDbSpline
 70
8
 71
3
 72
8
 73
4
 74
0
 40
0
 40
0
 40
0
 40
0
 40
1
 40
1
 40
1
 40
1
 10
242.045257
 20
132.258325
 30
0.0
 10
243.106123
 20
132.258325
 30
0.0
 10
244.123538
 20
131.836900
 30
0.0
 10
244.873682
 20
131.086753
 30
0.0
  0
SPLINE
  5
16c
100
AcDbEntity
  8
Layer_1
 62
1
100
AcDbSpline
 70
8
 71
3
 72
8
 73
4
 74
0
 40
0
 40
0
 40
0
 40
0
 40
1
 40
1
 40
1
 40
1
 10
244.873682
 20
131.086753
 30
0.0
 10
245.623831
 20
130.336609
 30
0.0
 10
246.045257
 20
129.319191
 30
0.0
 10
246.045257
 20
128.258325
 30
0.0
  0
SPLINE
  5
16d
100
AcDbEntity
  8
Layer_1
 62
1
100
AcDbSpline
 70
8
 71
3
 72
8
 73
4
 74
0
 40
0
 40
0
 40
0
 40
0
 40
1
 40
1
 40
1
 40
1
 10
246.045257
 20
128.258325
 30
0.0
 10
246.045257
 20
127.197460
 30
0.0
 10
245.623831
 20
126.180044
 30
0.0
 10
244.873682
 20
125.429898
 30
0.0
  0
SPLINE
  5
16e
100
AcDbEntity
  8
Layer_1
 62
1
100
AcDbSpline
 70
8
 71
3
 72
8
 73
4
 74
0
 40
0
 40
0
 40
0
 40
0
 40
1
 40
1
 40
1
 40
1
 10
244.873682
 20
125.429898
 30
0.0
 10
244.123538
 20
124.679754
 30
0.0
 10
243.106123
 20
124.258325
 30
0.0
 10
242.045257
 20
124.258325
 30
0.0
  0
SPLINE
  5
16f
100
AcDbEntity
  8
Layer_1
 62
1
100
AcDbSpline
 70
8
 71
3
 72
8
 73
4
 74
0
 40
0
 40
0
 40
0
 40
0
 40
1
 40
1
 40
1
 40
1
 10
242.045257
 20
124.258325
 30
0.0
 10
240.984389
 20
124.258325
 30
0.0
 10
239.966976
 20
124.679754
 30
0.0
 10
239.216830
 20
125.429898
 30
0.0
  0
SPLINE
  5
170
100
AcDbEntity
  8
Layer_1
 62
1
100
AcDbSpline
 70
8
 71
3
 72
8
 73
4
 74
0
 40
0
 40
0
 40
0
 40
0
 40
1
 40
1
 40
1
 40
1
 10
239.216830
 20
125.429898
 30
0.0
 10
238.466686
 20
126.180044
 30
0.0
 10
238.045257
 20
127.197460
 30
0.0
 10
238.045257
 20
128.258325
 30
0.0
  0
SPLINE
  5
171
100
AcDbEntity
  8
Layer_1
 62
1
100
AcDbSpline
 70
8
 71
3
 72
8
 73
4
 74
0
 40
0
 40
0
 40
0
 40
0
 40
1
 40
1
 40
1
 40
1
 10
238.045257
 20
154.612492
 30
0.0
 10
238.045257
 20
155.673358
 30
0.0
 10
238.466686
 20
156.690773
 30
0.0
 10
239.216830
 20
157.440920
 30
0.0
  0
SPLINE
  5
172
100
AcDbEntity
  8
Layer_1
 62
1
100
AcDbSpline
 70
8
 71
3
 72
8
 73
4
 74
0
 40
0
 40
0
 40
0
 40
0
 40
1
 40
1
 40
1
 40
1
 10
239.216830
 20
157.440920
 30
0.0
 10
239.966976
 20
158.191066
 30
0.0
 10
240.984389
 20
158.612492
 30
0.0
 10
242.045257
 20
158.612492
 30
0.0
  0
SPLINE
  5
173
100
AcDbEntity
  8
Layer_1
 62
1
100
AcDbSpline
 70
8
 71
3
 72
8
 73
4
 74
0
 40
0
 40
0
 40
0
 40
0
 40
1
 40
1
 40
1
 40
1
 10
242.045257
 20
158.612492
 30
0.0
 10
243.106123
 20
158.612492
 30
0.0
 10
244.123538
 20
158.191066
 30
0.0
 10
244.873682
 20
157.440920
 30
0.0
  0
SPLINE
  5
174
100
AcDbEntity
  8
Layer_1
 62
1
100
AcDbSpline
 70
8
 71
3
 72
8
 73
4
 74
0
 40
0
 40
0
 40
0
 40
0
 40
1
 40
1
 40
1
 40
1
 10
244.873682
 20
157.440920
 30
0.0
 10
245.623831
 20
156.690773
 30
0.0
 10
246.045257
 20
155.673358
 30
0.0
 10
246.045257
 20
154.612492
 30
0.0
  0
SPLINE
  5
175
100
AcDbEntity
  8
Layer_1
 62
1
100
AcDbSpline
 70
8
 71
3
 72
8
 73
4
 74
0
 40
0
 40
0
 40
0
 40
0
 40
1
 40
1
 40
1
 40
1
 10
246.045257
 20
154.612492
 30
0.0
 10
246.045257
 20
153.551627
 30
0.0
 10
245.623831
 20
152.534211
 30
0.0
 10
244.873682
 20
151.784065
 30
0.0
  0
SPLINE
  5
176
100
AcDbEntity
  8
Layer_1
 62
1
100
AcDbSpline
 70
8
 71
3
 72
8
 73
4
 74
0
 40
0
 40
0
 40
0
 40
0
 40
1
 40
1
 40
1
 40
1
 10
244.873682
 20
151.784065
 30
0.0
 10
244.123538
 20
151.033921
 30
0.0
 10
243.106123
 20
150.612492
 30
0.0
 10
242.045257
 20
150.612492
 30
0.0
  0
SPLINE
  5
177
100
AcDbEntity
  8
Layer_1
 62
1
100
AcDbSpline
 70
8
 71
3
 72
8
 73
4
 74
0
 40
0
 40
0
 40
0
 40
0
 40
1
 40
1
 40
1
 40
1
 10
242.045257
 20
150.612492
 30
0.0
 10
240.984389
 20
150.612492
 30
0.0
 10
239.966976
 20
151.033921
 30
0.0
 10
239.216830
 20
151.784065
 30
0.0
  0
SPLINE
  5
178
100
AcDbEntity
  8
Layer_1
 62
1
100
AcDbSpline
 70
8
 71
3
 72
8
 73
4
 74
0
 40
0
 40
0
 40
0
 40
0
 40
1
 40
1
 40
1
 40
1
 10
239.216830
 20
151.784065
 30
0.0
 10
238.466686
 20
152.534211
 30
0.0
 10
238.045257
 20
153.551627
 30
0.0
 10
238.045257
 20
154.612492
 30
0.0
  0
SPLINE
  5
179
100
AcDbEntity
  8
Layer_1
 62
1
100
AcDbSpline
 70
8
 71
3
 72
8
 73
4
 74
0
 40
0
 40
0
 40
0
 40
0
 40
1
 40
1
 40
1
 40
1
 10
6.775254
 20
128.257868
 30
0.0
 10
6.775254
 20
129.318733
 30
0.0
 10
7.196683
 20
130.336148
 30
0.0
 10
7.946829
 20
131.086292
 30
0.0
  0
SPLINE
  5
17a
100
AcDbEntity
  8
Layer_1
 62
1
100
AcDbSpline
 70
8
 71
3
 72
8
 73
4
 74
0
 40
0
 40
0
 40
0
 40
0
 40
1
 40
1
 40
1
 40
1
 10
7.946829
 20
131.086292
 30
0.0
 10
8.696973
 20
131.836439
 30
0.0
 10
9.714389
 20
132.257867
 30
0.0
 10
10.775254
 20
132.257867
 30
0.0
  0
SPLINE
  5
17b
100
AcDbEntity
  8
Layer_1
 62
1
100
AcDbSpline
 70
8
 71
3
 72
8
 73
4
 74
0
 40
0
 40
0
 40
0
 40
0
 40
1
 40
1
 40
1
 40
1
 10
10.775254
 20
132.257867
 30
0.0
 10
11.836122
 20
132.257867
 30
0.0
 10
12.853538
 20
131.836439
 30
0.0
 10
13.603682
 20
131.086292
 30
0.0
  0
SPLINE
  5
17c
100
AcDbEntity
  8
Layer_1
 62
1
100
AcDbSpline
 70
8
 71
3
 72
8
 73
4
 74
0
 40
0
 40
0
 40
0
 40
0
 40
1
 40
1
 40
1
 40
1
 10
13.603682
 20
131.086292
 30
0.0
 10
14.353828
 20
130.336148
 30
0.0
 10
14.775254
 20
129.318733
 30
0.0
 10
14.775254
 20
128.257868
 30
0.0
  0
SPLINE
  5
17d
100
AcDbEntity
  8
Layer_1
 62
1
100
AcDbSpline
 70
8
 71
3
 72
8
 73
4
 74
0
 40
0
 40
0
 40
0
 40
0
 40
1
 40
1
 40
1
 40
1
 10
14.775254
 20
128.257868
 30
0.0
 10
14.775254
 20
127.197000
 30
0.0
 10
14.353828
 20
126.179584
 30
0.0
 10
13.603682
 20
125.429440
 30
0.0
  0
SPLINE
  5
17e
100
AcDbEntity
  8
Layer_1
 62
1
100
AcDbSpline
 70
8
 71
3
 72
8
 73
4
 74
0
 40
0
 40
0
 40
0
 40
0
 40
1
 40
1
 40
1
 40
1
 10
13.603682
 20
125.429440
 30
0.0
 10
12.853538
 20
124.679293
 30
0.0
 10
11.836122
 20
124.257868
 30
0.0
 10
10.775254
 20
124.257868
 30
0.0
  0
SPLINE
  5
17f
100
AcDbEntity
  8
Layer_1
 62
1
100
AcDbSpline
 70
8
 71
3
 72
8
 73
4
 74
0
 40
0
 40
0
 40
0
 40
0
 40
1
 40
1
 40
1
 40
1
 10
10.775254
 20
124.257868
 30
0.0
 10
9.714389
 20
124.257868
 30
0.0
 10
8.696973
 20
124.679293
 30
0.0
 10
7.946829
 20
125.429440
 30
0.0
  0
SPLINE
  5
180
100
AcDbEntity
  8
Layer_1
 62
1
100
AcDbSpline
 70
8
 71
3
 72
8
 73
4
 74
0
 40
0
 40
0
 40
0
 40
0
 40
1
 40
1
 40
1
 40
1
 10
7.946829
 20
125.429440
 30
0.0
 10
7.196683
 20
126.179584
 30
0.0
 10
6.775254
 20
127.197000
 30
0.0
 10
6.775254
 20
128.257868
 30
0.0
  0
SPLINE
  5
181
100
AcDbEntity
  8
Layer_1
 62
7
100
AcDbSpline
 70
8
 71
3
 72
8
 73
4
 74
0
 40
0
 40
0
 40
0
 40
0
 40
1
 40
1
 40
1
 40
1
 10
-99.571445
 20
114.007454
 30
0.0
 10
-102.341474
 20
114.007454
 30
0.0
 10
-104.571567
 20
116.237685
 30
0.0
 10
-104.571567
 20
119.007696
 30
0.0
  0
LINE
  5
182
100
AcDbEntity
  8
Layer_1
 62
7
100
AcDbLine
 10
270.399616
 20
168.083327
 30
0.0
 11
101.686424
 21
168.083327
 31
0.0
  0
LINE
  5
183
100
AcDbEntity
  8
Layer_1
 62
7
100
AcDbLine
 10
101.686424
 20
168.083327
 30
0.0
 11
-90.829993
 21
168.083327
 31
0.0
  0
LINE
  5
184
100
AcDbEntity
  8
Layer_1
 62
7
100
AcDbLine
 10
-90.829993
 20
168.083327
 30
0.0
 11
-99.543452
 21
168.083856
 31
0.0
  0
SPLINE
  5
185
100
AcDbEntity
  8
Layer_1
 62
7
100
AcDbSpline
 70
8
 71
3
 72
8
 73
4
 74
0
 40
0
 40
0
 40
0
 40
0
 40
1
 40
1
 40
1
 40
1
 10
-104.543151
 20
163.083805
 30
0.0
 10
-104.543151
 20
165.853826
 30
0.0
 10
-102.313481
 20
168.083536
 30
0.0
 10
-99.543452
 20
168.083536
 30
0.0
  0
LINE
  5
186
100
AcDbEntity
  8
Layer_1
 62
7
100
AcDbLine
 10
-104.571567
 20
119.007696
 30
0.0
 11
-104.543151
 21
163.083805
 31
0.0
  0
SPLINE
  5
187
100
AcDbEntity
  8
Layer_1
 62
7
100
AcDbSpline
 70
8
 71
3
 72
8
 73
4
 74
0
 40
0
 40
0
 40
0
 40
0
 40
1
 40
1
 40
1
 40
1
 10
-58.734124
 20
114.007452
 30
0.0
 10
-55.964095
 20
114.007452
 30
0.0
 10
-53.733745
 20
116.237683
 30
0.0
 10
-53.733745
 20
119.007693
 30
0.0
  0
SPLINE
  5
188
100
AcDbEntity
  8
Layer_1
 62
7
100
AcDbSpline
 70
8
 71
3
 72
8
 73
4
 74
0
 40
0
 40
0
 40
0
 40
0
 40
1
 40
1
 40
1
 40
1
 10
-53.733745
 20
138.241226
 30
0.0
 10
-53.733745
 20
140.517746
 30
0.0
 10
-55.241129
 20
142.426345
 30
0.0
 10
-57.315436
 20
143.035275
 30
0.0
  0
SPLINE
  5
189
100
AcDbEntity
  8
Layer_1
 62
1
100
AcDbSpline
 70
8
 71
3
 72
8
 73
4
 74
0
 40
0
 40
0
 40
0
 40
0
 40
1
 40
1
 40
1
 40
1
 10
-92.396739
 20
128.258368
 30
0.0
 10
-92.396739
 20
129.319233
 30
0.0
 10
-91.975310
 20
130.336651
 30
0.0
 10
-91.225166
 20
131.086795
 30
0.0
  0
SPLINE
  5
18a
100
AcDbEntity
  8
Layer_1
 62
1
100
AcDbSpline
 70
8
 71
3
 72
8
 73
4
 74
0
 40
0
 40
0
 40
0
 40
0
 40
1
 40
1
 40
1
 40
1
 10
-91.225166
 20
131.086795
 30
0.0
 10
-90.475020
 20
131.836942
 30
0.0
 10
-89.457604
 20
132.258368
 30
0.0
 10
-88.396739
 20
132.258368
 30
0.0
  0
SPLINE
  5
18b
100
AcDbEntity
  8
Layer_1
 62
1
100
AcDbSpline
 70
8
 71
3
 72
8
 73
4
 74
0
 40
0
 40
0
 40
0
 40
0
 40
1
 40
1
 40
1
 40
1
 10
-88.396739
 20
132.258368
 30
0.0
 10
-87.335873
 20
132.258368
 30
0.0
 10
-86.318458
 20
131.836942
 30
0.0
 10
-85.568311
 20
131.086795
 30
0.0
  0
SPLINE
  5
18c
100
AcDbEntity
  8
Layer_1
 62
1
100
AcDbSpline
 70
8
 71
3
 72
8
 73
4
 74
0
 40
0
 40
0
 40
0
 40
0
 40
1
 40
1
 40
1
 40
1
 10
-85.568311
 20
131.086795
 30
0.0
 10
-84.818164
 20
130.336651
 30
0.0
 10
-84.396739
 20
129.319233
 30
0.0
 10
-84.396739
 20
128.258368
 30
0.0
  0
SPLINE
  5
18d
100
AcDbEntity
  8
Layer_1
 62
1
100
AcDbSpline
 70
8
 71
3
 72
8
 73
4
 74
0
 40
0
 40
0
 40
0
 40
0
 40
1
 40
1
 40
1
 40
1
 10
-84.396739
 20
128.258368
 30
0.0
 10
-84.396739
 20
127.197502
 30
0.0
 10
-84.818164
 20
126.180087
 30
0.0
 10
-85.568311
 20
125.429940
 30
0.0
  0
SPLINE
  5
18e
100
AcDbEntity
  8
Layer_1
 62
1
100
AcDbSpline
 70
8
 71
3
 72
8
 73
4
 74
0
 40
0
 40
0
 40
0
 40
0
 40
1
 40
1
 40
1
 40
1
 10
-85.568311
 20
125.429940
 30
0.0
 10
-86.318458
 20
124.679796
 30
0.0
 10
-87.335873
 20
124.258368
 30
0.0
 10
-88.396739
 20
124.258368
 30
0.0
  0
SPLINE
  5
18f
100
AcDbEntity
  8
Layer_1
 62
1
100
AcDbSpline
 70
8
 71
3
 72
8
 73
4
 74
0
 40
0
 40
0
 40
0
 40
0
 40
1
 40
1
 40
1
 40
1
 10
-88.396739
 20
124.258368
 30
0.0
 10
-89.457604
 20
124.258368
 30
0.0
 10
-90.475020
 20
124.679796
 30
0.0
 10
-91.225166
 20
125.429940
 30
0.0
  0
SPLINE
  5
190
100
AcDbEntity
  8
Layer_1
 62
1
100
AcDbSpline
 70
8
 71
3
 72
8
 73
4
 74
0
 40
0
 40
0
 40
0
 40
0
 40
1
 40
1
 40
1
 40
1
 10
-91.225166
 20
125.429940
 30
0.0
 10
-91.975310
 20
126.180087
 30
0.0
 10
-92.396739
 20
127.197502
 30
0.0
 10
-92.396739
 20
128.258368
 30
0.0
  0
SPLINE
  5
191
100
AcDbEntity
  8
Layer_1
 62
1
100
AcDbSpline
 70
8
 71
3
 72
8
 73
4
 74
0
 40
0
 40
0
 40
0
 40
0
 40
1
 40
1
 40
1
 40
1
 10
-92.396739
 20
154.612534
 30
0.0
 10
-92.396739
 20
155.673400
 30
0.0
 10
-91.975310
 20
156.690815
 30
0.0
 10
-91.225166
 20
157.440962
 30
0.0
  0
SPLINE
  5
192
100
AcDbEntity
  8
Layer_1
 62
1
100
AcDbSpline
 70
8
 71
3
 72
8
 73
4
 74
0
 40
0
 40
0
 40
0
 40
0
 40
1
 40
1
 40
1
 40
1
 10
-91.225166
 20
157.440962
 30
0.0
 10
-90.475020
 20
158.191109
 30
0.0
 10
-89.457604
 20
158.612534
 30
0.0
 10
-88.396739
 20
158.612534
 30
0.0
  0
SPLINE
  5
193
100
AcDbEntity
  8
Layer_1
 62
1
100
AcDbSpline
 70
8
 71
3
 72
8
 73
4
 74
0
 40
0
 40
0
 40
0
 40
0
 40
1
 40
1
 40
1
 40
1
 10
-88.396739
 20
158.612534
 30
0.0
 10
-87.335873
 20
158.612534
 30
0.0
 10
-86.318458
 20
158.191109
 30
0.0
 10
-85.568311
 20
157.440962
 30
0.0
  0
SPLINE
  5
194
100
AcDbEntity
  8
Layer_1
 62
1
100
AcDbSpline
 70
8
 71
3
 72
8
 73
4
 74
0
 40
0
 40
0
 40
0
 40
0
 40
1
 40
1
 40
1
 40
1
 10
-85.568311
 20
157.440962
 30
0.0
 10
-84.818164
 20
156.690815
 30
0.0
 10
-84.396739
 20
155.673400
 30
0.0
 10
-84.396739
 20
154.612534
 30
0.0
  0
SPLINE
  5
195
100
AcDbEntity
  8
Layer_1
 62
1
100
AcDbSpline
 70
8
 71
3
 72
8
 73
4
 74
0
 40
0
 40
0
 40
0
 40
0
 40
1
 40
1
 40
1
 40
1
 10
-84.396739
 20
154.612534
 30
0.0
 10
-84.396739
 20
153.551669
 30
0.0
 10
-84.818164
 20
152.534254
 30
0.0
 10
-85.568311
 20
151.784107
 30
0.0
  0
SPLINE
  5
196
100
AcDbEntity
  8
Layer_1
 62
1
100
AcDbSpline
 70
8
 71
3
 72
8
 73
4
 74
0
 40
0
 40
0
 40
0
 40
0
 40
1
 40
1
 40
1
 40
1
 10
-85.568311
 20
151.784107
 30
0.0
 10
-86.318458
 20
151.033963
 30
0.0
 10
-87.335873
 20
150.612535
 30
0.0
 10
-88.396739
 20
150.612535
 30
0.0
  0
SPLINE
  5
197
100
AcDbEntity
  8
Layer_1
 62
1
100
AcDbSpline
 70
8
 71
3
 72
8
 73
4
 74
0
 40
0
 40
0
 40
0
 40
0
 40
1
 40
1
 40
1
 40
1
 10
-88.396739
 20
150.612535
 30
0.0
 10
-89.457604
 20
150.612535
 30
0.0
 10
-90.475020
 20
151.033963
 30
0.0
 10
-91.225166
 20
151.784107
 30
0.0
  0
SPLINE
  5
198
100
AcDbEntity
  8
Layer_1
 62
1
100
AcDbSpline
 70
8
 71
3
 72
8
 73
4
 74
0
 40
0
 40
0
 40
0
 40
0
 40
1
 40
1
 40
1
 40
1
 10
-91.225166
 20
151.784107
 30
0.0
 10
-91.975310
 20
152.534254
 30
0.0
 10
-92.396739
 20
153.551669
 30
0.0
 10
-92.396739
 20
154.612534
 30
0.0
  0
SPLINE
  5
199
100
AcDbEntity
  8
Layer_1
 62
1
100
AcDbSpline
 70
8
 71
3
 72
8
 73
4
 74
0
 40
0
 40
0
 40
0
 40
0
 40
1
 40
1
 40
1
 40
1
 10
-72.396752
 20
128.258368
 30
0.0
 10
-72.396752
 20
129.319233
 30
0.0
 10
-71.975324
 20
130.336651
 30
0.0
 10
-71.225180
 20
131.086795
 30
0.0
  0
SPLINE
  5
19a
100
AcDbEntity
  8
Layer_1
 62
1
100
AcDbSpline
 70
8
 71
3
 72
8
 73
4
 74
0
 40
0
 40
0
 40
0
 40
0
 40
1
 40
1
 40
1
 40
1
 10
-71.225180
 20
131.086795
 30
0.0
 10
-70.475033
 20
131.836942
 30
0.0
 10
-69.457618
 20
132.258368
 30
0.0
 10
-68.396752
 20
132.258368
 30
0.0
  0
SPLINE
  5
19b
100
AcDbEntity
  8
Layer_1
 62
1
100
AcDbSpline
 70
8
 71
3
 72
8
 73
4
 74
0
 40
0
 40
0
 40
0
 40
0
 40
1
 40
1
 40
1
 40
1
 10
-68.396752
 20
132.258368
 30
0.0
 10
-67.335887
 20
132.258368
 30
0.0
 10
-66.318471
 20
131.836942
 30
0.0
 10
-65.568325
 20
131.086795
 30
0.0
  0
SPLINE
  5
19c
100
AcDbEntity
  8
Layer_1
 62
1
100
AcDbSpline
 70
8
 71
3
 72
8
 73
4
 74
0
 40
0
 40
0
 40
0
 40
0
 40
1
 40
1
 40
1
 40
1
 10
-65.568325
 20
131.086795
 30
0.0
 10
-64.818178
 20
130.336651
 30
0.0
 10
-64.396752
 20
129.319233
 30
0.0
 10
-64.396752
 20
128.258368
 30
0.0
  0
SPLINE
  5
19d
100
AcDbEntity
  8
Layer_1
 62
1
100
AcDbSpline
 70
8
 71
3
 72
8
 73
4
 74
0
 40
0
 40
0
 40
0
 40
0
 40
1
 40
1
 40
1
 40
1
 10
-64.396752
 20
128.258368
 30
0.0
 10
-64.396752
 20
127.197502
 30
0.0
 10
-64.818178
 20
126.180087
 30
0.0
 10
-65.568325
 20
125.429940
 30
0.0
  0
SPLINE
  5
19e
100
AcDbEntity
  8
Layer_1
 62
1
100
AcDbSpline
 70
8
 71
3
 72
8
 73
4
 74
0
 40
0
 40
0
 40
0
 40
0
 40
1
 40
1
 40
1
 40
1
 10
-65.568325
 20
125.429940
 30
0.0
 10
-66.318471
 20
124.679796
 30
0.0
 10
-67.335887
 20
124.258368
 30
0.0
 10
-68.396752
 20
124.258368
 30
0.0
  0
SPLINE
  5
19f
100
AcDbEntity
  8
Layer_1
 62
1
100
AcDbSpline
 70
8
 71
3
 72
8
 73
4
 74
0
 40
0
 40
0
 40
0
 40
0
 40
1
 40
1
 40
1
 40
1
 10
-68.396752
 20
124.258368
 30
0.0
 10
-69.457618
 20
124.258368
 30
0.0
 10
-70.475033
 20
124.679796
 30
0.0
 10
-71.225180
 20
125.429940
 30
0.0
  0
SPLINE
  5
1a0
100
AcDbEntity
  8
Layer_1
 62
1
100
AcDbSpline
 70
8
 71
3
 72
8
 73
4
 74
0
 40
0
 40
0
 40
0
 40
0
 40
1
 40
1
 40
1
 40
1
 10
-71.225180
 20
125.429940
 30
0.0
 10
-71.975324
 20
126.180087
 30
0.0
 10
-72.396752
 20
127.197502
 30
0.0
 10
-72.396752
 20
128.258368
 30
0.0
  0
SPLINE
  5
1a1
100
AcDbEntity
  8
Layer_1
 62
1
100
AcDbSpline
 70
8
 71
3
 72
8
 73
4
 74
0
 40
0
 40
0
 40
0
 40
0
 40
1
 40
1
 40
1
 40
1
 10
-72.396752
 20
154.612534
 30
0.0
 10
-72.396752
 20
155.673400
 30
0.0
 10
-71.975324
 20
156.690815
 30
0.0
 10
-71.225180
 20
157.440962
 30
0.0
  0
SPLINE
  5
1a2
100
AcDbEntity
  8
Layer_1
 62
1
100
AcDbSpline
 70
8
 71
3
 72
8
 73
4
 74
0
 40
0
 40
0
 40
0
 40
0
 40
1
 40
1
 40
1
 40
1
 10
-71.225180
 20
157.440962
 30
0.0
 10
-70.475033
 20
158.191109
 30
0.0
 10
-69.457618
 20
158.612534
 30
0.0
 10
-68.396752
 20
158.612534
 30
0.0
  0
SPLINE
  5
1a3
100
AcDbEntity
  8
Layer_1
 62
1
100
AcDbSpline
 70
8
 71
3
 72
8
 73
4
 74
0
 40
0
 40
0
 40
0
 40
0
 40
1
 40
1
 40
1
 40
1
 10
-68.396752
 20
158.612534
 30
0.0
 10
-67.335887
 20
158.612534
 30
0.0
 10
-66.318471
 20
158.191109
 30
0.0
 10
-65.568325
 20
157.440962
 30
0.0
  0
SPLINE
  5
1a4
100
AcDbEntity
  8
Layer_1
 62
1
100
AcDbSpline
 70
8
 71
3
 72
8
 73
4
 74
0
 40
0
 40
0
 40
0
 40
0
 40
1
 40
1
 40
1
 40
1
 10
-65.568325
 20
157.440962
 30
0.0
 10
-64.818178
 20
156.690815
 30
0.0
 10
-64.396752
 20
155.673400
 30
0.0
 10
-64.396752
 20
154.612534
 30
0.0
  0
SPLINE
  5
1a5
100
AcDbEntity
  8
Layer_1
 62
1
100
AcDbSpline
 70
8
 71
3
 72
8
 73
4
 74
0
 40
0
 40
0
 40
0
 40
0
 40
1
 40
1
 40
1
 40
1
 10
-64.396752
 20
154.612534
 30
0.0
 10
-64.396752
 20
153.551669
 30
0.0
 10
-64.818178
 20
152.534254
 30
0.0
 10
-65.568325
 20
151.784107
 30
0.0
  0
SPLINE
  5
1a6
100
AcDbEntity
  8
Layer_1
 62
1
100
AcDbSpline
 70
8
 71
3
 72
8
 73
4
 74
0
 40
0
 40
0
 40
0
 40
0
 40
1
 40
1
 40
1
 40
1
 10
-65.568325
 20
151.784107
 30
0.0
 10
-66.318471
 20
151.033963
 30
0.0
 10
-67.335887
 20
150.612535
 30
0.0
 10
-68.396752
 20
150.612535
 30
0.0
  0
SPLINE
  5
1a7
100
AcDbEntity
  8
Layer_1
 62
1
100
AcDbSpline
 70
8
 71
3
 72
8
 73
4
 74
0
 40
0
 40
0
 40
0
 40
0
 40
1
 40
1
 40
1
 40
1
 10
-68.396752
 20
150.612535
 30
0.0
 10
-69.457618
 20
150.612535
 30
0.0
 10
-70.475033
 20
151.033963
 30
0.0
 10
-71.225180
 20
151.784107
 30
0.0
  0
SPLINE
  5
1a8
100
AcDbEntity
  8
Layer_1
 62
1
100
AcDbSpline
 70
8
 71
3
 72
8
 73
4
 74
0
 40
0
 40
0
 40
0
 40
0
 40
1
 40
1
 40
1
 40
1
 10
-71.225180
 20
151.784107
 30
0.0
 10
-71.975324
 20
152.534254
 30
0.0
 10
-72.396752
 20
153.551669
 30
0.0
 10
-72.396752
 20
154.612534
 30
0.0
  0
LINE
  5
1a9
100
AcDbEntity
  8
Layer_1
 62
7
100
AcDbLine
 10
-53.733745
 20
119.007693
 30
0.0
 11
-53.733745
 21
138.241226
 31
0.0
  0
LINE
  5
1aa
100
AcDbEntity
  8
Layer_1
 62
7
100
AcDbLine
 10
-99.571453
 20
114.006817
 30
0.0
 11
-58.734452
 21
114.007875
 31
0.0
  0
LINE
  5
1ab
100
AcDbEntity
  8
Layer_1
 62
5
100
AcDbLine
 10
-93.636621
 20
147.725949
 30
0.0
 11
-93.636621
 21
142.732563
 31
0.0
  0
LINE
  5
1ac
100
AcDbEntity
  8
Layer_1
 62
5
100
AcDbLine
 10
-93.636621
 20
147.725949
 30
0.0
 11
-91.972159
 21
147.725949
 31
0.0
  0
LINE
  5
1ad
100
AcDbEntity
  8
Layer_1
 62
5
100
AcDbLine
 10
-91.972159
 20
147.725949
 30
0.0
 11
-91.258819
 21
147.488168
 31
0.0
  0
LINE
  5
1ae
100
AcDbEntity
  8
Layer_1
 62
5
100
AcDbLine
 10
-91.258819
 20
147.488168
 30
0.0
 11
-90.783257
 21
147.012608
 31
0.0
  0
LINE
  5
1af
100
AcDbEntity
  8
Layer_1
 62
5
100
AcDbLine
 10
-90.783257
 20
147.012608
 30
0.0
 11
-90.545475
 21
146.537049
 31
0.0
  0
LINE
  5
1b0
100
AcDbEntity
  8
Layer_1
 62
5
100
AcDbLine
 10
-90.545475
 20
146.537049
 30
0.0
 11
-90.307694
 21
145.823709
 31
0.0
  0
LINE
  5
1b1
100
AcDbEntity
  8
Layer_1
 62
5
100
AcDbLine
 10
-90.307694
 20
145.823709
 30
0.0
 11
-90.307694
 21
144.634806
 31
0.0
  0
LINE
  5
1b2
100
AcDbEntity
  8
Layer_1
 62
5
100
AcDbLine
 10
-90.307694
 20
144.634806
 30
0.0
 11
-90.545475
 21
143.921465
 31
0.0
  0
LINE
  5
1b3
100
AcDbEntity
  8
Layer_1
 62
5
100
AcDbLine
 10
-90.545475
 20
143.921465
 30
0.0
 11
-90.783257
 21
143.445903
 31
0.0
  0
LINE
  5
1b4
100
AcDbEntity
  8
Layer_1
 62
5
100
AcDbLine
 10
-90.783257
 20
143.445903
 30
0.0
 11
-91.258819
 21
142.970344
 31
0.0
  0
LINE
  5
1b5
100
AcDbEntity
  8
Layer_1
 62
5
100
AcDbLine
 10
-91.258819
 20
142.970344
 30
0.0
 11
-91.972159
 21
142.732563
 31
0.0
  0
LINE
  5
1b6
100
AcDbEntity
  8
Layer_1
 62
5
100
AcDbLine
 10
-91.972159
 20
142.732563
 30
0.0
 11
-93.636621
 21
142.732563
 31
0.0
  0
LINE
  5
1b7
100
AcDbEntity
  8
Layer_1
 62
5
100
AcDbLine
 10
-87.692114
 20
146.061487
 30
0.0
 11
-88.167673
 21
145.823709
 31
0.0
  0
LINE
  5
1b8
100
AcDbEntity
  8
Layer_1
 62
5
100
AcDbLine
 10
-88.167673
 20
145.823709
 30
0.0
 11
-88.643235
 21
145.348146
 31
0.0
  0
LINE
  5
1b9
100
AcDbEntity
  8
Layer_1
 62
5
100
AcDbLine
 10
-88.643235
 20
145.348146
 30
0.0
 11
-88.881013
 21
144.634806
 31
0.0
  0
LINE
  5
1ba
100
AcDbEntity
  8
Layer_1
 62
5
100
AcDbLine
 10
-88.881013
 20
144.634806
 30
0.0
 11
-88.881013
 21
144.159244
 31
0.0
  0
LINE
  5
1bb
100
AcDbEntity
  8
Layer_1
 62
5
100
AcDbLine
 10
-88.881013
 20
144.159244
 30
0.0
 11
-88.643235
 21
143.445903
 31
0.0
  0
LINE
  5
1bc
100
AcDbEntity
  8
Layer_1
 62
5
100
AcDbLine
 10
-88.643235
 20
143.445903
 30
0.0
 11
-88.167673
 21
142.970344
 31
0.0
  0
LINE
  5
1bd
100
AcDbEntity
  8
Layer_1
 62
5
100
AcDbLine
 10
-88.167673
 20
142.970344
 30
0.0
 11
-87.692114
 21
142.732563
 31
0.0
  0
LINE
  5
1be
100
AcDbEntity
  8
Layer_1
 62
5
100
AcDbLine
 10
-87.692114
 20
142.732563
 30
0.0
 11
-86.978773
 21
142.732563
 31
0.0
  0
LINE
  5
1bf
100
AcDbEntity
  8
Layer_1
 62
5
100
AcDbLine
 10
-86.978773
 20
142.732563
 30
0.0
 11
-86.503211
 21
142.970344
 31
0.0
  0
LINE
  5
1c0
100
AcDbEntity
  8
Layer_1
 62
5
100
AcDbLine
 10
-86.503211
 20
142.970344
 30
0.0
 11
-86.027652
 21
143.445903
 31
0.0
  0
LINE
  5
1c1
100
AcDbEntity
  8
Layer_1
 62
5
100
AcDbLine
 10
-86.027652
 20
143.445903
 30
0.0
 11
-85.789871
 21
144.159244
 31
0.0
  0
LINE
  5
1c2
100
AcDbEntity
  8
Layer_1
 62
5
100
AcDbLine
 10
-85.789871
 20
144.159244
 30
0.0
 11
-85.789871
 21
144.634806
 31
0.0
  0
LINE
  5
1c3
100
AcDbEntity
  8
Layer_1
 62
5
100
AcDbLine
 10
-85.789871
 20
144.634806
 30
0.0
 11
-86.027652
 21
145.348146
 31
0.0
  0
LINE
  5
1c4
100
AcDbEntity
  8
Layer_1
 62
5
100
AcDbLine
 10
-86.027652
 20
145.348146
 30
0.0
 11
-86.503211
 21
145.823709
 31
0.0
  0
LINE
  5
1c5
100
AcDbEntity
  8
Layer_1
 62
5
100
AcDbLine
 10
-86.503211
 20
145.823709
 30
0.0
 11
-86.978773
 21
146.061487
 31
0.0
  0
LINE
  5
1c6
100
AcDbEntity
  8
Layer_1
 62
5
100
AcDbLine
 10
-86.978773
 20
146.061487
 30
0.0
 11
-87.692114
 21
146.061487
 31
0.0
  0
LINE
  5
1c7
100
AcDbEntity
  8
Layer_1
 62
5
100
AcDbLine
 10
-84.125409
 20
147.725949
 30
0.0
 11
-84.125409
 21
142.732563
 31
0.0
  0
LINE
  5
1c8
100
AcDbEntity
  8
Layer_1
 62
5
100
AcDbLine
 10
-84.125409
 20
147.725949
 30
0.0
 11
-81.034263
 21
147.725949
 31
0.0
  0
LINE
  5
1c9
100
AcDbEntity
  8
Layer_1
 62
5
100
AcDbLine
 10
-84.125409
 20
145.348146
 30
0.0
 11
-82.223166
 21
145.348146
 31
0.0
  0
LINE
  5
1ca
100
AcDbEntity
  8
Layer_1
 62
5
100
AcDbLine
 10
-84.125409
 20
142.732563
 30
0.0
 11
-81.034263
 21
142.732563
 31
0.0
  0
LINE
  5
1cb
100
AcDbEntity
  8
Layer_1
 62
5
100
AcDbLine
 10
-76.516439
 20
147.012608
 30
0.0
 11
-76.991998
 21
147.488168
 31
0.0
  0
LINE
  5
1cc
100
AcDbEntity
  8
Layer_1
 62
5
100
AcDbLine
 10
-76.991998
 20
147.488168
 30
0.0
 11
-77.705342
 21
147.725949
 31
0.0
  0
LINE
  5
1cd
100
AcDbEntity
  8
Layer_1
 62
5
100
AcDbLine
 10
-77.705342
 20
147.725949
 30
0.0
 11
-78.656460
 21
147.725949
 31
0.0
  0
LINE
  5
1ce
100
AcDbEntity
  8
Layer_1
 62
5
100
AcDbLine
 10
-78.656460
 20
147.725949
 30
0.0
 11
-79.369804
 21
147.488168
 31
0.0
  0
LINE
  5
1cf
100
AcDbEntity
  8
Layer_1
 62
5
100
AcDbLine
 10
-79.369804
 20
147.488168
 30
0.0
 11
-79.845363
 21
147.012608
 31
0.0
  0
LINE
  5
1d0
100
AcDbEntity
  8
Layer_1
 62
5
100
AcDbLine
 10
-79.845363
 20
147.012608
 30
0.0
 11
-79.845363
 21
146.537049
 31
0.0
  0
LINE
  5
1d1
100
AcDbEntity
  8
Layer_1
 62
5
100
AcDbLine
 10
-79.845363
 20
146.537049
 30
0.0
 11
-79.607582
 21
146.061487
 31
0.0
  0
LINE
  5
1d2
100
AcDbEntity
  8
Layer_1
 62
5
100
AcDbLine
 10
-79.607582
 20
146.061487
 30
0.0
 11
-79.369804
 21
145.823709
 31
0.0
  0
LINE
  5
1d3
100
AcDbEntity
  8
Layer_1
 62
5
100
AcDbLine
 10
-79.369804
 20
145.823709
 30
0.0
 11
-78.894242
 21
145.585927
 31
0.0
  0
LINE
  5
1d4
100
AcDbEntity
  8
Layer_1
 62
5
100
AcDbLine
 10
-78.894242
 20
145.585927
 30
0.0
 11
-77.467561
 21
145.110365
 31
0.0
  0
LINE
  5
1d5
100
AcDbEntity
  8
Layer_1
 62
5
100
AcDbLine
 10
-77.467561
 20
145.110365
 30
0.0
 11
-76.991998
 21
144.872584
 31
0.0
  0
LINE
  5
1d6
100
AcDbEntity
  8
Layer_1
 62
5
100
AcDbLine
 10
-76.991998
 20
144.872584
 30
0.0
 11
-76.754220
 21
144.634806
 31
0.0
  0
LINE
  5
1d7
100
AcDbEntity
  8
Layer_1
 62
5
100
AcDbLine
 10
-76.754220
 20
144.634806
 30
0.0
 11
-76.516439
 21
144.159244
 31
0.0
  0
LINE
  5
1d8
100
AcDbEntity
  8
Layer_1
 62
5
100
AcDbLine
 10
-76.516439
 20
144.159244
 30
0.0
 11
-76.516439
 21
143.445903
 31
0.0
  0
LINE
  5
1d9
100
AcDbEntity
  8
Layer_1
 62
5
100
AcDbLine
 10
-76.516439
 20
143.445903
 30
0.0
 11
-76.991998
 21
142.970344
 31
0.0
  0
LINE
  5
1da
100
AcDbEntity
  8
Layer_1
 62
5
100
AcDbLine
 10
-76.991998
 20
142.970344
 30
0.0
 11
-77.705342
 21
142.732563
 31
0.0
  0
LINE
  5
1db
100
AcDbEntity
  8
Layer_1
 62
5
100
AcDbLine
 10
-77.705342
 20
142.732563
 30
0.0
 11
-78.656460
 21
142.732563
 31
0.0
  0
LINE
  5
1dc
100
AcDbEntity
  8
Layer_1
 62
5
100
AcDbLine
 10
-78.656460
 20
142.732563
 30
0.0
 11
-79.369804
 21
142.970344
 31
0.0
  0
LINE
  5
1dd
100
AcDbEntity
  8
Layer_1
 62
5
100
AcDbLine
 10
-79.369804
 20
142.970344
 30
0.0
 11
-79.845363
 21
143.445903
 31
0.0
  0
LINE
  5
1de
100
AcDbEntity
  8
Layer_1
 62
5
100
AcDbLine
 10
-71.523053
 20
146.061487
 30
0.0
 11
-70.096372
 21
142.732563
 31
0.0
  0
LINE
  5
1df
100
AcDbEntity
  8
Layer_1
 62
5
100
AcDbLine
 10
-68.669688
 20
146.061487
 30
0.0
 11
-70.096372
 21
142.732563
 31
0.0
  0
SPLINE
  5
1e0
100
AcDbEntity
  8
Layer_1
 62
7
100
AcDbSpline
 70
8
 71
3
 72
8
 73
4
 74
0
 40
0
 40
0
 40
0
 40
0
 40
1
 40
1
 40
1
 40
1
 10
223.962214
 20
143.139749
 30
0.0
 10
223.962214
 20
142.815233
 30
0.0
 10
223.833300
 20
142.504009
 30
0.0
 10
223.603831
 20
142.274543
 30
0.0
  0
SPLINE
  5
1e1
100
AcDbEntity
  8
Layer_1
 62
7
100
AcDbSpline
 70
8
 71
3
 72
8
 73
4
 74
0
 40
0
 40
0
 40
0
 40
0
 40
1
 40
1
 40
1
 40
1
 10
223.603831
 20
142.274543
 30
0.0
 10
223.374363
 20
142.045077
 30
0.0
 10
223.063137
 20
141.916166
 30
0.0
 10
222.738622
 20
141.916170
 30
0.0
  0
SPLINE
  5
1e2
100
AcDbEntity
  8
Layer_1
 62
7
100
AcDbSpline
 70
8
 71
3
 72
8
 73
4
 74
0
 40
0
 40
0
 40
0
 40
0
 40
1
 40
1
 40
1
 40
1
 10
222.738622
 20
141.916170
 30
0.0
 10
222.062863
 20
141.916177
 30
0.0
 10
221.515057
 20
142.463990
 30
0.0
 10
221.515056
 20
143.139749
 30
0.0
  0
SPLINE
  5
1e3
100
AcDbEntity
  8
Layer_1
 62
7
100
AcDbSpline
 70
8
 71
3
 72
8
 73
4
 74
0
 40
0
 40
0
 40
0
 40
0
 40
1
 40
1
 40
1
 40
1
 10
221.515056
 20
143.139749
 30
0.0
 10
221.515057
 20
143.815507
 30
0.0
 10
222.062863
 20
144.363320
 30
0.0
 10
222.738622
 20
144.363328
 30
0.0
  0
SPLINE
  5
1e4
100
AcDbEntity
  8
Layer_1
 62
7
100
AcDbSpline
 70
8
 71
3
 72
8
 73
4
 74
0
 40
0
 40
0
 40
0
 40
0
 40
1
 40
1
 40
1
 40
1
 10
222.738622
 20
144.363328
 30
0.0
 10
223.063137
 20
144.363331
 30
0.0
 10
223.374363
 20
144.234420
 30
0.0
 10
223.603831
 20
144.004954
 30
0.0
  0
SPLINE
  5
1e5
100
AcDbEntity
  8
Layer_1
 62
7
100
AcDbSpline
 70
8
 71
3
 72
8
 73
4
 74
0
 40
0
 40
0
 40
0
 40
0
 40
1
 40
1
 40
1
 40
1
 10
223.603831
 20
144.004954
 30
0.0
 10
223.833300
 20
143.775488
 30
0.0
 10
223.962214
 20
143.464264
 30
0.0
 10
223.962214
 20
143.139749
 30
0.0
  0
LINE
  5
1e6
100
AcDbEntity
  8
Layer_1
 62
7
100
AcDbLine
 10
223.962214
 20
143.139749
 30
0.0
 11
223.962214
 21
143.139749
 31
0.0
  0
LINE
  5
1e7
100
AcDbEntity
  8
Layer_1
 62
5
100
AcDbLine
 10
-64.886914
 20
146.851421
 30
0.0
 11
-67.264717
 21
143.522497
 31
0.0
  0
LINE
  5
1e8
100
AcDbEntity
  8
Layer_1
 62
5
100
AcDbLine
 10
-67.264717
 20
143.522497
 30
0.0
 11
-63.698013
 21
143.522497
 31
0.0
  0
LINE
  5
1e9
100
AcDbEntity
  8
Layer_1
 62
5
100
AcDbLine
 10
-64.886914
 20
146.851421
 30
0.0
 11
-64.886914
 21
141.858035
 31
0.0
  0
ENDSEC
  0
SECTION
  2
OBJECTS
  0
DICTIONARY
  5
C
330
0
100
AcDbDictionary
  3
ACAD_GROUP
350
D
  3
ACAD_MLINESTYLE
350
17
  0
DICTIONARY
  5
D
330
C
100
AcDbDictionary
  0
DICTIONARY
  5
1A
330
C
100
AcDbDictionary
  0
DICTIONARY
  5
17
330
C
100
AcDbDictionary
  3
STANDARD
350
18
  0
DICTIONARY
  5
19
330
C
100
AcDbDictionary
  0
ENDSEC
  0
EOF
