  0
SECTION
  2
HEADER
  9
$ACADVER
  1
AC1014
  9
$HANDSEED
  5
FFFF
  9
$MEASUREMENT
 70
     1
  0
ENDSEC
  0
SECTION
  2
TABLES
  0
TABLE
  2
VPORT
  5
8
330
0
100
AcDbSymbolTable
 70
     4
  0
VPORT
  5
2E
330
8
100
AcDbSymbolTableRecord
100
AcDbViewportTableRecord
  2
*ACTIVE
 70
     0
 10
0.0
 20
0.0
 11
1.0
 21
1.0
 12
210.0
 22
148.5
 13
0.0
 23
0.0
 14
10.0
 24
10.0
 15
10.0
 25
10.0
 16
0.0
 26
0.0
 36
1.0
 17
0.0
 27
0.0
 37
0.0
 40
341.0
 41
1.24
 42
50.0
 43
0.0
 44
0.0
 50
0.0
 51
0.0
 71
     0
 72
   100
 73
     1
 74
     3
 75
     0
 76
     0
 77
     0
 78
     0
  0
ENDTAB
  0
TABLE
  2
LTYPE
  5
5
330
0
100
AcDbSymbolTable
 70
     1
  0
LTYPE
  5
14
330
5
100
AcDbSymbolTableRecord
100
AcDbLinetypeTableRecord
  2
BYBLOCK
 70
     0
  3

 72
    65
 73
     0
 40
0.0
  0
LTYPE
  5
15
330
5
100
AcDbSymbolTableRecord
100
AcDbLinetypeTableRecord
  2
BYLAYER
 70
     0
  3

 72
    65
 73
     0
 40
0.0
  0
LTYPE
  5
16
330
5
100
AcDbSymbolTableRecord
100
AcDbLinetypeTableRecord
  2
CONTINUOUS
 70
     0
  3
Solid line
 72
    65
 73
     0
 40
0.0
  0
ENDTAB
  0
TABLE
  2
LAYER
  5
2
100
AcDbSymbolTable
 70
2
  0
LAYER
  5
50
100
AcDbSymbolTableRecord
100
AcDbLayerTableRecord
  2
0
 70
0
  6
CONTINUOUS
  0
LAYER
  5
51
100
AcDbSymbolTableRecord
100
AcDbLayerTableRecord
  2
Layer_1
 70
0
  6
CONTINUOUS
  0
ENDTAB
  0
TABLE
  2
STYLE
  5
3
330
0
100
AcDbSymbolTable
 70
     1
  0
STYLE
  5
11
330
3
100
AcDbSymbolTableRecord
100
AcDbTextStyleTableRecord
  2
STANDARD
 70
     0
 40
0.0
 41
1.0
 50
0.0
 71
     0
 42
2.5
  3
txt
  4

  0
ENDTAB
  0
TABLE
  2
VIEW
  5
6
330
0
100
AcDbSymbolTable
 70
     0
  0
ENDTAB
  0
TABLE
  2
UCS
  5
7
330
0
100
AcDbSymbolTable
 70
     0
  0
ENDTAB
  0
TABLE
  2
APPID
  5
9
330
0
100
AcDbSymbolTable
 70
     2
  0
APPID
  5
12
330
9
100
AcDbSymbolTableRecord
100
AcDbRegAppTableRecord
  2
ACAD
 70
     0
  0
ENDTAB
  0
TABLE
  2
DIMSTYLE
  5
A
330
0
100
AcDbSymbolTable
 70
     1
  0
DIMSTYLE
105
27
330
A
100
AcDbSymbolTableRecord
100
AcDbDimStyleTableRecord
  2
ISO-25
 70
     0
  3

  4

  5

  6

  7

 40
1.0
 41
2.5
 42
0.625
 43
3.75
 44
1.25
 45
0.0
 46
0.0
 47
0.0
 48
0.0
140
2.5
141
2.5
142
0.0
143
0.03937007874016
144
1.0
145
0.0
146
1.0
147
0.625
 71
     0
 72
     0
 73
     0
 74
     0
 75
     0
 76
     0
 77
     1
 78
     8
170
     0
171
     3
172
     1
173
     0
174
     0
175
     0
176
     0
177
     0
178
     0
270
     2
271
     2
272
     2
273
     2
274
     3
340
11
275
     0
280
     0
281
     0
282
     0
283
     0
284
     8
285
     0
286
     0
287
     3
288
     0
  0
ENDTAB
  0
TABLE
  2
BLOCK_RECORD
  5
1
330
0
100
AcDbSymbolTable
 70
     1
  0
BLOCK_RECORD
  5
1F
330
1
100
AcDbSymbolTableRecord
100
AcDbBlockTableRecord
  2
*MODEL_SPACE
  0
BLOCK_RECORD
  5
1B
330
1
100
AcDbSymbolTableRecord
100
AcDbBlockTableRecord
  2
*PAPER_SPACE
  0
ENDTAB
  0
ENDSEC
  0
SECTION
  2
BLOCKS
  0
BLOCK
  5
20
330
1F
100
AcDbEntity
  8
0
100
AcDbBlockBegin
  2
*MODEL_SPACE
 70
     0
 10
0.0
 20
0.0
 30
0.0
  3
*MODEL_SPACE
  1

  0
ENDBLK
  5
21
330
1F
100
AcDbEntity
  8
0
100
AcDbBlockEnd
  0
BLOCK
  5
1C
330
1B
100
AcDbEntity
 67
     1
  8
0
100
AcDbBlockBegin
  2
*PAPER_SPACE
  1

  0
ENDBLK
  5
1D
330
1B
100
AcDbEntity
 67
     1
  8
0
100
AcDbBlockEnd
  0
ENDSEC
  0
SECTION
  2
ENTITIES
  0
SPLINE
  5
100
100
AcDbEntity
  8
Layer_1
 62
7
100
AcDbSpline
 70
8
 71
3
 72
8
 73
4
 74
0
 40
0
 40
0
 40
0
 40
0
 40
1
 40
1
 40
1
 40
1
 10
-104.809073
 20
135.176568
 30
0.0
 10
-107.579062
 20
135.176568
 30
0.0
 10
-109.808761
 20
132.946850
 30
0.0
 10
-109.808761
 20
130.176840
 30
0.0
  0
SPLINE
  5
101
100
AcDbEntity
  8
Layer_1
 62
7
100
AcDbSpline
 70
8
 71
3
 72
8
 73
4
 74
0
 40
0
 40
0
 40
0
 40
0
 40
1
 40
1
 40
1
 40
1
 10
-109.808761
 20
115.176640
 30
0.0
 10
-109.808761
 20
112.406630
 30
0.0
 10
-107.579062
 20
110.176399
 30
0.0
 10
-104.809073
 20
110.176399
 30
0.0
  0
LWPOLYLINE
  5
102
100
AcDbEntity
  8
Layer_1
 62
7
100
AcDbPolyline
 90
4
 70
0
 10
-142.420073
 20
139.308971
 30
0.0
 10
136.608926
 20
139.308971
 30
0.0
 10
136.608926
 20
135.176568
 30
0.0
 10
-104.809073
 20
135.177097
 30
0.0
  0
SPLINE
  5
103
100
AcDbEntity
  8
Layer_1
 62
7
100
AcDbSpline
 70
8
 71
3
 72
8
 73
4
 74
0
 40
0
 40
0
 40
0
 40
0
 40
1
 40
1
 40
1
 40
1
 10
185.190916
 20
110.176399
 30
0.0
 10
187.960926
 20
110.176399
 30
0.0
 10
190.191115
 20
112.406630
 30
0.0
 10
190.191115
 20
115.176640
 30
0.0
  0
LWPOLYLINE
  5
104
100
AcDbEntity
  8
Layer_1
 62
7
100
AcDbPolyline
 90
2
 70
0
 10
-109.808761
 20
130.176840
 30
0.0
 10
-109.808761
 20
115.176640
 30
0.0
  0
SPLINE
  5
105
100
AcDbEntity
  8
Layer_1
 62
7
100
AcDbSpline
 70
8
 71
3
 72
8
 73
4
 74
0
 40
0
 40
0
 40
0
 40
0
 40
1
 40
1
 40
1
 40
1
 10
190.191115
 20
130.176840
 30
0.0
 10
190.191115
 20
132.453360
 30
0.0
 10
188.683736
 20
134.361959
 30
0.0
 10
186.609426
 20
134.970889
 30
0.0
  0
LWPOLYLINE
  5
106
100
AcDbEntity
  8
Layer_1
 62
7
100
AcDbPolyline
 90
2
 70
0
 10
-104.809073
 20
110.175970
 30
0.0
 10
185.190916
 20
110.176499
 30
0.0
  0
SPLINE
  5
107
100
AcDbEntity
  8
Layer_1
 62
7
100
AcDbSpline
 70
8
 71
3
 72
8
 73
4
 74
0
 40
0
 40
0
 40
0
 40
0
 40
1
 40
1
 40
1
 40
1
 10
186.609426
 20
139.522058
 30
0.0
 10
188.669287
 20
140.139919
 30
0.0
 10
190.162707
 20
142.043059
 30
0.0
 10
190.162707
 20
144.309390
 30
0.0
  0
LWPOLYLINE
  5
108
100
AcDbEntity
  8
Layer_1
 62
7
100
AcDbPolyline
 90
2
 70
0
 10
190.191115
 20
115.176640
 30
0.0
 10
190.191115
 20
130.176840
 30
0.0
  0
SPLINE
  5
109
100
AcDbEntity
  8
Layer_1
 62
7
100
AcDbSpline
 70
8
 71
3
 72
8
 73
4
 74
0
 40
0
 40
0
 40
0
 40
0
 40
1
 40
1
 40
1
 40
1
 10
190.162707
 20
159.252749
 30
0.0
 10
190.162707
 20
162.022770
 30
0.0
 10
187.933036
 20
164.252480
 30
0.0
 10
185.163005
 20
164.252480
 30
0.0
  0
LWPOLYLINE
  5
10a
100
AcDbEntity
  8
Layer_1
 62
7
100
AcDbPolyline
 90
2
 70
0
 10
186.609426
 20
134.970889
 30
0.0
 10
186.609426
 20
139.522058
 30
0.0
  0
LWPOLYLINE
  5
10b
100
AcDbEntity
  8
Layer_1
 62
7
100
AcDbPolyline
 90
2
 70
0
 10
190.162707
 20
144.309390
 30
0.0
 10
190.162707
 20
159.252749
 30
0.0
  0
SPLINE
  5
10c
100
AcDbEntity
  8
Layer_1
 62
1
100
AcDbSpline
 70
8
 71
3
 72
8
 73
4
 74
0
 40
0
 40
0
 40
0
 40
0
 40
1
 40
1
 40
1
 40
1
 10
172.808826
 20
123.369145
 30
0.0
 10
172.808826
 20
124.430011
 30
0.0
 10
173.230254
 20
125.447429
 30
0.0
 10
173.980398
 20
126.197573
 30
0.0
  0
SPLINE
  5
10d
100
AcDbEntity
  8
Layer_1
 62
1
100
AcDbSpline
 70
8
 71
3
 72
8
 73
4
 74
0
 40
0
 40
0
 40
0
 40
0
 40
1
 40
1
 40
1
 40
1
 10
173.980398
 20
126.197573
 30
0.0
 10
174.730545
 20
126.947720
 30
0.0
 10
175.747960
 20
127.369145
 30
0.0
 10
176.808826
 20
127.369145
 30
0.0
  0
SPLINE
  5
10e
100
AcDbEntity
  8
Layer_1
 62
1
100
AcDbSpline
 70
8
 71
3
 72
8
 73
4
 74
0
 40
0
 40
0
 40
0
 40
0
 40
1
 40
1
 40
1
 40
1
 10
176.808826
 20
127.369145
 30
0.0
 10
177.869691
 20
127.369145
 30
0.0
 10
178.887107
 20
126.947720
 30
0.0
 10
179.637253
 20
126.197573
 30
0.0
  0
SPLINE
  5
10f
100
AcDbEntity
  8
Layer_1
 62
1
100
AcDbSpline
 70
8
 71
3
 72
8
 73
4
 74
0
 40
0
 40
0
 40
0
 40
0
 40
1
 40
1
 40
1
 40
1
 10
179.637253
 20
126.197573
 30
0.0
 10
180.387400
 20
125.447429
 30
0.0
 10
180.808826
 20
124.430011
 30
0.0
 10
180.808826
 20
123.369145
 30
0.0
  0
SPLINE
  5
110
100
AcDbEntity
  8
Layer_1
 62
1
100
AcDbSpline
 70
8
 71
3
 72
8
 73
4
 74
0
 40
0
 40
0
 40
0
 40
0
 40
1
 40
1
 40
1
 40
1
 10
180.808826
 20
123.369145
 30
0.0
 10
180.808826
 20
122.308280
 30
0.0
 10
180.387400
 20
121.290865
 30
0.0
 10
179.637253
 20
120.540718
 30
0.0
  0
SPLINE
  5
111
100
AcDbEntity
  8
Layer_1
 62
1
100
AcDbSpline
 70
8
 71
3
 72
8
 73
4
 74
0
 40
0
 40
0
 40
0
 40
0
 40
1
 40
1
 40
1
 40
1
 10
179.637253
 20
120.540718
 30
0.0
 10
178.887107
 20
119.790574
 30
0.0
 10
177.869691
 20
119.369145
 30
0.0
 10
176.808826
 20
119.369145
 30
0.0
  0
SPLINE
  5
112
100
AcDbEntity
  8
Layer_1
 62
1
100
AcDbSpline
 70
8
 71
3
 72
8
 73
4
 74
0
 40
0
 40
0
 40
0
 40
0
 40
1
 40
1
 40
1
 40
1
 10
176.808826
 20
119.369145
 30
0.0
 10
175.747960
 20
119.369145
 30
0.0
 10
174.730545
 20
119.790574
 30
0.0
 10
173.980398
 20
120.540718
 30
0.0
  0
SPLINE
  5
113
100
AcDbEntity
  8
Layer_1
 62
1
100
AcDbSpline
 70
8
 71
3
 72
8
 73
4
 74
0
 40
0
 40
0
 40
0
 40
0
 40
1
 40
1
 40
1
 40
1
 10
173.980398
 20
120.540718
 30
0.0
 10
173.230254
 20
121.290865
 30
0.0
 10
172.808826
 20
122.308280
 30
0.0
 10
172.808826
 20
123.369145
 30
0.0
  0
SPLINE
  5
114
100
AcDbEntity
  8
Layer_1
 62
1
100
AcDbSpline
 70
8
 71
3
 72
8
 73
4
 74
0
 40
0
 40
0
 40
0
 40
0
 40
1
 40
1
 40
1
 40
1
 10
172.808826
 20
150.781646
 30
0.0
 10
172.808826
 20
151.842511
 30
0.0
 10
173.230254
 20
152.859927
 30
0.0
 10
173.980398
 20
153.610073
 30
0.0
  0
SPLINE
  5
115
100
AcDbEntity
  8
Layer_1
 62
1
100
AcDbSpline
 70
8
 71
3
 72
8
 73
4
 74
0
 40
0
 40
0
 40
0
 40
0
 40
1
 40
1
 40
1
 40
1
 10
173.980398
 20
153.610073
 30
0.0
 10
174.730545
 20
154.360220
 30
0.0
 10
175.747960
 20
154.781646
 30
0.0
 10
176.808826
 20
154.781646
 30
0.0
  0
SPLINE
  5
116
100
AcDbEntity
  8
Layer_1
 62
1
100
AcDbSpline
 70
8
 71
3
 72
8
 73
4
 74
0
 40
0
 40
0
 40
0
 40
0
 40
1
 40
1
 40
1
 40
1
 10
176.808826
 20
154.781646
 30
0.0
 10
177.869691
 20
154.781646
 30
0.0
 10
178.887107
 20
154.360220
 30
0.0
 10
179.637253
 20
153.610073
 30
0.0
  0
SPLINE
  5
117
100
AcDbEntity
  8
Layer_1
 62
1
100
AcDbSpline
 70
8
 71
3
 72
8
 73
4
 74
0
 40
0
 40
0
 40
0
 40
0
 40
1
 40
1
 40
1
 40
1
 10
179.637253
 20
153.610073
 30
0.0
 10
180.387400
 20
152.859927
 30
0.0
 10
180.808826
 20
151.842511
 30
0.0
 10
180.808826
 20
150.781646
 30
0.0
  0
SPLINE
  5
118
100
AcDbEntity
  8
Layer_1
 62
1
100
AcDbSpline
 70
8
 71
3
 72
8
 73
4
 74
0
 40
0
 40
0
 40
0
 40
0
 40
1
 40
1
 40
1
 40
1
 10
180.808826
 20
150.781646
 30
0.0
 10
180.808826
 20
149.720780
 30
0.0
 10
180.387400
 20
148.703365
 30
0.0
 10
179.637253
 20
147.953218
 30
0.0
  0
SPLINE
  5
119
100
AcDbEntity
  8
Layer_1
 62
1
100
AcDbSpline
 70
8
 71
3
 72
8
 73
4
 74
0
 40
0
 40
0
 40
0
 40
0
 40
1
 40
1
 40
1
 40
1
 10
179.637253
 20
147.953218
 30
0.0
 10
178.887107
 20
147.203074
 30
0.0
 10
177.869691
 20
146.781646
 30
0.0
 10
176.808826
 20
146.781646
 30
0.0
  0
SPLINE
  5
11a
100
AcDbEntity
  8
Layer_1
 62
1
100
AcDbSpline
 70
8
 71
3
 72
8
 73
4
 74
0
 40
0
 40
0
 40
0
 40
0
 40
1
 40
1
 40
1
 40
1
 10
176.808826
 20
146.781646
 30
0.0
 10
175.747960
 20
146.781646
 30
0.0
 10
174.730545
 20
147.203074
 30
0.0
 10
173.980398
 20
147.953218
 30
0.0
  0
SPLINE
  5
11b
100
AcDbEntity
  8
Layer_1
 62
1
100
AcDbSpline
 70
8
 71
3
 72
8
 73
4
 74
0
 40
0
 40
0
 40
0
 40
0
 40
1
 40
1
 40
1
 40
1
 10
173.980398
 20
147.953218
 30
0.0
 10
173.230254
 20
148.703365
 30
0.0
 10
172.808826
 20
149.720780
 30
0.0
 10
172.808826
 20
150.781646
 30
0.0
  0
SPLINE
  5
11c
100
AcDbEntity
  8
Layer_1
 62
1
100
AcDbSpline
 70
8
 71
3
 72
8
 73
4
 74
0
 40
0
 40
0
 40
0
 40
0
 40
1
 40
1
 40
1
 40
1
 10
-98.461364
 20
123.368688
 30
0.0
 10
-98.461364
 20
124.429553
 30
0.0
 10
-98.039936
 20
125.446969
 30
0.0
 10
-97.289789
 20
126.197113
 30
0.0
  0
SPLINE
  5
11d
100
AcDbEntity
  8
Layer_1
 62
1
100
AcDbSpline
 70
8
 71
3
 72
8
 73
4
 74
0
 40
0
 40
0
 40
0
 40
0
 40
1
 40
1
 40
1
 40
1
 10
-97.289789
 20
126.197113
 30
0.0
 10
-96.539645
 20
126.947259
 30
0.0
 10
-95.522230
 20
127.368688
 30
0.0
 10
-94.461364
 20
127.368688
 30
0.0
  0
SPLINE
  5
11e
100
AcDbEntity
  8
Layer_1
 62
1
100
AcDbSpline
 70
8
 71
3
 72
8
 73
4
 74
0
 40
0
 40
0
 40
0
 40
0
 40
1
 40
1
 40
1
 40
1
 10
-94.461364
 20
127.368688
 30
0.0
 10
-93.400496
 20
127.368688
 30
0.0
 10
-92.383081
 20
126.947259
 30
0.0
 10
-91.632937
 20
126.197113
 30
0.0
  0
SPLINE
  5
11f
100
AcDbEntity
  8
Layer_1
 62
1
100
AcDbSpline
 70
8
 71
3
 72
8
 73
4
 74
0
 40
0
 40
0
 40
0
 40
0
 40
1
 40
1
 40
1
 40
1
 10
-91.632937
 20
126.197113
 30
0.0
 10
-90.882790
 20
125.446969
 30
0.0
 10
-90.461364
 20
124.429553
 30
0.0
 10
-90.461364
 20
123.368688
 30
0.0
  0
SPLINE
  5
120
100
AcDbEntity
  8
Layer_1
 62
1
100
AcDbSpline
 70
8
 71
3
 72
8
 73
4
 74
0
 40
0
 40
0
 40
0
 40
0
 40
1
 40
1
 40
1
 40
1
 10
-90.461364
 20
123.368688
 30
0.0
 10
-90.461364
 20
122.307820
 30
0.0
 10
-90.882790
 20
121.290404
 30
0.0
 10
-91.632937
 20
120.540260
 30
0.0
  0
SPLINE
  5
121
100
AcDbEntity
  8
Layer_1
 62
1
100
AcDbSpline
 70
8
 71
3
 72
8
 73
4
 74
0
 40
0
 40
0
 40
0
 40
0
 40
1
 40
1
 40
1
 40
1
 10
-91.632937
 20
120.540260
 30
0.0
 10
-92.383081
 20
119.790113
 30
0.0
 10
-93.400496
 20
119.368688
 30
0.0
 10
-94.461364
 20
119.368688
 30
0.0
  0
SPLINE
  5
122
100
AcDbEntity
  8
Layer_1
 62
1
100
AcDbSpline
 70
8
 71
3
 72
8
 73
4
 74
0
 40
0
 40
0
 40
0
 40
0
 40
1
 40
1
 40
1
 40
1
 10
-94.461364
 20
119.368688
 30
0.0
 10
-95.522230
 20
119.368688
 30
0.0
 10
-96.539645
 20
119.790113
 30
0.0
 10
-97.289789
 20
120.540260
 30
0.0
  0
SPLINE
  5
123
100
AcDbEntity
  8
Layer_1
 62
1
100
AcDbSpline
 70
8
 71
3
 72
8
 73
4
 74
0
 40
0
 40
0
 40
0
 40
0
 40
1
 40
1
 40
1
 40
1
 10
-97.289789
 20
120.540260
 30
0.0
 10
-98.039936
 20
121.290404
 30
0.0
 10
-98.461364
 20
122.307820
 30
0.0
 10
-98.461364
 20
123.368688
 30
0.0
  0
SPLINE
  5
124
100
AcDbEntity
  8
Layer_1
 62
1
100
AcDbSpline
 70
8
 71
3
 72
8
 73
4
 74
0
 40
0
 40
0
 40
0
 40
0
 40
1
 40
1
 40
1
 40
1
 10
152.808635
 20
123.369145
 30
0.0
 10
152.808635
 20
124.430011
 30
0.0
 10
153.230063
 20
125.447429
 30
0.0
 10
153.980207
 20
126.197573
 30
0.0
  0
SPLINE
  5
125
100
AcDbEntity
  8
Layer_1
 62
1
100
AcDbSpline
 70
8
 71
3
 72
8
 73
4
 74
0
 40
0
 40
0
 40
0
 40
0
 40
1
 40
1
 40
1
 40
1
 10
153.980207
 20
126.197573
 30
0.0
 10
154.730354
 20
126.947720
 30
0.0
 10
155.747769
 20
127.369145
 30
0.0
 10
156.808635
 20
127.369145
 30
0.0
  0
SPLINE
  5
126
100
AcDbEntity
  8
Layer_1
 62
1
100
AcDbSpline
 70
8
 71
3
 72
8
 73
4
 74
0
 40
0
 40
0
 40
0
 40
0
 40
1
 40
1
 40
1
 40
1
 10
156.808635
 20
127.369145
 30
0.0
 10
157.869500
 20
127.369145
 30
0.0
 10
158.886916
 20
126.947720
 30
0.0
 10
159.637062
 20
126.197573
 30
0.0
  0
SPLINE
  5
127
100
AcDbEntity
  8
Layer_1
 62
1
100
AcDbSpline
 70
8
 71
3
 72
8
 73
4
 74
0
 40
0
 40
0
 40
0
 40
0
 40
1
 40
1
 40
1
 40
1
 10
159.637062
 20
126.197573
 30
0.0
 10
160.387209
 20
125.447429
 30
0.0
 10
160.808635
 20
124.430011
 30
0.0
 10
160.808635
 20
123.369145
 30
0.0
  0
SPLINE
  5
128
100
AcDbEntity
  8
Layer_1
 62
1
100
AcDbSpline
 70
8
 71
3
 72
8
 73
4
 74
0
 40
0
 40
0
 40
0
 40
0
 40
1
 40
1
 40
1
 40
1
 10
160.808635
 20
123.369145
 30
0.0
 10
160.808635
 20
122.308280
 30
0.0
 10
160.387209
 20
121.290865
 30
0.0
 10
159.637062
 20
120.540718
 30
0.0
  0
SPLINE
  5
129
100
AcDbEntity
  8
Layer_1
 62
1
100
AcDbSpline
 70
8
 71
3
 72
8
 73
4
 74
0
 40
0
 40
0
 40
0
 40
0
 40
1
 40
1
 40
1
 40
1
 10
159.637062
 20
120.540718
 30
0.0
 10
158.886916
 20
119.790574
 30
0.0
 10
157.869500
 20
119.369145
 30
0.0
 10
156.808635
 20
119.369145
 30
0.0
  0
SPLINE
  5
12a
100
AcDbEntity
  8
Layer_1
 62
1
100
AcDbSpline
 70
8
 71
3
 72
8
 73
4
 74
0
 40
0
 40
0
 40
0
 40
0
 40
1
 40
1
 40
1
 40
1
 10
156.808635
 20
119.369145
 30
0.0
 10
155.747769
 20
119.369145
 30
0.0
 10
154.730354
 20
119.790574
 30
0.0
 10
153.980207
 20
120.540718
 30
0.0
  0
SPLINE
  5
12b
100
AcDbEntity
  8
Layer_1
 62
1
100
AcDbSpline
 70
8
 71
3
 72
8
 73
4
 74
0
 40
0
 40
0
 40
0
 40
0
 40
1
 40
1
 40
1
 40
1
 10
153.980207
 20
120.540718
 30
0.0
 10
153.230063
 20
121.290865
 30
0.0
 10
152.808635
 20
122.308280
 30
0.0
 10
152.808635
 20
123.369145
 30
0.0
  0
SPLINE
  5
12c
100
AcDbEntity
  8
Layer_1
 62
1
100
AcDbSpline
 70
8
 71
3
 72
8
 73
4
 74
0
 40
0
 40
0
 40
0
 40
0
 40
1
 40
1
 40
1
 40
1
 10
152.808635
 20
150.781646
 30
0.0
 10
152.808635
 20
151.842511
 30
0.0
 10
153.230063
 20
152.859927
 30
0.0
 10
153.980207
 20
153.610073
 30
0.0
  0
SPLINE
  5
12d
100
AcDbEntity
  8
Layer_1
 62
1
100
AcDbSpline
 70
8
 71
3
 72
8
 73
4
 74
0
 40
0
 40
0
 40
0
 40
0
 40
1
 40
1
 40
1
 40
1
 10
153.980207
 20
153.610073
 30
0.0
 10
154.730354
 20
154.360220
 30
0.0
 10
155.747769
 20
154.781646
 30
0.0
 10
156.808635
 20
154.781646
 30
0.0
  0
SPLINE
  5
12e
100
AcDbEntity
  8
Layer_1
 62
1
100
AcDbSpline
 70
8
 71
3
 72
8
 73
4
 74
0
 40
0
 40
0
 40
0
 40
0
 40
1
 40
1
 40
1
 40
1
 10
156.808635
 20
154.781646
 30
0.0
 10
157.869500
 20
154.781646
 30
0.0
 10
158.886916
 20
154.360220
 30
0.0
 10
159.637062
 20
153.610073
 30
0.0
  0
SPLINE
  5
12f
100
AcDbEntity
  8
Layer_1
 62
1
100
AcDbSpline
 70
8
 71
3
 72
8
 73
4
 74
0
 40
0
 40
0
 40
0
 40
0
 40
1
 40
1
 40
1
 40
1
 10
159.637062
 20
153.610073
 30
0.0
 10
160.387209
 20
152.859927
 30
0.0
 10
160.808635
 20
151.842511
 30
0.0
 10
160.808635
 20
150.781646
 30
0.0
  0
SPLINE
  5
130
100
AcDbEntity
  8
Layer_1
 62
1
100
AcDbSpline
 70
8
 71
3
 72
8
 73
4
 74
0
 40
0
 40
0
 40
0
 40
0
 40
1
 40
1
 40
1
 40
1
 10
160.808635
 20
150.781646
 30
0.0
 10
160.808635
 20
149.720780
 30
0.0
 10
160.387209
 20
148.703365
 30
0.0
 10
159.637062
 20
147.953218
 30
0.0
  0
SPLINE
  5
131
100
AcDbEntity
  8
Layer_1
 62
1
100
AcDbSpline
 70
8
 71
3
 72
8
 73
4
 74
0
 40
0
 40
0
 40
0
 40
0
 40
1
 40
1
 40
1
 40
1
 10
159.637062
 20
147.953218
 30
0.0
 10
158.886916
 20
147.203074
 30
0.0
 10
157.869500
 20
146.781646
 30
0.0
 10
156.808635
 20
146.781646
 30
0.0
  0
SPLINE
  5
132
100
AcDbEntity
  8
Layer_1
 62
1
100
AcDbSpline
 70
8
 71
3
 72
8
 73
4
 74
0
 40
0
 40
0
 40
0
 40
0
 40
1
 40
1
 40
1
 40
1
 10
156.808635
 20
146.781646
 30
0.0
 10
155.747769
 20
146.781646
 30
0.0
 10
154.730354
 20
147.203074
 30
0.0
 10
153.980207
 20
147.953218
 30
0.0
  0
SPLINE
  5
133
100
AcDbEntity
  8
Layer_1
 62
1
100
AcDbSpline
 70
8
 71
3
 72
8
 73
4
 74
0
 40
0
 40
0
 40
0
 40
0
 40
1
 40
1
 40
1
 40
1
 10
153.980207
 20
147.953218
 30
0.0
 10
153.230063
 20
148.703365
 30
0.0
 10
152.808635
 20
149.720780
 30
0.0
 10
152.808635
 20
150.781646
 30
0.0
  0
SPLINE
  5
134
100
AcDbEntity
  8
Layer_1
 62
1
100
AcDbSpline
 70
8
 71
3
 72
8
 73
4
 74
0
 40
0
 40
0
 40
0
 40
0
 40
1
 40
1
 40
1
 40
1
 10
-78.461367
 20
123.368688
 30
0.0
 10
-78.461367
 20
124.429553
 30
0.0
 10
-78.039939
 20
125.446969
 30
0.0
 10
-77.289792
 20
126.197113
 30
0.0
  0
SPLINE
  5
135
100
AcDbEntity
  8
Layer_1
 62
1
100
AcDbSpline
 70
8
 71
3
 72
8
 73
4
 74
0
 40
0
 40
0
 40
0
 40
0
 40
1
 40
1
 40
1
 40
1
 10
-77.289792
 20
126.197113
 30
0.0
 10
-76.539648
 20
126.947259
 30
0.0
 10
-75.522233
 20
127.368688
 30
0.0
 10
-74.461367
 20
127.368688
 30
0.0
  0
SPLINE
  5
136
100
AcDbEntity
  8
Layer_1
 62
1
100
AcDbSpline
 70
8
 71
3
 72
8
 73
4
 74
0
 40
0
 40
0
 40
0
 40
0
 40
1
 40
1
 40
1
 40
1
 10
-74.461367
 20
127.368688
 30
0.0
 10
-73.400499
 20
127.368688
 30
0.0
 10
-72.383084
 20
126.947259
 30
0.0
 10
-71.632940
 20
126.197113
 30
0.0
  0
SPLINE
  5
137
100
AcDbEntity
  8
Layer_1
 62
1
100
AcDbSpline
 70
8
 71
3
 72
8
 73
4
 74
0
 40
0
 40
0
 40
0
 40
0
 40
1
 40
1
 40
1
 40
1
 10
-71.632940
 20
126.197113
 30
0.0
 10
-70.882793
 20
125.446969
 30
0.0
 10
-70.461367
 20
124.429553
 30
0.0
 10
-70.461367
 20
123.368688
 30
0.0
  0
SPLINE
  5
138
100
AcDbEntity
  8
Layer_1
 62
1
100
AcDbSpline
 70
8
 71
3
 72
8
 73
4
 74
0
 40
0
 40
0
 40
0
 40
0
 40
1
 40
1
 40
1
 40
1
 10
-70.461367
 20
123.368688
 30
0.0
 10
-70.461367
 20
122.307820
 30
0.0
 10
-70.882793
 20
121.290404
 30
0.0
 10
-71.632940
 20
120.540260
 30
0.0
  0
SPLINE
  5
139
100
AcDbEntity
  8
Layer_1
 62
1
100
AcDbSpline
 70
8
 71
3
 72
8
 73
4
 74
0
 40
0
 40
0
 40
0
 40
0
 40
1
 40
1
 40
1
 40
1
 10
-71.632940
 20
120.540260
 30
0.0
 10
-72.383084
 20
119.790113
 30
0.0
 10
-73.400499
 20
119.368688
 30
0.0
 10
-74.461367
 20
119.368688
 30
0.0
  0
SPLINE
  5
13a
100
AcDbEntity
  8
Layer_1
 62
1
100
AcDbSpline
 70
8
 71
3
 72
8
 73
4
 74
0
 40
0
 40
0
 40
0
 40
0
 40
1
 40
1
 40
1
 40
1
 10
-74.461367
 20
119.368688
 30
0.0
 10
-75.522233
 20
119.368688
 30
0.0
 10
-76.539648
 20
119.790113
 30
0.0
 10
-77.289792
 20
120.540260
 30
0.0
  0
SPLINE
  5
13b
100
AcDbEntity
  8
Layer_1
 62
1
100
AcDbSpline
 70
8
 71
3
 72
8
 73
4
 74
0
 40
0
 40
0
 40
0
 40
0
 40
1
 40
1
 40
1
 40
1
 10
-77.289792
 20
120.540260
 30
0.0
 10
-78.039939
 20
121.290404
 30
0.0
 10
-78.461367
 20
122.307820
 30
0.0
 10
-78.461367
 20
123.368688
 30
0.0
  0
SPLINE
  5
13c
100
AcDbEntity
  8
Layer_1
 62
7
100
AcDbSpline
 70
8
 71
3
 72
8
 73
4
 74
0
 40
0
 40
0
 40
0
 40
0
 40
1
 40
1
 40
1
 40
1
 10
-184.808066
 20
110.176608
 30
0.0
 10
-187.578095
 20
110.176608
 30
0.0
 10
-189.808189
 20
112.406839
 30
0.0
 10
-189.808189
 20
115.176849
 30
0.0
  0
SPLINE
  5
13d
100
AcDbEntity
  8
Layer_1
 62
7
100
AcDbSpline
 70
8
 71
3
 72
8
 73
4
 74
0
 40
0
 40
0
 40
0
 40
0
 40
1
 40
1
 40
1
 40
1
 10
-189.808189
 20
130.177049
 30
0.0
 10
-189.808189
 20
132.453569
 30
0.0
 10
-188.300804
 20
134.362168
 30
0.0
 10
-186.226498
 20
134.971098
 30
0.0
  0
LWPOLYLINE
  5
13e
100
AcDbEntity
  8
Layer_1
 62
7
100
AcDbPolyline
 90
4
 70
0
 10
185.163005
 20
164.252480
 30
0.0
 10
16.449802
 20
164.252480
 30
0.0
 10
-176.066614
 20
164.252480
 30
0.0
 10
-184.780073
 20
164.253009
 30
0.0
  0
SPLINE
  5
13f
100
AcDbEntity
  8
Layer_1
 62
7
100
AcDbSpline
 70
8
 71
3
 72
8
 73
4
 74
0
 40
0
 40
0
 40
0
 40
0
 40
1
 40
1
 40
1
 40
1
 10
-186.226498
 20
139.522267
 30
0.0
 10
-188.286358
 20
140.140128
 30
0.0
 10
-189.779772
 20
142.043268
 30
0.0
 10
-189.779772
 20
144.309599
 30
0.0
  0
LWPOLYLINE
  5
140
100
AcDbEntity
  8
Layer_1
 62
7
100
AcDbPolyline
 90
2
 70
0
 10
-189.808189
 20
115.176849
 30
0.0
 10
-189.808189
 20
130.177049
 30
0.0
  0
SPLINE
  5
141
100
AcDbEntity
  8
Layer_1
 62
7
100
AcDbSpline
 70
8
 71
3
 72
8
 73
4
 74
0
 40
0
 40
0
 40
0
 40
0
 40
1
 40
1
 40
1
 40
1
 10
-189.779772
 20
159.252958
 30
0.0
 10
-189.779772
 20
162.022979
 30
0.0
 10
-187.550102
 20
164.252689
 30
0.0
 10
-184.780073
 20
164.252689
 30
0.0
  0
LWPOLYLINE
  5
142
100
AcDbEntity
  8
Layer_1
 62
7
100
AcDbPolyline
 90
2
 70
0
 10
-186.226498
 20
134.971098
 30
0.0
 10
-186.226498
 20
139.522267
 30
0.0
  0
SPLINE
  5
143
100
AcDbEntity
  8
Layer_1
 62
7
100
AcDbSpline
 70
8
 71
3
 72
8
 73
4
 74
0
 40
0
 40
0
 40
0
 40
0
 40
1
 40
1
 40
1
 40
1
 10
-143.970745
 20
110.176605
 30
0.0
 10
-141.200717
 20
110.176605
 30
0.0
 10
-138.970366
 20
112.406836
 30
0.0
 10
-138.970366
 20
115.176846
 30
0.0
  0
SPLINE
  5
144
100
AcDbEntity
  8
Layer_1
 62
7
100
AcDbSpline
 70
8
 71
3
 72
8
 73
4
 74
0
 40
0
 40
0
 40
0
 40
0
 40
1
 40
1
 40
1
 40
1
 10
-138.970366
 20
130.177047
 30
0.0
 10
-138.970366
 20
132.453567
 30
0.0
 10
-140.477751
 20
134.362165
 30
0.0
 10
-142.552058
 20
134.971095
 30
0.0
  0
LWPOLYLINE
  5
145
100
AcDbEntity
  8
Layer_1
 62
7
100
AcDbPolyline
 90
2
 70
0
 10
-189.779772
 20
144.309599
 30
0.0
 10
-189.779772
 20
159.252958
 30
0.0
  0
LWPOLYLINE
  5
146
100
AcDbEntity
  8
Layer_1
 62
7
100
AcDbPolyline
 90
2
 70
0
 10
-138.970366
 20
115.176846
 30
0.0
 10
-138.970366
 20
130.177047
 30
0.0
  0
SPLINE
  5
147
100
AcDbEntity
  8
Layer_1
 62
1
100
AcDbSpline
 70
8
 71
3
 72
8
 73
4
 74
0
 40
0
 40
0
 40
0
 40
0
 40
1
 40
1
 40
1
 40
1
 10
-177.633360
 20
123.369188
 30
0.0
 10
-177.633360
 20
124.430053
 30
0.0
 10
-177.211932
 20
125.447471
 30
0.0
 10
-176.461788
 20
126.197615
 30
0.0
  0
SPLINE
  5
148
100
AcDbEntity
  8
Layer_1
 62
1
100
AcDbSpline
 70
8
 71
3
 72
8
 73
4
 74
0
 40
0
 40
0
 40
0
 40
0
 40
1
 40
1
 40
1
 40
1
 10
-176.461788
 20
126.197615
 30
0.0
 10
-175.711641
 20
126.947762
 30
0.0
 10
-174.694226
 20
127.369188
 30
0.0
 10
-173.633360
 20
127.369188
 30
0.0
  0
SPLINE
  5
149
100
AcDbEntity
  8
Layer_1
 62
1
100
AcDbSpline
 70
8
 71
3
 72
8
 73
4
 74
0
 40
0
 40
0
 40
0
 40
0
 40
1
 40
1
 40
1
 40
1
 10
-173.633360
 20
127.369188
 30
0.0
 10
-172.572495
 20
127.369188
 30
0.0
 10
-171.555079
 20
126.947762
 30
0.0
 10
-170.804933
 20
126.197615
 30
0.0
  0
SPLINE
  5
14a
100
AcDbEntity
  8
Layer_1
 62
1
100
AcDbSpline
 70
8
 71
3
 72
8
 73
4
 74
0
 40
0
 40
0
 40
0
 40
0
 40
1
 40
1
 40
1
 40
1
 10
-170.804933
 20
126.197615
 30
0.0
 10
-170.054786
 20
125.447471
 30
0.0
 10
-169.633360
 20
124.430053
 30
0.0
 10
-169.633360
 20
123.369188
 30
0.0
  0
SPLINE
  5
14b
100
AcDbEntity
  8
Layer_1
 62
1
100
AcDbSpline
 70
8
 71
3
 72
8
 73
4
 74
0
 40
0
 40
0
 40
0
 40
0
 40
1
 40
1
 40
1
 40
1
 10
-169.633360
 20
123.369188
 30
0.0
 10
-169.633360
 20
122.308322
 30
0.0
 10
-170.054786
 20
121.290907
 30
0.0
 10
-170.804933
 20
120.540760
 30
0.0
  0
SPLINE
  5
14c
100
AcDbEntity
  8
Layer_1
 62
1
100
AcDbSpline
 70
8
 71
3
 72
8
 73
4
 74
0
 40
0
 40
0
 40
0
 40
0
 40
1
 40
1
 40
1
 40
1
 10
-170.804933
 20
120.540760
 30
0.0
 10
-171.555079
 20
119.790616
 30
0.0
 10
-172.572495
 20
119.369188
 30
0.0
 10
-173.633360
 20
119.369188
 30
0.0
  0
SPLINE
  5
14d
100
AcDbEntity
  8
Layer_1
 62
1
100
AcDbSpline
 70
8
 71
3
 72
8
 73
4
 74
0
 40
0
 40
0
 40
0
 40
0
 40
1
 40
1
 40
1
 40
1
 10
-173.633360
 20
119.369188
 30
0.0
 10
-174.694226
 20
119.369188
 30
0.0
 10
-175.711641
 20
119.790616
 30
0.0
 10
-176.461788
 20
120.540760
 30
0.0
  0
SPLINE
  5
14e
100
AcDbEntity
  8
Layer_1
 62
1
100
AcDbSpline
 70
8
 71
3
 72
8
 73
4
 74
0
 40
0
 40
0
 40
0
 40
0
 40
1
 40
1
 40
1
 40
1
 10
-176.461788
 20
120.540760
 30
0.0
 10
-177.211932
 20
121.290907
 30
0.0
 10
-177.633360
 20
122.308322
 30
0.0
 10
-177.633360
 20
123.369188
 30
0.0
  0
SPLINE
  5
14f
100
AcDbEntity
  8
Layer_1
 62
1
100
AcDbSpline
 70
8
 71
3
 72
8
 73
4
 74
0
 40
0
 40
0
 40
0
 40
0
 40
1
 40
1
 40
1
 40
1
 10
-177.633360
 20
150.781688
 30
0.0
 10
-177.633360
 20
151.842553
 30
0.0
 10
-177.211932
 20
152.859969
 30
0.0
 10
-176.461788
 20
153.610116
 30
0.0
  0
SPLINE
  5
150
100
AcDbEntity
  8
Layer_1
 62
1
100
AcDbSpline
 70
8
 71
3
 72
8
 73
4
 74
0
 40
0
 40
0
 40
0
 40
0
 40
1
 40
1
 40
1
 40
1
 10
-176.461788
 20
153.610116
 30
0.0
 10
-175.711641
 20
154.360262
 30
0.0
 10
-174.694226
 20
154.781688
 30
0.0
 10
-173.633360
 20
154.781688
 30
0.0
  0
SPLINE
  5
151
100
AcDbEntity
  8
Layer_1
 62
1
100
AcDbSpline
 70
8
 71
3
 72
8
 73
4
 74
0
 40
0
 40
0
 40
0
 40
0
 40
1
 40
1
 40
1
 40
1
 10
-173.633360
 20
154.781688
 30
0.0
 10
-172.572495
 20
154.781688
 30
0.0
 10
-171.555079
 20
154.360262
 30
0.0
 10
-170.804933
 20
153.610116
 30
0.0
  0
SPLINE
  5
152
100
AcDbEntity
  8
Layer_1
 62
1
100
AcDbSpline
 70
8
 71
3
 72
8
 73
4
 74
0
 40
0
 40
0
 40
0
 40
0
 40
1
 40
1
 40
1
 40
1
 10
-170.804933
 20
153.610116
 30
0.0
 10
-170.054786
 20
152.859969
 30
0.0
 10
-169.633360
 20
151.842553
 30
0.0
 10
-169.633360
 20
150.781688
 30
0.0
  0
SPLINE
  5
153
100
AcDbEntity
  8
Layer_1
 62
1
100
AcDbSpline
 70
8
 71
3
 72
8
 73
4
 74
0
 40
0
 40
0
 40
0
 40
0
 40
1
 40
1
 40
1
 40
1
 10
-169.633360
 20
150.781688
 30
0.0
 10
-169.633360
 20
149.720823
 30
0.0
 10
-170.054786
 20
148.703407
 30
0.0
 10
-170.804933
 20
147.953260
 30
0.0
  0
SPLINE
  5
154
100
AcDbEntity
  8
Layer_1
 62
1
100
AcDbSpline
 70
8
 71
3
 72
8
 73
4
 74
0
 40
0
 40
0
 40
0
 40
0
 40
1
 40
1
 40
1
 40
1
 10
-170.804933
 20
147.953260
 30
0.0
 10
-171.555079
 20
147.203116
 30
0.0
 10
-172.572495
 20
146.781688
 30
0.0
 10
-173.633360
 20
146.781688
 30
0.0
  0
SPLINE
  5
155
100
AcDbEntity
  8
Layer_1
 62
1
100
AcDbSpline
 70
8
 71
3
 72
8
 73
4
 74
0
 40
0
 40
0
 40
0
 40
0
 40
1
 40
1
 40
1
 40
1
 10
-173.633360
 20
146.781688
 30
0.0
 10
-174.694226
 20
146.781688
 30
0.0
 10
-175.711641
 20
147.203116
 30
0.0
 10
-176.461788
 20
147.953260
 30
0.0
  0
SPLINE
  5
156
100
AcDbEntity
  8
Layer_1
 62
1
100
AcDbSpline
 70
8
 71
3
 72
8
 73
4
 74
0
 40
0
 40
0
 40
0
 40
0
 40
1
 40
1
 40
1
 40
1
 10
-176.461788
 20
147.953260
 30
0.0
 10
-177.211932
 20
148.703407
 30
0.0
 10
-177.633360
 20
149.720823
 30
0.0
 10
-177.633360
 20
150.781688
 30
0.0
  0
SPLINE
  5
157
100
AcDbEntity
  8
Layer_1
 62
1
100
AcDbSpline
 70
8
 71
3
 72
8
 73
4
 74
0
 40
0
 40
0
 40
0
 40
0
 40
1
 40
1
 40
1
 40
1
 10
-157.633374
 20
123.369188
 30
0.0
 10
-157.633374
 20
124.430053
 30
0.0
 10
-157.211945
 20
125.447471
 30
0.0
 10
-156.461801
 20
126.197615
 30
0.0
  0
SPLINE
  5
158
100
AcDbEntity
  8
Layer_1
 62
1
100
AcDbSpline
 70
8
 71
3
 72
8
 73
4
 74
0
 40
0
 40
0
 40
0
 40
0
 40
1
 40
1
 40
1
 40
1
 10
-156.461801
 20
126.197615
 30
0.0
 10
-155.711655
 20
126.947762
 30
0.0
 10
-154.694239
 20
127.369188
 30
0.0
 10
-153.633374
 20
127.369188
 30
0.0
  0
SPLINE
  5
159
100
AcDbEntity
  8
Layer_1
 62
1
100
AcDbSpline
 70
8
 71
3
 72
8
 73
4
 74
0
 40
0
 40
0
 40
0
 40
0
 40
1
 40
1
 40
1
 40
1
 10
-153.633374
 20
127.369188
 30
0.0
 10
-152.572508
 20
127.369188
 30
0.0
 10
-151.555093
 20
126.947762
 30
0.0
 10
-150.804946
 20
126.197615
 30
0.0
  0
SPLINE
  5
15a
100
AcDbEntity
  8
Layer_1
 62
1
100
AcDbSpline
 70
8
 71
3
 72
8
 73
4
 74
0
 40
0
 40
0
 40
0
 40
0
 40
1
 40
1
 40
1
 40
1
 10
-150.804946
 20
126.197615
 30
0.0
 10
-150.054799
 20
125.447471
 30
0.0
 10
-149.633374
 20
124.430053
 30
0.0
 10
-149.633374
 20
123.369188
 30
0.0
  0
SPLINE
  5
15b
100
AcDbEntity
  8
Layer_1
 62
1
100
AcDbSpline
 70
8
 71
3
 72
8
 73
4
 74
0
 40
0
 40
0
 40
0
 40
0
 40
1
 40
1
 40
1
 40
1
 10
-149.633374
 20
123.369188
 30
0.0
 10
-149.633374
 20
122.308322
 30
0.0
 10
-150.054799
 20
121.290907
 30
0.0
 10
-150.804946
 20
120.540760
 30
0.0
  0
SPLINE
  5
15c
100
AcDbEntity
  8
Layer_1
 62
1
100
AcDbSpline
 70
8
 71
3
 72
8
 73
4
 74
0
 40
0
 40
0
 40
0
 40
0
 40
1
 40
1
 40
1
 40
1
 10
-150.804946
 20
120.540760
 30
0.0
 10
-151.555093
 20
119.790616
 30
0.0
 10
-152.572508
 20
119.369188
 30
0.0
 10
-153.633374
 20
119.369188
 30
0.0
  0
SPLINE
  5
15d
100
AcDbEntity
  8
Layer_1
 62
1
100
AcDbSpline
 70
8
 71
3
 72
8
 73
4
 74
0
 40
0
 40
0
 40
0
 40
0
 40
1
 40
1
 40
1
 40
1
 10
-153.633374
 20
119.369188
 30
0.0
 10
-154.694239
 20
119.369188
 30
0.0
 10
-155.711655
 20
119.790616
 30
0.0
 10
-156.461801
 20
120.540760
 30
0.0
  0
SPLINE
  5
15e
100
AcDbEntity
  8
Layer_1
 62
1
100
AcDbSpline
 70
8
 71
3
 72
8
 73
4
 74
0
 40
0
 40
0
 40
0
 40
0
 40
1
 40
1
 40
1
 40
1
 10
-156.461801
 20
120.540760
 30
0.0
 10
-157.211945
 20
121.290907
 30
0.0
 10
-157.633374
 20
122.308322
 30
0.0
 10
-157.633374
 20
123.369188
 30
0.0
  0
SPLINE
  5
15f
100
AcDbEntity
  8
Layer_1
 62
1
100
AcDbSpline
 70
8
 71
3
 72
8
 73
4
 74
0
 40
0
 40
0
 40
0
 40
0
 40
1
 40
1
 40
1
 40
1
 10
-157.633374
 20
150.781688
 30
0.0
 10
-157.633374
 20
151.842553
 30
0.0
 10
-157.211945
 20
152.859969
 30
0.0
 10
-156.461801
 20
153.610116
 30
0.0
  0
SPLINE
  5
160
100
AcDbEntity
  8
Layer_1
 62
1
100
AcDbSpline
 70
8
 71
3
 72
8
 73
4
 74
0
 40
0
 40
0
 40
0
 40
0
 40
1
 40
1
 40
1
 40
1
 10
-156.461801
 20
153.610116
 30
0.0
 10
-155.711655
 20
154.360262
 30
0.0
 10
-154.694239
 20
154.781688
 30
0.0
 10
-153.633374
 20
154.781688
 30
0.0
  0
SPLINE
  5
161
100
AcDbEntity
  8
Layer_1
 62
1
100
AcDbSpline
 70
8
 71
3
 72
8
 73
4
 74
0
 40
0
 40
0
 40
0
 40
0
 40
1
 40
1
 40
1
 40
1
 10
-153.633374
 20
154.781688
 30
0.0
 10
-152.572508
 20
154.781688
 30
0.0
 10
-151.555093
 20
154.360262
 30
0.0
 10
-150.804946
 20
153.610116
 30
0.0
  0
SPLINE
  5
162
100
AcDbEntity
  8
Layer_1
 62
1
100
AcDbSpline
 70
8
 71
3
 72
8
 73
4
 74
0
 40
0
 40
0
 40
0
 40
0
 40
1
 40
1
 40
1
 40
1
 10
-150.804946
 20
153.610116
 30
0.0
 10
-150.054799
 20
152.859969
 30
0.0
 10
-149.633374
 20
151.842553
 30
0.0
 10
-149.633374
 20
150.781688
 30
0.0
  0
SPLINE
  5
163
100
AcDbEntity
  8
Layer_1
 62
1
100
AcDbSpline
 70
8
 71
3
 72
8
 73
4
 74
0
 40
0
 40
0
 40
0
 40
0
 40
1
 40
1
 40
1
 40
1
 10
-149.633374
 20
150.781688
 30
0.0
 10
-149.633374
 20
149.720823
 30
0.0
 10
-150.054799
 20
148.703407
 30
0.0
 10
-150.804946
 20
147.953260
 30
0.0
  0
SPLINE
  5
164
100
AcDbEntity
  8
Layer_1
 62
1
100
AcDbSpline
 70
8
 71
3
 72
8
 73
4
 74
0
 40
0
 40
0
 40
0
 40
0
 40
1
 40
1
 40
1
 40
1
 10
-150.804946
 20
147.953260
 30
0.0
 10
-151.555093
 20
147.203116
 30
0.0
 10
-152.572508
 20
146.781688
 30
0.0
 10
-153.633374
 20
146.781688
 30
0.0
  0
SPLINE
  5
165
100
AcDbEntity
  8
Layer_1
 62
1
100
AcDbSpline
 70
8
 71
3
 72
8
 73
4
 74
0
 40
0
 40
0
 40
0
 40
0
 40
1
 40
1
 40
1
 40
1
 10
-153.633374
 20
146.781688
 30
0.0
 10
-154.694239
 20
146.781688
 30
0.0
 10
-155.711655
 20
147.203116
 30
0.0
 10
-156.461801
 20
147.953260
 30
0.0
  0
SPLINE
  5
166
100
AcDbEntity
  8
Layer_1
 62
1
100
AcDbSpline
 70
8
 71
3
 72
8
 73
4
 74
0
 40
0
 40
0
 40
0
 40
0
 40
1
 40
1
 40
1
 40
1
 10
-156.461801
 20
147.953260
 30
0.0
 10
-157.211945
 20
148.703407
 30
0.0
 10
-157.633374
 20
149.720823
 30
0.0
 10
-157.633374
 20
150.781688
 30
0.0
  0
LWPOLYLINE
  5
167
100
AcDbEntity
  8
Layer_1
 62
7
100
AcDbPolyline
 90
2
 70
0
 10
-142.552073
 20
134.971095
 30
0.0
 10
-142.552073
 20
139.521971
 30
0.0
  0
SPLINE
  5
168
100
AcDbEntity
  8
Layer_1
 62
1
100
AcDbSpline
 70
8
 71
3
 72
8
 73
4
 74
0
 40
0
 40
0
 40
0
 40
0
 40
1
 40
1
 40
1
 40
1
 10
-42.870515
 20
150.019411
 30
0.0
 10
-43.943429
 20
150.019411
 30
0.0
 10
-44.934799
 20
150.498756
 30
0.0
 10
-45.471254
 20
151.276883
 30
0.0
  0
SPLINE
  5
169
100
AcDbEntity
  8
Layer_1
 62
1
100
AcDbSpline
 70
8
 71
3
 72
8
 73
4
 74
0
 40
0
 40
0
 40
0
 40
0
 40
1
 40
1
 40
1
 40
1
 10
-45.471254
 20
151.276883
 30
0.0
 10
-46.007710
 20
152.055010
 30
0.0
 10
-46.007710
 20
153.013700
 30
0.0
 10
-45.471254
 20
153.791827
 30
0.0
  0
SPLINE
  5
16a
100
AcDbEntity
  8
Layer_1
 62
1
100
AcDbSpline
 70
8
 71
3
 72
8
 73
4
 74
0
 40
0
 40
0
 40
0
 40
0
 40
1
 40
1
 40
1
 40
1
 10
-45.471254
 20
153.791827
 30
0.0
 10
-44.934799
 20
154.569956
 30
0.0
 10
-43.943384
 20
155.049108
 30
0.0
 10
-42.870470
 20
155.049108
 30
0.0
  0
LWPOLYLINE
  5
16b
100
AcDbEntity
  8
Layer_1
 62
7
100
AcDbPolyline
 90
2
 70
0
 10
-184.808074
 20
110.175970
 30
0.0
 10
-143.971074
 20
110.177028
 30
0.0
  0
LWPOLYLINE
  5
16c
100
AcDbEntity
  8
Layer_1
 62
1
100
AcDbPolyline
 90
2
 70
0
 10
-42.868812
 20
155.049108
 30
0.0
 10
-33.743480
 20
155.072582
 30
0.0
  0
SPLINE
  5
16d
100
AcDbEntity
  8
Layer_1
 62
1
100
AcDbSpline
 70
8
 71
3
 72
8
 73
4
 74
0
 40
0
 40
0
 40
0
 40
0
 40
1
 40
1
 40
1
 40
1
 10
-121.283016
 20
150.019417
 30
0.0
 10
-122.355931
 20
150.019417
 30
0.0
 10
-123.347300
 20
150.498762
 30
0.0
 10
-123.883756
 20
151.276889
 30
0.0
  0
SPLINE
  5
16e
100
AcDbEntity
  8
Layer_1
 62
1
100
AcDbSpline
 70
8
 71
3
 72
8
 73
4
 74
0
 40
0
 40
0
 40
0
 40
0
 40
1
 40
1
 40
1
 40
1
 10
-123.883756
 20
151.276889
 30
0.0
 10
-124.420212
 20
152.055016
 30
0.0
 10
-124.420212
 20
153.013706
 30
0.0
 10
-123.883756
 20
153.791833
 30
0.0
  0
SPLINE
  5
16f
100
AcDbEntity
  8
Layer_1
 62
1
100
AcDbSpline
 70
8
 71
3
 72
8
 73
4
 74
0
 40
0
 40
0
 40
0
 40
0
 40
1
 40
1
 40
1
 40
1
 10
-123.883756
 20
153.791833
 30
0.0
 10
-123.347300
 20
154.569962
 30
0.0
 10
-122.355886
 20
155.049114
 30
0.0
 10
-121.282971
 20
155.049114
 30
0.0
  0
LWPOLYLINE
  5
170
100
AcDbEntity
  8
Layer_1
 62
1
100
AcDbPolyline
 90
2
 70
0
 10
-42.869196
 20
150.019400
 30
0.0
 10
-33.744481
 20
150.066165
 30
0.0
  0
LWPOLYLINE
  5
171
100
AcDbEntity
  8
Layer_1
 62
1
100
AcDbPolyline
 90
2
 70
0
 10
-121.281313
 20
155.049114
 30
0.0
 10
-112.155981
 20
155.072587
 30
0.0
  0
SPLINE
  5
172
100
AcDbEntity
  8
Layer_1
 62
1
100
AcDbSpline
 70
8
 71
3
 72
8
 73
4
 74
0
 40
0
 40
0
 40
0
 40
0
 40
1
 40
1
 40
1
 40
1
 10
43.253438
 20
155.072571
 30
0.0
 10
44.326353
 20
155.072571
 30
0.0
 10
45.317722
 20
154.593225
 30
0.0
 10
45.854178
 20
153.815099
 30
0.0
  0
SPLINE
  5
173
100
AcDbEntity
  8
Layer_1
 62
1
100
AcDbSpline
 70
8
 71
3
 72
8
 73
4
 74
0
 40
0
 40
0
 40
0
 40
0
 40
1
 40
1
 40
1
 40
1
 10
45.854178
 20
153.815099
 30
0.0
 10
46.390634
 20
153.036972
 30
0.0
 10
46.390634
 20
152.078281
 30
0.0
 10
45.854178
 20
151.300155
 30
0.0
  0
SPLINE
  5
174
100
AcDbEntity
  8
Layer_1
 62
1
100
AcDbSpline
 70
8
 71
3
 72
8
 73
4
 74
0
 40
0
 40
0
 40
0
 40
0
 40
1
 40
1
 40
1
 40
1
 10
45.854178
 20
151.300155
 30
0.0
 10
45.317722
 20
150.522026
 30
0.0
 10
44.326308
 20
150.042874
 30
0.0
 10
43.253393
 20
150.042874
 30
0.0
  0
LWPOLYLINE
  5
175
100
AcDbEntity
  8
Layer_1
 62
1
100
AcDbPolyline
 90
2
 70
0
 10
-121.281697
 20
150.019406
 30
0.0
 10
-112.156983
 20
150.066171
 30
0.0
  0
LWPOLYLINE
  5
176
100
AcDbEntity
  8
Layer_1
 62
1
100
AcDbPolyline
 90
2
 70
0
 10
43.251735
 20
150.042874
 30
0.0
 10
34.126404
 20
150.019400
 30
0.0
  0
SPLINE
  5
177
100
AcDbEntity
  8
Layer_1
 62
1
100
AcDbSpline
 70
8
 71
3
 72
8
 73
4
 74
0
 40
0
 40
0
 40
0
 40
0
 40
1
 40
1
 40
1
 40
1
 10
121.665937
 20
155.072567
 30
0.0
 10
122.738851
 20
155.072567
 30
0.0
 10
123.730221
 20
154.593222
 30
0.0
 10
124.266677
 20
153.815095
 30
0.0
  0
SPLINE
  5
178
100
AcDbEntity
  8
Layer_1
 62
1
100
AcDbSpline
 70
8
 71
3
 72
8
 73
4
 74
0
 40
0
 40
0
 40
0
 40
0
 40
1
 40
1
 40
1
 40
1
 10
124.266677
 20
153.815095
 30
0.0
 10
124.803133
 20
153.036969
 30
0.0
 10
124.803133
 20
152.078278
 30
0.0
 10
124.266677
 20
151.300151
 30
0.0
  0
SPLINE
  5
179
100
AcDbEntity
  8
Layer_1
 62
1
100
AcDbSpline
 70
8
 71
3
 72
8
 73
4
 74
0
 40
0
 40
0
 40
0
 40
0
 40
1
 40
1
 40
1
 40
1
 10
124.266677
 20
151.300151
 30
0.0
 10
123.730221
 20
150.522023
 30
0.0
 10
122.738806
 20
150.042870
 30
0.0
 10
121.665892
 20
150.042870
 30
0.0
  0
LWPOLYLINE
  5
17a
100
AcDbEntity
  8
Layer_1
 62
1
100
AcDbPolyline
 90
2
 70
0
 10
43.252119
 20
155.072582
 30
0.0
 10
34.127405
 20
155.025817
 30
0.0
  0
LWPOLYLINE
  5
17b
100
AcDbEntity
  8
Layer_1
 62
1
100
AcDbPolyline
 90
2
 70
0
 10
121.664234
 20
150.042870
 30
0.0
 10
112.538902
 20
150.019397
 30
0.0
  0
SPLINE
  5
17c
100
AcDbEntity
  8
Layer_1
 62
1
100
AcDbSpline
 70
8
 71
3
 72
8
 73
4
 74
0
 40
0
 40
0
 40
0
 40
0
 40
1
 40
1
 40
1
 40
1
 10
135.882512
 20
129.833406
 30
0.0
 10
144.135041
 20
129.917617
 30
0.0
 10
144.995114
 20
128.462417
 30
0.0
 10
140.941780
 20
121.273415
 30
0.0
  0
SPLINE
  5
17d
100
AcDbEntity
  8
Layer_1
 62
1
100
AcDbSpline
 70
8
 71
3
 72
8
 73
4
 74
0
 40
0
 40
0
 40
0
 40
0
 40
1
 40
1
 40
1
 40
1
 10
140.941780
 20
121.273415
 30
0.0
 10
136.888442
 20
114.084411
 30
0.0
 10
135.198165
 20
114.067163
 30
0.0
 10
130.998973
 20
121.171958
 30
0.0
  0
SPLINE
  5
17e
100
AcDbEntity
  8
Layer_1
 62
1
100
AcDbSpline
 70
8
 71
3
 72
8
 73
4
 74
0
 40
0
 40
0
 40
0
 40
0
 40
1
 40
1
 40
1
 40
1
 10
130.998973
 20
121.171958
 30
0.0
 10
126.799782
 20
128.276751
 30
0.0
 10
127.629983
 20
129.749199
 30
0.0
 10
135.882512
 20
129.833406
 30
0.0
  0
LWPOLYLINE
  5
17f
100
AcDbEntity
  8
Layer_1
 62
1
100
AcDbPolyline
 90
2
 70
0
 10
121.664618
 20
155.072578
 30
0.0
 10
112.539903
 20
155.025813
 30
0.0
  0
SPLINE
  5
180
100
AcDbEntity
  8
Layer_1
 62
1
100
AcDbSpline
 70
8
 71
3
 72
8
 73
4
 74
0
 40
0
 40
0
 40
0
 40
0
 40
1
 40
1
 40
1
 40
1
 10
116.887538
 20
115.865813
 30
0.0
 10
108.635012
 20
115.781605
 30
0.0
 10
107.774936
 20
117.236802
 30
0.0
 10
111.828270
 20
124.425807
 30
0.0
  0
SPLINE
  5
181
100
AcDbEntity
  8
Layer_1
 62
1
100
AcDbSpline
 70
8
 71
3
 72
8
 73
4
 74
0
 40
0
 40
0
 40
0
 40
0
 40
1
 40
1
 40
1
 40
1
 10
111.828270
 20
124.425807
 30
0.0
 10
115.881608
 20
131.614811
 30
0.0
 10
117.571885
 20
131.632059
 30
0.0
 10
121.771077
 20
124.527264
 30
0.0
  0
SPLINE
  5
182
100
AcDbEntity
  8
Layer_1
 62
1
100
AcDbSpline
 70
8
 71
3
 72
8
 73
4
 74
0
 40
0
 40
0
 40
0
 40
0
 40
1
 40
1
 40
1
 40
1
 10
121.771077
 20
124.527264
 30
0.0
 10
125.970268
 20
117.422468
 30
0.0
 10
125.140066
 20
115.950022
 30
0.0
 10
116.887538
 20
115.865813
 30
0.0
  0
LWPOLYLINE
  5
183
100
AcDbEntity
  8
Layer_1
 62
1
100
AcDbPolyline
 90
1
 70
1
 10
135.882512
 20
129.833406
 30
0.0
  0
SPLINE
  5
184
100
AcDbEntity
  8
Layer_1
 62
1
100
AcDbSpline
 70
8
 71
3
 72
8
 73
4
 74
0
 40
0
 40
0
 40
0
 40
0
 40
1
 40
1
 40
1
 40
1
 10
97.782504
 20
129.833406
 30
0.0
 10
106.035033
 20
129.917617
 30
0.0
 10
106.895106
 20
128.462417
 30
0.0
 10
102.841772
 20
121.273415
 30
0.0
  0
SPLINE
  5
185
100
AcDbEntity
  8
Layer_1
 62
1
100
AcDbSpline
 70
8
 71
3
 72
8
 73
4
 74
0
 40
0
 40
0
 40
0
 40
0
 40
1
 40
1
 40
1
 40
1
 10
102.841772
 20
121.273415
 30
0.0
 10
98.788434
 20
114.084411
 30
0.0
 10
97.098157
 20
114.067163
 30
0.0
 10
92.898965
 20
121.171958
 30
0.0
  0
SPLINE
  5
186
100
AcDbEntity
  8
Layer_1
 62
1
100
AcDbSpline
 70
8
 71
3
 72
8
 73
4
 74
0
 40
0
 40
0
 40
0
 40
0
 40
1
 40
1
 40
1
 40
1
 10
92.898965
 20
121.171958
 30
0.0
 10
88.699774
 20
128.276751
 30
0.0
 10
89.529976
 20
129.749199
 30
0.0
 10
97.782504
 20
129.833406
 30
0.0
  0
LWPOLYLINE
  5
187
100
AcDbEntity
  8
Layer_1
 62
1
100
AcDbPolyline
 90
1
 70
1
 10
116.887538
 20
115.865813
 30
0.0
  0
SPLINE
  5
188
100
AcDbEntity
  8
Layer_1
 62
1
100
AcDbSpline
 70
8
 71
3
 72
8
 73
4
 74
0
 40
0
 40
0
 40
0
 40
0
 40
1
 40
1
 40
1
 40
1
 10
78.787538
 20
115.865813
 30
0.0
 10
70.535012
 20
115.781605
 30
0.0
 10
69.674936
 20
117.236802
 30
0.0
 10
73.728270
 20
124.425807
 30
0.0
  0
SPLINE
  5
189
100
AcDbEntity
  8
Layer_1
 62
1
100
AcDbSpline
 70
8
 71
3
 72
8
 73
4
 74
0
 40
0
 40
0
 40
0
 40
0
 40
1
 40
1
 40
1
 40
1
 10
73.728270
 20
124.425807
 30
0.0
 10
77.781608
 20
131.614811
 30
0.0
 10
79.471885
 20
131.632059
 30
0.0
 10
83.671077
 20
124.527264
 30
0.0
  0
SPLINE
  5
18a
100
AcDbEntity
  8
Layer_1
 62
1
100
AcDbSpline
 70
8
 71
3
 72
8
 73
4
 74
0
 40
0
 40
0
 40
0
 40
0
 40
1
 40
1
 40
1
 40
1
 10
83.671077
 20
124.527264
 30
0.0
 10
87.870268
 20
117.422468
 30
0.0
 10
87.040066
 20
115.950022
 30
0.0
 10
78.787538
 20
115.865813
 30
0.0
  0
LWPOLYLINE
  5
18b
100
AcDbEntity
  8
Layer_1
 62
1
100
AcDbPolyline
 90
1
 70
1
 10
97.782504
 20
129.833406
 30
0.0
  0
SPLINE
  5
18c
100
AcDbEntity
  8
Layer_1
 62
1
100
AcDbSpline
 70
8
 71
3
 72
8
 73
4
 74
0
 40
0
 40
0
 40
0
 40
0
 40
1
 40
1
 40
1
 40
1
 10
59.682504
 20
129.833406
 30
0.0
 10
67.935033
 20
129.917617
 30
0.0
 10
68.795106
 20
128.462417
 30
0.0
 10
64.741772
 20
121.273415
 30
0.0
  0
SPLINE
  5
18d
100
AcDbEntity
  8
Layer_1
 62
1
100
AcDbSpline
 70
8
 71
3
 72
8
 73
4
 74
0
 40
0
 40
0
 40
0
 40
0
 40
1
 40
1
 40
1
 40
1
 10
64.741772
 20
121.273415
 30
0.0
 10
60.688434
 20
114.084411
 30
0.0
 10
58.998157
 20
114.067163
 30
0.0
 10
54.798965
 20
121.171958
 30
0.0
  0
SPLINE
  5
18e
100
AcDbEntity
  8
Layer_1
 62
1
100
AcDbSpline
 70
8
 71
3
 72
8
 73
4
 74
0
 40
0
 40
0
 40
0
 40
0
 40
1
 40
1
 40
1
 40
1
 10
54.798965
 20
121.171958
 30
0.0
 10
50.599774
 20
128.276751
 30
0.0
 10
51.429976
 20
129.749199
 30
0.0
 10
59.682504
 20
129.833406
 30
0.0
  0
LWPOLYLINE
  5
18f
100
AcDbEntity
  8
Layer_1
 62
1
100
AcDbPolyline
 90
1
 70
1
 10
78.787538
 20
115.865813
 30
0.0
  0
SPLINE
  5
190
100
AcDbEntity
  8
Layer_1
 62
1
100
AcDbSpline
 70
8
 71
3
 72
8
 73
4
 74
0
 40
0
 40
0
 40
0
 40
0
 40
1
 40
1
 40
1
 40
1
 10
40.687538
 20
115.865813
 30
0.0
 10
32.435012
 20
115.781605
 30
0.0
 10
31.574936
 20
117.236802
 30
0.0
 10
35.628270
 20
124.425807
 30
0.0
  0
SPLINE
  5
191
100
AcDbEntity
  8
Layer_1
 62
1
100
AcDbSpline
 70
8
 71
3
 72
8
 73
4
 74
0
 40
0
 40
0
 40
0
 40
0
 40
1
 40
1
 40
1
 40
1
 10
35.628270
 20
124.425807
 30
0.0
 10
39.681608
 20
131.614811
 30
0.0
 10
41.371885
 20
131.632059
 30
0.0
 10
45.571077
 20
124.527264
 30
0.0
  0
SPLINE
  5
192
100
AcDbEntity
  8
Layer_1
 62
1
100
AcDbSpline
 70
8
 71
3
 72
8
 73
4
 74
0
 40
0
 40
0
 40
0
 40
0
 40
1
 40
1
 40
1
 40
1
 10
45.571077
 20
124.527264
 30
0.0
 10
49.770268
 20
117.422468
 30
0.0
 10
48.940066
 20
115.950022
 30
0.0
 10
40.687538
 20
115.865813
 30
0.0
  0
LWPOLYLINE
  5
193
100
AcDbEntity
  8
Layer_1
 62
1
100
AcDbPolyline
 90
1
 70
1
 10
59.682504
 20
129.833406
 30
0.0
  0
SPLINE
  5
194
100
AcDbEntity
  8
Layer_1
 62
1
100
AcDbSpline
 70
8
 71
3
 72
8
 73
4
 74
0
 40
0
 40
0
 40
0
 40
0
 40
1
 40
1
 40
1
 40
1
 10
21.582505
 20
129.833406
 30
0.0
 10
29.835036
 20
129.917617
 30
0.0
 10
30.695109
 20
128.462417
 30
0.0
 10
26.641774
 20
121.273415
 30
0.0
  0
SPLINE
  5
195
100
AcDbEntity
  8
Layer_1
 62
1
100
AcDbSpline
 70
8
 71
3
 72
8
 73
4
 74
0
 40
0
 40
0
 40
0
 40
0
 40
1
 40
1
 40
1
 40
1
 10
26.641774
 20
121.273415
 30
0.0
 10
22.588435
 20
114.084411
 30
0.0
 10
20.898158
 20
114.067163
 30
0.0
 10
16.698966
 20
121.171958
 30
0.0
  0
SPLINE
  5
196
100
AcDbEntity
  8
Layer_1
 62
1
100
AcDbSpline
 70
8
 71
3
 72
8
 73
4
 74
0
 40
0
 40
0
 40
0
 40
0
 40
1
 40
1
 40
1
 40
1
 10
16.698966
 20
121.171958
 30
0.0
 10
12.499777
 20
128.276751
 30
0.0
 10
13.329976
 20
129.749199
 30
0.0
 10
21.582505
 20
129.833406
 30
0.0
  0
LWPOLYLINE
  5
197
100
AcDbEntity
  8
Layer_1
 62
1
100
AcDbPolyline
 90
1
 70
1
 10
40.687538
 20
115.865813
 30
0.0
  0
SPLINE
  5
198
100
AcDbEntity
  8
Layer_1
 62
1
100
AcDbSpline
 70
8
 71
3
 72
8
 73
4
 74
0
 40
0
 40
0
 40
0
 40
0
 40
1
 40
1
 40
1
 40
1
 10
2.587537
 20
115.865813
 30
0.0
 10
-5.664990
 20
115.781605
 30
0.0
 10
-6.525065
 20
117.236802
 30
0.0
 10
-2.471730
 20
124.425807
 30
0.0
  0
SPLINE
  5
199
100
AcDbEntity
  8
Layer_1
 62
1
100
AcDbSpline
 70
8
 71
3
 72
8
 73
4
 74
0
 40
0
 40
0
 40
0
 40
0
 40
1
 40
1
 40
1
 40
1
 10
-2.471730
 20
124.425807
 30
0.0
 10
1.581607
 20
131.614811
 30
0.0
 10
3.271884
 20
131.632059
 30
0.0
 10
7.471076
 20
124.527264
 30
0.0
  0
SPLINE
  5
19a
100
AcDbEntity
  8
Layer_1
 62
1
100
AcDbSpline
 70
8
 71
3
 72
8
 73
4
 74
0
 40
0
 40
0
 40
0
 40
0
 40
1
 40
1
 40
1
 40
1
 10
7.471076
 20
124.527264
 30
0.0
 10
11.670268
 20
117.422468
 30
0.0
 10
10.840066
 20
115.950022
 30
0.0
 10
2.587537
 20
115.865813
 30
0.0
  0
LWPOLYLINE
  5
19b
100
AcDbEntity
  8
Layer_1
 62
1
100
AcDbPolyline
 90
1
 70
1
 10
21.582505
 20
129.833406
 30
0.0
  0
SPLINE
  5
19c
100
AcDbEntity
  8
Layer_1
 62
1
100
AcDbSpline
 70
8
 71
3
 72
8
 73
4
 74
0
 40
0
 40
0
 40
0
 40
0
 40
1
 40
1
 40
1
 40
1
 10
-16.517495
 20
129.833406
 30
0.0
 10
-8.264966
 20
129.917617
 30
0.0
 10
-7.404891
 20
128.462417
 30
0.0
 10
-11.458228
 20
121.273415
 30
0.0
  0
SPLINE
  5
19d
100
AcDbEntity
  8
Layer_1
 62
1
100
AcDbSpline
 70
8
 71
3
 72
8
 73
4
 74
0
 40
0
 40
0
 40
0
 40
0
 40
1
 40
1
 40
1
 40
1
 10
-11.458228
 20
121.273415
 30
0.0
 10
-15.511565
 20
114.084411
 30
0.0
 10
-17.201842
 20
114.067163
 30
0.0
 10
-21.401034
 20
121.171958
 30
0.0
  0
SPLINE
  5
19e
100
AcDbEntity
  8
Layer_1
 62
1
100
AcDbSpline
 70
8
 71
3
 72
8
 73
4
 74
0
 40
0
 40
0
 40
0
 40
0
 40
1
 40
1
 40
1
 40
1
 10
-21.401034
 20
121.171958
 30
0.0
 10
-25.600223
 20
128.276751
 30
0.0
 10
-24.770024
 20
129.749199
 30
0.0
 10
-16.517495
 20
129.833406
 30
0.0
  0
LWPOLYLINE
  5
19f
100
AcDbEntity
  8
Layer_1
 62
1
100
AcDbPolyline
 90
1
 70
1
 10
2.587537
 20
115.865813
 30
0.0
  0
SPLINE
  5
1a0
100
AcDbEntity
  8
Layer_1
 62
1
100
AcDbSpline
 70
8
 71
3
 72
8
 73
4
 74
0
 40
0
 40
0
 40
0
 40
0
 40
1
 40
1
 40
1
 40
1
 10
-35.512462
 20
115.865813
 30
0.0
 10
-43.764988
 20
115.781605
 30
0.0
 10
-44.625064
 20
117.236802
 30
0.0
 10
-40.571730
 20
124.425807
 30
0.0
  0
SPLINE
  5
1a1
100
AcDbEntity
  8
Layer_1
 62
1
100
AcDbSpline
 70
8
 71
3
 72
8
 73
4
 74
0
 40
0
 40
0
 40
0
 40
0
 40
1
 40
1
 40
1
 40
1
 10
-40.571730
 20
124.425807
 30
0.0
 10
-36.518392
 20
131.614811
 30
0.0
 10
-34.828115
 20
131.632059
 30
0.0
 10
-30.628923
 20
124.527264
 30
0.0
  0
SPLINE
  5
1a2
100
AcDbEntity
  8
Layer_1
 62
1
100
AcDbSpline
 70
8
 71
3
 72
8
 73
4
 74
0
 40
0
 40
0
 40
0
 40
0
 40
1
 40
1
 40
1
 40
1
 10
-30.628923
 20
124.527264
 30
0.0
 10
-26.429730
 20
117.422468
 30
0.0
 10
-27.259932
 20
115.950022
 30
0.0
 10
-35.512462
 20
115.865813
 30
0.0
  0
LWPOLYLINE
  5
1a3
100
AcDbEntity
  8
Layer_1
 62
1
100
AcDbPolyline
 90
1
 70
1
 10
-16.517495
 20
129.833406
 30
0.0
  0
SPLINE
  5
1a4
100
AcDbEntity
  8
Layer_1
 62
1
100
AcDbSpline
 70
8
 71
3
 72
8
 73
4
 74
0
 40
0
 40
0
 40
0
 40
0
 40
1
 40
1
 40
1
 40
1
 10
-54.617496
 20
129.833406
 30
0.0
 10
-46.364967
 20
129.917617
 30
0.0
 10
-45.504894
 20
128.462417
 30
0.0
 10
-49.558228
 20
121.273415
 30
0.0
  0
SPLINE
  5
1a5
100
AcDbEntity
  8
Layer_1
 62
1
100
AcDbSpline
 70
8
 71
3
 72
8
 73
4
 74
0
 40
0
 40
0
 40
0
 40
0
 40
1
 40
1
 40
1
 40
1
 10
-49.558228
 20
121.273415
 30
0.0
 10
-53.611566
 20
114.084411
 30
0.0
 10
-55.301843
 20
114.067163
 30
0.0
 10
-59.501035
 20
121.171958
 30
0.0
  0
SPLINE
  5
1a6
100
AcDbEntity
  8
Layer_1
 62
1
100
AcDbSpline
 70
8
 71
3
 72
8
 73
4
 74
0
 40
0
 40
0
 40
0
 40
0
 40
1
 40
1
 40
1
 40
1
 10
-59.501035
 20
121.171958
 30
0.0
 10
-63.700226
 20
128.276751
 30
0.0
 10
-62.870024
 20
129.749199
 30
0.0
 10
-54.617496
 20
129.833406
 30
0.0
  0
LWPOLYLINE
  5
1a7
100
AcDbEntity
  8
Layer_1
 62
1
100
AcDbPolyline
 90
1
 70
1
 10
-35.512462
 20
115.865813
 30
0.0
  0
LWPOLYLINE
  5
1a8
100
AcDbEntity
  8
Layer_1
 62
1
100
AcDbPolyline
 90
1
 70
1
 10
-54.617496
 20
129.833406
 30
0.0
  0
ENDSEC
  0
SECTION
  2
OBJECTS
  0
DICTIONARY
  5
C
330
0
100
AcDbDictionary
  3
ACAD_GROUP
350
D
  3
ACAD_MLINESTYLE
350
17
  0
DICTIONARY
  5
D
330
C
100
AcDbDictionary
  0
DICTIONARY
  5
1A
330
C
100
AcDbDictionary
  0
DICTIONARY
  5
17
330
C
100
AcDbDictionary
  3
STANDARD
350
18
  0
DICTIONARY
  5
19
330
C
100
AcDbDictionary
  0
ENDSEC
  0
EOF
