  0
SECTION
  2
HEADER
  9
$ACADVER
  1
AC1014
  9
$HANDSEED
  5
FFFF
  9
$MEASUREMENT
 70
     1
  0
ENDSEC
  0
SECTION
  2
TABLES
  0
TABLE
  2
VPORT
  5
8
330
0
100
AcDbSymbolTable
 70
     4
  0
VPORT
  5
2E
330
8
100
AcDbSymbolTableRecord
100
AcDbViewportTableRecord
  2
*ACTIVE
 70
     0
 10
0.0
 20
0.0
 11
1.0
 21
1.0
 12
210.0
 22
148.5
 13
0.0
 23
0.0
 14
10.0
 24
10.0
 15
10.0
 25
10.0
 16
0.0
 26
0.0
 36
1.0
 17
0.0
 27
0.0
 37
0.0
 40
341.0
 41
1.24
 42
50.0
 43
0.0
 44
0.0
 50
0.0
 51
0.0
 71
     0
 72
   100
 73
     1
 74
     3
 75
     0
 76
     0
 77
     0
 78
     0
  0
ENDTAB
  0
TABLE
  2
LTYPE
  5
5
330
0
100
AcDbSymbolTable
 70
     1
  0
LTYPE
  5
14
330
5
100
AcDbSymbolTableRecord
100
AcDbLinetypeTableRecord
  2
BYBLOCK
 70
     0
  3

 72
    65
 73
     0
 40
0.0
  0
LTYPE
  5
15
330
5
100
AcDbSymbolTableRecord
100
AcDbLinetypeTableRecord
  2
BYLAYER
 70
     0
  3

 72
    65
 73
     0
 40
0.0
  0
LTYPE
  5
16
330
5
100
AcDbSymbolTableRecord
100
AcDbLinetypeTableRecord
  2
CONTINUOUS
 70
     0
  3
Solid line
 72
    65
 73
     0
 40
0.0
  0
ENDTAB
  0
TABLE
  2
LAYER
  5
2
100
AcDbSymbolTable
 70
2
  0
LAYER
  5
50
100
AcDbSymbolTableRecord
100
AcDbLayerTableRecord
  2
0
 70
0
  6
CONTINUOUS
  0
LAYER
  5
51
100
AcDbSymbolTableRecord
100
AcDbLayerTableRecord
  2
Layer_1
 70
0
  6
CONTINUOUS
  0
ENDTAB
  0
TABLE
  2
STYLE
  5
3
330
0
100
AcDbSymbolTable
 70
     1
  0
STYLE
  5
11
330
3
100
AcDbSymbolTableRecord
100
AcDbTextStyleTableRecord
  2
STANDARD
 70
     0
 40
0.0
 41
1.0
 50
0.0
 71
     0
 42
2.5
  3
txt
  4

  0
ENDTAB
  0
TABLE
  2
VIEW
  5
6
330
0
100
AcDbSymbolTable
 70
     0
  0
ENDTAB
  0
TABLE
  2
UCS
  5
7
330
0
100
AcDbSymbolTable
 70
     0
  0
ENDTAB
  0
TABLE
  2
APPID
  5
9
330
0
100
AcDbSymbolTable
 70
     2
  0
APPID
  5
12
330
9
100
AcDbSymbolTableRecord
100
AcDbRegAppTableRecord
  2
ACAD
 70
     0
  0
ENDTAB
  0
TABLE
  2
DIMSTYLE
  5
A
330
0
100
AcDbSymbolTable
 70
     1
  0
DIMSTYLE
105
27
330
A
100
AcDbSymbolTableRecord
100
AcDbDimStyleTableRecord
  2
ISO-25
 70
     0
  3

  4

  5

  6

  7

 40
1.0
 41
2.5
 42
0.625
 43
3.75
 44
1.25
 45
0.0
 46
0.0
 47
0.0
 48
0.0
140
2.5
141
2.5
142
0.0
143
0.03937007874016
144
1.0
145
0.0
146
1.0
147
0.625
 71
     0
 72
     0
 73
     0
 74
     0
 75
     0
 76
     0
 77
     1
 78
     8
170
     0
171
     3
172
     1
173
     0
174
     0
175
     0
176
     0
177
     0
178
     0
270
     2
271
     2
272
     2
273
     2
274
     3
340
11
275
     0
280
     0
281
     0
282
     0
283
     0
284
     8
285
     0
286
     0
287
     3
288
     0
  0
ENDTAB
  0
TABLE
  2
BLOCK_RECORD
  5
1
330
0
100
AcDbSymbolTable
 70
     1
  0
BLOCK_RECORD
  5
1F
330
1
100
AcDbSymbolTableRecord
100
AcDbBlockTableRecord
  2
*MODEL_SPACE
  0
BLOCK_RECORD
  5
1B
330
1
100
AcDbSymbolTableRecord
100
AcDbBlockTableRecord
  2
*PAPER_SPACE
  0
ENDTAB
  0
ENDSEC
  0
SECTION
  2
BLOCKS
  0
BLOCK
  5
20
330
1F
100
AcDbEntity
  8
0
100
AcDbBlockBegin
  2
*MODEL_SPACE
 70
     0
 10
0.0
 20
0.0
 30
0.0
  3
*MODEL_SPACE
  1

  0
ENDBLK
  5
21
330
1F
100
AcDbEntity
  8
0
100
AcDbBlockEnd
  0
BLOCK
  5
1C
330
1B
100
AcDbEntity
 67
     1
  8
0
100
AcDbBlockBegin
  2
*PAPER_SPACE
  1

  0
ENDBLK
  5
1D
330
1B
100
AcDbEntity
 67
     1
  8
0
100
AcDbBlockEnd
  0
ENDSEC
  0
SECTION
  2
ENTITIES
  0
SPLINE
  5
100
100
AcDbEntity
  8
Layer_1
 62
7
100
AcDbSpline
 70
8
 71
3
 72
8
 73
4
 74
0
 40
0
 40
0
 40
0
 40
0
 40
1
 40
1
 40
1
 40
1
 10
105.191999
 20
139.252411
 30
0.0
 10
107.961988
 20
139.252411
 30
0.0
 10
110.191688
 20
141.482129
 30
0.0
 10
110.191688
 20
144.252139
 30
0.0
  0
SPLINE
  5
101
100
AcDbEntity
  8
Layer_1
 62
7
100
AcDbSpline
 70
8
 71
3
 72
8
 73
4
 74
0
 40
0
 40
0
 40
0
 40
0
 40
1
 40
1
 40
1
 40
1
 10
110.191688
 20
159.252339
 30
0.0
 10
110.191688
 20
162.022349
 30
0.0
 10
107.961988
 20
164.252581
 30
0.0
 10
105.191999
 20
164.252581
 30
0.0
  0
LWPOLYLINE
  5
102
100
AcDbEntity
  8
Layer_1
 62
7
100
AcDbPolyline
 90
4
 70
0
 10
122.802999
 20
135.120008
 30
0.0
 10
-136.226000
 20
135.120008
 30
0.0
 10
-136.226000
 20
139.252411
 30
0.0
 10
105.191999
 20
139.251882
 30
0.0
  0
SPLINE
  5
103
100
AcDbEntity
  8
Layer_1
 62
7
100
AcDbSpline
 70
8
 71
3
 72
8
 73
4
 74
0
 40
0
 40
0
 40
0
 40
0
 40
1
 40
1
 40
1
 40
1
 10
-184.807990
 20
164.252581
 30
0.0
 10
-187.578000
 20
164.252581
 30
0.0
 10
-189.808189
 20
162.022349
 30
0.0
 10
-189.808189
 20
159.252339
 30
0.0
  0
LWPOLYLINE
  5
104
100
AcDbEntity
  8
Layer_1
 62
7
100
AcDbPolyline
 90
2
 70
0
 10
110.191688
 20
144.252139
 30
0.0
 10
110.191688
 20
159.252339
 30
0.0
  0
SPLINE
  5
105
100
AcDbEntity
  8
Layer_1
 62
7
100
AcDbSpline
 70
8
 71
3
 72
8
 73
4
 74
0
 40
0
 40
0
 40
0
 40
0
 40
1
 40
1
 40
1
 40
1
 10
-189.808189
 20
144.252139
 30
0.0
 10
-189.808189
 20
141.975619
 30
0.0
 10
-188.300810
 20
140.067021
 30
0.0
 10
-186.226500
 20
139.458090
 30
0.0
  0
LWPOLYLINE
  5
106
100
AcDbEntity
  8
Layer_1
 62
7
100
AcDbPolyline
 90
2
 70
0
 10
105.191999
 20
164.253009
 30
0.0
 10
-184.807990
 20
164.252480
 30
0.0
  0
SPLINE
  5
107
100
AcDbEntity
  8
Layer_1
 62
7
100
AcDbSpline
 70
8
 71
3
 72
8
 73
4
 74
0
 40
0
 40
0
 40
0
 40
0
 40
1
 40
1
 40
1
 40
1
 10
-186.226500
 20
134.906921
 30
0.0
 10
-188.286361
 20
134.289061
 30
0.0
 10
-189.779780
 20
132.385921
 30
0.0
 10
-189.779780
 20
130.119590
 30
0.0
  0
LWPOLYLINE
  5
108
100
AcDbEntity
  8
Layer_1
 62
7
100
AcDbPolyline
 90
2
 70
0
 10
-189.808189
 20
159.252339
 30
0.0
 10
-189.808189
 20
144.252139
 30
0.0
  0
SPLINE
  5
109
100
AcDbEntity
  8
Layer_1
 62
7
100
AcDbSpline
 70
8
 71
3
 72
8
 73
4
 74
0
 40
0
 40
0
 40
0
 40
0
 40
1
 40
1
 40
1
 40
1
 10
-189.779780
 20
115.176230
 30
0.0
 10
-189.779780
 20
112.406209
 30
0.0
 10
-187.550110
 20
110.176499
 30
0.0
 10
-184.780079
 20
110.176499
 30
0.0
  0
LWPOLYLINE
  5
10a
100
AcDbEntity
  8
Layer_1
 62
7
100
AcDbPolyline
 90
2
 70
0
 10
-186.226500
 20
139.458090
 30
0.0
 10
-186.226500
 20
134.906921
 30
0.0
  0
LWPOLYLINE
  5
10b
100
AcDbEntity
  8
Layer_1
 62
7
100
AcDbPolyline
 90
2
 70
0
 10
-189.779780
 20
130.119590
 30
0.0
 10
-189.779780
 20
115.176230
 30
0.0
  0
SPLINE
  5
10c
100
AcDbEntity
  8
Layer_1
 62
1
100
AcDbSpline
 70
8
 71
3
 72
8
 73
4
 74
0
 40
0
 40
0
 40
0
 40
0
 40
1
 40
1
 40
1
 40
1
 10
-172.425900
 20
151.059834
 30
0.0
 10
-172.425900
 20
149.998968
 30
0.0
 10
-172.847328
 20
148.981550
 30
0.0
 10
-173.597472
 20
148.231406
 30
0.0
  0
SPLINE
  5
10d
100
AcDbEntity
  8
Layer_1
 62
1
100
AcDbSpline
 70
8
 71
3
 72
8
 73
4
 74
0
 40
0
 40
0
 40
0
 40
0
 40
1
 40
1
 40
1
 40
1
 10
-173.597472
 20
148.231406
 30
0.0
 10
-174.347619
 20
147.481260
 30
0.0
 10
-175.365034
 20
147.059834
 30
0.0
 10
-176.425900
 20
147.059834
 30
0.0
  0
SPLINE
  5
10e
100
AcDbEntity
  8
Layer_1
 62
1
100
AcDbSpline
 70
8
 71
3
 72
8
 73
4
 74
0
 40
0
 40
0
 40
0
 40
0
 40
1
 40
1
 40
1
 40
1
 10
-176.425900
 20
147.059834
 30
0.0
 10
-177.486765
 20
147.059834
 30
0.0
 10
-178.504181
 20
147.481260
 30
0.0
 10
-179.254327
 20
148.231406
 30
0.0
  0
SPLINE
  5
10f
100
AcDbEntity
  8
Layer_1
 62
1
100
AcDbSpline
 70
8
 71
3
 72
8
 73
4
 74
0
 40
0
 40
0
 40
0
 40
0
 40
1
 40
1
 40
1
 40
1
 10
-179.254327
 20
148.231406
 30
0.0
 10
-180.004474
 20
148.981550
 30
0.0
 10
-180.425900
 20
149.998968
 30
0.0
 10
-180.425900
 20
151.059834
 30
0.0
  0
SPLINE
  5
110
100
AcDbEntity
  8
Layer_1
 62
1
100
AcDbSpline
 70
8
 71
3
 72
8
 73
4
 74
0
 40
0
 40
0
 40
0
 40
0
 40
1
 40
1
 40
1
 40
1
 10
-180.425900
 20
151.059834
 30
0.0
 10
-180.425900
 20
152.120699
 30
0.0
 10
-180.004474
 20
153.138115
 30
0.0
 10
-179.254327
 20
153.888261
 30
0.0
  0
SPLINE
  5
111
100
AcDbEntity
  8
Layer_1
 62
1
100
AcDbSpline
 70
8
 71
3
 72
8
 73
4
 74
0
 40
0
 40
0
 40
0
 40
0
 40
1
 40
1
 40
1
 40
1
 10
-179.254327
 20
153.888261
 30
0.0
 10
-178.504181
 20
154.638405
 30
0.0
 10
-177.486765
 20
155.059834
 30
0.0
 10
-176.425900
 20
155.059834
 30
0.0
  0
SPLINE
  5
112
100
AcDbEntity
  8
Layer_1
 62
1
100
AcDbSpline
 70
8
 71
3
 72
8
 73
4
 74
0
 40
0
 40
0
 40
0
 40
0
 40
1
 40
1
 40
1
 40
1
 10
-176.425900
 20
155.059834
 30
0.0
 10
-175.365034
 20
155.059834
 30
0.0
 10
-174.347619
 20
154.638405
 30
0.0
 10
-173.597472
 20
153.888261
 30
0.0
  0
SPLINE
  5
113
100
AcDbEntity
  8
Layer_1
 62
1
100
AcDbSpline
 70
8
 71
3
 72
8
 73
4
 74
0
 40
0
 40
0
 40
0
 40
0
 40
1
 40
1
 40
1
 40
1
 10
-173.597472
 20
153.888261
 30
0.0
 10
-172.847328
 20
153.138115
 30
0.0
 10
-172.425900
 20
152.120699
 30
0.0
 10
-172.425900
 20
151.059834
 30
0.0
  0
SPLINE
  5
114
100
AcDbEntity
  8
Layer_1
 62
1
100
AcDbSpline
 70
8
 71
3
 72
8
 73
4
 74
0
 40
0
 40
0
 40
0
 40
0
 40
1
 40
1
 40
1
 40
1
 10
-172.425900
 20
123.647334
 30
0.0
 10
-172.425900
 20
122.586468
 30
0.0
 10
-172.847328
 20
121.569053
 30
0.0
 10
-173.597472
 20
120.818906
 30
0.0
  0
SPLINE
  5
115
100
AcDbEntity
  8
Layer_1
 62
1
100
AcDbSpline
 70
8
 71
3
 72
8
 73
4
 74
0
 40
0
 40
0
 40
0
 40
0
 40
1
 40
1
 40
1
 40
1
 10
-173.597472
 20
120.818906
 30
0.0
 10
-174.347619
 20
120.068759
 30
0.0
 10
-175.365034
 20
119.647334
 30
0.0
 10
-176.425900
 20
119.647334
 30
0.0
  0
SPLINE
  5
116
100
AcDbEntity
  8
Layer_1
 62
1
100
AcDbSpline
 70
8
 71
3
 72
8
 73
4
 74
0
 40
0
 40
0
 40
0
 40
0
 40
1
 40
1
 40
1
 40
1
 10
-176.425900
 20
119.647334
 30
0.0
 10
-177.486765
 20
119.647334
 30
0.0
 10
-178.504181
 20
120.068759
 30
0.0
 10
-179.254327
 20
120.818906
 30
0.0
  0
SPLINE
  5
117
100
AcDbEntity
  8
Layer_1
 62
1
100
AcDbSpline
 70
8
 71
3
 72
8
 73
4
 74
0
 40
0
 40
0
 40
0
 40
0
 40
1
 40
1
 40
1
 40
1
 10
-179.254327
 20
120.818906
 30
0.0
 10
-180.004474
 20
121.569053
 30
0.0
 10
-180.425900
 20
122.586468
 30
0.0
 10
-180.425900
 20
123.647334
 30
0.0
  0
SPLINE
  5
118
100
AcDbEntity
  8
Layer_1
 62
1
100
AcDbSpline
 70
8
 71
3
 72
8
 73
4
 74
0
 40
0
 40
0
 40
0
 40
0
 40
1
 40
1
 40
1
 40
1
 10
-180.425900
 20
123.647334
 30
0.0
 10
-180.425900
 20
124.708199
 30
0.0
 10
-180.004474
 20
125.725615
 30
0.0
 10
-179.254327
 20
126.475761
 30
0.0
  0
SPLINE
  5
119
100
AcDbEntity
  8
Layer_1
 62
1
100
AcDbSpline
 70
8
 71
3
 72
8
 73
4
 74
0
 40
0
 40
0
 40
0
 40
0
 40
1
 40
1
 40
1
 40
1
 10
-179.254327
 20
126.475761
 30
0.0
 10
-178.504181
 20
127.225905
 30
0.0
 10
-177.486765
 20
127.647334
 30
0.0
 10
-176.425900
 20
127.647334
 30
0.0
  0
SPLINE
  5
11a
100
AcDbEntity
  8
Layer_1
 62
1
100
AcDbSpline
 70
8
 71
3
 72
8
 73
4
 74
0
 40
0
 40
0
 40
0
 40
0
 40
1
 40
1
 40
1
 40
1
 10
-176.425900
 20
127.647334
 30
0.0
 10
-175.365034
 20
127.647334
 30
0.0
 10
-174.347619
 20
127.225905
 30
0.0
 10
-173.597472
 20
126.475761
 30
0.0
  0
SPLINE
  5
11b
100
AcDbEntity
  8
Layer_1
 62
1
100
AcDbSpline
 70
8
 71
3
 72
8
 73
4
 74
0
 40
0
 40
0
 40
0
 40
0
 40
1
 40
1
 40
1
 40
1
 10
-173.597472
 20
126.475761
 30
0.0
 10
-172.847328
 20
125.725615
 30
0.0
 10
-172.425900
 20
124.708199
 30
0.0
 10
-172.425900
 20
123.647334
 30
0.0
  0
SPLINE
  5
11c
100
AcDbEntity
  8
Layer_1
 62
1
100
AcDbSpline
 70
8
 71
3
 72
8
 73
4
 74
0
 40
0
 40
0
 40
0
 40
0
 40
1
 40
1
 40
1
 40
1
 10
98.844291
 20
151.060292
 30
0.0
 10
98.844291
 20
149.999426
 30
0.0
 10
98.422862
 20
148.982011
 30
0.0
 10
97.672716
 20
148.231867
 30
0.0
  0
SPLINE
  5
11d
100
AcDbEntity
  8
Layer_1
 62
1
100
AcDbSpline
 70
8
 71
3
 72
8
 73
4
 74
0
 40
0
 40
0
 40
0
 40
0
 40
1
 40
1
 40
1
 40
1
 10
97.672716
 20
148.231867
 30
0.0
 10
96.922571
 20
147.481720
 30
0.0
 10
95.905156
 20
147.060292
 30
0.0
 10
94.844291
 20
147.060292
 30
0.0
  0
SPLINE
  5
11e
100
AcDbEntity
  8
Layer_1
 62
1
100
AcDbSpline
 70
8
 71
3
 72
8
 73
4
 74
0
 40
0
 40
0
 40
0
 40
0
 40
1
 40
1
 40
1
 40
1
 10
94.844291
 20
147.060292
 30
0.0
 10
93.783423
 20
147.060292
 30
0.0
 10
92.766007
 20
147.481720
 30
0.0
 10
92.015863
 20
148.231867
 30
0.0
  0
SPLINE
  5
11f
100
AcDbEntity
  8
Layer_1
 62
1
100
AcDbSpline
 70
8
 71
3
 72
8
 73
4
 74
0
 40
0
 40
0
 40
0
 40
0
 40
1
 40
1
 40
1
 40
1
 10
92.015863
 20
148.231867
 30
0.0
 10
91.265716
 20
148.982011
 30
0.0
 10
90.844291
 20
149.999426
 30
0.0
 10
90.844291
 20
151.060292
 30
0.0
  0
SPLINE
  5
120
100
AcDbEntity
  8
Layer_1
 62
1
100
AcDbSpline
 70
8
 71
3
 72
8
 73
4
 74
0
 40
0
 40
0
 40
0
 40
0
 40
1
 40
1
 40
1
 40
1
 10
90.844291
 20
151.060292
 30
0.0
 10
90.844291
 20
152.121160
 30
0.0
 10
91.265716
 20
153.138575
 30
0.0
 10
92.015863
 20
153.888719
 30
0.0
  0
SPLINE
  5
121
100
AcDbEntity
  8
Layer_1
 62
1
100
AcDbSpline
 70
8
 71
3
 72
8
 73
4
 74
0
 40
0
 40
0
 40
0
 40
0
 40
1
 40
1
 40
1
 40
1
 10
92.015863
 20
153.888719
 30
0.0
 10
92.766007
 20
154.638866
 30
0.0
 10
93.783423
 20
155.060292
 30
0.0
 10
94.844291
 20
155.060292
 30
0.0
  0
SPLINE
  5
122
100
AcDbEntity
  8
Layer_1
 62
1
100
AcDbSpline
 70
8
 71
3
 72
8
 73
4
 74
0
 40
0
 40
0
 40
0
 40
0
 40
1
 40
1
 40
1
 40
1
 10
94.844291
 20
155.060292
 30
0.0
 10
95.905156
 20
155.060292
 30
0.0
 10
96.922571
 20
154.638866
 30
0.0
 10
97.672716
 20
153.888719
 30
0.0
  0
SPLINE
  5
123
100
AcDbEntity
  8
Layer_1
 62
1
100
AcDbSpline
 70
8
 71
3
 72
8
 73
4
 74
0
 40
0
 40
0
 40
0
 40
0
 40
1
 40
1
 40
1
 40
1
 10
97.672716
 20
153.888719
 30
0.0
 10
98.422862
 20
153.138575
 30
0.0
 10
98.844291
 20
152.121160
 30
0.0
 10
98.844291
 20
151.060292
 30
0.0
  0
SPLINE
  5
124
100
AcDbEntity
  8
Layer_1
 62
1
100
AcDbSpline
 70
8
 71
3
 72
8
 73
4
 74
0
 40
0
 40
0
 40
0
 40
0
 40
1
 40
1
 40
1
 40
1
 10
-152.425709
 20
151.059834
 30
0.0
 10
-152.425709
 20
149.998968
 30
0.0
 10
-152.847137
 20
148.981550
 30
0.0
 10
-153.597281
 20
148.231406
 30
0.0
  0
SPLINE
  5
125
100
AcDbEntity
  8
Layer_1
 62
1
100
AcDbSpline
 70
8
 71
3
 72
8
 73
4
 74
0
 40
0
 40
0
 40
0
 40
0
 40
1
 40
1
 40
1
 40
1
 10
-153.597281
 20
148.231406
 30
0.0
 10
-154.347428
 20
147.481260
 30
0.0
 10
-155.364843
 20
147.059834
 30
0.0
 10
-156.425708
 20
147.059834
 30
0.0
  0
SPLINE
  5
126
100
AcDbEntity
  8
Layer_1
 62
1
100
AcDbSpline
 70
8
 71
3
 72
8
 73
4
 74
0
 40
0
 40
0
 40
0
 40
0
 40
1
 40
1
 40
1
 40
1
 10
-156.425708
 20
147.059834
 30
0.0
 10
-157.486574
 20
147.059834
 30
0.0
 10
-158.503989
 20
147.481260
 30
0.0
 10
-159.254136
 20
148.231406
 30
0.0
  0
SPLINE
  5
127
100
AcDbEntity
  8
Layer_1
 62
1
100
AcDbSpline
 70
8
 71
3
 72
8
 73
4
 74
0
 40
0
 40
0
 40
0
 40
0
 40
1
 40
1
 40
1
 40
1
 10
-159.254136
 20
148.231406
 30
0.0
 10
-160.004283
 20
148.981550
 30
0.0
 10
-160.425708
 20
149.998968
 30
0.0
 10
-160.425708
 20
151.059834
 30
0.0
  0
SPLINE
  5
128
100
AcDbEntity
  8
Layer_1
 62
1
100
AcDbSpline
 70
8
 71
3
 72
8
 73
4
 74
0
 40
0
 40
0
 40
0
 40
0
 40
1
 40
1
 40
1
 40
1
 10
-160.425708
 20
151.059834
 30
0.0
 10
-160.425708
 20
152.120699
 30
0.0
 10
-160.004283
 20
153.138115
 30
0.0
 10
-159.254136
 20
153.888261
 30
0.0
  0
SPLINE
  5
129
100
AcDbEntity
  8
Layer_1
 62
1
100
AcDbSpline
 70
8
 71
3
 72
8
 73
4
 74
0
 40
0
 40
0
 40
0
 40
0
 40
1
 40
1
 40
1
 40
1
 10
-159.254136
 20
153.888261
 30
0.0
 10
-158.503989
 20
154.638405
 30
0.0
 10
-157.486574
 20
155.059834
 30
0.0
 10
-156.425708
 20
155.059834
 30
0.0
  0
SPLINE
  5
12a
100
AcDbEntity
  8
Layer_1
 62
1
100
AcDbSpline
 70
8
 71
3
 72
8
 73
4
 74
0
 40
0
 40
0
 40
0
 40
0
 40
1
 40
1
 40
1
 40
1
 10
-156.425708
 20
155.059834
 30
0.0
 10
-155.364843
 20
155.059834
 30
0.0
 10
-154.347428
 20
154.638405
 30
0.0
 10
-153.597281
 20
153.888261
 30
0.0
  0
SPLINE
  5
12b
100
AcDbEntity
  8
Layer_1
 62
1
100
AcDbSpline
 70
8
 71
3
 72
8
 73
4
 74
0
 40
0
 40
0
 40
0
 40
0
 40
1
 40
1
 40
1
 40
1
 10
-153.597281
 20
153.888261
 30
0.0
 10
-152.847137
 20
153.138115
 30
0.0
 10
-152.425709
 20
152.120699
 30
0.0
 10
-152.425709
 20
151.059834
 30
0.0
  0
SPLINE
  5
12c
100
AcDbEntity
  8
Layer_1
 62
1
100
AcDbSpline
 70
8
 71
3
 72
8
 73
4
 74
0
 40
0
 40
0
 40
0
 40
0
 40
1
 40
1
 40
1
 40
1
 10
-152.425709
 20
123.647334
 30
0.0
 10
-152.425709
 20
122.586468
 30
0.0
 10
-152.847137
 20
121.569053
 30
0.0
 10
-153.597281
 20
120.818906
 30
0.0
  0
SPLINE
  5
12d
100
AcDbEntity
  8
Layer_1
 62
1
100
AcDbSpline
 70
8
 71
3
 72
8
 73
4
 74
0
 40
0
 40
0
 40
0
 40
0
 40
1
 40
1
 40
1
 40
1
 10
-153.597281
 20
120.818906
 30
0.0
 10
-154.347428
 20
120.068759
 30
0.0
 10
-155.364843
 20
119.647334
 30
0.0
 10
-156.425708
 20
119.647334
 30
0.0
  0
SPLINE
  5
12e
100
AcDbEntity
  8
Layer_1
 62
1
100
AcDbSpline
 70
8
 71
3
 72
8
 73
4
 74
0
 40
0
 40
0
 40
0
 40
0
 40
1
 40
1
 40
1
 40
1
 10
-156.425708
 20
119.647334
 30
0.0
 10
-157.486574
 20
119.647334
 30
0.0
 10
-158.503989
 20
120.068759
 30
0.0
 10
-159.254136
 20
120.818906
 30
0.0
  0
SPLINE
  5
12f
100
AcDbEntity
  8
Layer_1
 62
1
100
AcDbSpline
 70
8
 71
3
 72
8
 73
4
 74
0
 40
0
 40
0
 40
0
 40
0
 40
1
 40
1
 40
1
 40
1
 10
-159.254136
 20
120.818906
 30
0.0
 10
-160.004283
 20
121.569053
 30
0.0
 10
-160.425708
 20
122.586468
 30
0.0
 10
-160.425708
 20
123.647334
 30
0.0
  0
SPLINE
  5
130
100
AcDbEntity
  8
Layer_1
 62
1
100
AcDbSpline
 70
8
 71
3
 72
8
 73
4
 74
0
 40
0
 40
0
 40
0
 40
0
 40
1
 40
1
 40
1
 40
1
 10
-160.425708
 20
123.647334
 30
0.0
 10
-160.425708
 20
124.708199
 30
0.0
 10
-160.004283
 20
125.725615
 30
0.0
 10
-159.254136
 20
126.475761
 30
0.0
  0
SPLINE
  5
131
100
AcDbEntity
  8
Layer_1
 62
1
100
AcDbSpline
 70
8
 71
3
 72
8
 73
4
 74
0
 40
0
 40
0
 40
0
 40
0
 40
1
 40
1
 40
1
 40
1
 10
-159.254136
 20
126.475761
 30
0.0
 10
-158.503989
 20
127.225905
 30
0.0
 10
-157.486574
 20
127.647334
 30
0.0
 10
-156.425708
 20
127.647334
 30
0.0
  0
SPLINE
  5
132
100
AcDbEntity
  8
Layer_1
 62
1
100
AcDbSpline
 70
8
 71
3
 72
8
 73
4
 74
0
 40
0
 40
0
 40
0
 40
0
 40
1
 40
1
 40
1
 40
1
 10
-156.425708
 20
127.647334
 30
0.0
 10
-155.364843
 20
127.647334
 30
0.0
 10
-154.347428
 20
127.225905
 30
0.0
 10
-153.597281
 20
126.475761
 30
0.0
  0
SPLINE
  5
133
100
AcDbEntity
  8
Layer_1
 62
1
100
AcDbSpline
 70
8
 71
3
 72
8
 73
4
 74
0
 40
0
 40
0
 40
0
 40
0
 40
1
 40
1
 40
1
 40
1
 10
-153.597281
 20
126.475761
 30
0.0
 10
-152.847137
 20
125.725615
 30
0.0
 10
-152.425709
 20
124.708199
 30
0.0
 10
-152.425709
 20
123.647334
 30
0.0
  0
SPLINE
  5
134
100
AcDbEntity
  8
Layer_1
 62
1
100
AcDbSpline
 70
8
 71
3
 72
8
 73
4
 74
0
 40
0
 40
0
 40
0
 40
0
 40
1
 40
1
 40
1
 40
1
 10
78.844291
 20
151.060292
 30
0.0
 10
78.844291
 20
149.999426
 30
0.0
 10
78.422862
 20
148.982011
 30
0.0
 10
77.672716
 20
148.231867
 30
0.0
  0
SPLINE
  5
135
100
AcDbEntity
  8
Layer_1
 62
1
100
AcDbSpline
 70
8
 71
3
 72
8
 73
4
 74
0
 40
0
 40
0
 40
0
 40
0
 40
1
 40
1
 40
1
 40
1
 10
77.672716
 20
148.231867
 30
0.0
 10
76.922572
 20
147.481720
 30
0.0
 10
75.905156
 20
147.060292
 30
0.0
 10
74.844291
 20
147.060292
 30
0.0
  0
SPLINE
  5
136
100
AcDbEntity
  8
Layer_1
 62
1
100
AcDbSpline
 70
8
 71
3
 72
8
 73
4
 74
0
 40
0
 40
0
 40
0
 40
0
 40
1
 40
1
 40
1
 40
1
 10
74.844291
 20
147.060292
 30
0.0
 10
73.783423
 20
147.060292
 30
0.0
 10
72.766007
 20
147.481720
 30
0.0
 10
72.015863
 20
148.231867
 30
0.0
  0
SPLINE
  5
137
100
AcDbEntity
  8
Layer_1
 62
1
100
AcDbSpline
 70
8
 71
3
 72
8
 73
4
 74
0
 40
0
 40
0
 40
0
 40
0
 40
1
 40
1
 40
1
 40
1
 10
72.015863
 20
148.231867
 30
0.0
 10
71.265717
 20
148.982011
 30
0.0
 10
70.844291
 20
149.999426
 30
0.0
 10
70.844291
 20
151.060292
 30
0.0
  0
SPLINE
  5
138
100
AcDbEntity
  8
Layer_1
 62
1
100
AcDbSpline
 70
8
 71
3
 72
8
 73
4
 74
0
 40
0
 40
0
 40
0
 40
0
 40
1
 40
1
 40
1
 40
1
 10
70.844291
 20
151.060292
 30
0.0
 10
70.844291
 20
152.121160
 30
0.0
 10
71.265717
 20
153.138575
 30
0.0
 10
72.015863
 20
153.888719
 30
0.0
  0
SPLINE
  5
139
100
AcDbEntity
  8
Layer_1
 62
1
100
AcDbSpline
 70
8
 71
3
 72
8
 73
4
 74
0
 40
0
 40
0
 40
0
 40
0
 40
1
 40
1
 40
1
 40
1
 10
72.015863
 20
153.888719
 30
0.0
 10
72.766007
 20
154.638866
 30
0.0
 10
73.783423
 20
155.060292
 30
0.0
 10
74.844291
 20
155.060292
 30
0.0
  0
SPLINE
  5
13a
100
AcDbEntity
  8
Layer_1
 62
1
100
AcDbSpline
 70
8
 71
3
 72
8
 73
4
 74
0
 40
0
 40
0
 40
0
 40
0
 40
1
 40
1
 40
1
 40
1
 10
74.844291
 20
155.060292
 30
0.0
 10
75.905156
 20
155.060292
 30
0.0
 10
76.922572
 20
154.638866
 30
0.0
 10
77.672716
 20
153.888719
 30
0.0
  0
SPLINE
  5
13b
100
AcDbEntity
  8
Layer_1
 62
1
100
AcDbSpline
 70
8
 71
3
 72
8
 73
4
 74
0
 40
0
 40
0
 40
0
 40
0
 40
1
 40
1
 40
1
 40
1
 10
77.672716
 20
153.888719
 30
0.0
 10
78.422862
 20
153.138575
 30
0.0
 10
78.844291
 20
152.121160
 30
0.0
 10
78.844291
 20
151.060292
 30
0.0
  0
SPLINE
  5
13c
100
AcDbEntity
  8
Layer_1
 62
7
100
AcDbSpline
 70
8
 71
3
 72
8
 73
4
 74
0
 40
0
 40
0
 40
0
 40
0
 40
1
 40
1
 40
1
 40
1
 10
245.190992
 20
164.252373
 30
0.0
 10
247.961020
 20
164.252373
 30
0.0
 10
250.191114
 20
162.022142
 30
0.0
 10
250.191114
 20
159.252132
 30
0.0
  0
SPLINE
  5
13d
100
AcDbEntity
  8
Layer_1
 62
7
100
AcDbSpline
 70
8
 71
3
 72
8
 73
4
 74
0
 40
0
 40
0
 40
0
 40
0
 40
1
 40
1
 40
1
 40
1
 10
250.191114
 20
144.251932
 30
0.0
 10
250.191114
 20
141.975412
 30
0.0
 10
248.683730
 20
140.066813
 30
0.0
 10
246.609423
 20
139.457883
 30
0.0
  0
LWPOLYLINE
  5
13e
100
AcDbEntity
  8
Layer_1
 62
7
100
AcDbPolyline
 90
4
 70
0
 10
-184.780079
 20
110.176499
 30
0.0
 10
-16.066876
 20
110.176499
 30
0.0
 10
176.449540
 20
110.176499
 30
0.0
 10
245.162999
 20
110.176499
 30
0.0
  0
SPLINE
  5
13f
100
AcDbEntity
  8
Layer_1
 62
7
100
AcDbSpline
 70
8
 71
3
 72
8
 73
4
 74
0
 40
0
 40
0
 40
0
 40
0
 40
1
 40
1
 40
1
 40
1
 10
246.609423
 20
134.906713
 30
0.0
 10
248.669283
 20
134.288853
 30
0.0
 10
250.162698
 20
132.385713
 30
0.0
 10
250.162698
 20
130.119382
 30
0.0
  0
LWPOLYLINE
  5
140
100
AcDbEntity
  8
Layer_1
 62
7
100
AcDbPolyline
 90
2
 70
0
 10
250.191114
 20
159.252132
 30
0.0
 10
250.191114
 20
144.251932
 30
0.0
  0
SPLINE
  5
141
100
AcDbEntity
  8
Layer_1
 62
7
100
AcDbSpline
 70
8
 71
3
 72
8
 73
4
 74
0
 40
0
 40
0
 40
0
 40
0
 40
1
 40
1
 40
1
 40
1
 10
250.162698
 20
115.176022
 30
0.0
 10
250.162698
 20
112.406002
 30
0.0
 10
247.933027
 20
110.176292
 30
0.0
 10
245.162999
 20
110.176292
 30
0.0
  0
LWPOLYLINE
  5
142
100
AcDbEntity
  8
Layer_1
 62
7
100
AcDbPolyline
 90
2
 70
0
 10
246.609423
 20
139.457883
 30
0.0
 10
246.609423
 20
134.906713
 30
0.0
  0
SPLINE
  5
143
100
AcDbEntity
  8
Layer_1
 62
7
100
AcDbSpline
 70
8
 71
3
 72
8
 73
4
 74
0
 40
0
 40
0
 40
0
 40
0
 40
1
 40
1
 40
1
 40
1
 10
124.354000
 20
164.252374
 30
0.0
 10
121.583971
 20
164.252374
 30
0.0
 10
119.353621
 20
162.022143
 30
0.0
 10
119.353621
 20
159.252133
 30
0.0
  0
SPLINE
  5
144
100
AcDbEntity
  8
Layer_1
 62
7
100
AcDbSpline
 70
8
 71
3
 72
8
 73
4
 74
0
 40
0
 40
0
 40
0
 40
0
 40
1
 40
1
 40
1
 40
1
 10
119.353621
 20
144.251933
 30
0.0
 10
119.353621
 20
141.975413
 30
0.0
 10
120.861005
 20
140.066814
 30
0.0
 10
122.935312
 20
139.457884
 30
0.0
  0
LWPOLYLINE
  5
145
100
AcDbEntity
  8
Layer_1
 62
7
100
AcDbPolyline
 90
2
 70
0
 10
250.162698
 20
130.119382
 30
0.0
 10
250.162698
 20
115.176022
 30
0.0
  0
LWPOLYLINE
  5
146
100
AcDbEntity
  8
Layer_1
 62
7
100
AcDbPolyline
 90
2
 70
0
 10
119.353621
 20
159.252133
 30
0.0
 10
119.353621
 20
144.251933
 30
0.0
  0
SPLINE
  5
147
100
AcDbEntity
  8
Layer_1
 62
1
100
AcDbSpline
 70
8
 71
3
 72
8
 73
4
 74
0
 40
0
 40
0
 40
0
 40
0
 40
1
 40
1
 40
1
 40
1
 10
238.016299
 20
151.059792
 30
0.0
 10
238.016299
 20
149.998926
 30
0.0
 10
237.594870
 20
148.981508
 30
0.0
 10
236.844726
 20
148.231364
 30
0.0
  0
SPLINE
  5
148
100
AcDbEntity
  8
Layer_1
 62
1
100
AcDbSpline
 70
8
 71
3
 72
8
 73
4
 74
0
 40
0
 40
0
 40
0
 40
0
 40
1
 40
1
 40
1
 40
1
 10
236.844726
 20
148.231364
 30
0.0
 10
236.094580
 20
147.481218
 30
0.0
 10
235.077164
 20
147.059792
 30
0.0
 10
234.016299
 20
147.059792
 30
0.0
  0
SPLINE
  5
149
100
AcDbEntity
  8
Layer_1
 62
1
100
AcDbSpline
 70
8
 71
3
 72
8
 73
4
 74
0
 40
0
 40
0
 40
0
 40
0
 40
1
 40
1
 40
1
 40
1
 10
234.016299
 20
147.059792
 30
0.0
 10
232.955433
 20
147.059792
 30
0.0
 10
231.938018
 20
147.481218
 30
0.0
 10
231.187871
 20
148.231364
 30
0.0
  0
SPLINE
  5
14a
100
AcDbEntity
  8
Layer_1
 62
1
100
AcDbSpline
 70
8
 71
3
 72
8
 73
4
 74
0
 40
0
 40
0
 40
0
 40
0
 40
1
 40
1
 40
1
 40
1
 10
231.187871
 20
148.231364
 30
0.0
 10
230.437724
 20
148.981508
 30
0.0
 10
230.016299
 20
149.998926
 30
0.0
 10
230.016299
 20
151.059792
 30
0.0
  0
SPLINE
  5
14b
100
AcDbEntity
  8
Layer_1
 62
1
100
AcDbSpline
 70
8
 71
3
 72
8
 73
4
 74
0
 40
0
 40
0
 40
0
 40
0
 40
1
 40
1
 40
1
 40
1
 10
230.016299
 20
151.059792
 30
0.0
 10
230.016299
 20
152.120657
 30
0.0
 10
230.437724
 20
153.138073
 30
0.0
 10
231.187871
 20
153.888219
 30
0.0
  0
SPLINE
  5
14c
100
AcDbEntity
  8
Layer_1
 62
1
100
AcDbSpline
 70
8
 71
3
 72
8
 73
4
 74
0
 40
0
 40
0
 40
0
 40
0
 40
1
 40
1
 40
1
 40
1
 10
231.187871
 20
153.888219
 30
0.0
 10
231.938018
 20
154.638363
 30
0.0
 10
232.955433
 20
155.059792
 30
0.0
 10
234.016299
 20
155.059792
 30
0.0
  0
SPLINE
  5
14d
100
AcDbEntity
  8
Layer_1
 62
1
100
AcDbSpline
 70
8
 71
3
 72
8
 73
4
 74
0
 40
0
 40
0
 40
0
 40
0
 40
1
 40
1
 40
1
 40
1
 10
234.016299
 20
155.059792
 30
0.0
 10
235.077164
 20
155.059792
 30
0.0
 10
236.094580
 20
154.638363
 30
0.0
 10
236.844726
 20
153.888219
 30
0.0
  0
SPLINE
  5
14e
100
AcDbEntity
  8
Layer_1
 62
1
100
AcDbSpline
 70
8
 71
3
 72
8
 73
4
 74
0
 40
0
 40
0
 40
0
 40
0
 40
1
 40
1
 40
1
 40
1
 10
236.844726
 20
153.888219
 30
0.0
 10
237.594870
 20
153.138073
 30
0.0
 10
238.016299
 20
152.120657
 30
0.0
 10
238.016299
 20
151.059792
 30
0.0
  0
SPLINE
  5
14f
100
AcDbEntity
  8
Layer_1
 62
1
100
AcDbSpline
 70
8
 71
3
 72
8
 73
4
 74
0
 40
0
 40
0
 40
0
 40
0
 40
1
 40
1
 40
1
 40
1
 10
238.016299
 20
123.647292
 30
0.0
 10
238.016299
 20
122.586426
 30
0.0
 10
237.594870
 20
121.569011
 30
0.0
 10
236.844726
 20
120.818864
 30
0.0
  0
SPLINE
  5
150
100
AcDbEntity
  8
Layer_1
 62
1
100
AcDbSpline
 70
8
 71
3
 72
8
 73
4
 74
0
 40
0
 40
0
 40
0
 40
0
 40
1
 40
1
 40
1
 40
1
 10
236.844726
 20
120.818864
 30
0.0
 10
236.094580
 20
120.068717
 30
0.0
 10
235.077164
 20
119.647292
 30
0.0
 10
234.016299
 20
119.647292
 30
0.0
  0
SPLINE
  5
151
100
AcDbEntity
  8
Layer_1
 62
1
100
AcDbSpline
 70
8
 71
3
 72
8
 73
4
 74
0
 40
0
 40
0
 40
0
 40
0
 40
1
 40
1
 40
1
 40
1
 10
234.016299
 20
119.647292
 30
0.0
 10
232.955433
 20
119.647292
 30
0.0
 10
231.938018
 20
120.068717
 30
0.0
 10
231.187871
 20
120.818864
 30
0.0
  0
SPLINE
  5
152
100
AcDbEntity
  8
Layer_1
 62
1
100
AcDbSpline
 70
8
 71
3
 72
8
 73
4
 74
0
 40
0
 40
0
 40
0
 40
0
 40
1
 40
1
 40
1
 40
1
 10
231.187871
 20
120.818864
 30
0.0
 10
230.437724
 20
121.569011
 30
0.0
 10
230.016299
 20
122.586426
 30
0.0
 10
230.016299
 20
123.647292
 30
0.0
  0
SPLINE
  5
153
100
AcDbEntity
  8
Layer_1
 62
1
100
AcDbSpline
 70
8
 71
3
 72
8
 73
4
 74
0
 40
0
 40
0
 40
0
 40
0
 40
1
 40
1
 40
1
 40
1
 10
230.016299
 20
123.647292
 30
0.0
 10
230.016299
 20
124.708157
 30
0.0
 10
230.437724
 20
125.725573
 30
0.0
 10
231.187871
 20
126.475719
 30
0.0
  0
SPLINE
  5
154
100
AcDbEntity
  8
Layer_1
 62
1
100
AcDbSpline
 70
8
 71
3
 72
8
 73
4
 74
0
 40
0
 40
0
 40
0
 40
0
 40
1
 40
1
 40
1
 40
1
 10
231.187871
 20
126.475719
 30
0.0
 10
231.938018
 20
127.225863
 30
0.0
 10
232.955433
 20
127.647292
 30
0.0
 10
234.016299
 20
127.647292
 30
0.0
  0
SPLINE
  5
155
100
AcDbEntity
  8
Layer_1
 62
1
100
AcDbSpline
 70
8
 71
3
 72
8
 73
4
 74
0
 40
0
 40
0
 40
0
 40
0
 40
1
 40
1
 40
1
 40
1
 10
234.016299
 20
127.647292
 30
0.0
 10
235.077164
 20
127.647292
 30
0.0
 10
236.094580
 20
127.225863
 30
0.0
 10
236.844726
 20
126.475719
 30
0.0
  0
SPLINE
  5
156
100
AcDbEntity
  8
Layer_1
 62
1
100
AcDbSpline
 70
8
 71
3
 72
8
 73
4
 74
0
 40
0
 40
0
 40
0
 40
0
 40
1
 40
1
 40
1
 40
1
 10
236.844726
 20
126.475719
 30
0.0
 10
237.594870
 20
125.725573
 30
0.0
 10
238.016299
 20
124.708157
 30
0.0
 10
238.016299
 20
123.647292
 30
0.0
  0
SPLINE
  5
157
100
AcDbEntity
  8
Layer_1
 62
1
100
AcDbSpline
 70
8
 71
3
 72
8
 73
4
 74
0
 40
0
 40
0
 40
0
 40
0
 40
1
 40
1
 40
1
 40
1
 10
218.016286
 20
151.059792
 30
0.0
 10
218.016286
 20
149.998926
 30
0.0
 10
217.594857
 20
148.981508
 30
0.0
 10
216.844713
 20
148.231364
 30
0.0
  0
SPLINE
  5
158
100
AcDbEntity
  8
Layer_1
 62
1
100
AcDbSpline
 70
8
 71
3
 72
8
 73
4
 74
0
 40
0
 40
0
 40
0
 40
0
 40
1
 40
1
 40
1
 40
1
 10
216.844713
 20
148.231364
 30
0.0
 10
216.094567
 20
147.481218
 30
0.0
 10
215.077151
 20
147.059792
 30
0.0
 10
214.016286
 20
147.059792
 30
0.0
  0
SPLINE
  5
159
100
AcDbEntity
  8
Layer_1
 62
1
100
AcDbSpline
 70
8
 71
3
 72
8
 73
4
 74
0
 40
0
 40
0
 40
0
 40
0
 40
1
 40
1
 40
1
 40
1
 10
214.016286
 20
147.059792
 30
0.0
 10
212.955420
 20
147.059792
 30
0.0
 10
211.938005
 20
147.481218
 30
0.0
 10
211.187858
 20
148.231364
 30
0.0
  0
SPLINE
  5
15a
100
AcDbEntity
  8
Layer_1
 62
1
100
AcDbSpline
 70
8
 71
3
 72
8
 73
4
 74
0
 40
0
 40
0
 40
0
 40
0
 40
1
 40
1
 40
1
 40
1
 10
211.187858
 20
148.231364
 30
0.0
 10
210.437711
 20
148.981508
 30
0.0
 10
210.016286
 20
149.998926
 30
0.0
 10
210.016286
 20
151.059792
 30
0.0
  0
SPLINE
  5
15b
100
AcDbEntity
  8
Layer_1
 62
1
100
AcDbSpline
 70
8
 71
3
 72
8
 73
4
 74
0
 40
0
 40
0
 40
0
 40
0
 40
1
 40
1
 40
1
 40
1
 10
210.016286
 20
151.059792
 30
0.0
 10
210.016286
 20
152.120657
 30
0.0
 10
210.437711
 20
153.138073
 30
0.0
 10
211.187858
 20
153.888219
 30
0.0
  0
SPLINE
  5
15c
100
AcDbEntity
  8
Layer_1
 62
1
100
AcDbSpline
 70
8
 71
3
 72
8
 73
4
 74
0
 40
0
 40
0
 40
0
 40
0
 40
1
 40
1
 40
1
 40
1
 10
211.187858
 20
153.888219
 30
0.0
 10
211.938005
 20
154.638363
 30
0.0
 10
212.955420
 20
155.059792
 30
0.0
 10
214.016286
 20
155.059792
 30
0.0
  0
SPLINE
  5
15d
100
AcDbEntity
  8
Layer_1
 62
1
100
AcDbSpline
 70
8
 71
3
 72
8
 73
4
 74
0
 40
0
 40
0
 40
0
 40
0
 40
1
 40
1
 40
1
 40
1
 10
214.016286
 20
155.059792
 30
0.0
 10
215.077151
 20
155.059792
 30
0.0
 10
216.094567
 20
154.638363
 30
0.0
 10
216.844713
 20
153.888219
 30
0.0
  0
SPLINE
  5
15e
100
AcDbEntity
  8
Layer_1
 62
1
100
AcDbSpline
 70
8
 71
3
 72
8
 73
4
 74
0
 40
0
 40
0
 40
0
 40
0
 40
1
 40
1
 40
1
 40
1
 10
216.844713
 20
153.888219
 30
0.0
 10
217.594857
 20
153.138073
 30
0.0
 10
218.016286
 20
152.120657
 30
0.0
 10
218.016286
 20
151.059792
 30
0.0
  0
SPLINE
  5
15f
100
AcDbEntity
  8
Layer_1
 62
1
100
AcDbSpline
 70
8
 71
3
 72
8
 73
4
 74
0
 40
0
 40
0
 40
0
 40
0
 40
1
 40
1
 40
1
 40
1
 10
218.016286
 20
123.647292
 30
0.0
 10
218.016286
 20
122.586426
 30
0.0
 10
217.594857
 20
121.569011
 30
0.0
 10
216.844713
 20
120.818864
 30
0.0
  0
SPLINE
  5
160
100
AcDbEntity
  8
Layer_1
 62
1
100
AcDbSpline
 70
8
 71
3
 72
8
 73
4
 74
0
 40
0
 40
0
 40
0
 40
0
 40
1
 40
1
 40
1
 40
1
 10
216.844713
 20
120.818864
 30
0.0
 10
216.094567
 20
120.068717
 30
0.0
 10
215.077151
 20
119.647292
 30
0.0
 10
214.016286
 20
119.647292
 30
0.0
  0
SPLINE
  5
161
100
AcDbEntity
  8
Layer_1
 62
1
100
AcDbSpline
 70
8
 71
3
 72
8
 73
4
 74
0
 40
0
 40
0
 40
0
 40
0
 40
1
 40
1
 40
1
 40
1
 10
214.016286
 20
119.647292
 30
0.0
 10
212.955420
 20
119.647292
 30
0.0
 10
211.938005
 20
120.068717
 30
0.0
 10
211.187858
 20
120.818864
 30
0.0
  0
SPLINE
  5
162
100
AcDbEntity
  8
Layer_1
 62
1
100
AcDbSpline
 70
8
 71
3
 72
8
 73
4
 74
0
 40
0
 40
0
 40
0
 40
0
 40
1
 40
1
 40
1
 40
1
 10
211.187858
 20
120.818864
 30
0.0
 10
210.437711
 20
121.569011
 30
0.0
 10
210.016286
 20
122.586426
 30
0.0
 10
210.016286
 20
123.647292
 30
0.0
  0
SPLINE
  5
163
100
AcDbEntity
  8
Layer_1
 62
1
100
AcDbSpline
 70
8
 71
3
 72
8
 73
4
 74
0
 40
0
 40
0
 40
0
 40
0
 40
1
 40
1
 40
1
 40
1
 10
210.016286
 20
123.647292
 30
0.0
 10
210.016286
 20
124.708157
 30
0.0
 10
210.437711
 20
125.725573
 30
0.0
 10
211.187858
 20
126.475719
 30
0.0
  0
SPLINE
  5
164
100
AcDbEntity
  8
Layer_1
 62
1
100
AcDbSpline
 70
8
 71
3
 72
8
 73
4
 74
0
 40
0
 40
0
 40
0
 40
0
 40
1
 40
1
 40
1
 40
1
 10
211.187858
 20
126.475719
 30
0.0
 10
211.938005
 20
127.225863
 30
0.0
 10
212.955420
 20
127.647292
 30
0.0
 10
214.016286
 20
127.647292
 30
0.0
  0
SPLINE
  5
165
100
AcDbEntity
  8
Layer_1
 62
1
100
AcDbSpline
 70
8
 71
3
 72
8
 73
4
 74
0
 40
0
 40
0
 40
0
 40
0
 40
1
 40
1
 40
1
 40
1
 10
214.016286
 20
127.647292
 30
0.0
 10
215.077151
 20
127.647292
 30
0.0
 10
216.094567
 20
127.225863
 30
0.0
 10
216.844713
 20
126.475719
 30
0.0
  0
SPLINE
  5
166
100
AcDbEntity
  8
Layer_1
 62
1
100
AcDbSpline
 70
8
 71
3
 72
8
 73
4
 74
0
 40
0
 40
0
 40
0
 40
0
 40
1
 40
1
 40
1
 40
1
 10
216.844713
 20
126.475719
 30
0.0
 10
217.594857
 20
125.725573
 30
0.0
 10
218.016286
 20
124.708157
 30
0.0
 10
218.016286
 20
123.647292
 30
0.0
  0
SPLINE
  5
167
100
AcDbEntity
  8
Layer_1
 62
1
100
AcDbSpline
 70
8
 71
3
 72
8
 73
4
 74
0
 40
0
 40
0
 40
0
 40
0
 40
1
 40
1
 40
1
 40
1
 10
198.016299
 20
151.059792
 30
0.0
 10
198.016299
 20
149.998926
 30
0.0
 10
197.594871
 20
148.981508
 30
0.0
 10
196.844727
 20
148.231364
 30
0.0
  0
SPLINE
  5
168
100
AcDbEntity
  8
Layer_1
 62
1
100
AcDbSpline
 70
8
 71
3
 72
8
 73
4
 74
0
 40
0
 40
0
 40
0
 40
0
 40
1
 40
1
 40
1
 40
1
 10
196.844727
 20
148.231364
 30
0.0
 10
196.094580
 20
147.481218
 30
0.0
 10
195.077165
 20
147.059792
 30
0.0
 10
194.016299
 20
147.059792
 30
0.0
  0
SPLINE
  5
169
100
AcDbEntity
  8
Layer_1
 62
1
100
AcDbSpline
 70
8
 71
3
 72
8
 73
4
 74
0
 40
0
 40
0
 40
0
 40
0
 40
1
 40
1
 40
1
 40
1
 10
194.016299
 20
147.059792
 30
0.0
 10
192.955434
 20
147.059792
 30
0.0
 10
191.938018
 20
147.481218
 30
0.0
 10
191.187872
 20
148.231364
 30
0.0
  0
SPLINE
  5
16a
100
AcDbEntity
  8
Layer_1
 62
1
100
AcDbSpline
 70
8
 71
3
 72
8
 73
4
 74
0
 40
0
 40
0
 40
0
 40
0
 40
1
 40
1
 40
1
 40
1
 10
191.187872
 20
148.231364
 30
0.0
 10
190.437725
 20
148.981508
 30
0.0
 10
190.016299
 20
149.998926
 30
0.0
 10
190.016299
 20
151.059792
 30
0.0
  0
SPLINE
  5
16b
100
AcDbEntity
  8
Layer_1
 62
1
100
AcDbSpline
 70
8
 71
3
 72
8
 73
4
 74
0
 40
0
 40
0
 40
0
 40
0
 40
1
 40
1
 40
1
 40
1
 10
190.016299
 20
151.059792
 30
0.0
 10
190.016299
 20
152.120657
 30
0.0
 10
190.437725
 20
153.138073
 30
0.0
 10
191.187872
 20
153.888219
 30
0.0
  0
SPLINE
  5
16c
100
AcDbEntity
  8
Layer_1
 62
1
100
AcDbSpline
 70
8
 71
3
 72
8
 73
4
 74
0
 40
0
 40
0
 40
0
 40
0
 40
1
 40
1
 40
1
 40
1
 10
191.187872
 20
153.888219
 30
0.0
 10
191.938018
 20
154.638363
 30
0.0
 10
192.955434
 20
155.059792
 30
0.0
 10
194.016299
 20
155.059792
 30
0.0
  0
SPLINE
  5
16d
100
AcDbEntity
  8
Layer_1
 62
1
100
AcDbSpline
 70
8
 71
3
 72
8
 73
4
 74
0
 40
0
 40
0
 40
0
 40
0
 40
1
 40
1
 40
1
 40
1
 10
194.016299
 20
155.059792
 30
0.0
 10
195.077165
 20
155.059792
 30
0.0
 10
196.094580
 20
154.638363
 30
0.0
 10
196.844727
 20
153.888219
 30
0.0
  0
SPLINE
  5
16e
100
AcDbEntity
  8
Layer_1
 62
1
100
AcDbSpline
 70
8
 71
3
 72
8
 73
4
 74
0
 40
0
 40
0
 40
0
 40
0
 40
1
 40
1
 40
1
 40
1
 10
196.844727
 20
153.888219
 30
0.0
 10
197.594871
 20
153.138073
 30
0.0
 10
198.016299
 20
152.120657
 30
0.0
 10
198.016299
 20
151.059792
 30
0.0
  0
SPLINE
  5
16f
100
AcDbEntity
  8
Layer_1
 62
1
100
AcDbSpline
 70
8
 71
3
 72
8
 73
4
 74
0
 40
0
 40
0
 40
0
 40
0
 40
1
 40
1
 40
1
 40
1
 10
198.016299
 20
123.647292
 30
0.0
 10
198.016299
 20
122.586426
 30
0.0
 10
197.594871
 20
121.569011
 30
0.0
 10
196.844727
 20
120.818864
 30
0.0
  0
SPLINE
  5
170
100
AcDbEntity
  8
Layer_1
 62
1
100
AcDbSpline
 70
8
 71
3
 72
8
 73
4
 74
0
 40
0
 40
0
 40
0
 40
0
 40
1
 40
1
 40
1
 40
1
 10
196.844727
 20
120.818864
 30
0.0
 10
196.094580
 20
120.068717
 30
0.0
 10
195.077165
 20
119.647292
 30
0.0
 10
194.016299
 20
119.647292
 30
0.0
  0
SPLINE
  5
171
100
AcDbEntity
  8
Layer_1
 62
1
100
AcDbSpline
 70
8
 71
3
 72
8
 73
4
 74
0
 40
0
 40
0
 40
0
 40
0
 40
1
 40
1
 40
1
 40
1
 10
194.016299
 20
119.647292
 30
0.0
 10
192.955434
 20
119.647292
 30
0.0
 10
191.938018
 20
120.068717
 30
0.0
 10
191.187872
 20
120.818864
 30
0.0
  0
SPLINE
  5
172
100
AcDbEntity
  8
Layer_1
 62
1
100
AcDbSpline
 70
8
 71
3
 72
8
 73
4
 74
0
 40
0
 40
0
 40
0
 40
0
 40
1
 40
1
 40
1
 40
1
 10
191.187872
 20
120.818864
 30
0.0
 10
190.437725
 20
121.569011
 30
0.0
 10
190.016299
 20
122.586426
 30
0.0
 10
190.016299
 20
123.647292
 30
0.0
  0
SPLINE
  5
173
100
AcDbEntity
  8
Layer_1
 62
1
100
AcDbSpline
 70
8
 71
3
 72
8
 73
4
 74
0
 40
0
 40
0
 40
0
 40
0
 40
1
 40
1
 40
1
 40
1
 10
190.016299
 20
123.647292
 30
0.0
 10
190.016299
 20
124.708157
 30
0.0
 10
190.437725
 20
125.725573
 30
0.0
 10
191.187872
 20
126.475719
 30
0.0
  0
SPLINE
  5
174
100
AcDbEntity
  8
Layer_1
 62
1
100
AcDbSpline
 70
8
 71
3
 72
8
 73
4
 74
0
 40
0
 40
0
 40
0
 40
0
 40
1
 40
1
 40
1
 40
1
 10
191.187872
 20
126.475719
 30
0.0
 10
191.938018
 20
127.225863
 30
0.0
 10
192.955434
 20
127.647292
 30
0.0
 10
194.016299
 20
127.647292
 30
0.0
  0
SPLINE
  5
175
100
AcDbEntity
  8
Layer_1
 62
1
100
AcDbSpline
 70
8
 71
3
 72
8
 73
4
 74
0
 40
0
 40
0
 40
0
 40
0
 40
1
 40
1
 40
1
 40
1
 10
194.016299
 20
127.647292
 30
0.0
 10
195.077165
 20
127.647292
 30
0.0
 10
196.094580
 20
127.225863
 30
0.0
 10
196.844727
 20
126.475719
 30
0.0
  0
SPLINE
  5
176
100
AcDbEntity
  8
Layer_1
 62
1
100
AcDbSpline
 70
8
 71
3
 72
8
 73
4
 74
0
 40
0
 40
0
 40
0
 40
0
 40
1
 40
1
 40
1
 40
1
 10
196.844727
 20
126.475719
 30
0.0
 10
197.594871
 20
125.725573
 30
0.0
 10
198.016299
 20
124.708157
 30
0.0
 10
198.016299
 20
123.647292
 30
0.0
  0
SPLINE
  5
177
100
AcDbEntity
  8
Layer_1
 62
1
100
AcDbSpline
 70
8
 71
3
 72
8
 73
4
 74
0
 40
0
 40
0
 40
0
 40
0
 40
1
 40
1
 40
1
 40
1
 10
178.016286
 20
151.059792
 30
0.0
 10
178.016286
 20
149.998926
 30
0.0
 10
177.594858
 20
148.981508
 30
0.0
 10
176.844714
 20
148.231364
 30
0.0
  0
SPLINE
  5
178
100
AcDbEntity
  8
Layer_1
 62
1
100
AcDbSpline
 70
8
 71
3
 72
8
 73
4
 74
0
 40
0
 40
0
 40
0
 40
0
 40
1
 40
1
 40
1
 40
1
 10
176.844714
 20
148.231364
 30
0.0
 10
176.094567
 20
147.481218
 30
0.0
 10
175.077152
 20
147.059792
 30
0.0
 10
174.016286
 20
147.059792
 30
0.0
  0
SPLINE
  5
179
100
AcDbEntity
  8
Layer_1
 62
1
100
AcDbSpline
 70
8
 71
3
 72
8
 73
4
 74
0
 40
0
 40
0
 40
0
 40
0
 40
1
 40
1
 40
1
 40
1
 10
174.016286
 20
147.059792
 30
0.0
 10
172.955421
 20
147.059792
 30
0.0
 10
171.938005
 20
147.481218
 30
0.0
 10
171.187859
 20
148.231364
 30
0.0
  0
SPLINE
  5
17a
100
AcDbEntity
  8
Layer_1
 62
1
100
AcDbSpline
 70
8
 71
3
 72
8
 73
4
 74
0
 40
0
 40
0
 40
0
 40
0
 40
1
 40
1
 40
1
 40
1
 10
171.187859
 20
148.231364
 30
0.0
 10
170.437712
 20
148.981508
 30
0.0
 10
170.016286
 20
149.998926
 30
0.0
 10
170.016286
 20
151.059792
 30
0.0
  0
SPLINE
  5
17b
100
AcDbEntity
  8
Layer_1
 62
1
100
AcDbSpline
 70
8
 71
3
 72
8
 73
4
 74
0
 40
0
 40
0
 40
0
 40
0
 40
1
 40
1
 40
1
 40
1
 10
170.016286
 20
151.059792
 30
0.0
 10
170.016286
 20
152.120657
 30
0.0
 10
170.437712
 20
153.138073
 30
0.0
 10
171.187859
 20
153.888219
 30
0.0
  0
SPLINE
  5
17c
100
AcDbEntity
  8
Layer_1
 62
1
100
AcDbSpline
 70
8
 71
3
 72
8
 73
4
 74
0
 40
0
 40
0
 40
0
 40
0
 40
1
 40
1
 40
1
 40
1
 10
171.187859
 20
153.888219
 30
0.0
 10
171.938005
 20
154.638363
 30
0.0
 10
172.955421
 20
155.059792
 30
0.0
 10
174.016286
 20
155.059792
 30
0.0
  0
SPLINE
  5
17d
100
AcDbEntity
  8
Layer_1
 62
1
100
AcDbSpline
 70
8
 71
3
 72
8
 73
4
 74
0
 40
0
 40
0
 40
0
 40
0
 40
1
 40
1
 40
1
 40
1
 10
174.016286
 20
155.059792
 30
0.0
 10
175.077152
 20
155.059792
 30
0.0
 10
176.094567
 20
154.638363
 30
0.0
 10
176.844714
 20
153.888219
 30
0.0
  0
SPLINE
  5
17e
100
AcDbEntity
  8
Layer_1
 62
1
100
AcDbSpline
 70
8
 71
3
 72
8
 73
4
 74
0
 40
0
 40
0
 40
0
 40
0
 40
1
 40
1
 40
1
 40
1
 10
176.844714
 20
153.888219
 30
0.0
 10
177.594858
 20
153.138073
 30
0.0
 10
178.016286
 20
152.120657
 30
0.0
 10
178.016286
 20
151.059792
 30
0.0
  0
SPLINE
  5
17f
100
AcDbEntity
  8
Layer_1
 62
1
100
AcDbSpline
 70
8
 71
3
 72
8
 73
4
 74
0
 40
0
 40
0
 40
0
 40
0
 40
1
 40
1
 40
1
 40
1
 10
178.016286
 20
123.647292
 30
0.0
 10
178.016286
 20
122.586426
 30
0.0
 10
177.594858
 20
121.569011
 30
0.0
 10
176.844714
 20
120.818864
 30
0.0
  0
SPLINE
  5
180
100
AcDbEntity
  8
Layer_1
 62
1
100
AcDbSpline
 70
8
 71
3
 72
8
 73
4
 74
0
 40
0
 40
0
 40
0
 40
0
 40
1
 40
1
 40
1
 40
1
 10
176.844714
 20
120.818864
 30
0.0
 10
176.094567
 20
120.068717
 30
0.0
 10
175.077152
 20
119.647292
 30
0.0
 10
174.016286
 20
119.647292
 30
0.0
  0
SPLINE
  5
181
100
AcDbEntity
  8
Layer_1
 62
1
100
AcDbSpline
 70
8
 71
3
 72
8
 73
4
 74
0
 40
0
 40
0
 40
0
 40
0
 40
1
 40
1
 40
1
 40
1
 10
174.016286
 20
119.647292
 30
0.0
 10
172.955421
 20
119.647292
 30
0.0
 10
171.938005
 20
120.068717
 30
0.0
 10
171.187859
 20
120.818864
 30
0.0
  0
SPLINE
  5
182
100
AcDbEntity
  8
Layer_1
 62
1
100
AcDbSpline
 70
8
 71
3
 72
8
 73
4
 74
0
 40
0
 40
0
 40
0
 40
0
 40
1
 40
1
 40
1
 40
1
 10
171.187859
 20
120.818864
 30
0.0
 10
170.437712
 20
121.569011
 30
0.0
 10
170.016286
 20
122.586426
 30
0.0
 10
170.016286
 20
123.647292
 30
0.0
  0
SPLINE
  5
183
100
AcDbEntity
  8
Layer_1
 62
1
100
AcDbSpline
 70
8
 71
3
 72
8
 73
4
 74
0
 40
0
 40
0
 40
0
 40
0
 40
1
 40
1
 40
1
 40
1
 10
170.016286
 20
123.647292
 30
0.0
 10
170.016286
 20
124.708157
 30
0.0
 10
170.437712
 20
125.725573
 30
0.0
 10
171.187859
 20
126.475719
 30
0.0
  0
SPLINE
  5
184
100
AcDbEntity
  8
Layer_1
 62
1
100
AcDbSpline
 70
8
 71
3
 72
8
 73
4
 74
0
 40
0
 40
0
 40
0
 40
0
 40
1
 40
1
 40
1
 40
1
 10
171.187859
 20
126.475719
 30
0.0
 10
171.938005
 20
127.225863
 30
0.0
 10
172.955421
 20
127.647292
 30
0.0
 10
174.016286
 20
127.647292
 30
0.0
  0
SPLINE
  5
185
100
AcDbEntity
  8
Layer_1
 62
1
100
AcDbSpline
 70
8
 71
3
 72
8
 73
4
 74
0
 40
0
 40
0
 40
0
 40
0
 40
1
 40
1
 40
1
 40
1
 10
174.016286
 20
127.647292
 30
0.0
 10
175.077152
 20
127.647292
 30
0.0
 10
176.094567
 20
127.225863
 30
0.0
 10
176.844714
 20
126.475719
 30
0.0
  0
SPLINE
  5
186
100
AcDbEntity
  8
Layer_1
 62
1
100
AcDbSpline
 70
8
 71
3
 72
8
 73
4
 74
0
 40
0
 40
0
 40
0
 40
0
 40
1
 40
1
 40
1
 40
1
 10
176.844714
 20
126.475719
 30
0.0
 10
177.594858
 20
125.725573
 30
0.0
 10
178.016286
 20
124.708157
 30
0.0
 10
178.016286
 20
123.647292
 30
0.0
  0
SPLINE
  5
187
100
AcDbEntity
  8
Layer_1
 62
1
100
AcDbSpline
 70
8
 71
3
 72
8
 73
4
 74
0
 40
0
 40
0
 40
0
 40
0
 40
1
 40
1
 40
1
 40
1
 10
158.016300
 20
151.059792
 30
0.0
 10
158.016300
 20
149.998926
 30
0.0
 10
157.594872
 20
148.981508
 30
0.0
 10
156.844727
 20
148.231364
 30
0.0
  0
SPLINE
  5
188
100
AcDbEntity
  8
Layer_1
 62
1
100
AcDbSpline
 70
8
 71
3
 72
8
 73
4
 74
0
 40
0
 40
0
 40
0
 40
0
 40
1
 40
1
 40
1
 40
1
 10
156.844727
 20
148.231364
 30
0.0
 10
156.094581
 20
147.481218
 30
0.0
 10
155.077165
 20
147.059792
 30
0.0
 10
154.016300
 20
147.059792
 30
0.0
  0
SPLINE
  5
189
100
AcDbEntity
  8
Layer_1
 62
1
100
AcDbSpline
 70
8
 71
3
 72
8
 73
4
 74
0
 40
0
 40
0
 40
0
 40
0
 40
1
 40
1
 40
1
 40
1
 10
154.016300
 20
147.059792
 30
0.0
 10
152.955435
 20
147.059792
 30
0.0
 10
151.938019
 20
147.481218
 30
0.0
 10
151.187872
 20
148.231364
 30
0.0
  0
SPLINE
  5
18a
100
AcDbEntity
  8
Layer_1
 62
1
100
AcDbSpline
 70
8
 71
3
 72
8
 73
4
 74
0
 40
0
 40
0
 40
0
 40
0
 40
1
 40
1
 40
1
 40
1
 10
151.187872
 20
148.231364
 30
0.0
 10
150.437726
 20
148.981508
 30
0.0
 10
150.016300
 20
149.998926
 30
0.0
 10
150.016300
 20
151.059792
 30
0.0
  0
SPLINE
  5
18b
100
AcDbEntity
  8
Layer_1
 62
1
100
AcDbSpline
 70
8
 71
3
 72
8
 73
4
 74
0
 40
0
 40
0
 40
0
 40
0
 40
1
 40
1
 40
1
 40
1
 10
150.016300
 20
151.059792
 30
0.0
 10
150.016300
 20
152.120657
 30
0.0
 10
150.437726
 20
153.138073
 30
0.0
 10
151.187872
 20
153.888219
 30
0.0
  0
SPLINE
  5
18c
100
AcDbEntity
  8
Layer_1
 62
1
100
AcDbSpline
 70
8
 71
3
 72
8
 73
4
 74
0
 40
0
 40
0
 40
0
 40
0
 40
1
 40
1
 40
1
 40
1
 10
151.187872
 20
153.888219
 30
0.0
 10
151.938019
 20
154.638363
 30
0.0
 10
152.955435
 20
155.059792
 30
0.0
 10
154.016300
 20
155.059792
 30
0.0
  0
SPLINE
  5
18d
100
AcDbEntity
  8
Layer_1
 62
1
100
AcDbSpline
 70
8
 71
3
 72
8
 73
4
 74
0
 40
0
 40
0
 40
0
 40
0
 40
1
 40
1
 40
1
 40
1
 10
154.016300
 20
155.059792
 30
0.0
 10
155.077165
 20
155.059792
 30
0.0
 10
156.094581
 20
154.638363
 30
0.0
 10
156.844727
 20
153.888219
 30
0.0
  0
SPLINE
  5
18e
100
AcDbEntity
  8
Layer_1
 62
1
100
AcDbSpline
 70
8
 71
3
 72
8
 73
4
 74
0
 40
0
 40
0
 40
0
 40
0
 40
1
 40
1
 40
1
 40
1
 10
156.844727
 20
153.888219
 30
0.0
 10
157.594872
 20
153.138073
 30
0.0
 10
158.016300
 20
152.120657
 30
0.0
 10
158.016300
 20
151.059792
 30
0.0
  0
SPLINE
  5
18f
100
AcDbEntity
  8
Layer_1
 62
1
100
AcDbSpline
 70
8
 71
3
 72
8
 73
4
 74
0
 40
0
 40
0
 40
0
 40
0
 40
1
 40
1
 40
1
 40
1
 10
158.016300
 20
123.647292
 30
0.0
 10
158.016300
 20
122.586426
 30
0.0
 10
157.594872
 20
121.569011
 30
0.0
 10
156.844727
 20
120.818864
 30
0.0
  0
SPLINE
  5
190
100
AcDbEntity
  8
Layer_1
 62
1
100
AcDbSpline
 70
8
 71
3
 72
8
 73
4
 74
0
 40
0
 40
0
 40
0
 40
0
 40
1
 40
1
 40
1
 40
1
 10
156.844727
 20
120.818864
 30
0.0
 10
156.094581
 20
120.068717
 30
0.0
 10
155.077165
 20
119.647292
 30
0.0
 10
154.016300
 20
119.647292
 30
0.0
  0
SPLINE
  5
191
100
AcDbEntity
  8
Layer_1
 62
1
100
AcDbSpline
 70
8
 71
3
 72
8
 73
4
 74
0
 40
0
 40
0
 40
0
 40
0
 40
1
 40
1
 40
1
 40
1
 10
154.016300
 20
119.647292
 30
0.0
 10
152.955435
 20
119.647292
 30
0.0
 10
151.938019
 20
120.068717
 30
0.0
 10
151.187872
 20
120.818864
 30
0.0
  0
SPLINE
  5
192
100
AcDbEntity
  8
Layer_1
 62
1
100
AcDbSpline
 70
8
 71
3
 72
8
 73
4
 74
0
 40
0
 40
0
 40
0
 40
0
 40
1
 40
1
 40
1
 40
1
 10
151.187872
 20
120.818864
 30
0.0
 10
150.437726
 20
121.569011
 30
0.0
 10
150.016300
 20
122.586426
 30
0.0
 10
150.016300
 20
123.647292
 30
0.0
  0
SPLINE
  5
193
100
AcDbEntity
  8
Layer_1
 62
1
100
AcDbSpline
 70
8
 71
3
 72
8
 73
4
 74
0
 40
0
 40
0
 40
0
 40
0
 40
1
 40
1
 40
1
 40
1
 10
150.016300
 20
123.647292
 30
0.0
 10
150.016300
 20
124.708157
 30
0.0
 10
150.437726
 20
125.725573
 30
0.0
 10
151.187872
 20
126.475719
 30
0.0
  0
SPLINE
  5
194
100
AcDbEntity
  8
Layer_1
 62
1
100
AcDbSpline
 70
8
 71
3
 72
8
 73
4
 74
0
 40
0
 40
0
 40
0
 40
0
 40
1
 40
1
 40
1
 40
1
 10
151.187872
 20
126.475719
 30
0.0
 10
151.938019
 20
127.225863
 30
0.0
 10
152.955435
 20
127.647292
 30
0.0
 10
154.016300
 20
127.647292
 30
0.0
  0
SPLINE
  5
195
100
AcDbEntity
  8
Layer_1
 62
1
100
AcDbSpline
 70
8
 71
3
 72
8
 73
4
 74
0
 40
0
 40
0
 40
0
 40
0
 40
1
 40
1
 40
1
 40
1
 10
154.016300
 20
127.647292
 30
0.0
 10
155.077165
 20
127.647292
 30
0.0
 10
156.094581
 20
127.225863
 30
0.0
 10
156.844727
 20
126.475719
 30
0.0
  0
SPLINE
  5
196
100
AcDbEntity
  8
Layer_1
 62
1
100
AcDbSpline
 70
8
 71
3
 72
8
 73
4
 74
0
 40
0
 40
0
 40
0
 40
0
 40
1
 40
1
 40
1
 40
1
 10
156.844727
 20
126.475719
 30
0.0
 10
157.594872
 20
125.725573
 30
0.0
 10
158.016300
 20
124.708157
 30
0.0
 10
158.016300
 20
123.647292
 30
0.0
  0
SPLINE
  5
197
100
AcDbEntity
  8
Layer_1
 62
1
100
AcDbSpline
 70
8
 71
3
 72
8
 73
4
 74
0
 40
0
 40
0
 40
0
 40
0
 40
1
 40
1
 40
1
 40
1
 10
138.016287
 20
151.059792
 30
0.0
 10
138.016287
 20
149.998926
 30
0.0
 10
137.594859
 20
148.981508
 30
0.0
 10
136.844715
 20
148.231364
 30
0.0
  0
SPLINE
  5
198
100
AcDbEntity
  8
Layer_1
 62
1
100
AcDbSpline
 70
8
 71
3
 72
8
 73
4
 74
0
 40
0
 40
0
 40
0
 40
0
 40
1
 40
1
 40
1
 40
1
 10
136.844715
 20
148.231364
 30
0.0
 10
136.094568
 20
147.481218
 30
0.0
 10
135.077152
 20
147.059792
 30
0.0
 10
134.016287
 20
147.059792
 30
0.0
  0
SPLINE
  5
199
100
AcDbEntity
  8
Layer_1
 62
1
100
AcDbSpline
 70
8
 71
3
 72
8
 73
4
 74
0
 40
0
 40
0
 40
0
 40
0
 40
1
 40
1
 40
1
 40
1
 10
134.016287
 20
147.059792
 30
0.0
 10
132.955422
 20
147.059792
 30
0.0
 10
131.938006
 20
147.481218
 30
0.0
 10
131.187859
 20
148.231364
 30
0.0
  0
SPLINE
  5
19a
100
AcDbEntity
  8
Layer_1
 62
1
100
AcDbSpline
 70
8
 71
3
 72
8
 73
4
 74
0
 40
0
 40
0
 40
0
 40
0
 40
1
 40
1
 40
1
 40
1
 10
131.187859
 20
148.231364
 30
0.0
 10
130.437713
 20
148.981508
 30
0.0
 10
130.016287
 20
149.998926
 30
0.0
 10
130.016287
 20
151.059792
 30
0.0
  0
SPLINE
  5
19b
100
AcDbEntity
  8
Layer_1
 62
1
100
AcDbSpline
 70
8
 71
3
 72
8
 73
4
 74
0
 40
0
 40
0
 40
0
 40
0
 40
1
 40
1
 40
1
 40
1
 10
130.016287
 20
151.059792
 30
0.0
 10
130.016287
 20
152.120657
 30
0.0
 10
130.437713
 20
153.138073
 30
0.0
 10
131.187859
 20
153.888219
 30
0.0
  0
SPLINE
  5
19c
100
AcDbEntity
  8
Layer_1
 62
1
100
AcDbSpline
 70
8
 71
3
 72
8
 73
4
 74
0
 40
0
 40
0
 40
0
 40
0
 40
1
 40
1
 40
1
 40
1
 10
131.187859
 20
153.888219
 30
0.0
 10
131.938006
 20
154.638363
 30
0.0
 10
132.955422
 20
155.059792
 30
0.0
 10
134.016287
 20
155.059792
 30
0.0
  0
SPLINE
  5
19d
100
AcDbEntity
  8
Layer_1
 62
1
100
AcDbSpline
 70
8
 71
3
 72
8
 73
4
 74
0
 40
0
 40
0
 40
0
 40
0
 40
1
 40
1
 40
1
 40
1
 10
134.016287
 20
155.059792
 30
0.0
 10
135.077152
 20
155.059792
 30
0.0
 10
136.094568
 20
154.638363
 30
0.0
 10
136.844715
 20
153.888219
 30
0.0
  0
SPLINE
  5
19e
100
AcDbEntity
  8
Layer_1
 62
1
100
AcDbSpline
 70
8
 71
3
 72
8
 73
4
 74
0
 40
0
 40
0
 40
0
 40
0
 40
1
 40
1
 40
1
 40
1
 10
136.844715
 20
153.888219
 30
0.0
 10
137.594859
 20
153.138073
 30
0.0
 10
138.016287
 20
152.120657
 30
0.0
 10
138.016287
 20
151.059792
 30
0.0
  0
SPLINE
  5
19f
100
AcDbEntity
  8
Layer_1
 62
1
100
AcDbSpline
 70
8
 71
3
 72
8
 73
4
 74
0
 40
0
 40
0
 40
0
 40
0
 40
1
 40
1
 40
1
 40
1
 10
138.016287
 20
123.647292
 30
0.0
 10
138.016287
 20
122.586426
 30
0.0
 10
137.594859
 20
121.569011
 30
0.0
 10
136.844715
 20
120.818864
 30
0.0
  0
SPLINE
  5
1a0
100
AcDbEntity
  8
Layer_1
 62
1
100
AcDbSpline
 70
8
 71
3
 72
8
 73
4
 74
0
 40
0
 40
0
 40
0
 40
0
 40
1
 40
1
 40
1
 40
1
 10
136.844715
 20
120.818864
 30
0.0
 10
136.094568
 20
120.068717
 30
0.0
 10
135.077152
 20
119.647292
 30
0.0
 10
134.016287
 20
119.647292
 30
0.0
  0
SPLINE
  5
1a1
100
AcDbEntity
  8
Layer_1
 62
1
100
AcDbSpline
 70
8
 71
3
 72
8
 73
4
 74
0
 40
0
 40
0
 40
0
 40
0
 40
1
 40
1
 40
1
 40
1
 10
134.016287
 20
119.647292
 30
0.0
 10
132.955422
 20
119.647292
 30
0.0
 10
131.938006
 20
120.068717
 30
0.0
 10
131.187859
 20
120.818864
 30
0.0
  0
SPLINE
  5
1a2
100
AcDbEntity
  8
Layer_1
 62
1
100
AcDbSpline
 70
8
 71
3
 72
8
 73
4
 74
0
 40
0
 40
0
 40
0
 40
0
 40
1
 40
1
 40
1
 40
1
 10
131.187859
 20
120.818864
 30
0.0
 10
130.437713
 20
121.569011
 30
0.0
 10
130.016287
 20
122.586426
 30
0.0
 10
130.016287
 20
123.647292
 30
0.0
  0
SPLINE
  5
1a3
100
AcDbEntity
  8
Layer_1
 62
1
100
AcDbSpline
 70
8
 71
3
 72
8
 73
4
 74
0
 40
0
 40
0
 40
0
 40
0
 40
1
 40
1
 40
1
 40
1
 10
130.016287
 20
123.647292
 30
0.0
 10
130.016287
 20
124.708157
 30
0.0
 10
130.437713
 20
125.725573
 30
0.0
 10
131.187859
 20
126.475719
 30
0.0
  0
SPLINE
  5
1a4
100
AcDbEntity
  8
Layer_1
 62
1
100
AcDbSpline
 70
8
 71
3
 72
8
 73
4
 74
0
 40
0
 40
0
 40
0
 40
0
 40
1
 40
1
 40
1
 40
1
 10
131.187859
 20
126.475719
 30
0.0
 10
131.938006
 20
127.225863
 30
0.0
 10
132.955422
 20
127.647292
 30
0.0
 10
134.016287
 20
127.647292
 30
0.0
  0
SPLINE
  5
1a5
100
AcDbEntity
  8
Layer_1
 62
1
100
AcDbSpline
 70
8
 71
3
 72
8
 73
4
 74
0
 40
0
 40
0
 40
0
 40
0
 40
1
 40
1
 40
1
 40
1
 10
134.016287
 20
127.647292
 30
0.0
 10
135.077152
 20
127.647292
 30
0.0
 10
136.094568
 20
127.225863
 30
0.0
 10
136.844715
 20
126.475719
 30
0.0
  0
SPLINE
  5
1a6
100
AcDbEntity
  8
Layer_1
 62
1
100
AcDbSpline
 70
8
 71
3
 72
8
 73
4
 74
0
 40
0
 40
0
 40
0
 40
0
 40
1
 40
1
 40
1
 40
1
 10
136.844715
 20
126.475719
 30
0.0
 10
137.594859
 20
125.725573
 30
0.0
 10
138.016287
 20
124.708157
 30
0.0
 10
138.016287
 20
123.647292
 30
0.0
  0
LWPOLYLINE
  5
1a7
100
AcDbEntity
  8
Layer_1
 62
7
100
AcDbPolyline
 90
2
 70
0
 10
122.935312
 20
139.457884
 30
0.0
 10
122.935312
 20
134.906714
 30
0.0
  0
SPLINE
  5
1a8
100
AcDbEntity
  8
Layer_1
 62
1
100
AcDbSpline
 70
8
 71
3
 72
8
 73
4
 74
0
 40
0
 40
0
 40
0
 40
0
 40
1
 40
1
 40
1
 40
1
 10
42.545771
 20
118.830470
 30
0.0
 10
42.545771
 20
117.758672
 30
0.0
 10
41.973975
 20
116.768334
 30
0.0
 10
41.045772
 20
116.232436
 30
0.0
  0
SPLINE
  5
1a9
100
AcDbEntity
  8
Layer_1
 62
1
100
AcDbSpline
 70
8
 71
3
 72
8
 73
4
 74
0
 40
0
 40
0
 40
0
 40
0
 40
1
 40
1
 40
1
 40
1
 10
41.045772
 20
116.232436
 30
0.0
 10
40.117568
 20
115.696538
 30
0.0
 10
38.973976
 20
115.696538
 30
0.0
 10
38.045772
 20
116.232436
 30
0.0
  0
SPLINE
  5
1aa
100
AcDbEntity
  8
Layer_1
 62
1
100
AcDbSpline
 70
8
 71
3
 72
8
 73
4
 74
0
 40
0
 40
0
 40
0
 40
0
 40
1
 40
1
 40
1
 40
1
 10
38.045772
 20
116.232436
 30
0.0
 10
37.117566
 20
116.768334
 30
0.0
 10
36.546000
 20
117.758717
 30
0.0
 10
36.546000
 20
118.830515
 30
0.0
  0
LWPOLYLINE
  5
1ab
100
AcDbEntity
  8
Layer_1
 62
7
100
AcDbPolyline
 90
2
 70
0
 10
245.191000
 20
164.253009
 30
0.0
 10
124.354000
 20
164.251951
 30
0.0
  0
LWPOLYLINE
  5
1ac
100
AcDbEntity
  8
Layer_1
 62
1
100
AcDbPolyline
 90
2
 70
0
 10
36.546000
 20
118.832171
 30
0.0
 10
36.517999
 20
127.948009
 30
0.0
  0
SPLINE
  5
1ad
100
AcDbEntity
  8
Layer_1
 62
1
100
AcDbSpline
 70
8
 71
3
 72
8
 73
4
 74
0
 40
0
 40
0
 40
0
 40
0
 40
1
 40
1
 40
1
 40
1
 10
122.545771
 20
118.830470
 30
0.0
 10
122.545771
 20
117.758672
 30
0.0
 10
121.973975
 20
116.768334
 30
0.0
 10
121.045772
 20
116.232436
 30
0.0
  0
SPLINE
  5
1ae
100
AcDbEntity
  8
Layer_1
 62
1
100
AcDbSpline
 70
8
 71
3
 72
8
 73
4
 74
0
 40
0
 40
0
 40
0
 40
0
 40
1
 40
1
 40
1
 40
1
 10
121.045772
 20
116.232436
 30
0.0
 10
120.117568
 20
115.696538
 30
0.0
 10
118.973976
 20
115.696538
 30
0.0
 10
118.045772
 20
116.232436
 30
0.0
  0
SPLINE
  5
1af
100
AcDbEntity
  8
Layer_1
 62
1
100
AcDbSpline
 70
8
 71
3
 72
8
 73
4
 74
0
 40
0
 40
0
 40
0
 40
0
 40
1
 40
1
 40
1
 40
1
 10
118.045772
 20
116.232436
 30
0.0
 10
117.117566
 20
116.768334
 30
0.0
 10
116.546000
 20
117.758717
 30
0.0
 10
116.546000
 20
118.830515
 30
0.0
  0
LWPOLYLINE
  5
1b0
100
AcDbEntity
  8
Layer_1
 62
1
100
AcDbPolyline
 90
2
 70
0
 10
42.545784
 20
118.831787
 30
0.0
 10
42.490000
 20
127.947009
 30
0.0
  0
LWPOLYLINE
  5
1b1
100
AcDbEntity
  8
Layer_1
 62
1
100
AcDbPolyline
 90
2
 70
0
 10
116.546000
 20
118.832171
 30
0.0
 10
116.517999
 20
127.948009
 30
0.0
  0
SPLINE
  5
1b2
100
AcDbEntity
  8
Layer_1
 62
1
100
AcDbSpline
 70
8
 71
3
 72
8
 73
4
 74
0
 40
0
 40
0
 40
0
 40
0
 40
1
 40
1
 40
1
 40
1
 10
-37.454229
 20
118.830470
 30
0.0
 10
-37.454229
 20
117.758672
 30
0.0
 10
-38.026025
 20
116.768334
 30
0.0
 10
-38.954228
 20
116.232436
 30
0.0
  0
SPLINE
  5
1b3
100
AcDbEntity
  8
Layer_1
 62
1
100
AcDbSpline
 70
8
 71
3
 72
8
 73
4
 74
0
 40
0
 40
0
 40
0
 40
0
 40
1
 40
1
 40
1
 40
1
 10
-38.954228
 20
116.232436
 30
0.0
 10
-39.882432
 20
115.696538
 30
0.0
 10
-41.026024
 20
115.696538
 30
0.0
 10
-41.954228
 20
116.232436
 30
0.0
  0
SPLINE
  5
1b4
100
AcDbEntity
  8
Layer_1
 62
1
100
AcDbSpline
 70
8
 71
3
 72
8
 73
4
 74
0
 40
0
 40
0
 40
0
 40
0
 40
1
 40
1
 40
1
 40
1
 10
-41.954228
 20
116.232436
 30
0.0
 10
-42.882434
 20
116.768334
 30
0.0
 10
-43.454000
 20
117.758717
 30
0.0
 10
-43.454000
 20
118.830515
 30
0.0
  0
LWPOLYLINE
  5
1b5
100
AcDbEntity
  8
Layer_1
 62
1
100
AcDbPolyline
 90
2
 70
0
 10
122.545785
 20
118.831787
 30
0.0
 10
122.490000
 20
127.947009
 30
0.0
  0
LWPOLYLINE
  5
1b6
100
AcDbEntity
  8
Layer_1
 62
1
100
AcDbPolyline
 90
2
 70
0
 10
-43.454000
 20
118.832171
 30
0.0
 10
-43.482001
 20
127.948009
 30
0.0
  0
SPLINE
  5
1b7
100
AcDbEntity
  8
Layer_1
 62
1
100
AcDbSpline
 70
8
 71
3
 72
8
 73
4
 74
0
 40
0
 40
0
 40
0
 40
0
 40
1
 40
1
 40
1
 40
1
 10
-117.454228
 20
118.830470
 30
0.0
 10
-117.454228
 20
117.758672
 30
0.0
 10
-118.026024
 20
116.768334
 30
0.0
 10
-118.954227
 20
116.232436
 30
0.0
  0
SPLINE
  5
1b8
100
AcDbEntity
  8
Layer_1
 62
1
100
AcDbSpline
 70
8
 71
3
 72
8
 73
4
 74
0
 40
0
 40
0
 40
0
 40
0
 40
1
 40
1
 40
1
 40
1
 10
-118.954227
 20
116.232436
 30
0.0
 10
-119.882431
 20
115.696538
 30
0.0
 10
-121.026023
 20
115.696538
 30
0.0
 10
-121.954227
 20
116.232436
 30
0.0
  0
SPLINE
  5
1b9
100
AcDbEntity
  8
Layer_1
 62
1
100
AcDbSpline
 70
8
 71
3
 72
8
 73
4
 74
0
 40
0
 40
0
 40
0
 40
0
 40
1
 40
1
 40
1
 40
1
 10
-121.954227
 20
116.232436
 30
0.0
 10
-122.882432
 20
116.768334
 30
0.0
 10
-123.453999
 20
117.758717
 30
0.0
 10
-123.453999
 20
118.830515
 30
0.0
  0
LWPOLYLINE
  5
1ba
100
AcDbEntity
  8
Layer_1
 62
1
100
AcDbPolyline
 90
2
 70
0
 10
-37.454216
 20
118.831787
 30
0.0
 10
-37.510000
 20
127.947009
 30
0.0
  0
LWPOLYLINE
  5
1bb
100
AcDbEntity
  8
Layer_1
 62
1
100
AcDbPolyline
 90
2
 70
0
 10
-123.453999
 20
118.832171
 30
0.0
 10
-123.481999
 20
127.948009
 30
0.0
  0
LWPOLYLINE
  5
1bc
100
AcDbEntity
  8
Layer_1
 62
1
100
AcDbPolyline
 90
2
 70
0
 10
-117.454214
 20
118.831787
 30
0.0
 10
-117.509999
 20
127.947009
 30
0.0
  0
ENDSEC
  0
SECTION
  2
OBJECTS
  0
DICTIONARY
  5
C
330
0
100
AcDbDictionary
  3
ACAD_GROUP
350
D
  3
ACAD_MLINESTYLE
350
17
  0
DICTIONARY
  5
D
330
C
100
AcDbDictionary
  0
DICTIONARY
  5
1A
330
C
100
AcDbDictionary
  0
DICTIONARY
  5
17
330
C
100
AcDbDictionary
  3
STANDARD
350
18
  0
DICTIONARY
  5
19
330
C
100
AcDbDictionary
  0
ENDSEC
  0
EOF
