  0
SECTION
  2
HEADER
  9
$ACADVER
  1
AC1014
  9
$HANDSEED
  5
FFFF
  9
$MEASUREMENT
 70
     1
  0
ENDSEC
  0
SECTION
  2
TABLES
  0
TABLE
  2
VPORT
  5
8
330
0
100
AcDbSymbolTable
 70
     4
  0
VPORT
  5
2E
330
8
100
AcDbSymbolTableRecord
100
AcDbViewportTableRecord
  2
*ACTIVE
 70
     0
 10
0.0
 20
0.0
 11
1.0
 21
1.0
 12
210.0
 22
148.5
 13
0.0
 23
0.0
 14
10.0
 24
10.0
 15
10.0
 25
10.0
 16
0.0
 26
0.0
 36
1.0
 17
0.0
 27
0.0
 37
0.0
 40
341.0
 41
1.24
 42
50.0
 43
0.0
 44
0.0
 50
0.0
 51
0.0
 71
     0
 72
   100
 73
     1
 74
     3
 75
     0
 76
     0
 77
     0
 78
     0
  0
ENDTAB
  0
TABLE
  2
LTYPE
  5
5
330
0
100
AcDbSymbolTable
 70
     1
  0
LTYPE
  5
14
330
5
100
AcDbSymbolTableRecord
100
AcDbLinetypeTableRecord
  2
BYBLOCK
 70
     0
  3

 72
    65
 73
     0
 40
0.0
  0
LTYPE
  5
15
330
5
100
AcDbSymbolTableRecord
100
AcDbLinetypeTableRecord
  2
BYLAYER
 70
     0
  3

 72
    65
 73
     0
 40
0.0
  0
LTYPE
  5
16
330
5
100
AcDbSymbolTableRecord
100
AcDbLinetypeTableRecord
  2
CONTINUOUS
 70
     0
  3
Solid line
 72
    65
 73
     0
 40
0.0
  0
ENDTAB
  0
TABLE
  2
LAYER
  5
2
100
AcDbSymbolTable
 70
2
  0
LAYER
  5
50
100
AcDbSymbolTableRecord
100
AcDbLayerTableRecord
  2
0
 70
0
  6
CONTINUOUS
  0
LAYER
  5
51
100
AcDbSymbolTableRecord
100
AcDbLayerTableRecord
  2
Layer_1
 70
0
  6
CONTINUOUS
  0
ENDTAB
  0
TABLE
  2
STYLE
  5
3
330
0
100
AcDbSymbolTable
 70
     1
  0
STYLE
  5
11
330
3
100
AcDbSymbolTableRecord
100
AcDbTextStyleTableRecord
  2
STANDARD
 70
     0
 40
0.0
 41
1.0
 50
0.0
 71
     0
 42
2.5
  3
txt
  4

  0
ENDTAB
  0
TABLE
  2
VIEW
  5
6
330
0
100
AcDbSymbolTable
 70
     0
  0
ENDTAB
  0
TABLE
  2
UCS
  5
7
330
0
100
AcDbSymbolTable
 70
     0
  0
ENDTAB
  0
TABLE
  2
APPID
  5
9
330
0
100
AcDbSymbolTable
 70
     2
  0
APPID
  5
12
330
9
100
AcDbSymbolTableRecord
100
AcDbRegAppTableRecord
  2
ACAD
 70
     0
  0
ENDTAB
  0
TABLE
  2
DIMSTYLE
  5
A
330
0
100
AcDbSymbolTable
 70
     1
  0
DIMSTYLE
105
27
330
A
100
AcDbSymbolTableRecord
100
AcDbDimStyleTableRecord
  2
ISO-25
 70
     0
  3

  4

  5

  6

  7

 40
1.0
 41
2.5
 42
0.625
 43
3.75
 44
1.25
 45
0.0
 46
0.0
 47
0.0
 48
0.0
140
2.5
141
2.5
142
0.0
143
0.03937007874016
144
1.0
145
0.0
146
1.0
147
0.625
 71
     0
 72
     0
 73
     0
 74
     0
 75
     0
 76
     0
 77
     1
 78
     8
170
     0
171
     3
172
     1
173
     0
174
     0
175
     0
176
     0
177
     0
178
     0
270
     2
271
     2
272
     2
273
     2
274
     3
340
11
275
     0
280
     0
281
     0
282
     0
283
     0
284
     8
285
     0
286
     0
287
     3
288
     0
  0
ENDTAB
  0
TABLE
  2
BLOCK_RECORD
  5
1
330
0
100
AcDbSymbolTable
 70
     1
  0
BLOCK_RECORD
  5
1F
330
1
100
AcDbSymbolTableRecord
100
AcDbBlockTableRecord
  2
*MODEL_SPACE
  0
BLOCK_RECORD
  5
1B
330
1
100
AcDbSymbolTableRecord
100
AcDbBlockTableRecord
  2
*PAPER_SPACE
  0
ENDTAB
  0
ENDSEC
  0
SECTION
  2
BLOCKS
  0
BLOCK
  5
20
330
1F
100
AcDbEntity
  8
0
100
AcDbBlockBegin
  2
*MODEL_SPACE
 70
     0
 10
0.0
 20
0.0
 30
0.0
  3
*MODEL_SPACE
  1

  0
ENDBLK
  5
21
330
1F
100
AcDbEntity
  8
0
100
AcDbBlockEnd
  0
BLOCK
  5
1C
330
1B
100
AcDbEntity
 67
     1
  8
0
100
AcDbBlockBegin
  2
*PAPER_SPACE
  1

  0
ENDBLK
  5
1D
330
1B
100
AcDbEntity
 67
     1
  8
0
100
AcDbBlockEnd
  0
ENDSEC
  0
SECTION
  2
ENTITIES
  0
LWPOLYLINE
  5
100
100
AcDbEntity
  8
Layer_1
 62
7
100
AcDbPolyline
 90
2
 70
0
 10
-129.809081
 20
135.177007
 30
0.0
 10
-104.808999
 20
135.177007
 30
0.0
  0
SPLINE
  5
101
100
AcDbEntity
  8
Layer_1
 62
7
100
AcDbSpline
 70
8
 71
3
 72
8
 73
4
 74
0
 40
0
 40
0
 40
0
 40
0
 40
1
 40
1
 40
1
 40
1
 10
-104.808999
 20
135.176568
 30
0.0
 10
-107.578988
 20
135.176568
 30
0.0
 10
-109.808761
 20
132.946850
 30
0.0
 10
-109.808761
 20
130.176840
 30
0.0
  0
SPLINE
  5
102
100
AcDbEntity
  8
Layer_1
 62
7
100
AcDbSpline
 70
8
 71
3
 72
8
 73
4
 74
0
 40
0
 40
0
 40
0
 40
0
 40
1
 40
1
 40
1
 40
1
 10
-109.808761
 20
128.176532
 30
0.0
 10
-109.808761
 20
125.406522
 30
0.0
 10
-107.579062
 20
123.176291
 30
0.0
 10
-104.809073
 20
123.176291
 30
0.0
  0
LWPOLYLINE
  5
103
100
AcDbEntity
  8
Layer_1
 62
7
100
AcDbPolyline
 90
2
 70
0
 10
130.191933
 20
135.175949
 30
0.0
 10
-104.809073
 20
135.177007
 30
0.0
  0
SPLINE
  5
104
100
AcDbEntity
  8
Layer_1
 62
7
100
AcDbSpline
 70
8
 71
3
 72
8
 73
4
 74
0
 40
0
 40
0
 40
0
 40
0
 40
1
 40
1
 40
1
 40
1
 10
-134.808709
 20
140.176532
 30
0.0
 10
-134.808709
 20
137.406522
 30
0.0
 10
-132.579070
 20
135.176290
 30
0.0
 10
-129.809081
 20
135.176290
 30
0.0
  0
SPLINE
  5
105
100
AcDbEntity
  8
Layer_1
 62
7
100
AcDbSpline
 70
8
 71
3
 72
8
 73
4
 74
0
 40
0
 40
0
 40
0
 40
0
 40
1
 40
1
 40
1
 40
1
 10
185.190916
 20
123.176291
 30
0.0
 10
187.960926
 20
123.176291
 30
0.0
 10
190.191115
 20
125.406522
 30
0.0
 10
190.191115
 20
128.176532
 30
0.0
  0
LWPOLYLINE
  5
106
100
AcDbEntity
  8
Layer_1
 62
7
100
AcDbPolyline
 90
2
 70
0
 10
-109.808761
 20
130.176840
 30
0.0
 10
-109.808761
 20
128.177008
 30
0.0
  0
LWPOLYLINE
  5
107
100
AcDbEntity
  8
Layer_1
 62
7
100
AcDbPolyline
 90
2
 70
0
 10
-104.809073
 20
123.176008
 30
0.0
 10
185.191000
 20
123.176008
 30
0.0
  0
SPLINE
  5
108
100
AcDbEntity
  8
Layer_1
 62
7
100
AcDbSpline
 70
8
 71
3
 72
8
 73
4
 74
0
 40
0
 40
0
 40
0
 40
0
 40
1
 40
1
 40
1
 40
1
 10
190.162707
 20
153.252999
 30
0.0
 10
190.162707
 20
156.023020
 30
0.0
 10
187.933036
 20
158.252730
 30
0.0
 10
185.163005
 20
158.252730
 30
0.0
  0
LWPOLYLINE
  5
109
100
AcDbEntity
  8
Layer_1
 62
7
100
AcDbPolyline
 90
2
 70
0
 10
190.191115
 20
128.177008
 30
0.0
 10
190.191001
 20
153.253007
 30
0.0
  0
SPLINE
  5
10a
100
AcDbEntity
  8
Layer_1
 62
1
100
AcDbSpline
 70
8
 71
3
 72
8
 73
4
 74
0
 40
0
 40
0
 40
0
 40
0
 40
1
 40
1
 40
1
 40
1
 10
172.808835
 20
129.176288
 30
0.0
 10
172.808835
 20
130.237153
 30
0.0
 10
173.230285
 20
131.254570
 30
0.0
 10
173.980468
 20
132.004713
 30
0.0
  0
SPLINE
  5
10b
100
AcDbEntity
  8
Layer_1
 62
1
100
AcDbSpline
 70
8
 71
3
 72
8
 73
4
 74
0
 40
0
 40
0
 40
0
 40
0
 40
1
 40
1
 40
1
 40
1
 10
173.980468
 20
132.004713
 30
0.0
 10
174.730653
 20
132.754859
 30
0.0
 10
175.748121
 20
133.176285
 30
0.0
 10
176.809040
 20
133.176285
 30
0.0
  0
SPLINE
  5
10c
100
AcDbEntity
  8
Layer_1
 62
1
100
AcDbSpline
 70
8
 71
3
 72
8
 73
4
 74
0
 40
0
 40
0
 40
0
 40
0
 40
1
 40
1
 40
1
 40
1
 10
176.809040
 20
133.176285
 30
0.0
 10
177.869960
 20
133.176285
 30
0.0
 10
178.887428
 20
132.754859
 30
0.0
 10
179.637613
 20
132.004713
 30
0.0
  0
SPLINE
  5
10d
100
AcDbEntity
  8
Layer_1
 62
1
100
AcDbSpline
 70
8
 71
3
 72
8
 73
4
 74
0
 40
0
 40
0
 40
0
 40
0
 40
1
 40
1
 40
1
 40
1
 10
179.637613
 20
132.004713
 30
0.0
 10
180.387798
 20
131.254570
 30
0.0
 10
180.809246
 20
130.237153
 30
0.0
 10
180.809246
 20
129.176288
 30
0.0
  0
SPLINE
  5
10e
100
AcDbEntity
  8
Layer_1
 62
1
100
AcDbSpline
 70
8
 71
3
 72
8
 73
4
 74
0
 40
0
 40
0
 40
0
 40
0
 40
1
 40
1
 40
1
 40
1
 10
180.809246
 20
129.176288
 30
0.0
 10
180.809246
 20
128.115424
 30
0.0
 10
180.387798
 20
127.098009
 30
0.0
 10
179.637613
 20
126.347863
 30
0.0
  0
SPLINE
  5
10f
100
AcDbEntity
  8
Layer_1
 62
1
100
AcDbSpline
 70
8
 71
3
 72
8
 73
4
 74
0
 40
0
 40
0
 40
0
 40
0
 40
1
 40
1
 40
1
 40
1
 10
179.637613
 20
126.347863
 30
0.0
 10
178.887428
 20
125.597719
 30
0.0
 10
177.869960
 20
125.176291
 30
0.0
 10
176.809040
 20
125.176291
 30
0.0
  0
SPLINE
  5
110
100
AcDbEntity
  8
Layer_1
 62
1
100
AcDbSpline
 70
8
 71
3
 72
8
 73
4
 74
0
 40
0
 40
0
 40
0
 40
0
 40
1
 40
1
 40
1
 40
1
 10
176.809040
 20
125.176291
 30
0.0
 10
175.748121
 20
125.176291
 30
0.0
 10
174.730653
 20
125.597719
 30
0.0
 10
173.980468
 20
126.347863
 30
0.0
  0
SPLINE
  5
111
100
AcDbEntity
  8
Layer_1
 62
1
100
AcDbSpline
 70
8
 71
3
 72
8
 73
4
 74
0
 40
0
 40
0
 40
0
 40
0
 40
1
 40
1
 40
1
 40
1
 10
173.980468
 20
126.347863
 30
0.0
 10
173.230285
 20
127.098009
 30
0.0
 10
172.808835
 20
128.115424
 30
0.0
 10
172.808835
 20
129.176288
 30
0.0
  0
SPLINE
  5
112
100
AcDbEntity
  8
Layer_1
 62
1
100
AcDbSpline
 70
8
 71
3
 72
8
 73
4
 74
0
 40
0
 40
0
 40
0
 40
0
 40
1
 40
1
 40
1
 40
1
 10
172.808830
 20
152.252506
 30
0.0
 10
172.808830
 20
153.313426
 30
0.0
 10
173.230258
 20
154.330894
 30
0.0
 10
173.980401
 20
155.081079
 30
0.0
  0
SPLINE
  5
113
100
AcDbEntity
  8
Layer_1
 62
1
100
AcDbSpline
 70
8
 71
3
 72
8
 73
4
 74
0
 40
0
 40
0
 40
0
 40
0
 40
1
 40
1
 40
1
 40
1
 10
173.980401
 20
155.081079
 30
0.0
 10
174.730547
 20
155.831264
 30
0.0
 10
175.747962
 20
156.252711
 30
0.0
 10
176.808827
 20
156.252711
 30
0.0
  0
SPLINE
  5
114
100
AcDbEntity
  8
Layer_1
 62
1
100
AcDbSpline
 70
8
 71
3
 72
8
 73
4
 74
0
 40
0
 40
0
 40
0
 40
0
 40
1
 40
1
 40
1
 40
1
 10
176.808827
 20
156.252711
 30
0.0
 10
177.869691
 20
156.252711
 30
0.0
 10
178.887106
 20
155.831264
 30
0.0
 10
179.637252
 20
155.081079
 30
0.0
  0
SPLINE
  5
115
100
AcDbEntity
  8
Layer_1
 62
1
100
AcDbSpline
 70
8
 71
3
 72
8
 73
4
 74
0
 40
0
 40
0
 40
0
 40
0
 40
1
 40
1
 40
1
 40
1
 10
179.637252
 20
155.081079
 30
0.0
 10
180.387398
 20
154.330894
 30
0.0
 10
180.808823
 20
153.313426
 30
0.0
 10
180.808823
 20
152.252506
 30
0.0
  0
SPLINE
  5
116
100
AcDbEntity
  8
Layer_1
 62
1
100
AcDbSpline
 70
8
 71
3
 72
8
 73
4
 74
0
 40
0
 40
0
 40
0
 40
0
 40
1
 40
1
 40
1
 40
1
 10
180.808823
 20
152.252506
 30
0.0
 10
180.808823
 20
151.191586
 30
0.0
 10
180.387398
 20
150.174119
 30
0.0
 10
179.637252
 20
149.423933
 30
0.0
  0
SPLINE
  5
117
100
AcDbEntity
  8
Layer_1
 62
1
100
AcDbSpline
 70
8
 71
3
 72
8
 73
4
 74
0
 40
0
 40
0
 40
0
 40
0
 40
1
 40
1
 40
1
 40
1
 10
179.637252
 20
149.423933
 30
0.0
 10
178.887106
 20
148.673751
 30
0.0
 10
177.869691
 20
148.252301
 30
0.0
 10
176.808827
 20
148.252301
 30
0.0
  0
SPLINE
  5
118
100
AcDbEntity
  8
Layer_1
 62
1
100
AcDbSpline
 70
8
 71
3
 72
8
 73
4
 74
0
 40
0
 40
0
 40
0
 40
0
 40
1
 40
1
 40
1
 40
1
 10
176.808827
 20
148.252301
 30
0.0
 10
175.747962
 20
148.252301
 30
0.0
 10
174.730547
 20
148.673751
 30
0.0
 10
173.980401
 20
149.423933
 30
0.0
  0
SPLINE
  5
119
100
AcDbEntity
  8
Layer_1
 62
1
100
AcDbSpline
 70
8
 71
3
 72
8
 73
4
 74
0
 40
0
 40
0
 40
0
 40
0
 40
1
 40
1
 40
1
 40
1
 10
173.980401
 20
149.423933
 30
0.0
 10
173.230258
 20
150.174119
 30
0.0
 10
172.808830
 20
151.191586
 30
0.0
 10
172.808830
 20
152.252506
 30
0.0
  0
SPLINE
  5
11a
100
AcDbEntity
  8
Layer_1
 62
1
100
AcDbSpline
 70
8
 71
3
 72
8
 73
4
 74
0
 40
0
 40
0
 40
0
 40
0
 40
1
 40
1
 40
1
 40
1
 10
-98.461364
 20
129.176429
 30
0.0
 10
-98.461364
 20
130.237295
 30
0.0
 10
-98.039936
 20
131.254710
 30
0.0
 10
-97.289789
 20
132.004854
 30
0.0
  0
SPLINE
  5
11b
100
AcDbEntity
  8
Layer_1
 62
1
100
AcDbSpline
 70
8
 71
3
 72
8
 73
4
 74
0
 40
0
 40
0
 40
0
 40
0
 40
1
 40
1
 40
1
 40
1
 10
-97.289789
 20
132.004854
 30
0.0
 10
-96.539645
 20
132.755001
 30
0.0
 10
-95.522230
 20
133.176429
 30
0.0
 10
-94.461364
 20
133.176429
 30
0.0
  0
SPLINE
  5
11c
100
AcDbEntity
  8
Layer_1
 62
1
100
AcDbSpline
 70
8
 71
3
 72
8
 73
4
 74
0
 40
0
 40
0
 40
0
 40
0
 40
1
 40
1
 40
1
 40
1
 10
-94.461364
 20
133.176429
 30
0.0
 10
-93.400496
 20
133.176429
 30
0.0
 10
-92.383081
 20
132.755001
 30
0.0
 10
-91.632937
 20
132.004854
 30
0.0
  0
SPLINE
  5
11d
100
AcDbEntity
  8
Layer_1
 62
1
100
AcDbSpline
 70
8
 71
3
 72
8
 73
4
 74
0
 40
0
 40
0
 40
0
 40
0
 40
1
 40
1
 40
1
 40
1
 10
-91.632937
 20
132.004854
 30
0.0
 10
-90.882790
 20
131.254710
 30
0.0
 10
-90.461364
 20
130.237295
 30
0.0
 10
-90.461364
 20
129.176429
 30
0.0
  0
SPLINE
  5
11e
100
AcDbEntity
  8
Layer_1
 62
1
100
AcDbSpline
 70
8
 71
3
 72
8
 73
4
 74
0
 40
0
 40
0
 40
0
 40
0
 40
1
 40
1
 40
1
 40
1
 10
-90.461364
 20
129.176429
 30
0.0
 10
-90.461364
 20
128.115561
 30
0.0
 10
-90.882790
 20
127.098146
 30
0.0
 10
-91.632937
 20
126.348002
 30
0.0
  0
SPLINE
  5
11f
100
AcDbEntity
  8
Layer_1
 62
1
100
AcDbSpline
 70
8
 71
3
 72
8
 73
4
 74
0
 40
0
 40
0
 40
0
 40
0
 40
1
 40
1
 40
1
 40
1
 10
-91.632937
 20
126.348002
 30
0.0
 10
-92.383081
 20
125.597855
 30
0.0
 10
-93.400496
 20
125.176430
 30
0.0
 10
-94.461364
 20
125.176430
 30
0.0
  0
SPLINE
  5
120
100
AcDbEntity
  8
Layer_1
 62
1
100
AcDbSpline
 70
8
 71
3
 72
8
 73
4
 74
0
 40
0
 40
0
 40
0
 40
0
 40
1
 40
1
 40
1
 40
1
 10
-94.461364
 20
125.176430
 30
0.0
 10
-95.522230
 20
125.176430
 30
0.0
 10
-96.539645
 20
125.597855
 30
0.0
 10
-97.289789
 20
126.348002
 30
0.0
  0
SPLINE
  5
121
100
AcDbEntity
  8
Layer_1
 62
1
100
AcDbSpline
 70
8
 71
3
 72
8
 73
4
 74
0
 40
0
 40
0
 40
0
 40
0
 40
1
 40
1
 40
1
 40
1
 10
-97.289789
 20
126.348002
 30
0.0
 10
-98.039936
 20
127.098146
 30
0.0
 10
-98.461364
 20
128.115561
 30
0.0
 10
-98.461364
 20
129.176429
 30
0.0
  0
SPLINE
  5
122
100
AcDbEntity
  8
Layer_1
 62
1
100
AcDbSpline
 70
8
 71
3
 72
8
 73
4
 74
0
 40
0
 40
0
 40
0
 40
0
 40
1
 40
1
 40
1
 40
1
 10
152.808635
 20
129.176292
 30
0.0
 10
152.808635
 20
130.237157
 30
0.0
 10
153.230063
 20
131.254575
 30
0.0
 10
153.980207
 20
132.004719
 30
0.0
  0
SPLINE
  5
123
100
AcDbEntity
  8
Layer_1
 62
1
100
AcDbSpline
 70
8
 71
3
 72
8
 73
4
 74
0
 40
0
 40
0
 40
0
 40
0
 40
1
 40
1
 40
1
 40
1
 10
153.980207
 20
132.004719
 30
0.0
 10
154.730354
 20
132.754866
 30
0.0
 10
155.747769
 20
133.176292
 30
0.0
 10
156.808635
 20
133.176292
 30
0.0
  0
SPLINE
  5
124
100
AcDbEntity
  8
Layer_1
 62
1
100
AcDbSpline
 70
8
 71
3
 72
8
 73
4
 74
0
 40
0
 40
0
 40
0
 40
0
 40
1
 40
1
 40
1
 40
1
 10
156.808635
 20
133.176292
 30
0.0
 10
157.869500
 20
133.176292
 30
0.0
 10
158.886916
 20
132.754866
 30
0.0
 10
159.637062
 20
132.004719
 30
0.0
  0
SPLINE
  5
125
100
AcDbEntity
  8
Layer_1
 62
1
100
AcDbSpline
 70
8
 71
3
 72
8
 73
4
 74
0
 40
0
 40
0
 40
0
 40
0
 40
1
 40
1
 40
1
 40
1
 10
159.637062
 20
132.004719
 30
0.0
 10
160.387209
 20
131.254575
 30
0.0
 10
160.808635
 20
130.237157
 30
0.0
 10
160.808635
 20
129.176292
 30
0.0
  0
SPLINE
  5
126
100
AcDbEntity
  8
Layer_1
 62
1
100
AcDbSpline
 70
8
 71
3
 72
8
 73
4
 74
0
 40
0
 40
0
 40
0
 40
0
 40
1
 40
1
 40
1
 40
1
 10
160.808635
 20
129.176292
 30
0.0
 10
160.808635
 20
128.115426
 30
0.0
 10
160.387209
 20
127.098011
 30
0.0
 10
159.637062
 20
126.347864
 30
0.0
  0
SPLINE
  5
127
100
AcDbEntity
  8
Layer_1
 62
1
100
AcDbSpline
 70
8
 71
3
 72
8
 73
4
 74
0
 40
0
 40
0
 40
0
 40
0
 40
1
 40
1
 40
1
 40
1
 10
159.637062
 20
126.347864
 30
0.0
 10
158.886916
 20
125.597720
 30
0.0
 10
157.869500
 20
125.176292
 30
0.0
 10
156.808635
 20
125.176292
 30
0.0
  0
SPLINE
  5
128
100
AcDbEntity
  8
Layer_1
 62
1
100
AcDbSpline
 70
8
 71
3
 72
8
 73
4
 74
0
 40
0
 40
0
 40
0
 40
0
 40
1
 40
1
 40
1
 40
1
 10
156.808635
 20
125.176292
 30
0.0
 10
155.747769
 20
125.176292
 30
0.0
 10
154.730354
 20
125.597720
 30
0.0
 10
153.980207
 20
126.347864
 30
0.0
  0
SPLINE
  5
129
100
AcDbEntity
  8
Layer_1
 62
1
100
AcDbSpline
 70
8
 71
3
 72
8
 73
4
 74
0
 40
0
 40
0
 40
0
 40
0
 40
1
 40
1
 40
1
 40
1
 10
153.980207
 20
126.347864
 30
0.0
 10
153.230063
 20
127.098011
 30
0.0
 10
152.808635
 20
128.115426
 30
0.0
 10
152.808635
 20
129.176292
 30
0.0
  0
SPLINE
  5
12a
100
AcDbEntity
  8
Layer_1
 62
1
100
AcDbSpline
 70
8
 71
3
 72
8
 73
4
 74
0
 40
0
 40
0
 40
0
 40
0
 40
1
 40
1
 40
1
 40
1
 10
152.808639
 20
152.252504
 30
0.0
 10
152.808639
 20
153.313423
 30
0.0
 10
153.230067
 20
154.330891
 30
0.0
 10
153.980210
 20
155.081076
 30
0.0
  0
SPLINE
  5
12b
100
AcDbEntity
  8
Layer_1
 62
1
100
AcDbSpline
 70
8
 71
3
 72
8
 73
4
 74
0
 40
0
 40
0
 40
0
 40
0
 40
1
 40
1
 40
1
 40
1
 10
153.980210
 20
155.081076
 30
0.0
 10
154.730356
 20
155.831261
 30
0.0
 10
155.747771
 20
156.252709
 30
0.0
 10
156.808635
 20
156.252709
 30
0.0
  0
SPLINE
  5
12c
100
AcDbEntity
  8
Layer_1
 62
1
100
AcDbSpline
 70
8
 71
3
 72
8
 73
4
 74
0
 40
0
 40
0
 40
0
 40
0
 40
1
 40
1
 40
1
 40
1
 10
156.808635
 20
156.252709
 30
0.0
 10
157.869500
 20
156.252709
 30
0.0
 10
158.886914
 20
155.831261
 30
0.0
 10
159.637061
 20
155.081076
 30
0.0
  0
SPLINE
  5
12d
100
AcDbEntity
  8
Layer_1
 62
1
100
AcDbSpline
 70
8
 71
3
 72
8
 73
4
 74
0
 40
0
 40
0
 40
0
 40
0
 40
1
 40
1
 40
1
 40
1
 10
159.637061
 20
155.081076
 30
0.0
 10
160.387207
 20
154.330891
 30
0.0
 10
160.808632
 20
153.313423
 30
0.0
 10
160.808632
 20
152.252504
 30
0.0
  0
SPLINE
  5
12e
100
AcDbEntity
  8
Layer_1
 62
1
100
AcDbSpline
 70
8
 71
3
 72
8
 73
4
 74
0
 40
0
 40
0
 40
0
 40
0
 40
1
 40
1
 40
1
 40
1
 10
160.808632
 20
152.252504
 30
0.0
 10
160.808632
 20
151.191584
 30
0.0
 10
160.387207
 20
150.174116
 30
0.0
 10
159.637061
 20
149.423931
 30
0.0
  0
SPLINE
  5
12f
100
AcDbEntity
  8
Layer_1
 62
1
100
AcDbSpline
 70
8
 71
3
 72
8
 73
4
 74
0
 40
0
 40
0
 40
0
 40
0
 40
1
 40
1
 40
1
 40
1
 10
159.637061
 20
149.423931
 30
0.0
 10
158.886914
 20
148.673748
 30
0.0
 10
157.869500
 20
148.252298
 30
0.0
 10
156.808635
 20
148.252298
 30
0.0
  0
SPLINE
  5
130
100
AcDbEntity
  8
Layer_1
 62
1
100
AcDbSpline
 70
8
 71
3
 72
8
 73
4
 74
0
 40
0
 40
0
 40
0
 40
0
 40
1
 40
1
 40
1
 40
1
 10
156.808635
 20
148.252298
 30
0.0
 10
155.747771
 20
148.252298
 30
0.0
 10
154.730356
 20
148.673748
 30
0.0
 10
153.980210
 20
149.423931
 30
0.0
  0
SPLINE
  5
131
100
AcDbEntity
  8
Layer_1
 62
1
100
AcDbSpline
 70
8
 71
3
 72
8
 73
4
 74
0
 40
0
 40
0
 40
0
 40
0
 40
1
 40
1
 40
1
 40
1
 10
153.980210
 20
149.423931
 30
0.0
 10
153.230067
 20
150.174116
 30
0.0
 10
152.808639
 20
151.191584
 30
0.0
 10
152.808639
 20
152.252504
 30
0.0
  0
SPLINE
  5
132
100
AcDbEntity
  8
Layer_1
 62
1
100
AcDbSpline
 70
8
 71
3
 72
8
 73
4
 74
0
 40
0
 40
0
 40
0
 40
0
 40
1
 40
1
 40
1
 40
1
 10
-78.461367
 20
129.176292
 30
0.0
 10
-78.461367
 20
130.237157
 30
0.0
 10
-78.039939
 20
131.254573
 30
0.0
 10
-77.289792
 20
132.004717
 30
0.0
  0
SPLINE
  5
133
100
AcDbEntity
  8
Layer_1
 62
1
100
AcDbSpline
 70
8
 71
3
 72
8
 73
4
 74
0
 40
0
 40
0
 40
0
 40
0
 40
1
 40
1
 40
1
 40
1
 10
-77.289792
 20
132.004717
 30
0.0
 10
-76.539648
 20
132.754863
 30
0.0
 10
-75.522233
 20
133.176292
 30
0.0
 10
-74.461367
 20
133.176292
 30
0.0
  0
SPLINE
  5
134
100
AcDbEntity
  8
Layer_1
 62
1
100
AcDbSpline
 70
8
 71
3
 72
8
 73
4
 74
0
 40
0
 40
0
 40
0
 40
0
 40
1
 40
1
 40
1
 40
1
 10
-74.461367
 20
133.176292
 30
0.0
 10
-73.400499
 20
133.176292
 30
0.0
 10
-72.383084
 20
132.754863
 30
0.0
 10
-71.632940
 20
132.004717
 30
0.0
  0
SPLINE
  5
135
100
AcDbEntity
  8
Layer_1
 62
1
100
AcDbSpline
 70
8
 71
3
 72
8
 73
4
 74
0
 40
0
 40
0
 40
0
 40
0
 40
1
 40
1
 40
1
 40
1
 10
-71.632940
 20
132.004717
 30
0.0
 10
-70.882793
 20
131.254573
 30
0.0
 10
-70.461367
 20
130.237157
 30
0.0
 10
-70.461367
 20
129.176292
 30
0.0
  0
SPLINE
  5
136
100
AcDbEntity
  8
Layer_1
 62
1
100
AcDbSpline
 70
8
 71
3
 72
8
 73
4
 74
0
 40
0
 40
0
 40
0
 40
0
 40
1
 40
1
 40
1
 40
1
 10
-70.461367
 20
129.176292
 30
0.0
 10
-70.461367
 20
128.115424
 30
0.0
 10
-70.882793
 20
127.098008
 30
0.0
 10
-71.632940
 20
126.347864
 30
0.0
  0
SPLINE
  5
137
100
AcDbEntity
  8
Layer_1
 62
1
100
AcDbSpline
 70
8
 71
3
 72
8
 73
4
 74
0
 40
0
 40
0
 40
0
 40
0
 40
1
 40
1
 40
1
 40
1
 10
-71.632940
 20
126.347864
 30
0.0
 10
-72.383084
 20
125.597718
 30
0.0
 10
-73.400499
 20
125.176292
 30
0.0
 10
-74.461367
 20
125.176292
 30
0.0
  0
SPLINE
  5
138
100
AcDbEntity
  8
Layer_1
 62
1
100
AcDbSpline
 70
8
 71
3
 72
8
 73
4
 74
0
 40
0
 40
0
 40
0
 40
0
 40
1
 40
1
 40
1
 40
1
 10
-74.461367
 20
125.176292
 30
0.0
 10
-75.522233
 20
125.176292
 30
0.0
 10
-76.539648
 20
125.597718
 30
0.0
 10
-77.289792
 20
126.347864
 30
0.0
  0
SPLINE
  5
139
100
AcDbEntity
  8
Layer_1
 62
1
100
AcDbSpline
 70
8
 71
3
 72
8
 73
4
 74
0
 40
0
 40
0
 40
0
 40
0
 40
1
 40
1
 40
1
 40
1
 10
-77.289792
 20
126.347864
 30
0.0
 10
-78.039939
 20
127.098008
 30
0.0
 10
-78.461367
 20
128.115424
 30
0.0
 10
-78.461367
 20
129.176292
 30
0.0
  0
SPLINE
  5
13a
100
AcDbEntity
  8
Layer_1
 62
7
100
AcDbSpline
 70
8
 71
3
 72
8
 73
4
 74
0
 40
0
 40
0
 40
0
 40
0
 40
1
 40
1
 40
1
 40
1
 10
-184.808066
 20
123.176291
 30
0.0
 10
-187.578095
 20
123.176291
 30
0.0
 10
-189.808189
 20
125.406522
 30
0.0
 10
-189.808189
 20
128.176532
 30
0.0
  0
LWPOLYLINE
  5
13b
100
AcDbEntity
  8
Layer_1
 62
7
100
AcDbPolyline
 90
4
 70
0
 10
185.163005
 20
158.252291
 30
0.0
 10
16.449802
 20
158.252291
 30
0.0
 10
-176.066614
 20
158.252291
 30
0.0
 10
-184.780073
 20
158.252820
 30
0.0
  0
SPLINE
  5
13c
100
AcDbEntity
  8
Layer_1
 62
7
100
AcDbSpline
 70
8
 71
3
 72
8
 73
4
 74
0
 40
0
 40
0
 40
0
 40
0
 40
1
 40
1
 40
1
 40
1
 10
-189.779709
 20
153.253007
 30
0.0
 10
-189.779709
 20
156.023028
 30
0.0
 10
-187.550039
 20
158.252730
 30
0.0
 10
-184.780010
 20
158.252730
 30
0.0
  0
SPLINE
  5
13d
100
AcDbEntity
  8
Layer_1
 62
7
100
AcDbSpline
 70
8
 71
3
 72
8
 73
4
 74
0
 40
0
 40
0
 40
0
 40
0
 40
1
 40
1
 40
1
 40
1
 10
-139.809008
 20
123.176296
 30
0.0
 10
-137.038985
 20
123.176296
 30
0.0
 10
-134.808629
 20
125.406612
 30
0.0
 10
-134.808629
 20
128.176876
 30
0.0
  0
SPLINE
  5
13e
100
AcDbEntity
  8
Layer_1
 62
1
100
AcDbSpline
 70
8
 71
3
 72
8
 73
4
 74
0
 40
0
 40
0
 40
0
 40
0
 40
1
 40
1
 40
1
 40
1
 10
-177.633360
 20
129.176292
 30
0.0
 10
-177.633360
 20
130.237157
 30
0.0
 10
-177.211932
 20
131.254575
 30
0.0
 10
-176.461788
 20
132.004719
 30
0.0
  0
SPLINE
  5
13f
100
AcDbEntity
  8
Layer_1
 62
1
100
AcDbSpline
 70
8
 71
3
 72
8
 73
4
 74
0
 40
0
 40
0
 40
0
 40
0
 40
1
 40
1
 40
1
 40
1
 10
-176.461788
 20
132.004719
 30
0.0
 10
-175.711641
 20
132.754866
 30
0.0
 10
-174.694226
 20
133.176292
 30
0.0
 10
-173.633360
 20
133.176292
 30
0.0
  0
SPLINE
  5
140
100
AcDbEntity
  8
Layer_1
 62
1
100
AcDbSpline
 70
8
 71
3
 72
8
 73
4
 74
0
 40
0
 40
0
 40
0
 40
0
 40
1
 40
1
 40
1
 40
1
 10
-173.633360
 20
133.176292
 30
0.0
 10
-172.572495
 20
133.176292
 30
0.0
 10
-171.555079
 20
132.754866
 30
0.0
 10
-170.804933
 20
132.004719
 30
0.0
  0
SPLINE
  5
141
100
AcDbEntity
  8
Layer_1
 62
1
100
AcDbSpline
 70
8
 71
3
 72
8
 73
4
 74
0
 40
0
 40
0
 40
0
 40
0
 40
1
 40
1
 40
1
 40
1
 10
-170.804933
 20
132.004719
 30
0.0
 10
-170.054786
 20
131.254575
 30
0.0
 10
-169.633360
 20
130.237157
 30
0.0
 10
-169.633360
 20
129.176292
 30
0.0
  0
SPLINE
  5
142
100
AcDbEntity
  8
Layer_1
 62
1
100
AcDbSpline
 70
8
 71
3
 72
8
 73
4
 74
0
 40
0
 40
0
 40
0
 40
0
 40
1
 40
1
 40
1
 40
1
 10
-169.633360
 20
129.176292
 30
0.0
 10
-169.633360
 20
128.115426
 30
0.0
 10
-170.054786
 20
127.098011
 30
0.0
 10
-170.804933
 20
126.347864
 30
0.0
  0
SPLINE
  5
143
100
AcDbEntity
  8
Layer_1
 62
1
100
AcDbSpline
 70
8
 71
3
 72
8
 73
4
 74
0
 40
0
 40
0
 40
0
 40
0
 40
1
 40
1
 40
1
 40
1
 10
-170.804933
 20
126.347864
 30
0.0
 10
-171.555079
 20
125.597720
 30
0.0
 10
-172.572495
 20
125.176292
 30
0.0
 10
-173.633360
 20
125.176292
 30
0.0
  0
SPLINE
  5
144
100
AcDbEntity
  8
Layer_1
 62
1
100
AcDbSpline
 70
8
 71
3
 72
8
 73
4
 74
0
 40
0
 40
0
 40
0
 40
0
 40
1
 40
1
 40
1
 40
1
 10
-173.633360
 20
125.176292
 30
0.0
 10
-174.694226
 20
125.176292
 30
0.0
 10
-175.711641
 20
125.597720
 30
0.0
 10
-176.461788
 20
126.347864
 30
0.0
  0
SPLINE
  5
145
100
AcDbEntity
  8
Layer_1
 62
1
100
AcDbSpline
 70
8
 71
3
 72
8
 73
4
 74
0
 40
0
 40
0
 40
0
 40
0
 40
1
 40
1
 40
1
 40
1
 10
-176.461788
 20
126.347864
 30
0.0
 10
-177.211932
 20
127.098011
 30
0.0
 10
-177.633360
 20
128.115426
 30
0.0
 10
-177.633360
 20
129.176292
 30
0.0
  0
SPLINE
  5
146
100
AcDbEntity
  8
Layer_1
 62
1
100
AcDbSpline
 70
8
 71
3
 72
8
 73
4
 74
0
 40
0
 40
0
 40
0
 40
0
 40
1
 40
1
 40
1
 40
1
 10
-177.633360
 20
152.252292
 30
0.0
 10
-177.633360
 20
153.313157
 30
0.0
 10
-177.211932
 20
154.330573
 30
0.0
 10
-176.461788
 20
155.080719
 30
0.0
  0
SPLINE
  5
147
100
AcDbEntity
  8
Layer_1
 62
1
100
AcDbSpline
 70
8
 71
3
 72
8
 73
4
 74
0
 40
0
 40
0
 40
0
 40
0
 40
1
 40
1
 40
1
 40
1
 10
-176.461788
 20
155.080719
 30
0.0
 10
-175.711641
 20
155.830866
 30
0.0
 10
-174.694226
 20
156.252292
 30
0.0
 10
-173.633360
 20
156.252292
 30
0.0
  0
SPLINE
  5
148
100
AcDbEntity
  8
Layer_1
 62
1
100
AcDbSpline
 70
8
 71
3
 72
8
 73
4
 74
0
 40
0
 40
0
 40
0
 40
0
 40
1
 40
1
 40
1
 40
1
 10
-173.633360
 20
156.252292
 30
0.0
 10
-172.572495
 20
156.252292
 30
0.0
 10
-171.555079
 20
155.830866
 30
0.0
 10
-170.804933
 20
155.080719
 30
0.0
  0
SPLINE
  5
149
100
AcDbEntity
  8
Layer_1
 62
1
100
AcDbSpline
 70
8
 71
3
 72
8
 73
4
 74
0
 40
0
 40
0
 40
0
 40
0
 40
1
 40
1
 40
1
 40
1
 10
-170.804933
 20
155.080719
 30
0.0
 10
-170.054786
 20
154.330573
 30
0.0
 10
-169.633360
 20
153.313157
 30
0.0
 10
-169.633360
 20
152.252292
 30
0.0
  0
SPLINE
  5
14a
100
AcDbEntity
  8
Layer_1
 62
1
100
AcDbSpline
 70
8
 71
3
 72
8
 73
4
 74
0
 40
0
 40
0
 40
0
 40
0
 40
1
 40
1
 40
1
 40
1
 10
-169.633360
 20
152.252292
 30
0.0
 10
-169.633360
 20
151.191426
 30
0.0
 10
-170.054786
 20
150.174011
 30
0.0
 10
-170.804933
 20
149.423864
 30
0.0
  0
SPLINE
  5
14b
100
AcDbEntity
  8
Layer_1
 62
1
100
AcDbSpline
 70
8
 71
3
 72
8
 73
4
 74
0
 40
0
 40
0
 40
0
 40
0
 40
1
 40
1
 40
1
 40
1
 10
-170.804933
 20
149.423864
 30
0.0
 10
-171.555079
 20
148.673720
 30
0.0
 10
-172.572495
 20
148.252292
 30
0.0
 10
-173.633360
 20
148.252292
 30
0.0
  0
SPLINE
  5
14c
100
AcDbEntity
  8
Layer_1
 62
1
100
AcDbSpline
 70
8
 71
3
 72
8
 73
4
 74
0
 40
0
 40
0
 40
0
 40
0
 40
1
 40
1
 40
1
 40
1
 10
-173.633360
 20
148.252292
 30
0.0
 10
-174.694226
 20
148.252292
 30
0.0
 10
-175.711641
 20
148.673720
 30
0.0
 10
-176.461788
 20
149.423864
 30
0.0
  0
SPLINE
  5
14d
100
AcDbEntity
  8
Layer_1
 62
1
100
AcDbSpline
 70
8
 71
3
 72
8
 73
4
 74
0
 40
0
 40
0
 40
0
 40
0
 40
1
 40
1
 40
1
 40
1
 10
-176.461788
 20
149.423864
 30
0.0
 10
-177.211932
 20
150.174011
 30
0.0
 10
-177.633360
 20
151.191426
 30
0.0
 10
-177.633360
 20
152.252292
 30
0.0
  0
SPLINE
  5
14e
100
AcDbEntity
  8
Layer_1
 62
1
100
AcDbSpline
 70
8
 71
3
 72
8
 73
4
 74
0
 40
0
 40
0
 40
0
 40
0
 40
1
 40
1
 40
1
 40
1
 10
-157.633374
 20
129.176292
 30
0.0
 10
-157.633374
 20
130.237157
 30
0.0
 10
-157.211945
 20
131.254575
 30
0.0
 10
-156.461801
 20
132.004719
 30
0.0
  0
SPLINE
  5
14f
100
AcDbEntity
  8
Layer_1
 62
1
100
AcDbSpline
 70
8
 71
3
 72
8
 73
4
 74
0
 40
0
 40
0
 40
0
 40
0
 40
1
 40
1
 40
1
 40
1
 10
-156.461801
 20
132.004719
 30
0.0
 10
-155.711655
 20
132.754866
 30
0.0
 10
-154.694239
 20
133.176292
 30
0.0
 10
-153.633374
 20
133.176292
 30
0.0
  0
SPLINE
  5
150
100
AcDbEntity
  8
Layer_1
 62
1
100
AcDbSpline
 70
8
 71
3
 72
8
 73
4
 74
0
 40
0
 40
0
 40
0
 40
0
 40
1
 40
1
 40
1
 40
1
 10
-153.633374
 20
133.176292
 30
0.0
 10
-152.572508
 20
133.176292
 30
0.0
 10
-151.555093
 20
132.754866
 30
0.0
 10
-150.804946
 20
132.004719
 30
0.0
  0
SPLINE
  5
151
100
AcDbEntity
  8
Layer_1
 62
1
100
AcDbSpline
 70
8
 71
3
 72
8
 73
4
 74
0
 40
0
 40
0
 40
0
 40
0
 40
1
 40
1
 40
1
 40
1
 10
-150.804946
 20
132.004719
 30
0.0
 10
-150.054799
 20
131.254575
 30
0.0
 10
-149.633374
 20
130.237157
 30
0.0
 10
-149.633374
 20
129.176292
 30
0.0
  0
SPLINE
  5
152
100
AcDbEntity
  8
Layer_1
 62
1
100
AcDbSpline
 70
8
 71
3
 72
8
 73
4
 74
0
 40
0
 40
0
 40
0
 40
0
 40
1
 40
1
 40
1
 40
1
 10
-149.633374
 20
129.176292
 30
0.0
 10
-149.633374
 20
128.115426
 30
0.0
 10
-150.054799
 20
127.098011
 30
0.0
 10
-150.804946
 20
126.347864
 30
0.0
  0
SPLINE
  5
153
100
AcDbEntity
  8
Layer_1
 62
1
100
AcDbSpline
 70
8
 71
3
 72
8
 73
4
 74
0
 40
0
 40
0
 40
0
 40
0
 40
1
 40
1
 40
1
 40
1
 10
-150.804946
 20
126.347864
 30
0.0
 10
-151.555093
 20
125.597720
 30
0.0
 10
-152.572508
 20
125.176292
 30
0.0
 10
-153.633374
 20
125.176292
 30
0.0
  0
SPLINE
  5
154
100
AcDbEntity
  8
Layer_1
 62
1
100
AcDbSpline
 70
8
 71
3
 72
8
 73
4
 74
0
 40
0
 40
0
 40
0
 40
0
 40
1
 40
1
 40
1
 40
1
 10
-153.633374
 20
125.176292
 30
0.0
 10
-154.694239
 20
125.176292
 30
0.0
 10
-155.711655
 20
125.597720
 30
0.0
 10
-156.461801
 20
126.347864
 30
0.0
  0
SPLINE
  5
155
100
AcDbEntity
  8
Layer_1
 62
1
100
AcDbSpline
 70
8
 71
3
 72
8
 73
4
 74
0
 40
0
 40
0
 40
0
 40
0
 40
1
 40
1
 40
1
 40
1
 10
-156.461801
 20
126.347864
 30
0.0
 10
-157.211945
 20
127.098011
 30
0.0
 10
-157.633374
 20
128.115426
 30
0.0
 10
-157.633374
 20
129.176292
 30
0.0
  0
SPLINE
  5
156
100
AcDbEntity
  8
Layer_1
 62
1
100
AcDbSpline
 70
8
 71
3
 72
8
 73
4
 74
0
 40
0
 40
0
 40
0
 40
0
 40
1
 40
1
 40
1
 40
1
 10
-157.633374
 20
152.252292
 30
0.0
 10
-157.633374
 20
153.313157
 30
0.0
 10
-157.211945
 20
154.330573
 30
0.0
 10
-156.461801
 20
155.080719
 30
0.0
  0
SPLINE
  5
157
100
AcDbEntity
  8
Layer_1
 62
1
100
AcDbSpline
 70
8
 71
3
 72
8
 73
4
 74
0
 40
0
 40
0
 40
0
 40
0
 40
1
 40
1
 40
1
 40
1
 10
-156.461801
 20
155.080719
 30
0.0
 10
-155.711655
 20
155.830866
 30
0.0
 10
-154.694239
 20
156.252292
 30
0.0
 10
-153.633374
 20
156.252292
 30
0.0
  0
SPLINE
  5
158
100
AcDbEntity
  8
Layer_1
 62
1
100
AcDbSpline
 70
8
 71
3
 72
8
 73
4
 74
0
 40
0
 40
0
 40
0
 40
0
 40
1
 40
1
 40
1
 40
1
 10
-153.633374
 20
156.252292
 30
0.0
 10
-152.572508
 20
156.252292
 30
0.0
 10
-151.555093
 20
155.830866
 30
0.0
 10
-150.804946
 20
155.080719
 30
0.0
  0
SPLINE
  5
159
100
AcDbEntity
  8
Layer_1
 62
1
100
AcDbSpline
 70
8
 71
3
 72
8
 73
4
 74
0
 40
0
 40
0
 40
0
 40
0
 40
1
 40
1
 40
1
 40
1
 10
-150.804946
 20
155.080719
 30
0.0
 10
-150.054799
 20
154.330573
 30
0.0
 10
-149.633374
 20
153.313157
 30
0.0
 10
-149.633374
 20
152.252292
 30
0.0
  0
SPLINE
  5
15a
100
AcDbEntity
  8
Layer_1
 62
1
100
AcDbSpline
 70
8
 71
3
 72
8
 73
4
 74
0
 40
0
 40
0
 40
0
 40
0
 40
1
 40
1
 40
1
 40
1
 10
-149.633374
 20
152.252292
 30
0.0
 10
-149.633374
 20
151.191426
 30
0.0
 10
-150.054799
 20
150.174011
 30
0.0
 10
-150.804946
 20
149.423864
 30
0.0
  0
SPLINE
  5
15b
100
AcDbEntity
  8
Layer_1
 62
1
100
AcDbSpline
 70
8
 71
3
 72
8
 73
4
 74
0
 40
0
 40
0
 40
0
 40
0
 40
1
 40
1
 40
1
 40
1
 10
-150.804946
 20
149.423864
 30
0.0
 10
-151.555093
 20
148.673720
 30
0.0
 10
-152.572508
 20
148.252292
 30
0.0
 10
-153.633374
 20
148.252292
 30
0.0
  0
SPLINE
  5
15c
100
AcDbEntity
  8
Layer_1
 62
1
100
AcDbSpline
 70
8
 71
3
 72
8
 73
4
 74
0
 40
0
 40
0
 40
0
 40
0
 40
1
 40
1
 40
1
 40
1
 10
-153.633374
 20
148.252292
 30
0.0
 10
-154.694239
 20
148.252292
 30
0.0
 10
-155.711655
 20
148.673720
 30
0.0
 10
-156.461801
 20
149.423864
 30
0.0
  0
SPLINE
  5
15d
100
AcDbEntity
  8
Layer_1
 62
1
100
AcDbSpline
 70
8
 71
3
 72
8
 73
4
 74
0
 40
0
 40
0
 40
0
 40
0
 40
1
 40
1
 40
1
 40
1
 10
-156.461801
 20
149.423864
 30
0.0
 10
-157.211945
 20
150.174011
 30
0.0
 10
-157.633374
 20
151.191426
 30
0.0
 10
-157.633374
 20
152.252292
 30
0.0
  0
LWPOLYLINE
  5
15e
100
AcDbEntity
  8
Layer_1
 62
7
100
AcDbPolyline
 90
2
 70
0
 10
-189.808189
 20
128.177008
 30
0.0
 10
-189.808189
 20
153.253007
 30
0.0
  0
SPLINE
  5
15f
100
AcDbEntity
  8
Layer_1
 62
1
100
AcDbSpline
 70
8
 71
3
 72
8
 73
4
 74
0
 40
0
 40
0
 40
0
 40
0
 40
1
 40
1
 40
1
 40
1
 10
-43.923921
 20
141.019763
 30
0.0
 10
-44.996900
 20
141.019763
 30
0.0
 10
-45.988330
 20
141.499138
 30
0.0
 10
-46.524818
 20
142.277311
 30
0.0
  0
SPLINE
  5
160
100
AcDbEntity
  8
Layer_1
 62
1
100
AcDbSpline
 70
8
 71
3
 72
8
 73
4
 74
0
 40
0
 40
0
 40
0
 40
0
 40
1
 40
1
 40
1
 40
1
 10
-46.524818
 20
142.277311
 30
0.0
 10
-47.061306
 20
143.055485
 30
0.0
 10
-47.061306
 20
144.014234
 30
0.0
 10
-46.524818
 20
144.792408
 30
0.0
  0
SPLINE
  5
161
100
AcDbEntity
  8
Layer_1
 62
1
100
AcDbSpline
 70
8
 71
3
 72
8
 73
4
 74
0
 40
0
 40
0
 40
0
 40
0
 40
1
 40
1
 40
1
 40
1
 10
-46.524818
 20
144.792408
 30
0.0
 10
-45.988330
 20
145.570583
 30
0.0
 10
-44.996855
 20
146.049765
 30
0.0
 10
-43.923876
 20
146.049765
 30
0.0
  0
LWPOLYLINE
  5
162
100
AcDbEntity
  8
Layer_1
 62
7
100
AcDbPolyline
 90
2
 70
0
 10
-184.808000
 20
123.176008
 30
0.0
 10
-139.809008
 20
123.177066
 30
0.0
  0
LWPOLYLINE
  5
163
100
AcDbEntity
  8
Layer_1
 62
1
100
AcDbPolyline
 90
2
 70
0
 10
-43.922218
 20
146.049765
 30
0.0
 10
-34.796334
 20
146.073240
 30
0.0
  0
SPLINE
  5
164
100
AcDbEntity
  8
Layer_1
 62
1
100
AcDbSpline
 70
8
 71
3
 72
8
 73
4
 74
0
 40
0
 40
0
 40
0
 40
0
 40
1
 40
1
 40
1
 40
1
 10
-122.341167
 20
141.019763
 30
0.0
 10
-123.414146
 20
141.019763
 30
0.0
 10
-124.405575
 20
141.499137
 30
0.0
 10
-124.942064
 20
142.277311
 30
0.0
  0
SPLINE
  5
165
100
AcDbEntity
  8
Layer_1
 62
1
100
AcDbSpline
 70
8
 71
3
 72
8
 73
4
 74
0
 40
0
 40
0
 40
0
 40
0
 40
1
 40
1
 40
1
 40
1
 10
-124.942064
 20
142.277311
 30
0.0
 10
-125.478552
 20
143.055484
 30
0.0
 10
-125.478552
 20
144.014233
 30
0.0
 10
-124.942064
 20
144.792407
 30
0.0
  0
SPLINE
  5
166
100
AcDbEntity
  8
Layer_1
 62
1
100
AcDbSpline
 70
8
 71
3
 72
8
 73
4
 74
0
 40
0
 40
0
 40
0
 40
0
 40
1
 40
1
 40
1
 40
1
 10
-124.942064
 20
144.792407
 30
0.0
 10
-124.405575
 20
145.570583
 30
0.0
 10
-123.414101
 20
146.049764
 30
0.0
 10
-122.341121
 20
146.049764
 30
0.0
  0
LWPOLYLINE
  5
167
100
AcDbEntity
  8
Layer_1
 62
1
100
AcDbPolyline
 90
2
 70
0
 10
-43.922602
 20
141.019752
 30
0.0
 10
-34.797335
 20
141.066520
 30
0.0
  0
LWPOLYLINE
  5
168
100
AcDbEntity
  8
Layer_1
 62
1
100
AcDbPolyline
 90
2
 70
0
 10
-122.339463
 20
146.049764
 30
0.0
 10
-113.213579
 20
146.073239
 30
0.0
  0
SPLINE
  5
169
100
AcDbEntity
  8
Layer_1
 62
1
100
AcDbSpline
 70
8
 71
3
 72
8
 73
4
 74
0
 40
0
 40
0
 40
0
 40
0
 40
1
 40
1
 40
1
 40
1
 10
44.311772
 20
146.072917
 30
0.0
 10
45.384686
 20
146.072917
 30
0.0
 10
46.376056
 20
145.593571
 30
0.0
 10
46.912511
 20
144.815445
 30
0.0
  0
SPLINE
  5
16a
100
AcDbEntity
  8
Layer_1
 62
1
100
AcDbSpline
 70
8
 71
3
 72
8
 73
4
 74
0
 40
0
 40
0
 40
0
 40
0
 40
1
 40
1
 40
1
 40
1
 10
46.912511
 20
144.815445
 30
0.0
 10
47.448967
 20
144.037318
 30
0.0
 10
47.448967
 20
143.078628
 30
0.0
 10
46.912511
 20
142.300501
 30
0.0
  0
SPLINE
  5
16b
100
AcDbEntity
  8
Layer_1
 62
1
100
AcDbSpline
 70
8
 71
3
 72
8
 73
4
 74
0
 40
0
 40
0
 40
0
 40
0
 40
1
 40
1
 40
1
 40
1
 10
46.912511
 20
142.300501
 30
0.0
 10
46.376056
 20
141.522372
 30
0.0
 10
45.384641
 20
141.043220
 30
0.0
 10
44.311727
 20
141.043220
 30
0.0
  0
LWPOLYLINE
  5
16c
100
AcDbEntity
  8
Layer_1
 62
1
100
AcDbPolyline
 90
2
 70
0
 10
-122.339847
 20
141.019752
 30
0.0
 10
-113.214580
 20
141.066520
 30
0.0
  0
LWPOLYLINE
  5
16d
100
AcDbEntity
  8
Layer_1
 62
1
100
AcDbPolyline
 90
2
 70
0
 10
44.310069
 20
141.043220
 30
0.0
 10
35.184737
 20
141.019746
 30
0.0
  0
SPLINE
  5
16e
100
AcDbEntity
  8
Layer_1
 62
1
100
AcDbSpline
 70
8
 71
3
 72
8
 73
4
 74
0
 40
0
 40
0
 40
0
 40
0
 40
1
 40
1
 40
1
 40
1
 10
122.724271
 20
146.072918
 30
0.0
 10
123.797185
 20
146.072918
 30
0.0
 10
124.788554
 20
145.593573
 30
0.0
 10
125.325010
 20
144.815447
 30
0.0
  0
SPLINE
  5
16f
100
AcDbEntity
  8
Layer_1
 62
1
100
AcDbSpline
 70
8
 71
3
 72
8
 73
4
 74
0
 40
0
 40
0
 40
0
 40
0
 40
1
 40
1
 40
1
 40
1
 10
125.325010
 20
144.815447
 30
0.0
 10
125.861466
 20
144.037320
 30
0.0
 10
125.861466
 20
143.078629
 30
0.0
 10
125.325010
 20
142.300503
 30
0.0
  0
SPLINE
  5
170
100
AcDbEntity
  8
Layer_1
 62
1
100
AcDbSpline
 70
8
 71
3
 72
8
 73
4
 74
0
 40
0
 40
0
 40
0
 40
0
 40
1
 40
1
 40
1
 40
1
 10
125.325010
 20
142.300503
 30
0.0
 10
124.788554
 20
141.522374
 30
0.0
 10
123.797140
 20
141.043222
 30
0.0
 10
122.724225
 20
141.043222
 30
0.0
  0
LWPOLYLINE
  5
171
100
AcDbEntity
  8
Layer_1
 62
1
100
AcDbPolyline
 90
2
 70
0
 10
44.310453
 20
146.072928
 30
0.0
 10
35.185738
 20
146.026163
 30
0.0
  0
LWPOLYLINE
  5
172
100
AcDbEntity
  8
Layer_1
 62
1
100
AcDbPolyline
 90
2
 70
0
 10
122.722567
 20
141.043222
 30
0.0
 10
113.597236
 20
141.019748
 30
0.0
  0
SPLINE
  5
173
100
AcDbEntity
  8
Layer_1
 62
7
100
AcDbSpline
 70
8
 71
3
 72
8
 73
4
 74
0
 40
0
 40
0
 40
0
 40
0
 40
1
 40
1
 40
1
 40
1
 10
-129.809081
 20
151.746721
 30
0.0
 10
-132.579070
 20
151.746721
 30
0.0
 10
-134.808709
 20
149.516932
 30
0.0
 10
-134.808709
 20
146.746922
 30
0.0
  0
LWPOLYLINE
  5
174
100
AcDbEntity
  8
Layer_1
 62
1
100
AcDbPolyline
 90
2
 70
0
 10
122.722952
 20
146.072930
 30
0.0
 10
113.598237
 20
146.026164
 30
0.0
  0
LWPOLYLINE
  5
175
100
AcDbEntity
  8
Layer_1
 62
7
100
AcDbPolyline
 90
2
 70
0
 10
-129.809081
 20
151.741991
 30
0.0
 10
-94.809000
 20
151.742009
 30
0.0
  0
LWPOLYLINE
  5
176
100
AcDbEntity
  8
Layer_1
 62
7
100
AcDbPolyline
 90
2
 70
0
 10
-134.808912
 20
128.176876
 30
0.0
 10
-134.808912
 20
146.746922
 30
0.0
  0
LWPOLYLINE
  5
177
100
AcDbEntity
  8
Layer_1
 62
7
100
AcDbPolyline
 90
2
 70
0
 10
135.190971
 20
140.176524
 30
0.0
 10
135.190971
 20
146.746922
 30
0.0
  0
LWPOLYLINE
  5
178
100
AcDbEntity
  8
Layer_1
 62
7
100
AcDbPolyline
 90
2
 70
0
 10
95.191001
 20
151.742009
 30
0.0
 10
130.191933
 20
151.741991
 30
0.0
  0
LWPOLYLINE
  5
179
100
AcDbEntity
  8
Layer_1
 62
5
100
AcDbPolyline
 90
2
 70
0
 10
-176.362140
 20
143.458124
 30
0.0
 10
-176.362140
 20
139.254424
 30
0.0
  0
LWPOLYLINE
  5
17a
100
AcDbEntity
  8
Layer_1
 62
5
100
AcDbPolyline
 90
12
 70
0
 10
-176.362140
 20
143.458124
 30
0.0
 10
-174.958790
 20
143.458124
 30
0.0
 10
-174.355540
 20
143.254924
 30
0.0
 10
-173.961840
 20
142.854874
 30
0.0
 10
-173.758640
 20
142.454824
 30
0.0
 10
-173.555440
 20
141.857924
 30
0.0
 10
-173.555440
 20
140.854624
 30
0.0
 10
-173.758640
 20
140.257724
 30
0.0
 10
-173.961840
 20
139.854499
 30
0.0
 10
-174.355540
 20
139.454449
 30
0.0
 10
-174.958790
 20
139.254424
 30
0.0
 10
-176.362140
 20
139.254424
 30
0.0
  0
LWPOLYLINE
  5
17b
100
AcDbEntity
  8
Layer_1
 62
5
100
AcDbPolyline
 90
16
 70
1
 10
-171.358340
 20
142.054774
 30
0.0
 10
-171.752040
 20
141.857924
 30
0.0
 10
-172.158440
 20
141.451524
 30
0.0
 10
-172.355290
 20
140.854624
 30
0.0
 10
-172.355290
 20
140.454574
 30
0.0
 10
-172.158440
 20
139.854499
 30
0.0
 10
-171.752040
 20
139.454449
 30
0.0
 10
-171.358340
 20
139.254424
 30
0.0
 10
-170.755090
 20
139.254424
 30
0.0
 10
-170.355040
 20
139.454449
 30
0.0
 10
-169.954990
 20
139.854499
 30
0.0
 10
-169.758140
 20
140.454574
 30
0.0
 10
-169.758140
 20
140.854624
 30
0.0
 10
-169.954990
 20
141.451524
 30
0.0
 10
-170.355040
 20
141.857924
 30
0.0
 10
-170.755090
 20
142.054774
 30
0.0
  0
LWPOLYLINE
  5
17c
100
AcDbEntity
  8
Layer_1
 62
5
100
AcDbPolyline
 90
2
 70
0
 10
-168.361140
 20
143.458124
 30
0.0
 10
-168.361140
 20
139.254424
 30
0.0
  0
LWPOLYLINE
  5
17d
100
AcDbEntity
  8
Layer_1
 62
5
100
AcDbPolyline
 90
2
 70
0
 10
-168.361140
 20
143.458124
 30
0.0
 10
-165.757640
 20
143.458124
 30
0.0
  0
LWPOLYLINE
  5
17e
100
AcDbEntity
  8
Layer_1
 62
5
100
AcDbPolyline
 90
2
 70
0
 10
-168.361140
 20
141.451524
 30
0.0
 10
-166.760940
 20
141.451524
 30
0.0
  0
LWPOLYLINE
  5
17f
100
AcDbEntity
  8
Layer_1
 62
5
100
AcDbPolyline
 90
2
 70
0
 10
-168.361140
 20
139.254424
 30
0.0
 10
-165.757640
 20
139.254424
 30
0.0
  0
LWPOLYLINE
  5
180
100
AcDbEntity
  8
Layer_1
 62
5
100
AcDbPolyline
 90
20
 70
0
 10
-161.960340
 20
142.854874
 30
0.0
 10
-162.360390
 20
143.254924
 30
0.0
 10
-162.963640
 20
143.458124
 30
0.0
 10
-163.763740
 20
143.458124
 30
0.0
 10
-164.360640
 20
143.254924
 30
0.0
 10
-164.760690
 20
142.854874
 30
0.0
 10
-164.760690
 20
142.454824
 30
0.0
 10
-164.563840
 20
142.054774
 30
0.0
 10
-164.360640
 20
141.857924
 30
0.0
 10
-163.960590
 20
141.654724
 30
0.0
 10
-162.760440
 20
141.254674
 30
0.0
 10
-162.360390
 20
141.057824
 30
0.0
 10
-162.163540
 20
140.854624
 30
0.0
 10
-161.960340
 20
140.454574
 30
0.0
 10
-161.960340
 20
139.854499
 30
0.0
 10
-162.360390
 20
139.454449
 30
0.0
 10
-162.963640
 20
139.254424
 30
0.0
 10
-163.763740
 20
139.254424
 30
0.0
 10
-164.360640
 20
139.454449
 30
0.0
 10
-164.760690
 20
139.854499
 30
0.0
  0
LWPOLYLINE
  5
181
100
AcDbEntity
  8
Layer_1
 62
5
100
AcDbPolyline
 90
2
 70
0
 10
-158.556740
 20
142.054774
 30
0.0
 10
-157.362940
 20
139.254424
 30
0.0
  0
LWPOLYLINE
  5
182
100
AcDbEntity
  8
Layer_1
 62
5
100
AcDbPolyline
 90
2
 70
0
 10
-156.156440
 20
142.054774
 30
0.0
 10
-157.362940
 20
139.254424
 30
0.0
  0
SPLINE
  5
183
100
AcDbEntity
  8
Layer_1
 62
7
100
AcDbSpline
 70
8
 71
3
 72
8
 73
4
 74
0
 40
0
 40
0
 40
0
 40
0
 40
1
 40
1
 40
1
 40
1
 10
135.191706
 20
146.746922
 30
0.0
 10
135.191706
 20
149.516929
 30
0.0
 10
132.961967
 20
151.746711
 30
0.0
 10
130.191933
 20
151.746711
 30
0.0
  0
SPLINE
  5
184
100
AcDbEntity
  8
Layer_1
 62
7
100
AcDbSpline
 70
8
 71
3
 72
8
 73
4
 74
0
 40
0
 40
0
 40
0
 40
0
 40
1
 40
1
 40
1
 40
1
 10
130.191933
 20
135.176290
 30
0.0
 10
132.961944
 20
135.176290
 30
0.0
 10
135.192294
 20
137.406514
 30
0.0
 10
135.192294
 20
140.176524
 30
0.0
  0
LWPOLYLINE
  5
185
100
AcDbEntity
  8
Layer_1
 62
5
100
AcDbPolyline
 90
14
 70
0
 10
-154.962640
 20
142.454824
 30
0.0
 10
-154.962640
 20
142.658024
 30
0.0
 10
-154.759440
 20
143.051724
 30
0.0
 10
-154.556240
 20
143.254924
 30
0.0
 10
-154.162540
 20
143.458124
 30
0.0
 10
-153.362440
 20
143.458124
 30
0.0
 10
-152.956040
 20
143.254924
 30
0.0
 10
-152.759190
 20
143.051724
 30
0.0
 10
-152.562340
 20
142.658024
 30
0.0
 10
-152.562340
 20
142.251624
 30
0.0
 10
-152.759190
 20
141.857924
 30
0.0
 10
-153.159240
 20
141.254674
 30
0.0
 10
-155.159490
 20
139.254424
 30
0.0
 10
-152.359140
 20
139.254424
 30
0.0
  0
ENDSEC
  0
SECTION
  2
OBJECTS
  0
DICTIONARY
  5
C
330
0
100
AcDbDictionary
  3
ACAD_GROUP
350
D
  3
ACAD_MLINESTYLE
350
17
  0
DICTIONARY
  5
D
330
C
100
AcDbDictionary
  0
DICTIONARY
  5
1A
330
C
100
AcDbDictionary
  0
DICTIONARY
  5
17
330
C
100
AcDbDictionary
  3
STANDARD
350
18
  0
DICTIONARY
  5
19
330
C
100
AcDbDictionary
  0
ENDSEC
  0
EOF
