  0
SECTION
  2
HEADER
  9
$ACADVER
  1
AC1014
  9
$HANDSEED
  5
FFFF
  9
$MEASUREMENT
 70
     1
  0
ENDSEC
  0
SECTION
  2
TABLES
  0
TABLE
  2
VPORT
  5
8
330
0
100
AcDbSymbolTable
 70
     4
  0
VPORT
  5
2E
330
8
100
AcDbSymbolTableRecord
100
AcDbViewportTableRecord
  2
*ACTIVE
 70
     0
 10
0.0
 20
0.0
 11
1.0
 21
1.0
 12
210.0
 22
148.5
 13
0.0
 23
0.0
 14
10.0
 24
10.0
 15
10.0
 25
10.0
 16
0.0
 26
0.0
 36
1.0
 17
0.0
 27
0.0
 37
0.0
 40
341.0
 41
1.24
 42
50.0
 43
0.0
 44
0.0
 50
0.0
 51
0.0
 71
     0
 72
   100
 73
     1
 74
     3
 75
     0
 76
     0
 77
     0
 78
     0
  0
ENDTAB
  0
TABLE
  2
LTYPE
  5
5
330
0
100
AcDbSymbolTable
 70
     1
  0
LTYPE
  5
14
330
5
100
AcDbSymbolTableRecord
100
AcDbLinetypeTableRecord
  2
BYBLOCK
 70
     0
  3

 72
    65
 73
     0
 40
0.0
  0
LTYPE
  5
15
330
5
100
AcDbSymbolTableRecord
100
AcDbLinetypeTableRecord
  2
BYLAYER
 70
     0
  3

 72
    65
 73
     0
 40
0.0
  0
LTYPE
  5
16
330
5
100
AcDbSymbolTableRecord
100
AcDbLinetypeTableRecord
  2
CONTINUOUS
 70
     0
  3
Solid line
 72
    65
 73
     0
 40
0.0
  0
ENDTAB
  0
TABLE
  2
LAYER
  5
2
100
AcDbSymbolTable
 70
2
  0
LAYER
  5
50
100
AcDbSymbolTableRecord
100
AcDbLayerTableRecord
  2
0
 70
0
  6
CONTINUOUS
  0
LAYER
  5
51
100
AcDbSymbolTableRecord
100
AcDbLayerTableRecord
  2
Layer_1
 70
0
  6
CONTINUOUS
  0
ENDTAB
  0
TABLE
  2
STYLE
  5
3
330
0
100
AcDbSymbolTable
 70
     1
  0
STYLE
  5
11
330
3
100
AcDbSymbolTableRecord
100
AcDbTextStyleTableRecord
  2
STANDARD
 70
     0
 40
0.0
 41
1.0
 50
0.0
 71
     0
 42
2.5
  3
txt
  4

  0
ENDTAB
  0
TABLE
  2
VIEW
  5
6
330
0
100
AcDbSymbolTable
 70
     0
  0
ENDTAB
  0
TABLE
  2
UCS
  5
7
330
0
100
AcDbSymbolTable
 70
     0
  0
ENDTAB
  0
TABLE
  2
APPID
  5
9
330
0
100
AcDbSymbolTable
 70
     2
  0
APPID
  5
12
330
9
100
AcDbSymbolTableRecord
100
AcDbRegAppTableRecord
  2
ACAD
 70
     0
  0
ENDTAB
  0
TABLE
  2
DIMSTYLE
  5
A
330
0
100
AcDbSymbolTable
 70
     1
  0
DIMSTYLE
105
27
330
A
100
AcDbSymbolTableRecord
100
AcDbDimStyleTableRecord
  2
ISO-25
 70
     0
  3

  4

  5

  6

  7

 40
1.0
 41
2.5
 42
0.625
 43
3.75
 44
1.25
 45
0.0
 46
0.0
 47
0.0
 48
0.0
140
2.5
141
2.5
142
0.0
143
0.03937007874016
144
1.0
145
0.0
146
1.0
147
0.625
 71
     0
 72
     0
 73
     0
 74
     0
 75
     0
 76
     0
 77
     1
 78
     8
170
     0
171
     3
172
     1
173
     0
174
     0
175
     0
176
     0
177
     0
178
     0
270
     2
271
     2
272
     2
273
     2
274
     3
340
11
275
     0
280
     0
281
     0
282
     0
283
     0
284
     8
285
     0
286
     0
287
     3
288
     0
  0
ENDTAB
  0
TABLE
  2
BLOCK_RECORD
  5
1
330
0
100
AcDbSymbolTable
 70
     1
  0
BLOCK_RECORD
  5
1F
330
1
100
AcDbSymbolTableRecord
100
AcDbBlockTableRecord
  2
*MODEL_SPACE
  0
BLOCK_RECORD
  5
1B
330
1
100
AcDbSymbolTableRecord
100
AcDbBlockTableRecord
  2
*PAPER_SPACE
  0
ENDTAB
  0
ENDSEC
  0
SECTION
  2
BLOCKS
  0
BLOCK
  5
20
330
1F
100
AcDbEntity
  8
0
100
AcDbBlockBegin
  2
*MODEL_SPACE
 70
     0
 10
0.0
 20
0.0
 30
0.0
  3
*MODEL_SPACE
  1

  0
ENDBLK
  5
21
330
1F
100
AcDbEntity
  8
0
100
AcDbBlockEnd
  0
BLOCK
  5
1C
330
1B
100
AcDbEntity
 67
     1
  8
0
100
AcDbBlockBegin
  2
*PAPER_SPACE
  1

  0
ENDBLK
  5
1D
330
1B
100
AcDbEntity
 67
     1
  8
0
100
AcDbBlockEnd
  0
ENDSEC
  0
SECTION
  2
ENTITIES
  0
SPLINE
  5
100
100
AcDbEntity
  8
Layer_1
 62
7
100
AcDbSpline
 70
8
 71
3
 72
8
 73
4
 74
0
 40
0
 40
0
 40
0
 40
0
 40
1
 40
1
 40
1
 40
1
 10
105.191999
 20
139.252411
 30
0.0
 10
107.961988
 20
139.252411
 30
0.0
 10
110.191688
 20
141.482129
 30
0.0
 10
110.191688
 20
144.252139
 30
0.0
  0
SPLINE
  5
101
100
AcDbEntity
  8
Layer_1
 62
7
100
AcDbSpline
 70
8
 71
3
 72
8
 73
4
 74
0
 40
0
 40
0
 40
0
 40
0
 40
1
 40
1
 40
1
 40
1
 10
110.191688
 20
159.252339
 30
0.0
 10
110.191688
 20
162.022349
 30
0.0
 10
107.961988
 20
164.252581
 30
0.0
 10
105.191999
 20
164.252581
 30
0.0
  0
LWPOLYLINE
  5
102
100
AcDbEntity
  8
Layer_1
 62
7
100
AcDbPolyline
 90
4
 70
0
 10
142.802999
 20
135.120008
 30
0.0
 10
-136.226000
 20
135.120008
 30
0.0
 10
-136.226000
 20
139.252411
 30
0.0
 10
105.191999
 20
139.251882
 30
0.0
  0
SPLINE
  5
103
100
AcDbEntity
  8
Layer_1
 62
7
100
AcDbSpline
 70
8
 71
3
 72
8
 73
4
 74
0
 40
0
 40
0
 40
0
 40
0
 40
1
 40
1
 40
1
 40
1
 10
-184.807990
 20
164.252581
 30
0.0
 10
-187.578000
 20
164.252581
 30
0.0
 10
-189.808189
 20
162.022349
 30
0.0
 10
-189.808189
 20
159.252339
 30
0.0
  0
LWPOLYLINE
  5
104
100
AcDbEntity
  8
Layer_1
 62
7
100
AcDbPolyline
 90
2
 70
0
 10
110.191688
 20
144.252139
 30
0.0
 10
110.191688
 20
159.252339
 30
0.0
  0
SPLINE
  5
105
100
AcDbEntity
  8
Layer_1
 62
7
100
AcDbSpline
 70
8
 71
3
 72
8
 73
4
 74
0
 40
0
 40
0
 40
0
 40
0
 40
1
 40
1
 40
1
 40
1
 10
-189.808189
 20
144.252139
 30
0.0
 10
-189.808189
 20
141.975619
 30
0.0
 10
-188.300810
 20
140.067021
 30
0.0
 10
-186.226500
 20
139.458090
 30
0.0
  0
LWPOLYLINE
  5
106
100
AcDbEntity
  8
Layer_1
 62
7
100
AcDbPolyline
 90
2
 70
0
 10
105.191999
 20
164.253009
 30
0.0
 10
-184.807990
 20
164.252480
 30
0.0
  0
SPLINE
  5
107
100
AcDbEntity
  8
Layer_1
 62
7
100
AcDbSpline
 70
8
 71
3
 72
8
 73
4
 74
0
 40
0
 40
0
 40
0
 40
0
 40
1
 40
1
 40
1
 40
1
 10
-186.226500
 20
134.906921
 30
0.0
 10
-188.286361
 20
134.289061
 30
0.0
 10
-189.779780
 20
132.385921
 30
0.0
 10
-189.779780
 20
130.119590
 30
0.0
  0
LWPOLYLINE
  5
108
100
AcDbEntity
  8
Layer_1
 62
7
100
AcDbPolyline
 90
2
 70
0
 10
-189.808189
 20
159.252339
 30
0.0
 10
-189.808189
 20
144.252139
 30
0.0
  0
SPLINE
  5
109
100
AcDbEntity
  8
Layer_1
 62
7
100
AcDbSpline
 70
8
 71
3
 72
8
 73
4
 74
0
 40
0
 40
0
 40
0
 40
0
 40
1
 40
1
 40
1
 40
1
 10
-189.779780
 20
115.176230
 30
0.0
 10
-189.779780
 20
112.406209
 30
0.0
 10
-187.550110
 20
110.176499
 30
0.0
 10
-184.780079
 20
110.176499
 30
0.0
  0
LWPOLYLINE
  5
10a
100
AcDbEntity
  8
Layer_1
 62
7
100
AcDbPolyline
 90
2
 70
0
 10
-186.226500
 20
139.458090
 30
0.0
 10
-186.226500
 20
134.906921
 30
0.0
  0
LWPOLYLINE
  5
10b
100
AcDbEntity
  8
Layer_1
 62
7
100
AcDbPolyline
 90
2
 70
0
 10
-189.779780
 20
130.119590
 30
0.0
 10
-189.779780
 20
115.176230
 30
0.0
  0
SPLINE
  5
10c
100
AcDbEntity
  8
Layer_1
 62
1
100
AcDbSpline
 70
8
 71
3
 72
8
 73
4
 74
0
 40
0
 40
0
 40
0
 40
0
 40
1
 40
1
 40
1
 40
1
 10
-172.425900
 20
151.059834
 30
0.0
 10
-172.425900
 20
149.998968
 30
0.0
 10
-172.847328
 20
148.981550
 30
0.0
 10
-173.597472
 20
148.231406
 30
0.0
  0
SPLINE
  5
10d
100
AcDbEntity
  8
Layer_1
 62
1
100
AcDbSpline
 70
8
 71
3
 72
8
 73
4
 74
0
 40
0
 40
0
 40
0
 40
0
 40
1
 40
1
 40
1
 40
1
 10
-173.597472
 20
148.231406
 30
0.0
 10
-174.347619
 20
147.481260
 30
0.0
 10
-175.365034
 20
147.059834
 30
0.0
 10
-176.425900
 20
147.059834
 30
0.0
  0
SPLINE
  5
10e
100
AcDbEntity
  8
Layer_1
 62
1
100
AcDbSpline
 70
8
 71
3
 72
8
 73
4
 74
0
 40
0
 40
0
 40
0
 40
0
 40
1
 40
1
 40
1
 40
1
 10
-176.425900
 20
147.059834
 30
0.0
 10
-177.486765
 20
147.059834
 30
0.0
 10
-178.504181
 20
147.481260
 30
0.0
 10
-179.254327
 20
148.231406
 30
0.0
  0
SPLINE
  5
10f
100
AcDbEntity
  8
Layer_1
 62
1
100
AcDbSpline
 70
8
 71
3
 72
8
 73
4
 74
0
 40
0
 40
0
 40
0
 40
0
 40
1
 40
1
 40
1
 40
1
 10
-179.254327
 20
148.231406
 30
0.0
 10
-180.004474
 20
148.981550
 30
0.0
 10
-180.425900
 20
149.998968
 30
0.0
 10
-180.425900
 20
151.059834
 30
0.0
  0
SPLINE
  5
110
100
AcDbEntity
  8
Layer_1
 62
1
100
AcDbSpline
 70
8
 71
3
 72
8
 73
4
 74
0
 40
0
 40
0
 40
0
 40
0
 40
1
 40
1
 40
1
 40
1
 10
-180.425900
 20
151.059834
 30
0.0
 10
-180.425900
 20
152.120699
 30
0.0
 10
-180.004474
 20
153.138115
 30
0.0
 10
-179.254327
 20
153.888261
 30
0.0
  0
SPLINE
  5
111
100
AcDbEntity
  8
Layer_1
 62
1
100
AcDbSpline
 70
8
 71
3
 72
8
 73
4
 74
0
 40
0
 40
0
 40
0
 40
0
 40
1
 40
1
 40
1
 40
1
 10
-179.254327
 20
153.888261
 30
0.0
 10
-178.504181
 20
154.638405
 30
0.0
 10
-177.486765
 20
155.059834
 30
0.0
 10
-176.425900
 20
155.059834
 30
0.0
  0
SPLINE
  5
112
100
AcDbEntity
  8
Layer_1
 62
1
100
AcDbSpline
 70
8
 71
3
 72
8
 73
4
 74
0
 40
0
 40
0
 40
0
 40
0
 40
1
 40
1
 40
1
 40
1
 10
-176.425900
 20
155.059834
 30
0.0
 10
-175.365034
 20
155.059834
 30
0.0
 10
-174.347619
 20
154.638405
 30
0.0
 10
-173.597472
 20
153.888261
 30
0.0
  0
SPLINE
  5
113
100
AcDbEntity
  8
Layer_1
 62
1
100
AcDbSpline
 70
8
 71
3
 72
8
 73
4
 74
0
 40
0
 40
0
 40
0
 40
0
 40
1
 40
1
 40
1
 40
1
 10
-173.597472
 20
153.888261
 30
0.0
 10
-172.847328
 20
153.138115
 30
0.0
 10
-172.425900
 20
152.120699
 30
0.0
 10
-172.425900
 20
151.059834
 30
0.0
  0
SPLINE
  5
114
100
AcDbEntity
  8
Layer_1
 62
1
100
AcDbSpline
 70
8
 71
3
 72
8
 73
4
 74
0
 40
0
 40
0
 40
0
 40
0
 40
1
 40
1
 40
1
 40
1
 10
-172.425900
 20
123.647334
 30
0.0
 10
-172.425900
 20
122.586468
 30
0.0
 10
-172.847328
 20
121.569053
 30
0.0
 10
-173.597472
 20
120.818906
 30
0.0
  0
SPLINE
  5
115
100
AcDbEntity
  8
Layer_1
 62
1
100
AcDbSpline
 70
8
 71
3
 72
8
 73
4
 74
0
 40
0
 40
0
 40
0
 40
0
 40
1
 40
1
 40
1
 40
1
 10
-173.597472
 20
120.818906
 30
0.0
 10
-174.347619
 20
120.068759
 30
0.0
 10
-175.365034
 20
119.647334
 30
0.0
 10
-176.425900
 20
119.647334
 30
0.0
  0
SPLINE
  5
116
100
AcDbEntity
  8
Layer_1
 62
1
100
AcDbSpline
 70
8
 71
3
 72
8
 73
4
 74
0
 40
0
 40
0
 40
0
 40
0
 40
1
 40
1
 40
1
 40
1
 10
-176.425900
 20
119.647334
 30
0.0
 10
-177.486765
 20
119.647334
 30
0.0
 10
-178.504181
 20
120.068759
 30
0.0
 10
-179.254327
 20
120.818906
 30
0.0
  0
SPLINE
  5
117
100
AcDbEntity
  8
Layer_1
 62
1
100
AcDbSpline
 70
8
 71
3
 72
8
 73
4
 74
0
 40
0
 40
0
 40
0
 40
0
 40
1
 40
1
 40
1
 40
1
 10
-179.254327
 20
120.818906
 30
0.0
 10
-180.004474
 20
121.569053
 30
0.0
 10
-180.425900
 20
122.586468
 30
0.0
 10
-180.425900
 20
123.647334
 30
0.0
  0
SPLINE
  5
118
100
AcDbEntity
  8
Layer_1
 62
1
100
AcDbSpline
 70
8
 71
3
 72
8
 73
4
 74
0
 40
0
 40
0
 40
0
 40
0
 40
1
 40
1
 40
1
 40
1
 10
-180.425900
 20
123.647334
 30
0.0
 10
-180.425900
 20
124.708199
 30
0.0
 10
-180.004474
 20
125.725615
 30
0.0
 10
-179.254327
 20
126.475761
 30
0.0
  0
SPLINE
  5
119
100
AcDbEntity
  8
Layer_1
 62
1
100
AcDbSpline
 70
8
 71
3
 72
8
 73
4
 74
0
 40
0
 40
0
 40
0
 40
0
 40
1
 40
1
 40
1
 40
1
 10
-179.254327
 20
126.475761
 30
0.0
 10
-178.504181
 20
127.225905
 30
0.0
 10
-177.486765
 20
127.647334
 30
0.0
 10
-176.425900
 20
127.647334
 30
0.0
  0
SPLINE
  5
11a
100
AcDbEntity
  8
Layer_1
 62
1
100
AcDbSpline
 70
8
 71
3
 72
8
 73
4
 74
0
 40
0
 40
0
 40
0
 40
0
 40
1
 40
1
 40
1
 40
1
 10
-176.425900
 20
127.647334
 30
0.0
 10
-175.365034
 20
127.647334
 30
0.0
 10
-174.347619
 20
127.225905
 30
0.0
 10
-173.597472
 20
126.475761
 30
0.0
  0
SPLINE
  5
11b
100
AcDbEntity
  8
Layer_1
 62
1
100
AcDbSpline
 70
8
 71
3
 72
8
 73
4
 74
0
 40
0
 40
0
 40
0
 40
0
 40
1
 40
1
 40
1
 40
1
 10
-173.597472
 20
126.475761
 30
0.0
 10
-172.847328
 20
125.725615
 30
0.0
 10
-172.425900
 20
124.708199
 30
0.0
 10
-172.425900
 20
123.647334
 30
0.0
  0
SPLINE
  5
11c
100
AcDbEntity
  8
Layer_1
 62
1
100
AcDbSpline
 70
8
 71
3
 72
8
 73
4
 74
0
 40
0
 40
0
 40
0
 40
0
 40
1
 40
1
 40
1
 40
1
 10
98.844291
 20
151.060292
 30
0.0
 10
98.844291
 20
149.999426
 30
0.0
 10
98.422862
 20
148.982011
 30
0.0
 10
97.672716
 20
148.231867
 30
0.0
  0
SPLINE
  5
11d
100
AcDbEntity
  8
Layer_1
 62
1
100
AcDbSpline
 70
8
 71
3
 72
8
 73
4
 74
0
 40
0
 40
0
 40
0
 40
0
 40
1
 40
1
 40
1
 40
1
 10
97.672716
 20
148.231867
 30
0.0
 10
96.922571
 20
147.481720
 30
0.0
 10
95.905156
 20
147.060292
 30
0.0
 10
94.844291
 20
147.060292
 30
0.0
  0
SPLINE
  5
11e
100
AcDbEntity
  8
Layer_1
 62
1
100
AcDbSpline
 70
8
 71
3
 72
8
 73
4
 74
0
 40
0
 40
0
 40
0
 40
0
 40
1
 40
1
 40
1
 40
1
 10
94.844291
 20
147.060292
 30
0.0
 10
93.783423
 20
147.060292
 30
0.0
 10
92.766007
 20
147.481720
 30
0.0
 10
92.015863
 20
148.231867
 30
0.0
  0
SPLINE
  5
11f
100
AcDbEntity
  8
Layer_1
 62
1
100
AcDbSpline
 70
8
 71
3
 72
8
 73
4
 74
0
 40
0
 40
0
 40
0
 40
0
 40
1
 40
1
 40
1
 40
1
 10
92.015863
 20
148.231867
 30
0.0
 10
91.265716
 20
148.982011
 30
0.0
 10
90.844291
 20
149.999426
 30
0.0
 10
90.844291
 20
151.060292
 30
0.0
  0
SPLINE
  5
120
100
AcDbEntity
  8
Layer_1
 62
1
100
AcDbSpline
 70
8
 71
3
 72
8
 73
4
 74
0
 40
0
 40
0
 40
0
 40
0
 40
1
 40
1
 40
1
 40
1
 10
90.844291
 20
151.060292
 30
0.0
 10
90.844291
 20
152.121160
 30
0.0
 10
91.265716
 20
153.138575
 30
0.0
 10
92.015863
 20
153.888719
 30
0.0
  0
SPLINE
  5
121
100
AcDbEntity
  8
Layer_1
 62
1
100
AcDbSpline
 70
8
 71
3
 72
8
 73
4
 74
0
 40
0
 40
0
 40
0
 40
0
 40
1
 40
1
 40
1
 40
1
 10
92.015863
 20
153.888719
 30
0.0
 10
92.766007
 20
154.638866
 30
0.0
 10
93.783423
 20
155.060292
 30
0.0
 10
94.844291
 20
155.060292
 30
0.0
  0
SPLINE
  5
122
100
AcDbEntity
  8
Layer_1
 62
1
100
AcDbSpline
 70
8
 71
3
 72
8
 73
4
 74
0
 40
0
 40
0
 40
0
 40
0
 40
1
 40
1
 40
1
 40
1
 10
94.844291
 20
155.060292
 30
0.0
 10
95.905156
 20
155.060292
 30
0.0
 10
96.922571
 20
154.638866
 30
0.0
 10
97.672716
 20
153.888719
 30
0.0
  0
SPLINE
  5
123
100
AcDbEntity
  8
Layer_1
 62
1
100
AcDbSpline
 70
8
 71
3
 72
8
 73
4
 74
0
 40
0
 40
0
 40
0
 40
0
 40
1
 40
1
 40
1
 40
1
 10
97.672716
 20
153.888719
 30
0.0
 10
98.422862
 20
153.138575
 30
0.0
 10
98.844291
 20
152.121160
 30
0.0
 10
98.844291
 20
151.060292
 30
0.0
  0
SPLINE
  5
124
100
AcDbEntity
  8
Layer_1
 62
1
100
AcDbSpline
 70
8
 71
3
 72
8
 73
4
 74
0
 40
0
 40
0
 40
0
 40
0
 40
1
 40
1
 40
1
 40
1
 10
-152.425709
 20
151.059834
 30
0.0
 10
-152.425709
 20
149.998968
 30
0.0
 10
-152.847137
 20
148.981550
 30
0.0
 10
-153.597281
 20
148.231406
 30
0.0
  0
SPLINE
  5
125
100
AcDbEntity
  8
Layer_1
 62
1
100
AcDbSpline
 70
8
 71
3
 72
8
 73
4
 74
0
 40
0
 40
0
 40
0
 40
0
 40
1
 40
1
 40
1
 40
1
 10
-153.597281
 20
148.231406
 30
0.0
 10
-154.347428
 20
147.481260
 30
0.0
 10
-155.364843
 20
147.059834
 30
0.0
 10
-156.425708
 20
147.059834
 30
0.0
  0
SPLINE
  5
126
100
AcDbEntity
  8
Layer_1
 62
1
100
AcDbSpline
 70
8
 71
3
 72
8
 73
4
 74
0
 40
0
 40
0
 40
0
 40
0
 40
1
 40
1
 40
1
 40
1
 10
-156.425708
 20
147.059834
 30
0.0
 10
-157.486574
 20
147.059834
 30
0.0
 10
-158.503989
 20
147.481260
 30
0.0
 10
-159.254136
 20
148.231406
 30
0.0
  0
SPLINE
  5
127
100
AcDbEntity
  8
Layer_1
 62
1
100
AcDbSpline
 70
8
 71
3
 72
8
 73
4
 74
0
 40
0
 40
0
 40
0
 40
0
 40
1
 40
1
 40
1
 40
1
 10
-159.254136
 20
148.231406
 30
0.0
 10
-160.004283
 20
148.981550
 30
0.0
 10
-160.425708
 20
149.998968
 30
0.0
 10
-160.425708
 20
151.059834
 30
0.0
  0
SPLINE
  5
128
100
AcDbEntity
  8
Layer_1
 62
1
100
AcDbSpline
 70
8
 71
3
 72
8
 73
4
 74
0
 40
0
 40
0
 40
0
 40
0
 40
1
 40
1
 40
1
 40
1
 10
-160.425708
 20
151.059834
 30
0.0
 10
-160.425708
 20
152.120699
 30
0.0
 10
-160.004283
 20
153.138115
 30
0.0
 10
-159.254136
 20
153.888261
 30
0.0
  0
SPLINE
  5
129
100
AcDbEntity
  8
Layer_1
 62
1
100
AcDbSpline
 70
8
 71
3
 72
8
 73
4
 74
0
 40
0
 40
0
 40
0
 40
0
 40
1
 40
1
 40
1
 40
1
 10
-159.254136
 20
153.888261
 30
0.0
 10
-158.503989
 20
154.638405
 30
0.0
 10
-157.486574
 20
155.059834
 30
0.0
 10
-156.425708
 20
155.059834
 30
0.0
  0
SPLINE
  5
12a
100
AcDbEntity
  8
Layer_1
 62
1
100
AcDbSpline
 70
8
 71
3
 72
8
 73
4
 74
0
 40
0
 40
0
 40
0
 40
0
 40
1
 40
1
 40
1
 40
1
 10
-156.425708
 20
155.059834
 30
0.0
 10
-155.364843
 20
155.059834
 30
0.0
 10
-154.347428
 20
154.638405
 30
0.0
 10
-153.597281
 20
153.888261
 30
0.0
  0
SPLINE
  5
12b
100
AcDbEntity
  8
Layer_1
 62
1
100
AcDbSpline
 70
8
 71
3
 72
8
 73
4
 74
0
 40
0
 40
0
 40
0
 40
0
 40
1
 40
1
 40
1
 40
1
 10
-153.597281
 20
153.888261
 30
0.0
 10
-152.847137
 20
153.138115
 30
0.0
 10
-152.425709
 20
152.120699
 30
0.0
 10
-152.425709
 20
151.059834
 30
0.0
  0
SPLINE
  5
12c
100
AcDbEntity
  8
Layer_1
 62
1
100
AcDbSpline
 70
8
 71
3
 72
8
 73
4
 74
0
 40
0
 40
0
 40
0
 40
0
 40
1
 40
1
 40
1
 40
1
 10
-152.425709
 20
123.647334
 30
0.0
 10
-152.425709
 20
122.586468
 30
0.0
 10
-152.847137
 20
121.569053
 30
0.0
 10
-153.597281
 20
120.818906
 30
0.0
  0
SPLINE
  5
12d
100
AcDbEntity
  8
Layer_1
 62
1
100
AcDbSpline
 70
8
 71
3
 72
8
 73
4
 74
0
 40
0
 40
0
 40
0
 40
0
 40
1
 40
1
 40
1
 40
1
 10
-153.597281
 20
120.818906
 30
0.0
 10
-154.347428
 20
120.068759
 30
0.0
 10
-155.364843
 20
119.647334
 30
0.0
 10
-156.425708
 20
119.647334
 30
0.0
  0
SPLINE
  5
12e
100
AcDbEntity
  8
Layer_1
 62
1
100
AcDbSpline
 70
8
 71
3
 72
8
 73
4
 74
0
 40
0
 40
0
 40
0
 40
0
 40
1
 40
1
 40
1
 40
1
 10
-156.425708
 20
119.647334
 30
0.0
 10
-157.486574
 20
119.647334
 30
0.0
 10
-158.503989
 20
120.068759
 30
0.0
 10
-159.254136
 20
120.818906
 30
0.0
  0
SPLINE
  5
12f
100
AcDbEntity
  8
Layer_1
 62
1
100
AcDbSpline
 70
8
 71
3
 72
8
 73
4
 74
0
 40
0
 40
0
 40
0
 40
0
 40
1
 40
1
 40
1
 40
1
 10
-159.254136
 20
120.818906
 30
0.0
 10
-160.004283
 20
121.569053
 30
0.0
 10
-160.425708
 20
122.586468
 30
0.0
 10
-160.425708
 20
123.647334
 30
0.0
  0
SPLINE
  5
130
100
AcDbEntity
  8
Layer_1
 62
1
100
AcDbSpline
 70
8
 71
3
 72
8
 73
4
 74
0
 40
0
 40
0
 40
0
 40
0
 40
1
 40
1
 40
1
 40
1
 10
-160.425708
 20
123.647334
 30
0.0
 10
-160.425708
 20
124.708199
 30
0.0
 10
-160.004283
 20
125.725615
 30
0.0
 10
-159.254136
 20
126.475761
 30
0.0
  0
SPLINE
  5
131
100
AcDbEntity
  8
Layer_1
 62
1
100
AcDbSpline
 70
8
 71
3
 72
8
 73
4
 74
0
 40
0
 40
0
 40
0
 40
0
 40
1
 40
1
 40
1
 40
1
 10
-159.254136
 20
126.475761
 30
0.0
 10
-158.503989
 20
127.225905
 30
0.0
 10
-157.486574
 20
127.647334
 30
0.0
 10
-156.425708
 20
127.647334
 30
0.0
  0
SPLINE
  5
132
100
AcDbEntity
  8
Layer_1
 62
1
100
AcDbSpline
 70
8
 71
3
 72
8
 73
4
 74
0
 40
0
 40
0
 40
0
 40
0
 40
1
 40
1
 40
1
 40
1
 10
-156.425708
 20
127.647334
 30
0.0
 10
-155.364843
 20
127.647334
 30
0.0
 10
-154.347428
 20
127.225905
 30
0.0
 10
-153.597281
 20
126.475761
 30
0.0
  0
SPLINE
  5
133
100
AcDbEntity
  8
Layer_1
 62
1
100
AcDbSpline
 70
8
 71
3
 72
8
 73
4
 74
0
 40
0
 40
0
 40
0
 40
0
 40
1
 40
1
 40
1
 40
1
 10
-153.597281
 20
126.475761
 30
0.0
 10
-152.847137
 20
125.725615
 30
0.0
 10
-152.425709
 20
124.708199
 30
0.0
 10
-152.425709
 20
123.647334
 30
0.0
  0
SPLINE
  5
134
100
AcDbEntity
  8
Layer_1
 62
1
100
AcDbSpline
 70
8
 71
3
 72
8
 73
4
 74
0
 40
0
 40
0
 40
0
 40
0
 40
1
 40
1
 40
1
 40
1
 10
78.844291
 20
151.060292
 30
0.0
 10
78.844291
 20
149.999426
 30
0.0
 10
78.422862
 20
148.982011
 30
0.0
 10
77.672716
 20
148.231867
 30
0.0
  0
SPLINE
  5
135
100
AcDbEntity
  8
Layer_1
 62
1
100
AcDbSpline
 70
8
 71
3
 72
8
 73
4
 74
0
 40
0
 40
0
 40
0
 40
0
 40
1
 40
1
 40
1
 40
1
 10
77.672716
 20
148.231867
 30
0.0
 10
76.922572
 20
147.481720
 30
0.0
 10
75.905156
 20
147.060292
 30
0.0
 10
74.844291
 20
147.060292
 30
0.0
  0
SPLINE
  5
136
100
AcDbEntity
  8
Layer_1
 62
1
100
AcDbSpline
 70
8
 71
3
 72
8
 73
4
 74
0
 40
0
 40
0
 40
0
 40
0
 40
1
 40
1
 40
1
 40
1
 10
74.844291
 20
147.060292
 30
0.0
 10
73.783423
 20
147.060292
 30
0.0
 10
72.766007
 20
147.481720
 30
0.0
 10
72.015863
 20
148.231867
 30
0.0
  0
SPLINE
  5
137
100
AcDbEntity
  8
Layer_1
 62
1
100
AcDbSpline
 70
8
 71
3
 72
8
 73
4
 74
0
 40
0
 40
0
 40
0
 40
0
 40
1
 40
1
 40
1
 40
1
 10
72.015863
 20
148.231867
 30
0.0
 10
71.265717
 20
148.982011
 30
0.0
 10
70.844291
 20
149.999426
 30
0.0
 10
70.844291
 20
151.060292
 30
0.0
  0
SPLINE
  5
138
100
AcDbEntity
  8
Layer_1
 62
1
100
AcDbSpline
 70
8
 71
3
 72
8
 73
4
 74
0
 40
0
 40
0
 40
0
 40
0
 40
1
 40
1
 40
1
 40
1
 10
70.844291
 20
151.060292
 30
0.0
 10
70.844291
 20
152.121160
 30
0.0
 10
71.265717
 20
153.138575
 30
0.0
 10
72.015863
 20
153.888719
 30
0.0
  0
SPLINE
  5
139
100
AcDbEntity
  8
Layer_1
 62
1
100
AcDbSpline
 70
8
 71
3
 72
8
 73
4
 74
0
 40
0
 40
0
 40
0
 40
0
 40
1
 40
1
 40
1
 40
1
 10
72.015863
 20
153.888719
 30
0.0
 10
72.766007
 20
154.638866
 30
0.0
 10
73.783423
 20
155.060292
 30
0.0
 10
74.844291
 20
155.060292
 30
0.0
  0
SPLINE
  5
13a
100
AcDbEntity
  8
Layer_1
 62
1
100
AcDbSpline
 70
8
 71
3
 72
8
 73
4
 74
0
 40
0
 40
0
 40
0
 40
0
 40
1
 40
1
 40
1
 40
1
 10
74.844291
 20
155.060292
 30
0.0
 10
75.905156
 20
155.060292
 30
0.0
 10
76.922572
 20
154.638866
 30
0.0
 10
77.672716
 20
153.888719
 30
0.0
  0
SPLINE
  5
13b
100
AcDbEntity
  8
Layer_1
 62
1
100
AcDbSpline
 70
8
 71
3
 72
8
 73
4
 74
0
 40
0
 40
0
 40
0
 40
0
 40
1
 40
1
 40
1
 40
1
 10
77.672716
 20
153.888719
 30
0.0
 10
78.422862
 20
153.138575
 30
0.0
 10
78.844291
 20
152.121160
 30
0.0
 10
78.844291
 20
151.060292
 30
0.0
  0
SPLINE
  5
13c
100
AcDbEntity
  8
Layer_1
 62
7
100
AcDbSpline
 70
8
 71
3
 72
8
 73
4
 74
0
 40
0
 40
0
 40
0
 40
0
 40
1
 40
1
 40
1
 40
1
 10
185.190993
 20
164.252373
 30
0.0
 10
187.961021
 20
164.252373
 30
0.0
 10
190.191115
 20
162.022142
 30
0.0
 10
190.191115
 20
159.252132
 30
0.0
  0
SPLINE
  5
13d
100
AcDbEntity
  8
Layer_1
 62
7
100
AcDbSpline
 70
8
 71
3
 72
8
 73
4
 74
0
 40
0
 40
0
 40
0
 40
0
 40
1
 40
1
 40
1
 40
1
 10
190.191115
 20
144.251932
 30
0.0
 10
190.191115
 20
141.975412
 30
0.0
 10
188.683731
 20
140.066813
 30
0.0
 10
186.609424
 20
139.457883
 30
0.0
  0
LWPOLYLINE
  5
13e
100
AcDbEntity
  8
Layer_1
 62
7
100
AcDbPolyline
 90
4
 70
0
 10
-184.780079
 20
110.176499
 30
0.0
 10
-16.066876
 20
110.176499
 30
0.0
 10
176.449540
 20
110.176499
 30
0.0
 10
185.163000
 20
110.175970
 30
0.0
  0
SPLINE
  5
13f
100
AcDbEntity
  8
Layer_1
 62
7
100
AcDbSpline
 70
8
 71
3
 72
8
 73
4
 74
0
 40
0
 40
0
 40
0
 40
0
 40
1
 40
1
 40
1
 40
1
 10
186.609424
 20
134.906713
 30
0.0
 10
188.669284
 20
134.288853
 30
0.0
 10
190.162699
 20
132.385713
 30
0.0
 10
190.162699
 20
130.119382
 30
0.0
  0
LWPOLYLINE
  5
140
100
AcDbEntity
  8
Layer_1
 62
7
100
AcDbPolyline
 90
2
 70
0
 10
190.191115
 20
159.252132
 30
0.0
 10
190.191115
 20
144.251932
 30
0.0
  0
SPLINE
  5
141
100
AcDbEntity
  8
Layer_1
 62
7
100
AcDbSpline
 70
8
 71
3
 72
8
 73
4
 74
0
 40
0
 40
0
 40
0
 40
0
 40
1
 40
1
 40
1
 40
1
 10
190.162699
 20
115.176022
 30
0.0
 10
190.162699
 20
112.406002
 30
0.0
 10
187.933028
 20
110.176292
 30
0.0
 10
185.163000
 20
110.176292
 30
0.0
  0
LWPOLYLINE
  5
142
100
AcDbEntity
  8
Layer_1
 62
7
100
AcDbPolyline
 90
2
 70
0
 10
186.609424
 20
139.457883
 30
0.0
 10
186.609424
 20
134.906713
 30
0.0
  0
SPLINE
  5
143
100
AcDbEntity
  8
Layer_1
 62
7
100
AcDbSpline
 70
8
 71
3
 72
8
 73
4
 74
0
 40
0
 40
0
 40
0
 40
0
 40
1
 40
1
 40
1
 40
1
 10
144.353672
 20
164.252374
 30
0.0
 10
141.583643
 20
164.252374
 30
0.0
 10
139.353293
 20
162.022143
 30
0.0
 10
139.353293
 20
159.252133
 30
0.0
  0
SPLINE
  5
144
100
AcDbEntity
  8
Layer_1
 62
7
100
AcDbSpline
 70
8
 71
3
 72
8
 73
4
 74
0
 40
0
 40
0
 40
0
 40
0
 40
1
 40
1
 40
1
 40
1
 10
139.353293
 20
144.251933
 30
0.0
 10
139.353293
 20
141.975413
 30
0.0
 10
140.860677
 20
140.066814
 30
0.0
 10
142.934984
 20
139.457884
 30
0.0
  0
LWPOLYLINE
  5
145
100
AcDbEntity
  8
Layer_1
 62
7
100
AcDbPolyline
 90
2
 70
0
 10
190.162699
 20
130.119382
 30
0.0
 10
190.162699
 20
115.176022
 30
0.0
  0
LWPOLYLINE
  5
146
100
AcDbEntity
  8
Layer_1
 62
7
100
AcDbPolyline
 90
2
 70
0
 10
139.353293
 20
159.252133
 30
0.0
 10
139.353293
 20
144.251933
 30
0.0
  0
SPLINE
  5
147
100
AcDbEntity
  8
Layer_1
 62
1
100
AcDbSpline
 70
8
 71
3
 72
8
 73
4
 74
0
 40
0
 40
0
 40
0
 40
0
 40
1
 40
1
 40
1
 40
1
 10
178.016286
 20
151.059792
 30
0.0
 10
178.016286
 20
149.998926
 30
0.0
 10
177.594858
 20
148.981508
 30
0.0
 10
176.844714
 20
148.231364
 30
0.0
  0
SPLINE
  5
148
100
AcDbEntity
  8
Layer_1
 62
1
100
AcDbSpline
 70
8
 71
3
 72
8
 73
4
 74
0
 40
0
 40
0
 40
0
 40
0
 40
1
 40
1
 40
1
 40
1
 10
176.844714
 20
148.231364
 30
0.0
 10
176.094567
 20
147.481218
 30
0.0
 10
175.077152
 20
147.059792
 30
0.0
 10
174.016286
 20
147.059792
 30
0.0
  0
SPLINE
  5
149
100
AcDbEntity
  8
Layer_1
 62
1
100
AcDbSpline
 70
8
 71
3
 72
8
 73
4
 74
0
 40
0
 40
0
 40
0
 40
0
 40
1
 40
1
 40
1
 40
1
 10
174.016286
 20
147.059792
 30
0.0
 10
172.955421
 20
147.059792
 30
0.0
 10
171.938005
 20
147.481218
 30
0.0
 10
171.187859
 20
148.231364
 30
0.0
  0
SPLINE
  5
14a
100
AcDbEntity
  8
Layer_1
 62
1
100
AcDbSpline
 70
8
 71
3
 72
8
 73
4
 74
0
 40
0
 40
0
 40
0
 40
0
 40
1
 40
1
 40
1
 40
1
 10
171.187859
 20
148.231364
 30
0.0
 10
170.437712
 20
148.981508
 30
0.0
 10
170.016286
 20
149.998926
 30
0.0
 10
170.016286
 20
151.059792
 30
0.0
  0
SPLINE
  5
14b
100
AcDbEntity
  8
Layer_1
 62
1
100
AcDbSpline
 70
8
 71
3
 72
8
 73
4
 74
0
 40
0
 40
0
 40
0
 40
0
 40
1
 40
1
 40
1
 40
1
 10
170.016286
 20
151.059792
 30
0.0
 10
170.016286
 20
152.120657
 30
0.0
 10
170.437712
 20
153.138073
 30
0.0
 10
171.187859
 20
153.888219
 30
0.0
  0
SPLINE
  5
14c
100
AcDbEntity
  8
Layer_1
 62
1
100
AcDbSpline
 70
8
 71
3
 72
8
 73
4
 74
0
 40
0
 40
0
 40
0
 40
0
 40
1
 40
1
 40
1
 40
1
 10
171.187859
 20
153.888219
 30
0.0
 10
171.938005
 20
154.638363
 30
0.0
 10
172.955421
 20
155.059792
 30
0.0
 10
174.016286
 20
155.059792
 30
0.0
  0
SPLINE
  5
14d
100
AcDbEntity
  8
Layer_1
 62
1
100
AcDbSpline
 70
8
 71
3
 72
8
 73
4
 74
0
 40
0
 40
0
 40
0
 40
0
 40
1
 40
1
 40
1
 40
1
 10
174.016286
 20
155.059792
 30
0.0
 10
175.077152
 20
155.059792
 30
0.0
 10
176.094567
 20
154.638363
 30
0.0
 10
176.844714
 20
153.888219
 30
0.0
  0
SPLINE
  5
14e
100
AcDbEntity
  8
Layer_1
 62
1
100
AcDbSpline
 70
8
 71
3
 72
8
 73
4
 74
0
 40
0
 40
0
 40
0
 40
0
 40
1
 40
1
 40
1
 40
1
 10
176.844714
 20
153.888219
 30
0.0
 10
177.594858
 20
153.138073
 30
0.0
 10
178.016286
 20
152.120657
 30
0.0
 10
178.016286
 20
151.059792
 30
0.0
  0
SPLINE
  5
14f
100
AcDbEntity
  8
Layer_1
 62
1
100
AcDbSpline
 70
8
 71
3
 72
8
 73
4
 74
0
 40
0
 40
0
 40
0
 40
0
 40
1
 40
1
 40
1
 40
1
 10
178.016286
 20
123.647292
 30
0.0
 10
178.016286
 20
122.586426
 30
0.0
 10
177.594858
 20
121.569011
 30
0.0
 10
176.844714
 20
120.818864
 30
0.0
  0
SPLINE
  5
150
100
AcDbEntity
  8
Layer_1
 62
1
100
AcDbSpline
 70
8
 71
3
 72
8
 73
4
 74
0
 40
0
 40
0
 40
0
 40
0
 40
1
 40
1
 40
1
 40
1
 10
176.844714
 20
120.818864
 30
0.0
 10
176.094567
 20
120.068717
 30
0.0
 10
175.077152
 20
119.647292
 30
0.0
 10
174.016286
 20
119.647292
 30
0.0
  0
SPLINE
  5
151
100
AcDbEntity
  8
Layer_1
 62
1
100
AcDbSpline
 70
8
 71
3
 72
8
 73
4
 74
0
 40
0
 40
0
 40
0
 40
0
 40
1
 40
1
 40
1
 40
1
 10
174.016286
 20
119.647292
 30
0.0
 10
172.955421
 20
119.647292
 30
0.0
 10
171.938005
 20
120.068717
 30
0.0
 10
171.187859
 20
120.818864
 30
0.0
  0
SPLINE
  5
152
100
AcDbEntity
  8
Layer_1
 62
1
100
AcDbSpline
 70
8
 71
3
 72
8
 73
4
 74
0
 40
0
 40
0
 40
0
 40
0
 40
1
 40
1
 40
1
 40
1
 10
171.187859
 20
120.818864
 30
0.0
 10
170.437712
 20
121.569011
 30
0.0
 10
170.016286
 20
122.586426
 30
0.0
 10
170.016286
 20
123.647292
 30
0.0
  0
SPLINE
  5
153
100
AcDbEntity
  8
Layer_1
 62
1
100
AcDbSpline
 70
8
 71
3
 72
8
 73
4
 74
0
 40
0
 40
0
 40
0
 40
0
 40
1
 40
1
 40
1
 40
1
 10
170.016286
 20
123.647292
 30
0.0
 10
170.016286
 20
124.708157
 30
0.0
 10
170.437712
 20
125.725573
 30
0.0
 10
171.187859
 20
126.475719
 30
0.0
  0
SPLINE
  5
154
100
AcDbEntity
  8
Layer_1
 62
1
100
AcDbSpline
 70
8
 71
3
 72
8
 73
4
 74
0
 40
0
 40
0
 40
0
 40
0
 40
1
 40
1
 40
1
 40
1
 10
171.187859
 20
126.475719
 30
0.0
 10
171.938005
 20
127.225863
 30
0.0
 10
172.955421
 20
127.647292
 30
0.0
 10
174.016286
 20
127.647292
 30
0.0
  0
SPLINE
  5
155
100
AcDbEntity
  8
Layer_1
 62
1
100
AcDbSpline
 70
8
 71
3
 72
8
 73
4
 74
0
 40
0
 40
0
 40
0
 40
0
 40
1
 40
1
 40
1
 40
1
 10
174.016286
 20
127.647292
 30
0.0
 10
175.077152
 20
127.647292
 30
0.0
 10
176.094567
 20
127.225863
 30
0.0
 10
176.844714
 20
126.475719
 30
0.0
  0
SPLINE
  5
156
100
AcDbEntity
  8
Layer_1
 62
1
100
AcDbSpline
 70
8
 71
3
 72
8
 73
4
 74
0
 40
0
 40
0
 40
0
 40
0
 40
1
 40
1
 40
1
 40
1
 10
176.844714
 20
126.475719
 30
0.0
 10
177.594858
 20
125.725573
 30
0.0
 10
178.016286
 20
124.708157
 30
0.0
 10
178.016286
 20
123.647292
 30
0.0
  0
SPLINE
  5
157
100
AcDbEntity
  8
Layer_1
 62
1
100
AcDbSpline
 70
8
 71
3
 72
8
 73
4
 74
0
 40
0
 40
0
 40
0
 40
0
 40
1
 40
1
 40
1
 40
1
 10
158.016300
 20
151.059792
 30
0.0
 10
158.016300
 20
149.998926
 30
0.0
 10
157.594872
 20
148.981508
 30
0.0
 10
156.844727
 20
148.231364
 30
0.0
  0
SPLINE
  5
158
100
AcDbEntity
  8
Layer_1
 62
1
100
AcDbSpline
 70
8
 71
3
 72
8
 73
4
 74
0
 40
0
 40
0
 40
0
 40
0
 40
1
 40
1
 40
1
 40
1
 10
156.844727
 20
148.231364
 30
0.0
 10
156.094581
 20
147.481218
 30
0.0
 10
155.077165
 20
147.059792
 30
0.0
 10
154.016300
 20
147.059792
 30
0.0
  0
SPLINE
  5
159
100
AcDbEntity
  8
Layer_1
 62
1
100
AcDbSpline
 70
8
 71
3
 72
8
 73
4
 74
0
 40
0
 40
0
 40
0
 40
0
 40
1
 40
1
 40
1
 40
1
 10
154.016300
 20
147.059792
 30
0.0
 10
152.955435
 20
147.059792
 30
0.0
 10
151.938019
 20
147.481218
 30
0.0
 10
151.187872
 20
148.231364
 30
0.0
  0
SPLINE
  5
15a
100
AcDbEntity
  8
Layer_1
 62
1
100
AcDbSpline
 70
8
 71
3
 72
8
 73
4
 74
0
 40
0
 40
0
 40
0
 40
0
 40
1
 40
1
 40
1
 40
1
 10
151.187872
 20
148.231364
 30
0.0
 10
150.437726
 20
148.981508
 30
0.0
 10
150.016300
 20
149.998926
 30
0.0
 10
150.016300
 20
151.059792
 30
0.0
  0
SPLINE
  5
15b
100
AcDbEntity
  8
Layer_1
 62
1
100
AcDbSpline
 70
8
 71
3
 72
8
 73
4
 74
0
 40
0
 40
0
 40
0
 40
0
 40
1
 40
1
 40
1
 40
1
 10
150.016300
 20
151.059792
 30
0.0
 10
150.016300
 20
152.120657
 30
0.0
 10
150.437726
 20
153.138073
 30
0.0
 10
151.187872
 20
153.888219
 30
0.0
  0
SPLINE
  5
15c
100
AcDbEntity
  8
Layer_1
 62
1
100
AcDbSpline
 70
8
 71
3
 72
8
 73
4
 74
0
 40
0
 40
0
 40
0
 40
0
 40
1
 40
1
 40
1
 40
1
 10
151.187872
 20
153.888219
 30
0.0
 10
151.938019
 20
154.638363
 30
0.0
 10
152.955435
 20
155.059792
 30
0.0
 10
154.016300
 20
155.059792
 30
0.0
  0
SPLINE
  5
15d
100
AcDbEntity
  8
Layer_1
 62
1
100
AcDbSpline
 70
8
 71
3
 72
8
 73
4
 74
0
 40
0
 40
0
 40
0
 40
0
 40
1
 40
1
 40
1
 40
1
 10
154.016300
 20
155.059792
 30
0.0
 10
155.077165
 20
155.059792
 30
0.0
 10
156.094581
 20
154.638363
 30
0.0
 10
156.844727
 20
153.888219
 30
0.0
  0
SPLINE
  5
15e
100
AcDbEntity
  8
Layer_1
 62
1
100
AcDbSpline
 70
8
 71
3
 72
8
 73
4
 74
0
 40
0
 40
0
 40
0
 40
0
 40
1
 40
1
 40
1
 40
1
 10
156.844727
 20
153.888219
 30
0.0
 10
157.594872
 20
153.138073
 30
0.0
 10
158.016300
 20
152.120657
 30
0.0
 10
158.016300
 20
151.059792
 30
0.0
  0
SPLINE
  5
15f
100
AcDbEntity
  8
Layer_1
 62
1
100
AcDbSpline
 70
8
 71
3
 72
8
 73
4
 74
0
 40
0
 40
0
 40
0
 40
0
 40
1
 40
1
 40
1
 40
1
 10
158.016300
 20
123.647292
 30
0.0
 10
158.016300
 20
122.586426
 30
0.0
 10
157.594872
 20
121.569011
 30
0.0
 10
156.844727
 20
120.818864
 30
0.0
  0
SPLINE
  5
160
100
AcDbEntity
  8
Layer_1
 62
1
100
AcDbSpline
 70
8
 71
3
 72
8
 73
4
 74
0
 40
0
 40
0
 40
0
 40
0
 40
1
 40
1
 40
1
 40
1
 10
156.844727
 20
120.818864
 30
0.0
 10
156.094581
 20
120.068717
 30
0.0
 10
155.077165
 20
119.647292
 30
0.0
 10
154.016300
 20
119.647292
 30
0.0
  0
SPLINE
  5
161
100
AcDbEntity
  8
Layer_1
 62
1
100
AcDbSpline
 70
8
 71
3
 72
8
 73
4
 74
0
 40
0
 40
0
 40
0
 40
0
 40
1
 40
1
 40
1
 40
1
 10
154.016300
 20
119.647292
 30
0.0
 10
152.955435
 20
119.647292
 30
0.0
 10
151.938019
 20
120.068717
 30
0.0
 10
151.187872
 20
120.818864
 30
0.0
  0
SPLINE
  5
162
100
AcDbEntity
  8
Layer_1
 62
1
100
AcDbSpline
 70
8
 71
3
 72
8
 73
4
 74
0
 40
0
 40
0
 40
0
 40
0
 40
1
 40
1
 40
1
 40
1
 10
151.187872
 20
120.818864
 30
0.0
 10
150.437726
 20
121.569011
 30
0.0
 10
150.016300
 20
122.586426
 30
0.0
 10
150.016300
 20
123.647292
 30
0.0
  0
SPLINE
  5
163
100
AcDbEntity
  8
Layer_1
 62
1
100
AcDbSpline
 70
8
 71
3
 72
8
 73
4
 74
0
 40
0
 40
0
 40
0
 40
0
 40
1
 40
1
 40
1
 40
1
 10
150.016300
 20
123.647292
 30
0.0
 10
150.016300
 20
124.708157
 30
0.0
 10
150.437726
 20
125.725573
 30
0.0
 10
151.187872
 20
126.475719
 30
0.0
  0
SPLINE
  5
164
100
AcDbEntity
  8
Layer_1
 62
1
100
AcDbSpline
 70
8
 71
3
 72
8
 73
4
 74
0
 40
0
 40
0
 40
0
 40
0
 40
1
 40
1
 40
1
 40
1
 10
151.187872
 20
126.475719
 30
0.0
 10
151.938019
 20
127.225863
 30
0.0
 10
152.955435
 20
127.647292
 30
0.0
 10
154.016300
 20
127.647292
 30
0.0
  0
SPLINE
  5
165
100
AcDbEntity
  8
Layer_1
 62
1
100
AcDbSpline
 70
8
 71
3
 72
8
 73
4
 74
0
 40
0
 40
0
 40
0
 40
0
 40
1
 40
1
 40
1
 40
1
 10
154.016300
 20
127.647292
 30
0.0
 10
155.077165
 20
127.647292
 30
0.0
 10
156.094581
 20
127.225863
 30
0.0
 10
156.844727
 20
126.475719
 30
0.0
  0
SPLINE
  5
166
100
AcDbEntity
  8
Layer_1
 62
1
100
AcDbSpline
 70
8
 71
3
 72
8
 73
4
 74
0
 40
0
 40
0
 40
0
 40
0
 40
1
 40
1
 40
1
 40
1
 10
156.844727
 20
126.475719
 30
0.0
 10
157.594872
 20
125.725573
 30
0.0
 10
158.016300
 20
124.708157
 30
0.0
 10
158.016300
 20
123.647292
 30
0.0
  0
LWPOLYLINE
  5
167
100
AcDbEntity
  8
Layer_1
 62
7
100
AcDbPolyline
 90
2
 70
0
 10
142.935000
 20
139.457884
 30
0.0
 10
142.935000
 20
134.907008
 30
0.0
  0
SPLINE
  5
168
100
AcDbEntity
  8
Layer_1
 62
1
100
AcDbSpline
 70
8
 71
3
 72
8
 73
4
 74
0
 40
0
 40
0
 40
0
 40
0
 40
1
 40
1
 40
1
 40
1
 10
42.188877
 20
118.821012
 30
0.0
 10
42.188877
 20
117.748097
 30
0.0
 10
41.709532
 20
116.756728
 30
0.0
 10
40.931405
 20
116.220272
 30
0.0
  0
SPLINE
  5
169
100
AcDbEntity
  8
Layer_1
 62
1
100
AcDbSpline
 70
8
 71
3
 72
8
 73
4
 74
0
 40
0
 40
0
 40
0
 40
0
 40
1
 40
1
 40
1
 40
1
 10
40.931405
 20
116.220272
 30
0.0
 10
40.153279
 20
115.683816
 30
0.0
 10
39.194588
 20
115.683816
 30
0.0
 10
38.416462
 20
116.220272
 30
0.0
  0
SPLINE
  5
16a
100
AcDbEntity
  8
Layer_1
 62
1
100
AcDbSpline
 70
8
 71
3
 72
8
 73
4
 74
0
 40
0
 40
0
 40
0
 40
0
 40
1
 40
1
 40
1
 40
1
 10
38.416462
 20
116.220272
 30
0.0
 10
37.638333
 20
116.756728
 30
0.0
 10
37.159180
 20
117.748142
 30
0.0
 10
37.159180
 20
118.821057
 30
0.0
  0
LWPOLYLINE
  5
16b
100
AcDbEntity
  8
Layer_1
 62
7
100
AcDbPolyline
 90
2
 70
0
 10
185.191000
 20
164.253009
 30
0.0
 10
144.354000
 20
164.251951
 30
0.0
  0
LWPOLYLINE
  5
16c
100
AcDbEntity
  8
Layer_1
 62
1
100
AcDbPolyline
 90
2
 70
0
 10
37.159180
 20
118.822715
 30
0.0
 10
37.135707
 20
127.948047
 30
0.0
  0
SPLINE
  5
16d
100
AcDbEntity
  8
Layer_1
 62
1
100
AcDbSpline
 70
8
 71
3
 72
8
 73
4
 74
0
 40
0
 40
0
 40
0
 40
0
 40
1
 40
1
 40
1
 40
1
 10
120.601378
 20
118.821012
 30
0.0
 10
120.601378
 20
117.748097
 30
0.0
 10
120.122032
 20
116.756728
 30
0.0
 10
119.343906
 20
116.220272
 30
0.0
  0
SPLINE
  5
16e
100
AcDbEntity
  8
Layer_1
 62
1
100
AcDbSpline
 70
8
 71
3
 72
8
 73
4
 74
0
 40
0
 40
0
 40
0
 40
0
 40
1
 40
1
 40
1
 40
1
 10
119.343906
 20
116.220272
 30
0.0
 10
118.565779
 20
115.683816
 30
0.0
 10
117.607089
 20
115.683816
 30
0.0
 10
116.828962
 20
116.220272
 30
0.0
  0
SPLINE
  5
16f
100
AcDbEntity
  8
Layer_1
 62
1
100
AcDbSpline
 70
8
 71
3
 72
8
 73
4
 74
0
 40
0
 40
0
 40
0
 40
0
 40
1
 40
1
 40
1
 40
1
 10
116.828962
 20
116.220272
 30
0.0
 10
116.050833
 20
116.756728
 30
0.0
 10
115.571681
 20
117.748142
 30
0.0
 10
115.571681
 20
118.821057
 30
0.0
  0
LWPOLYLINE
  5
170
100
AcDbEntity
  8
Layer_1
 62
1
100
AcDbPolyline
 90
2
 70
0
 10
42.188888
 20
118.822331
 30
0.0
 10
42.142123
 20
127.947045
 30
0.0
  0
LWPOLYLINE
  5
171
100
AcDbEntity
  8
Layer_1
 62
1
100
AcDbPolyline
 90
2
 70
0
 10
115.571681
 20
118.822715
 30
0.0
 10
115.548207
 20
127.948047
 30
0.0
  0
SPLINE
  5
172
100
AcDbEntity
  8
Layer_1
 62
1
100
AcDbSpline
 70
8
 71
3
 72
8
 73
4
 74
0
 40
0
 40
0
 40
0
 40
0
 40
1
 40
1
 40
1
 40
1
 10
-36.752789
 20
118.821012
 30
0.0
 10
-36.752789
 20
117.748097
 30
0.0
 10
-37.232134
 20
116.756728
 30
0.0
 10
-38.010261
 20
116.220272
 30
0.0
  0
SPLINE
  5
173
100
AcDbEntity
  8
Layer_1
 62
1
100
AcDbSpline
 70
8
 71
3
 72
8
 73
4
 74
0
 40
0
 40
0
 40
0
 40
0
 40
1
 40
1
 40
1
 40
1
 10
-38.010261
 20
116.220272
 30
0.0
 10
-38.788387
 20
115.683816
 30
0.0
 10
-39.747078
 20
115.683816
 30
0.0
 10
-40.525205
 20
116.220272
 30
0.0
  0
SPLINE
  5
174
100
AcDbEntity
  8
Layer_1
 62
1
100
AcDbSpline
 70
8
 71
3
 72
8
 73
4
 74
0
 40
0
 40
0
 40
0
 40
0
 40
1
 40
1
 40
1
 40
1
 10
-40.525205
 20
116.220272
 30
0.0
 10
-41.303334
 20
116.756728
 30
0.0
 10
-41.782486
 20
117.748142
 30
0.0
 10
-41.782486
 20
118.821057
 30
0.0
  0
LWPOLYLINE
  5
175
100
AcDbEntity
  8
Layer_1
 62
1
100
AcDbPolyline
 90
2
 70
0
 10
120.601389
 20
118.822331
 30
0.0
 10
120.554624
 20
127.947045
 30
0.0
  0
LWPOLYLINE
  5
176
100
AcDbEntity
  8
Layer_1
 62
1
100
AcDbPolyline
 90
2
 70
0
 10
-41.782486
 20
118.822715
 30
0.0
 10
-41.805959
 20
127.948047
 30
0.0
  0
SPLINE
  5
177
100
AcDbEntity
  8
Layer_1
 62
1
100
AcDbSpline
 70
8
 71
3
 72
8
 73
4
 74
0
 40
0
 40
0
 40
0
 40
0
 40
1
 40
1
 40
1
 40
1
 10
-115.165288
 20
118.821012
 30
0.0
 10
-115.165288
 20
117.748097
 30
0.0
 10
-115.644633
 20
116.756728
 30
0.0
 10
-116.422759
 20
116.220272
 30
0.0
  0
SPLINE
  5
178
100
AcDbEntity
  8
Layer_1
 62
1
100
AcDbSpline
 70
8
 71
3
 72
8
 73
4
 74
0
 40
0
 40
0
 40
0
 40
0
 40
1
 40
1
 40
1
 40
1
 10
-116.422759
 20
116.220272
 30
0.0
 10
-117.200886
 20
115.683816
 30
0.0
 10
-118.159577
 20
115.683816
 30
0.0
 10
-118.937703
 20
116.220272
 30
0.0
  0
SPLINE
  5
179
100
AcDbEntity
  8
Layer_1
 62
1
100
AcDbSpline
 70
8
 71
3
 72
8
 73
4
 74
0
 40
0
 40
0
 40
0
 40
0
 40
1
 40
1
 40
1
 40
1
 10
-118.937703
 20
116.220272
 30
0.0
 10
-119.715832
 20
116.756728
 30
0.0
 10
-120.194984
 20
117.748142
 30
0.0
 10
-120.194984
 20
118.821057
 30
0.0
  0
LWPOLYLINE
  5
17a
100
AcDbEntity
  8
Layer_1
 62
1
100
AcDbPolyline
 90
2
 70
0
 10
-36.752778
 20
118.822331
 30
0.0
 10
-36.799543
 20
127.947045
 30
0.0
  0
LWPOLYLINE
  5
17b
100
AcDbEntity
  8
Layer_1
 62
1
100
AcDbPolyline
 90
2
 70
0
 10
-120.194984
 20
118.822715
 30
0.0
 10
-120.218458
 20
127.948047
 30
0.0
  0
SPLINE
  5
17c
100
AcDbEntity
  8
Layer_1
 62
1
100
AcDbSpline
 70
8
 71
3
 72
8
 73
4
 74
0
 40
0
 40
0
 40
0
 40
0
 40
1
 40
1
 40
1
 40
1
 10
-137.152698
 20
142.436193
 30
0.0
 10
-148.233961
 20
142.323118
 30
0.0
 10
-149.388846
 20
144.277118
 30
0.0
 10
-143.946139
 20
153.930309
 30
0.0
  0
SPLINE
  5
17d
100
AcDbEntity
  8
Layer_1
 62
1
100
AcDbSpline
 70
8
 71
3
 72
8
 73
4
 74
0
 40
0
 40
0
 40
0
 40
0
 40
1
 40
1
 40
1
 40
1
 10
-143.946139
 20
153.930309
 30
0.0
 10
-138.503432
 20
163.583502
 30
0.0
 10
-136.233776
 20
163.606661
 30
0.0
 10
-130.595219
 20
154.066543
 30
0.0
  0
SPLINE
  5
17e
100
AcDbEntity
  8
Layer_1
 62
1
100
AcDbSpline
 70
8
 71
3
 72
8
 73
4
 74
0
 40
0
 40
0
 40
0
 40
0
 40
1
 40
1
 40
1
 40
1
 10
-130.595219
 20
154.066543
 30
0.0
 10
-124.956665
 20
144.526425
 30
0.0
 10
-126.071434
 20
142.549265
 30
0.0
 10
-137.152698
 20
142.436193
 30
0.0
  0
LWPOLYLINE
  5
17f
100
AcDbEntity
  8
Layer_1
 62
1
100
AcDbPolyline
 90
2
 70
0
 10
-115.165276
 20
118.822331
 30
0.0
 10
-115.212042
 20
127.947045
 30
0.0
  0
SPLINE
  5
180
100
AcDbEntity
  8
Layer_1
 62
1
100
AcDbSpline
 70
8
 71
3
 72
8
 73
4
 74
0
 40
0
 40
0
 40
0
 40
0
 40
1
 40
1
 40
1
 40
1
 10
-117.952023
 20
161.520144
 30
0.0
 10
-106.870762
 20
161.633216
 30
0.0
 10
-105.715877
 20
159.679218
 30
0.0
 10
-111.158581
 20
150.026025
 30
0.0
  0
SPLINE
  5
181
100
AcDbEntity
  8
Layer_1
 62
1
100
AcDbSpline
 70
8
 71
3
 72
8
 73
4
 74
0
 40
0
 40
0
 40
0
 40
0
 40
1
 40
1
 40
1
 40
1
 10
-111.158581
 20
150.026025
 30
0.0
 10
-116.601288
 20
140.372834
 30
0.0
 10
-118.870944
 20
140.349672
 30
0.0
 10
-124.509501
 20
149.889791
 30
0.0
  0
SPLINE
  5
182
100
AcDbEntity
  8
Layer_1
 62
1
100
AcDbSpline
 70
8
 71
3
 72
8
 73
4
 74
0
 40
0
 40
0
 40
0
 40
0
 40
1
 40
1
 40
1
 40
1
 10
-124.509501
 20
149.889791
 30
0.0
 10
-130.148057
 20
159.429909
 30
0.0
 10
-129.033286
 20
161.407069
 30
0.0
 10
-117.952023
 20
161.520144
 30
0.0
  0
LWPOLYLINE
  5
183
100
AcDbEntity
  8
Layer_1
 62
1
100
AcDbPolyline
 90
1
 70
1
 10
-137.152698
 20
142.436193
 30
0.0
  0
SPLINE
  5
184
100
AcDbEntity
  8
Layer_1
 62
1
100
AcDbSpline
 70
8
 71
3
 72
8
 73
4
 74
0
 40
0
 40
0
 40
0
 40
0
 40
1
 40
1
 40
1
 40
1
 10
-98.523531
 20
142.436193
 30
0.0
 10
-109.604794
 20
142.323118
 30
0.0
 10
-110.759679
 20
144.277118
 30
0.0
 10
-105.316973
 20
153.930309
 30
0.0
  0
SPLINE
  5
185
100
AcDbEntity
  8
Layer_1
 62
1
100
AcDbSpline
 70
8
 71
3
 72
8
 73
4
 74
0
 40
0
 40
0
 40
0
 40
0
 40
1
 40
1
 40
1
 40
1
 10
-105.316973
 20
153.930309
 30
0.0
 10
-99.874266
 20
163.583502
 30
0.0
 10
-97.604609
 20
163.606661
 30
0.0
 10
-91.966053
 20
154.066543
 30
0.0
  0
SPLINE
  5
186
100
AcDbEntity
  8
Layer_1
 62
1
100
AcDbSpline
 70
8
 71
3
 72
8
 73
4
 74
0
 40
0
 40
0
 40
0
 40
0
 40
1
 40
1
 40
1
 40
1
 10
-91.966053
 20
154.066543
 30
0.0
 10
-86.327499
 20
144.526425
 30
0.0
 10
-87.442268
 20
142.549265
 30
0.0
 10
-98.523531
 20
142.436193
 30
0.0
  0
LWPOLYLINE
  5
187
100
AcDbEntity
  8
Layer_1
 62
1
100
AcDbPolyline
 90
1
 70
1
 10
-117.952023
 20
161.520144
 30
0.0
  0
SPLINE
  5
188
100
AcDbEntity
  8
Layer_1
 62
1
100
AcDbSpline
 70
8
 71
3
 72
8
 73
4
 74
0
 40
0
 40
0
 40
0
 40
0
 40
1
 40
1
 40
1
 40
1
 10
-79.322856
 20
161.520144
 30
0.0
 10
-68.241595
 20
161.633216
 30
0.0
 10
-67.086710
 20
159.679218
 30
0.0
 10
-72.529414
 20
150.026025
 30
0.0
  0
SPLINE
  5
189
100
AcDbEntity
  8
Layer_1
 62
1
100
AcDbSpline
 70
8
 71
3
 72
8
 73
4
 74
0
 40
0
 40
0
 40
0
 40
0
 40
1
 40
1
 40
1
 40
1
 10
-72.529414
 20
150.026025
 30
0.0
 10
-77.972121
 20
140.372834
 30
0.0
 10
-80.241778
 20
140.349672
 30
0.0
 10
-85.880334
 20
149.889791
 30
0.0
  0
SPLINE
  5
18a
100
AcDbEntity
  8
Layer_1
 62
1
100
AcDbSpline
 70
8
 71
3
 72
8
 73
4
 74
0
 40
0
 40
0
 40
0
 40
0
 40
1
 40
1
 40
1
 40
1
 10
-85.880334
 20
149.889791
 30
0.0
 10
-91.518891
 20
159.429909
 30
0.0
 10
-90.404119
 20
161.407069
 30
0.0
 10
-79.322856
 20
161.520144
 30
0.0
  0
LWPOLYLINE
  5
18b
100
AcDbEntity
  8
Layer_1
 62
1
100
AcDbPolyline
 90
1
 70
1
 10
-98.523531
 20
142.436193
 30
0.0
  0
SPLINE
  5
18c
100
AcDbEntity
  8
Layer_1
 62
1
100
AcDbSpline
 70
8
 71
3
 72
8
 73
4
 74
0
 40
0
 40
0
 40
0
 40
0
 40
1
 40
1
 40
1
 40
1
 10
-59.894364
 20
142.436193
 30
0.0
 10
-70.975627
 20
142.323118
 30
0.0
 10
-72.130513
 20
144.277118
 30
0.0
 10
-66.687806
 20
153.930309
 30
0.0
  0
SPLINE
  5
18d
100
AcDbEntity
  8
Layer_1
 62
1
100
AcDbSpline
 70
8
 71
3
 72
8
 73
4
 74
0
 40
0
 40
0
 40
0
 40
0
 40
1
 40
1
 40
1
 40
1
 10
-66.687806
 20
153.930309
 30
0.0
 10
-61.245099
 20
163.583502
 30
0.0
 10
-58.975442
 20
163.606661
 30
0.0
 10
-53.336886
 20
154.066543
 30
0.0
  0
SPLINE
  5
18e
100
AcDbEntity
  8
Layer_1
 62
1
100
AcDbSpline
 70
8
 71
3
 72
8
 73
4
 74
0
 40
0
 40
0
 40
0
 40
0
 40
1
 40
1
 40
1
 40
1
 10
-53.336886
 20
154.066543
 30
0.0
 10
-47.698332
 20
144.526425
 30
0.0
 10
-48.813101
 20
142.549265
 30
0.0
 10
-59.894364
 20
142.436193
 30
0.0
  0
LWPOLYLINE
  5
18f
100
AcDbEntity
  8
Layer_1
 62
1
100
AcDbPolyline
 90
1
 70
1
 10
-79.322856
 20
161.520144
 30
0.0
  0
SPLINE
  5
190
100
AcDbEntity
  8
Layer_1
 62
1
100
AcDbSpline
 70
8
 71
3
 72
8
 73
4
 74
0
 40
0
 40
0
 40
0
 40
0
 40
1
 40
1
 40
1
 40
1
 10
-40.693689
 20
161.520144
 30
0.0
 10
-29.612429
 20
161.633216
 30
0.0
 10
-28.457544
 20
159.679218
 30
0.0
 10
-33.900248
 20
150.026025
 30
0.0
  0
SPLINE
  5
191
100
AcDbEntity
  8
Layer_1
 62
1
100
AcDbSpline
 70
8
 71
3
 72
8
 73
4
 74
0
 40
0
 40
0
 40
0
 40
0
 40
1
 40
1
 40
1
 40
1
 10
-33.900248
 20
150.026025
 30
0.0
 10
-39.342954
 20
140.372834
 30
0.0
 10
-41.612611
 20
140.349672
 30
0.0
 10
-47.251168
 20
149.889791
 30
0.0
  0
SPLINE
  5
192
100
AcDbEntity
  8
Layer_1
 62
1
100
AcDbSpline
 70
8
 71
3
 72
8
 73
4
 74
0
 40
0
 40
0
 40
0
 40
0
 40
1
 40
1
 40
1
 40
1
 10
-47.251168
 20
149.889791
 30
0.0
 10
-52.889724
 20
159.429909
 30
0.0
 10
-51.774953
 20
161.407069
 30
0.0
 10
-40.693689
 20
161.520144
 30
0.0
  0
LWPOLYLINE
  5
193
100
AcDbEntity
  8
Layer_1
 62
1
100
AcDbPolyline
 90
1
 70
1
 10
-59.894364
 20
142.436193
 30
0.0
  0
SPLINE
  5
194
100
AcDbEntity
  8
Layer_1
 62
1
100
AcDbSpline
 70
8
 71
3
 72
8
 73
4
 74
0
 40
0
 40
0
 40
0
 40
0
 40
1
 40
1
 40
1
 40
1
 10
-21.265198
 20
142.436193
 30
0.0
 10
-32.346461
 20
142.323118
 30
0.0
 10
-33.501346
 20
144.277118
 30
0.0
 10
-28.058639
 20
153.930309
 30
0.0
  0
SPLINE
  5
195
100
AcDbEntity
  8
Layer_1
 62
1
100
AcDbSpline
 70
8
 71
3
 72
8
 73
4
 74
0
 40
0
 40
0
 40
0
 40
0
 40
1
 40
1
 40
1
 40
1
 10
-28.058639
 20
153.930309
 30
0.0
 10
-22.615932
 20
163.583502
 30
0.0
 10
-20.346276
 20
163.606661
 30
0.0
 10
-14.707719
 20
154.066543
 30
0.0
  0
SPLINE
  5
196
100
AcDbEntity
  8
Layer_1
 62
1
100
AcDbSpline
 70
8
 71
3
 72
8
 73
4
 74
0
 40
0
 40
0
 40
0
 40
0
 40
1
 40
1
 40
1
 40
1
 10
-14.707719
 20
154.066543
 30
0.0
 10
-9.069165
 20
144.526425
 30
0.0
 10
-10.183934
 20
142.549265
 30
0.0
 10
-21.265198
 20
142.436193
 30
0.0
  0
LWPOLYLINE
  5
197
100
AcDbEntity
  8
Layer_1
 62
1
100
AcDbPolyline
 90
1
 70
1
 10
-40.693689
 20
161.520144
 30
0.0
  0
SPLINE
  5
198
100
AcDbEntity
  8
Layer_1
 62
1
100
AcDbSpline
 70
8
 71
3
 72
8
 73
4
 74
0
 40
0
 40
0
 40
0
 40
0
 40
1
 40
1
 40
1
 40
1
 10
-2.064523
 20
161.520144
 30
0.0
 10
9.016738
 20
161.633216
 30
0.0
 10
10.171623
 20
159.679218
 30
0.0
 10
4.728919
 20
150.026025
 30
0.0
  0
SPLINE
  5
199
100
AcDbEntity
  8
Layer_1
 62
1
100
AcDbSpline
 70
8
 71
3
 72
8
 73
4
 74
0
 40
0
 40
0
 40
0
 40
0
 40
1
 40
1
 40
1
 40
1
 10
4.728919
 20
150.026025
 30
0.0
 10
-0.713788
 20
140.372834
 30
0.0
 10
-2.983444
 20
140.349672
 30
0.0
 10
-8.622001
 20
149.889791
 30
0.0
  0
SPLINE
  5
19a
100
AcDbEntity
  8
Layer_1
 62
1
100
AcDbSpline
 70
8
 71
3
 72
8
 73
4
 74
0
 40
0
 40
0
 40
0
 40
0
 40
1
 40
1
 40
1
 40
1
 10
-8.622001
 20
149.889791
 30
0.0
 10
-14.260557
 20
159.429909
 30
0.0
 10
-13.145786
 20
161.407069
 30
0.0
 10
-2.064523
 20
161.520144
 30
0.0
  0
LWPOLYLINE
  5
19b
100
AcDbEntity
  8
Layer_1
 62
1
100
AcDbPolyline
 90
1
 70
1
 10
-21.265198
 20
142.436193
 30
0.0
  0
SPLINE
  5
19c
100
AcDbEntity
  8
Layer_1
 62
1
100
AcDbSpline
 70
8
 71
3
 72
8
 73
4
 74
0
 40
0
 40
0
 40
0
 40
0
 40
1
 40
1
 40
1
 40
1
 10
17.363969
 20
142.436193
 30
0.0
 10
6.282706
 20
142.323118
 30
0.0
 10
5.127821
 20
144.277118
 30
0.0
 10
10.570527
 20
153.930309
 30
0.0
  0
SPLINE
  5
19d
100
AcDbEntity
  8
Layer_1
 62
1
100
AcDbSpline
 70
8
 71
3
 72
8
 73
4
 74
0
 40
0
 40
0
 40
0
 40
0
 40
1
 40
1
 40
1
 40
1
 10
10.570527
 20
153.930309
 30
0.0
 10
16.013234
 20
163.583502
 30
0.0
 10
18.282891
 20
163.606661
 30
0.0
 10
23.921447
 20
154.066543
 30
0.0
  0
SPLINE
  5
19e
100
AcDbEntity
  8
Layer_1
 62
1
100
AcDbSpline
 70
8
 71
3
 72
8
 73
4
 74
0
 40
0
 40
0
 40
0
 40
0
 40
1
 40
1
 40
1
 40
1
 10
23.921447
 20
154.066543
 30
0.0
 10
29.560001
 20
144.526425
 30
0.0
 10
28.445232
 20
142.549265
 30
0.0
 10
17.363969
 20
142.436193
 30
0.0
  0
LWPOLYLINE
  5
19f
100
AcDbEntity
  8
Layer_1
 62
1
100
AcDbPolyline
 90
1
 70
1
 10
-2.064523
 20
161.520144
 30
0.0
  0
SPLINE
  5
1a0
100
AcDbEntity
  8
Layer_1
 62
1
100
AcDbSpline
 70
8
 71
3
 72
8
 73
4
 74
0
 40
0
 40
0
 40
0
 40
0
 40
1
 40
1
 40
1
 40
1
 10
36.564644
 20
161.520144
 30
0.0
 10
47.645905
 20
161.633216
 30
0.0
 10
48.800790
 20
159.679218
 30
0.0
 10
43.358086
 20
150.026025
 30
0.0
  0
SPLINE
  5
1a1
100
AcDbEntity
  8
Layer_1
 62
1
100
AcDbSpline
 70
8
 71
3
 72
8
 73
4
 74
0
 40
0
 40
0
 40
0
 40
0
 40
1
 40
1
 40
1
 40
1
 10
43.358086
 20
150.026025
 30
0.0
 10
37.915379
 20
140.372834
 30
0.0
 10
35.645722
 20
140.349672
 30
0.0
 10
30.007166
 20
149.889791
 30
0.0
  0
SPLINE
  5
1a2
100
AcDbEntity
  8
Layer_1
 62
1
100
AcDbSpline
 70
8
 71
3
 72
8
 73
4
 74
0
 40
0
 40
0
 40
0
 40
0
 40
1
 40
1
 40
1
 40
1
 10
30.007166
 20
149.889791
 30
0.0
 10
24.368609
 20
159.429909
 30
0.0
 10
25.483381
 20
161.407069
 30
0.0
 10
36.564644
 20
161.520144
 30
0.0
  0
LWPOLYLINE
  5
1a3
100
AcDbEntity
  8
Layer_1
 62
1
100
AcDbPolyline
 90
1
 70
1
 10
17.363969
 20
142.436193
 30
0.0
  0
SPLINE
  5
1a4
100
AcDbEntity
  8
Layer_1
 62
1
100
AcDbSpline
 70
8
 71
3
 72
8
 73
4
 74
0
 40
0
 40
0
 40
0
 40
0
 40
1
 40
1
 40
1
 40
1
 10
55.993136
 20
142.436193
 30
0.0
 10
44.911873
 20
142.323118
 30
0.0
 10
43.756987
 20
144.277118
 30
0.0
 10
49.199694
 20
153.930309
 30
0.0
  0
SPLINE
  5
1a5
100
AcDbEntity
  8
Layer_1
 62
1
100
AcDbSpline
 70
8
 71
3
 72
8
 73
4
 74
0
 40
0
 40
0
 40
0
 40
0
 40
1
 40
1
 40
1
 40
1
 10
49.199694
 20
153.930309
 30
0.0
 10
54.642401
 20
163.583502
 30
0.0
 10
56.912058
 20
163.606661
 30
0.0
 10
62.550614
 20
154.066543
 30
0.0
  0
SPLINE
  5
1a6
100
AcDbEntity
  8
Layer_1
 62
1
100
AcDbSpline
 70
8
 71
3
 72
8
 73
4
 74
0
 40
0
 40
0
 40
0
 40
0
 40
1
 40
1
 40
1
 40
1
 10
62.550614
 20
154.066543
 30
0.0
 10
68.189168
 20
144.526425
 30
0.0
 10
67.074399
 20
142.549265
 30
0.0
 10
55.993136
 20
142.436193
 30
0.0
  0
LWPOLYLINE
  5
1a7
100
AcDbEntity
  8
Layer_1
 62
1
100
AcDbPolyline
 90
1
 70
1
 10
36.564644
 20
161.520144
 30
0.0
  0
LWPOLYLINE
  5
1a8
100
AcDbEntity
  8
Layer_1
 62
1
100
AcDbPolyline
 90
1
 70
1
 10
55.993136
 20
142.436193
 30
0.0
  0
ENDSEC
  0
SECTION
  2
OBJECTS
  0
DICTIONARY
  5
C
330
0
100
AcDbDictionary
  3
ACAD_GROUP
350
D
  3
ACAD_MLINESTYLE
350
17
  0
DICTIONARY
  5
D
330
C
100
AcDbDictionary
  0
DICTIONARY
  5
1A
330
C
100
AcDbDictionary
  0
DICTIONARY
  5
17
330
C
100
AcDbDictionary
  3
STANDARD
350
18
  0
DICTIONARY
  5
19
330
C
100
AcDbDictionary
  0
ENDSEC
  0
EOF
