  0
SECTION
  2
HEADER
  9
$ACADVER
  1
AC1014
  9
$HANDSEED
  5
FFFF
  9
$MEASUREMENT
 70
     1
  0
ENDSEC
  0
SECTION
  2
TABLES
  0
TABLE
  2
VPORT
  5
8
330
0
100
AcDbSymbolTable
 70
     4
  0
VPORT
  5
2E
330
8
100
AcDbSymbolTableRecord
100
AcDbViewportTableRecord
  2
*ACTIVE
 70
     0
 10
0.0
 20
0.0
 11
1.0
 21
1.0
 12
210.0
 22
148.5
 13
0.0
 23
0.0
 14
10.0
 24
10.0
 15
10.0
 25
10.0
 16
0.0
 26
0.0
 36
1.0
 17
0.0
 27
0.0
 37
0.0
 40
341.0
 41
1.24
 42
50.0
 43
0.0
 44
0.0
 50
0.0
 51
0.0
 71
     0
 72
   100
 73
     1
 74
     3
 75
     0
 76
     0
 77
     0
 78
     0
  0
ENDTAB
  0
TABLE
  2
LTYPE
  5
5
330
0
100
AcDbSymbolTable
 70
     1
  0
LTYPE
  5
14
330
5
100
AcDbSymbolTableRecord
100
AcDbLinetypeTableRecord
  2
BYBLOCK
 70
     0
  3

 72
    65
 73
     0
 40
0.0
  0
LTYPE
  5
15
330
5
100
AcDbSymbolTableRecord
100
AcDbLinetypeTableRecord
  2
BYLAYER
 70
     0
  3

 72
    65
 73
     0
 40
0.0
  0
LTYPE
  5
16
330
5
100
AcDbSymbolTableRecord
100
AcDbLinetypeTableRecord
  2
CONTINUOUS
 70
     0
  3
Solid line
 72
    65
 73
     0
 40
0.0
  0
ENDTAB
  0
TABLE
  2
LAYER
  5
2
100
AcDbSymbolTable
 70
2
  0
LAYER
  5
50
100
AcDbSymbolTableRecord
100
AcDbLayerTableRecord
  2
0
 70
0
  6
CONTINUOUS
  0
LAYER
  5
51
100
AcDbSymbolTableRecord
100
AcDbLayerTableRecord
  2
Layer_1
 70
0
  6
CONTINUOUS
  0
ENDTAB
  0
TABLE
  2
STYLE
  5
3
330
0
100
AcDbSymbolTable
 70
     1
  0
STYLE
  5
11
330
3
100
AcDbSymbolTableRecord
100
AcDbTextStyleTableRecord
  2
STANDARD
 70
     0
 40
0.0
 41
1.0
 50
0.0
 71
     0
 42
2.5
  3
txt
  4

  0
ENDTAB
  0
TABLE
  2
VIEW
  5
6
330
0
100
AcDbSymbolTable
 70
     0
  0
ENDTAB
  0
TABLE
  2
UCS
  5
7
330
0
100
AcDbSymbolTable
 70
     0
  0
ENDTAB
  0
TABLE
  2
APPID
  5
9
330
0
100
AcDbSymbolTable
 70
     2
  0
APPID
  5
12
330
9
100
AcDbSymbolTableRecord
100
AcDbRegAppTableRecord
  2
ACAD
 70
     0
  0
ENDTAB
  0
TABLE
  2
DIMSTYLE
  5
A
330
0
100
AcDbSymbolTable
 70
     1
  0
DIMSTYLE
105
27
330
A
100
AcDbSymbolTableRecord
100
AcDbDimStyleTableRecord
  2
ISO-25
 70
     0
  3

  4

  5

  6

  7

 40
1.0
 41
2.5
 42
0.625
 43
3.75
 44
1.25
 45
0.0
 46
0.0
 47
0.0
 48
0.0
140
2.5
141
2.5
142
0.0
143
0.03937007874016
144
1.0
145
0.0
146
1.0
147
0.625
 71
     0
 72
     0
 73
     0
 74
     0
 75
     0
 76
     0
 77
     1
 78
     8
170
     0
171
     3
172
     1
173
     0
174
     0
175
     0
176
     0
177
     0
178
     0
270
     2
271
     2
272
     2
273
     2
274
     3
340
11
275
     0
280
     0
281
     0
282
     0
283
     0
284
     8
285
     0
286
     0
287
     3
288
     0
  0
ENDTAB
  0
TABLE
  2
BLOCK_RECORD
  5
1
330
0
100
AcDbSymbolTable
 70
     1
  0
BLOCK_RECORD
  5
1F
330
1
100
AcDbSymbolTableRecord
100
AcDbBlockTableRecord
  2
*MODEL_SPACE
  0
BLOCK_RECORD
  5
1B
330
1
100
AcDbSymbolTableRecord
100
AcDbBlockTableRecord
  2
*PAPER_SPACE
  0
ENDTAB
  0
ENDSEC
  0
SECTION
  2
BLOCKS
  0
BLOCK
  5
20
330
1F
100
AcDbEntity
  8
0
100
AcDbBlockBegin
  2
*MODEL_SPACE
 70
     0
 10
0.0
 20
0.0
 30
0.0
  3
*MODEL_SPACE
  1

  0
ENDBLK
  5
21
330
1F
100
AcDbEntity
  8
0
100
AcDbBlockEnd
  0
BLOCK
  5
1C
330
1B
100
AcDbEntity
 67
     1
  8
0
100
AcDbBlockBegin
  2
*PAPER_SPACE
  1

  0
ENDBLK
  5
1D
330
1B
100
AcDbEntity
 67
     1
  8
0
100
AcDbBlockEnd
  0
ENDSEC
  0
SECTION
  2
ENTITIES
  0
SPLINE
  5
100
100
AcDbEntity
  8
Layer_1
 62
7
100
AcDbSpline
 70
8
 71
3
 72
8
 73
4
 74
0
 40
0
 40
0
 40
0
 40
0
 40
1
 40
1
 40
1
 40
1
 10
-104.809073
 20
135.176568
 30
0.0
 10
-107.579062
 20
135.176568
 30
0.0
 10
-109.808761
 20
132.946850
 30
0.0
 10
-109.808761
 20
130.176840
 30
0.0
  0
SPLINE
  5
101
100
AcDbEntity
  8
Layer_1
 62
7
100
AcDbSpline
 70
8
 71
3
 72
8
 73
4
 74
0
 40
0
 40
0
 40
0
 40
0
 40
1
 40
1
 40
1
 40
1
 10
-109.808761
 20
115.176640
 30
0.0
 10
-109.808761
 20
112.406630
 30
0.0
 10
-107.579062
 20
110.176399
 30
0.0
 10
-104.809073
 20
110.176399
 30
0.0
  0
LWPOLYLINE
  5
102
100
AcDbEntity
  8
Layer_1
 62
3
100
AcDbPolyline
 90
4
 70
0
 10
136.608926
 20
139.308971
 30
0.0
 10
136.608926
 20
135.176568
 30
0.0
 10
-113.891946
 20
135.177097
 30
0.0
 10
-142.551944
 20
135.177153
 30
0.0
  0
SPLINE
  5
103
100
AcDbEntity
  8
Layer_1
 62
7
100
AcDbSpline
 70
8
 71
3
 72
8
 73
4
 74
0
 40
0
 40
0
 40
0
 40
0
 40
1
 40
1
 40
1
 40
1
 10
185.190916
 20
110.176399
 30
0.0
 10
187.960926
 20
110.176399
 30
0.0
 10
190.191115
 20
112.406630
 30
0.0
 10
190.191115
 20
115.176640
 30
0.0
  0
LWPOLYLINE
  5
104
100
AcDbEntity
  8
Layer_1
 62
7
100
AcDbPolyline
 90
3
 70
0
 10
-142.420073
 20
139.308902
 30
0.0
 10
-113.577328
 20
139.308902
 30
0.0
 10
136.608926
 20
139.308902
 30
0.0
  0
SPLINE
  5
105
100
AcDbEntity
  8
Layer_1
 62
7
100
AcDbSpline
 70
8
 71
3
 72
8
 73
4
 74
0
 40
0
 40
0
 40
0
 40
0
 40
1
 40
1
 40
1
 40
1
 10
190.191115
 20
130.176840
 30
0.0
 10
190.191115
 20
132.453360
 30
0.0
 10
188.683736
 20
134.361959
 30
0.0
 10
186.609426
 20
134.970889
 30
0.0
  0
LWPOLYLINE
  5
106
100
AcDbEntity
  8
Layer_1
 62
7
100
AcDbPolyline
 90
2
 70
0
 10
-109.808761
 20
130.176840
 30
0.0
 10
-109.808761
 20
115.176640
 30
0.0
  0
SPLINE
  5
107
100
AcDbEntity
  8
Layer_1
 62
7
100
AcDbSpline
 70
8
 71
3
 72
8
 73
4
 74
0
 40
0
 40
0
 40
0
 40
0
 40
1
 40
1
 40
1
 40
1
 10
186.609426
 20
139.522058
 30
0.0
 10
188.669287
 20
140.139919
 30
0.0
 10
190.162707
 20
142.043059
 30
0.0
 10
190.162707
 20
144.309390
 30
0.0
  0
LWPOLYLINE
  5
108
100
AcDbEntity
  8
Layer_1
 62
7
100
AcDbPolyline
 90
2
 70
0
 10
-104.809073
 20
110.175970
 30
0.0
 10
185.190916
 20
110.176499
 30
0.0
  0
SPLINE
  5
109
100
AcDbEntity
  8
Layer_1
 62
7
100
AcDbSpline
 70
8
 71
3
 72
8
 73
4
 74
0
 40
0
 40
0
 40
0
 40
0
 40
1
 40
1
 40
1
 40
1
 10
190.162707
 20
159.252749
 30
0.0
 10
190.162707
 20
162.022770
 30
0.0
 10
187.933036
 20
164.252480
 30
0.0
 10
185.163005
 20
164.252480
 30
0.0
  0
LWPOLYLINE
  5
10a
100
AcDbEntity
  8
Layer_1
 62
7
100
AcDbPolyline
 90
2
 70
0
 10
190.191115
 20
115.176640
 30
0.0
 10
190.191115
 20
130.176840
 30
0.0
  0
LWPOLYLINE
  5
10b
100
AcDbEntity
  8
Layer_1
 62
7
100
AcDbPolyline
 90
2
 70
0
 10
186.609426
 20
134.970889
 30
0.0
 10
186.609426
 20
139.522058
 30
0.0
  0
SPLINE
  5
10c
100
AcDbEntity
  8
Layer_1
 62
1
100
AcDbSpline
 70
8
 71
3
 72
8
 73
4
 74
0
 40
0
 40
0
 40
0
 40
0
 40
1
 40
1
 40
1
 40
1
 10
172.808826
 20
123.369145
 30
0.0
 10
172.808826
 20
124.430011
 30
0.0
 10
173.230254
 20
125.447429
 30
0.0
 10
173.980398
 20
126.197573
 30
0.0
  0
SPLINE
  5
10d
100
AcDbEntity
  8
Layer_1
 62
1
100
AcDbSpline
 70
8
 71
3
 72
8
 73
4
 74
0
 40
0
 40
0
 40
0
 40
0
 40
1
 40
1
 40
1
 40
1
 10
173.980398
 20
126.197573
 30
0.0
 10
174.730545
 20
126.947720
 30
0.0
 10
175.747960
 20
127.369145
 30
0.0
 10
176.808826
 20
127.369145
 30
0.0
  0
SPLINE
  5
10e
100
AcDbEntity
  8
Layer_1
 62
1
100
AcDbSpline
 70
8
 71
3
 72
8
 73
4
 74
0
 40
0
 40
0
 40
0
 40
0
 40
1
 40
1
 40
1
 40
1
 10
176.808826
 20
127.369145
 30
0.0
 10
177.869691
 20
127.369145
 30
0.0
 10
178.887107
 20
126.947720
 30
0.0
 10
179.637253
 20
126.197573
 30
0.0
  0
SPLINE
  5
10f
100
AcDbEntity
  8
Layer_1
 62
1
100
AcDbSpline
 70
8
 71
3
 72
8
 73
4
 74
0
 40
0
 40
0
 40
0
 40
0
 40
1
 40
1
 40
1
 40
1
 10
179.637253
 20
126.197573
 30
0.0
 10
180.387400
 20
125.447429
 30
0.0
 10
180.808826
 20
124.430011
 30
0.0
 10
180.808826
 20
123.369145
 30
0.0
  0
SPLINE
  5
110
100
AcDbEntity
  8
Layer_1
 62
1
100
AcDbSpline
 70
8
 71
3
 72
8
 73
4
 74
0
 40
0
 40
0
 40
0
 40
0
 40
1
 40
1
 40
1
 40
1
 10
180.808826
 20
123.369145
 30
0.0
 10
180.808826
 20
122.308280
 30
0.0
 10
180.387400
 20
121.290865
 30
0.0
 10
179.637253
 20
120.540718
 30
0.0
  0
SPLINE
  5
111
100
AcDbEntity
  8
Layer_1
 62
1
100
AcDbSpline
 70
8
 71
3
 72
8
 73
4
 74
0
 40
0
 40
0
 40
0
 40
0
 40
1
 40
1
 40
1
 40
1
 10
179.637253
 20
120.540718
 30
0.0
 10
178.887107
 20
119.790574
 30
0.0
 10
177.869691
 20
119.369145
 30
0.0
 10
176.808826
 20
119.369145
 30
0.0
  0
SPLINE
  5
112
100
AcDbEntity
  8
Layer_1
 62
1
100
AcDbSpline
 70
8
 71
3
 72
8
 73
4
 74
0
 40
0
 40
0
 40
0
 40
0
 40
1
 40
1
 40
1
 40
1
 10
176.808826
 20
119.369145
 30
0.0
 10
175.747960
 20
119.369145
 30
0.0
 10
174.730545
 20
119.790574
 30
0.0
 10
173.980398
 20
120.540718
 30
0.0
  0
SPLINE
  5
113
100
AcDbEntity
  8
Layer_1
 62
1
100
AcDbSpline
 70
8
 71
3
 72
8
 73
4
 74
0
 40
0
 40
0
 40
0
 40
0
 40
1
 40
1
 40
1
 40
1
 10
173.980398
 20
120.540718
 30
0.0
 10
173.230254
 20
121.290865
 30
0.0
 10
172.808826
 20
122.308280
 30
0.0
 10
172.808826
 20
123.369145
 30
0.0
  0
SPLINE
  5
114
100
AcDbEntity
  8
Layer_1
 62
1
100
AcDbSpline
 70
8
 71
3
 72
8
 73
4
 74
0
 40
0
 40
0
 40
0
 40
0
 40
1
 40
1
 40
1
 40
1
 10
172.808826
 20
150.781646
 30
0.0
 10
172.808826
 20
151.842511
 30
0.0
 10
173.230254
 20
152.859927
 30
0.0
 10
173.980398
 20
153.610073
 30
0.0
  0
SPLINE
  5
115
100
AcDbEntity
  8
Layer_1
 62
1
100
AcDbSpline
 70
8
 71
3
 72
8
 73
4
 74
0
 40
0
 40
0
 40
0
 40
0
 40
1
 40
1
 40
1
 40
1
 10
173.980398
 20
153.610073
 30
0.0
 10
174.730545
 20
154.360220
 30
0.0
 10
175.747960
 20
154.781646
 30
0.0
 10
176.808826
 20
154.781646
 30
0.0
  0
SPLINE
  5
116
100
AcDbEntity
  8
Layer_1
 62
1
100
AcDbSpline
 70
8
 71
3
 72
8
 73
4
 74
0
 40
0
 40
0
 40
0
 40
0
 40
1
 40
1
 40
1
 40
1
 10
176.808826
 20
154.781646
 30
0.0
 10
177.869691
 20
154.781646
 30
0.0
 10
178.887107
 20
154.360220
 30
0.0
 10
179.637253
 20
153.610073
 30
0.0
  0
SPLINE
  5
117
100
AcDbEntity
  8
Layer_1
 62
1
100
AcDbSpline
 70
8
 71
3
 72
8
 73
4
 74
0
 40
0
 40
0
 40
0
 40
0
 40
1
 40
1
 40
1
 40
1
 10
179.637253
 20
153.610073
 30
0.0
 10
180.387400
 20
152.859927
 30
0.0
 10
180.808826
 20
151.842511
 30
0.0
 10
180.808826
 20
150.781646
 30
0.0
  0
SPLINE
  5
118
100
AcDbEntity
  8
Layer_1
 62
1
100
AcDbSpline
 70
8
 71
3
 72
8
 73
4
 74
0
 40
0
 40
0
 40
0
 40
0
 40
1
 40
1
 40
1
 40
1
 10
180.808826
 20
150.781646
 30
0.0
 10
180.808826
 20
149.720780
 30
0.0
 10
180.387400
 20
148.703365
 30
0.0
 10
179.637253
 20
147.953218
 30
0.0
  0
SPLINE
  5
119
100
AcDbEntity
  8
Layer_1
 62
1
100
AcDbSpline
 70
8
 71
3
 72
8
 73
4
 74
0
 40
0
 40
0
 40
0
 40
0
 40
1
 40
1
 40
1
 40
1
 10
179.637253
 20
147.953218
 30
0.0
 10
178.887107
 20
147.203074
 30
0.0
 10
177.869691
 20
146.781646
 30
0.0
 10
176.808826
 20
146.781646
 30
0.0
  0
SPLINE
  5
11a
100
AcDbEntity
  8
Layer_1
 62
1
100
AcDbSpline
 70
8
 71
3
 72
8
 73
4
 74
0
 40
0
 40
0
 40
0
 40
0
 40
1
 40
1
 40
1
 40
1
 10
176.808826
 20
146.781646
 30
0.0
 10
175.747960
 20
146.781646
 30
0.0
 10
174.730545
 20
147.203074
 30
0.0
 10
173.980398
 20
147.953218
 30
0.0
  0
SPLINE
  5
11b
100
AcDbEntity
  8
Layer_1
 62
1
100
AcDbSpline
 70
8
 71
3
 72
8
 73
4
 74
0
 40
0
 40
0
 40
0
 40
0
 40
1
 40
1
 40
1
 40
1
 10
173.980398
 20
147.953218
 30
0.0
 10
173.230254
 20
148.703365
 30
0.0
 10
172.808826
 20
149.720780
 30
0.0
 10
172.808826
 20
150.781646
 30
0.0
  0
SPLINE
  5
11c
100
AcDbEntity
  8
Layer_1
 62
1
100
AcDbSpline
 70
8
 71
3
 72
8
 73
4
 74
0
 40
0
 40
0
 40
0
 40
0
 40
1
 40
1
 40
1
 40
1
 10
-98.461364
 20
123.368688
 30
0.0
 10
-98.461364
 20
124.429553
 30
0.0
 10
-98.039936
 20
125.446969
 30
0.0
 10
-97.289789
 20
126.197113
 30
0.0
  0
SPLINE
  5
11d
100
AcDbEntity
  8
Layer_1
 62
1
100
AcDbSpline
 70
8
 71
3
 72
8
 73
4
 74
0
 40
0
 40
0
 40
0
 40
0
 40
1
 40
1
 40
1
 40
1
 10
-97.289789
 20
126.197113
 30
0.0
 10
-96.539645
 20
126.947259
 30
0.0
 10
-95.522230
 20
127.368688
 30
0.0
 10
-94.461364
 20
127.368688
 30
0.0
  0
SPLINE
  5
11e
100
AcDbEntity
  8
Layer_1
 62
1
100
AcDbSpline
 70
8
 71
3
 72
8
 73
4
 74
0
 40
0
 40
0
 40
0
 40
0
 40
1
 40
1
 40
1
 40
1
 10
-94.461364
 20
127.368688
 30
0.0
 10
-93.400496
 20
127.368688
 30
0.0
 10
-92.383081
 20
126.947259
 30
0.0
 10
-91.632937
 20
126.197113
 30
0.0
  0
SPLINE
  5
11f
100
AcDbEntity
  8
Layer_1
 62
1
100
AcDbSpline
 70
8
 71
3
 72
8
 73
4
 74
0
 40
0
 40
0
 40
0
 40
0
 40
1
 40
1
 40
1
 40
1
 10
-91.632937
 20
126.197113
 30
0.0
 10
-90.882790
 20
125.446969
 30
0.0
 10
-90.461364
 20
124.429553
 30
0.0
 10
-90.461364
 20
123.368688
 30
0.0
  0
SPLINE
  5
120
100
AcDbEntity
  8
Layer_1
 62
1
100
AcDbSpline
 70
8
 71
3
 72
8
 73
4
 74
0
 40
0
 40
0
 40
0
 40
0
 40
1
 40
1
 40
1
 40
1
 10
-90.461364
 20
123.368688
 30
0.0
 10
-90.461364
 20
122.307820
 30
0.0
 10
-90.882790
 20
121.290404
 30
0.0
 10
-91.632937
 20
120.540260
 30
0.0
  0
SPLINE
  5
121
100
AcDbEntity
  8
Layer_1
 62
1
100
AcDbSpline
 70
8
 71
3
 72
8
 73
4
 74
0
 40
0
 40
0
 40
0
 40
0
 40
1
 40
1
 40
1
 40
1
 10
-91.632937
 20
120.540260
 30
0.0
 10
-92.383081
 20
119.790113
 30
0.0
 10
-93.400496
 20
119.368688
 30
0.0
 10
-94.461364
 20
119.368688
 30
0.0
  0
SPLINE
  5
122
100
AcDbEntity
  8
Layer_1
 62
1
100
AcDbSpline
 70
8
 71
3
 72
8
 73
4
 74
0
 40
0
 40
0
 40
0
 40
0
 40
1
 40
1
 40
1
 40
1
 10
-94.461364
 20
119.368688
 30
0.0
 10
-95.522230
 20
119.368688
 30
0.0
 10
-96.539645
 20
119.790113
 30
0.0
 10
-97.289789
 20
120.540260
 30
0.0
  0
SPLINE
  5
123
100
AcDbEntity
  8
Layer_1
 62
1
100
AcDbSpline
 70
8
 71
3
 72
8
 73
4
 74
0
 40
0
 40
0
 40
0
 40
0
 40
1
 40
1
 40
1
 40
1
 10
-97.289789
 20
120.540260
 30
0.0
 10
-98.039936
 20
121.290404
 30
0.0
 10
-98.461364
 20
122.307820
 30
0.0
 10
-98.461364
 20
123.368688
 30
0.0
  0
SPLINE
  5
124
100
AcDbEntity
  8
Layer_1
 62
1
100
AcDbSpline
 70
8
 71
3
 72
8
 73
4
 74
0
 40
0
 40
0
 40
0
 40
0
 40
1
 40
1
 40
1
 40
1
 10
152.808635
 20
123.369145
 30
0.0
 10
152.808635
 20
124.430011
 30
0.0
 10
153.230063
 20
125.447429
 30
0.0
 10
153.980207
 20
126.197573
 30
0.0
  0
SPLINE
  5
125
100
AcDbEntity
  8
Layer_1
 62
1
100
AcDbSpline
 70
8
 71
3
 72
8
 73
4
 74
0
 40
0
 40
0
 40
0
 40
0
 40
1
 40
1
 40
1
 40
1
 10
153.980207
 20
126.197573
 30
0.0
 10
154.730354
 20
126.947720
 30
0.0
 10
155.747769
 20
127.369145
 30
0.0
 10
156.808635
 20
127.369145
 30
0.0
  0
SPLINE
  5
126
100
AcDbEntity
  8
Layer_1
 62
1
100
AcDbSpline
 70
8
 71
3
 72
8
 73
4
 74
0
 40
0
 40
0
 40
0
 40
0
 40
1
 40
1
 40
1
 40
1
 10
156.808635
 20
127.369145
 30
0.0
 10
157.869500
 20
127.369145
 30
0.0
 10
158.886916
 20
126.947720
 30
0.0
 10
159.637062
 20
126.197573
 30
0.0
  0
SPLINE
  5
127
100
AcDbEntity
  8
Layer_1
 62
1
100
AcDbSpline
 70
8
 71
3
 72
8
 73
4
 74
0
 40
0
 40
0
 40
0
 40
0
 40
1
 40
1
 40
1
 40
1
 10
159.637062
 20
126.197573
 30
0.0
 10
160.387209
 20
125.447429
 30
0.0
 10
160.808635
 20
124.430011
 30
0.0
 10
160.808635
 20
123.369145
 30
0.0
  0
SPLINE
  5
128
100
AcDbEntity
  8
Layer_1
 62
1
100
AcDbSpline
 70
8
 71
3
 72
8
 73
4
 74
0
 40
0
 40
0
 40
0
 40
0
 40
1
 40
1
 40
1
 40
1
 10
160.808635
 20
123.369145
 30
0.0
 10
160.808635
 20
122.308280
 30
0.0
 10
160.387209
 20
121.290865
 30
0.0
 10
159.637062
 20
120.540718
 30
0.0
  0
SPLINE
  5
129
100
AcDbEntity
  8
Layer_1
 62
1
100
AcDbSpline
 70
8
 71
3
 72
8
 73
4
 74
0
 40
0
 40
0
 40
0
 40
0
 40
1
 40
1
 40
1
 40
1
 10
159.637062
 20
120.540718
 30
0.0
 10
158.886916
 20
119.790574
 30
0.0
 10
157.869500
 20
119.369145
 30
0.0
 10
156.808635
 20
119.369145
 30
0.0
  0
SPLINE
  5
12a
100
AcDbEntity
  8
Layer_1
 62
1
100
AcDbSpline
 70
8
 71
3
 72
8
 73
4
 74
0
 40
0
 40
0
 40
0
 40
0
 40
1
 40
1
 40
1
 40
1
 10
156.808635
 20
119.369145
 30
0.0
 10
155.747769
 20
119.369145
 30
0.0
 10
154.730354
 20
119.790574
 30
0.0
 10
153.980207
 20
120.540718
 30
0.0
  0
SPLINE
  5
12b
100
AcDbEntity
  8
Layer_1
 62
1
100
AcDbSpline
 70
8
 71
3
 72
8
 73
4
 74
0
 40
0
 40
0
 40
0
 40
0
 40
1
 40
1
 40
1
 40
1
 10
153.980207
 20
120.540718
 30
0.0
 10
153.230063
 20
121.290865
 30
0.0
 10
152.808635
 20
122.308280
 30
0.0
 10
152.808635
 20
123.369145
 30
0.0
  0
SPLINE
  5
12c
100
AcDbEntity
  8
Layer_1
 62
1
100
AcDbSpline
 70
8
 71
3
 72
8
 73
4
 74
0
 40
0
 40
0
 40
0
 40
0
 40
1
 40
1
 40
1
 40
1
 10
152.808635
 20
150.781646
 30
0.0
 10
152.808635
 20
151.842511
 30
0.0
 10
153.230063
 20
152.859927
 30
0.0
 10
153.980207
 20
153.610073
 30
0.0
  0
SPLINE
  5
12d
100
AcDbEntity
  8
Layer_1
 62
1
100
AcDbSpline
 70
8
 71
3
 72
8
 73
4
 74
0
 40
0
 40
0
 40
0
 40
0
 40
1
 40
1
 40
1
 40
1
 10
153.980207
 20
153.610073
 30
0.0
 10
154.730354
 20
154.360220
 30
0.0
 10
155.747769
 20
154.781646
 30
0.0
 10
156.808635
 20
154.781646
 30
0.0
  0
SPLINE
  5
12e
100
AcDbEntity
  8
Layer_1
 62
1
100
AcDbSpline
 70
8
 71
3
 72
8
 73
4
 74
0
 40
0
 40
0
 40
0
 40
0
 40
1
 40
1
 40
1
 40
1
 10
156.808635
 20
154.781646
 30
0.0
 10
157.869500
 20
154.781646
 30
0.0
 10
158.886916
 20
154.360220
 30
0.0
 10
159.637062
 20
153.610073
 30
0.0
  0
SPLINE
  5
12f
100
AcDbEntity
  8
Layer_1
 62
1
100
AcDbSpline
 70
8
 71
3
 72
8
 73
4
 74
0
 40
0
 40
0
 40
0
 40
0
 40
1
 40
1
 40
1
 40
1
 10
159.637062
 20
153.610073
 30
0.0
 10
160.387209
 20
152.859927
 30
0.0
 10
160.808635
 20
151.842511
 30
0.0
 10
160.808635
 20
150.781646
 30
0.0
  0
SPLINE
  5
130
100
AcDbEntity
  8
Layer_1
 62
1
100
AcDbSpline
 70
8
 71
3
 72
8
 73
4
 74
0
 40
0
 40
0
 40
0
 40
0
 40
1
 40
1
 40
1
 40
1
 10
160.808635
 20
150.781646
 30
0.0
 10
160.808635
 20
149.720780
 30
0.0
 10
160.387209
 20
148.703365
 30
0.0
 10
159.637062
 20
147.953218
 30
0.0
  0
SPLINE
  5
131
100
AcDbEntity
  8
Layer_1
 62
1
100
AcDbSpline
 70
8
 71
3
 72
8
 73
4
 74
0
 40
0
 40
0
 40
0
 40
0
 40
1
 40
1
 40
1
 40
1
 10
159.637062
 20
147.953218
 30
0.0
 10
158.886916
 20
147.203074
 30
0.0
 10
157.869500
 20
146.781646
 30
0.0
 10
156.808635
 20
146.781646
 30
0.0
  0
SPLINE
  5
132
100
AcDbEntity
  8
Layer_1
 62
1
100
AcDbSpline
 70
8
 71
3
 72
8
 73
4
 74
0
 40
0
 40
0
 40
0
 40
0
 40
1
 40
1
 40
1
 40
1
 10
156.808635
 20
146.781646
 30
0.0
 10
155.747769
 20
146.781646
 30
0.0
 10
154.730354
 20
147.203074
 30
0.0
 10
153.980207
 20
147.953218
 30
0.0
  0
SPLINE
  5
133
100
AcDbEntity
  8
Layer_1
 62
1
100
AcDbSpline
 70
8
 71
3
 72
8
 73
4
 74
0
 40
0
 40
0
 40
0
 40
0
 40
1
 40
1
 40
1
 40
1
 10
153.980207
 20
147.953218
 30
0.0
 10
153.230063
 20
148.703365
 30
0.0
 10
152.808635
 20
149.720780
 30
0.0
 10
152.808635
 20
150.781646
 30
0.0
  0
SPLINE
  5
134
100
AcDbEntity
  8
Layer_1
 62
1
100
AcDbSpline
 70
8
 71
3
 72
8
 73
4
 74
0
 40
0
 40
0
 40
0
 40
0
 40
1
 40
1
 40
1
 40
1
 10
-78.461367
 20
123.368688
 30
0.0
 10
-78.461367
 20
124.429553
 30
0.0
 10
-78.039939
 20
125.446969
 30
0.0
 10
-77.289792
 20
126.197113
 30
0.0
  0
SPLINE
  5
135
100
AcDbEntity
  8
Layer_1
 62
1
100
AcDbSpline
 70
8
 71
3
 72
8
 73
4
 74
0
 40
0
 40
0
 40
0
 40
0
 40
1
 40
1
 40
1
 40
1
 10
-77.289792
 20
126.197113
 30
0.0
 10
-76.539648
 20
126.947259
 30
0.0
 10
-75.522233
 20
127.368688
 30
0.0
 10
-74.461367
 20
127.368688
 30
0.0
  0
SPLINE
  5
136
100
AcDbEntity
  8
Layer_1
 62
1
100
AcDbSpline
 70
8
 71
3
 72
8
 73
4
 74
0
 40
0
 40
0
 40
0
 40
0
 40
1
 40
1
 40
1
 40
1
 10
-74.461367
 20
127.368688
 30
0.0
 10
-73.400499
 20
127.368688
 30
0.0
 10
-72.383084
 20
126.947259
 30
0.0
 10
-71.632940
 20
126.197113
 30
0.0
  0
SPLINE
  5
137
100
AcDbEntity
  8
Layer_1
 62
1
100
AcDbSpline
 70
8
 71
3
 72
8
 73
4
 74
0
 40
0
 40
0
 40
0
 40
0
 40
1
 40
1
 40
1
 40
1
 10
-71.632940
 20
126.197113
 30
0.0
 10
-70.882793
 20
125.446969
 30
0.0
 10
-70.461367
 20
124.429553
 30
0.0
 10
-70.461367
 20
123.368688
 30
0.0
  0
SPLINE
  5
138
100
AcDbEntity
  8
Layer_1
 62
1
100
AcDbSpline
 70
8
 71
3
 72
8
 73
4
 74
0
 40
0
 40
0
 40
0
 40
0
 40
1
 40
1
 40
1
 40
1
 10
-70.461367
 20
123.368688
 30
0.0
 10
-70.461367
 20
122.307820
 30
0.0
 10
-70.882793
 20
121.290404
 30
0.0
 10
-71.632940
 20
120.540260
 30
0.0
  0
SPLINE
  5
139
100
AcDbEntity
  8
Layer_1
 62
1
100
AcDbSpline
 70
8
 71
3
 72
8
 73
4
 74
0
 40
0
 40
0
 40
0
 40
0
 40
1
 40
1
 40
1
 40
1
 10
-71.632940
 20
120.540260
 30
0.0
 10
-72.383084
 20
119.790113
 30
0.0
 10
-73.400499
 20
119.368688
 30
0.0
 10
-74.461367
 20
119.368688
 30
0.0
  0
SPLINE
  5
13a
100
AcDbEntity
  8
Layer_1
 62
1
100
AcDbSpline
 70
8
 71
3
 72
8
 73
4
 74
0
 40
0
 40
0
 40
0
 40
0
 40
1
 40
1
 40
1
 40
1
 10
-74.461367
 20
119.368688
 30
0.0
 10
-75.522233
 20
119.368688
 30
0.0
 10
-76.539648
 20
119.790113
 30
0.0
 10
-77.289792
 20
120.540260
 30
0.0
  0
SPLINE
  5
13b
100
AcDbEntity
  8
Layer_1
 62
1
100
AcDbSpline
 70
8
 71
3
 72
8
 73
4
 74
0
 40
0
 40
0
 40
0
 40
0
 40
1
 40
1
 40
1
 40
1
 10
-77.289792
 20
120.540260
 30
0.0
 10
-78.039939
 20
121.290404
 30
0.0
 10
-78.461367
 20
122.307820
 30
0.0
 10
-78.461367
 20
123.368688
 30
0.0
  0
SPLINE
  5
13c
100
AcDbEntity
  8
Layer_1
 62
7
100
AcDbSpline
 70
8
 71
3
 72
8
 73
4
 74
0
 40
0
 40
0
 40
0
 40
0
 40
1
 40
1
 40
1
 40
1
 10
-184.808066
 20
110.176608
 30
0.0
 10
-187.578095
 20
110.176608
 30
0.0
 10
-189.808189
 20
112.406839
 30
0.0
 10
-189.808189
 20
115.176849
 30
0.0
  0
SPLINE
  5
13d
100
AcDbEntity
  8
Layer_1
 62
7
100
AcDbSpline
 70
8
 71
3
 72
8
 73
4
 74
0
 40
0
 40
0
 40
0
 40
0
 40
1
 40
1
 40
1
 40
1
 10
-189.808189
 20
130.177049
 30
0.0
 10
-189.808189
 20
132.453569
 30
0.0
 10
-188.300804
 20
134.362168
 30
0.0
 10
-186.226498
 20
134.971098
 30
0.0
  0
LWPOLYLINE
  5
13e
100
AcDbEntity
  8
Layer_1
 62
7
100
AcDbPolyline
 90
2
 70
0
 10
190.162707
 20
144.309390
 30
0.0
 10
190.162707
 20
159.252749
 30
0.0
  0
SPLINE
  5
13f
100
AcDbEntity
  8
Layer_1
 62
7
100
AcDbSpline
 70
8
 71
3
 72
8
 73
4
 74
0
 40
0
 40
0
 40
0
 40
0
 40
1
 40
1
 40
1
 40
1
 10
-186.226498
 20
139.522267
 30
0.0
 10
-188.286358
 20
140.140128
 30
0.0
 10
-189.779772
 20
142.043268
 30
0.0
 10
-189.779772
 20
144.309599
 30
0.0
  0
LWPOLYLINE
  5
140
100
AcDbEntity
  8
Layer_1
 62
7
100
AcDbPolyline
 90
4
 70
0
 10
185.163005
 20
164.252480
 30
0.0
 10
16.449802
 20
164.252480
 30
0.0
 10
-176.066614
 20
164.252480
 30
0.0
 10
-184.780073
 20
164.253009
 30
0.0
  0
SPLINE
  5
141
100
AcDbEntity
  8
Layer_1
 62
7
100
AcDbSpline
 70
8
 71
3
 72
8
 73
4
 74
0
 40
0
 40
0
 40
0
 40
0
 40
1
 40
1
 40
1
 40
1
 10
-189.779772
 20
159.252958
 30
0.0
 10
-189.779772
 20
162.022979
 30
0.0
 10
-187.550102
 20
164.252689
 30
0.0
 10
-184.780073
 20
164.252689
 30
0.0
  0
LWPOLYLINE
  5
142
100
AcDbEntity
  8
Layer_1
 62
7
100
AcDbPolyline
 90
2
 70
0
 10
-189.808189
 20
115.176849
 30
0.0
 10
-189.808189
 20
130.177049
 30
0.0
  0
SPLINE
  5
143
100
AcDbEntity
  8
Layer_1
 62
7
100
AcDbSpline
 70
8
 71
3
 72
8
 73
4
 74
0
 40
0
 40
0
 40
0
 40
0
 40
1
 40
1
 40
1
 40
1
 10
-143.970745
 20
110.176605
 30
0.0
 10
-141.200717
 20
110.176605
 30
0.0
 10
-138.970366
 20
112.406836
 30
0.0
 10
-138.970366
 20
115.176846
 30
0.0
  0
SPLINE
  5
144
100
AcDbEntity
  8
Layer_1
 62
7
100
AcDbSpline
 70
8
 71
3
 72
8
 73
4
 74
0
 40
0
 40
0
 40
0
 40
0
 40
1
 40
1
 40
1
 40
1
 10
-138.970366
 20
130.177047
 30
0.0
 10
-138.970366
 20
132.453567
 30
0.0
 10
-140.477751
 20
134.362165
 30
0.0
 10
-142.552058
 20
134.971095
 30
0.0
  0
LWPOLYLINE
  5
145
100
AcDbEntity
  8
Layer_1
 62
7
100
AcDbPolyline
 90
2
 70
0
 10
-186.226498
 20
134.971098
 30
0.0
 10
-186.226498
 20
139.522267
 30
0.0
  0
LWPOLYLINE
  5
146
100
AcDbEntity
  8
Layer_1
 62
7
100
AcDbPolyline
 90
2
 70
0
 10
-189.779772
 20
144.309599
 30
0.0
 10
-189.779772
 20
159.252958
 30
0.0
  0
SPLINE
  5
147
100
AcDbEntity
  8
Layer_1
 62
1
100
AcDbSpline
 70
8
 71
3
 72
8
 73
4
 74
0
 40
0
 40
0
 40
0
 40
0
 40
1
 40
1
 40
1
 40
1
 10
-177.633360
 20
123.369188
 30
0.0
 10
-177.633360
 20
124.430053
 30
0.0
 10
-177.211932
 20
125.447471
 30
0.0
 10
-176.461788
 20
126.197615
 30
0.0
  0
SPLINE
  5
148
100
AcDbEntity
  8
Layer_1
 62
1
100
AcDbSpline
 70
8
 71
3
 72
8
 73
4
 74
0
 40
0
 40
0
 40
0
 40
0
 40
1
 40
1
 40
1
 40
1
 10
-176.461788
 20
126.197615
 30
0.0
 10
-175.711641
 20
126.947762
 30
0.0
 10
-174.694226
 20
127.369188
 30
0.0
 10
-173.633360
 20
127.369188
 30
0.0
  0
SPLINE
  5
149
100
AcDbEntity
  8
Layer_1
 62
1
100
AcDbSpline
 70
8
 71
3
 72
8
 73
4
 74
0
 40
0
 40
0
 40
0
 40
0
 40
1
 40
1
 40
1
 40
1
 10
-173.633360
 20
127.369188
 30
0.0
 10
-172.572495
 20
127.369188
 30
0.0
 10
-171.555079
 20
126.947762
 30
0.0
 10
-170.804933
 20
126.197615
 30
0.0
  0
SPLINE
  5
14a
100
AcDbEntity
  8
Layer_1
 62
1
100
AcDbSpline
 70
8
 71
3
 72
8
 73
4
 74
0
 40
0
 40
0
 40
0
 40
0
 40
1
 40
1
 40
1
 40
1
 10
-170.804933
 20
126.197615
 30
0.0
 10
-170.054786
 20
125.447471
 30
0.0
 10
-169.633360
 20
124.430053
 30
0.0
 10
-169.633360
 20
123.369188
 30
0.0
  0
SPLINE
  5
14b
100
AcDbEntity
  8
Layer_1
 62
1
100
AcDbSpline
 70
8
 71
3
 72
8
 73
4
 74
0
 40
0
 40
0
 40
0
 40
0
 40
1
 40
1
 40
1
 40
1
 10
-169.633360
 20
123.369188
 30
0.0
 10
-169.633360
 20
122.308322
 30
0.0
 10
-170.054786
 20
121.290907
 30
0.0
 10
-170.804933
 20
120.540760
 30
0.0
  0
SPLINE
  5
14c
100
AcDbEntity
  8
Layer_1
 62
1
100
AcDbSpline
 70
8
 71
3
 72
8
 73
4
 74
0
 40
0
 40
0
 40
0
 40
0
 40
1
 40
1
 40
1
 40
1
 10
-170.804933
 20
120.540760
 30
0.0
 10
-171.555079
 20
119.790616
 30
0.0
 10
-172.572495
 20
119.369188
 30
0.0
 10
-173.633360
 20
119.369188
 30
0.0
  0
SPLINE
  5
14d
100
AcDbEntity
  8
Layer_1
 62
1
100
AcDbSpline
 70
8
 71
3
 72
8
 73
4
 74
0
 40
0
 40
0
 40
0
 40
0
 40
1
 40
1
 40
1
 40
1
 10
-173.633360
 20
119.369188
 30
0.0
 10
-174.694226
 20
119.369188
 30
0.0
 10
-175.711641
 20
119.790616
 30
0.0
 10
-176.461788
 20
120.540760
 30
0.0
  0
SPLINE
  5
14e
100
AcDbEntity
  8
Layer_1
 62
1
100
AcDbSpline
 70
8
 71
3
 72
8
 73
4
 74
0
 40
0
 40
0
 40
0
 40
0
 40
1
 40
1
 40
1
 40
1
 10
-176.461788
 20
120.540760
 30
0.0
 10
-177.211932
 20
121.290907
 30
0.0
 10
-177.633360
 20
122.308322
 30
0.0
 10
-177.633360
 20
123.369188
 30
0.0
  0
SPLINE
  5
14f
100
AcDbEntity
  8
Layer_1
 62
1
100
AcDbSpline
 70
8
 71
3
 72
8
 73
4
 74
0
 40
0
 40
0
 40
0
 40
0
 40
1
 40
1
 40
1
 40
1
 10
-177.633360
 20
150.781688
 30
0.0
 10
-177.633360
 20
151.842553
 30
0.0
 10
-177.211932
 20
152.859969
 30
0.0
 10
-176.461788
 20
153.610116
 30
0.0
  0
SPLINE
  5
150
100
AcDbEntity
  8
Layer_1
 62
1
100
AcDbSpline
 70
8
 71
3
 72
8
 73
4
 74
0
 40
0
 40
0
 40
0
 40
0
 40
1
 40
1
 40
1
 40
1
 10
-176.461788
 20
153.610116
 30
0.0
 10
-175.711641
 20
154.360262
 30
0.0
 10
-174.694226
 20
154.781688
 30
0.0
 10
-173.633360
 20
154.781688
 30
0.0
  0
SPLINE
  5
151
100
AcDbEntity
  8
Layer_1
 62
1
100
AcDbSpline
 70
8
 71
3
 72
8
 73
4
 74
0
 40
0
 40
0
 40
0
 40
0
 40
1
 40
1
 40
1
 40
1
 10
-173.633360
 20
154.781688
 30
0.0
 10
-172.572495
 20
154.781688
 30
0.0
 10
-171.555079
 20
154.360262
 30
0.0
 10
-170.804933
 20
153.610116
 30
0.0
  0
SPLINE
  5
152
100
AcDbEntity
  8
Layer_1
 62
1
100
AcDbSpline
 70
8
 71
3
 72
8
 73
4
 74
0
 40
0
 40
0
 40
0
 40
0
 40
1
 40
1
 40
1
 40
1
 10
-170.804933
 20
153.610116
 30
0.0
 10
-170.054786
 20
152.859969
 30
0.0
 10
-169.633360
 20
151.842553
 30
0.0
 10
-169.633360
 20
150.781688
 30
0.0
  0
SPLINE
  5
153
100
AcDbEntity
  8
Layer_1
 62
1
100
AcDbSpline
 70
8
 71
3
 72
8
 73
4
 74
0
 40
0
 40
0
 40
0
 40
0
 40
1
 40
1
 40
1
 40
1
 10
-169.633360
 20
150.781688
 30
0.0
 10
-169.633360
 20
149.720823
 30
0.0
 10
-170.054786
 20
148.703407
 30
0.0
 10
-170.804933
 20
147.953260
 30
0.0
  0
SPLINE
  5
154
100
AcDbEntity
  8
Layer_1
 62
1
100
AcDbSpline
 70
8
 71
3
 72
8
 73
4
 74
0
 40
0
 40
0
 40
0
 40
0
 40
1
 40
1
 40
1
 40
1
 10
-170.804933
 20
147.953260
 30
0.0
 10
-171.555079
 20
147.203116
 30
0.0
 10
-172.572495
 20
146.781688
 30
0.0
 10
-173.633360
 20
146.781688
 30
0.0
  0
SPLINE
  5
155
100
AcDbEntity
  8
Layer_1
 62
1
100
AcDbSpline
 70
8
 71
3
 72
8
 73
4
 74
0
 40
0
 40
0
 40
0
 40
0
 40
1
 40
1
 40
1
 40
1
 10
-173.633360
 20
146.781688
 30
0.0
 10
-174.694226
 20
146.781688
 30
0.0
 10
-175.711641
 20
147.203116
 30
0.0
 10
-176.461788
 20
147.953260
 30
0.0
  0
SPLINE
  5
156
100
AcDbEntity
  8
Layer_1
 62
1
100
AcDbSpline
 70
8
 71
3
 72
8
 73
4
 74
0
 40
0
 40
0
 40
0
 40
0
 40
1
 40
1
 40
1
 40
1
 10
-176.461788
 20
147.953260
 30
0.0
 10
-177.211932
 20
148.703407
 30
0.0
 10
-177.633360
 20
149.720823
 30
0.0
 10
-177.633360
 20
150.781688
 30
0.0
  0
SPLINE
  5
157
100
AcDbEntity
  8
Layer_1
 62
1
100
AcDbSpline
 70
8
 71
3
 72
8
 73
4
 74
0
 40
0
 40
0
 40
0
 40
0
 40
1
 40
1
 40
1
 40
1
 10
-157.633374
 20
123.369188
 30
0.0
 10
-157.633374
 20
124.430053
 30
0.0
 10
-157.211945
 20
125.447471
 30
0.0
 10
-156.461801
 20
126.197615
 30
0.0
  0
SPLINE
  5
158
100
AcDbEntity
  8
Layer_1
 62
1
100
AcDbSpline
 70
8
 71
3
 72
8
 73
4
 74
0
 40
0
 40
0
 40
0
 40
0
 40
1
 40
1
 40
1
 40
1
 10
-156.461801
 20
126.197615
 30
0.0
 10
-155.711655
 20
126.947762
 30
0.0
 10
-154.694239
 20
127.369188
 30
0.0
 10
-153.633374
 20
127.369188
 30
0.0
  0
SPLINE
  5
159
100
AcDbEntity
  8
Layer_1
 62
1
100
AcDbSpline
 70
8
 71
3
 72
8
 73
4
 74
0
 40
0
 40
0
 40
0
 40
0
 40
1
 40
1
 40
1
 40
1
 10
-153.633374
 20
127.369188
 30
0.0
 10
-152.572508
 20
127.369188
 30
0.0
 10
-151.555093
 20
126.947762
 30
0.0
 10
-150.804946
 20
126.197615
 30
0.0
  0
SPLINE
  5
15a
100
AcDbEntity
  8
Layer_1
 62
1
100
AcDbSpline
 70
8
 71
3
 72
8
 73
4
 74
0
 40
0
 40
0
 40
0
 40
0
 40
1
 40
1
 40
1
 40
1
 10
-150.804946
 20
126.197615
 30
0.0
 10
-150.054799
 20
125.447471
 30
0.0
 10
-149.633374
 20
124.430053
 30
0.0
 10
-149.633374
 20
123.369188
 30
0.0
  0
SPLINE
  5
15b
100
AcDbEntity
  8
Layer_1
 62
1
100
AcDbSpline
 70
8
 71
3
 72
8
 73
4
 74
0
 40
0
 40
0
 40
0
 40
0
 40
1
 40
1
 40
1
 40
1
 10
-149.633374
 20
123.369188
 30
0.0
 10
-149.633374
 20
122.308322
 30
0.0
 10
-150.054799
 20
121.290907
 30
0.0
 10
-150.804946
 20
120.540760
 30
0.0
  0
SPLINE
  5
15c
100
AcDbEntity
  8
Layer_1
 62
1
100
AcDbSpline
 70
8
 71
3
 72
8
 73
4
 74
0
 40
0
 40
0
 40
0
 40
0
 40
1
 40
1
 40
1
 40
1
 10
-150.804946
 20
120.540760
 30
0.0
 10
-151.555093
 20
119.790616
 30
0.0
 10
-152.572508
 20
119.369188
 30
0.0
 10
-153.633374
 20
119.369188
 30
0.0
  0
SPLINE
  5
15d
100
AcDbEntity
  8
Layer_1
 62
1
100
AcDbSpline
 70
8
 71
3
 72
8
 73
4
 74
0
 40
0
 40
0
 40
0
 40
0
 40
1
 40
1
 40
1
 40
1
 10
-153.633374
 20
119.369188
 30
0.0
 10
-154.694239
 20
119.369188
 30
0.0
 10
-155.711655
 20
119.790616
 30
0.0
 10
-156.461801
 20
120.540760
 30
0.0
  0
SPLINE
  5
15e
100
AcDbEntity
  8
Layer_1
 62
1
100
AcDbSpline
 70
8
 71
3
 72
8
 73
4
 74
0
 40
0
 40
0
 40
0
 40
0
 40
1
 40
1
 40
1
 40
1
 10
-156.461801
 20
120.540760
 30
0.0
 10
-157.211945
 20
121.290907
 30
0.0
 10
-157.633374
 20
122.308322
 30
0.0
 10
-157.633374
 20
123.369188
 30
0.0
  0
SPLINE
  5
15f
100
AcDbEntity
  8
Layer_1
 62
1
100
AcDbSpline
 70
8
 71
3
 72
8
 73
4
 74
0
 40
0
 40
0
 40
0
 40
0
 40
1
 40
1
 40
1
 40
1
 10
-157.633374
 20
150.781688
 30
0.0
 10
-157.633374
 20
151.842553
 30
0.0
 10
-157.211945
 20
152.859969
 30
0.0
 10
-156.461801
 20
153.610116
 30
0.0
  0
SPLINE
  5
160
100
AcDbEntity
  8
Layer_1
 62
1
100
AcDbSpline
 70
8
 71
3
 72
8
 73
4
 74
0
 40
0
 40
0
 40
0
 40
0
 40
1
 40
1
 40
1
 40
1
 10
-156.461801
 20
153.610116
 30
0.0
 10
-155.711655
 20
154.360262
 30
0.0
 10
-154.694239
 20
154.781688
 30
0.0
 10
-153.633374
 20
154.781688
 30
0.0
  0
SPLINE
  5
161
100
AcDbEntity
  8
Layer_1
 62
1
100
AcDbSpline
 70
8
 71
3
 72
8
 73
4
 74
0
 40
0
 40
0
 40
0
 40
0
 40
1
 40
1
 40
1
 40
1
 10
-153.633374
 20
154.781688
 30
0.0
 10
-152.572508
 20
154.781688
 30
0.0
 10
-151.555093
 20
154.360262
 30
0.0
 10
-150.804946
 20
153.610116
 30
0.0
  0
SPLINE
  5
162
100
AcDbEntity
  8
Layer_1
 62
1
100
AcDbSpline
 70
8
 71
3
 72
8
 73
4
 74
0
 40
0
 40
0
 40
0
 40
0
 40
1
 40
1
 40
1
 40
1
 10
-150.804946
 20
153.610116
 30
0.0
 10
-150.054799
 20
152.859969
 30
0.0
 10
-149.633374
 20
151.842553
 30
0.0
 10
-149.633374
 20
150.781688
 30
0.0
  0
SPLINE
  5
163
100
AcDbEntity
  8
Layer_1
 62
1
100
AcDbSpline
 70
8
 71
3
 72
8
 73
4
 74
0
 40
0
 40
0
 40
0
 40
0
 40
1
 40
1
 40
1
 40
1
 10
-149.633374
 20
150.781688
 30
0.0
 10
-149.633374
 20
149.720823
 30
0.0
 10
-150.054799
 20
148.703407
 30
0.0
 10
-150.804946
 20
147.953260
 30
0.0
  0
SPLINE
  5
164
100
AcDbEntity
  8
Layer_1
 62
1
100
AcDbSpline
 70
8
 71
3
 72
8
 73
4
 74
0
 40
0
 40
0
 40
0
 40
0
 40
1
 40
1
 40
1
 40
1
 10
-150.804946
 20
147.953260
 30
0.0
 10
-151.555093
 20
147.203116
 30
0.0
 10
-152.572508
 20
146.781688
 30
0.0
 10
-153.633374
 20
146.781688
 30
0.0
  0
SPLINE
  5
165
100
AcDbEntity
  8
Layer_1
 62
1
100
AcDbSpline
 70
8
 71
3
 72
8
 73
4
 74
0
 40
0
 40
0
 40
0
 40
0
 40
1
 40
1
 40
1
 40
1
 10
-153.633374
 20
146.781688
 30
0.0
 10
-154.694239
 20
146.781688
 30
0.0
 10
-155.711655
 20
147.203116
 30
0.0
 10
-156.461801
 20
147.953260
 30
0.0
  0
SPLINE
  5
166
100
AcDbEntity
  8
Layer_1
 62
1
100
AcDbSpline
 70
8
 71
3
 72
8
 73
4
 74
0
 40
0
 40
0
 40
0
 40
0
 40
1
 40
1
 40
1
 40
1
 10
-156.461801
 20
147.953260
 30
0.0
 10
-157.211945
 20
148.703407
 30
0.0
 10
-157.633374
 20
149.720823
 30
0.0
 10
-157.633374
 20
150.781688
 30
0.0
  0
LWPOLYLINE
  5
167
100
AcDbEntity
  8
Layer_1
 62
7
100
AcDbPolyline
 90
2
 70
0
 10
-138.970366
 20
115.176846
 30
0.0
 10
-138.970366
 20
130.177047
 30
0.0
  0
LWPOLYLINE
  5
168
100
AcDbEntity
  8
Layer_1
 62
3
100
AcDbPolyline
 90
2
 70
0
 10
-142.551944
 20
134.971095
 30
0.0
 10
-142.552073
 20
139.521971
 30
0.0
  0
SPLINE
  5
169
100
AcDbEntity
  8
Layer_1
 62
1
100
AcDbSpline
 70
8
 71
3
 72
8
 73
4
 74
0
 40
0
 40
0
 40
0
 40
0
 40
1
 40
1
 40
1
 40
1
 10
-51.866348
 20
150.019410
 30
0.0
 10
-52.939262
 20
150.019410
 30
0.0
 10
-53.930632
 20
150.498756
 30
0.0
 10
-54.467088
 20
151.276882
 30
0.0
  0
SPLINE
  5
16a
100
AcDbEntity
  8
Layer_1
 62
1
100
AcDbSpline
 70
8
 71
3
 72
8
 73
4
 74
0
 40
0
 40
0
 40
0
 40
0
 40
1
 40
1
 40
1
 40
1
 10
-54.467088
 20
151.276882
 30
0.0
 10
-55.003544
 20
152.055011
 30
0.0
 10
-55.003544
 20
153.013700
 30
0.0
 10
-54.467088
 20
153.791826
 30
0.0
  0
SPLINE
  5
16b
100
AcDbEntity
  8
Layer_1
 62
1
100
AcDbSpline
 70
8
 71
3
 72
8
 73
4
 74
0
 40
0
 40
0
 40
0
 40
0
 40
1
 40
1
 40
1
 40
1
 10
-54.467088
 20
153.791826
 30
0.0
 10
-53.930632
 20
154.569955
 30
0.0
 10
-52.939217
 20
155.049108
 30
0.0
 10
-51.866303
 20
155.049108
 30
0.0
  0
LWPOLYLINE
  5
16c
100
AcDbEntity
  8
Layer_1
 62
7
100
AcDbPolyline
 90
2
 70
0
 10
-184.808074
 20
110.175970
 30
0.0
 10
-143.971074
 20
110.177028
 30
0.0
  0
SPLINE
  5
16d
100
AcDbEntity
  8
Layer_1
 62
1
100
AcDbSpline
 70
8
 71
3
 72
8
 73
4
 74
0
 40
0
 40
0
 40
0
 40
0
 40
1
 40
1
 40
1
 40
1
 10
-130.278849
 20
150.019418
 30
0.0
 10
-131.351763
 20
150.019418
 30
0.0
 10
-132.343133
 20
150.498761
 30
0.0
 10
-132.879589
 20
151.276890
 30
0.0
  0
SPLINE
  5
16e
100
AcDbEntity
  8
Layer_1
 62
1
100
AcDbSpline
 70
8
 71
3
 72
8
 73
4
 74
0
 40
0
 40
0
 40
0
 40
0
 40
1
 40
1
 40
1
 40
1
 10
-132.879589
 20
151.276890
 30
0.0
 10
-133.416045
 20
152.055016
 30
0.0
 10
-133.416045
 20
153.013705
 30
0.0
 10
-132.879589
 20
153.791834
 30
0.0
  0
SPLINE
  5
16f
100
AcDbEntity
  8
Layer_1
 62
1
100
AcDbSpline
 70
8
 71
3
 72
8
 73
4
 74
0
 40
0
 40
0
 40
0
 40
0
 40
1
 40
1
 40
1
 40
1
 10
-132.879589
 20
153.791834
 30
0.0
 10
-132.343133
 20
154.569963
 30
0.0
 10
-131.351719
 20
155.049113
 30
0.0
 10
-130.278804
 20
155.049113
 30
0.0
  0
LWPOLYLINE
  5
170
100
AcDbEntity
  8
Layer_1
 62
1
100
AcDbPolyline
 90
2
 70
0
 10
-51.864646
 20
155.049108
 30
0.0
 10
-42.739313
 20
155.072576
 30
0.0
  0
LWPOLYLINE
  5
171
100
AcDbEntity
  8
Layer_1
 62
1
100
AcDbPolyline
 90
2
 70
0
 10
-51.865030
 20
150.019400
 30
0.0
 10
-42.740315
 20
150.066165
 30
0.0
  0
LWPOLYLINE
  5
172
100
AcDbEntity
  8
Layer_1
 62
1
100
AcDbPolyline
 90
2
 70
0
 10
-130.277145
 20
155.049113
 30
0.0
 10
-121.151814
 20
155.072581
 30
0.0
  0
SPLINE
  5
173
100
AcDbEntity
  8
Layer_1
 62
1
100
AcDbSpline
 70
8
 71
3
 72
8
 73
4
 74
0
 40
0
 40
0
 40
0
 40
0
 40
1
 40
1
 40
1
 40
1
 10
52.778438
 20
155.072571
 30
0.0
 10
53.851352
 20
155.072571
 30
0.0
 10
54.842722
 20
154.593225
 30
0.0
 10
55.379178
 20
153.815099
 30
0.0
  0
SPLINE
  5
174
100
AcDbEntity
  8
Layer_1
 62
1
100
AcDbSpline
 70
8
 71
3
 72
8
 73
4
 74
0
 40
0
 40
0
 40
0
 40
0
 40
1
 40
1
 40
1
 40
1
 10
55.379178
 20
153.815099
 30
0.0
 10
55.915634
 20
153.036972
 30
0.0
 10
55.915634
 20
152.078281
 30
0.0
 10
55.379178
 20
151.300155
 30
0.0
  0
SPLINE
  5
175
100
AcDbEntity
  8
Layer_1
 62
1
100
AcDbSpline
 70
8
 71
3
 72
8
 73
4
 74
0
 40
0
 40
0
 40
0
 40
0
 40
1
 40
1
 40
1
 40
1
 10
55.379178
 20
151.300155
 30
0.0
 10
54.842722
 20
150.522026
 30
0.0
 10
53.851307
 20
150.042873
 30
0.0
 10
52.778393
 20
150.042873
 30
0.0
  0
LWPOLYLINE
  5
176
100
AcDbEntity
  8
Layer_1
 62
1
100
AcDbPolyline
 90
2
 70
0
 10
-130.277531
 20
150.019405
 30
0.0
 10
-121.152817
 20
150.066170
 30
0.0
  0
SPLINE
  5
177
100
AcDbEntity
  8
Layer_1
 62
1
100
AcDbSpline
 70
8
 71
3
 72
8
 73
4
 74
0
 40
0
 40
0
 40
0
 40
0
 40
1
 40
1
 40
1
 40
1
 10
131.190936
 20
155.072568
 30
0.0
 10
132.263851
 20
155.072568
 30
0.0
 10
133.255221
 20
154.593223
 30
0.0
 10
133.791677
 20
153.815096
 30
0.0
  0
SPLINE
  5
178
100
AcDbEntity
  8
Layer_1
 62
1
100
AcDbSpline
 70
8
 71
3
 72
8
 73
4
 74
0
 40
0
 40
0
 40
0
 40
0
 40
1
 40
1
 40
1
 40
1
 10
133.791677
 20
153.815096
 30
0.0
 10
134.328133
 20
153.036970
 30
0.0
 10
134.328133
 20
152.078279
 30
0.0
 10
133.791677
 20
151.300150
 30
0.0
  0
SPLINE
  5
179
100
AcDbEntity
  8
Layer_1
 62
1
100
AcDbSpline
 70
8
 71
3
 72
8
 73
4
 74
0
 40
0
 40
0
 40
0
 40
0
 40
1
 40
1
 40
1
 40
1
 10
133.791677
 20
151.300150
 30
0.0
 10
133.255221
 20
150.522023
 30
0.0
 10
132.263806
 20
150.042871
 30
0.0
 10
131.190892
 20
150.042871
 30
0.0
  0
LWPOLYLINE
  5
17a
100
AcDbEntity
  8
Layer_1
 62
1
100
AcDbPolyline
 90
2
 70
0
 10
52.776734
 20
150.042873
 30
0.0
 10
43.651403
 20
150.019405
 30
0.0
  0
LWPOLYLINE
  5
17b
100
AcDbEntity
  8
Layer_1
 62
1
100
AcDbPolyline
 90
2
 70
0
 10
52.777120
 20
155.072581
 30
0.0
 10
43.652406
 20
155.025816
 30
0.0
  0
LWPOLYLINE
  5
17c
100
AcDbEntity
  8
Layer_1
 62
1
100
AcDbPolyline
 90
2
 70
0
 10
131.189233
 20
150.042871
 30
0.0
 10
122.063902
 20
150.019402
 30
0.0
  0
LWPOLYLINE
  5
17d
100
AcDbEntity
  8
Layer_1
 62
1
100
AcDbPolyline
 90
2
 70
0
 10
131.189619
 20
155.072579
 30
0.0
 10
122.064902
 20
155.025814
 30
0.0
  0
LWPOLYLINE
  5
17e
100
AcDbEntity
  8
Layer_1
 62
5
100
AcDbPolyline
 90
4
 70
1
 10
-122.835016
 20
267.699343
 30
0.0
 10
-73.396303
 20
267.699343
 30
0.0
 10
-73.396303
 20
217.696186
 30
0.0
 10
-122.835016
 20
217.696186
 30
0.0
  0
LWPOLYLINE
  5
17f
100
AcDbEntity
  8
Layer_1
 62
1
100
AcDbPolyline
 90
2
 70
0
 10
-180.759719
 20
143.881701
 30
0.0
 10
-180.759719
 20
138.325451
 30
0.0
  0
LWPOLYLINE
  5
180
100
AcDbEntity
  8
Layer_1
 62
1
100
AcDbPolyline
 90
12
 70
0
 10
-180.759719
 20
143.881701
 30
0.0
 10
-178.907636
 20
143.881701
 30
0.0
 10
-178.113886
 20
143.617118
 30
0.0
 10
-177.584719
 20
143.087951
 30
0.0
 10
-177.320136
 20
142.558785
 30
0.0
 10
-177.055552
 20
141.765035
 30
0.0
 10
-177.055552
 20
140.442118
 30
0.0
 10
-177.320136
 20
139.648368
 30
0.0
 10
-177.584719
 20
139.119201
 30
0.0
 10
-178.113886
 20
138.590035
 30
0.0
 10
-178.907636
 20
138.325451
 30
0.0
 10
-180.759719
 20
138.325451
 30
0.0
  0
LWPOLYLINE
  5
181
100
AcDbEntity
  8
Layer_1
 62
1
100
AcDbPolyline
 90
16
 70
1
 10
-174.145136
 20
142.029618
 30
0.0
 10
-174.674302
 20
141.765035
 30
0.0
 10
-175.203469
 20
141.235868
 30
0.0
 10
-175.468052
 20
140.442118
 30
0.0
 10
-175.468052
 20
139.912951
 30
0.0
 10
-175.203469
 20
139.119201
 30
0.0
 10
-174.674302
 20
138.590035
 30
0.0
 10
-174.145136
 20
138.325451
 30
0.0
 10
-173.351386
 20
138.325451
 30
0.0
 10
-172.822219
 20
138.590035
 30
0.0
 10
-172.293052
 20
139.119201
 30
0.0
 10
-172.028469
 20
139.912951
 30
0.0
 10
-172.028469
 20
140.442118
 30
0.0
 10
-172.293052
 20
141.235868
 30
0.0
 10
-172.822219
 20
141.765035
 30
0.0
 10
-173.351386
 20
142.029618
 30
0.0
  0
LWPOLYLINE
  5
182
100
AcDbEntity
  8
Layer_1
 62
1
100
AcDbPolyline
 90
2
 70
0
 10
-170.176386
 20
143.881701
 30
0.0
 10
-170.176386
 20
138.325451
 30
0.0
  0
LWPOLYLINE
  5
183
100
AcDbEntity
  8
Layer_1
 62
1
100
AcDbPolyline
 90
2
 70
0
 10
-170.176386
 20
143.881701
 30
0.0
 10
-166.736802
 20
143.881701
 30
0.0
  0
LWPOLYLINE
  5
184
100
AcDbEntity
  8
Layer_1
 62
1
100
AcDbPolyline
 90
2
 70
0
 10
-170.176386
 20
141.235868
 30
0.0
 10
-168.059719
 20
141.235868
 30
0.0
  0
LWPOLYLINE
  5
185
100
AcDbEntity
  8
Layer_1
 62
1
100
AcDbPolyline
 90
2
 70
0
 10
-170.176386
 20
138.325451
 30
0.0
 10
-166.736802
 20
138.325451
 30
0.0
  0
LWPOLYLINE
  5
186
100
AcDbEntity
  8
Layer_1
 62
1
100
AcDbPolyline
 90
20
 70
0
 10
-161.709719
 20
143.087951
 30
0.0
 10
-162.238886
 20
143.617118
 30
0.0
 10
-163.032636
 20
143.881701
 30
0.0
 10
-164.090969
 20
143.881701
 30
0.0
 10
-164.884719
 20
143.617118
 30
0.0
 10
-165.413886
 20
143.087951
 30
0.0
 10
-165.413886
 20
142.558785
 30
0.0
 10
-165.149302
 20
142.029618
 30
0.0
 10
-164.884719
 20
141.765035
 30
0.0
 10
-164.355552
 20
141.500451
 30
0.0
 10
-162.768052
 20
140.971285
 30
0.0
 10
-162.238886
 20
140.706701
 30
0.0
 10
-161.974302
 20
140.442118
 30
0.0
 10
-161.709719
 20
139.912951
 30
0.0
 10
-161.709719
 20
139.119201
 30
0.0
 10
-162.238886
 20
138.590035
 30
0.0
 10
-163.032636
 20
138.325451
 30
0.0
 10
-164.090969
 20
138.325451
 30
0.0
 10
-164.884719
 20
138.590035
 30
0.0
 10
-165.413886
 20
139.119201
 30
0.0
  0
LWPOLYLINE
  5
187
100
AcDbEntity
  8
Layer_1
 62
1
100
AcDbPolyline
 90
2
 70
0
 10
-156.153469
 20
142.029618
 30
0.0
 10
-154.565969
 20
138.325451
 30
0.0
  0
LWPOLYLINE
  5
188
100
AcDbEntity
  8
Layer_1
 62
1
100
AcDbPolyline
 90
2
 70
0
 10
-152.978469
 20
142.029618
 30
0.0
 10
-154.565969
 20
138.325451
 30
0.0
  0
LWPOLYLINE
  5
189
100
AcDbEntity
  8
Layer_1
 62
1
100
AcDbPolyline
 90
15
 70
0
 10
-151.126386
 20
143.881701
 30
0.0
 10
-148.215969
 20
143.881701
 30
0.0
 10
-149.803469
 20
141.765035
 30
0.0
 10
-149.009719
 20
141.765035
 30
0.0
 10
-148.480552
 20
141.500451
 30
0.0
 10
-148.215969
 20
141.235868
 30
0.0
 10
-147.951386
 20
140.442118
 30
0.0
 10
-147.951386
 20
139.912951
 30
0.0
 10
-148.215969
 20
139.119201
 30
0.0
 10
-148.745136
 20
138.590035
 30
0.0
 10
-149.538886
 20
138.325451
 30
0.0
 10
-150.332636
 20
138.325451
 30
0.0
 10
-151.126386
 20
138.590035
 30
0.0
 10
-151.390969
 20
138.854618
 30
0.0
 10
-151.655552
 20
139.383785
 30
0.0
  0
LWPOLYLINE
  5
18a
100
AcDbEntity
  8
Layer_1
 62
1
100
AcDbPolyline
 90
3
 70
0
 10
-178.999372
 20
136.049773
 30
0.0
 10
-181.645205
 20
132.345606
 30
0.0
 10
-177.676455
 20
132.345606
 30
0.0
  0
LWPOLYLINE
  5
18b
100
AcDbEntity
  8
Layer_1
 62
1
100
AcDbPolyline
 90
2
 70
0
 10
-178.999372
 20
136.049773
 30
0.0
 10
-178.999372
 20
130.493523
 30
0.0
  0
LWPOLYLINE
  5
18c
100
AcDbEntity
  8
Layer_1
 62
1
100
AcDbPolyline
 90
2
 70
0
 10
-171.855622
 20
134.197690
 30
0.0
 10
-171.855622
 20
128.641440
 30
0.0
  0
LWPOLYLINE
  5
18d
100
AcDbEntity
  8
Layer_1
 62
1
100
AcDbPolyline
 90
14
 70
0
 10
-171.855622
 20
133.403940
 30
0.0
 10
-171.326455
 20
133.933106
 30
0.0
 10
-170.797288
 20
134.197690
 30
0.0
 10
-170.003538
 20
134.197690
 30
0.0
 10
-169.474372
 20
133.933106
 30
0.0
 10
-168.945205
 20
133.403940
 30
0.0
 10
-168.680622
 20
132.610190
 30
0.0
 10
-168.680622
 20
132.081023
 30
0.0
 10
-168.945205
 20
131.287273
 30
0.0
 10
-169.474372
 20
130.758106
 30
0.0
 10
-170.003538
 20
130.493523
 30
0.0
 10
-170.797288
 20
130.493523
 30
0.0
 10
-171.326455
 20
130.758106
 30
0.0
 10
-171.855622
 20
131.287273
 30
0.0
  0
LWPOLYLINE
  5
18e
100
AcDbEntity
  8
Layer_1
 62
1
100
AcDbPolyline
 90
7
 70
0
 10
-166.828538
 20
134.197690
 30
0.0
 10
-166.828538
 20
131.551856
 30
0.0
 10
-166.563955
 20
130.758106
 30
0.0
 10
-166.034788
 20
130.493523
 30
0.0
 10
-165.241038
 20
130.493523
 30
0.0
 10
-164.711872
 20
130.758106
 30
0.0
 10
-163.918122
 20
131.551856
 30
0.0
  0
LWPOLYLINE
  5
18f
100
AcDbEntity
  8
Layer_1
 62
1
100
AcDbPolyline
 90
2
 70
0
 10
-163.918122
 20
134.197690
 30
0.0
 10
-163.918122
 20
130.493523
 30
0.0
  0
LWPOLYLINE
  5
190
100
AcDbEntity
  8
Layer_1
 62
1
100
AcDbPolyline
 90
2
 70
0
 10
-161.801455
 20
134.197690
 30
0.0
 10
-161.801455
 20
130.493523
 30
0.0
  0
LWPOLYLINE
  5
191
100
AcDbEntity
  8
Layer_1
 62
1
100
AcDbPolyline
 90
7
 70
0
 10
-161.801455
 20
133.139356
 30
0.0
 10
-161.007705
 20
133.933106
 30
0.0
 10
-160.478538
 20
134.197690
 30
0.0
 10
-159.684788
 20
134.197690
 30
0.0
 10
-159.155622
 20
133.933106
 30
0.0
 10
-158.891038
 20
133.139356
 30
0.0
 10
-158.891038
 20
130.493523
 30
0.0
  0
LWPOLYLINE
  5
192
100
AcDbEntity
  8
Layer_1
 62
1
100
AcDbPolyline
 90
14
 70
0
 10
-153.863955
 20
133.403940
 30
0.0
 10
-154.393122
 20
133.933106
 30
0.0
 10
-154.922288
 20
134.197690
 30
0.0
 10
-155.716038
 20
134.197690
 30
0.0
 10
-156.245205
 20
133.933106
 30
0.0
 10
-156.774372
 20
133.403940
 30
0.0
 10
-157.038955
 20
132.610190
 30
0.0
 10
-157.038955
 20
132.081023
 30
0.0
 10
-156.774372
 20
131.287273
 30
0.0
 10
-156.245205
 20
130.758106
 30
0.0
 10
-155.716038
 20
130.493523
 30
0.0
 10
-154.922288
 20
130.493523
 30
0.0
 10
-154.393122
 20
130.758106
 30
0.0
 10
-153.863955
 20
131.287273
 30
0.0
  0
LWPOLYLINE
  5
193
100
AcDbEntity
  8
Layer_1
 62
1
100
AcDbPolyline
 90
2
 70
0
 10
-152.011872
 20
136.049773
 30
0.0
 10
-152.011872
 20
130.493523
 30
0.0
  0
LWPOLYLINE
  5
194
100
AcDbEntity
  8
Layer_1
 62
1
100
AcDbPolyline
 90
7
 70
0
 10
-152.011872
 20
133.139356
 30
0.0
 10
-151.218122
 20
133.933106
 30
0.0
 10
-150.688955
 20
134.197690
 30
0.0
 10
-149.895205
 20
134.197690
 30
0.0
 10
-149.366038
 20
133.933106
 30
0.0
 10
-149.101455
 20
133.139356
 30
0.0
 10
-149.101455
 20
130.493523
 30
0.0
  0
LWPOLYLINE
  5
195
100
AcDbEntity
  8
Layer_1
 62
3
100
AcDbPolyline
 90
2
 70
0
 10
-89.635277
 20
134.971095
 30
0.0
 10
-89.635407
 20
139.521971
 30
0.0
  0
LWPOLYLINE
  5
196
100
AcDbEntity
  8
Layer_1
 62
3
100
AcDbPolyline
 90
2
 70
0
 10
-47.831110
 20
134.971095
 30
0.0
 10
-47.831240
 20
139.521971
 30
0.0
  0
LWPOLYLINE
  5
197
100
AcDbEntity
  8
Layer_1
 62
3
100
AcDbPolyline
 90
2
 70
0
 10
-8.672777
 20
134.971095
 30
0.0
 10
-8.672907
 20
139.521971
 30
0.0
  0
LWPOLYLINE
  5
198
100
AcDbEntity
  8
Layer_1
 62
3
100
AcDbPolyline
 90
2
 70
0
 10
32.602223
 20
134.971095
 30
0.0
 10
32.602093
 20
139.521971
 30
0.0
  0
LWPOLYLINE
  5
199
100
AcDbEntity
  8
Layer_1
 62
3
100
AcDbPolyline
 90
2
 70
0
 10
68.056390
 20
134.971095
 30
0.0
 10
68.056260
 20
139.521971
 30
0.0
  0
LWPOLYLINE
  5
19a
100
AcDbEntity
  8
Layer_1
 62
3
100
AcDbPolyline
 90
2
 70
0
 10
103.510556
 20
134.971095
 30
0.0
 10
103.510427
 20
139.521971
 30
0.0
  0
ENDSEC
  0
SECTION
  2
OBJECTS
  0
DICTIONARY
  5
C
330
0
100
AcDbDictionary
  3
ACAD_GROUP
350
D
  3
ACAD_MLINESTYLE
350
17
  0
DICTIONARY
  5
D
330
C
100
AcDbDictionary
  0
DICTIONARY
  5
1A
330
C
100
AcDbDictionary
  0
DICTIONARY
  5
17
330
C
100
AcDbDictionary
  3
STANDARD
350
18
  0
DICTIONARY
  5
19
330
C
100
AcDbDictionary
  0
ENDSEC
  0
EOF
