  0
SECTION
  2
HEADER
  9
$ACADVER
  1
AC1014
  9
$HANDSEED
  5
FFFF
  9
$MEASUREMENT
 70
     1
  0
ENDSEC
  0
SECTION
  2
TABLES
  0
TABLE
  2
VPORT
  5
8
330
0
100
AcDbSymbolTable
 70
     4
  0
VPORT
  5
2E
330
8
100
AcDbSymbolTableRecord
100
AcDbViewportTableRecord
  2
*ACTIVE
 70
     0
 10
0.0
 20
0.0
 11
1.0
 21
1.0
 12
210.0
 22
148.5
 13
0.0
 23
0.0
 14
10.0
 24
10.0
 15
10.0
 25
10.0
 16
0.0
 26
0.0
 36
1.0
 17
0.0
 27
0.0
 37
0.0
 40
341.0
 41
1.24
 42
50.0
 43
0.0
 44
0.0
 50
0.0
 51
0.0
 71
     0
 72
   100
 73
     1
 74
     3
 75
     0
 76
     0
 77
     0
 78
     0
  0
ENDTAB
  0
TABLE
  2
LTYPE
  5
5
330
0
100
AcDbSymbolTable
 70
     1
  0
LTYPE
  5
14
330
5
100
AcDbSymbolTableRecord
100
AcDbLinetypeTableRecord
  2
BYBLOCK
 70
     0
  3

 72
    65
 73
     0
 40
0.0
  0
LTYPE
  5
15
330
5
100
AcDbSymbolTableRecord
100
AcDbLinetypeTableRecord
  2
BYLAYER
 70
     0
  3

 72
    65
 73
     0
 40
0.0
  0
LTYPE
  5
16
330
5
100
AcDbSymbolTableRecord
100
AcDbLinetypeTableRecord
  2
CONTINUOUS
 70
     0
  3
Solid line
 72
    65
 73
     0
 40
0.0
  0
ENDTAB
  0
TABLE
  2
LAYER
  5
2
100
AcDbSymbolTable
 70
2
  0
LAYER
  5
50
100
AcDbSymbolTableRecord
100
AcDbLayerTableRecord
  2
0
 70
0
  6
CONTINUOUS
  0
LAYER
  5
51
100
AcDbSymbolTableRecord
100
AcDbLayerTableRecord
  2
Layer_1
 70
0
  6
CONTINUOUS
  0
ENDTAB
  0
TABLE
  2
STYLE
  5
3
330
0
100
AcDbSymbolTable
 70
     1
  0
STYLE
  5
11
330
3
100
AcDbSymbolTableRecord
100
AcDbTextStyleTableRecord
  2
STANDARD
 70
     0
 40
0.0
 41
1.0
 50
0.0
 71
     0
 42
2.5
  3
txt
  4

  0
ENDTAB
  0
TABLE
  2
VIEW
  5
6
330
0
100
AcDbSymbolTable
 70
     0
  0
ENDTAB
  0
TABLE
  2
UCS
  5
7
330
0
100
AcDbSymbolTable
 70
     0
  0
ENDTAB
  0
TABLE
  2
APPID
  5
9
330
0
100
AcDbSymbolTable
 70
     2
  0
APPID
  5
12
330
9
100
AcDbSymbolTableRecord
100
AcDbRegAppTableRecord
  2
ACAD
 70
     0
  0
ENDTAB
  0
TABLE
  2
DIMSTYLE
  5
A
330
0
100
AcDbSymbolTable
 70
     1
  0
DIMSTYLE
105
27
330
A
100
AcDbSymbolTableRecord
100
AcDbDimStyleTableRecord
  2
ISO-25
 70
     0
  3

  4

  5

  6

  7

 40
1.0
 41
2.5
 42
0.625
 43
3.75
 44
1.25
 45
0.0
 46
0.0
 47
0.0
 48
0.0
140
2.5
141
2.5
142
0.0
143
0.03937007874016
144
1.0
145
0.0
146
1.0
147
0.625
 71
     0
 72
     0
 73
     0
 74
     0
 75
     0
 76
     0
 77
     1
 78
     8
170
     0
171
     3
172
     1
173
     0
174
     0
175
     0
176
     0
177
     0
178
     0
270
     2
271
     2
272
     2
273
     2
274
     3
340
11
275
     0
280
     0
281
     0
282
     0
283
     0
284
     8
285
     0
286
     0
287
     3
288
     0
  0
ENDTAB
  0
TABLE
  2
BLOCK_RECORD
  5
1
330
0
100
AcDbSymbolTable
 70
     1
  0
BLOCK_RECORD
  5
1F
330
1
100
AcDbSymbolTableRecord
100
AcDbBlockTableRecord
  2
*MODEL_SPACE
  0
BLOCK_RECORD
  5
1B
330
1
100
AcDbSymbolTableRecord
100
AcDbBlockTableRecord
  2
*PAPER_SPACE
  0
ENDTAB
  0
ENDSEC
  0
SECTION
  2
BLOCKS
  0
BLOCK
  5
20
330
1F
100
AcDbEntity
  8
0
100
AcDbBlockBegin
  2
*MODEL_SPACE
 70
     0
 10
0.0
 20
0.0
 30
0.0
  3
*MODEL_SPACE
  1

  0
ENDBLK
  5
21
330
1F
100
AcDbEntity
  8
0
100
AcDbBlockEnd
  0
BLOCK
  5
1C
330
1B
100
AcDbEntity
 67
     1
  8
0
100
AcDbBlockBegin
  2
*PAPER_SPACE
  1

  0
ENDBLK
  5
1D
330
1B
100
AcDbEntity
 67
     1
  8
0
100
AcDbBlockEnd
  0
ENDSEC
  0
SECTION
  2
ENTITIES
  0
SPLINE
  5
100
100
AcDbEntity
  8
Layer_1
 62
7
100
AcDbSpline
 70
8
 71
3
 72
8
 73
4
 74
0
 40
0
 40
0
 40
0
 40
0
 40
1
 40
1
 40
1
 40
1
 10
-104.809073
 20
139.214438
 30
0.0
 10
-107.579062
 20
139.214438
 30
0.0
 10
-109.808761
 20
136.984720
 30
0.0
 10
-109.808761
 20
134.214710
 30
0.0
  0
SPLINE
  5
101
100
AcDbEntity
  8
Layer_1
 62
7
100
AcDbSpline
 70
8
 71
3
 72
8
 73
4
 74
0
 40
0
 40
0
 40
0
 40
0
 40
1
 40
1
 40
1
 40
1
 10
-109.808761
 20
115.176640
 30
0.0
 10
-109.808761
 20
112.406630
 30
0.0
 10
-107.579062
 20
110.176399
 30
0.0
 10
-104.809073
 20
110.176399
 30
0.0
  0
SPLINE
  5
102
100
AcDbEntity
  8
Layer_1
 62
7
100
AcDbSpline
 70
8
 71
3
 72
8
 73
4
 74
0
 40
0
 40
0
 40
0
 40
0
 40
1
 40
1
 40
1
 40
1
 10
185.190916
 20
110.176399
 30
0.0
 10
187.960926
 20
110.176399
 30
0.0
 10
190.191115
 20
112.406630
 30
0.0
 10
190.191115
 20
115.176640
 30
0.0
  0
LINE
  5
103
100
AcDbEntity
  8
Layer_1
 62
7
100
AcDbLine
 10
-142.420073
 20
139.308902
 30
0.0
 11
-113.577328
 21
139.308902
 31
0.0
  0
LINE
  5
104
100
AcDbEntity
  8
Layer_1
 62
7
100
AcDbLine
 10
-113.577328
 20
139.308902
 30
0.0
 11
136.608926
 21
139.308902
 31
0.0
  0
LINE
  5
105
100
AcDbEntity
  8
Layer_1
 62
7
100
AcDbLine
 10
-109.808761
 20
134.681837
 30
0.0
 11
-109.808761
 21
115.176640
 31
0.0
  0
LINE
  5
106
100
AcDbEntity
  8
Layer_1
 62
7
100
AcDbLine
 10
-104.809073
 20
110.175970
 30
0.0
 11
185.190916
 21
110.176499
 31
0.0
  0
SPLINE
  5
107
100
AcDbEntity
  8
Layer_1
 62
7
100
AcDbSpline
 70
8
 71
3
 72
8
 73
4
 74
0
 40
0
 40
0
 40
0
 40
0
 40
1
 40
1
 40
1
 40
1
 10
190.162707
 20
159.252749
 30
0.0
 10
190.162707
 20
162.022770
 30
0.0
 10
187.933036
 20
164.252480
 30
0.0
 10
185.163005
 20
164.252480
 30
0.0
  0
LINE
  5
108
100
AcDbEntity
  8
Layer_1
 62
7
100
AcDbLine
 10
190.191115
 20
115.176640
 30
0.0
 11
190.162707
 21
159.252749
 31
0.0
  0
SPLINE
  5
109
100
AcDbEntity
  8
Layer_1
 62
1
100
AcDbSpline
 70
8
 71
3
 72
8
 73
4
 74
0
 40
0
 40
0
 40
0
 40
0
 40
1
 40
1
 40
1
 40
1
 10
172.808826
 20
124.427479
 30
0.0
 10
172.808826
 20
125.488344
 30
0.0
 10
173.230254
 20
126.505762
 30
0.0
 10
173.980398
 20
127.255906
 30
0.0
  0
SPLINE
  5
10a
100
AcDbEntity
  8
Layer_1
 62
1
100
AcDbSpline
 70
8
 71
3
 72
8
 73
4
 74
0
 40
0
 40
0
 40
0
 40
0
 40
1
 40
1
 40
1
 40
1
 10
173.980398
 20
127.255906
 30
0.0
 10
174.730545
 20
128.006053
 30
0.0
 10
175.747960
 20
128.427479
 30
0.0
 10
176.808826
 20
128.427479
 30
0.0
  0
SPLINE
  5
10b
100
AcDbEntity
  8
Layer_1
 62
1
100
AcDbSpline
 70
8
 71
3
 72
8
 73
4
 74
0
 40
0
 40
0
 40
0
 40
0
 40
1
 40
1
 40
1
 40
1
 10
176.808826
 20
128.427479
 30
0.0
 10
177.869691
 20
128.427479
 30
0.0
 10
178.887107
 20
128.006053
 30
0.0
 10
179.637253
 20
127.255906
 30
0.0
  0
SPLINE
  5
10c
100
AcDbEntity
  8
Layer_1
 62
1
100
AcDbSpline
 70
8
 71
3
 72
8
 73
4
 74
0
 40
0
 40
0
 40
0
 40
0
 40
1
 40
1
 40
1
 40
1
 10
179.637253
 20
127.255906
 30
0.0
 10
180.387400
 20
126.505762
 30
0.0
 10
180.808826
 20
125.488344
 30
0.0
 10
180.808826
 20
124.427479
 30
0.0
  0
SPLINE
  5
10d
100
AcDbEntity
  8
Layer_1
 62
1
100
AcDbSpline
 70
8
 71
3
 72
8
 73
4
 74
0
 40
0
 40
0
 40
0
 40
0
 40
1
 40
1
 40
1
 40
1
 10
180.808826
 20
124.427479
 30
0.0
 10
180.808826
 20
123.366613
 30
0.0
 10
180.387400
 20
122.349198
 30
0.0
 10
179.637253
 20
121.599051
 30
0.0
  0
SPLINE
  5
10e
100
AcDbEntity
  8
Layer_1
 62
1
100
AcDbSpline
 70
8
 71
3
 72
8
 73
4
 74
0
 40
0
 40
0
 40
0
 40
0
 40
1
 40
1
 40
1
 40
1
 10
179.637253
 20
121.599051
 30
0.0
 10
178.887107
 20
120.848907
 30
0.0
 10
177.869691
 20
120.427479
 30
0.0
 10
176.808826
 20
120.427479
 30
0.0
  0
SPLINE
  5
10f
100
AcDbEntity
  8
Layer_1
 62
1
100
AcDbSpline
 70
8
 71
3
 72
8
 73
4
 74
0
 40
0
 40
0
 40
0
 40
0
 40
1
 40
1
 40
1
 40
1
 10
176.808826
 20
120.427479
 30
0.0
 10
175.747960
 20
120.427479
 30
0.0
 10
174.730545
 20
120.848907
 30
0.0
 10
173.980398
 20
121.599051
 30
0.0
  0
SPLINE
  5
110
100
AcDbEntity
  8
Layer_1
 62
1
100
AcDbSpline
 70
8
 71
3
 72
8
 73
4
 74
0
 40
0
 40
0
 40
0
 40
0
 40
1
 40
1
 40
1
 40
1
 10
173.980398
 20
121.599051
 30
0.0
 10
173.230254
 20
122.349198
 30
0.0
 10
172.808826
 20
123.366613
 30
0.0
 10
172.808826
 20
124.427479
 30
0.0
  0
SPLINE
  5
111
100
AcDbEntity
  8
Layer_1
 62
1
100
AcDbSpline
 70
8
 71
3
 72
8
 73
4
 74
0
 40
0
 40
0
 40
0
 40
0
 40
1
 40
1
 40
1
 40
1
 10
172.808826
 20
150.781646
 30
0.0
 10
172.808826
 20
151.842511
 30
0.0
 10
173.230254
 20
152.859927
 30
0.0
 10
173.980398
 20
153.610073
 30
0.0
  0
SPLINE
  5
112
100
AcDbEntity
  8
Layer_1
 62
1
100
AcDbSpline
 70
8
 71
3
 72
8
 73
4
 74
0
 40
0
 40
0
 40
0
 40
0
 40
1
 40
1
 40
1
 40
1
 10
173.980398
 20
153.610073
 30
0.0
 10
174.730545
 20
154.360220
 30
0.0
 10
175.747960
 20
154.781646
 30
0.0
 10
176.808826
 20
154.781646
 30
0.0
  0
SPLINE
  5
113
100
AcDbEntity
  8
Layer_1
 62
1
100
AcDbSpline
 70
8
 71
3
 72
8
 73
4
 74
0
 40
0
 40
0
 40
0
 40
0
 40
1
 40
1
 40
1
 40
1
 10
176.808826
 20
154.781646
 30
0.0
 10
177.869691
 20
154.781646
 30
0.0
 10
178.887107
 20
154.360220
 30
0.0
 10
179.637253
 20
153.610073
 30
0.0
  0
SPLINE
  5
114
100
AcDbEntity
  8
Layer_1
 62
1
100
AcDbSpline
 70
8
 71
3
 72
8
 73
4
 74
0
 40
0
 40
0
 40
0
 40
0
 40
1
 40
1
 40
1
 40
1
 10
179.637253
 20
153.610073
 30
0.0
 10
180.387400
 20
152.859927
 30
0.0
 10
180.808826
 20
151.842511
 30
0.0
 10
180.808826
 20
150.781646
 30
0.0
  0
SPLINE
  5
115
100
AcDbEntity
  8
Layer_1
 62
1
100
AcDbSpline
 70
8
 71
3
 72
8
 73
4
 74
0
 40
0
 40
0
 40
0
 40
0
 40
1
 40
1
 40
1
 40
1
 10
180.808826
 20
150.781646
 30
0.0
 10
180.808826
 20
149.720780
 30
0.0
 10
180.387400
 20
148.703365
 30
0.0
 10
179.637253
 20
147.953218
 30
0.0
  0
SPLINE
  5
116
100
AcDbEntity
  8
Layer_1
 62
1
100
AcDbSpline
 70
8
 71
3
 72
8
 73
4
 74
0
 40
0
 40
0
 40
0
 40
0
 40
1
 40
1
 40
1
 40
1
 10
179.637253
 20
147.953218
 30
0.0
 10
178.887107
 20
147.203074
 30
0.0
 10
177.869691
 20
146.781646
 30
0.0
 10
176.808826
 20
146.781646
 30
0.0
  0
SPLINE
  5
117
100
AcDbEntity
  8
Layer_1
 62
1
100
AcDbSpline
 70
8
 71
3
 72
8
 73
4
 74
0
 40
0
 40
0
 40
0
 40
0
 40
1
 40
1
 40
1
 40
1
 10
176.808826
 20
146.781646
 30
0.0
 10
175.747960
 20
146.781646
 30
0.0
 10
174.730545
 20
147.203074
 30
0.0
 10
173.980398
 20
147.953218
 30
0.0
  0
SPLINE
  5
118
100
AcDbEntity
  8
Layer_1
 62
1
100
AcDbSpline
 70
8
 71
3
 72
8
 73
4
 74
0
 40
0
 40
0
 40
0
 40
0
 40
1
 40
1
 40
1
 40
1
 10
173.980398
 20
147.953218
 30
0.0
 10
173.230254
 20
148.703365
 30
0.0
 10
172.808826
 20
149.720780
 30
0.0
 10
172.808826
 20
150.781646
 30
0.0
  0
SPLINE
  5
119
100
AcDbEntity
  8
Layer_1
 62
1
100
AcDbSpline
 70
8
 71
3
 72
8
 73
4
 74
0
 40
0
 40
0
 40
0
 40
0
 40
1
 40
1
 40
1
 40
1
 10
-98.461364
 20
124.427021
 30
0.0
 10
-98.461364
 20
125.487886
 30
0.0
 10
-98.039936
 20
126.505302
 30
0.0
 10
-97.289789
 20
127.255446
 30
0.0
  0
SPLINE
  5
11a
100
AcDbEntity
  8
Layer_1
 62
1
100
AcDbSpline
 70
8
 71
3
 72
8
 73
4
 74
0
 40
0
 40
0
 40
0
 40
0
 40
1
 40
1
 40
1
 40
1
 10
-97.289789
 20
127.255446
 30
0.0
 10
-96.539645
 20
128.005593
 30
0.0
 10
-95.522230
 20
128.427021
 30
0.0
 10
-94.461364
 20
128.427021
 30
0.0
  0
SPLINE
  5
11b
100
AcDbEntity
  8
Layer_1
 62
1
100
AcDbSpline
 70
8
 71
3
 72
8
 73
4
 74
0
 40
0
 40
0
 40
0
 40
0
 40
1
 40
1
 40
1
 40
1
 10
-94.461364
 20
128.427021
 30
0.0
 10
-93.400496
 20
128.427021
 30
0.0
 10
-92.383081
 20
128.005593
 30
0.0
 10
-91.632937
 20
127.255446
 30
0.0
  0
SPLINE
  5
11c
100
AcDbEntity
  8
Layer_1
 62
1
100
AcDbSpline
 70
8
 71
3
 72
8
 73
4
 74
0
 40
0
 40
0
 40
0
 40
0
 40
1
 40
1
 40
1
 40
1
 10
-91.632937
 20
127.255446
 30
0.0
 10
-90.882790
 20
126.505302
 30
0.0
 10
-90.461364
 20
125.487886
 30
0.0
 10
-90.461364
 20
124.427021
 30
0.0
  0
SPLINE
  5
11d
100
AcDbEntity
  8
Layer_1
 62
1
100
AcDbSpline
 70
8
 71
3
 72
8
 73
4
 74
0
 40
0
 40
0
 40
0
 40
0
 40
1
 40
1
 40
1
 40
1
 10
-90.461364
 20
124.427021
 30
0.0
 10
-90.461364
 20
123.366153
 30
0.0
 10
-90.882790
 20
122.348737
 30
0.0
 10
-91.632937
 20
121.598593
 30
0.0
  0
SPLINE
  5
11e
100
AcDbEntity
  8
Layer_1
 62
1
100
AcDbSpline
 70
8
 71
3
 72
8
 73
4
 74
0
 40
0
 40
0
 40
0
 40
0
 40
1
 40
1
 40
1
 40
1
 10
-91.632937
 20
121.598593
 30
0.0
 10
-92.383081
 20
120.848447
 30
0.0
 10
-93.400496
 20
120.427021
 30
0.0
 10
-94.461364
 20
120.427021
 30
0.0
  0
SPLINE
  5
11f
100
AcDbEntity
  8
Layer_1
 62
1
100
AcDbSpline
 70
8
 71
3
 72
8
 73
4
 74
0
 40
0
 40
0
 40
0
 40
0
 40
1
 40
1
 40
1
 40
1
 10
-94.461364
 20
120.427021
 30
0.0
 10
-95.522230
 20
120.427021
 30
0.0
 10
-96.539645
 20
120.848447
 30
0.0
 10
-97.289789
 20
121.598593
 30
0.0
  0
SPLINE
  5
120
100
AcDbEntity
  8
Layer_1
 62
1
100
AcDbSpline
 70
8
 71
3
 72
8
 73
4
 74
0
 40
0
 40
0
 40
0
 40
0
 40
1
 40
1
 40
1
 40
1
 10
-97.289789
 20
121.598593
 30
0.0
 10
-98.039936
 20
122.348737
 30
0.0
 10
-98.461364
 20
123.366153
 30
0.0
 10
-98.461364
 20
124.427021
 30
0.0
  0
SPLINE
  5
121
100
AcDbEntity
  8
Layer_1
 62
1
100
AcDbSpline
 70
8
 71
3
 72
8
 73
4
 74
0
 40
0
 40
0
 40
0
 40
0
 40
1
 40
1
 40
1
 40
1
 10
152.808636
 20
124.427479
 30
0.0
 10
152.808636
 20
125.488344
 30
0.0
 10
153.230064
 20
126.505762
 30
0.0
 10
153.980208
 20
127.255906
 30
0.0
  0
SPLINE
  5
122
100
AcDbEntity
  8
Layer_1
 62
1
100
AcDbSpline
 70
8
 71
3
 72
8
 73
4
 74
0
 40
0
 40
0
 40
0
 40
0
 40
1
 40
1
 40
1
 40
1
 10
153.980208
 20
127.255906
 30
0.0
 10
154.730355
 20
128.006053
 30
0.0
 10
155.747768
 20
128.427479
 30
0.0
 10
156.808636
 20
128.427479
 30
0.0
  0
SPLINE
  5
123
100
AcDbEntity
  8
Layer_1
 62
1
100
AcDbSpline
 70
8
 71
3
 72
8
 73
4
 74
0
 40
0
 40
0
 40
0
 40
0
 40
1
 40
1
 40
1
 40
1
 10
156.808636
 20
128.427479
 30
0.0
 10
157.869501
 20
128.427479
 30
0.0
 10
158.886917
 20
128.006053
 30
0.0
 10
159.637061
 20
127.255906
 30
0.0
  0
SPLINE
  5
124
100
AcDbEntity
  8
Layer_1
 62
1
100
AcDbSpline
 70
8
 71
3
 72
8
 73
4
 74
0
 40
0
 40
0
 40
0
 40
0
 40
1
 40
1
 40
1
 40
1
 10
159.637061
 20
127.255906
 30
0.0
 10
160.387210
 20
126.505762
 30
0.0
 10
160.808636
 20
125.488344
 30
0.0
 10
160.808636
 20
124.427479
 30
0.0
  0
SPLINE
  5
125
100
AcDbEntity
  8
Layer_1
 62
1
100
AcDbSpline
 70
8
 71
3
 72
8
 73
4
 74
0
 40
0
 40
0
 40
0
 40
0
 40
1
 40
1
 40
1
 40
1
 10
160.808636
 20
124.427479
 30
0.0
 10
160.808636
 20
123.366613
 30
0.0
 10
160.387210
 20
122.349198
 30
0.0
 10
159.637061
 20
121.599051
 30
0.0
  0
SPLINE
  5
126
100
AcDbEntity
  8
Layer_1
 62
1
100
AcDbSpline
 70
8
 71
3
 72
8
 73
4
 74
0
 40
0
 40
0
 40
0
 40
0
 40
1
 40
1
 40
1
 40
1
 10
159.637061
 20
121.599051
 30
0.0
 10
158.886917
 20
120.848907
 30
0.0
 10
157.869501
 20
120.427479
 30
0.0
 10
156.808636
 20
120.427479
 30
0.0
  0
SPLINE
  5
127
100
AcDbEntity
  8
Layer_1
 62
1
100
AcDbSpline
 70
8
 71
3
 72
8
 73
4
 74
0
 40
0
 40
0
 40
0
 40
0
 40
1
 40
1
 40
1
 40
1
 10
156.808636
 20
120.427479
 30
0.0
 10
155.747768
 20
120.427479
 30
0.0
 10
154.730355
 20
120.848907
 30
0.0
 10
153.980208
 20
121.599051
 30
0.0
  0
SPLINE
  5
128
100
AcDbEntity
  8
Layer_1
 62
1
100
AcDbSpline
 70
8
 71
3
 72
8
 73
4
 74
0
 40
0
 40
0
 40
0
 40
0
 40
1
 40
1
 40
1
 40
1
 10
153.980208
 20
121.599051
 30
0.0
 10
153.230064
 20
122.349198
 30
0.0
 10
152.808636
 20
123.366613
 30
0.0
 10
152.808636
 20
124.427479
 30
0.0
  0
SPLINE
  5
129
100
AcDbEntity
  8
Layer_1
 62
1
100
AcDbSpline
 70
8
 71
3
 72
8
 73
4
 74
0
 40
0
 40
0
 40
0
 40
0
 40
1
 40
1
 40
1
 40
1
 10
152.808635
 20
150.781646
 30
0.0
 10
152.808635
 20
151.842511
 30
0.0
 10
153.230063
 20
152.859927
 30
0.0
 10
153.980207
 20
153.610073
 30
0.0
  0
SPLINE
  5
12a
100
AcDbEntity
  8
Layer_1
 62
1
100
AcDbSpline
 70
8
 71
3
 72
8
 73
4
 74
0
 40
0
 40
0
 40
0
 40
0
 40
1
 40
1
 40
1
 40
1
 10
153.980207
 20
153.610073
 30
0.0
 10
154.730354
 20
154.360220
 30
0.0
 10
155.747769
 20
154.781646
 30
0.0
 10
156.808635
 20
154.781646
 30
0.0
  0
SPLINE
  5
12b
100
AcDbEntity
  8
Layer_1
 62
1
100
AcDbSpline
 70
8
 71
3
 72
8
 73
4
 74
0
 40
0
 40
0
 40
0
 40
0
 40
1
 40
1
 40
1
 40
1
 10
156.808635
 20
154.781646
 30
0.0
 10
157.869500
 20
154.781646
 30
0.0
 10
158.886916
 20
154.360220
 30
0.0
 10
159.637062
 20
153.610073
 30
0.0
  0
SPLINE
  5
12c
100
AcDbEntity
  8
Layer_1
 62
1
100
AcDbSpline
 70
8
 71
3
 72
8
 73
4
 74
0
 40
0
 40
0
 40
0
 40
0
 40
1
 40
1
 40
1
 40
1
 10
159.637062
 20
153.610073
 30
0.0
 10
160.387209
 20
152.859927
 30
0.0
 10
160.808635
 20
151.842511
 30
0.0
 10
160.808635
 20
150.781646
 30
0.0
  0
SPLINE
  5
12d
100
AcDbEntity
  8
Layer_1
 62
1
100
AcDbSpline
 70
8
 71
3
 72
8
 73
4
 74
0
 40
0
 40
0
 40
0
 40
0
 40
1
 40
1
 40
1
 40
1
 10
160.808635
 20
150.781646
 30
0.0
 10
160.808635
 20
149.720780
 30
0.0
 10
160.387209
 20
148.703365
 30
0.0
 10
159.637062
 20
147.953218
 30
0.0
  0
SPLINE
  5
12e
100
AcDbEntity
  8
Layer_1
 62
1
100
AcDbSpline
 70
8
 71
3
 72
8
 73
4
 74
0
 40
0
 40
0
 40
0
 40
0
 40
1
 40
1
 40
1
 40
1
 10
159.637062
 20
147.953218
 30
0.0
 10
158.886916
 20
147.203074
 30
0.0
 10
157.869500
 20
146.781646
 30
0.0
 10
156.808635
 20
146.781646
 30
0.0
  0
SPLINE
  5
12f
100
AcDbEntity
  8
Layer_1
 62
1
100
AcDbSpline
 70
8
 71
3
 72
8
 73
4
 74
0
 40
0
 40
0
 40
0
 40
0
 40
1
 40
1
 40
1
 40
1
 10
156.808635
 20
146.781646
 30
0.0
 10
155.747769
 20
146.781646
 30
0.0
 10
154.730354
 20
147.203074
 30
0.0
 10
153.980207
 20
147.953218
 30
0.0
  0
SPLINE
  5
130
100
AcDbEntity
  8
Layer_1
 62
1
100
AcDbSpline
 70
8
 71
3
 72
8
 73
4
 74
0
 40
0
 40
0
 40
0
 40
0
 40
1
 40
1
 40
1
 40
1
 10
153.980207
 20
147.953218
 30
0.0
 10
153.230063
 20
148.703365
 30
0.0
 10
152.808635
 20
149.720780
 30
0.0
 10
152.808635
 20
150.781646
 30
0.0
  0
SPLINE
  5
131
100
AcDbEntity
  8
Layer_1
 62
1
100
AcDbSpline
 70
8
 71
3
 72
8
 73
4
 74
0
 40
0
 40
0
 40
0
 40
0
 40
1
 40
1
 40
1
 40
1
 10
-78.461367
 20
124.427021
 30
0.0
 10
-78.461367
 20
125.487886
 30
0.0
 10
-78.039939
 20
126.505302
 30
0.0
 10
-77.289792
 20
127.255446
 30
0.0
  0
SPLINE
  5
132
100
AcDbEntity
  8
Layer_1
 62
1
100
AcDbSpline
 70
8
 71
3
 72
8
 73
4
 74
0
 40
0
 40
0
 40
0
 40
0
 40
1
 40
1
 40
1
 40
1
 10
-77.289792
 20
127.255446
 30
0.0
 10
-76.539648
 20
128.005593
 30
0.0
 10
-75.522233
 20
128.427021
 30
0.0
 10
-74.461367
 20
128.427021
 30
0.0
  0
SPLINE
  5
133
100
AcDbEntity
  8
Layer_1
 62
1
100
AcDbSpline
 70
8
 71
3
 72
8
 73
4
 74
0
 40
0
 40
0
 40
0
 40
0
 40
1
 40
1
 40
1
 40
1
 10
-74.461367
 20
128.427021
 30
0.0
 10
-73.400499
 20
128.427021
 30
0.0
 10
-72.383084
 20
128.005593
 30
0.0
 10
-71.632940
 20
127.255446
 30
0.0
  0
SPLINE
  5
134
100
AcDbEntity
  8
Layer_1
 62
1
100
AcDbSpline
 70
8
 71
3
 72
8
 73
4
 74
0
 40
0
 40
0
 40
0
 40
0
 40
1
 40
1
 40
1
 40
1
 10
-71.632940
 20
127.255446
 30
0.0
 10
-70.882793
 20
126.505302
 30
0.0
 10
-70.461367
 20
125.487886
 30
0.0
 10
-70.461367
 20
124.427021
 30
0.0
  0
SPLINE
  5
135
100
AcDbEntity
  8
Layer_1
 62
1
100
AcDbSpline
 70
8
 71
3
 72
8
 73
4
 74
0
 40
0
 40
0
 40
0
 40
0
 40
1
 40
1
 40
1
 40
1
 10
-70.461367
 20
124.427021
 30
0.0
 10
-70.461367
 20
123.366153
 30
0.0
 10
-70.882793
 20
122.348737
 30
0.0
 10
-71.632940
 20
121.598593
 30
0.0
  0
SPLINE
  5
136
100
AcDbEntity
  8
Layer_1
 62
1
100
AcDbSpline
 70
8
 71
3
 72
8
 73
4
 74
0
 40
0
 40
0
 40
0
 40
0
 40
1
 40
1
 40
1
 40
1
 10
-71.632940
 20
121.598593
 30
0.0
 10
-72.383084
 20
120.848447
 30
0.0
 10
-73.400499
 20
120.427021
 30
0.0
 10
-74.461367
 20
120.427021
 30
0.0
  0
SPLINE
  5
137
100
AcDbEntity
  8
Layer_1
 62
1
100
AcDbSpline
 70
8
 71
3
 72
8
 73
4
 74
0
 40
0
 40
0
 40
0
 40
0
 40
1
 40
1
 40
1
 40
1
 10
-74.461367
 20
120.427021
 30
0.0
 10
-75.522233
 20
120.427021
 30
0.0
 10
-76.539648
 20
120.848447
 30
0.0
 10
-77.289792
 20
121.598593
 30
0.0
  0
SPLINE
  5
138
100
AcDbEntity
  8
Layer_1
 62
1
100
AcDbSpline
 70
8
 71
3
 72
8
 73
4
 74
0
 40
0
 40
0
 40
0
 40
0
 40
1
 40
1
 40
1
 40
1
 10
-77.289792
 20
121.598593
 30
0.0
 10
-78.039939
 20
122.348737
 30
0.0
 10
-78.461367
 20
123.366153
 30
0.0
 10
-78.461367
 20
124.427021
 30
0.0
  0
SPLINE
  5
139
100
AcDbEntity
  8
Layer_1
 62
7
100
AcDbSpline
 70
8
 71
3
 72
8
 73
4
 74
0
 40
0
 40
0
 40
0
 40
0
 40
1
 40
1
 40
1
 40
1
 10
-184.808066
 20
110.176608
 30
0.0
 10
-187.578095
 20
110.176608
 30
0.0
 10
-189.808189
 20
112.406839
 30
0.0
 10
-189.808189
 20
115.176849
 30
0.0
  0
LINE
  5
13a
100
AcDbEntity
  8
Layer_1
 62
7
100
AcDbLine
 10
185.163005
 20
164.252480
 30
0.0
 11
16.449802
 21
164.252480
 31
0.0
  0
LINE
  5
13b
100
AcDbEntity
  8
Layer_1
 62
7
100
AcDbLine
 10
16.449802
 20
164.252480
 30
0.0
 11
-176.066614
 21
164.252480
 31
0.0
  0
LINE
  5
13c
100
AcDbEntity
  8
Layer_1
 62
7
100
AcDbLine
 10
-176.066614
 20
164.252480
 30
0.0
 11
-184.780073
 21
164.253009
 31
0.0
  0
SPLINE
  5
13d
100
AcDbEntity
  8
Layer_1
 62
7
100
AcDbSpline
 70
8
 71
3
 72
8
 73
4
 74
0
 40
0
 40
0
 40
0
 40
0
 40
1
 40
1
 40
1
 40
1
 10
-189.779772
 20
159.252958
 30
0.0
 10
-189.779772
 20
162.022979
 30
0.0
 10
-187.550102
 20
164.252689
 30
0.0
 10
-184.780073
 20
164.252689
 30
0.0
  0
LINE
  5
13e
100
AcDbEntity
  8
Layer_1
 62
7
100
AcDbLine
 10
-189.808189
 20
115.176849
 30
0.0
 11
-189.779772
 21
159.252958
 31
0.0
  0
SPLINE
  5
13f
100
AcDbEntity
  8
Layer_1
 62
7
100
AcDbSpline
 70
8
 71
3
 72
8
 73
4
 74
0
 40
0
 40
0
 40
0
 40
0
 40
1
 40
1
 40
1
 40
1
 10
-143.970745
 20
110.176605
 30
0.0
 10
-141.200717
 20
110.176605
 30
0.0
 10
-138.970366
 20
112.406836
 30
0.0
 10
-138.970366
 20
115.176846
 30
0.0
  0
SPLINE
  5
140
100
AcDbEntity
  8
Layer_1
 62
7
100
AcDbSpline
 70
8
 71
3
 72
8
 73
4
 74
0
 40
0
 40
0
 40
0
 40
0
 40
1
 40
1
 40
1
 40
1
 10
-138.970366
 20
134.410380
 30
0.0
 10
-138.970366
 20
136.686900
 30
0.0
 10
-140.477751
 20
138.595498
 30
0.0
 10
-142.552058
 20
139.204429
 30
0.0
  0
SPLINE
  5
141
100
AcDbEntity
  8
Layer_1
 62
1
100
AcDbSpline
 70
8
 71
3
 72
8
 73
4
 74
0
 40
0
 40
0
 40
0
 40
0
 40
1
 40
1
 40
1
 40
1
 10
-177.633360
 20
124.427521
 30
0.0
 10
-177.633360
 20
125.488386
 30
0.0
 10
-177.211932
 20
126.505805
 30
0.0
 10
-176.461788
 20
127.255949
 30
0.0
  0
SPLINE
  5
142
100
AcDbEntity
  8
Layer_1
 62
1
100
AcDbSpline
 70
8
 71
3
 72
8
 73
4
 74
0
 40
0
 40
0
 40
0
 40
0
 40
1
 40
1
 40
1
 40
1
 10
-176.461788
 20
127.255949
 30
0.0
 10
-175.711641
 20
128.006095
 30
0.0
 10
-174.694226
 20
128.427521
 30
0.0
 10
-173.633360
 20
128.427521
 30
0.0
  0
SPLINE
  5
143
100
AcDbEntity
  8
Layer_1
 62
1
100
AcDbSpline
 70
8
 71
3
 72
8
 73
4
 74
0
 40
0
 40
0
 40
0
 40
0
 40
1
 40
1
 40
1
 40
1
 10
-173.633360
 20
128.427521
 30
0.0
 10
-172.572495
 20
128.427521
 30
0.0
 10
-171.555079
 20
128.006095
 30
0.0
 10
-170.804933
 20
127.255949
 30
0.0
  0
SPLINE
  5
144
100
AcDbEntity
  8
Layer_1
 62
1
100
AcDbSpline
 70
8
 71
3
 72
8
 73
4
 74
0
 40
0
 40
0
 40
0
 40
0
 40
1
 40
1
 40
1
 40
1
 10
-170.804933
 20
127.255949
 30
0.0
 10
-170.054786
 20
126.505805
 30
0.0
 10
-169.633360
 20
125.488386
 30
0.0
 10
-169.633360
 20
124.427521
 30
0.0
  0
SPLINE
  5
145
100
AcDbEntity
  8
Layer_1
 62
1
100
AcDbSpline
 70
8
 71
3
 72
8
 73
4
 74
0
 40
0
 40
0
 40
0
 40
0
 40
1
 40
1
 40
1
 40
1
 10
-169.633360
 20
124.427521
 30
0.0
 10
-169.633360
 20
123.366656
 30
0.0
 10
-170.054786
 20
122.349240
 30
0.0
 10
-170.804933
 20
121.599094
 30
0.0
  0
SPLINE
  5
146
100
AcDbEntity
  8
Layer_1
 62
1
100
AcDbSpline
 70
8
 71
3
 72
8
 73
4
 74
0
 40
0
 40
0
 40
0
 40
0
 40
1
 40
1
 40
1
 40
1
 10
-170.804933
 20
121.599094
 30
0.0
 10
-171.555079
 20
120.848949
 30
0.0
 10
-172.572495
 20
120.427521
 30
0.0
 10
-173.633360
 20
120.427521
 30
0.0
  0
SPLINE
  5
147
100
AcDbEntity
  8
Layer_1
 62
1
100
AcDbSpline
 70
8
 71
3
 72
8
 73
4
 74
0
 40
0
 40
0
 40
0
 40
0
 40
1
 40
1
 40
1
 40
1
 10
-173.633360
 20
120.427521
 30
0.0
 10
-174.694226
 20
120.427521
 30
0.0
 10
-175.711641
 20
120.848949
 30
0.0
 10
-176.461788
 20
121.599094
 30
0.0
  0
SPLINE
  5
148
100
AcDbEntity
  8
Layer_1
 62
1
100
AcDbSpline
 70
8
 71
3
 72
8
 73
4
 74
0
 40
0
 40
0
 40
0
 40
0
 40
1
 40
1
 40
1
 40
1
 10
-176.461788
 20
121.599094
 30
0.0
 10
-177.211932
 20
122.349240
 30
0.0
 10
-177.633360
 20
123.366656
 30
0.0
 10
-177.633360
 20
124.427521
 30
0.0
  0
SPLINE
  5
149
100
AcDbEntity
  8
Layer_1
 62
1
100
AcDbSpline
 70
8
 71
3
 72
8
 73
4
 74
0
 40
0
 40
0
 40
0
 40
0
 40
1
 40
1
 40
1
 40
1
 10
-177.633360
 20
150.781688
 30
0.0
 10
-177.633360
 20
151.842553
 30
0.0
 10
-177.211932
 20
152.859969
 30
0.0
 10
-176.461788
 20
153.610116
 30
0.0
  0
SPLINE
  5
14a
100
AcDbEntity
  8
Layer_1
 62
1
100
AcDbSpline
 70
8
 71
3
 72
8
 73
4
 74
0
 40
0
 40
0
 40
0
 40
0
 40
1
 40
1
 40
1
 40
1
 10
-176.461788
 20
153.610116
 30
0.0
 10
-175.711641
 20
154.360262
 30
0.0
 10
-174.694226
 20
154.781688
 30
0.0
 10
-173.633360
 20
154.781688
 30
0.0
  0
SPLINE
  5
14b
100
AcDbEntity
  8
Layer_1
 62
1
100
AcDbSpline
 70
8
 71
3
 72
8
 73
4
 74
0
 40
0
 40
0
 40
0
 40
0
 40
1
 40
1
 40
1
 40
1
 10
-173.633360
 20
154.781688
 30
0.0
 10
-172.572495
 20
154.781688
 30
0.0
 10
-171.555079
 20
154.360262
 30
0.0
 10
-170.804933
 20
153.610116
 30
0.0
  0
SPLINE
  5
14c
100
AcDbEntity
  8
Layer_1
 62
1
100
AcDbSpline
 70
8
 71
3
 72
8
 73
4
 74
0
 40
0
 40
0
 40
0
 40
0
 40
1
 40
1
 40
1
 40
1
 10
-170.804933
 20
153.610116
 30
0.0
 10
-170.054786
 20
152.859969
 30
0.0
 10
-169.633360
 20
151.842553
 30
0.0
 10
-169.633360
 20
150.781688
 30
0.0
  0
SPLINE
  5
14d
100
AcDbEntity
  8
Layer_1
 62
1
100
AcDbSpline
 70
8
 71
3
 72
8
 73
4
 74
0
 40
0
 40
0
 40
0
 40
0
 40
1
 40
1
 40
1
 40
1
 10
-169.633360
 20
150.781688
 30
0.0
 10
-169.633360
 20
149.720823
 30
0.0
 10
-170.054786
 20
148.703407
 30
0.0
 10
-170.804933
 20
147.953260
 30
0.0
  0
SPLINE
  5
14e
100
AcDbEntity
  8
Layer_1
 62
1
100
AcDbSpline
 70
8
 71
3
 72
8
 73
4
 74
0
 40
0
 40
0
 40
0
 40
0
 40
1
 40
1
 40
1
 40
1
 10
-170.804933
 20
147.953260
 30
0.0
 10
-171.555079
 20
147.203116
 30
0.0
 10
-172.572495
 20
146.781688
 30
0.0
 10
-173.633360
 20
146.781688
 30
0.0
  0
SPLINE
  5
14f
100
AcDbEntity
  8
Layer_1
 62
1
100
AcDbSpline
 70
8
 71
3
 72
8
 73
4
 74
0
 40
0
 40
0
 40
0
 40
0
 40
1
 40
1
 40
1
 40
1
 10
-173.633360
 20
146.781688
 30
0.0
 10
-174.694226
 20
146.781688
 30
0.0
 10
-175.711641
 20
147.203116
 30
0.0
 10
-176.461788
 20
147.953260
 30
0.0
  0
SPLINE
  5
150
100
AcDbEntity
  8
Layer_1
 62
1
100
AcDbSpline
 70
8
 71
3
 72
8
 73
4
 74
0
 40
0
 40
0
 40
0
 40
0
 40
1
 40
1
 40
1
 40
1
 10
-176.461788
 20
147.953260
 30
0.0
 10
-177.211932
 20
148.703407
 30
0.0
 10
-177.633360
 20
149.720823
 30
0.0
 10
-177.633360
 20
150.781688
 30
0.0
  0
SPLINE
  5
151
100
AcDbEntity
  8
Layer_1
 62
1
100
AcDbSpline
 70
8
 71
3
 72
8
 73
4
 74
0
 40
0
 40
0
 40
0
 40
0
 40
1
 40
1
 40
1
 40
1
 10
-157.633374
 20
124.427521
 30
0.0
 10
-157.633374
 20
125.488386
 30
0.0
 10
-157.211945
 20
126.505805
 30
0.0
 10
-156.461801
 20
127.255949
 30
0.0
  0
SPLINE
  5
152
100
AcDbEntity
  8
Layer_1
 62
1
100
AcDbSpline
 70
8
 71
3
 72
8
 73
4
 74
0
 40
0
 40
0
 40
0
 40
0
 40
1
 40
1
 40
1
 40
1
 10
-156.461801
 20
127.255949
 30
0.0
 10
-155.711655
 20
128.006095
 30
0.0
 10
-154.694239
 20
128.427521
 30
0.0
 10
-153.633374
 20
128.427521
 30
0.0
  0
SPLINE
  5
153
100
AcDbEntity
  8
Layer_1
 62
1
100
AcDbSpline
 70
8
 71
3
 72
8
 73
4
 74
0
 40
0
 40
0
 40
0
 40
0
 40
1
 40
1
 40
1
 40
1
 10
-153.633374
 20
128.427521
 30
0.0
 10
-152.572508
 20
128.427521
 30
0.0
 10
-151.555093
 20
128.006095
 30
0.0
 10
-150.804946
 20
127.255949
 30
0.0
  0
SPLINE
  5
154
100
AcDbEntity
  8
Layer_1
 62
1
100
AcDbSpline
 70
8
 71
3
 72
8
 73
4
 74
0
 40
0
 40
0
 40
0
 40
0
 40
1
 40
1
 40
1
 40
1
 10
-150.804946
 20
127.255949
 30
0.0
 10
-150.054799
 20
126.505805
 30
0.0
 10
-149.633374
 20
125.488386
 30
0.0
 10
-149.633374
 20
124.427521
 30
0.0
  0
SPLINE
  5
155
100
AcDbEntity
  8
Layer_1
 62
1
100
AcDbSpline
 70
8
 71
3
 72
8
 73
4
 74
0
 40
0
 40
0
 40
0
 40
0
 40
1
 40
1
 40
1
 40
1
 10
-149.633374
 20
124.427521
 30
0.0
 10
-149.633374
 20
123.366656
 30
0.0
 10
-150.054799
 20
122.349240
 30
0.0
 10
-150.804946
 20
121.599094
 30
0.0
  0
SPLINE
  5
156
100
AcDbEntity
  8
Layer_1
 62
1
100
AcDbSpline
 70
8
 71
3
 72
8
 73
4
 74
0
 40
0
 40
0
 40
0
 40
0
 40
1
 40
1
 40
1
 40
1
 10
-150.804946
 20
121.599094
 30
0.0
 10
-151.555093
 20
120.848949
 30
0.0
 10
-152.572508
 20
120.427521
 30
0.0
 10
-153.633374
 20
120.427521
 30
0.0
  0
SPLINE
  5
157
100
AcDbEntity
  8
Layer_1
 62
1
100
AcDbSpline
 70
8
 71
3
 72
8
 73
4
 74
0
 40
0
 40
0
 40
0
 40
0
 40
1
 40
1
 40
1
 40
1
 10
-153.633374
 20
120.427521
 30
0.0
 10
-154.694239
 20
120.427521
 30
0.0
 10
-155.711655
 20
120.848949
 30
0.0
 10
-156.461801
 20
121.599094
 30
0.0
  0
SPLINE
  5
158
100
AcDbEntity
  8
Layer_1
 62
1
100
AcDbSpline
 70
8
 71
3
 72
8
 73
4
 74
0
 40
0
 40
0
 40
0
 40
0
 40
1
 40
1
 40
1
 40
1
 10
-156.461801
 20
121.599094
 30
0.0
 10
-157.211945
 20
122.349240
 30
0.0
 10
-157.633374
 20
123.366656
 30
0.0
 10
-157.633374
 20
124.427521
 30
0.0
  0
SPLINE
  5
159
100
AcDbEntity
  8
Layer_1
 62
1
100
AcDbSpline
 70
8
 71
3
 72
8
 73
4
 74
0
 40
0
 40
0
 40
0
 40
0
 40
1
 40
1
 40
1
 40
1
 10
-157.633374
 20
150.781688
 30
0.0
 10
-157.633374
 20
151.842553
 30
0.0
 10
-157.211945
 20
152.859969
 30
0.0
 10
-156.461801
 20
153.610116
 30
0.0
  0
SPLINE
  5
15a
100
AcDbEntity
  8
Layer_1
 62
1
100
AcDbSpline
 70
8
 71
3
 72
8
 73
4
 74
0
 40
0
 40
0
 40
0
 40
0
 40
1
 40
1
 40
1
 40
1
 10
-156.461801
 20
153.610116
 30
0.0
 10
-155.711655
 20
154.360262
 30
0.0
 10
-154.694239
 20
154.781688
 30
0.0
 10
-153.633374
 20
154.781688
 30
0.0
  0
SPLINE
  5
15b
100
AcDbEntity
  8
Layer_1
 62
1
100
AcDbSpline
 70
8
 71
3
 72
8
 73
4
 74
0
 40
0
 40
0
 40
0
 40
0
 40
1
 40
1
 40
1
 40
1
 10
-153.633374
 20
154.781688
 30
0.0
 10
-152.572508
 20
154.781688
 30
0.0
 10
-151.555093
 20
154.360262
 30
0.0
 10
-150.804946
 20
153.610116
 30
0.0
  0
SPLINE
  5
15c
100
AcDbEntity
  8
Layer_1
 62
1
100
AcDbSpline
 70
8
 71
3
 72
8
 73
4
 74
0
 40
0
 40
0
 40
0
 40
0
 40
1
 40
1
 40
1
 40
1
 10
-150.804946
 20
153.610116
 30
0.0
 10
-150.054799
 20
152.859969
 30
0.0
 10
-149.633374
 20
151.842553
 30
0.0
 10
-149.633374
 20
150.781688
 30
0.0
  0
SPLINE
  5
15d
100
AcDbEntity
  8
Layer_1
 62
1
100
AcDbSpline
 70
8
 71
3
 72
8
 73
4
 74
0
 40
0
 40
0
 40
0
 40
0
 40
1
 40
1
 40
1
 40
1
 10
-149.633374
 20
150.781688
 30
0.0
 10
-149.633374
 20
149.720823
 30
0.0
 10
-150.054799
 20
148.703407
 30
0.0
 10
-150.804946
 20
147.953260
 30
0.0
  0
SPLINE
  5
15e
100
AcDbEntity
  8
Layer_1
 62
1
100
AcDbSpline
 70
8
 71
3
 72
8
 73
4
 74
0
 40
0
 40
0
 40
0
 40
0
 40
1
 40
1
 40
1
 40
1
 10
-150.804946
 20
147.953260
 30
0.0
 10
-151.555093
 20
147.203116
 30
0.0
 10
-152.572508
 20
146.781688
 30
0.0
 10
-153.633374
 20
146.781688
 30
0.0
  0
SPLINE
  5
15f
100
AcDbEntity
  8
Layer_1
 62
1
100
AcDbSpline
 70
8
 71
3
 72
8
 73
4
 74
0
 40
0
 40
0
 40
0
 40
0
 40
1
 40
1
 40
1
 40
1
 10
-153.633374
 20
146.781688
 30
0.0
 10
-154.694239
 20
146.781688
 30
0.0
 10
-155.711655
 20
147.203116
 30
0.0
 10
-156.461801
 20
147.953260
 30
0.0
  0
SPLINE
  5
160
100
AcDbEntity
  8
Layer_1
 62
1
100
AcDbSpline
 70
8
 71
3
 72
8
 73
4
 74
0
 40
0
 40
0
 40
0
 40
0
 40
1
 40
1
 40
1
 40
1
 10
-156.461801
 20
147.953260
 30
0.0
 10
-157.211945
 20
148.703407
 30
0.0
 10
-157.633374
 20
149.720823
 30
0.0
 10
-157.633374
 20
150.781688
 30
0.0
  0
LINE
  5
161
100
AcDbEntity
  8
Layer_1
 62
7
100
AcDbLine
 10
-138.970366
 20
115.176846
 30
0.0
 11
-138.970366
 21
134.410380
 31
0.0
  0
SPLINE
  5
162
100
AcDbEntity
  8
Layer_1
 62
1
100
AcDbSpline
 70
8
 71
3
 72
8
 73
4
 74
0
 40
0
 40
0
 40
0
 40
0
 40
1
 40
1
 40
1
 40
1
 10
-51.866348
 20
150.019410
 30
0.0
 10
-52.939262
 20
150.019410
 30
0.0
 10
-53.930632
 20
150.498756
 30
0.0
 10
-54.467088
 20
151.276882
 30
0.0
  0
SPLINE
  5
163
100
AcDbEntity
  8
Layer_1
 62
1
100
AcDbSpline
 70
8
 71
3
 72
8
 73
4
 74
0
 40
0
 40
0
 40
0
 40
0
 40
1
 40
1
 40
1
 40
1
 10
-54.467088
 20
151.276882
 30
0.0
 10
-55.003544
 20
152.055011
 30
0.0
 10
-55.003544
 20
153.013700
 30
0.0
 10
-54.467088
 20
153.791826
 30
0.0
  0
SPLINE
  5
164
100
AcDbEntity
  8
Layer_1
 62
1
100
AcDbSpline
 70
8
 71
3
 72
8
 73
4
 74
0
 40
0
 40
0
 40
0
 40
0
 40
1
 40
1
 40
1
 40
1
 10
-54.467088
 20
153.791826
 30
0.0
 10
-53.930632
 20
154.569955
 30
0.0
 10
-52.939217
 20
155.049108
 30
0.0
 10
-51.866303
 20
155.049108
 30
0.0
  0
LINE
  5
165
100
AcDbEntity
  8
Layer_1
 62
7
100
AcDbLine
 10
-184.808074
 20
110.175970
 30
0.0
 11
-143.971074
 21
110.177028
 31
0.0
  0
SPLINE
  5
166
100
AcDbEntity
  8
Layer_1
 62
1
100
AcDbSpline
 70
8
 71
3
 72
8
 73
4
 74
0
 40
0
 40
0
 40
0
 40
0
 40
1
 40
1
 40
1
 40
1
 10
-130.278849
 20
150.019418
 30
0.0
 10
-131.351763
 20
150.019418
 30
0.0
 10
-132.343133
 20
150.498761
 30
0.0
 10
-132.879589
 20
151.276890
 30
0.0
  0
SPLINE
  5
167
100
AcDbEntity
  8
Layer_1
 62
1
100
AcDbSpline
 70
8
 71
3
 72
8
 73
4
 74
0
 40
0
 40
0
 40
0
 40
0
 40
1
 40
1
 40
1
 40
1
 10
-132.879589
 20
151.276890
 30
0.0
 10
-133.416045
 20
152.055016
 30
0.0
 10
-133.416045
 20
153.013705
 30
0.0
 10
-132.879589
 20
153.791834
 30
0.0
  0
SPLINE
  5
168
100
AcDbEntity
  8
Layer_1
 62
1
100
AcDbSpline
 70
8
 71
3
 72
8
 73
4
 74
0
 40
0
 40
0
 40
0
 40
0
 40
1
 40
1
 40
1
 40
1
 10
-132.879589
 20
153.791834
 30
0.0
 10
-132.343133
 20
154.569963
 30
0.0
 10
-131.351719
 20
155.049113
 30
0.0
 10
-130.278804
 20
155.049113
 30
0.0
  0
LINE
  5
169
100
AcDbEntity
  8
Layer_1
 62
1
100
AcDbLine
 10
-51.864646
 20
155.049108
 30
0.0
 11
-42.739313
 21
155.072576
 31
0.0
  0
LINE
  5
16a
100
AcDbEntity
  8
Layer_1
 62
1
100
AcDbLine
 10
-51.865030
 20
150.019400
 30
0.0
 11
-42.740315
 21
150.066165
 31
0.0
  0
LINE
  5
16b
100
AcDbEntity
  8
Layer_1
 62
1
100
AcDbLine
 10
-130.277145
 20
155.049113
 30
0.0
 11
-121.151814
 21
155.072581
 31
0.0
  0
SPLINE
  5
16c
100
AcDbEntity
  8
Layer_1
 62
1
100
AcDbSpline
 70
8
 71
3
 72
8
 73
4
 74
0
 40
0
 40
0
 40
0
 40
0
 40
1
 40
1
 40
1
 40
1
 10
52.778438
 20
155.072571
 30
0.0
 10
53.851352
 20
155.072571
 30
0.0
 10
54.842722
 20
154.593225
 30
0.0
 10
55.379178
 20
153.815099
 30
0.0
  0
SPLINE
  5
16d
100
AcDbEntity
  8
Layer_1
 62
1
100
AcDbSpline
 70
8
 71
3
 72
8
 73
4
 74
0
 40
0
 40
0
 40
0
 40
0
 40
1
 40
1
 40
1
 40
1
 10
55.379178
 20
153.815099
 30
0.0
 10
55.915634
 20
153.036972
 30
0.0
 10
55.915634
 20
152.078281
 30
0.0
 10
55.379178
 20
151.300155
 30
0.0
  0
SPLINE
  5
16e
100
AcDbEntity
  8
Layer_1
 62
1
100
AcDbSpline
 70
8
 71
3
 72
8
 73
4
 74
0
 40
0
 40
0
 40
0
 40
0
 40
1
 40
1
 40
1
 40
1
 10
55.379178
 20
151.300155
 30
0.0
 10
54.842722
 20
150.522026
 30
0.0
 10
53.851307
 20
150.042873
 30
0.0
 10
52.778393
 20
150.042873
 30
0.0
  0
LINE
  5
16f
100
AcDbEntity
  8
Layer_1
 62
1
100
AcDbLine
 10
-130.277531
 20
150.019405
 30
0.0
 11
-121.152817
 21
150.066170
 31
0.0
  0
SPLINE
  5
170
100
AcDbEntity
  8
Layer_1
 62
1
100
AcDbSpline
 70
8
 71
3
 72
8
 73
4
 74
0
 40
0
 40
0
 40
0
 40
0
 40
1
 40
1
 40
1
 40
1
 10
131.190936
 20
155.072568
 30
0.0
 10
132.263851
 20
155.072568
 30
0.0
 10
133.255221
 20
154.593223
 30
0.0
 10
133.791677
 20
153.815096
 30
0.0
  0
SPLINE
  5
171
100
AcDbEntity
  8
Layer_1
 62
1
100
AcDbSpline
 70
8
 71
3
 72
8
 73
4
 74
0
 40
0
 40
0
 40
0
 40
0
 40
1
 40
1
 40
1
 40
1
 10
133.791677
 20
153.815096
 30
0.0
 10
134.328133
 20
153.036970
 30
0.0
 10
134.328133
 20
152.078279
 30
0.0
 10
133.791677
 20
151.300150
 30
0.0
  0
SPLINE
  5
172
100
AcDbEntity
  8
Layer_1
 62
1
100
AcDbSpline
 70
8
 71
3
 72
8
 73
4
 74
0
 40
0
 40
0
 40
0
 40
0
 40
1
 40
1
 40
1
 40
1
 10
133.791677
 20
151.300150
 30
0.0
 10
133.255221
 20
150.522023
 30
0.0
 10
132.263806
 20
150.042871
 30
0.0
 10
131.190892
 20
150.042871
 30
0.0
  0
LINE
  5
173
100
AcDbEntity
  8
Layer_1
 62
1
100
AcDbLine
 10
52.776734
 20
150.042873
 30
0.0
 11
43.651403
 21
150.019405
 31
0.0
  0
LINE
  5
174
100
AcDbEntity
  8
Layer_1
 62
1
100
AcDbLine
 10
52.777120
 20
155.072581
 30
0.0
 11
43.652406
 21
155.025816
 31
0.0
  0
LINE
  5
175
100
AcDbEntity
  8
Layer_1
 62
1
100
AcDbLine
 10
131.189233
 20
150.042871
 30
0.0
 11
122.063902
 21
150.019402
 31
0.0
  0
LINE
  5
176
100
AcDbEntity
  8
Layer_1
 62
1
100
AcDbLine
 10
131.189619
 20
155.072579
 30
0.0
 11
122.064902
 21
155.025814
 31
0.0
  0
LINE
  5
177
100
AcDbEntity
  8
Layer_1
 62
1
100
AcDbLine
 10
-178.873243
 20
143.895102
 30
0.0
 11
-178.873243
 21
138.901716
 31
0.0
  0
LINE
  5
178
100
AcDbEntity
  8
Layer_1
 62
1
100
AcDbLine
 10
-178.873243
 20
143.895102
 30
0.0
 11
-177.208781
 21
143.895102
 31
0.0
  0
LINE
  5
179
100
AcDbEntity
  8
Layer_1
 62
1
100
AcDbLine
 10
-177.208781
 20
143.895102
 30
0.0
 11
-176.495440
 21
143.657321
 31
0.0
  0
LINE
  5
17a
100
AcDbEntity
  8
Layer_1
 62
1
100
AcDbLine
 10
-176.495440
 20
143.657321
 30
0.0
 11
-176.019878
 21
143.181762
 31
0.0
  0
LINE
  5
17b
100
AcDbEntity
  8
Layer_1
 62
1
100
AcDbLine
 10
-176.019878
 20
143.181762
 30
0.0
 11
-175.782097
 21
142.706202
 31
0.0
  0
LINE
  5
17c
100
AcDbEntity
  8
Layer_1
 62
1
100
AcDbLine
 10
-175.782097
 20
142.706202
 30
0.0
 11
-175.544316
 21
141.992862
 31
0.0
  0
LINE
  5
17d
100
AcDbEntity
  8
Layer_1
 62
1
100
AcDbLine
 10
-175.544316
 20
141.992862
 30
0.0
 11
-175.544316
 21
140.803959
 31
0.0
  0
LINE
  5
17e
100
AcDbEntity
  8
Layer_1
 62
1
100
AcDbLine
 10
-175.544316
 20
140.803959
 30
0.0
 11
-175.782097
 21
140.090619
 31
0.0
  0
LINE
  5
17f
100
AcDbEntity
  8
Layer_1
 62
1
100
AcDbLine
 10
-175.782097
 20
140.090619
 30
0.0
 11
-176.019878
 21
139.615057
 31
0.0
  0
LINE
  5
180
100
AcDbEntity
  8
Layer_1
 62
1
100
AcDbLine
 10
-176.019878
 20
139.615057
 30
0.0
 11
-176.495440
 21
139.139497
 31
0.0
  0
LINE
  5
181
100
AcDbEntity
  8
Layer_1
 62
1
100
AcDbLine
 10
-176.495440
 20
139.139497
 30
0.0
 11
-177.208781
 21
138.901716
 31
0.0
  0
LINE
  5
182
100
AcDbEntity
  8
Layer_1
 62
1
100
AcDbLine
 10
-177.208781
 20
138.901716
 30
0.0
 11
-178.873243
 21
138.901716
 31
0.0
  0
LINE
  5
183
100
AcDbEntity
  8
Layer_1
 62
1
100
AcDbLine
 10
-172.928735
 20
142.230640
 30
0.0
 11
-173.404295
 21
141.992862
 31
0.0
  0
LINE
  5
184
100
AcDbEntity
  8
Layer_1
 62
1
100
AcDbLine
 10
-173.404295
 20
141.992862
 30
0.0
 11
-173.879857
 21
141.517300
 31
0.0
  0
LINE
  5
185
100
AcDbEntity
  8
Layer_1
 62
1
100
AcDbLine
 10
-173.879857
 20
141.517300
 30
0.0
 11
-174.117635
 21
140.803959
 31
0.0
  0
LINE
  5
186
100
AcDbEntity
  8
Layer_1
 62
1
100
AcDbLine
 10
-174.117635
 20
140.803959
 30
0.0
 11
-174.117635
 21
140.328397
 31
0.0
  0
LINE
  5
187
100
AcDbEntity
  8
Layer_1
 62
1
100
AcDbLine
 10
-174.117635
 20
140.328397
 30
0.0
 11
-173.879857
 21
139.615057
 31
0.0
  0
LINE
  5
188
100
AcDbEntity
  8
Layer_1
 62
1
100
AcDbLine
 10
-173.879857
 20
139.615057
 30
0.0
 11
-173.404295
 21
139.139497
 31
0.0
  0
LINE
  5
189
100
AcDbEntity
  8
Layer_1
 62
1
100
AcDbLine
 10
-173.404295
 20
139.139497
 30
0.0
 11
-172.928735
 21
138.901716
 31
0.0
  0
LINE
  5
18a
100
AcDbEntity
  8
Layer_1
 62
1
100
AcDbLine
 10
-172.928735
 20
138.901716
 30
0.0
 11
-172.215395
 21
138.901716
 31
0.0
  0
LINE
  5
18b
100
AcDbEntity
  8
Layer_1
 62
1
100
AcDbLine
 10
-172.215395
 20
138.901716
 30
0.0
 11
-171.739833
 21
139.139497
 31
0.0
  0
LINE
  5
18c
100
AcDbEntity
  8
Layer_1
 62
1
100
AcDbLine
 10
-171.739833
 20
139.139497
 30
0.0
 11
-171.264273
 21
139.615057
 31
0.0
  0
LINE
  5
18d
100
AcDbEntity
  8
Layer_1
 62
1
100
AcDbLine
 10
-171.264273
 20
139.615057
 30
0.0
 11
-171.026492
 21
140.328397
 31
0.0
  0
LINE
  5
18e
100
AcDbEntity
  8
Layer_1
 62
1
100
AcDbLine
 10
-171.026492
 20
140.328397
 30
0.0
 11
-171.026492
 21
140.803959
 31
0.0
  0
LINE
  5
18f
100
AcDbEntity
  8
Layer_1
 62
1
100
AcDbLine
 10
-171.026492
 20
140.803959
 30
0.0
 11
-171.264273
 21
141.517300
 31
0.0
  0
LINE
  5
190
100
AcDbEntity
  8
Layer_1
 62
1
100
AcDbLine
 10
-171.264273
 20
141.517300
 30
0.0
 11
-171.739833
 21
141.992862
 31
0.0
  0
LINE
  5
191
100
AcDbEntity
  8
Layer_1
 62
1
100
AcDbLine
 10
-171.739833
 20
141.992862
 30
0.0
 11
-172.215395
 21
142.230640
 31
0.0
  0
LINE
  5
192
100
AcDbEntity
  8
Layer_1
 62
1
100
AcDbLine
 10
-172.215395
 20
142.230640
 30
0.0
 11
-172.928735
 21
142.230640
 31
0.0
  0
LINE
  5
193
100
AcDbEntity
  8
Layer_1
 62
1
100
AcDbLine
 10
-169.362030
 20
143.895102
 30
0.0
 11
-169.362030
 21
138.901716
 31
0.0
  0
LINE
  5
194
100
AcDbEntity
  8
Layer_1
 62
1
100
AcDbLine
 10
-169.362030
 20
143.895102
 30
0.0
 11
-166.270884
 21
143.895102
 31
0.0
  0
LINE
  5
195
100
AcDbEntity
  8
Layer_1
 62
1
100
AcDbLine
 10
-169.362030
 20
141.517300
 30
0.0
 11
-167.459787
 21
141.517300
 31
0.0
  0
LINE
  5
196
100
AcDbEntity
  8
Layer_1
 62
1
100
AcDbLine
 10
-169.362030
 20
138.901716
 30
0.0
 11
-166.270884
 21
138.901716
 31
0.0
  0
LINE
  5
197
100
AcDbEntity
  8
Layer_1
 62
1
100
AcDbLine
 10
-161.753061
 20
143.181762
 30
0.0
 11
-162.228620
 21
143.657321
 31
0.0
  0
LINE
  5
198
100
AcDbEntity
  8
Layer_1
 62
1
100
AcDbLine
 10
-162.228620
 20
143.657321
 30
0.0
 11
-162.941963
 21
143.895102
 31
0.0
  0
LINE
  5
199
100
AcDbEntity
  8
Layer_1
 62
1
100
AcDbLine
 10
-162.941963
 20
143.895102
 30
0.0
 11
-163.893082
 21
143.895102
 31
0.0
  0
LINE
  5
19a
100
AcDbEntity
  8
Layer_1
 62
1
100
AcDbLine
 10
-163.893082
 20
143.895102
 30
0.0
 11
-164.606425
 21
143.657321
 31
0.0
  0
LINE
  5
19b
100
AcDbEntity
  8
Layer_1
 62
1
100
AcDbLine
 10
-164.606425
 20
143.657321
 30
0.0
 11
-165.081985
 21
143.181762
 31
0.0
  0
LINE
  5
19c
100
AcDbEntity
  8
Layer_1
 62
1
100
AcDbLine
 10
-165.081985
 20
143.181762
 30
0.0
 11
-165.081985
 21
142.706202
 31
0.0
  0
LINE
  5
19d
100
AcDbEntity
  8
Layer_1
 62
1
100
AcDbLine
 10
-165.081985
 20
142.706202
 30
0.0
 11
-164.844203
 21
142.230640
 31
0.0
  0
LINE
  5
19e
100
AcDbEntity
  8
Layer_1
 62
1
100
AcDbLine
 10
-164.844203
 20
142.230640
 30
0.0
 11
-164.606425
 21
141.992862
 31
0.0
  0
LINE
  5
19f
100
AcDbEntity
  8
Layer_1
 62
1
100
AcDbLine
 10
-164.606425
 20
141.992862
 30
0.0
 11
-164.130863
 21
141.755081
 31
0.0
  0
LINE
  5
1a0
100
AcDbEntity
  8
Layer_1
 62
1
100
AcDbLine
 10
-164.130863
 20
141.755081
 30
0.0
 11
-162.704182
 21
141.279519
 31
0.0
  0
LINE
  5
1a1
100
AcDbEntity
  8
Layer_1
 62
1
100
AcDbLine
 10
-162.704182
 20
141.279519
 30
0.0
 11
-162.228620
 21
141.041738
 31
0.0
  0
LINE
  5
1a2
100
AcDbEntity
  8
Layer_1
 62
1
100
AcDbLine
 10
-162.228620
 20
141.041738
 30
0.0
 11
-161.990842
 21
140.803959
 31
0.0
  0
LINE
  5
1a3
100
AcDbEntity
  8
Layer_1
 62
1
100
AcDbLine
 10
-161.990842
 20
140.803959
 30
0.0
 11
-161.753061
 21
140.328397
 31
0.0
  0
LINE
  5
1a4
100
AcDbEntity
  8
Layer_1
 62
1
100
AcDbLine
 10
-161.753061
 20
140.328397
 30
0.0
 11
-161.753061
 21
139.615057
 31
0.0
  0
LINE
  5
1a5
100
AcDbEntity
  8
Layer_1
 62
1
100
AcDbLine
 10
-161.753061
 20
139.615057
 30
0.0
 11
-162.228620
 21
139.139497
 31
0.0
  0
LINE
  5
1a6
100
AcDbEntity
  8
Layer_1
 62
1
100
AcDbLine
 10
-162.228620
 20
139.139497
 30
0.0
 11
-162.941963
 21
138.901716
 31
0.0
  0
LINE
  5
1a7
100
AcDbEntity
  8
Layer_1
 62
1
100
AcDbLine
 10
-162.941963
 20
138.901716
 30
0.0
 11
-163.893082
 21
138.901716
 31
0.0
  0
LINE
  5
1a8
100
AcDbEntity
  8
Layer_1
 62
1
100
AcDbLine
 10
-163.893082
 20
138.901716
 30
0.0
 11
-164.606425
 21
139.139497
 31
0.0
  0
LINE
  5
1a9
100
AcDbEntity
  8
Layer_1
 62
1
100
AcDbLine
 10
-164.606425
 20
139.139497
 30
0.0
 11
-165.081985
 21
139.615057
 31
0.0
  0
LINE
  5
1aa
100
AcDbEntity
  8
Layer_1
 62
1
100
AcDbLine
 10
-156.759675
 20
142.230640
 30
0.0
 11
-155.332994
 21
138.901716
 31
0.0
  0
LINE
  5
1ab
100
AcDbEntity
  8
Layer_1
 62
1
100
AcDbLine
 10
-153.906310
 20
142.230640
 30
0.0
 11
-155.332994
 21
138.901716
 31
0.0
  0
LINE
  5
1ac
100
AcDbEntity
  8
Layer_1
 62
1
100
AcDbLine
 10
-177.291222
 20
136.856572
 30
0.0
 11
-179.669025
 21
133.527645
 31
0.0
  0
LINE
  5
1ad
100
AcDbEntity
  8
Layer_1
 62
1
100
AcDbLine
 10
-179.669025
 20
133.527645
 30
0.0
 11
-176.102322
 21
133.527645
 31
0.0
  0
LINE
  5
1ae
100
AcDbEntity
  8
Layer_1
 62
1
100
AcDbLine
 10
-177.291222
 20
136.856572
 30
0.0
 11
-177.291222
 21
131.863183
 31
0.0
  0
LINE
  5
1af
100
AcDbEntity
  8
Layer_1
 62
1
100
AcDbLine
 10
-170.871155
 20
135.192110
 30
0.0
 11
-170.871155
 21
130.198724
 31
0.0
  0
LINE
  5
1b0
100
AcDbEntity
  8
Layer_1
 62
1
100
AcDbLine
 10
-170.871155
 20
134.478769
 30
0.0
 11
-170.395593
 21
134.954329
 31
0.0
  0
LINE
  5
1b1
100
AcDbEntity
  8
Layer_1
 62
1
100
AcDbLine
 10
-170.395593
 20
134.954329
 30
0.0
 11
-169.920034
 21
135.192110
 31
0.0
  0
LINE
  5
1b2
100
AcDbEntity
  8
Layer_1
 62
1
100
AcDbLine
 10
-169.920034
 20
135.192110
 30
0.0
 11
-169.206693
 21
135.192110
 31
0.0
  0
LINE
  5
1b3
100
AcDbEntity
  8
Layer_1
 62
1
100
AcDbLine
 10
-169.206693
 20
135.192110
 30
0.0
 11
-168.731131
 21
134.954329
 31
0.0
  0
LINE
  5
1b4
100
AcDbEntity
  8
Layer_1
 62
1
100
AcDbLine
 10
-168.731131
 20
134.954329
 30
0.0
 11
-168.255572
 21
134.478769
 31
0.0
  0
LINE
  5
1b5
100
AcDbEntity
  8
Layer_1
 62
1
100
AcDbLine
 10
-168.255572
 20
134.478769
 30
0.0
 11
-168.017791
 21
133.765426
 31
0.0
  0
LINE
  5
1b6
100
AcDbEntity
  8
Layer_1
 62
1
100
AcDbLine
 10
-168.017791
 20
133.765426
 30
0.0
 11
-168.017791
 21
133.289867
 31
0.0
  0
LINE
  5
1b7
100
AcDbEntity
  8
Layer_1
 62
1
100
AcDbLine
 10
-168.017791
 20
133.289867
 30
0.0
 11
-168.255572
 21
132.576526
 31
0.0
  0
LINE
  5
1b8
100
AcDbEntity
  8
Layer_1
 62
1
100
AcDbLine
 10
-168.255572
 20
132.576526
 30
0.0
 11
-168.731131
 21
132.100964
 31
0.0
  0
LINE
  5
1b9
100
AcDbEntity
  8
Layer_1
 62
1
100
AcDbLine
 10
-168.731131
 20
132.100964
 30
0.0
 11
-169.206693
 21
131.863183
 31
0.0
  0
LINE
  5
1ba
100
AcDbEntity
  8
Layer_1
 62
1
100
AcDbLine
 10
-169.206693
 20
131.863183
 30
0.0
 11
-169.920034
 21
131.863183
 31
0.0
  0
LINE
  5
1bb
100
AcDbEntity
  8
Layer_1
 62
1
100
AcDbLine
 10
-169.920034
 20
131.863183
 30
0.0
 11
-170.395593
 21
132.100964
 31
0.0
  0
LINE
  5
1bc
100
AcDbEntity
  8
Layer_1
 62
1
100
AcDbLine
 10
-170.395593
 20
132.100964
 30
0.0
 11
-170.871155
 21
132.576526
 31
0.0
  0
LINE
  5
1bd
100
AcDbEntity
  8
Layer_1
 62
1
100
AcDbLine
 10
-166.353329
 20
135.192110
 30
0.0
 11
-166.353329
 21
132.814305
 31
0.0
  0
LINE
  5
1be
100
AcDbEntity
  8
Layer_1
 62
1
100
AcDbLine
 10
-166.353329
 20
132.814305
 30
0.0
 11
-166.115548
 21
132.100964
 31
0.0
  0
LINE
  5
1bf
100
AcDbEntity
  8
Layer_1
 62
1
100
AcDbLine
 10
-166.115548
 20
132.100964
 30
0.0
 11
-165.639988
 21
131.863183
 31
0.0
  0
LINE
  5
1c0
100
AcDbEntity
  8
Layer_1
 62
1
100
AcDbLine
 10
-165.639988
 20
131.863183
 30
0.0
 11
-164.926648
 21
131.863183
 31
0.0
  0
LINE
  5
1c1
100
AcDbEntity
  8
Layer_1
 62
1
100
AcDbLine
 10
-164.926648
 20
131.863183
 30
0.0
 11
-164.451086
 21
132.100964
 31
0.0
  0
LINE
  5
1c2
100
AcDbEntity
  8
Layer_1
 62
1
100
AcDbLine
 10
-164.451086
 20
132.100964
 30
0.0
 11
-163.737745
 21
132.814305
 31
0.0
  0
LINE
  5
1c3
100
AcDbEntity
  8
Layer_1
 62
1
100
AcDbLine
 10
-163.737745
 20
135.192110
 30
0.0
 11
-163.737745
 21
131.863183
 31
0.0
  0
LINE
  5
1c4
100
AcDbEntity
  8
Layer_1
 62
1
100
AcDbLine
 10
-161.835502
 20
135.192110
 30
0.0
 11
-161.835502
 21
131.863183
 31
0.0
  0
LINE
  5
1c5
100
AcDbEntity
  8
Layer_1
 62
1
100
AcDbLine
 10
-161.835502
 20
134.240988
 30
0.0
 11
-161.122162
 21
134.954329
 31
0.0
  0
LINE
  5
1c6
100
AcDbEntity
  8
Layer_1
 62
1
100
AcDbLine
 10
-161.122162
 20
134.954329
 30
0.0
 11
-160.646602
 21
135.192110
 31
0.0
  0
LINE
  5
1c7
100
AcDbEntity
  8
Layer_1
 62
1
100
AcDbLine
 10
-160.646602
 20
135.192110
 30
0.0
 11
-159.933262
 21
135.192110
 31
0.0
  0
LINE
  5
1c8
100
AcDbEntity
  8
Layer_1
 62
1
100
AcDbLine
 10
-159.933262
 20
135.192110
 30
0.0
 11
-159.457700
 21
134.954329
 31
0.0
  0
LINE
  5
1c9
100
AcDbEntity
  8
Layer_1
 62
1
100
AcDbLine
 10
-159.457700
 20
134.954329
 30
0.0
 11
-159.219919
 21
134.240988
 31
0.0
  0
LINE
  5
1ca
100
AcDbEntity
  8
Layer_1
 62
1
100
AcDbLine
 10
-159.219919
 20
134.240988
 30
0.0
 11
-159.219919
 21
131.863183
 31
0.0
  0
LINE
  5
1cb
100
AcDbEntity
  8
Layer_1
 62
1
100
AcDbLine
 10
-154.702095
 20
134.478769
 30
0.0
 11
-155.177654
 21
134.954329
 31
0.0
  0
LINE
  5
1cc
100
AcDbEntity
  8
Layer_1
 62
1
100
AcDbLine
 10
-155.177654
 20
134.954329
 30
0.0
 11
-155.653216
 21
135.192110
 31
0.0
  0
LINE
  5
1cd
100
AcDbEntity
  8
Layer_1
 62
1
100
AcDbLine
 10
-155.653216
 20
135.192110
 30
0.0
 11
-156.366557
 21
135.192110
 31
0.0
  0
LINE
  5
1ce
100
AcDbEntity
  8
Layer_1
 62
1
100
AcDbLine
 10
-156.366557
 20
135.192110
 30
0.0
 11
-156.842116
 21
134.954329
 31
0.0
  0
LINE
  5
1cf
100
AcDbEntity
  8
Layer_1
 62
1
100
AcDbLine
 10
-156.842116
 20
134.954329
 30
0.0
 11
-157.317678
 21
134.478769
 31
0.0
  0
LINE
  5
1d0
100
AcDbEntity
  8
Layer_1
 62
1
100
AcDbLine
 10
-157.317678
 20
134.478769
 30
0.0
 11
-157.555457
 21
133.765426
 31
0.0
  0
LINE
  5
1d1
100
AcDbEntity
  8
Layer_1
 62
1
100
AcDbLine
 10
-157.555457
 20
133.765426
 30
0.0
 11
-157.555457
 21
133.289867
 31
0.0
  0
LINE
  5
1d2
100
AcDbEntity
  8
Layer_1
 62
1
100
AcDbLine
 10
-157.555457
 20
133.289867
 30
0.0
 11
-157.317678
 21
132.576526
 31
0.0
  0
LINE
  5
1d3
100
AcDbEntity
  8
Layer_1
 62
1
100
AcDbLine
 10
-157.317678
 20
132.576526
 30
0.0
 11
-156.842116
 21
132.100964
 31
0.0
  0
LINE
  5
1d4
100
AcDbEntity
  8
Layer_1
 62
1
100
AcDbLine
 10
-156.842116
 20
132.100964
 30
0.0
 11
-156.366557
 21
131.863183
 31
0.0
  0
LINE
  5
1d5
100
AcDbEntity
  8
Layer_1
 62
1
100
AcDbLine
 10
-156.366557
 20
131.863183
 30
0.0
 11
-155.653216
 21
131.863183
 31
0.0
  0
LINE
  5
1d6
100
AcDbEntity
  8
Layer_1
 62
1
100
AcDbLine
 10
-155.653216
 20
131.863183
 30
0.0
 11
-155.177654
 21
132.100964
 31
0.0
  0
LINE
  5
1d7
100
AcDbEntity
  8
Layer_1
 62
1
100
AcDbLine
 10
-155.177654
 20
132.100964
 30
0.0
 11
-154.702095
 21
132.576526
 31
0.0
  0
LINE
  5
1d8
100
AcDbEntity
  8
Layer_1
 62
1
100
AcDbLine
 10
-153.037633
 20
136.856572
 30
0.0
 11
-153.037633
 21
131.863183
 31
0.0
  0
LINE
  5
1d9
100
AcDbEntity
  8
Layer_1
 62
1
100
AcDbLine
 10
-153.037633
 20
134.240988
 30
0.0
 11
-152.324292
 21
134.954329
 31
0.0
  0
LINE
  5
1da
100
AcDbEntity
  8
Layer_1
 62
1
100
AcDbLine
 10
-152.324292
 20
134.954329
 30
0.0
 11
-151.848730
 21
135.192110
 31
0.0
  0
LINE
  5
1db
100
AcDbEntity
  8
Layer_1
 62
1
100
AcDbLine
 10
-151.848730
 20
135.192110
 30
0.0
 11
-151.135390
 21
135.192110
 31
0.0
  0
LINE
  5
1dc
100
AcDbEntity
  8
Layer_1
 62
1
100
AcDbLine
 10
-151.135390
 20
135.192110
 30
0.0
 11
-150.659830
 21
134.954329
 31
0.0
  0
LINE
  5
1dd
100
AcDbEntity
  8
Layer_1
 62
1
100
AcDbLine
 10
-150.659830
 20
134.954329
 30
0.0
 11
-150.422049
 21
134.240988
 31
0.0
  0
LINE
  5
1de
100
AcDbEntity
  8
Layer_1
 62
1
100
AcDbLine
 10
-150.422049
 20
134.240988
 30
0.0
 11
-150.422049
 21
131.863183
 31
0.0
  0
SPLINE
  5
1df
100
AcDbEntity
  8
Layer_1
 62
7
100
AcDbSpline
 70
8
 71
3
 72
8
 73
4
 74
0
 40
0
 40
0
 40
0
 40
0
 40
1
 40
1
 40
1
 40
1
 10
138.725593
 20
139.308902
 30
0.0
 10
138.725592
 20
138.984387
 30
0.0
 10
138.596678
 20
138.673163
 30
0.0
 10
138.367210
 20
138.443697
 30
0.0
  0
SPLINE
  5
1e0
100
AcDbEntity
  8
Layer_1
 62
7
100
AcDbSpline
 70
8
 71
3
 72
8
 73
4
 74
0
 40
0
 40
0
 40
0
 40
0
 40
1
 40
1
 40
1
 40
1
 10
138.367210
 20
138.443697
 30
0.0
 10
138.137741
 20
138.214231
 30
0.0
 10
137.826516
 20
138.085320
 30
0.0
 10
137.502000
 20
138.085323
 30
0.0
  0
SPLINE
  5
1e1
100
AcDbEntity
  8
Layer_1
 62
7
100
AcDbSpline
 70
8
 71
3
 72
8
 73
4
 74
0
 40
0
 40
0
 40
0
 40
0
 40
1
 40
1
 40
1
 40
1
 10
137.502000
 20
138.085323
 30
0.0
 10
136.826242
 20
138.085331
 30
0.0
 10
136.278435
 20
138.633144
 30
0.0
 10
136.278435
 20
139.308902
 30
0.0
  0
SPLINE
  5
1e2
100
AcDbEntity
  8
Layer_1
 62
7
100
AcDbSpline
 70
8
 71
3
 72
8
 73
4
 74
0
 40
0
 40
0
 40
0
 40
0
 40
1
 40
1
 40
1
 40
1
 10
136.278435
 20
139.308902
 30
0.0
 10
136.278435
 20
139.984661
 30
0.0
 10
136.826242
 20
140.532473
 30
0.0
 10
137.502000
 20
140.532481
 30
0.0
  0
SPLINE
  5
1e3
100
AcDbEntity
  8
Layer_1
 62
7
100
AcDbSpline
 70
8
 71
3
 72
8
 73
4
 74
0
 40
0
 40
0
 40
0
 40
0
 40
1
 40
1
 40
1
 40
1
 10
137.502000
 20
140.532481
 30
0.0
 10
137.826516
 20
140.532484
 30
0.0
 10
138.137741
 20
140.403574
 30
0.0
 10
138.367210
 20
140.174108
 30
0.0
  0
SPLINE
  5
1e4
100
AcDbEntity
  8
Layer_1
 62
7
100
AcDbSpline
 70
8
 71
3
 72
8
 73
4
 74
0
 40
0
 40
0
 40
0
 40
0
 40
1
 40
1
 40
1
 40
1
 10
138.367210
 20
140.174108
 30
0.0
 10
138.596678
 20
139.944642
 30
0.0
 10
138.725592
 20
139.633418
 30
0.0
 10
138.725593
 20
139.308902
 30
0.0
  0
LINE
  5
1e5
100
AcDbEntity
  8
Layer_1
 62
7
100
AcDbLine
 10
138.725593
 20
139.308902
 30
0.0
 11
138.725593
 21
139.308902
 31
0.0
  0
LINE
  5
1e6
100
AcDbEntity
  8
Layer_1
 62
1
100
AcDbLine
 10
-150.123535
 20
143.020575
 30
0.0
 11
-152.501338
 21
139.691651
 31
0.0
  0
LINE
  5
1e7
100
AcDbEntity
  8
Layer_1
 62
1
100
AcDbLine
 10
-152.501338
 20
139.691651
 30
0.0
 11
-148.934634
 21
139.691651
 31
0.0
  0
LINE
  5
1e8
100
AcDbEntity
  8
Layer_1
 62
1
100
AcDbLine
 10
-150.123535
 20
143.020575
 30
0.0
 11
-150.123535
 21
138.027189
 31
0.0
  0
ENDSEC
  0
SECTION
  2
OBJECTS
  0
DICTIONARY
  5
C
330
0
100
AcDbDictionary
  3
ACAD_GROUP
350
D
  3
ACAD_MLINESTYLE
350
17
  0
DICTIONARY
  5
D
330
C
100
AcDbDictionary
  0
DICTIONARY
  5
1A
330
C
100
AcDbDictionary
  0
DICTIONARY
  5
17
330
C
100
AcDbDictionary
  3
STANDARD
350
18
  0
DICTIONARY
  5
19
330
C
100
AcDbDictionary
  0
ENDSEC
  0
EOF
