0
SECTION
2
HEADER
9
$INSUNITS
70
4
9
$ACADVER
1
AC1014
9
$HANDSEED
5
FFFF
0
ENDSEC
0
SECTION
2
TABLES
0
TABLE
2
VPORT
5
8
100
AcDbSymbolTable
0
ENDTAB
0
TABLE
2
LTYPE
5
5
100
AcDbSymbolTable
0
LTYPE
5
14
100
AcDbSymbolTableRecord
100
AcDbLinetypeTableRecord
2
BYBLOCK
70
0
0
LTYPE
5
15
100
AcDbSymbolTableRecord
100
AcDbLinetypeTableRecord
2
BYLAYER
70
0
0
ENDTAB
0
TABLE
2
LAYER
5
2
100
AcDbSymbolTable
70
2
0
LAYER
5
50
100
AcDbSymbolTableRecord
100
AcDbLayerTableRecord
2
0
70
0
6
CONTINUOUS
0
ENDTAB
0
TABLE
2
STYLE
5
3
100
AcDbSymbolTable
70
1
0
STYLE
5
11
100
AcDbSymbolTableRecord
100
AcDbTextStyleTableRecord
2
STANDARD
70
0
0
ENDTAB
0
TABLE
2
VIEW
5
6
100
AcDbSymbolTable
70
0
0
ENDTAB
0
TABLE
2
UCS
5
7
100
AcDbSymbolTable
70
0
0
ENDTAB
0
TABLE
2
APPID
5
9
100
AcDbSymbolTable
70
2
0
APPID
5
12
100
AcDbSymbolTableRecord
100
AcDbRegAppTableRecord
2
ACAD
70
0
0
ENDTAB
0
TABLE
2
DIMSTYLE
5
A
100
AcDbSymbolTable
70
1
0
ENDTAB
0
TABLE
2
BLOCK_RECORD
5
1
100
AcDbSymbolTable
70
1
0
BLOCK_RECORD
5
1F
100
AcDbSymbolTableRecord
100
AcDbBlockTableRecord
2
*MODEL_SPACE
0
BLOCK_RECORD
5
1B
100
AcDbSymbolTableRecord
100
AcDbBlockTableRecord
2
*PAPER_SPACE
0
ENDTAB
0
ENDSEC
0
SECTION
2
BLOCKS
0
BLOCK
5
20
100
AcDbEntity
100
AcDbBlockBegin
2
*MODEL_SPACE
0
ENDBLK
5
21
100
AcDbEntity
100
AcDbBlockEnd
0
BLOCK
5
1C
100
AcDbEntity
100
AcDbBlockBegin
2
*PAPER_SPACE
0
ENDBLK
5
1D
100
AcDbEntity
100
AcDbBlockEnd
0
ENDSEC
0
SECTION
2
ENTITIES
0
LWPOLYLINE
5
100
100
AcDbEntity
8
0
100
AcDbPolyline
90
8
70
1
43
0.0
10
5.7211887261091554e-17
20
2.2204460492503131e-15
42
-0.41421356237309526
10
-9.9999999999999982
20
10
10
-9.9999999999999911
20
190
42
-0.41421356237309503
10
40
20
240
10
179.99963179203758
20
240
42
-0.41421356237309509
10
229.99963179203758
20
190
10
229.9996317920376
20
10
42
-0.41421356237309465
10
219.9996317920376
20
0
0
LWPOLYLINE
5
101
100
AcDbEntity
8
0
100
AcDbPolyline
90
4
70
1
43
0.0
10
140.99963179203763
20
12.750000000000004
42
-0.99999999999999989
10
140.99963179203763
20
7.2500000000000018
10
138.99963179203758
20
7.2500000000000142
42
-0.99999999999999989
10
138.99963179203758
20
12.749999999999986
0
LWPOLYLINE
5
102
100
AcDbEntity
8
0
100
AcDbPolyline
90
4
70
1
43
0.0
10
79
20
12.749999999999986
10
81.000000000000028
20
12.750000000000004
42
-0.99999999999999989
10
81
20
7.2500000000000018
10
79
20
7.2500000000000142
42
-0.99999999999999989
0
LWPOLYLINE
5
103
100
AcDbEntity
8
0
100
AcDbPolyline
90
4
70
1
43
0.0
10
1.9999999999999931
20
7.2500000000000018
10
0
20
7.2500000000000142
42
-0.99999999999999989
10
0
20
12.749999999999986
10
1.9999999999999949
20
12.750000000000004
42
-0.99999999999999989
0
LWPOLYLINE
5
104
100
AcDbEntity
8
0
100
AcDbPolyline
90
4
70
1
43
0.0
10
217.99963179203758
20
7.2500000000000142
42
-0.99999999999999989
10
217.99963179203758
20
12.749999999999986
10
219.9996317920376
20
12.749999999999986
42
-0.99999999999999989
10
219.9996317920376
20
7.2500000000000142
0
LWPOLYLINE
5
105
100
AcDbEntity
8
0
100
AcDbPolyline
90
4
70
1
43
0.0
10
64.014320228598876
20
231.25007485813384
42
-0.99999999999999989
10
64.014320228598876
20
236.75007485813381
10
66.014320228598891
20
236.75007485813381
42
-0.99999999999999989
10
66.014320228598891
20
231.25007485813384
0
CIRCLE
5
106
100
AcDbEntity
8
0
100
AcDbCircle
10
-110.01432022859888
20
234.00007485813381
30
0
40
2.750000000000004
210
0
220
0
230
-1
0
LWPOLYLINE
5
107
100
AcDbEntity
8
0
100
AcDbPolyline
90
4
70
1
43
0.0
10
156.01432022859888
20
231.25007485813384
10
154.01432022859888
20
231.25007485813384
42
-0.99999999999999989
10
154.01432022859888
20
236.75007485813381
10
156.01432022859888
20
236.75007485813381
42
-0.99999999999999989
0
ENDSEC
0
SECTION
2
OBJECTS
0
DICTIONARY
5
C
100
AcDbDictionary
3
ACAD_GROUP
350
D
3
ACAD_MLINESTYLE
350
17
0
DICTIONARY
5
D
100
AcDbDictionary
0
DICTIONARY
5
1A
330
C
100
AcDbDictionary
0
DICTIONARY
5
17
100
AcDbDictionary
0
ENDSEC
0
EOF
