  0
SECTION
  2
HEADER
  9
$EXTMIN
 10
3.834
 20
-19.663
 30
0.0
  9
$EXTMAX
 10
392.911
 20
64.834
 30
0.0
0
ENDSEC
  0
SECTION
  2
TABLES
  0
TABLE
  2
LAYER
70
 3
0
LAYER
  2
5
 70
  0
 62
5
  6
CONTINUOUS
0
LAYER
  2
6
 70
  0
 62
6
  6
CONTINUOUS
0
LAYER
  2
7
 70
  0
 62
7
  6
CONTINUOUS
0
ENDTAB
0
TABLE
2
LTYPE
70
  1
0
LTYPE
  2
AG_LTYPE_4
70
64
3
 AG STYLE 4
72
65
 73
1
40
0.000000
49
0.000000
0
ENDTAB
0
ENDSEC
  0
SECTION
  2
BLOCKS
  0
ENDSEC
  0
SECTION
  2
ENTITIES
0
LINE
8
5
  6
CONTINUOUS
10
387.805 
20
10.757 
11
387.935 
21
10.759
0
LINE
8
5
  6
CONTINUOUS
10
387.935 
20
10.759 
11
388.063 
21
10.763
0
LINE
8
5
  6
CONTINUOUS
10
388.063 
20
10.763 
11
388.191 
21
10.771
0
LINE
8
5
  6
CONTINUOUS
10
388.191 
20
10.771 
11
388.318 
21
10.783
0
LINE
8
5
  6
CONTINUOUS
10
388.318 
20
10.783 
11
388.444 
21
10.797
0
LINE
8
5
  6
CONTINUOUS
10
388.444 
20
10.797 
11
388.569 
21
10.814
0
LINE
8
5
  6
CONTINUOUS
10
388.569 
20
10.814 
11
388.693 
21
10.835
0
LINE
8
5
  6
CONTINUOUS
10
388.693 
20
10.835 
11
388.816 
21
10.858
0
LINE
8
5
  6
CONTINUOUS
10
388.816 
20
10.858 
11
388.937 
21
10.885
0
LINE
8
5
  6
CONTINUOUS
10
388.937 
20
10.885 
11
389.058 
21
10.914
0
LINE
8
5
  6
CONTINUOUS
10
389.058 
20
10.914 
11
389.177 
21
10.946
0
LINE
8
5
  6
CONTINUOUS
10
389.177 
20
10.946 
11
389.296 
21
10.981
0
LINE
8
5
  6
CONTINUOUS
10
389.296 
20
10.981 
11
389.413 
21
11.019
0
LINE
8
5
  6
CONTINUOUS
10
389.413 
20
11.019 
11
389.529 
21
11.060
0
LINE
8
5
  6
CONTINUOUS
10
389.529 
20
11.060 
11
389.643 
21
11.103
0
LINE
8
5
  6
CONTINUOUS
10
389.643 
20
11.103 
11
389.756 
21
11.149
0
LINE
8
5
  6
CONTINUOUS
10
389.756 
20
11.149 
11
389.868 
21
11.198
0
LINE
8
5
  6
CONTINUOUS
10
389.868 
20
11.198 
11
389.978 
21
11.250
0
LINE
8
5
  6
CONTINUOUS
10
389.978 
20
11.250 
11
390.087 
21
11.303
0
LINE
8
5
  6
CONTINUOUS
10
390.087 
20
11.303 
11
390.194 
21
11.360
0
LINE
8
5
  6
CONTINUOUS
10
390.194 
20
11.360 
11
390.300 
21
11.419
0
LINE
8
5
  6
CONTINUOUS
10
390.300 
20
11.419 
11
390.404 
21
11.481
0
LINE
8
5
  6
CONTINUOUS
10
390.404 
20
11.481 
11
390.507 
21
11.545
0
LINE
8
5
  6
CONTINUOUS
10
390.507 
20
11.545 
11
390.608 
21
11.611
0
LINE
8
5
  6
CONTINUOUS
10
390.608 
20
11.611 
11
390.707 
21
11.680
0
LINE
8
5
  6
CONTINUOUS
10
390.707 
20
11.680 
11
390.805 
21
11.751
0
LINE
8
5
  6
CONTINUOUS
10
390.805 
20
11.751 
11
390.901 
21
11.824
0
LINE
8
5
  6
CONTINUOUS
10
390.901 
20
11.824 
11
390.995 
21
11.900
0
LINE
8
5
  6
CONTINUOUS
10
390.995 
20
11.900 
11
391.087 
21
11.977
0
LINE
8
5
  6
CONTINUOUS
10
391.087 
20
11.977 
11
391.177 
21
12.057
0
LINE
8
5
  6
CONTINUOUS
10
391.177 
20
12.057 
11
391.265 
21
12.139
0
LINE
8
5
  6
CONTINUOUS
10
391.265 
20
12.139 
11
391.352 
21
12.224
0
LINE
8
5
  6
CONTINUOUS
10
391.352 
20
12.224 
11
391.436 
21
12.310
0
LINE
8
5
  6
CONTINUOUS
10
391.436 
20
12.310 
11
391.519 
21
12.398
0
LINE
8
5
  6
CONTINUOUS
10
391.519 
20
12.398 
11
391.599 
21
12.488
0
LINE
8
5
  6
CONTINUOUS
10
391.599 
20
12.488 
11
391.677 
21
12.581
0
LINE
8
5
  6
CONTINUOUS
10
391.677 
20
12.581 
11
391.754 
21
12.675
0
LINE
8
5
  6
CONTINUOUS
10
391.754 
20
12.675 
11
391.828 
21
12.771
0
LINE
8
5
  6
CONTINUOUS
10
391.828 
20
12.771 
11
391.899 
21
12.869
0
LINE
8
5
  6
CONTINUOUS
10
391.899 
20
12.869 
11
391.969 
21
12.968
0
LINE
8
5
  6
CONTINUOUS
10
391.969 
20
12.968 
11
392.036 
21
13.070
0
LINE
8
5
  6
CONTINUOUS
10
392.036 
20
13.070 
11
392.101 
21
13.173
0
LINE
8
5
  6
CONTINUOUS
10
392.101 
20
13.173 
11
392.164 
21
13.277
0
LINE
8
5
  6
CONTINUOUS
10
392.164 
20
13.277 
11
392.224 
21
13.384
0
LINE
8
5
  6
CONTINUOUS
10
392.224 
20
13.384 
11
392.282 
21
13.492
0
LINE
8
5
  6
CONTINUOUS
10
392.282 
20
13.492 
11
392.337 
21
13.602
0
LINE
8
5
  6
CONTINUOUS
10
392.337 
20
13.602 
11
392.390 
21
13.713
0
LINE
8
5
  6
CONTINUOUS
10
392.390 
20
13.713 
11
392.440 
21
13.825
0
LINE
8
5
  6
CONTINUOUS
10
392.440 
20
13.825 
11
392.487 
21
13.939
0
LINE
8
5
  6
CONTINUOUS
10
392.487 
20
13.939 
11
392.533 
21
14.055
0
LINE
8
5
  6
CONTINUOUS
10
392.533 
20
14.055 
11
392.575 
21
14.172
0
LINE
8
5
  6
CONTINUOUS
10
392.575 
20
14.172 
11
392.615 
21
14.290
0
LINE
8
5
  6
CONTINUOUS
10
392.615 
20
14.290 
11
392.652 
21
14.410
0
LINE
8
5
  6
CONTINUOUS
10
392.652 
20
14.410 
11
392.686 
21
14.530
0
LINE
8
5
  6
CONTINUOUS
10
392.686 
20
14.530 
11
392.717 
21
14.652
0
LINE
8
5
  6
CONTINUOUS
10
392.717 
20
14.652 
11
392.746 
21
14.776
0
LINE
8
5
  6
CONTINUOUS
10
392.746 
20
14.776 
11
392.771 
21
14.900
0
LINE
8
5
  6
CONTINUOUS
10
392.771 
20
14.900 
11
392.794 
21
15.025
0
LINE
8
5
  6
CONTINUOUS
10
392.794 
20
15.025 
11
392.814 
21
15.152
0
LINE
8
5
  6
CONTINUOUS
10
392.814 
20
15.152 
11
392.831 
21
15.280
0
LINE
8
5
  6
CONTINUOUS
10
392.831 
20
15.280 
11
392.844 
21
15.408
0
LINE
8
5
  6
CONTINUOUS
10
392.844 
20
15.408 
11
392.855 
21
15.538
0
LINE
8
5
  6
CONTINUOUS
10
392.855 
20
15.538 
11
392.863 
21
15.668
0
LINE
8
5
  6
CONTINUOUS
10
392.863 
20
15.668 
11
392.867 
21
15.800
0
LINE
8
5
  6
CONTINUOUS
10
392.867 
20
15.800 
11
392.911 
21
37.557
0
LINE
8
5
  6
CONTINUOUS
10
392.911 
20
37.557 
11
392.911 
21
37.679
0
LINE
8
5
  6
CONTINUOUS
10
392.911 
20
37.679 
11
392.908 
21
37.802
0
LINE
8
5
  6
CONTINUOUS
10
392.908 
20
37.802 
11
392.902 
21
37.924
0
LINE
8
5
  6
CONTINUOUS
10
392.902 
20
37.924 
11
392.893 
21
38.046
0
LINE
8
5
  6
CONTINUOUS
10
392.893 
20
38.046 
11
392.882 
21
38.168
0
LINE
8
5
  6
CONTINUOUS
10
392.882 
20
38.168 
11
392.868 
21
38.290
0
LINE
8
5
  6
CONTINUOUS
10
392.868 
20
38.290 
11
392.851 
21
38.412
0
LINE
8
5
  6
CONTINUOUS
10
392.851 
20
38.412 
11
392.831 
21
38.533
0
LINE
8
5
  6
CONTINUOUS
10
392.831 
20
38.533 
11
392.809 
21
38.654
0
LINE
8
5
  6
CONTINUOUS
10
392.809 
20
38.654 
11
392.784 
21
38.774
0
LINE
8
5
  6
CONTINUOUS
10
392.784 
20
38.774 
11
392.757 
21
38.894
0
LINE
8
5
  6
CONTINUOUS
10
392.757 
20
38.894 
11
392.727 
21
39.013
0
LINE
8
5
  6
CONTINUOUS
10
392.727 
20
39.013 
11
392.695 
21
39.132
0
LINE
8
5
  6
CONTINUOUS
10
392.695 
20
39.132 
11
392.660 
21
39.250
0
LINE
8
5
  6
CONTINUOUS
10
392.660 
20
39.250 
11
392.622 
21
39.368
0
LINE
8
5
  6
CONTINUOUS
10
392.622 
20
39.368 
11
392.582 
21
39.485
0
LINE
8
5
  6
CONTINUOUS
10
392.582 
20
39.485 
11
392.540 
21
39.601
0
LINE
8
5
  6
CONTINUOUS
10
392.540 
20
39.601 
11
392.496 
21
39.716
0
LINE
8
5
  6
CONTINUOUS
10
392.496 
20
39.716 
11
392.449 
21
39.831
0
LINE
8
5
  6
CONTINUOUS
10
392.449 
20
39.831 
11
392.399 
21
39.945
0
LINE
8
5
  6
CONTINUOUS
10
392.399 
20
39.945 
11
392.348 
21
40.058
0
LINE
8
5
  6
CONTINUOUS
10
392.348 
20
40.058 
11
392.294 
21
40.169
0
LINE
8
5
  6
CONTINUOUS
10
392.294 
20
40.169 
11
392.238 
21
40.280
0
LINE
8
5
  6
CONTINUOUS
10
392.238 
20
40.280 
11
392.179 
21
40.390
0
LINE
8
5
  6
CONTINUOUS
10
392.179 
20
40.390 
11
392.119 
21
40.499
0
LINE
8
5
  6
CONTINUOUS
10
392.119 
20
40.499 
11
392.056 
21
40.607
0
LINE
8
5
  6
CONTINUOUS
10
392.056 
20
40.607 
11
391.991 
21
40.713
0
LINE
8
5
  6
CONTINUOUS
10
391.991 
20
40.713 
11
391.924 
21
40.819
0
LINE
8
5
  6
CONTINUOUS
10
391.924 
20
40.819 
11
391.855 
21
40.923
0
LINE
8
5
  6
CONTINUOUS
10
391.855 
20
40.923 
11
391.784 
21
41.025
0
LINE
8
5
  6
CONTINUOUS
10
391.784 
20
41.025 
11
391.711 
21
41.127
0
LINE
8
5
  6
CONTINUOUS
10
391.711 
20
41.127 
11
391.636 
21
41.227
0
LINE
8
5
  6
CONTINUOUS
10
391.636 
20
41.227 
11
391.559 
21
41.326
0
LINE
8
5
  6
CONTINUOUS
10
391.559 
20
41.326 
11
391.480 
21
41.423
0
LINE
8
5
  6
CONTINUOUS
10
391.480 
20
41.423 
11
391.399 
21
41.518
0
LINE
8
5
  6
CONTINUOUS
10
391.399 
20
41.518 
11
391.316 
21
41.613
0
LINE
8
5
  6
CONTINUOUS
10
391.316 
20
41.613 
11
391.231 
21
41.705
0
LINE
8
5
  6
CONTINUOUS
10
391.231 
20
41.705 
11
391.144 
21
41.796
0
LINE
8
5
  6
CONTINUOUS
10
391.144 
20
41.796 
11
391.056 
21
41.885
0
LINE
8
5
  6
CONTINUOUS
10
391.056 
20
41.885 
11
390.966 
21
41.973
0
LINE
8
5
  6
CONTINUOUS
10
390.966 
20
41.973 
11
390.874 
21
42.058
0
LINE
8
5
  6
CONTINUOUS
10
390.874 
20
42.058 
11
390.780 
21
42.142
0
LINE
8
5
  6
CONTINUOUS
10
390.780 
20
42.142 
11
390.685 
21
42.225
0
LINE
8
5
  6
CONTINUOUS
10
390.685 
20
42.225 
11
390.588 
21
42.305
0
LINE
8
5
  6
CONTINUOUS
10
390.588 
20
42.305 
11
390.489 
21
42.383
0
LINE
8
5
  6
CONTINUOUS
10
390.489 
20
42.383 
11
390.389 
21
42.459
0
LINE
8
5
  6
CONTINUOUS
10
390.389 
20
42.459 
11
390.287 
21
42.534
0
LINE
8
5
  6
CONTINUOUS
10
390.287 
20
42.534 
11
390.183 
21
42.606
0
LINE
8
5
  6
CONTINUOUS
10
390.183 
20
42.606 
11
390.078 
21
42.676
0
LINE
8
5
  6
CONTINUOUS
10
390.078 
20
42.676 
11
389.972 
21
42.744
0
LINE
8
5
  6
CONTINUOUS
10
389.972 
20
42.744 
11
389.864 
21
42.809
0
LINE
8
5
  6
CONTINUOUS
10
389.864 
20
42.809 
11
389.754 
21
42.873
0
LINE
8
5
  6
CONTINUOUS
10
389.754 
20
42.873 
11
389.644 
21
42.934
0
LINE
8
5
  6
CONTINUOUS
10
389.644 
20
42.934 
11
389.531 
21
42.993
0
LINE
8
5
  6
CONTINUOUS
10
389.531 
20
42.993 
11
389.418 
21
43.050
0
LINE
8
5
  6
CONTINUOUS
10
389.418 
20
43.050 
11
389.303 
21
43.104
0
LINE
8
5
  6
CONTINUOUS
10
389.303 
20
43.104 
11
389.186 
21
43.155
0
LINE
8
5
  6
CONTINUOUS
10
389.186 
20
43.155 
11
389.069 
21
43.204
0
LINE
8
5
  6
CONTINUOUS
10
389.069 
20
43.204 
11
388.950 
21
43.251
0
LINE
8
5
  6
CONTINUOUS
10
388.950 
20
43.251 
11
388.830 
21
43.295
0
LINE
8
5
  6
CONTINUOUS
10
388.830 
20
43.295 
11
388.709 
21
43.336
0
LINE
8
5
  6
CONTINUOUS
10
388.709 
20
43.336 
11
388.586 
21
43.375
0
LINE
8
5
  6
CONTINUOUS
10
388.586 
20
43.375 
11
388.463 
21
43.411
0
LINE
8
5
  6
CONTINUOUS
10
388.463 
20
43.411 
11
388.338 
21
43.444
0
LINE
8
5
  6
CONTINUOUS
10
388.338 
20
43.444 
11
388.223 
21
43.472
0
LINE
8
5
  6
CONTINUOUS
10
388.223 
20
43.472 
11
388.109 
21
43.502
0
LINE
8
5
  6
CONTINUOUS
10
388.109 
20
43.502 
11
387.996 
21
43.534
0
LINE
8
5
  6
CONTINUOUS
10
387.996 
20
43.534 
11
387.884 
21
43.568
0
LINE
8
5
  6
CONTINUOUS
10
387.884 
20
43.568 
11
387.772 
21
43.605
0
LINE
8
5
  6
CONTINUOUS
10
387.772 
20
43.605 
11
387.661 
21
43.644
0
LINE
8
5
  6
CONTINUOUS
10
387.661 
20
43.644 
11
387.551 
21
43.685
0
LINE
8
5
  6
CONTINUOUS
10
387.551 
20
43.685 
11
387.442 
21
43.729
0
LINE
8
5
  6
CONTINUOUS
10
387.442 
20
43.729 
11
387.334 
21
43.775
0
LINE
8
5
  6
CONTINUOUS
10
387.334 
20
43.775 
11
387.227 
21
43.823
0
LINE
8
5
  6
CONTINUOUS
10
387.227 
20
43.823 
11
387.121 
21
43.873
0
LINE
8
5
  6
CONTINUOUS
10
387.121 
20
43.873 
11
387.015 
21
43.925
0
LINE
8
5
  6
CONTINUOUS
10
387.015 
20
43.925 
11
386.911 
21
43.979
0
LINE
8
5
  6
CONTINUOUS
10
386.911 
20
43.979 
11
386.809 
21
44.035
0
LINE
8
5
  6
CONTINUOUS
10
386.809 
20
44.035 
11
386.707 
21
44.093
0
LINE
8
5
  6
CONTINUOUS
10
386.707 
20
44.093 
11
386.606 
21
44.153
0
LINE
8
5
  6
CONTINUOUS
10
386.606 
20
44.153 
11
386.507 
21
44.215
0
LINE
8
5
  6
CONTINUOUS
10
386.507 
20
44.215 
11
386.409 
21
44.279
0
LINE
8
5
  6
CONTINUOUS
10
386.409 
20
44.279 
11
386.312 
21
44.345
0
LINE
8
5
  6
CONTINUOUS
10
386.312 
20
44.345 
11
386.217 
21
44.413
0
LINE
8
5
  6
CONTINUOUS
10
386.217 
20
44.413 
11
386.123 
21
44.482
0
LINE
8
5
  6
CONTINUOUS
10
386.123 
20
44.482 
11
386.031 
21
44.553
0
LINE
8
5
  6
CONTINUOUS
10
386.031 
20
44.553 
11
385.939 
21
44.626
0
LINE
8
5
  6
CONTINUOUS
10
385.939 
20
44.626 
11
385.850 
21
44.701
0
LINE
8
5
  6
CONTINUOUS
10
385.850 
20
44.701 
11
385.762 
21
44.777
0
LINE
8
5
  6
CONTINUOUS
10
385.762 
20
44.777 
11
385.675 
21
44.855
0
LINE
8
5
  6
CONTINUOUS
10
385.675 
20
44.855 
11
385.590 
21
44.935
0
LINE
8
5
  6
CONTINUOUS
10
385.590 
20
44.935 
11
385.507 
21
45.016
0
LINE
8
5
  6
CONTINUOUS
10
385.507 
20
45.016 
11
385.425 
21
45.099
0
LINE
8
5
  6
CONTINUOUS
10
385.425 
20
45.099 
11
385.345 
21
45.183
0
LINE
8
5
  6
CONTINUOUS
10
385.345 
20
45.183 
11
385.267 
21
45.269
0
LINE
8
5
  6
CONTINUOUS
10
385.267 
20
45.269 
11
385.191 
21
45.356
0
LINE
8
5
  6
CONTINUOUS
10
385.191 
20
45.356 
11
385.116 
21
45.445
0
LINE
8
5
  6
CONTINUOUS
10
385.116 
20
45.445 
11
385.044 
21
45.535
0
LINE
8
5
  6
CONTINUOUS
10
385.044 
20
45.535 
11
384.973 
21
45.626
0
LINE
8
5
  6
CONTINUOUS
10
384.973 
20
45.626 
11
384.904 
21
45.719
0
LINE
8
5
  6
CONTINUOUS
10
384.904 
20
45.719 
11
384.837 
21
45.813
0
LINE
8
5
  6
CONTINUOUS
10
384.837 
20
45.813 
11
384.772 
21
45.909
0
LINE
8
5
  6
CONTINUOUS
10
384.772 
20
45.909 
11
384.709 
21
46.005
0
LINE
8
5
  6
CONTINUOUS
10
384.709 
20
46.005 
11
384.648 
21
46.103
0
LINE
8
5
  6
CONTINUOUS
10
384.648 
20
46.103 
11
384.590 
21
46.202
0
LINE
8
5
  6
CONTINUOUS
10
384.590 
20
46.202 
11
384.533 
21
46.302
0
LINE
8
5
  6
CONTINUOUS
10
384.533 
20
46.302 
11
384.479 
21
46.403
0
LINE
8
5
  6
CONTINUOUS
10
384.479 
20
46.403 
11
384.427 
21
46.505
0
LINE
8
5
  6
CONTINUOUS
10
384.427 
20
46.505 
11
384.377 
21
46.609
0
LINE
8
5
  6
CONTINUOUS
10
384.377 
20
46.609 
11
384.329 
21
46.713
0
LINE
8
5
  6
CONTINUOUS
10
384.329 
20
46.713 
11
384.284 
21
46.818
0
LINE
8
5
  6
CONTINUOUS
10
384.284 
20
46.818 
11
384.241 
21
46.925
0
LINE
8
5
  6
CONTINUOUS
10
384.241 
20
46.925 
11
384.201 
21
47.032
0
LINE
8
5
  6
CONTINUOUS
10
384.201 
20
47.032 
11
384.163 
21
47.140
0
LINE
8
5
  6
CONTINUOUS
10
384.163 
20
47.140 
11
384.127 
21
47.249
0
LINE
8
5
  6
CONTINUOUS
10
384.127 
20
47.249 
11
384.094 
21
47.359
0
LINE
8
5
  6
CONTINUOUS
10
384.094 
20
47.359 
11
384.064 
21
47.469
0
LINE
8
5
  6
CONTINUOUS
10
384.064 
20
47.469 
11
384.036 
21
47.580
0
LINE
8
5
  6
CONTINUOUS
10
384.036 
20
47.580 
11
384.010 
21
47.693
0
LINE
8
5
  6
CONTINUOUS
10
384.010 
20
47.693 
11
383.988 
21
47.805
0
LINE
8
5
  6
CONTINUOUS
10
383.988 
20
47.805 
11
383.968 
21
47.919
0
LINE
8
5
  6
CONTINUOUS
10
383.968 
20
47.919 
11
383.951 
21
48.033
0
LINE
8
5
  6
CONTINUOUS
10
383.951 
20
48.033 
11
383.936 
21
48.148
0
LINE
8
5
  6
CONTINUOUS
10
383.936 
20
48.148 
11
383.925 
21
48.263
0
LINE
8
5
  6
CONTINUOUS
10
383.925 
20
48.263 
11
383.916 
21
48.379
0
LINE
8
5
  6
CONTINUOUS
10
383.916 
20
48.379 
11
383.910 
21
48.495
0
LINE
8
5
  6
CONTINUOUS
10
383.910 
20
48.495 
11
383.907 
21
48.612
0
LINE
8
5
  6
CONTINUOUS
10
383.907 
20
48.612 
11
383.907 
21
48.729
0
LINE
8
5
  6
CONTINUOUS
10
383.907 
20
48.729 
11
383.904 
21
59.919
0
LINE
8
5
  6
CONTINUOUS
10
67.158 
20
39.778 
11
89.037 
21
39.889
0
LINE
8
5
  6
CONTINUOUS
10
89.037 
20
39.889 
11
128.061 
21
39.889
0
LINE
8
5
  6
CONTINUOUS
10
139.141 
20
39.889 
11
338.888 
21
39.889
0
LINE
8
5
  6
CONTINUOUS
10
139.228 
20
10.756 
11
387.805 
21
10.756
0
LINE
8
5
  6
CONTINUOUS
10
383.881 
20
59.832 
11
383.879 
21
59.962
0
LINE
8
5
  6
CONTINUOUS
10
383.879 
20
59.962 
11
383.874 
21
60.091
0
LINE
8
5
  6
CONTINUOUS
10
383.874 
20
60.091 
11
383.866 
21
60.218
0
LINE
8
5
  6
CONTINUOUS
10
383.866 
20
60.218 
11
383.856 
21
60.345
0
LINE
8
5
  6
CONTINUOUS
10
383.856 
20
60.345 
11
383.842 
21
60.471
0
LINE
8
5
  6
CONTINUOUS
10
383.842 
20
60.471 
11
383.825 
21
60.596
0
LINE
8
5
  6
CONTINUOUS
10
383.825 
20
60.596 
11
383.805 
21
60.720
0
LINE
8
5
  6
CONTINUOUS
10
383.805 
20
60.720 
11
383.782 
21
60.843
0
LINE
8
5
  6
CONTINUOUS
10
383.782 
20
60.843 
11
383.756 
21
60.965
0
LINE
8
5
  6
CONTINUOUS
10
383.756 
20
60.965 
11
383.728 
21
61.085
0
LINE
8
5
  6
CONTINUOUS
10
383.728 
20
61.085 
11
383.696 
21
61.205
0
LINE
8
5
  6
CONTINUOUS
10
383.696 
20
61.205 
11
383.662 
21
61.323
0
LINE
8
5
  6
CONTINUOUS
10
383.662 
20
61.323 
11
383.625 
21
61.440
0
LINE
8
5
  6
CONTINUOUS
10
383.625 
20
61.440 
11
383.585 
21
61.556
0
LINE
8
5
  6
CONTINUOUS
10
383.585 
20
61.556 
11
383.543 
21
61.670
0
LINE
8
5
  6
CONTINUOUS
10
383.543 
20
61.670 
11
383.498 
21
61.783
0
LINE
8
5
  6
CONTINUOUS
10
383.498 
20
61.783 
11
383.451 
21
61.894
0
LINE
8
5
  6
CONTINUOUS
10
383.451 
20
61.894 
11
383.401 
21
62.005
0
LINE
8
5
  6
CONTINUOUS
10
383.401 
20
62.005 
11
383.348 
21
62.113
0
LINE
8
5
  6
CONTINUOUS
10
383.348 
20
62.113 
11
383.293 
21
62.220
0
LINE
8
5
  6
CONTINUOUS
10
383.293 
20
62.220 
11
383.236 
21
62.326
0
LINE
8
5
  6
CONTINUOUS
10
383.236 
20
62.326 
11
383.176 
21
62.430
0
LINE
8
5
  6
CONTINUOUS
10
383.176 
20
62.430 
11
383.114 
21
62.532
0
LINE
8
5
  6
CONTINUOUS
10
383.114 
20
62.532 
11
383.049 
21
62.633
0
LINE
8
5
  6
CONTINUOUS
10
383.049 
20
62.633 
11
382.983 
21
62.731
0
LINE
8
5
  6
CONTINUOUS
10
382.983 
20
62.731 
11
382.914 
21
62.829
0
LINE
8
5
  6
CONTINUOUS
10
382.914 
20
62.829 
11
382.842 
21
62.924
0
LINE
8
5
  6
CONTINUOUS
10
382.842 
20
62.924 
11
382.769 
21
63.017
0
LINE
8
5
  6
CONTINUOUS
10
382.769 
20
63.017 
11
382.693 
21
63.109
0
LINE
8
5
  6
CONTINUOUS
10
382.693 
20
63.109 
11
382.616 
21
63.199
0
LINE
8
5
  6
CONTINUOUS
10
382.616 
20
63.199 
11
382.536 
21
63.286
0
LINE
8
5
  6
CONTINUOUS
10
382.536 
20
63.286 
11
382.454 
21
63.372
0
LINE
8
5
  6
CONTINUOUS
10
382.454 
20
63.372 
11
382.371 
21
63.456
0
LINE
8
5
  6
CONTINUOUS
10
382.371 
20
63.456 
11
382.285 
21
63.538
0
LINE
8
5
  6
CONTINUOUS
10
382.285 
20
63.538 
11
382.197 
21
63.617
0
LINE
8
5
  6
CONTINUOUS
10
382.197 
20
63.617 
11
382.108 
21
63.695
0
LINE
8
5
  6
CONTINUOUS
10
382.108 
20
63.695 
11
382.017 
21
63.770
0
LINE
8
5
  6
CONTINUOUS
10
382.017 
20
63.770 
11
381.924 
21
63.843
0
LINE
8
5
  6
CONTINUOUS
10
381.924 
20
63.843 
11
381.829 
21
63.913
0
LINE
8
5
  6
CONTINUOUS
10
381.829 
20
63.913 
11
381.732 
21
63.982
0
LINE
8
5
  6
CONTINUOUS
10
381.732 
20
63.982 
11
381.634 
21
64.048
0
LINE
8
5
  6
CONTINUOUS
10
381.634 
20
64.048 
11
381.534 
21
64.112
0
LINE
8
5
  6
CONTINUOUS
10
381.534 
20
64.112 
11
381.433 
21
64.173
0
LINE
8
5
  6
CONTINUOUS
10
381.433 
20
64.173 
11
381.330 
21
64.232
0
LINE
8
5
  6
CONTINUOUS
10
381.330 
20
64.232 
11
381.226 
21
64.288
0
LINE
8
5
  6
CONTINUOUS
10
381.226 
20
64.288 
11
381.119 
21
64.342
0
LINE
8
5
  6
CONTINUOUS
10
381.119 
20
64.342 
11
381.012 
21
64.393
0
LINE
8
5
  6
CONTINUOUS
10
381.012 
20
64.393 
11
380.903 
21
64.442
0
LINE
8
5
  6
CONTINUOUS
10
380.903 
20
64.442 
11
380.793 
21
64.488
0
LINE
8
5
  6
CONTINUOUS
10
380.793 
20
64.488 
11
380.681 
21
64.531
0
LINE
8
5
  6
CONTINUOUS
10
380.681 
20
64.531 
11
380.568 
21
64.572
0
LINE
8
5
  6
CONTINUOUS
10
380.568 
20
64.572 
11
380.454 
21
64.610
0
LINE
8
5
  6
CONTINUOUS
10
380.454 
20
64.610 
11
380.339 
21
64.645
0
LINE
8
5
  6
CONTINUOUS
10
380.339 
20
64.645 
11
380.222 
21
64.677
0
LINE
8
5
  6
CONTINUOUS
10
380.222 
20
64.677 
11
380.105 
21
64.706
0
LINE
8
5
  6
CONTINUOUS
10
380.105 
20
64.706 
11
379.986 
21
64.733
0
LINE
8
5
  6
CONTINUOUS
10
379.986 
20
64.733 
11
379.866 
21
64.756
0
LINE
8
5
  6
CONTINUOUS
10
379.866 
20
64.756 
11
379.745 
21
64.776
0
LINE
8
5
  6
CONTINUOUS
10
379.745 
20
64.776 
11
379.623 
21
64.794
0
LINE
8
5
  6
CONTINUOUS
10
379.623 
20
64.794 
11
379.500 
21
64.808
0
LINE
8
5
  6
CONTINUOUS
10
379.500 
20
64.808 
11
379.376 
21
64.819
0
LINE
8
5
  6
CONTINUOUS
10
379.376 
20
64.819 
11
379.252 
21
64.827
0
LINE
8
5
  6
CONTINUOUS
10
379.252 
20
64.827 
11
379.126 
21
64.832
0
LINE
8
5
  6
CONTINUOUS
10
379.126 
20
64.832 
11
379.000 
21
64.834
0
LINE
8
5
  6
CONTINUOUS
10
379.000 
20
64.834 
11
17.835 
21
64.834
0
LINE
8
5
  6
CONTINUOUS
10
12.835 
20
59.833 
11
12.836 
21
59.963
0
LINE
8
5
  6
CONTINUOUS
10
12.836 
20
59.963 
11
12.841 
21
60.092
0
LINE
8
5
  6
CONTINUOUS
10
12.841 
20
60.092 
11
12.849 
21
60.219
0
LINE
8
5
  6
CONTINUOUS
10
12.849 
20
60.219 
11
12.860 
21
60.346
0
LINE
8
5
  6
CONTINUOUS
10
12.860 
20
60.346 
11
12.875 
21
60.472
0
LINE
8
5
  6
CONTINUOUS
10
12.875 
20
60.472 
11
12.892 
21
60.597
0
LINE
8
5
  6
CONTINUOUS
10
12.892 
20
60.597 
11
12.912 
21
60.721
0
LINE
8
5
  6
CONTINUOUS
10
12.912 
20
60.721 
11
12.936 
21
60.844
0
LINE
8
5
  6
CONTINUOUS
10
12.936 
20
60.844 
11
12.962 
21
60.965
0
LINE
8
5
  6
CONTINUOUS
10
12.962 
20
60.965 
11
12.991 
21
61.086
0
LINE
8
5
  6
CONTINUOUS
10
12.991 
20
61.086 
11
13.024 
21
61.205
0
LINE
8
5
  6
CONTINUOUS
10
13.024 
20
61.205 
11
13.059 
21
61.323
0
LINE
8
5
  6
CONTINUOUS
10
13.059 
20
61.323 
11
13.096 
21
61.440
0
LINE
8
5
  6
CONTINUOUS
10
13.096 
20
61.440 
11
13.137 
21
61.556
0
LINE
8
5
  6
CONTINUOUS
10
13.137 
20
61.556 
11
13.180 
21
61.670
0
LINE
8
5
  6
CONTINUOUS
10
13.180 
20
61.670 
11
13.226 
21
61.783
0
LINE
8
5
  6
CONTINUOUS
10
13.226 
20
61.783 
11
13.275 
21
61.895
0
LINE
8
5
  6
CONTINUOUS
10
13.275 
20
61.895 
11
13.326 
21
62.005
0
LINE
8
5
  6
CONTINUOUS
10
13.326 
20
62.005 
11
13.380 
21
62.113
0
LINE
8
5
  6
CONTINUOUS
10
13.380 
20
62.113 
11
13.436 
21
62.221
0
LINE
8
5
  6
CONTINUOUS
10
13.436 
20
62.221 
11
13.495 
21
62.326
0
LINE
8
5
  6
CONTINUOUS
10
13.495 
20
62.326 
11
13.556 
21
62.430
0
LINE
8
5
  6
CONTINUOUS
10
13.556 
20
62.430 
11
13.620 
21
62.532
0
LINE
8
5
  6
CONTINUOUS
10
13.620 
20
62.532 
11
13.686 
21
62.633
0
LINE
8
5
  6
CONTINUOUS
10
13.686 
20
62.633 
11
13.755 
21
62.732
0
LINE
8
5
  6
CONTINUOUS
10
13.755 
20
62.732 
11
13.825 
21
62.829
0
LINE
8
5
  6
CONTINUOUS
10
13.825 
20
62.829 
11
13.898 
21
62.924
0
LINE
8
5
  6
CONTINUOUS
10
13.898 
20
62.924 
11
13.973 
21
63.017
0
LINE
8
5
  6
CONTINUOUS
10
13.973 
20
63.017 
11
14.051 
21
63.109
0
LINE
8
5
  6
CONTINUOUS
10
14.051 
20
63.109 
11
14.130 
21
63.199
0
LINE
8
5
  6
CONTINUOUS
10
14.130 
20
63.199 
11
14.212 
21
63.286
0
LINE
8
5
  6
CONTINUOUS
10
14.212 
20
63.286 
11
14.296 
21
63.372
0
LINE
8
5
  6
CONTINUOUS
10
14.296 
20
63.372 
11
14.381 
21
63.456
0
LINE
8
5
  6
CONTINUOUS
10
14.381 
20
63.456 
11
14.469 
21
63.537
0
LINE
8
5
  6
CONTINUOUS
10
14.469 
20
63.537 
11
14.559 
21
63.617
0
LINE
8
5
  6
CONTINUOUS
10
14.559 
20
63.617 
11
14.650 
21
63.694
0
LINE
8
5
  6
CONTINUOUS
10
14.650 
20
63.694 
11
14.744 
21
63.770
0
LINE
8
5
  6
CONTINUOUS
10
14.744 
20
63.770 
11
14.839 
21
63.843
0
LINE
8
5
  6
CONTINUOUS
10
14.839 
20
63.843 
11
14.936 
21
63.913
0
LINE
8
5
  6
CONTINUOUS
10
14.936 
20
63.913 
11
15.035 
21
63.982
0
LINE
8
5
  6
CONTINUOUS
10
15.035 
20
63.982 
11
15.136 
21
64.048
0
LINE
8
5
  6
CONTINUOUS
10
15.136 
20
64.048 
11
15.238 
21
64.111
0
LINE
8
5
  6
CONTINUOUS
10
15.238 
20
64.111 
11
15.342 
21
64.173
0
LINE
8
5
  6
CONTINUOUS
10
15.342 
20
64.173 
11
15.447 
21
64.232
0
LINE
8
5
  6
CONTINUOUS
10
15.447 
20
64.232 
11
15.554 
21
64.288
0
LINE
8
5
  6
CONTINUOUS
10
15.554 
20
64.288 
11
15.663 
21
64.342
0
LINE
8
5
  6
CONTINUOUS
10
15.663 
20
64.342 
11
15.773 
21
64.393
0
LINE
8
5
  6
CONTINUOUS
10
15.773 
20
64.393 
11
15.885 
21
64.442
0
LINE
8
5
  6
CONTINUOUS
10
15.885 
20
64.442 
11
15.997 
21
64.488
0
LINE
8
5
  6
CONTINUOUS
10
15.997 
20
64.488 
11
16.112 
21
64.531
0
LINE
8
5
  6
CONTINUOUS
10
16.112 
20
64.531 
11
16.227 
21
64.571
0
LINE
8
5
  6
CONTINUOUS
10
16.227 
20
64.571 
11
16.344 
21
64.609
0
LINE
8
5
  6
CONTINUOUS
10
16.344 
20
64.609 
11
16.462 
21
64.644
0
LINE
8
5
  6
CONTINUOUS
10
16.462 
20
64.644 
11
16.582 
21
64.676
0
LINE
8
5
  6
CONTINUOUS
10
16.582 
20
64.676 
11
16.702 
21
64.706
0
LINE
8
5
  6
CONTINUOUS
10
16.702 
20
64.706 
11
16.824 
21
64.732
0
LINE
8
5
  6
CONTINUOUS
10
16.824 
20
64.732 
11
16.947 
21
64.755
0
LINE
8
5
  6
CONTINUOUS
10
16.947 
20
64.755 
11
17.071 
21
64.776
0
LINE
8
5
  6
CONTINUOUS
10
17.071 
20
64.776 
11
17.196 
21
64.793
0
LINE
8
5
  6
CONTINUOUS
10
17.196 
20
64.793 
11
17.322 
21
64.807
0
LINE
8
5
  6
CONTINUOUS
10
17.322 
20
64.807 
11
17.449 
21
64.819
0
LINE
8
5
  6
CONTINUOUS
10
17.449 
20
64.819 
11
17.576 
21
64.827
0
LINE
8
5
  6
CONTINUOUS
10
17.576 
20
64.827 
11
17.705 
21
64.832
0
LINE
8
5
  6
CONTINUOUS
10
17.705 
20
64.832 
11
17.834 
21
64.833
0
LINE
8
5
  6
CONTINUOUS
10
58.644 
20
10.757 
11
58.773 
21
10.759
0
LINE
8
5
  6
CONTINUOUS
10
58.773 
20
10.759 
11
58.902 
21
10.764
0
LINE
8
5
  6
CONTINUOUS
10
58.902 
20
10.764 
11
59.029 
21
10.772
0
LINE
8
5
  6
CONTINUOUS
10
59.029 
20
10.772 
11
59.156 
21
10.783
0
LINE
8
5
  6
CONTINUOUS
10
59.156 
20
10.783 
11
59.282 
21
10.797
0
LINE
8
5
  6
CONTINUOUS
10
59.282 
20
10.797 
11
59.407 
21
10.815
0
LINE
8
5
  6
CONTINUOUS
10
59.407 
20
10.815 
11
59.531 
21
10.835
0
LINE
8
5
  6
CONTINUOUS
10
59.531 
20
10.835 
11
59.654 
21
10.858
0
LINE
8
5
  6
CONTINUOUS
10
59.654 
20
10.858 
11
59.776 
21
10.885
0
LINE
8
5
  6
CONTINUOUS
10
59.776 
20
10.885 
11
59.896 
21
10.914
0
LINE
8
5
  6
CONTINUOUS
10
59.896 
20
10.914 
11
60.016 
21
10.946
0
LINE
8
5
  6
CONTINUOUS
10
60.016 
20
10.946 
11
60.134 
21
10.981
0
LINE
8
5
  6
CONTINUOUS
10
60.134 
20
10.981 
11
60.251 
21
11.019
0
LINE
8
5
  6
CONTINUOUS
10
60.251 
20
11.019 
11
60.366 
21
11.060
0
LINE
8
5
  6
CONTINUOUS
10
60.366 
20
11.060 
11
60.481 
21
11.103
0
LINE
8
5
  6
CONTINUOUS
10
60.481 
20
11.103 
11
60.594 
21
11.149
0
LINE
8
5
  6
CONTINUOUS
10
60.594 
20
11.149 
11
60.705 
21
11.198
0
LINE
8
5
  6
CONTINUOUS
10
60.705 
20
11.198 
11
60.815 
21
11.249
0
LINE
8
5
  6
CONTINUOUS
10
60.815 
20
11.249 
11
60.924 
21
11.303
0
LINE
8
5
  6
CONTINUOUS
10
60.924 
20
11.303 
11
61.031 
21
11.359
0
LINE
8
5
  6
CONTINUOUS
10
61.031 
20
11.359 
11
61.136 
21
11.418
0
LINE
8
5
  6
CONTINUOUS
10
61.136 
20
11.418 
11
61.240 
21
11.479
0
LINE
8
5
  6
CONTINUOUS
10
61.240 
20
11.479 
11
61.343 
21
11.543
0
LINE
8
5
  6
CONTINUOUS
10
61.343 
20
11.543 
11
61.443 
21
11.609
0
LINE
8
5
  6
CONTINUOUS
10
61.443 
20
11.609 
11
61.542 
21
11.677
0
LINE
8
5
  6
CONTINUOUS
10
61.542 
20
11.677 
11
61.639 
21
11.748
0
LINE
8
5
  6
CONTINUOUS
10
61.639 
20
11.748 
11
61.734 
21
11.821
0
LINE
8
5
  6
CONTINUOUS
10
61.734 
20
11.821 
11
61.828 
21
11.896
0
LINE
8
5
  6
CONTINUOUS
10
61.828 
20
11.896 
11
61.919 
21
11.974
0
LINE
8
5
  6
CONTINUOUS
10
61.919 
20
11.974 
11
62.009 
21
12.053
0
LINE
8
5
  6
CONTINUOUS
10
62.009 
20
12.053 
11
62.097 
21
12.135
0
LINE
8
5
  6
CONTINUOUS
10
62.097 
20
12.135 
11
62.183 
21
12.218
0
LINE
8
5
  6
CONTINUOUS
10
62.183 
20
12.218 
11
62.266 
21
12.304
0
LINE
8
5
  6
CONTINUOUS
10
62.266 
20
12.304 
11
62.348 
21
12.392
0
LINE
8
5
  6
CONTINUOUS
10
62.348 
20
12.392 
11
62.428 
21
12.482
0
LINE
8
5
  6
CONTINUOUS
10
62.428 
20
12.482 
11
62.505 
21
12.573
0
LINE
8
5
  6
CONTINUOUS
10
62.505 
20
12.573 
11
62.580 
21
12.667
0
LINE
8
5
  6
CONTINUOUS
10
62.580 
20
12.667 
11
62.653 
21
12.762
0
LINE
8
5
  6
CONTINUOUS
10
62.653 
20
12.762 
11
62.724 
21
12.859
0
LINE
8
5
  6
CONTINUOUS
10
62.724 
20
12.859 
11
62.792 
21
12.958
0
LINE
8
5
  6
CONTINUOUS
10
62.792 
20
12.958 
11
62.858 
21
13.059
0
LINE
8
5
  6
CONTINUOUS
10
62.858 
20
13.059 
11
62.922 
21
13.161
0
LINE
8
5
  6
CONTINUOUS
10
62.922 
20
13.161 
11
62.983 
21
13.265
0
LINE
8
5
  6
CONTINUOUS
10
62.983 
20
13.265 
11
63.042 
21
13.370
0
LINE
8
5
  6
CONTINUOUS
10
63.042 
20
13.370 
11
63.099 
21
13.477
0
LINE
8
5
  6
CONTINUOUS
10
63.099 
20
13.477 
11
63.152 
21
13.586
0
LINE
8
5
  6
CONTINUOUS
10
63.152 
20
13.586 
11
63.204 
21
13.696
0
LINE
8
5
  6
CONTINUOUS
10
63.204 
20
13.696 
11
63.252 
21
13.807
0
LINE
8
5
  6
CONTINUOUS
10
63.252 
20
13.807 
11
63.298 
21
13.920
0
LINE
8
5
  6
CONTINUOUS
10
63.298 
20
13.920 
11
63.342 
21
14.035
0
LINE
8
5
  6
CONTINUOUS
10
63.342 
20
14.035 
11
63.382 
21
14.150
0
LINE
8
5
  6
CONTINUOUS
10
63.382 
20
14.150 
11
63.420 
21
14.267
0
LINE
8
5
  6
CONTINUOUS
10
63.420 
20
14.267 
11
63.455 
21
14.386
0
LINE
8
5
  6
CONTINUOUS
10
63.455 
20
14.386 
11
63.487 
21
14.505
0
LINE
8
5
  6
CONTINUOUS
10
63.487 
20
14.505 
11
63.516 
21
14.625
0
LINE
8
5
  6
CONTINUOUS
10
63.516 
20
14.625 
11
63.543 
21
14.747
0
LINE
8
5
  6
CONTINUOUS
10
63.543 
20
14.747 
11
63.566 
21
14.870
0
LINE
8
5
  6
CONTINUOUS
10
63.566 
20
14.870 
11
63.587 
21
14.994
0
LINE
8
5
  6
CONTINUOUS
10
63.587 
20
14.994 
11
63.604 
21
15.119
0
LINE
8
5
  6
CONTINUOUS
10
63.604 
20
15.119 
11
63.618 
21
15.245
0
LINE
8
5
  6
CONTINUOUS
10
63.618 
20
15.245 
11
63.630 
21
15.372
0
LINE
8
5
  6
CONTINUOUS
10
63.630 
20
15.372 
11
63.638 
21
15.499
0
LINE
8
5
  6
CONTINUOUS
10
63.638 
20
15.499 
11
63.642 
21
15.628
0
LINE
8
5
  6
CONTINUOUS
10
63.642 
20
15.628 
11
63.644 
21
15.757
0
LINE
8
5
  6
CONTINUOUS
10
63.639 
20
34.991 
11
63.640 
21
35.097
0
LINE
8
5
  6
CONTINUOUS
10
63.640 
20
35.097 
11
63.643 
21
35.203
0
LINE
8
5
  6
CONTINUOUS
10
63.643 
20
35.203 
11
63.649 
21
35.309
0
LINE
8
5
  6
CONTINUOUS
10
63.649 
20
35.309 
11
63.657 
21
35.413
0
LINE
8
5
  6
CONTINUOUS
10
63.657 
20
35.413 
11
63.666 
21
35.517
0
LINE
8
5
  6
CONTINUOUS
10
63.666 
20
35.517 
11
63.678 
21
35.621
0
LINE
8
5
  6
CONTINUOUS
10
63.678 
20
35.621 
11
63.692 
21
35.723
0
LINE
8
5
  6
CONTINUOUS
10
63.692 
20
35.723 
11
63.708 
21
35.826
0
LINE
8
5
  6
CONTINUOUS
10
63.708 
20
35.826 
11
63.726 
21
35.927
0
LINE
8
5
  6
CONTINUOUS
10
63.726 
20
35.927 
11
63.746 
21
36.028
0
LINE
8
5
  6
CONTINUOUS
10
63.746 
20
36.028 
11
63.768 
21
36.127
0
LINE
8
5
  6
CONTINUOUS
10
63.768 
20
36.127 
11
63.792 
21
36.227
0
LINE
8
5
  6
CONTINUOUS
10
63.792 
20
36.227 
11
63.818 
21
36.325
0
LINE
8
5
  6
CONTINUOUS
10
63.818 
20
36.325 
11
63.846 
21
36.422
0
LINE
8
5
  6
CONTINUOUS
10
63.846 
20
36.422 
11
63.875 
21
36.519
0
LINE
8
5
  6
CONTINUOUS
10
63.875 
20
36.519 
11
63.907 
21
36.615
0
LINE
8
5
  6
CONTINUOUS
10
63.907 
20
36.615 
11
63.941 
21
36.710
0
LINE
8
5
  6
CONTINUOUS
10
63.941 
20
36.710 
11
63.976 
21
36.804
0
LINE
8
5
  6
CONTINUOUS
10
63.976 
20
36.804 
11
64.013 
21
36.897
0
LINE
8
5
  6
CONTINUOUS
10
64.013 
20
36.897 
11
64.052 
21
36.989
0
LINE
8
5
  6
CONTINUOUS
10
64.052 
20
36.989 
11
64.093 
21
37.080
0
LINE
8
5
  6
CONTINUOUS
10
64.093 
20
37.080 
11
64.135 
21
37.170
0
LINE
8
5
  6
CONTINUOUS
10
64.135 
20
37.170 
11
64.179 
21
37.259
0
LINE
8
5
  6
CONTINUOUS
10
64.179 
20
37.259 
11
64.225 
21
37.348
0
LINE
8
5
  6
CONTINUOUS
10
64.225 
20
37.348 
11
64.273 
21
37.435
0
LINE
8
5
  6
CONTINUOUS
10
64.273 
20
37.435 
11
64.322 
21
37.521
0
LINE
8
5
  6
CONTINUOUS
10
64.322 
20
37.521 
11
64.373 
21
37.606
0
LINE
8
5
  6
CONTINUOUS
10
64.373 
20
37.606 
11
64.426 
21
37.690
0
LINE
8
5
  6
CONTINUOUS
10
64.426 
20
37.690 
11
64.480 
21
37.772
0
LINE
8
5
  6
CONTINUOUS
10
64.480 
20
37.772 
11
64.536 
21
37.854
0
LINE
8
5
  6
CONTINUOUS
10
64.536 
20
37.854 
11
64.593 
21
37.934
0
LINE
8
5
  6
CONTINUOUS
10
64.593 
20
37.934 
11
64.652 
21
38.013
0
LINE
8
5
  6
CONTINUOUS
10
64.652 
20
38.013 
11
64.712 
21
38.091
0
LINE
8
5
  6
CONTINUOUS
10
64.712 
20
38.091 
11
64.774 
21
38.168
0
LINE
8
5
  6
CONTINUOUS
10
64.774 
20
38.168 
11
64.838 
21
38.243
0
LINE
8
5
  6
CONTINUOUS
10
64.838 
20
38.243 
11
64.903 
21
38.317
0
LINE
8
5
  6
CONTINUOUS
10
64.903 
20
38.317 
11
64.969 
21
38.390
0
LINE
8
5
  6
CONTINUOUS
10
64.969 
20
38.390 
11
65.036 
21
38.462
0
LINE
8
5
  6
CONTINUOUS
10
65.036 
20
38.462 
11
65.106 
21
38.532
0
LINE
8
5
  6
CONTINUOUS
10
65.106 
20
38.532 
11
65.176 
21
38.601
0
LINE
8
5
  6
CONTINUOUS
10
65.176 
20
38.601 
11
65.248 
21
38.668
0
LINE
8
5
  6
CONTINUOUS
10
65.248 
20
38.668 
11
65.321 
21
38.734
0
LINE
8
5
  6
CONTINUOUS
10
65.321 
20
38.734 
11
65.395 
21
38.799
0
LINE
8
5
  6
CONTINUOUS
10
65.395 
20
38.799 
11
65.471 
21
38.862
0
LINE
8
5
  6
CONTINUOUS
10
65.471 
20
38.862 
11
65.548 
21
38.923
0
LINE
8
5
  6
CONTINUOUS
10
65.548 
20
38.923 
11
65.626 
21
38.983
0
LINE
8
5
  6
CONTINUOUS
10
65.626 
20
38.983 
11
65.705 
21
39.042
0
LINE
8
5
  6
CONTINUOUS
10
65.705 
20
39.042 
11
65.786 
21
39.099
0
LINE
8
5
  6
CONTINUOUS
10
65.786 
20
39.099 
11
65.868 
21
39.155
0
LINE
8
5
  6
CONTINUOUS
10
65.868 
20
39.155 
11
65.951 
21
39.209
0
LINE
8
5
  6
CONTINUOUS
10
65.951 
20
39.209 
11
66.035 
21
39.261
0
LINE
8
5
  6
CONTINUOUS
10
66.035 
20
39.261 
11
66.120 
21
39.311
0
LINE
8
5
  6
CONTINUOUS
10
66.120 
20
39.311 
11
66.206 
21
39.361
0
LINE
8
5
  6
CONTINUOUS
10
66.206 
20
39.361 
11
66.294 
21
39.408
0
LINE
8
5
  6
CONTINUOUS
10
66.294 
20
39.408 
11
66.382 
21
39.454
0
LINE
8
5
  6
CONTINUOUS
10
66.382 
20
39.454 
11
66.471 
21
39.497
0
LINE
8
5
  6
CONTINUOUS
10
66.471 
20
39.497 
11
66.562 
21
39.540
0
LINE
8
5
  6
CONTINUOUS
10
66.562 
20
39.540 
11
66.653 
21
39.580
0
LINE
8
5
  6
CONTINUOUS
10
66.653 
20
39.580 
11
66.745 
21
39.619
0
LINE
8
5
  6
CONTINUOUS
10
66.745 
20
39.619 
11
66.839 
21
39.656
0
LINE
8
5
  6
CONTINUOUS
10
66.839 
20
39.656 
11
66.933 
21
39.691
0
LINE
8
5
  6
CONTINUOUS
10
66.933 
20
39.691 
11
67.028 
21
39.724
0
LINE
8
5
  6
CONTINUOUS
10
67.028 
20
39.724 
11
67.124 
21
39.755
0
LINE
8
5
  6
CONTINUOUS
10
67.124 
20
39.755 
11
67.221 
21
39.785
0
LINE
8
5
  6
CONTINUOUS
10
63.644 
20
15.757 
11
63.644 
21
34.991
0
LINE
8
5
  6
CONTINUOUS
10
150.748 
20
50.600 
11
150.698 
21
50.600
0
LINE
8
5
  6
CONTINUOUS
10
150.698 
20
50.600 
11
150.648 
21
50.601
0
LINE
8
5
  6
CONTINUOUS
10
150.648 
20
50.601 
11
150.598 
21
50.603
0
LINE
8
5
  6
CONTINUOUS
10
150.598 
20
50.603 
11
150.548 
21
50.606
0
LINE
8
5
  6
CONTINUOUS
10
150.548 
20
50.606 
11
150.498 
21
50.609
0
LINE
8
5
  6
CONTINUOUS
10
150.498 
20
50.609 
11
150.449 
21
50.612
0
LINE
8
5
  6
CONTINUOUS
10
150.449 
20
50.612 
11
150.399 
21
50.617
0
LINE
8
5
  6
CONTINUOUS
10
150.399 
20
50.617 
11
150.350 
21
50.622
0
LINE
8
5
  6
CONTINUOUS
10
150.350 
20
50.622 
11
150.301 
21
50.628
0
LINE
8
5
  6
CONTINUOUS
10
150.301 
20
50.628 
11
150.253 
21
50.634
0
LINE
8
5
  6
CONTINUOUS
10
150.253 
20
50.634 
11
150.204 
21
50.641
0
LINE
8
5
  6
CONTINUOUS
10
150.204 
20
50.641 
11
150.156 
21
50.649
0
LINE
8
5
  6
CONTINUOUS
10
150.156 
20
50.649 
11
150.107 
21
50.658
0
LINE
8
5
  6
CONTINUOUS
10
150.107 
20
50.658 
11
150.060 
21
50.667
0
LINE
8
5
  6
CONTINUOUS
10
150.060 
20
50.667 
11
150.012 
21
50.677
0
LINE
8
5
  6
CONTINUOUS
10
150.012 
20
50.677 
11
149.964 
21
50.687
0
LINE
8
5
  6
CONTINUOUS
10
149.964 
20
50.687 
11
149.917 
21
50.698
0
LINE
8
5
  6
CONTINUOUS
10
149.917 
20
50.698 
11
149.870 
21
50.710
0
LINE
8
5
  6
CONTINUOUS
10
149.870 
20
50.710 
11
149.824 
21
50.722
0
LINE
8
5
  6
CONTINUOUS
10
149.824 
20
50.722 
11
149.777 
21
50.735
0
LINE
8
5
  6
CONTINUOUS
10
149.777 
20
50.735 
11
149.731 
21
50.748
0
LINE
8
5
  6
CONTINUOUS
10
149.731 
20
50.748 
11
149.686 
21
50.763
0
LINE
8
5
  6
CONTINUOUS
10
149.686 
20
50.763 
11
149.640 
21
50.777
0
LINE
8
5
  6
CONTINUOUS
10
149.640 
20
50.777 
11
149.595 
21
50.793
0
LINE
8
5
  6
CONTINUOUS
10
149.595 
20
50.793 
11
149.550 
21
50.809
0
LINE
8
5
  6
CONTINUOUS
10
149.550 
20
50.809 
11
149.506 
21
50.825
0
LINE
8
5
  6
CONTINUOUS
10
149.506 
20
50.825 
11
149.462 
21
50.842
0
LINE
8
5
  6
CONTINUOUS
10
149.462 
20
50.842 
11
149.418 
21
50.860
0
LINE
8
5
  6
CONTINUOUS
10
149.418 
20
50.860 
11
149.375 
21
50.878
0
LINE
8
5
  6
CONTINUOUS
10
149.375 
20
50.878 
11
149.331 
21
50.897
0
LINE
8
5
  6
CONTINUOUS
10
149.331 
20
50.897 
11
149.289 
21
50.917
0
LINE
8
5
  6
CONTINUOUS
10
149.289 
20
50.917 
11
149.247 
21
50.937
0
LINE
8
5
  6
CONTINUOUS
10
149.247 
20
50.937 
11
149.205 
21
50.958
0
LINE
8
5
  6
CONTINUOUS
10
149.205 
20
50.958 
11
149.163 
21
50.979
0
LINE
8
5
  6
CONTINUOUS
10
149.163 
20
50.979 
11
149.122 
21
51.000
0
LINE
8
5
  6
CONTINUOUS
10
149.122 
20
51.000 
11
149.081 
21
51.023
0
LINE
8
5
  6
CONTINUOUS
10
149.081 
20
51.023 
11
149.041 
21
51.046
0
LINE
8
5
  6
CONTINUOUS
10
149.041 
20
51.046 
11
149.001 
21
51.069
0
LINE
8
5
  6
CONTINUOUS
10
149.001 
20
51.069 
11
148.962 
21
51.093
0
LINE
8
5
  6
CONTINUOUS
10
148.962 
20
51.093 
11
148.923 
21
51.118
0
LINE
8
5
  6
CONTINUOUS
10
148.923 
20
51.118 
11
148.885 
21
51.143
0
LINE
8
5
  6
CONTINUOUS
10
148.885 
20
51.143 
11
148.847 
21
51.168
0
LINE
8
5
  6
CONTINUOUS
10
148.847 
20
51.168 
11
148.809 
21
51.194
0
LINE
8
5
  6
CONTINUOUS
10
148.809 
20
51.194 
11
148.772 
21
51.221
0
LINE
8
5
  6
CONTINUOUS
10
148.772 
20
51.221 
11
148.736 
21
51.248
0
LINE
8
5
  6
CONTINUOUS
10
148.736 
20
51.248 
11
148.700 
21
51.276
0
LINE
8
5
  6
CONTINUOUS
10
148.700 
20
51.276 
11
148.664 
21
51.304
0
LINE
8
5
  6
CONTINUOUS
10
148.664 
20
51.304 
11
148.629 
21
51.333
0
LINE
8
5
  6
CONTINUOUS
10
148.629 
20
51.333 
11
148.595 
21
51.362
0
LINE
8
5
  6
CONTINUOUS
10
148.595 
20
51.362 
11
148.561 
21
51.392
0
LINE
8
5
  6
CONTINUOUS
10
148.561 
20
51.392 
11
148.527 
21
51.422
0
LINE
8
5
  6
CONTINUOUS
10
148.527 
20
51.422 
11
148.495 
21
51.452
0
LINE
8
5
  6
CONTINUOUS
10
148.495 
20
51.452 
11
148.462 
21
51.484
0
LINE
8
5
  6
CONTINUOUS
10
148.462 
20
51.484 
11
148.431 
21
51.515
0
LINE
8
5
  6
CONTINUOUS
10
148.431 
20
51.515 
11
148.400 
21
51.547
0
LINE
8
5
  6
CONTINUOUS
10
148.400 
20
51.547 
11
148.369 
21
51.580
0
LINE
8
5
  6
CONTINUOUS
10
148.369 
20
51.580 
11
148.339 
21
51.613
0
LINE
8
5
  6
CONTINUOUS
10
148.339 
20
51.613 
11
148.310 
21
51.647
0
LINE
8
5
  6
CONTINUOUS
10
148.310 
20
51.647 
11
148.281 
21
51.681
0
LINE
8
5
  6
CONTINUOUS
10
148.281 
20
51.681 
11
148.253 
21
51.715
0
LINE
8
5
  6
CONTINUOUS
10
148.253 
20
51.715 
11
148.226 
21
51.750
0
LINE
8
5
  6
CONTINUOUS
10
148.226 
20
51.750 
11
148.199 
21
51.785
0
LINE
8
5
  6
CONTINUOUS
10
148.199 
20
51.785 
11
148.173 
21
51.821
0
LINE
8
5
  6
CONTINUOUS
10
148.173 
20
51.821 
11
148.147 
21
51.857
0
LINE
8
5
  6
CONTINUOUS
10
148.147 
20
51.857 
11
148.123 
21
51.894
0
LINE
8
5
  6
CONTINUOUS
10
148.123 
20
51.894 
11
148.099 
21
51.931
0
LINE
8
5
  6
CONTINUOUS
10
148.099 
20
51.931 
11
148.075 
21
51.968
0
LINE
8
5
  6
CONTINUOUS
10
148.075 
20
51.968 
11
148.053 
21
52.005
0
LINE
8
5
  6
CONTINUOUS
10
148.053 
20
52.005 
11
148.031 
21
52.043
0
LINE
8
5
  6
CONTINUOUS
10
148.031 
20
52.043 
11
148.011 
21
52.081
0
LINE
8
5
  6
CONTINUOUS
10
148.011 
20
52.081 
11
147.991 
21
52.119
0
LINE
8
5
  6
CONTINUOUS
10
147.991 
20
52.119 
11
147.971 
21
52.157
0
LINE
8
5
  6
CONTINUOUS
10
147.971 
20
52.157 
11
147.953 
21
52.195
0
LINE
8
5
  6
CONTINUOUS
10
147.953 
20
52.195 
11
147.935 
21
52.234
0
LINE
8
5
  6
CONTINUOUS
10
147.935 
20
52.234 
11
147.918 
21
52.273
0
LINE
8
5
  6
CONTINUOUS
10
147.918 
20
52.273 
11
147.902 
21
52.312
0
LINE
8
5
  6
CONTINUOUS
10
147.902 
20
52.312 
11
147.887 
21
52.351
0
LINE
8
5
  6
CONTINUOUS
10
147.887 
20
52.351 
11
147.872 
21
52.390
0
LINE
8
5
  6
CONTINUOUS
10
147.872 
20
52.390 
11
147.859 
21
52.430
0
LINE
8
5
  6
CONTINUOUS
10
147.859 
20
52.430 
11
147.846 
21
52.469
0
LINE
8
5
  6
CONTINUOUS
10
147.846 
20
52.469 
11
147.833 
21
52.509
0
LINE
8
5
  6
CONTINUOUS
10
147.833 
20
52.509 
11
147.822 
21
52.549
0
LINE
8
5
  6
CONTINUOUS
10
147.822 
20
52.549 
11
147.811 
21
52.589
0
LINE
8
5
  6
CONTINUOUS
10
147.811 
20
52.589 
11
147.802 
21
52.629
0
LINE
8
5
  6
CONTINUOUS
10
147.802 
20
52.629 
11
147.793 
21
52.669
0
LINE
8
5
  6
CONTINUOUS
10
147.793 
20
52.669 
11
147.784 
21
52.709
0
LINE
8
5
  6
CONTINUOUS
10
147.784 
20
52.709 
11
147.777 
21
52.750
0
LINE
8
5
  6
CONTINUOUS
10
147.777 
20
52.750 
11
147.770 
21
52.790
0
LINE
8
5
  6
CONTINUOUS
10
147.770 
20
52.790 
11
147.764 
21
52.830
0
LINE
8
5
  6
CONTINUOUS
10
147.764 
20
52.830 
11
147.759 
21
52.871
0
LINE
8
5
  6
CONTINUOUS
10
147.759 
20
52.871 
11
147.755 
21
52.912
0
LINE
8
5
  6
CONTINUOUS
10
147.755 
20
52.912 
11
147.751 
21
52.952
0
LINE
8
5
  6
CONTINUOUS
10
147.751 
20
52.952 
11
147.749 
21
52.993
0
LINE
8
5
  6
CONTINUOUS
10
147.749 
20
52.993 
11
147.747 
21
53.033
0
LINE
8
5
  6
CONTINUOUS
10
147.747 
20
53.033 
11
147.745 
21
53.074
0
LINE
8
5
  6
CONTINUOUS
10
147.745 
20
53.074 
11
147.745 
21
53.115
0
LINE
8
5
  6
CONTINUOUS
10
147.745 
20
53.115 
11
147.745 
21
53.156
0
LINE
8
5
  6
CONTINUOUS
10
147.745 
20
53.156 
11
147.747 
21
53.196
0
LINE
8
5
  6
CONTINUOUS
10
147.747 
20
53.196 
11
147.749 
21
53.237
0
LINE
8
5
  6
CONTINUOUS
10
147.749 
20
53.237 
11
147.751 
21
53.278
0
LINE
8
5
  6
CONTINUOUS
10
147.751 
20
53.278 
11
147.755 
21
53.318
0
LINE
8
5
  6
CONTINUOUS
10
147.755 
20
53.318 
11
147.759 
21
53.359
0
LINE
8
5
  6
CONTINUOUS
10
147.759 
20
53.359 
11
147.764 
21
53.399
0
LINE
8
5
  6
CONTINUOUS
10
147.764 
20
53.399 
11
147.770 
21
53.440
0
LINE
8
5
  6
CONTINUOUS
10
147.770 
20
53.440 
11
147.777 
21
53.480
0
LINE
8
5
  6
CONTINUOUS
10
147.777 
20
53.480 
11
147.784 
21
53.521
0
LINE
8
5
  6
CONTINUOUS
10
147.784 
20
53.521 
11
147.793 
21
53.561
0
LINE
8
5
  6
CONTINUOUS
10
147.793 
20
53.561 
11
147.802 
21
53.601
0
LINE
8
5
  6
CONTINUOUS
10
147.802 
20
53.601 
11
147.811 
21
53.641
0
LINE
8
5
  6
CONTINUOUS
10
147.811 
20
53.641 
11
147.822 
21
53.681
0
LINE
8
5
  6
CONTINUOUS
10
147.822 
20
53.681 
11
147.833 
21
53.721
0
LINE
8
5
  6
CONTINUOUS
10
147.833 
20
53.721 
11
147.846 
21
53.761
0
LINE
8
5
  6
CONTINUOUS
10
147.846 
20
53.761 
11
147.859 
21
53.800
0
LINE
8
5
  6
CONTINUOUS
10
147.859 
20
53.800 
11
147.872 
21
53.840
0
LINE
8
5
  6
CONTINUOUS
10
147.872 
20
53.840 
11
147.887 
21
53.879
0
LINE
8
5
  6
CONTINUOUS
10
147.887 
20
53.879 
11
147.902 
21
53.918
0
LINE
8
5
  6
CONTINUOUS
10
147.902 
20
53.918 
11
147.918 
21
53.957
0
LINE
8
5
  6
CONTINUOUS
10
147.918 
20
53.957 
11
147.935 
21
53.996
0
LINE
8
5
  6
CONTINUOUS
10
147.935 
20
53.996 
11
147.953 
21
54.034
0
LINE
8
5
  6
CONTINUOUS
10
147.953 
20
54.034 
11
147.971 
21
54.073
0
LINE
8
5
  6
CONTINUOUS
10
147.971 
20
54.073 
11
147.991 
21
54.111
0
LINE
8
5
  6
CONTINUOUS
10
147.991 
20
54.111 
11
148.011 
21
54.149
0
LINE
8
5
  6
CONTINUOUS
10
148.011 
20
54.149 
11
148.031 
21
54.187
0
LINE
8
5
  6
CONTINUOUS
10
148.031 
20
54.187 
11
148.053 
21
54.224
0
LINE
8
5
  6
CONTINUOUS
10
148.053 
20
54.224 
11
148.075 
21
54.262
0
LINE
8
5
  6
CONTINUOUS
10
148.075 
20
54.262 
11
148.099 
21
54.299
0
LINE
8
5
  6
CONTINUOUS
10
148.099 
20
54.299 
11
148.123 
21
54.336
0
LINE
8
5
  6
CONTINUOUS
10
148.123 
20
54.336 
11
148.147 
21
54.372
0
LINE
8
5
  6
CONTINUOUS
10
148.147 
20
54.372 
11
148.173 
21
54.409
0
LINE
8
5
  6
CONTINUOUS
10
148.173 
20
54.409 
11
148.199 
21
54.444
0
LINE
8
5
  6
CONTINUOUS
10
148.199 
20
54.444 
11
148.226 
21
54.480
0
LINE
8
5
  6
CONTINUOUS
10
148.226 
20
54.480 
11
148.253 
21
54.515
0
LINE
8
5
  6
CONTINUOUS
10
148.253 
20
54.515 
11
148.281 
21
54.549
0
LINE
8
5
  6
CONTINUOUS
10
148.281 
20
54.549 
11
148.310 
21
54.583
0
LINE
8
5
  6
CONTINUOUS
10
148.310 
20
54.583 
11
148.339 
21
54.617
0
LINE
8
5
  6
CONTINUOUS
10
148.339 
20
54.617 
11
148.369 
21
54.650
0
LINE
8
5
  6
CONTINUOUS
10
148.369 
20
54.650 
11
148.400 
21
54.682
0
LINE
8
5
  6
CONTINUOUS
10
148.400 
20
54.682 
11
148.431 
21
54.715
0
LINE
8
5
  6
CONTINUOUS
10
148.431 
20
54.715 
11
148.462 
21
54.746
0
LINE
8
5
  6
CONTINUOUS
10
148.462 
20
54.746 
11
148.495 
21
54.777
0
LINE
8
5
  6
CONTINUOUS
10
148.495 
20
54.777 
11
148.527 
21
54.808
0
LINE
8
5
  6
CONTINUOUS
10
148.527 
20
54.808 
11
148.561 
21
54.838
0
LINE
8
5
  6
CONTINUOUS
10
148.561 
20
54.838 
11
148.595 
21
54.868
0
LINE
8
5
  6
CONTINUOUS
10
148.595 
20
54.868 
11
148.629 
21
54.897
0
LINE
8
5
  6
CONTINUOUS
10
148.629 
20
54.897 
11
148.664 
21
54.926
0
LINE
8
5
  6
CONTINUOUS
10
148.664 
20
54.926 
11
148.700 
21
54.954
0
LINE
8
5
  6
CONTINUOUS
10
148.700 
20
54.954 
11
148.736 
21
54.982
0
LINE
8
5
  6
CONTINUOUS
10
148.736 
20
54.982 
11
148.772 
21
55.009
0
LINE
8
5
  6
CONTINUOUS
10
148.772 
20
55.009 
11
148.809 
21
55.035
0
LINE
8
5
  6
CONTINUOUS
10
148.809 
20
55.035 
11
148.847 
21
55.061
0
LINE
8
5
  6
CONTINUOUS
10
148.847 
20
55.061 
11
148.885 
21
55.087
0
LINE
8
5
  6
CONTINUOUS
10
148.885 
20
55.087 
11
148.923 
21
55.112
0
LINE
8
5
  6
CONTINUOUS
10
148.923 
20
55.112 
11
148.962 
21
55.137
0
LINE
8
5
  6
CONTINUOUS
10
148.962 
20
55.137 
11
149.001 
21
55.161
0
LINE
8
5
  6
CONTINUOUS
10
149.001 
20
55.161 
11
149.041 
21
55.184
0
LINE
8
5
  6
CONTINUOUS
10
149.041 
20
55.184 
11
149.081 
21
55.207
0
LINE
8
5
  6
CONTINUOUS
10
149.081 
20
55.207 
11
149.122 
21
55.229
0
LINE
8
5
  6
CONTINUOUS
10
149.122 
20
55.229 
11
149.163 
21
55.251
0
LINE
8
5
  6
CONTINUOUS
10
149.163 
20
55.251 
11
149.205 
21
55.272
0
LINE
8
5
  6
CONTINUOUS
10
149.205 
20
55.272 
11
149.247 
21
55.293
0
LINE
8
5
  6
CONTINUOUS
10
149.247 
20
55.293 
11
149.289 
21
55.313
0
LINE
8
5
  6
CONTINUOUS
10
149.289 
20
55.313 
11
149.331 
21
55.332
0
LINE
8
5
  6
CONTINUOUS
10
149.331 
20
55.332 
11
149.375 
21
55.351
0
LINE
8
5
  6
CONTINUOUS
10
149.375 
20
55.351 
11
149.418 
21
55.370
0
LINE
8
5
  6
CONTINUOUS
10
149.418 
20
55.370 
11
149.462 
21
55.387
0
LINE
8
5
  6
CONTINUOUS
10
149.462 
20
55.387 
11
149.506 
21
55.404
0
LINE
8
5
  6
CONTINUOUS
10
149.506 
20
55.404 
11
149.550 
21
55.421
0
LINE
8
5
  6
CONTINUOUS
10
149.550 
20
55.421 
11
149.595 
21
55.437
0
LINE
8
5
  6
CONTINUOUS
10
149.595 
20
55.437 
11
149.640 
21
55.452
0
LINE
8
5
  6
CONTINUOUS
10
149.640 
20
55.452 
11
149.686 
21
55.467
0
LINE
8
5
  6
CONTINUOUS
10
149.686 
20
55.467 
11
149.731 
21
55.481
0
LINE
8
5
  6
CONTINUOUS
10
149.731 
20
55.481 
11
149.778 
21
55.495
0
LINE
8
5
  6
CONTINUOUS
10
149.778 
20
55.495 
11
149.824 
21
55.508
0
LINE
8
5
  6
CONTINUOUS
10
149.824 
20
55.508 
11
149.870 
21
55.520
0
LINE
8
5
  6
CONTINUOUS
10
149.870 
20
55.520 
11
149.917 
21
55.532
0
LINE
8
5
  6
CONTINUOUS
10
149.917 
20
55.532 
11
149.965 
21
55.543
0
LINE
8
5
  6
CONTINUOUS
10
149.965 
20
55.543 
11
150.012 
21
55.553
0
LINE
8
5
  6
CONTINUOUS
10
150.012 
20
55.553 
11
150.060 
21
55.563
0
LINE
8
5
  6
CONTINUOUS
10
150.060 
20
55.563 
11
150.108 
21
55.572
0
LINE
8
5
  6
CONTINUOUS
10
150.108 
20
55.572 
11
150.156 
21
55.580
0
LINE
8
5
  6
CONTINUOUS
10
150.156 
20
55.580 
11
150.204 
21
55.588
0
LINE
8
5
  6
CONTINUOUS
10
150.204 
20
55.588 
11
150.253 
21
55.595
0
LINE
8
5
  6
CONTINUOUS
10
150.253 
20
55.595 
11
150.301 
21
55.602
0
LINE
8
5
  6
CONTINUOUS
10
150.301 
20
55.602 
11
150.350 
21
55.608
0
LINE
8
5
  6
CONTINUOUS
10
150.350 
20
55.608 
11
150.399 
21
55.613
0
LINE
8
5
  6
CONTINUOUS
10
150.399 
20
55.613 
11
150.449 
21
55.617
0
LINE
8
5
  6
CONTINUOUS
10
150.449 
20
55.617 
11
150.498 
21
55.621
0
LINE
8
5
  6
CONTINUOUS
10
150.498 
20
55.621 
11
150.548 
21
55.624
0
LINE
8
5
  6
CONTINUOUS
10
150.548 
20
55.624 
11
150.598 
21
55.626
0
LINE
8
5
  6
CONTINUOUS
10
150.598 
20
55.626 
11
150.648 
21
55.628
0
LINE
8
5
  6
CONTINUOUS
10
150.648 
20
55.628 
11
150.698 
21
55.629
0
LINE
8
5
  6
CONTINUOUS
10
150.698 
20
55.629 
11
150.748 
21
55.630
0
LINE
8
5
  6
CONTINUOUS
10
8.908 
20
10.701 
11
58.643 
21
10.701
0
LINE
8
5
  6
CONTINUOUS
10
72.336 
20
50.600 
11
72.285 
21
50.600
0
LINE
8
5
  6
CONTINUOUS
10
72.285 
20
50.600 
11
72.235 
21
50.601
0
LINE
8
5
  6
CONTINUOUS
10
72.235 
20
50.601 
11
72.185 
21
50.603
0
LINE
8
5
  6
CONTINUOUS
10
72.185 
20
50.603 
11
72.135 
21
50.606
0
LINE
8
5
  6
CONTINUOUS
10
72.135 
20
50.606 
11
72.086 
21
50.609
0
LINE
8
5
  6
CONTINUOUS
10
72.086 
20
50.609 
11
72.036 
21
50.612
0
LINE
8
5
  6
CONTINUOUS
10
72.036 
20
50.612 
11
71.987 
21
50.617
0
LINE
8
5
  6
CONTINUOUS
10
71.987 
20
50.617 
11
71.938 
21
50.622
0
LINE
8
5
  6
CONTINUOUS
10
71.938 
20
50.622 
11
71.889 
21
50.628
0
LINE
8
5
  6
CONTINUOUS
10
71.889 
20
50.628 
11
71.840 
21
50.634
0
LINE
8
5
  6
CONTINUOUS
10
71.840 
20
50.634 
11
71.791 
21
50.642
0
LINE
8
5
  6
CONTINUOUS
10
71.791 
20
50.642 
11
71.743 
21
50.649
0
LINE
8
5
  6
CONTINUOUS
10
71.743 
20
50.649 
11
71.695 
21
50.658
0
LINE
8
5
  6
CONTINUOUS
10
71.695 
20
50.658 
11
71.647 
21
50.667
0
LINE
8
5
  6
CONTINUOUS
10
71.647 
20
50.667 
11
71.599 
21
50.677
0
LINE
8
5
  6
CONTINUOUS
10
71.599 
20
50.677 
11
71.552 
21
50.687
0
LINE
8
5
  6
CONTINUOUS
10
71.552 
20
50.687 
11
71.505 
21
50.698
0
LINE
8
5
  6
CONTINUOUS
10
71.505 
20
50.698 
11
71.458 
21
50.710
0
LINE
8
5
  6
CONTINUOUS
10
71.458 
20
50.710 
11
71.411 
21
50.722
0
LINE
8
5
  6
CONTINUOUS
10
71.411 
20
50.722 
11
71.365 
21
50.735
0
LINE
8
5
  6
CONTINUOUS
10
71.365 
20
50.735 
11
71.319 
21
50.748
0
LINE
8
5
  6
CONTINUOUS
10
71.319 
20
50.748 
11
71.273 
21
50.763
0
LINE
8
5
  6
CONTINUOUS
10
71.273 
20
50.763 
11
71.228 
21
50.777
0
LINE
8
5
  6
CONTINUOUS
10
71.228 
20
50.777 
11
71.183 
21
50.793
0
LINE
8
5
  6
CONTINUOUS
10
71.183 
20
50.793 
11
71.138 
21
50.809
0
LINE
8
5
  6
CONTINUOUS
10
71.138 
20
50.809 
11
71.093 
21
50.825
0
LINE
8
5
  6
CONTINUOUS
10
71.093 
20
50.825 
11
71.049 
21
50.842
0
LINE
8
5
  6
CONTINUOUS
10
71.049 
20
50.842 
11
71.005 
21
50.860
0
LINE
8
5
  6
CONTINUOUS
10
71.005 
20
50.860 
11
70.962 
21
50.878
0
LINE
8
5
  6
CONTINUOUS
10
70.962 
20
50.878 
11
70.919 
21
50.897
0
LINE
8
5
  6
CONTINUOUS
10
70.919 
20
50.897 
11
70.876 
21
50.917
0
LINE
8
5
  6
CONTINUOUS
10
70.876 
20
50.917 
11
70.834 
21
50.937
0
LINE
8
5
  6
CONTINUOUS
10
70.834 
20
50.937 
11
70.792 
21
50.958
0
LINE
8
5
  6
CONTINUOUS
10
70.792 
20
50.958 
11
70.751 
21
50.979
0
LINE
8
5
  6
CONTINUOUS
10
70.751 
20
50.979 
11
70.710 
21
51.000
0
LINE
8
5
  6
CONTINUOUS
10
70.710 
20
51.000 
11
70.669 
21
51.023
0
LINE
8
5
  6
CONTINUOUS
10
70.669 
20
51.023 
11
70.629 
21
51.046
0
LINE
8
5
  6
CONTINUOUS
10
70.629 
20
51.046 
11
70.589 
21
51.069
0
LINE
8
5
  6
CONTINUOUS
10
70.589 
20
51.069 
11
70.549 
21
51.093
0
LINE
8
5
  6
CONTINUOUS
10
70.549 
20
51.093 
11
70.511 
21
51.118
0
LINE
8
5
  6
CONTINUOUS
10
70.511 
20
51.118 
11
70.472 
21
51.143
0
LINE
8
5
  6
CONTINUOUS
10
70.472 
20
51.143 
11
70.434 
21
51.168
0
LINE
8
5
  6
CONTINUOUS
10
70.434 
20
51.168 
11
70.397 
21
51.194
0
LINE
8
5
  6
CONTINUOUS
10
70.397 
20
51.194 
11
70.360 
21
51.221
0
LINE
8
5
  6
CONTINUOUS
10
70.360 
20
51.221 
11
70.323 
21
51.248
0
LINE
8
5
  6
CONTINUOUS
10
70.323 
20
51.248 
11
70.287 
21
51.276
0
LINE
8
5
  6
CONTINUOUS
10
70.287 
20
51.276 
11
70.252 
21
51.304
0
LINE
8
5
  6
CONTINUOUS
10
70.252 
20
51.304 
11
70.217 
21
51.333
0
LINE
8
5
  6
CONTINUOUS
10
70.217 
20
51.333 
11
70.182 
21
51.362
0
LINE
8
5
  6
CONTINUOUS
10
70.182 
20
51.362 
11
70.148 
21
51.392
0
LINE
8
5
  6
CONTINUOUS
10
70.148 
20
51.392 
11
70.115 
21
51.422
0
LINE
8
5
  6
CONTINUOUS
10
70.115 
20
51.422 
11
70.082 
21
51.452
0
LINE
8
5
  6
CONTINUOUS
10
70.082 
20
51.452 
11
70.050 
21
51.484
0
LINE
8
5
  6
CONTINUOUS
10
70.050 
20
51.484 
11
70.018 
21
51.515
0
LINE
8
5
  6
CONTINUOUS
10
70.018 
20
51.515 
11
69.987 
21
51.547
0
LINE
8
5
  6
CONTINUOUS
10
69.987 
20
51.547 
11
69.957 
21
51.580
0
LINE
8
5
  6
CONTINUOUS
10
69.957 
20
51.580 
11
69.927 
21
51.613
0
LINE
8
5
  6
CONTINUOUS
10
69.927 
20
51.613 
11
69.897 
21
51.647
0
LINE
8
5
  6
CONTINUOUS
10
69.897 
20
51.647 
11
69.869 
21
51.681
0
LINE
8
5
  6
CONTINUOUS
10
69.869 
20
51.681 
11
69.841 
21
51.715
0
LINE
8
5
  6
CONTINUOUS
10
69.841 
20
51.715 
11
69.813 
21
51.750
0
LINE
8
5
  6
CONTINUOUS
10
69.813 
20
51.750 
11
69.786 
21
51.785
0
LINE
8
5
  6
CONTINUOUS
10
69.786 
20
51.785 
11
69.760 
21
51.821
0
LINE
8
5
  6
CONTINUOUS
10
69.760 
20
51.821 
11
69.735 
21
51.857
0
LINE
8
5
  6
CONTINUOUS
10
69.735 
20
51.857 
11
69.710 
21
51.894
0
LINE
8
5
  6
CONTINUOUS
10
69.710 
20
51.894 
11
69.686 
21
51.931
0
LINE
8
5
  6
CONTINUOUS
10
69.686 
20
51.931 
11
69.663 
21
51.968
0
LINE
8
5
  6
CONTINUOUS
10
69.663 
20
51.968 
11
69.641 
21
52.005
0
LINE
8
5
  6
CONTINUOUS
10
69.641 
20
52.005 
11
69.619 
21
52.043
0
LINE
8
5
  6
CONTINUOUS
10
69.619 
20
52.043 
11
69.598 
21
52.081
0
LINE
8
5
  6
CONTINUOUS
10
69.598 
20
52.081 
11
69.578 
21
52.119
0
LINE
8
5
  6
CONTINUOUS
10
69.578 
20
52.119 
11
69.559 
21
52.157
0
LINE
8
5
  6
CONTINUOUS
10
69.559 
20
52.157 
11
69.540 
21
52.195
0
LINE
8
5
  6
CONTINUOUS
10
69.540 
20
52.195 
11
69.523 
21
52.234
0
LINE
8
5
  6
CONTINUOUS
10
69.523 
20
52.234 
11
69.506 
21
52.273
0
LINE
8
5
  6
CONTINUOUS
10
69.506 
20
52.273 
11
69.490 
21
52.312
0
LINE
8
5
  6
CONTINUOUS
10
69.490 
20
52.312 
11
69.474 
21
52.351
0
LINE
8
5
  6
CONTINUOUS
10
69.474 
20
52.351 
11
69.460 
21
52.390
0
LINE
8
5
  6
CONTINUOUS
10
69.460 
20
52.390 
11
69.446 
21
52.430
0
LINE
8
5
  6
CONTINUOUS
10
69.446 
20
52.430 
11
69.433 
21
52.469
0
LINE
8
5
  6
CONTINUOUS
10
69.433 
20
52.469 
11
69.421 
21
52.509
0
LINE
8
5
  6
CONTINUOUS
10
69.421 
20
52.509 
11
69.409 
21
52.549
0
LINE
8
5
  6
CONTINUOUS
10
69.409 
20
52.549 
11
69.399 
21
52.589
0
LINE
8
5
  6
CONTINUOUS
10
69.399 
20
52.589 
11
69.389 
21
52.629
0
LINE
8
5
  6
CONTINUOUS
10
69.389 
20
52.629 
11
69.380 
21
52.669
0
LINE
8
5
  6
CONTINUOUS
10
69.380 
20
52.669 
11
69.372 
21
52.709
0
LINE
8
5
  6
CONTINUOUS
10
69.372 
20
52.709 
11
69.364 
21
52.750
0
LINE
8
5
  6
CONTINUOUS
10
69.364 
20
52.750 
11
69.358 
21
52.790
0
LINE
8
5
  6
CONTINUOUS
10
69.358 
20
52.790 
11
69.352 
21
52.830
0
LINE
8
5
  6
CONTINUOUS
10
69.352 
20
52.830 
11
69.347 
21
52.871
0
LINE
8
5
  6
CONTINUOUS
10
69.347 
20
52.871 
11
69.342 
21
52.912
0
LINE
8
5
  6
CONTINUOUS
10
69.342 
20
52.912 
11
69.339 
21
52.952
0
LINE
8
5
  6
CONTINUOUS
10
69.339 
20
52.952 
11
69.336 
21
52.993
0
LINE
8
5
  6
CONTINUOUS
10
69.336 
20
52.993 
11
69.334 
21
53.033
0
LINE
8
5
  6
CONTINUOUS
10
69.334 
20
53.033 
11
69.333 
21
53.074
0
LINE
8
5
  6
CONTINUOUS
10
69.333 
20
53.074 
11
69.332 
21
53.115
0
LINE
8
5
  6
CONTINUOUS
10
69.332 
20
53.115 
11
69.333 
21
53.156
0
LINE
8
5
  6
CONTINUOUS
10
69.333 
20
53.156 
11
69.334 
21
53.196
0
LINE
8
5
  6
CONTINUOUS
10
69.334 
20
53.196 
11
69.336 
21
53.237
0
LINE
8
5
  6
CONTINUOUS
10
69.336 
20
53.237 
11
69.339 
21
53.278
0
LINE
8
5
  6
CONTINUOUS
10
69.339 
20
53.278 
11
69.342 
21
53.318
0
LINE
8
5
  6
CONTINUOUS
10
69.342 
20
53.318 
11
69.347 
21
53.359
0
LINE
8
5
  6
CONTINUOUS
10
69.347 
20
53.359 
11
69.352 
21
53.399
0
LINE
8
5
  6
CONTINUOUS
10
69.352 
20
53.399 
11
69.358 
21
53.440
0
LINE
8
5
  6
CONTINUOUS
10
69.358 
20
53.440 
11
69.364 
21
53.480
0
LINE
8
5
  6
CONTINUOUS
10
69.364 
20
53.480 
11
69.372 
21
53.521
0
LINE
8
5
  6
CONTINUOUS
10
69.372 
20
53.521 
11
69.380 
21
53.561
0
LINE
8
5
  6
CONTINUOUS
10
69.380 
20
53.561 
11
69.389 
21
53.601
0
LINE
8
5
  6
CONTINUOUS
10
69.389 
20
53.601 
11
69.399 
21
53.641
0
LINE
8
5
  6
CONTINUOUS
10
69.399 
20
53.641 
11
69.409 
21
53.681
0
LINE
8
5
  6
CONTINUOUS
10
69.409 
20
53.681 
11
69.421 
21
53.721
0
LINE
8
5
  6
CONTINUOUS
10
69.421 
20
53.721 
11
69.433 
21
53.761
0
LINE
8
5
  6
CONTINUOUS
10
69.433 
20
53.761 
11
69.446 
21
53.800
0
LINE
8
5
  6
CONTINUOUS
10
69.446 
20
53.800 
11
69.460 
21
53.840
0
LINE
8
5
  6
CONTINUOUS
10
69.460 
20
53.840 
11
69.474 
21
53.879
0
LINE
8
5
  6
CONTINUOUS
10
69.474 
20
53.879 
11
69.490 
21
53.918
0
LINE
8
5
  6
CONTINUOUS
10
69.490 
20
53.918 
11
69.506 
21
53.957
0
LINE
8
5
  6
CONTINUOUS
10
69.506 
20
53.957 
11
69.523 
21
53.996
0
LINE
8
5
  6
CONTINUOUS
10
69.523 
20
53.996 
11
69.540 
21
54.034
0
LINE
8
5
  6
CONTINUOUS
10
69.540 
20
54.034 
11
69.559 
21
54.073
0
LINE
8
5
  6
CONTINUOUS
10
69.559 
20
54.073 
11
69.578 
21
54.111
0
LINE
8
5
  6
CONTINUOUS
10
69.578 
20
54.111 
11
69.598 
21
54.149
0
LINE
8
5
  6
CONTINUOUS
10
69.598 
20
54.149 
11
69.619 
21
54.187
0
LINE
8
5
  6
CONTINUOUS
10
69.619 
20
54.187 
11
69.641 
21
54.224
0
LINE
8
5
  6
CONTINUOUS
10
69.641 
20
54.224 
11
69.663 
21
54.262
0
LINE
8
5
  6
CONTINUOUS
10
69.663 
20
54.262 
11
69.686 
21
54.299
0
LINE
8
5
  6
CONTINUOUS
10
69.686 
20
54.299 
11
69.710 
21
54.336
0
LINE
8
5
  6
CONTINUOUS
10
69.710 
20
54.336 
11
69.735 
21
54.372
0
LINE
8
5
  6
CONTINUOUS
10
69.735 
20
54.372 
11
69.760 
21
54.409
0
LINE
8
5
  6
CONTINUOUS
10
69.760 
20
54.409 
11
69.786 
21
54.444
0
LINE
8
5
  6
CONTINUOUS
10
69.786 
20
54.444 
11
69.813 
21
54.480
0
LINE
8
5
  6
CONTINUOUS
10
69.813 
20
54.480 
11
69.841 
21
54.515
0
LINE
8
5
  6
CONTINUOUS
10
69.841 
20
54.515 
11
69.869 
21
54.549
0
LINE
8
5
  6
CONTINUOUS
10
69.869 
20
54.549 
11
69.897 
21
54.583
0
LINE
8
5
  6
CONTINUOUS
10
69.897 
20
54.583 
11
69.927 
21
54.617
0
LINE
8
5
  6
CONTINUOUS
10
69.927 
20
54.617 
11
69.957 
21
54.650
0
LINE
8
5
  6
CONTINUOUS
10
69.957 
20
54.650 
11
69.987 
21
54.682
0
LINE
8
5
  6
CONTINUOUS
10
69.987 
20
54.682 
11
70.018 
21
54.715
0
LINE
8
5
  6
CONTINUOUS
10
70.018 
20
54.715 
11
70.050 
21
54.746
0
LINE
8
5
  6
CONTINUOUS
10
70.050 
20
54.746 
11
70.082 
21
54.777
0
LINE
8
5
  6
CONTINUOUS
10
70.082 
20
54.777 
11
70.115 
21
54.808
0
LINE
8
5
  6
CONTINUOUS
10
70.115 
20
54.808 
11
70.148 
21
54.838
0
LINE
8
5
  6
CONTINUOUS
10
70.148 
20
54.838 
11
70.182 
21
54.868
0
LINE
8
5
  6
CONTINUOUS
10
70.182 
20
54.868 
11
70.217 
21
54.897
0
LINE
8
5
  6
CONTINUOUS
10
70.217 
20
54.897 
11
70.252 
21
54.926
0
LINE
8
5
  6
CONTINUOUS
10
70.252 
20
54.926 
11
70.287 
21
54.954
0
LINE
8
5
  6
CONTINUOUS
10
70.287 
20
54.954 
11
70.323 
21
54.982
0
LINE
8
5
  6
CONTINUOUS
10
70.323 
20
54.982 
11
70.360 
21
55.009
0
LINE
8
5
  6
CONTINUOUS
10
70.360 
20
55.009 
11
70.397 
21
55.035
0
LINE
8
5
  6
CONTINUOUS
10
70.397 
20
55.035 
11
70.434 
21
55.061
0
LINE
8
5
  6
CONTINUOUS
10
70.434 
20
55.061 
11
70.472 
21
55.087
0
LINE
8
5
  6
CONTINUOUS
10
70.472 
20
55.087 
11
70.511 
21
55.112
0
LINE
8
5
  6
CONTINUOUS
10
70.511 
20
55.112 
11
70.549 
21
55.137
0
LINE
8
5
  6
CONTINUOUS
10
70.549 
20
55.137 
11
70.589 
21
55.161
0
LINE
8
5
  6
CONTINUOUS
10
70.589 
20
55.161 
11
70.629 
21
55.184
0
LINE
8
5
  6
CONTINUOUS
10
70.629 
20
55.184 
11
70.669 
21
55.207
0
LINE
8
5
  6
CONTINUOUS
10
70.669 
20
55.207 
11
70.710 
21
55.229
0
LINE
8
5
  6
CONTINUOUS
10
70.710 
20
55.229 
11
70.751 
21
55.251
0
LINE
8
5
  6
CONTINUOUS
10
70.751 
20
55.251 
11
70.792 
21
55.272
0
LINE
8
5
  6
CONTINUOUS
10
70.792 
20
55.272 
11
70.834 
21
55.293
0
LINE
8
5
  6
CONTINUOUS
10
70.834 
20
55.293 
11
70.876 
21
55.313
0
LINE
8
5
  6
CONTINUOUS
10
70.876 
20
55.313 
11
70.919 
21
55.332
0
LINE
8
5
  6
CONTINUOUS
10
70.919 
20
55.332 
11
70.962 
21
55.351
0
LINE
8
5
  6
CONTINUOUS
10
70.962 
20
55.351 
11
71.005 
21
55.370
0
LINE
8
5
  6
CONTINUOUS
10
71.005 
20
55.370 
11
71.049 
21
55.387
0
LINE
8
5
  6
CONTINUOUS
10
71.049 
20
55.387 
11
71.093 
21
55.404
0
LINE
8
5
  6
CONTINUOUS
10
71.093 
20
55.404 
11
71.138 
21
55.421
0
LINE
8
5
  6
CONTINUOUS
10
71.138 
20
55.421 
11
71.183 
21
55.437
0
LINE
8
5
  6
CONTINUOUS
10
71.183 
20
55.437 
11
71.228 
21
55.452
0
LINE
8
5
  6
CONTINUOUS
10
71.228 
20
55.452 
11
71.273 
21
55.467
0
LINE
8
5
  6
CONTINUOUS
10
71.273 
20
55.467 
11
71.319 
21
55.481
0
LINE
8
5
  6
CONTINUOUS
10
71.319 
20
55.481 
11
71.365 
21
55.495
0
LINE
8
5
  6
CONTINUOUS
10
71.365 
20
55.495 
11
71.411 
21
55.508
0
LINE
8
5
  6
CONTINUOUS
10
71.411 
20
55.508 
11
71.458 
21
55.520
0
LINE
8
5
  6
CONTINUOUS
10
71.458 
20
55.520 
11
71.505 
21
55.532
0
LINE
8
5
  6
CONTINUOUS
10
71.505 
20
55.532 
11
71.552 
21
55.543
0
LINE
8
5
  6
CONTINUOUS
10
71.552 
20
55.543 
11
71.599 
21
55.553
0
LINE
8
5
  6
CONTINUOUS
10
71.599 
20
55.553 
11
71.647 
21
55.563
0
LINE
8
5
  6
CONTINUOUS
10
71.647 
20
55.563 
11
71.695 
21
55.572
0
LINE
8
5
  6
CONTINUOUS
10
71.695 
20
55.572 
11
71.743 
21
55.580
0
LINE
8
5
  6
CONTINUOUS
10
71.743 
20
55.580 
11
71.791 
21
55.588
0
LINE
8
5
  6
CONTINUOUS
10
71.791 
20
55.588 
11
71.840 
21
55.595
0
LINE
8
5
  6
CONTINUOUS
10
71.840 
20
55.595 
11
71.889 
21
55.602
0
LINE
8
5
  6
CONTINUOUS
10
71.889 
20
55.602 
11
71.938 
21
55.608
0
LINE
8
5
  6
CONTINUOUS
10
71.938 
20
55.608 
11
71.987 
21
55.613
0
LINE
8
5
  6
CONTINUOUS
10
71.987 
20
55.613 
11
72.036 
21
55.617
0
LINE
8
5
  6
CONTINUOUS
10
72.036 
20
55.617 
11
72.086 
21
55.621
0
LINE
8
5
  6
CONTINUOUS
10
72.086 
20
55.621 
11
72.135 
21
55.624
0
LINE
8
5
  6
CONTINUOUS
10
72.135 
20
55.624 
11
72.185 
21
55.626
0
LINE
8
5
  6
CONTINUOUS
10
72.185 
20
55.626 
11
72.235 
21
55.628
0
LINE
8
5
  6
CONTINUOUS
10
72.235 
20
55.628 
11
72.285 
21
55.629
0
LINE
8
5
  6
CONTINUOUS
10
72.285 
20
55.629 
11
72.336 
21
55.630
0
LINE
8
5
  6
CONTINUOUS
10
150.750 
20
55.630 
11
159.875 
21
55.653
0
LINE
8
5
  6
CONTINUOUS
10
150.749 
20
50.600 
11
159.874 
21
50.647
0
LINE
8
5
  6
CONTINUOUS
10
72.337 
20
55.630 
11
81.463 
21
55.653
0
LINE
8
5
  6
CONTINUOUS
10
255.393 
20
55.653 
11
255.443 
21
55.653
0
LINE
8
5
  6
CONTINUOUS
10
255.443 
20
55.653 
11
255.493 
21
55.652
0
LINE
8
5
  6
CONTINUOUS
10
255.493 
20
55.652 
11
255.543 
21
55.650
0
LINE
8
5
  6
CONTINUOUS
10
255.543 
20
55.650 
11
255.593 
21
55.648
0
LINE
8
5
  6
CONTINUOUS
10
255.593 
20
55.648 
11
255.643 
21
55.644
0
LINE
8
5
  6
CONTINUOUS
10
255.643 
20
55.644 
11
255.692 
21
55.641
0
LINE
8
5
  6
CONTINUOUS
10
255.692 
20
55.641 
11
255.741 
21
55.636
0
LINE
8
5
  6
CONTINUOUS
10
255.741 
20
55.636 
11
255.791 
21
55.631
0
LINE
8
5
  6
CONTINUOUS
10
255.791 
20
55.631 
11
255.840 
21
55.625
0
LINE
8
5
  6
CONTINUOUS
10
255.840 
20
55.625 
11
255.888 
21
55.619
0
LINE
8
5
  6
CONTINUOUS
10
255.888 
20
55.619 
11
255.937 
21
55.612
0
LINE
8
5
  6
CONTINUOUS
10
255.937 
20
55.612 
11
255.985 
21
55.604
0
LINE
8
5
  6
CONTINUOUS
10
255.985 
20
55.604 
11
256.033 
21
55.595
0
LINE
8
5
  6
CONTINUOUS
10
256.033 
20
55.595 
11
256.081 
21
55.586
0
LINE
8
5
  6
CONTINUOUS
10
256.081 
20
55.586 
11
256.129 
21
55.576
0
LINE
8
5
  6
CONTINUOUS
10
256.129 
20
55.576 
11
256.176 
21
55.566
0
LINE
8
5
  6
CONTINUOUS
10
256.176 
20
55.566 
11
256.224 
21
55.555
0
LINE
8
5
  6
CONTINUOUS
10
256.224 
20
55.555 
11
256.270 
21
55.543
0
LINE
8
5
  6
CONTINUOUS
10
256.270 
20
55.543 
11
256.317 
21
55.531
0
LINE
8
5
  6
CONTINUOUS
10
256.317 
20
55.531 
11
256.363 
21
55.518
0
LINE
8
5
  6
CONTINUOUS
10
256.363 
20
55.518 
11
256.409 
21
55.505
0
LINE
8
5
  6
CONTINUOUS
10
256.409 
20
55.505 
11
256.455 
21
55.490
0
LINE
8
5
  6
CONTINUOUS
10
256.455 
20
55.490 
11
256.501 
21
55.476
0
LINE
8
5
  6
CONTINUOUS
10
256.501 
20
55.476 
11
256.546 
21
55.460
0
LINE
8
5
  6
CONTINUOUS
10
256.546 
20
55.460 
11
256.591 
21
55.444
0
LINE
8
5
  6
CONTINUOUS
10
256.591 
20
55.444 
11
256.635 
21
55.428
0
LINE
8
5
  6
CONTINUOUS
10
256.635 
20
55.428 
11
256.679 
21
55.411
0
LINE
8
5
  6
CONTINUOUS
10
256.679 
20
55.411 
11
256.723 
21
55.393
0
LINE
8
5
  6
CONTINUOUS
10
256.723 
20
55.393 
11
256.766 
21
55.375
0
LINE
8
5
  6
CONTINUOUS
10
256.766 
20
55.375 
11
256.809 
21
55.356
0
LINE
8
5
  6
CONTINUOUS
10
256.809 
20
55.356 
11
256.852 
21
55.336
0
LINE
8
5
  6
CONTINUOUS
10
256.852 
20
55.336 
11
256.894 
21
55.316
0
LINE
8
5
  6
CONTINUOUS
10
256.894 
20
55.316 
11
256.936 
21
55.296
0
LINE
8
5
  6
CONTINUOUS
10
256.936 
20
55.296 
11
256.978 
21
55.274
0
LINE
8
5
  6
CONTINUOUS
10
256.978 
20
55.274 
11
257.019 
21
55.253
0
LINE
8
5
  6
CONTINUOUS
10
257.019 
20
55.253 
11
257.060 
21
55.230
0
LINE
8
5
  6
CONTINUOUS
10
257.060 
20
55.230 
11
257.100 
21
55.207
0
LINE
8
5
  6
CONTINUOUS
10
257.100 
20
55.207 
11
257.140 
21
55.184
0
LINE
8
5
  6
CONTINUOUS
10
257.140 
20
55.184 
11
257.179 
21
55.160
0
LINE
8
5
  6
CONTINUOUS
10
257.179 
20
55.160 
11
257.218 
21
55.135
0
LINE
8
5
  6
CONTINUOUS
10
257.218 
20
55.135 
11
257.256 
21
55.110
0
LINE
8
5
  6
CONTINUOUS
10
257.256 
20
55.110 
11
257.294 
21
55.085
0
LINE
8
5
  6
CONTINUOUS
10
257.294 
20
55.085 
11
257.332 
21
55.059
0
LINE
8
5
  6
CONTINUOUS
10
257.332 
20
55.059 
11
257.369 
21
55.032
0
LINE
8
5
  6
CONTINUOUS
10
257.369 
20
55.032 
11
257.405 
21
55.005
0
LINE
8
5
  6
CONTINUOUS
10
257.405 
20
55.005 
11
257.441 
21
54.977
0
LINE
8
5
  6
CONTINUOUS
10
257.441 
20
54.977 
11
257.477 
21
54.949
0
LINE
8
5
  6
CONTINUOUS
10
257.477 
20
54.949 
11
257.512 
21
54.920
0
LINE
8
5
  6
CONTINUOUS
10
257.512 
20
54.920 
11
257.546 
21
54.891
0
LINE
8
5
  6
CONTINUOUS
10
257.546 
20
54.891 
11
257.580 
21
54.861
0
LINE
8
5
  6
CONTINUOUS
10
257.580 
20
54.861 
11
257.613 
21
54.831
0
LINE
8
5
  6
CONTINUOUS
10
257.613 
20
54.831 
11
257.646 
21
54.801
0
LINE
8
5
  6
CONTINUOUS
10
257.646 
20
54.801 
11
257.679 
21
54.769
0
LINE
8
5
  6
CONTINUOUS
10
257.679 
20
54.769 
11
257.710 
21
54.738
0
LINE
8
5
  6
CONTINUOUS
10
257.710 
20
54.738 
11
257.741 
21
54.706
0
LINE
8
5
  6
CONTINUOUS
10
257.741 
20
54.706 
11
257.772 
21
54.673
0
LINE
8
5
  6
CONTINUOUS
10
257.772 
20
54.673 
11
257.802 
21
54.640
0
LINE
8
5
  6
CONTINUOUS
10
257.802 
20
54.640 
11
257.831 
21
54.606
0
LINE
8
5
  6
CONTINUOUS
10
257.831 
20
54.606 
11
257.860 
21
54.572
0
LINE
8
5
  6
CONTINUOUS
10
257.860 
20
54.572 
11
257.888 
21
54.538
0
LINE
8
5
  6
CONTINUOUS
10
257.888 
20
54.538 
11
257.915 
21
54.503
0
LINE
8
5
  6
CONTINUOUS
10
257.915 
20
54.503 
11
257.942 
21
54.468
0
LINE
8
5
  6
CONTINUOUS
10
257.942 
20
54.468 
11
257.968 
21
54.432
0
LINE
8
5
  6
CONTINUOUS
10
257.968 
20
54.432 
11
257.994 
21
54.396
0
LINE
8
5
  6
CONTINUOUS
10
257.994 
20
54.396 
11
258.018 
21
54.359
0
LINE
8
5
  6
CONTINUOUS
10
258.018 
20
54.359 
11
258.042 
21
54.322
0
LINE
8
5
  6
CONTINUOUS
10
258.042 
20
54.322 
11
258.065 
21
54.285
0
LINE
8
5
  6
CONTINUOUS
10
258.065 
20
54.285 
11
258.088 
21
54.248
0
LINE
8
5
  6
CONTINUOUS
10
258.088 
20
54.248 
11
258.109 
21
54.210
0
LINE
8
5
  6
CONTINUOUS
10
258.109 
20
54.210 
11
258.130 
21
54.172
0
LINE
8
5
  6
CONTINUOUS
10
258.130 
20
54.172 
11
258.150 
21
54.134
0
LINE
8
5
  6
CONTINUOUS
10
258.150 
20
54.134 
11
258.170 
21
54.096
0
LINE
8
5
  6
CONTINUOUS
10
258.170 
20
54.096 
11
258.188 
21
54.058
0
LINE
8
5
  6
CONTINUOUS
10
258.188 
20
54.058 
11
258.206 
21
54.019
0
LINE
8
5
  6
CONTINUOUS
10
258.206 
20
54.019 
11
258.223 
21
53.980
0
LINE
8
5
  6
CONTINUOUS
10
258.223 
20
53.980 
11
258.239 
21
53.941
0
LINE
8
5
  6
CONTINUOUS
10
258.239 
20
53.941 
11
258.254 
21
53.902
0
LINE
8
5
  6
CONTINUOUS
10
258.254 
20
53.902 
11
258.269 
21
53.863
0
LINE
8
5
  6
CONTINUOUS
10
258.269 
20
53.863 
11
258.282 
21
53.823
0
LINE
8
5
  6
CONTINUOUS
10
258.282 
20
53.823 
11
258.295 
21
53.784
0
LINE
8
5
  6
CONTINUOUS
10
258.295 
20
53.784 
11
258.308 
21
53.744
0
LINE
8
5
  6
CONTINUOUS
10
258.308 
20
53.744 
11
258.319 
21
53.704
0
LINE
8
5
  6
CONTINUOUS
10
258.319 
20
53.704 
11
258.330 
21
53.664
0
LINE
8
5
  6
CONTINUOUS
10
258.330 
20
53.664 
11
258.339 
21
53.624
0
LINE
8
5
  6
CONTINUOUS
10
258.339 
20
53.624 
11
258.348 
21
53.584
0
LINE
8
5
  6
CONTINUOUS
10
258.348 
20
53.584 
11
258.357 
21
53.544
0
LINE
8
5
  6
CONTINUOUS
10
258.357 
20
53.544 
11
258.364 
21
53.504
0
LINE
8
5
  6
CONTINUOUS
10
258.364 
20
53.504 
11
258.371 
21
53.463
0
LINE
8
5
  6
CONTINUOUS
10
258.371 
20
53.463 
11
258.377 
21
53.423
0
LINE
8
5
  6
CONTINUOUS
10
258.377 
20
53.423 
11
258.382 
21
53.382
0
LINE
8
5
  6
CONTINUOUS
10
258.382 
20
53.382 
11
258.386 
21
53.342
0
LINE
8
5
  6
CONTINUOUS
10
258.386 
20
53.342 
11
258.390 
21
53.301
0
LINE
8
5
  6
CONTINUOUS
10
258.390 
20
53.301 
11
258.392 
21
53.260
0
LINE
8
5
  6
CONTINUOUS
10
258.392 
20
53.260 
11
258.394 
21
53.220
0
LINE
8
5
  6
CONTINUOUS
10
258.394 
20
53.220 
11
258.396 
21
53.179
0
LINE
8
5
  6
CONTINUOUS
10
258.396 
20
53.179 
11
258.396 
21
53.138
0
LINE
8
5
  6
CONTINUOUS
10
258.396 
20
53.138 
11
258.396 
21
53.097
0
LINE
8
5
  6
CONTINUOUS
10
258.396 
20
53.097 
11
258.394 
21
53.057
0
LINE
8
5
  6
CONTINUOUS
10
258.394 
20
53.057 
11
258.392 
21
53.016
0
LINE
8
5
  6
CONTINUOUS
10
258.392 
20
53.016 
11
258.390 
21
52.975
0
LINE
8
5
  6
CONTINUOUS
10
258.390 
20
52.975 
11
258.386 
21
52.935
0
LINE
8
5
  6
CONTINUOUS
10
258.386 
20
52.935 
11
258.382 
21
52.894
0
LINE
8
5
  6
CONTINUOUS
10
258.382 
20
52.894 
11
258.377 
21
52.854
0
LINE
8
5
  6
CONTINUOUS
10
258.377 
20
52.854 
11
258.371 
21
52.813
0
LINE
8
5
  6
CONTINUOUS
10
258.371 
20
52.813 
11
258.364 
21
52.773
0
LINE
8
5
  6
CONTINUOUS
10
258.364 
20
52.773 
11
258.357 
21
52.732
0
LINE
8
5
  6
CONTINUOUS
10
258.357 
20
52.732 
11
258.348 
21
52.692
0
LINE
8
5
  6
CONTINUOUS
10
258.348 
20
52.692 
11
258.339 
21
52.652
0
LINE
8
5
  6
CONTINUOUS
10
258.339 
20
52.652 
11
258.330 
21
52.612
0
LINE
8
5
  6
CONTINUOUS
10
258.330 
20
52.612 
11
258.319 
21
52.572
0
LINE
8
5
  6
CONTINUOUS
10
258.319 
20
52.572 
11
258.308 
21
52.532
0
LINE
8
5
  6
CONTINUOUS
10
258.308 
20
52.532 
11
258.295 
21
52.492
0
LINE
8
5
  6
CONTINUOUS
10
258.295 
20
52.492 
11
258.282 
21
52.453
0
LINE
8
5
  6
CONTINUOUS
10
258.282 
20
52.453 
11
258.269 
21
52.413
0
LINE
8
5
  6
CONTINUOUS
10
258.269 
20
52.413 
11
258.254 
21
52.374
0
LINE
8
5
  6
CONTINUOUS
10
258.254 
20
52.374 
11
258.239 
21
52.335
0
LINE
8
5
  6
CONTINUOUS
10
258.239 
20
52.335 
11
258.223 
21
52.296
0
LINE
8
5
  6
CONTINUOUS
10
258.223 
20
52.296 
11
258.206 
21
52.257
0
LINE
8
5
  6
CONTINUOUS
10
258.206 
20
52.257 
11
258.188 
21
52.219
0
LINE
8
5
  6
CONTINUOUS
10
258.188 
20
52.219 
11
258.170 
21
52.180
0
LINE
8
5
  6
CONTINUOUS
10
258.170 
20
52.180 
11
258.150 
21
52.142
0
LINE
8
5
  6
CONTINUOUS
10
258.150 
20
52.142 
11
258.130 
21
52.104
0
LINE
8
5
  6
CONTINUOUS
10
258.130 
20
52.104 
11
258.109 
21
52.066
0
LINE
8
5
  6
CONTINUOUS
10
258.109 
20
52.066 
11
258.088 
21
52.029
0
LINE
8
5
  6
CONTINUOUS
10
258.088 
20
52.029 
11
258.065 
21
51.991
0
LINE
8
5
  6
CONTINUOUS
10
258.065 
20
51.991 
11
258.042 
21
51.954
0
LINE
8
5
  6
CONTINUOUS
10
258.042 
20
51.954 
11
258.018 
21
51.917
0
LINE
8
5
  6
CONTINUOUS
10
258.018 
20
51.917 
11
257.994 
21
51.881
0
LINE
8
5
  6
CONTINUOUS
10
257.994 
20
51.881 
11
257.968 
21
51.844
0
LINE
8
5
  6
CONTINUOUS
10
257.968 
20
51.844 
11
257.942 
21
51.809
0
LINE
8
5
  6
CONTINUOUS
10
257.942 
20
51.809 
11
257.915 
21
51.773
0
LINE
8
5
  6
CONTINUOUS
10
257.915 
20
51.773 
11
257.888 
21
51.738
0
LINE
8
5
  6
CONTINUOUS
10
257.888 
20
51.738 
11
257.860 
21
51.704
0
LINE
8
5
  6
CONTINUOUS
10
257.860 
20
51.704 
11
257.831 
21
51.670
0
LINE
8
5
  6
CONTINUOUS
10
257.831 
20
51.670 
11
257.802 
21
51.636
0
LINE
8
5
  6
CONTINUOUS
10
257.802 
20
51.636 
11
257.772 
21
51.603
0
LINE
8
5
  6
CONTINUOUS
10
257.772 
20
51.603 
11
257.741 
21
51.571
0
LINE
8
5
  6
CONTINUOUS
10
257.741 
20
51.571 
11
257.710 
21
51.539
0
LINE
8
5
  6
CONTINUOUS
10
257.710 
20
51.539 
11
257.679 
21
51.507
0
LINE
8
5
  6
CONTINUOUS
10
257.679 
20
51.507 
11
257.646 
21
51.476
0
LINE
8
5
  6
CONTINUOUS
10
257.646 
20
51.476 
11
257.613 
21
51.445
0
LINE
8
5
  6
CONTINUOUS
10
257.613 
20
51.445 
11
257.580 
21
51.415
0
LINE
8
5
  6
CONTINUOUS
10
257.580 
20
51.415 
11
257.546 
21
51.385
0
LINE
8
5
  6
CONTINUOUS
10
257.546 
20
51.385 
11
257.512 
21
51.356
0
LINE
8
5
  6
CONTINUOUS
10
257.512 
20
51.356 
11
257.477 
21
51.327
0
LINE
8
5
  6
CONTINUOUS
10
257.477 
20
51.327 
11
257.441 
21
51.299
0
LINE
8
5
  6
CONTINUOUS
10
257.441 
20
51.299 
11
257.405 
21
51.271
0
LINE
8
5
  6
CONTINUOUS
10
257.405 
20
51.271 
11
257.369 
21
51.244
0
LINE
8
5
  6
CONTINUOUS
10
257.369 
20
51.244 
11
257.332 
21
51.218
0
LINE
8
5
  6
CONTINUOUS
10
257.332 
20
51.218 
11
257.294 
21
51.192
0
LINE
8
5
  6
CONTINUOUS
10
257.294 
20
51.192 
11
257.256 
21
51.166
0
LINE
8
5
  6
CONTINUOUS
10
257.256 
20
51.166 
11
257.218 
21
51.141
0
LINE
8
5
  6
CONTINUOUS
10
257.218 
20
51.141 
11
257.179 
21
51.116
0
LINE
8
5
  6
CONTINUOUS
10
257.179 
20
51.116 
11
257.140 
21
51.092
0
LINE
8
5
  6
CONTINUOUS
10
257.140 
20
51.092 
11
257.100 
21
51.069
0
LINE
8
5
  6
CONTINUOUS
10
257.100 
20
51.069 
11
257.060 
21
51.046
0
LINE
8
5
  6
CONTINUOUS
10
257.060 
20
51.046 
11
257.019 
21
51.024
0
LINE
8
5
  6
CONTINUOUS
10
257.019 
20
51.024 
11
256.978 
21
51.002
0
LINE
8
5
  6
CONTINUOUS
10
256.978 
20
51.002 
11
256.936 
21
50.981
0
LINE
8
5
  6
CONTINUOUS
10
256.936 
20
50.981 
11
256.894 
21
50.960
0
LINE
8
5
  6
CONTINUOUS
10
256.894 
20
50.960 
11
256.852 
21
50.940
0
LINE
8
5
  6
CONTINUOUS
10
256.852 
20
50.940 
11
256.809 
21
50.921
0
LINE
8
5
  6
CONTINUOUS
10
256.809 
20
50.921 
11
256.766 
21
50.902
0
LINE
8
5
  6
CONTINUOUS
10
256.766 
20
50.902 
11
256.723 
21
50.883
0
LINE
8
5
  6
CONTINUOUS
10
256.723 
20
50.883 
11
256.679 
21
50.866
0
LINE
8
5
  6
CONTINUOUS
10
256.679 
20
50.866 
11
256.635 
21
50.849
0
LINE
8
5
  6
CONTINUOUS
10
256.635 
20
50.849 
11
256.591 
21
50.832
0
LINE
8
5
  6
CONTINUOUS
10
256.591 
20
50.832 
11
256.546 
21
50.816
0
LINE
8
5
  6
CONTINUOUS
10
256.546 
20
50.816 
11
256.501 
21
50.801
0
LINE
8
5
  6
CONTINUOUS
10
256.501 
20
50.801 
11
256.455 
21
50.786
0
LINE
8
5
  6
CONTINUOUS
10
256.455 
20
50.786 
11
256.409 
21
50.772
0
LINE
8
5
  6
CONTINUOUS
10
256.409 
20
50.772 
11
256.363 
21
50.758
0
LINE
8
5
  6
CONTINUOUS
10
256.363 
20
50.758 
11
256.317 
21
50.745
0
LINE
8
5
  6
CONTINUOUS
10
256.317 
20
50.745 
11
256.270 
21
50.733
0
LINE
8
5
  6
CONTINUOUS
10
256.270 
20
50.733 
11
256.224 
21
50.721
0
LINE
8
5
  6
CONTINUOUS
10
256.224 
20
50.721 
11
256.176 
21
50.710
0
LINE
8
5
  6
CONTINUOUS
10
256.176 
20
50.710 
11
256.129 
21
50.700
0
LINE
8
5
  6
CONTINUOUS
10
256.129 
20
50.700 
11
256.081 
21
50.690
0
LINE
8
5
  6
CONTINUOUS
10
256.081 
20
50.690 
11
256.033 
21
50.681
0
LINE
8
5
  6
CONTINUOUS
10
256.033 
20
50.681 
11
255.985 
21
50.673
0
LINE
8
5
  6
CONTINUOUS
10
255.985 
20
50.673 
11
255.937 
21
50.665
0
LINE
8
5
  6
CONTINUOUS
10
255.937 
20
50.665 
11
255.888 
21
50.658
0
LINE
8
5
  6
CONTINUOUS
10
255.888 
20
50.658 
11
255.840 
21
50.651
0
LINE
8
5
  6
CONTINUOUS
10
255.840 
20
50.651 
11
255.791 
21
50.646
0
LINE
8
5
  6
CONTINUOUS
10
255.791 
20
50.646 
11
255.741 
21
50.640
0
LINE
8
5
  6
CONTINUOUS
10
255.741 
20
50.640 
11
255.692 
21
50.636
0
LINE
8
5
  6
CONTINUOUS
10
255.692 
20
50.636 
11
255.643 
21
50.632
0
LINE
8
5
  6
CONTINUOUS
10
255.643 
20
50.632 
11
255.593 
21
50.629
0
LINE
8
5
  6
CONTINUOUS
10
255.593 
20
50.629 
11
255.543 
21
50.627
0
LINE
8
5
  6
CONTINUOUS
10
255.543 
20
50.627 
11
255.493 
21
50.625
0
LINE
8
5
  6
CONTINUOUS
10
255.493 
20
50.625 
11
255.443 
21
50.624
0
LINE
8
5
  6
CONTINUOUS
10
255.443 
20
50.624 
11
255.393 
21
50.623
0
LINE
8
5
  6
CONTINUOUS
10
72.337 
20
50.600 
11
81.462 
21
50.647
0
LINE
8
5
  6
CONTINUOUS
10
333.805 
20
55.653 
11
333.856 
21
55.653
0
LINE
8
5
  6
CONTINUOUS
10
333.856 
20
55.653 
11
333.906 
21
55.652
0
LINE
8
5
  6
CONTINUOUS
10
333.906 
20
55.652 
11
333.956 
21
55.650
0
LINE
8
5
  6
CONTINUOUS
10
333.956 
20
55.650 
11
334.005 
21
55.648
0
LINE
8
5
  6
CONTINUOUS
10
334.005 
20
55.648 
11
334.055 
21
55.644
0
LINE
8
5
  6
CONTINUOUS
10
334.055 
20
55.644 
11
334.105 
21
55.641
0
LINE
8
5
  6
CONTINUOUS
10
334.105 
20
55.641 
11
334.154 
21
55.636
0
LINE
8
5
  6
CONTINUOUS
10
334.154 
20
55.636 
11
334.203 
21
55.631
0
LINE
8
5
  6
CONTINUOUS
10
334.203 
20
55.631 
11
334.252 
21
55.625
0
LINE
8
5
  6
CONTINUOUS
10
334.252 
20
55.625 
11
334.301 
21
55.619
0
LINE
8
5
  6
CONTINUOUS
10
334.301 
20
55.619 
11
334.349 
21
55.612
0
LINE
8
5
  6
CONTINUOUS
10
334.349 
20
55.612 
11
334.398 
21
55.604
0
LINE
8
5
  6
CONTINUOUS
10
334.398 
20
55.604 
11
334.446 
21
55.595
0
LINE
8
5
  6
CONTINUOUS
10
334.446 
20
55.595 
11
334.494 
21
55.586
0
LINE
8
5
  6
CONTINUOUS
10
334.494 
20
55.586 
11
334.541 
21
55.576
0
LINE
8
5
  6
CONTINUOUS
10
334.541 
20
55.576 
11
334.589 
21
55.566
0
LINE
8
5
  6
CONTINUOUS
10
334.589 
20
55.566 
11
334.636 
21
55.555
0
LINE
8
5
  6
CONTINUOUS
10
334.636 
20
55.555 
11
334.683 
21
55.543
0
LINE
8
5
  6
CONTINUOUS
10
334.683 
20
55.543 
11
334.730 
21
55.531
0
LINE
8
5
  6
CONTINUOUS
10
334.730 
20
55.531 
11
334.776 
21
55.518
0
LINE
8
5
  6
CONTINUOUS
10
334.776 
20
55.518 
11
334.822 
21
55.505
0
LINE
8
5
  6
CONTINUOUS
10
334.822 
20
55.505 
11
334.868 
21
55.490
0
LINE
8
5
  6
CONTINUOUS
10
334.868 
20
55.490 
11
334.913 
21
55.476
0
LINE
8
5
  6
CONTINUOUS
10
334.913 
20
55.476 
11
334.958 
21
55.460
0
LINE
8
5
  6
CONTINUOUS
10
334.958 
20
55.460 
11
335.003 
21
55.444
0
LINE
8
5
  6
CONTINUOUS
10
335.003 
20
55.444 
11
335.048 
21
55.428
0
LINE
8
5
  6
CONTINUOUS
10
335.048 
20
55.428 
11
335.092 
21
55.411
0
LINE
8
5
  6
CONTINUOUS
10
335.092 
20
55.411 
11
335.135 
21
55.393
0
LINE
8
5
  6
CONTINUOUS
10
335.135 
20
55.393 
11
335.179 
21
55.375
0
LINE
8
5
  6
CONTINUOUS
10
335.179 
20
55.375 
11
335.222 
21
55.356
0
LINE
8
5
  6
CONTINUOUS
10
335.222 
20
55.356 
11
335.265 
21
55.336
0
LINE
8
5
  6
CONTINUOUS
10
335.265 
20
55.336 
11
335.307 
21
55.316
0
LINE
8
5
  6
CONTINUOUS
10
335.307 
20
55.316 
11
335.349 
21
55.296
0
LINE
8
5
  6
CONTINUOUS
10
335.349 
20
55.296 
11
335.390 
21
55.274
0
LINE
8
5
  6
CONTINUOUS
10
335.390 
20
55.274 
11
335.431 
21
55.253
0
LINE
8
5
  6
CONTINUOUS
10
335.431 
20
55.253 
11
335.472 
21
55.230
0
LINE
8
5
  6
CONTINUOUS
10
335.472 
20
55.230 
11
335.512 
21
55.207
0
LINE
8
5
  6
CONTINUOUS
10
335.512 
20
55.207 
11
335.552 
21
55.184
0
LINE
8
5
  6
CONTINUOUS
10
335.552 
20
55.184 
11
335.591 
21
55.160
0
LINE
8
5
  6
CONTINUOUS
10
335.591 
20
55.160 
11
335.630 
21
55.135
0
LINE
8
5
  6
CONTINUOUS
10
335.630 
20
55.135 
11
335.669 
21
55.110
0
LINE
8
5
  6
CONTINUOUS
10
335.669 
20
55.110 
11
335.707 
21
55.085
0
LINE
8
5
  6
CONTINUOUS
10
335.707 
20
55.085 
11
335.744 
21
55.059
0
LINE
8
5
  6
CONTINUOUS
10
335.744 
20
55.059 
11
335.781 
21
55.032
0
LINE
8
5
  6
CONTINUOUS
10
335.781 
20
55.032 
11
335.818 
21
55.005
0
LINE
8
5
  6
CONTINUOUS
10
335.818 
20
55.005 
11
335.854 
21
54.977
0
LINE
8
5
  6
CONTINUOUS
10
335.854 
20
54.977 
11
335.889 
21
54.949
0
LINE
8
5
  6
CONTINUOUS
10
335.889 
20
54.949 
11
335.924 
21
54.920
0
LINE
8
5
  6
CONTINUOUS
10
335.924 
20
54.920 
11
335.959 
21
54.891
0
LINE
8
5
  6
CONTINUOUS
10
335.959 
20
54.891 
11
335.993 
21
54.861
0
LINE
8
5
  6
CONTINUOUS
10
335.993 
20
54.861 
11
336.026 
21
54.831
0
LINE
8
5
  6
CONTINUOUS
10
336.026 
20
54.831 
11
336.059 
21
54.801
0
LINE
8
5
  6
CONTINUOUS
10
336.059 
20
54.801 
11
336.091 
21
54.769
0
LINE
8
5
  6
CONTINUOUS
10
336.091 
20
54.769 
11
336.123 
21
54.738
0
LINE
8
5
  6
CONTINUOUS
10
336.123 
20
54.738 
11
336.154 
21
54.706
0
LINE
8
5
  6
CONTINUOUS
10
336.154 
20
54.706 
11
336.184 
21
54.673
0
LINE
8
5
  6
CONTINUOUS
10
336.184 
20
54.673 
11
336.214 
21
54.640
0
LINE
8
5
  6
CONTINUOUS
10
336.214 
20
54.640 
11
336.244 
21
54.606
0
LINE
8
5
  6
CONTINUOUS
10
336.244 
20
54.606 
11
336.272 
21
54.572
0
LINE
8
5
  6
CONTINUOUS
10
336.272 
20
54.572 
11
336.300 
21
54.538
0
LINE
8
5
  6
CONTINUOUS
10
336.300 
20
54.538 
11
336.328 
21
54.503
0
LINE
8
5
  6
CONTINUOUS
10
336.328 
20
54.503 
11
336.354 
21
54.468
0
LINE
8
5
  6
CONTINUOUS
10
336.354 
20
54.468 
11
336.381 
21
54.432
0
LINE
8
5
  6
CONTINUOUS
10
336.381 
20
54.432 
11
336.406 
21
54.396
0
LINE
8
5
  6
CONTINUOUS
10
336.406 
20
54.396 
11
336.431 
21
54.359
0
LINE
8
5
  6
CONTINUOUS
10
336.431 
20
54.359 
11
336.455 
21
54.322
0
LINE
8
5
  6
CONTINUOUS
10
336.455 
20
54.322 
11
336.478 
21
54.285
0
LINE
8
5
  6
CONTINUOUS
10
336.478 
20
54.285 
11
336.500 
21
54.248
0
LINE
8
5
  6
CONTINUOUS
10
336.500 
20
54.248 
11
336.522 
21
54.210
0
LINE
8
5
  6
CONTINUOUS
10
336.522 
20
54.210 
11
336.543 
21
54.172
0
LINE
8
5
  6
CONTINUOUS
10
336.543 
20
54.172 
11
336.563 
21
54.134
0
LINE
8
5
  6
CONTINUOUS
10
336.563 
20
54.134 
11
336.582 
21
54.096
0
LINE
8
5
  6
CONTINUOUS
10
336.582 
20
54.096 
11
336.601 
21
54.058
0
LINE
8
5
  6
CONTINUOUS
10
336.601 
20
54.058 
11
336.618 
21
54.019
0
LINE
8
5
  6
CONTINUOUS
10
336.618 
20
54.019 
11
336.635 
21
53.980
0
LINE
8
5
  6
CONTINUOUS
10
336.635 
20
53.980 
11
336.651 
21
53.941
0
LINE
8
5
  6
CONTINUOUS
10
336.651 
20
53.941 
11
336.667 
21
53.902
0
LINE
8
5
  6
CONTINUOUS
10
336.667 
20
53.902 
11
336.681 
21
53.863
0
LINE
8
5
  6
CONTINUOUS
10
336.681 
20
53.863 
11
336.695 
21
53.823
0
LINE
8
5
  6
CONTINUOUS
10
336.695 
20
53.823 
11
336.708 
21
53.784
0
LINE
8
5
  6
CONTINUOUS
10
336.708 
20
53.784 
11
336.720 
21
53.744
0
LINE
8
5
  6
CONTINUOUS
10
336.720 
20
53.744 
11
336.731 
21
53.704
0
LINE
8
5
  6
CONTINUOUS
10
336.731 
20
53.704 
11
336.742 
21
53.664
0
LINE
8
5
  6
CONTINUOUS
10
336.742 
20
53.664 
11
336.752 
21
53.624
0
LINE
8
5
  6
CONTINUOUS
10
336.752 
20
53.624 
11
336.761 
21
53.584
0
LINE
8
5
  6
CONTINUOUS
10
336.761 
20
53.584 
11
336.769 
21
53.544
0
LINE
8
5
  6
CONTINUOUS
10
336.769 
20
53.544 
11
336.777 
21
53.503
0
LINE
8
5
  6
CONTINUOUS
10
336.777 
20
53.503 
11
336.783 
21
53.463
0
LINE
8
5
  6
CONTINUOUS
10
336.783 
20
53.463 
11
336.789 
21
53.423
0
LINE
8
5
  6
CONTINUOUS
10
336.789 
20
53.423 
11
336.794 
21
53.382
0
LINE
8
5
  6
CONTINUOUS
10
336.794 
20
53.382 
11
336.799 
21
53.342
0
LINE
8
5
  6
CONTINUOUS
10
336.799 
20
53.342 
11
336.802 
21
53.301
0
LINE
8
5
  6
CONTINUOUS
10
336.802 
20
53.301 
11
336.805 
21
53.260
0
LINE
8
5
  6
CONTINUOUS
10
336.805 
20
53.260 
11
336.807 
21
53.220
0
LINE
8
5
  6
CONTINUOUS
10
336.807 
20
53.220 
11
336.808 
21
53.179
0
LINE
8
5
  6
CONTINUOUS
10
336.808 
20
53.179 
11
336.808 
21
53.138
0
LINE
8
5
  6
CONTINUOUS
10
336.808 
20
53.138 
11
336.808 
21
53.097
0
LINE
8
5
  6
CONTINUOUS
10
336.808 
20
53.097 
11
336.807 
21
53.057
0
LINE
8
5
  6
CONTINUOUS
10
336.807 
20
53.057 
11
336.805 
21
53.016
0
LINE
8
5
  6
CONTINUOUS
10
336.805 
20
53.016 
11
336.802 
21
52.975
0
LINE
8
5
  6
CONTINUOUS
10
336.802 
20
52.975 
11
336.799 
21
52.935
0
LINE
8
5
  6
CONTINUOUS
10
336.799 
20
52.935 
11
336.794 
21
52.894
0
LINE
8
5
  6
CONTINUOUS
10
336.794 
20
52.894 
11
336.789 
21
52.854
0
LINE
8
5
  6
CONTINUOUS
10
336.789 
20
52.854 
11
336.783 
21
52.813
0
LINE
8
5
  6
CONTINUOUS
10
336.783 
20
52.813 
11
336.777 
21
52.773
0
LINE
8
5
  6
CONTINUOUS
10
336.777 
20
52.773 
11
336.769 
21
52.732
0
LINE
8
5
  6
CONTINUOUS
10
336.769 
20
52.732 
11
336.761 
21
52.692
0
LINE
8
5
  6
CONTINUOUS
10
336.761 
20
52.692 
11
336.752 
21
52.652
0
LINE
8
5
  6
CONTINUOUS
10
336.752 
20
52.652 
11
336.742 
21
52.612
0
LINE
8
5
  6
CONTINUOUS
10
336.742 
20
52.612 
11
336.731 
21
52.572
0
LINE
8
5
  6
CONTINUOUS
10
336.731 
20
52.572 
11
336.720 
21
52.532
0
LINE
8
5
  6
CONTINUOUS
10
336.720 
20
52.532 
11
336.708 
21
52.492
0
LINE
8
5
  6
CONTINUOUS
10
336.708 
20
52.492 
11
336.695 
21
52.453
0
LINE
8
5
  6
CONTINUOUS
10
336.695 
20
52.453 
11
336.681 
21
52.413
0
LINE
8
5
  6
CONTINUOUS
10
336.681 
20
52.413 
11
336.667 
21
52.374
0
LINE
8
5
  6
CONTINUOUS
10
336.667 
20
52.374 
11
336.651 
21
52.335
0
LINE
8
5
  6
CONTINUOUS
10
336.651 
20
52.335 
11
336.635 
21
52.296
0
LINE
8
5
  6
CONTINUOUS
10
336.635 
20
52.296 
11
336.618 
21
52.257
0
LINE
8
5
  6
CONTINUOUS
10
336.618 
20
52.257 
11
336.601 
21
52.219
0
LINE
8
5
  6
CONTINUOUS
10
336.601 
20
52.219 
11
336.582 
21
52.180
0
LINE
8
5
  6
CONTINUOUS
10
336.582 
20
52.180 
11
336.563 
21
52.142
0
LINE
8
5
  6
CONTINUOUS
10
336.563 
20
52.142 
11
336.543 
21
52.104
0
LINE
8
5
  6
CONTINUOUS
10
336.543 
20
52.104 
11
336.522 
21
52.066
0
LINE
8
5
  6
CONTINUOUS
10
336.522 
20
52.066 
11
336.500 
21
52.029
0
LINE
8
5
  6
CONTINUOUS
10
336.500 
20
52.029 
11
336.478 
21
51.991
0
LINE
8
5
  6
CONTINUOUS
10
336.478 
20
51.991 
11
336.455 
21
51.954
0
LINE
8
5
  6
CONTINUOUS
10
336.455 
20
51.954 
11
336.431 
21
51.917
0
LINE
8
5
  6
CONTINUOUS
10
336.431 
20
51.917 
11
336.406 
21
51.881
0
LINE
8
5
  6
CONTINUOUS
10
336.406 
20
51.881 
11
336.381 
21
51.844
0
LINE
8
5
  6
CONTINUOUS
10
336.381 
20
51.844 
11
336.354 
21
51.809
0
LINE
8
5
  6
CONTINUOUS
10
336.354 
20
51.809 
11
336.328 
21
51.773
0
LINE
8
5
  6
CONTINUOUS
10
336.328 
20
51.773 
11
336.300 
21
51.738
0
LINE
8
5
  6
CONTINUOUS
10
336.300 
20
51.738 
11
336.272 
21
51.704
0
LINE
8
5
  6
CONTINUOUS
10
336.272 
20
51.704 
11
336.244 
21
51.670
0
LINE
8
5
  6
CONTINUOUS
10
336.244 
20
51.670 
11
336.214 
21
51.636
0
LINE
8
5
  6
CONTINUOUS
10
336.214 
20
51.636 
11
336.184 
21
51.603
0
LINE
8
5
  6
CONTINUOUS
10
336.184 
20
51.603 
11
336.154 
21
51.571
0
LINE
8
5
  6
CONTINUOUS
10
336.154 
20
51.571 
11
336.123 
21
51.539
0
LINE
8
5
  6
CONTINUOUS
10
336.123 
20
51.539 
11
336.091 
21
51.507
0
LINE
8
5
  6
CONTINUOUS
10
336.091 
20
51.507 
11
336.059 
21
51.476
0
LINE
8
5
  6
CONTINUOUS
10
336.059 
20
51.476 
11
336.026 
21
51.445
0
LINE
8
5
  6
CONTINUOUS
10
336.026 
20
51.445 
11
335.993 
21
51.415
0
LINE
8
5
  6
CONTINUOUS
10
335.993 
20
51.415 
11
335.959 
21
51.385
0
LINE
8
5
  6
CONTINUOUS
10
335.959 
20
51.385 
11
335.924 
21
51.356
0
LINE
8
5
  6
CONTINUOUS
10
335.924 
20
51.356 
11
335.889 
21
51.327
0
LINE
8
5
  6
CONTINUOUS
10
335.889 
20
51.327 
11
335.854 
21
51.299
0
LINE
8
5
  6
CONTINUOUS
10
335.854 
20
51.299 
11
335.818 
21
51.271
0
LINE
8
5
  6
CONTINUOUS
10
335.818 
20
51.271 
11
335.781 
21
51.244
0
LINE
8
5
  6
CONTINUOUS
10
335.781 
20
51.244 
11
335.744 
21
51.218
0
LINE
8
5
  6
CONTINUOUS
10
335.744 
20
51.218 
11
335.707 
21
51.192
0
LINE
8
5
  6
CONTINUOUS
10
335.707 
20
51.192 
11
335.669 
21
51.166
0
LINE
8
5
  6
CONTINUOUS
10
335.669 
20
51.166 
11
335.630 
21
51.141
0
LINE
8
5
  6
CONTINUOUS
10
335.630 
20
51.141 
11
335.591 
21
51.116
0
LINE
8
5
  6
CONTINUOUS
10
335.591 
20
51.116 
11
335.552 
21
51.092
0
LINE
8
5
  6
CONTINUOUS
10
335.552 
20
51.092 
11
335.512 
21
51.069
0
LINE
8
5
  6
CONTINUOUS
10
335.512 
20
51.069 
11
335.472 
21
51.046
0
LINE
8
5
  6
CONTINUOUS
10
335.472 
20
51.046 
11
335.431 
21
51.024
0
LINE
8
5
  6
CONTINUOUS
10
335.431 
20
51.024 
11
335.390 
21
51.002
0
LINE
8
5
  6
CONTINUOUS
10
335.390 
20
51.002 
11
335.349 
21
50.981
0
LINE
8
5
  6
CONTINUOUS
10
335.349 
20
50.981 
11
335.307 
21
50.960
0
LINE
8
5
  6
CONTINUOUS
10
335.307 
20
50.960 
11
335.265 
21
50.940
0
LINE
8
5
  6
CONTINUOUS
10
335.265 
20
50.940 
11
335.222 
21
50.921
0
LINE
8
5
  6
CONTINUOUS
10
335.222 
20
50.921 
11
335.179 
21
50.902
0
LINE
8
5
  6
CONTINUOUS
10
335.179 
20
50.902 
11
335.135 
21
50.883
0
LINE
8
5
  6
CONTINUOUS
10
335.135 
20
50.883 
11
335.092 
21
50.866
0
LINE
8
5
  6
CONTINUOUS
10
335.092 
20
50.866 
11
335.048 
21
50.849
0
LINE
8
5
  6
CONTINUOUS
10
335.048 
20
50.849 
11
335.003 
21
50.832
0
LINE
8
5
  6
CONTINUOUS
10
335.003 
20
50.832 
11
334.958 
21
50.816
0
LINE
8
5
  6
CONTINUOUS
10
334.958 
20
50.816 
11
334.913 
21
50.801
0
LINE
8
5
  6
CONTINUOUS
10
334.913 
20
50.801 
11
334.868 
21
50.786
0
LINE
8
5
  6
CONTINUOUS
10
334.868 
20
50.786 
11
334.822 
21
50.772
0
LINE
8
5
  6
CONTINUOUS
10
334.822 
20
50.772 
11
334.776 
21
50.758
0
LINE
8
5
  6
CONTINUOUS
10
334.776 
20
50.758 
11
334.730 
21
50.745
0
LINE
8
5
  6
CONTINUOUS
10
334.730 
20
50.745 
11
334.683 
21
50.733
0
LINE
8
5
  6
CONTINUOUS
10
334.683 
20
50.733 
11
334.636 
21
50.721
0
LINE
8
5
  6
CONTINUOUS
10
334.636 
20
50.721 
11
334.589 
21
50.710
0
LINE
8
5
  6
CONTINUOUS
10
334.589 
20
50.710 
11
334.541 
21
50.700
0
LINE
8
5
  6
CONTINUOUS
10
334.541 
20
50.700 
11
334.494 
21
50.690
0
LINE
8
5
  6
CONTINUOUS
10
334.494 
20
50.690 
11
334.446 
21
50.681
0
LINE
8
5
  6
CONTINUOUS
10
334.446 
20
50.681 
11
334.398 
21
50.673
0
LINE
8
5
  6
CONTINUOUS
10
334.398 
20
50.673 
11
334.349 
21
50.665
0
LINE
8
5
  6
CONTINUOUS
10
334.349 
20
50.665 
11
334.301 
21
50.658
0
LINE
8
5
  6
CONTINUOUS
10
334.301 
20
50.658 
11
334.252 
21
50.651
0
LINE
8
5
  6
CONTINUOUS
10
334.252 
20
50.651 
11
334.203 
21
50.645
0
LINE
8
5
  6
CONTINUOUS
10
334.203 
20
50.645 
11
334.154 
21
50.640
0
LINE
8
5
  6
CONTINUOUS
10
334.154 
20
50.640 
11
334.105 
21
50.636
0
LINE
8
5
  6
CONTINUOUS
10
334.105 
20
50.636 
11
334.055 
21
50.632
0
LINE
8
5
  6
CONTINUOUS
10
334.055 
20
50.632 
11
334.005 
21
50.629
0
LINE
8
5
  6
CONTINUOUS
10
334.005 
20
50.629 
11
333.956 
21
50.627
0
LINE
8
5
  6
CONTINUOUS
10
333.956 
20
50.627 
11
333.906 
21
50.625
0
LINE
8
5
  6
CONTINUOUS
10
333.906 
20
50.625 
11
333.856 
21
50.624
0
LINE
8
5
  6
CONTINUOUS
10
333.856 
20
50.624 
11
333.805 
21
50.623
0
LINE
8
5
  6
CONTINUOUS
10
255.391 
20
50.623 
11
246.266 
21
50.600
0
LINE
8
5
  6
CONTINUOUS
10
255.392 
20
55.653 
11
246.267 
21
55.606
0
LINE
8
5
  6
CONTINUOUS
10
333.804 
20
50.623 
11
324.678 
21
50.600
0
LINE
8
5
  6
CONTINUOUS
10
333.804 
20
55.653 
11
324.679 
21
55.606
0
LINE
8
5
  6
CONTINUOUS
10
114.598 
20
13.700 
11
114.598 
21
13.664
0
LINE
8
5
  6
CONTINUOUS
10
114.598 
20
13.664 
11
114.599 
21
13.628
0
LINE
8
5
  6
CONTINUOUS
10
114.599 
20
13.628 
11
114.600 
21
13.592
0
LINE
8
5
  6
CONTINUOUS
10
114.600 
20
13.592 
11
114.602 
21
13.555
0
LINE
8
5
  6
CONTINUOUS
10
114.602 
20
13.555 
11
114.604 
21
13.519
0
LINE
8
5
  6
CONTINUOUS
10
114.604 
20
13.519 
11
114.606 
21
13.483
0
LINE
8
5
  6
CONTINUOUS
10
114.606 
20
13.483 
11
114.609 
21
13.447
0
LINE
8
5
  6
CONTINUOUS
10
114.609 
20
13.447 
11
114.613 
21
13.412
0
LINE
8
5
  6
CONTINUOUS
10
114.613 
20
13.412 
11
114.617 
21
13.376
0
LINE
8
5
  6
CONTINUOUS
10
114.617 
20
13.376 
11
114.621 
21
13.340
0
LINE
8
5
  6
CONTINUOUS
10
114.621 
20
13.340 
11
114.626 
21
13.304
0
LINE
8
5
  6
CONTINUOUS
10
114.626 
20
13.304 
11
114.631 
21
13.269
0
LINE
8
5
  6
CONTINUOUS
10
114.631 
20
13.269 
11
114.637 
21
13.233
0
LINE
8
5
  6
CONTINUOUS
10
114.637 
20
13.233 
11
114.643 
21
13.198
0
LINE
8
5
  6
CONTINUOUS
10
114.643 
20
13.198 
11
114.649 
21
13.163
0
LINE
8
5
  6
CONTINUOUS
10
114.649 
20
13.163 
11
114.656 
21
13.128
0
LINE
8
5
  6
CONTINUOUS
10
114.656 
20
13.128 
11
114.664 
21
13.093
0
LINE
8
5
  6
CONTINUOUS
10
114.664 
20
13.093 
11
114.672 
21
13.058
0
LINE
8
5
  6
CONTINUOUS
10
114.672 
20
13.058 
11
114.680 
21
13.023
0
LINE
8
5
  6
CONTINUOUS
10
114.680 
20
13.023 
11
114.689 
21
12.988
0
LINE
8
5
  6
CONTINUOUS
10
114.689 
20
12.988 
11
114.698 
21
12.953
0
LINE
8
5
  6
CONTINUOUS
10
114.698 
20
12.953 
11
114.707 
21
12.919
0
LINE
8
5
  6
CONTINUOUS
10
114.707 
20
12.919 
11
114.717 
21
12.885
0
LINE
8
5
  6
CONTINUOUS
10
114.717 
20
12.885 
11
114.728 
21
12.850
0
LINE
8
5
  6
CONTINUOUS
10
114.728 
20
12.850 
11
114.739 
21
12.816
0
LINE
8
5
  6
CONTINUOUS
10
114.739 
20
12.816 
11
114.750 
21
12.782
0
LINE
8
5
  6
CONTINUOUS
10
114.750 
20
12.782 
11
114.762 
21
12.749
0
LINE
8
5
  6
CONTINUOUS
10
114.762 
20
12.749 
11
114.774 
21
12.715
0
LINE
8
5
  6
CONTINUOUS
10
114.774 
20
12.715 
11
114.786 
21
12.682
0
LINE
8
5
  6
CONTINUOUS
10
114.786 
20
12.682 
11
114.799 
21
12.648
0
LINE
8
5
  6
CONTINUOUS
10
114.799 
20
12.648 
11
114.813 
21
12.615
0
LINE
8
5
  6
CONTINUOUS
10
114.813 
20
12.615 
11
114.827 
21
12.582
0
LINE
8
5
  6
CONTINUOUS
10
114.827 
20
12.582 
11
114.841 
21
12.549
0
LINE
8
5
  6
CONTINUOUS
10
114.841 
20
12.549 
11
114.855 
21
12.516
0
LINE
8
5
  6
CONTINUOUS
10
114.855 
20
12.516 
11
114.870 
21
12.484
0
LINE
8
5
  6
CONTINUOUS
10
114.870 
20
12.484 
11
114.886 
21
12.452
0
LINE
8
5
  6
CONTINUOUS
10
114.886 
20
12.452 
11
114.902 
21
12.420
0
LINE
8
5
  6
CONTINUOUS
10
114.902 
20
12.420 
11
114.918 
21
12.388
0
LINE
8
5
  6
CONTINUOUS
10
114.918 
20
12.388 
11
114.935 
21
12.356
0
LINE
8
5
  6
CONTINUOUS
10
114.935 
20
12.356 
11
114.952 
21
12.324
0
LINE
8
5
  6
CONTINUOUS
10
114.952 
20
12.324 
11
114.969 
21
12.293
0
LINE
8
5
  6
CONTINUOUS
10
114.969 
20
12.293 
11
114.987 
21
12.262
0
LINE
8
5
  6
CONTINUOUS
10
114.987 
20
12.262 
11
115.005 
21
12.231
0
LINE
8
5
  6
CONTINUOUS
10
115.005 
20
12.231 
11
115.024 
21
12.200
0
LINE
8
5
  6
CONTINUOUS
10
115.024 
20
12.200 
11
115.043 
21
12.169
0
LINE
8
5
  6
CONTINUOUS
10
115.043 
20
12.169 
11
115.062 
21
12.139
0
LINE
8
5
  6
CONTINUOUS
10
115.062 
20
12.139 
11
115.082 
21
12.109
0
LINE
8
5
  6
CONTINUOUS
10
115.082 
20
12.109 
11
115.102 
21
12.079
0
LINE
8
5
  6
CONTINUOUS
10
115.102 
20
12.079 
11
115.123 
21
12.049
0
LINE
8
5
  6
CONTINUOUS
10
115.123 
20
12.049 
11
115.144 
21
12.020
0
LINE
8
5
  6
CONTINUOUS
10
115.144 
20
12.020 
11
115.165 
21
11.991
0
LINE
8
5
  6
CONTINUOUS
10
115.165 
20
11.991 
11
115.187 
21
11.962
0
LINE
8
5
  6
CONTINUOUS
10
115.187 
20
11.962 
11
115.209 
21
11.933
0
LINE
8
5
  6
CONTINUOUS
10
115.209 
20
11.933 
11
115.232 
21
11.904
0
LINE
8
5
  6
CONTINUOUS
10
115.232 
20
11.904 
11
115.254 
21
11.876
0
LINE
8
5
  6
CONTINUOUS
10
115.254 
20
11.876 
11
115.278 
21
11.848
0
LINE
8
5
  6
CONTINUOUS
10
115.278 
20
11.848 
11
115.301 
21
11.821
0
LINE
8
5
  6
CONTINUOUS
10
115.301 
20
11.821 
11
115.325 
21
11.793
0
LINE
8
5
  6
CONTINUOUS
10
115.325 
20
11.793 
11
115.350 
21
11.766
0
LINE
8
5
  6
CONTINUOUS
10
115.350 
20
11.766 
11
115.374 
21
11.739
0
LINE
8
5
  6
CONTINUOUS
10
115.374 
20
11.739 
11
115.400 
21
11.712
0
LINE
8
5
  6
CONTINUOUS
10
115.400 
20
11.712 
11
115.425 
21
11.686
0
LINE
8
5
  6
CONTINUOUS
10
115.425 
20
11.686 
11
115.451 
21
11.660
0
LINE
8
5
  6
CONTINUOUS
10
115.451 
20
11.660 
11
115.477 
21
11.634
0
LINE
8
5
  6
CONTINUOUS
10
115.477 
20
11.634 
11
115.504 
21
11.608
0
LINE
8
5
  6
CONTINUOUS
10
115.504 
20
11.608 
11
115.530 
21
11.583
0
LINE
8
5
  6
CONTINUOUS
10
115.530 
20
11.583 
11
115.557 
21
11.558
0
LINE
8
5
  6
CONTINUOUS
10
115.557 
20
11.558 
11
115.585 
21
11.534
0
LINE
8
5
  6
CONTINUOUS
10
115.585 
20
11.534 
11
115.612 
21
11.510
0
LINE
8
5
  6
CONTINUOUS
10
115.612 
20
11.510 
11
115.640 
21
11.486
0
LINE
8
5
  6
CONTINUOUS
10
115.640 
20
11.486 
11
115.669 
21
11.463
0
LINE
8
5
  6
CONTINUOUS
10
115.669 
20
11.463 
11
115.697 
21
11.440
0
LINE
8
5
  6
CONTINUOUS
10
115.697 
20
11.440 
11
115.726 
21
11.417
0
LINE
8
5
  6
CONTINUOUS
10
115.726 
20
11.417 
11
115.755 
21
11.395
0
LINE
8
5
  6
CONTINUOUS
10
115.755 
20
11.395 
11
115.784 
21
11.373
0
LINE
8
5
  6
CONTINUOUS
10
115.784 
20
11.373 
11
115.814 
21
11.351
0
LINE
8
5
  6
CONTINUOUS
10
115.814 
20
11.351 
11
115.843 
21
11.330
0
LINE
8
5
  6
CONTINUOUS
10
115.843 
20
11.330 
11
115.873 
21
11.309
0
LINE
8
5
  6
CONTINUOUS
10
115.873 
20
11.309 
11
115.904 
21
11.289
0
LINE
8
5
  6
CONTINUOUS
10
115.904 
20
11.289 
11
115.934 
21
11.269
0
LINE
8
5
  6
CONTINUOUS
10
115.934 
20
11.269 
11
115.965 
21
11.249
0
LINE
8
5
  6
CONTINUOUS
10
115.965 
20
11.249 
11
115.996 
21
11.230
0
LINE
8
5
  6
CONTINUOUS
10
115.996 
20
11.230 
11
116.027 
21
11.211
0
LINE
8
5
  6
CONTINUOUS
10
116.027 
20
11.211 
11
116.058 
21
11.192
0
LINE
8
5
  6
CONTINUOUS
10
116.058 
20
11.192 
11
116.090 
21
11.174
0
LINE
8
5
  6
CONTINUOUS
10
116.090 
20
11.174 
11
116.122 
21
11.157
0
LINE
8
5
  6
CONTINUOUS
10
116.122 
20
11.157 
11
116.154 
21
11.139
0
LINE
8
5
  6
CONTINUOUS
10
116.154 
20
11.139 
11
116.186 
21
11.122
0
LINE
8
5
  6
CONTINUOUS
10
116.186 
20
11.122 
11
116.218 
21
11.106
0
LINE
8
5
  6
CONTINUOUS
10
116.218 
20
11.106 
11
116.251 
21
11.089
0
LINE
8
5
  6
CONTINUOUS
10
116.251 
20
11.089 
11
116.284 
21
11.074
0
LINE
8
5
  6
CONTINUOUS
10
116.284 
20
11.074 
11
116.317 
21
11.058
0
LINE
8
5
  6
CONTINUOUS
10
116.317 
20
11.058 
11
116.350 
21
11.043
0
LINE
8
5
  6
CONTINUOUS
10
116.350 
20
11.043 
11
116.383 
21
11.028
0
LINE
8
5
  6
CONTINUOUS
10
116.383 
20
11.028 
11
116.417 
21
11.014
0
LINE
8
5
  6
CONTINUOUS
10
116.417 
20
11.014 
11
116.450 
21
11.000
0
LINE
8
5
  6
CONTINUOUS
10
116.450 
20
11.000 
11
116.484 
21
10.987
0
LINE
8
5
  6
CONTINUOUS
10
116.484 
20
10.987 
11
116.518 
21
10.974
0
LINE
8
5
  6
CONTINUOUS
10
116.518 
20
10.974 
11
116.553 
21
10.961
0
LINE
8
5
  6
CONTINUOUS
10
116.553 
20
10.961 
11
116.587 
21
10.949
0
LINE
8
5
  6
CONTINUOUS
10
116.587 
20
10.949 
11
116.622 
21
10.937
0
LINE
8
5
  6
CONTINUOUS
10
116.622 
20
10.937 
11
116.656 
21
10.926
0
LINE
8
5
  6
CONTINUOUS
10
116.656 
20
10.926 
11
116.691 
21
10.915
0
LINE
8
5
  6
CONTINUOUS
10
116.691 
20
10.915 
11
116.726 
21
10.904
0
LINE
8
5
  6
CONTINUOUS
10
116.726 
20
10.904 
11
116.761 
21
10.894
0
LINE
8
5
  6
CONTINUOUS
10
116.761 
20
10.894 
11
116.796 
21
10.884
0
LINE
8
5
  6
CONTINUOUS
10
116.796 
20
10.884 
11
116.832 
21
10.875
0
LINE
8
5
  6
CONTINUOUS
10
116.832 
20
10.875 
11
116.867 
21
10.866
0
LINE
8
5
  6
CONTINUOUS
10
116.867 
20
10.866 
11
116.903 
21
10.858
0
LINE
8
5
  6
CONTINUOUS
10
116.903 
20
10.858 
11
116.939 
21
10.849
0
LINE
8
5
  6
CONTINUOUS
10
116.939 
20
10.849 
11
116.975 
21
10.842
0
LINE
8
5
  6
CONTINUOUS
10
116.975 
20
10.842 
11
117.011 
21
10.835
0
LINE
8
5
  6
CONTINUOUS
10
117.011 
20
10.835 
11
117.047 
21
10.828
0
LINE
8
5
  6
CONTINUOUS
10
117.047 
20
10.828 
11
117.083 
21
10.821
0
LINE
8
5
  6
CONTINUOUS
10
117.083 
20
10.821 
11
117.119 
21
10.815
0
LINE
8
5
  6
CONTINUOUS
10
117.119 
20
10.815 
11
117.156 
21
10.810
0
LINE
8
5
  6
CONTINUOUS
10
117.156 
20
10.810 
11
117.192 
21
10.805
0
LINE
8
5
  6
CONTINUOUS
10
117.192 
20
10.805 
11
117.229 
21
10.800
0
LINE
8
5
  6
CONTINUOUS
10
117.229 
20
10.800 
11
117.265 
21
10.796
0
LINE
8
5
  6
CONTINUOUS
10
117.265 
20
10.796 
11
117.302 
21
10.792
0
LINE
8
5
  6
CONTINUOUS
10
117.302 
20
10.792 
11
117.339 
21
10.789
0
LINE
8
5
  6
CONTINUOUS
10
117.339 
20
10.789 
11
117.376 
21
10.786
0
LINE
8
5
  6
CONTINUOUS
10
117.376 
20
10.786 
11
117.413 
21
10.784
0
LINE
8
5
  6
CONTINUOUS
10
117.413 
20
10.784 
11
117.450 
21
10.782
0
LINE
8
5
  6
CONTINUOUS
10
117.450 
20
10.782 
11
117.487 
21
10.780
0
LINE
8
5
  6
CONTINUOUS
10
117.487 
20
10.780 
11
117.524 
21
10.779
0
LINE
8
5
  6
CONTINUOUS
10
117.524 
20
10.779 
11
117.561 
21
10.778
0
LINE
8
5
  6
CONTINUOUS
10
117.561 
20
10.778 
11
117.599 
21
10.778
0
LINE
8
5
  6
CONTINUOUS
10
114.598 
20
13.700 
11
114.598 
21
18.461
0
LINE
8
5
  6
CONTINUOUS
10
114.598 
20
21.461 
11
114.598 
21
29.319
0
LINE
8
5
  6
CONTINUOUS
10
114.597 
20
32.319 
11
114.597 
21
36.587
0
LINE
8
5
  6
CONTINUOUS
10
127.988 
20
10.778 
11
117.599 
21
10.778
0
LINE
8
5
  6
CONTINUOUS
10
14.141 
20
-11.859 
11
30.196 
21
-16.161
0
LINE
8
5
  6
CONTINUOUS
10
30.196 
20
-16.161 
11
30.208 
21
-16.164
0
LINE
8
5
  6
CONTINUOUS
10
30.208 
20
-16.164 
11
30.220 
21
-16.167
0
LINE
8
5
  6
CONTINUOUS
10
30.220 
20
-16.167 
11
30.232 
21
-16.170
0
LINE
8
5
  6
CONTINUOUS
10
30.232 
20
-16.170 
11
30.244 
21
-16.173
0
LINE
8
5
  6
CONTINUOUS
10
30.244 
20
-16.173 
11
30.256 
21
-16.176
0
LINE
8
5
  6
CONTINUOUS
10
30.256 
20
-16.176 
11
30.268 
21
-16.179
0
LINE
8
5
  6
CONTINUOUS
10
30.268 
20
-16.179 
11
30.279 
21
-16.182
0
LINE
8
5
  6
CONTINUOUS
10
30.279 
20
-16.182 
11
30.291 
21
-16.185
0
LINE
8
5
  6
CONTINUOUS
10
30.291 
20
-16.185 
11
30.303 
21
-16.188
0
LINE
8
5
  6
CONTINUOUS
10
30.303 
20
-16.188 
11
30.315 
21
-16.190
0
LINE
8
5
  6
CONTINUOUS
10
30.315 
20
-16.190 
11
30.327 
21
-16.193
0
LINE
8
5
  6
CONTINUOUS
10
30.327 
20
-16.193 
11
30.339 
21
-16.196
0
LINE
8
5
  6
CONTINUOUS
10
30.339 
20
-16.196 
11
30.351 
21
-16.198
0
LINE
8
5
  6
CONTINUOUS
10
30.351 
20
-16.198 
11
30.363 
21
-16.201
0
LINE
8
5
  6
CONTINUOUS
10
30.363 
20
-16.201 
11
30.375 
21
-16.203
0
LINE
8
5
  6
CONTINUOUS
10
30.375 
20
-16.203 
11
30.387 
21
-16.206
0
LINE
8
5
  6
CONTINUOUS
10
30.387 
20
-16.206 
11
30.399 
21
-16.208
0
LINE
8
5
  6
CONTINUOUS
10
30.399 
20
-16.208 
11
30.411 
21
-16.210
0
LINE
8
5
  6
CONTINUOUS
10
30.411 
20
-16.210 
11
30.424 
21
-16.212
0
LINE
8
5
  6
CONTINUOUS
10
30.424 
20
-16.212 
11
30.436 
21
-16.215
0
LINE
8
5
  6
CONTINUOUS
10
30.436 
20
-16.215 
11
30.448 
21
-16.217
0
LINE
8
5
  6
CONTINUOUS
10
30.448 
20
-16.217 
11
30.460 
21
-16.219
0
LINE
8
5
  6
CONTINUOUS
10
30.460 
20
-16.219 
11
30.472 
21
-16.221
0
LINE
8
5
  6
CONTINUOUS
10
30.472 
20
-16.221 
11
30.484 
21
-16.223
0
LINE
8
5
  6
CONTINUOUS
10
30.484 
20
-16.223 
11
30.496 
21
-16.225
0
LINE
8
5
  6
CONTINUOUS
10
30.496 
20
-16.225 
11
30.508 
21
-16.227
0
LINE
8
5
  6
CONTINUOUS
10
30.508 
20
-16.227 
11
30.520 
21
-16.229
0
LINE
8
5
  6
CONTINUOUS
10
30.520 
20
-16.229 
11
30.532 
21
-16.231
0
LINE
8
5
  6
CONTINUOUS
10
30.532 
20
-16.231 
11
30.545 
21
-16.232
0
LINE
8
5
  6
CONTINUOUS
10
30.545 
20
-16.232 
11
30.557 
21
-16.234
0
LINE
8
5
  6
CONTINUOUS
10
30.557 
20
-16.234 
11
30.569 
21
-16.236
0
LINE
8
5
  6
CONTINUOUS
10
30.569 
20
-16.236 
11
30.581 
21
-16.237
0
LINE
8
5
  6
CONTINUOUS
10
30.581 
20
-16.237 
11
30.593 
21
-16.239
0
LINE
8
5
  6
CONTINUOUS
10
30.593 
20
-16.239 
11
30.605 
21
-16.241
0
LINE
8
5
  6
CONTINUOUS
10
30.605 
20
-16.241 
11
30.618 
21
-16.242
0
LINE
8
5
  6
CONTINUOUS
10
30.618 
20
-16.242 
11
30.630 
21
-16.243
0
LINE
8
5
  6
CONTINUOUS
10
30.630 
20
-16.243 
11
30.642 
21
-16.245
0
LINE
8
5
  6
CONTINUOUS
10
30.642 
20
-16.245 
11
30.654 
21
-16.246
0
LINE
8
5
  6
CONTINUOUS
10
30.654 
20
-16.246 
11
30.666 
21
-16.247
0
LINE
8
5
  6
CONTINUOUS
10
30.666 
20
-16.247 
11
30.678 
21
-16.249
0
LINE
8
5
  6
CONTINUOUS
10
30.678 
20
-16.249 
11
30.691 
21
-16.250
0
LINE
8
5
  6
CONTINUOUS
10
30.691 
20
-16.250 
11
30.703 
21
-16.251
0
LINE
8
5
  6
CONTINUOUS
10
30.703 
20
-16.251 
11
30.715 
21
-16.252
0
LINE
8
5
  6
CONTINUOUS
10
30.715 
20
-16.252 
11
30.727 
21
-16.253
0
LINE
8
5
  6
CONTINUOUS
10
30.727 
20
-16.253 
11
30.740 
21
-16.254
0
LINE
8
5
  6
CONTINUOUS
10
30.740 
20
-16.254 
11
30.752 
21
-16.255
0
LINE
8
5
  6
CONTINUOUS
10
30.752 
20
-16.255 
11
30.764 
21
-16.256
0
LINE
8
5
  6
CONTINUOUS
10
30.764 
20
-16.256 
11
30.776 
21
-16.257
0
LINE
8
5
  6
CONTINUOUS
10
30.776 
20
-16.257 
11
30.789 
21
-16.257
0
LINE
8
5
  6
CONTINUOUS
10
30.789 
20
-16.257 
11
30.801 
21
-16.258
0
LINE
8
5
  6
CONTINUOUS
10
30.801 
20
-16.258 
11
30.813 
21
-16.259
0
LINE
8
5
  6
CONTINUOUS
10
30.813 
20
-16.259 
11
30.825 
21
-16.260
0
LINE
8
5
  6
CONTINUOUS
10
30.825 
20
-16.260 
11
30.838 
21
-16.260
0
LINE
8
5
  6
CONTINUOUS
10
30.838 
20
-16.260 
11
30.850 
21
-16.261
0
LINE
8
5
  6
CONTINUOUS
10
30.850 
20
-16.261 
11
30.862 
21
-16.261
0
LINE
8
5
  6
CONTINUOUS
10
30.862 
20
-16.261 
11
30.874 
21
-16.262
0
LINE
8
5
  6
CONTINUOUS
10
30.874 
20
-16.262 
11
30.887 
21
-16.262
0
LINE
8
5
  6
CONTINUOUS
10
30.887 
20
-16.262 
11
30.899 
21
-16.262
0
LINE
8
5
  6
CONTINUOUS
10
30.899 
20
-16.262 
11
30.911 
21
-16.263
0
LINE
8
5
  6
CONTINUOUS
10
30.911 
20
-16.263 
11
30.923 
21
-16.263
0
LINE
8
5
  6
CONTINUOUS
10
30.923 
20
-16.263 
11
30.936 
21
-16.263
0
LINE
8
5
  6
CONTINUOUS
10
30.936 
20
-16.263 
11
30.948 
21
-16.263
0
LINE
8
5
  6
CONTINUOUS
10
30.948 
20
-16.263 
11
30.960 
21
-16.263
0
LINE
8
5
  6
CONTINUOUS
10
30.960 
20
-16.263 
11
30.973 
21
-16.263
0
LINE
8
5
  6
CONTINUOUS
10
30.973 
20
-16.263 
11
373.559 
21
-16.263
0
LINE
8
5
  6
CONTINUOUS
10
373.559 
20
-16.263 
11
373.559 
21
-18.663
0
LINE
8
5
  6
CONTINUOUS
10
374.559 
20
-19.663 
11
382.559 
21
-19.663
0
LINE
8
5
  6
CONTINUOUS
10
383.559 
20
-18.663 
11
383.559 
21
7.337
0
LINE
8
5
  6
CONTINUOUS
10
382.559 
20
8.337 
11
374.559 
21
8.337
0
LINE
8
5
  6
CONTINUOUS
10
373.559 
20
7.337 
11
373.559 
21
4.937
0
LINE
8
5
  6
CONTINUOUS
10
373.559 
20
4.937 
11
30.973 
21
4.937
0
LINE
8
5
  6
CONTINUOUS
10
30.973 
20
4.937 
11
30.960 
21
4.937
0
LINE
8
5
  6
CONTINUOUS
10
30.960 
20
4.937 
11
30.948 
21
4.937
0
LINE
8
5
  6
CONTINUOUS
10
30.948 
20
4.937 
11
30.936 
21
4.937
0
LINE
8
5
  6
CONTINUOUS
10
30.936 
20
4.937 
11
30.923 
21
4.936
0
LINE
8
5
  6
CONTINUOUS
10
30.923 
20
4.936 
11
30.911 
21
4.936
0
LINE
8
5
  6
CONTINUOUS
10
30.911 
20
4.936 
11
30.899 
21
4.936
0
LINE
8
5
  6
CONTINUOUS
10
30.899 
20
4.936 
11
30.887 
21
4.936
0
LINE
8
5
  6
CONTINUOUS
10
30.887 
20
4.936 
11
30.874 
21
4.935
0
LINE
8
5
  6
CONTINUOUS
10
30.874 
20
4.935 
11
30.862 
21
4.935
0
LINE
8
5
  6
CONTINUOUS
10
30.862 
20
4.935 
11
30.850 
21
4.934
0
LINE
8
5
  6
CONTINUOUS
10
30.850 
20
4.934 
11
30.838 
21
4.934
0
LINE
8
5
  6
CONTINUOUS
10
30.838 
20
4.934 
11
30.825 
21
4.933
0
LINE
8
5
  6
CONTINUOUS
10
30.825 
20
4.933 
11
30.813 
21
4.933
0
LINE
8
5
  6
CONTINUOUS
10
30.813 
20
4.933 
11
30.801 
21
4.932
0
LINE
8
5
  6
CONTINUOUS
10
30.801 
20
4.932 
11
30.789 
21
4.931
0
LINE
8
5
  6
CONTINUOUS
10
30.789 
20
4.931 
11
30.776 
21
4.930
0
LINE
8
5
  6
CONTINUOUS
10
30.776 
20
4.930 
11
30.764 
21
4.930
0
LINE
8
5
  6
CONTINUOUS
10
30.764 
20
4.930 
11
30.752 
21
4.929
0
LINE
8
5
  6
CONTINUOUS
10
30.752 
20
4.929 
11
30.740 
21
4.928
0
LINE
8
5
  6
CONTINUOUS
10
30.740 
20
4.928 
11
30.727 
21
4.927
0
LINE
8
5
  6
CONTINUOUS
10
30.727 
20
4.927 
11
30.715 
21
4.926
0
LINE
8
5
  6
CONTINUOUS
10
30.715 
20
4.926 
11
30.703 
21
4.925
0
LINE
8
5
  6
CONTINUOUS
10
30.703 
20
4.925 
11
30.691 
21
4.924
0
LINE
8
5
  6
CONTINUOUS
10
30.691 
20
4.924 
11
30.678 
21
4.922
0
LINE
8
5
  6
CONTINUOUS
10
30.678 
20
4.922 
11
30.666 
21
4.921
0
LINE
8
5
  6
CONTINUOUS
10
30.666 
20
4.921 
11
30.654 
21
4.920
0
LINE
8
5
  6
CONTINUOUS
10
30.654 
20
4.920 
11
30.642 
21
4.919
0
LINE
8
5
  6
CONTINUOUS
10
30.642 
20
4.919 
11
30.630 
21
4.917
0
LINE
8
5
  6
CONTINUOUS
10
30.630 
20
4.917 
11
30.618 
21
4.916
0
LINE
8
5
  6
CONTINUOUS
10
30.618 
20
4.916 
11
30.605 
21
4.914
0
LINE
8
5
  6
CONTINUOUS
10
30.605 
20
4.914 
11
30.593 
21
4.913
0
LINE
8
5
  6
CONTINUOUS
10
30.593 
20
4.913 
11
30.581 
21
4.911
0
LINE
8
5
  6
CONTINUOUS
10
30.581 
20
4.911 
11
30.569 
21
4.910
0
LINE
8
5
  6
CONTINUOUS
10
30.569 
20
4.910 
11
30.557 
21
4.908
0
LINE
8
5
  6
CONTINUOUS
10
30.557 
20
4.908 
11
30.545 
21
4.906
0
LINE
8
5
  6
CONTINUOUS
10
30.545 
20
4.906 
11
30.532 
21
4.904
0
LINE
8
5
  6
CONTINUOUS
10
30.532 
20
4.904 
11
30.520 
21
4.903
0
LINE
8
5
  6
CONTINUOUS
10
30.520 
20
4.903 
11
30.508 
21
4.901
0
LINE
8
5
  6
CONTINUOUS
10
30.508 
20
4.901 
11
30.496 
21
4.899
0
LINE
8
5
  6
CONTINUOUS
10
30.496 
20
4.899 
11
30.484 
21
4.897
0
LINE
8
5
  6
CONTINUOUS
10
30.484 
20
4.897 
11
30.472 
21
4.895
0
LINE
8
5
  6
CONTINUOUS
10
30.472 
20
4.895 
11
30.460 
21
4.893
0
LINE
8
5
  6
CONTINUOUS
10
30.460 
20
4.893 
11
30.448 
21
4.891
0
LINE
8
5
  6
CONTINUOUS
10
30.448 
20
4.891 
11
30.436 
21
4.888
0
LINE
8
5
  6
CONTINUOUS
10
30.436 
20
4.888 
11
30.424 
21
4.886
0
LINE
8
5
  6
CONTINUOUS
10
30.424 
20
4.886 
11
30.411 
21
4.884
0
LINE
8
5
  6
CONTINUOUS
10
30.411 
20
4.884 
11
30.399 
21
4.882
0
LINE
8
5
  6
CONTINUOUS
10
30.399 
20
4.882 
11
30.387 
21
4.879
0
LINE
8
5
  6
CONTINUOUS
10
30.387 
20
4.879 
11
30.375 
21
4.877
0
LINE
8
5
  6
CONTINUOUS
10
30.375 
20
4.877 
11
30.363 
21
4.874
0
LINE
8
5
  6
CONTINUOUS
10
30.363 
20
4.874 
11
30.351 
21
4.872
0
LINE
8
5
  6
CONTINUOUS
10
30.351 
20
4.872 
11
30.339 
21
4.869
0
LINE
8
5
  6
CONTINUOUS
10
30.339 
20
4.869 
11
30.327 
21
4.867
0
LINE
8
5
  6
CONTINUOUS
10
30.327 
20
4.867 
11
30.315 
21
4.864
0
LINE
8
5
  6
CONTINUOUS
10
30.315 
20
4.864 
11
30.303 
21
4.861
0
LINE
8
5
  6
CONTINUOUS
10
30.303 
20
4.861 
11
30.291 
21
4.859
0
LINE
8
5
  6
CONTINUOUS
10
30.291 
20
4.859 
11
30.279 
21
4.856
0
LINE
8
5
  6
CONTINUOUS
10
30.279 
20
4.856 
11
30.268 
21
4.853
0
LINE
8
5
  6
CONTINUOUS
10
30.268 
20
4.853 
11
30.256 
21
4.850
0
LINE
8
5
  6
CONTINUOUS
10
30.256 
20
4.850 
11
30.244 
21
4.847
0
LINE
8
5
  6
CONTINUOUS
10
30.244 
20
4.847 
11
30.232 
21
4.844
0
LINE
8
5
  6
CONTINUOUS
10
30.232 
20
4.844 
11
30.220 
21
4.841
0
LINE
8
5
  6
CONTINUOUS
10
30.220 
20
4.841 
11
30.208 
21
4.838
0
LINE
8
5
  6
CONTINUOUS
10
30.208 
20
4.838 
11
30.196 
21
4.835
0
LINE
8
5
  6
CONTINUOUS
10
30.196 
20
4.835 
11
14.141 
21
0.533
0
LINE
8
5
  6
CONTINUOUS
10
14.141 
20
0.533 
11
14.080 
21
0.516
0
LINE
8
5
  6
CONTINUOUS
10
14.080 
20
0.516 
11
14.019 
21
0.497
0
LINE
8
5
  6
CONTINUOUS
10
14.019 
20
0.497 
11
13.959 
21
0.478
0
LINE
8
5
  6
CONTINUOUS
10
13.959 
20
0.478 
11
13.900 
21
0.457
0
LINE
8
5
  6
CONTINUOUS
10
13.900 
20
0.457 
11
13.841 
21
0.435
0
LINE
8
5
  6
CONTINUOUS
10
13.841 
20
0.435 
11
13.783 
21
0.412
0
LINE
8
5
  6
CONTINUOUS
10
13.783 
20
0.412 
11
13.726 
21
0.388
0
LINE
8
5
  6
CONTINUOUS
10
13.726 
20
0.388 
11
13.669 
21
0.363
0
LINE
8
5
  6
CONTINUOUS
10
13.669 
20
0.363 
11
13.613 
21
0.337
0
LINE
8
5
  6
CONTINUOUS
10
13.613 
20
0.337 
11
13.557 
21
0.309
0
LINE
8
5
  6
CONTINUOUS
10
13.557 
20
0.309 
11
13.503 
21
0.281
0
LINE
8
5
  6
CONTINUOUS
10
13.503 
20
0.281 
11
13.449 
21
0.251
0
LINE
8
5
  6
CONTINUOUS
10
13.449 
20
0.251 
11
13.395 
21
0.220
0
LINE
8
5
  6
CONTINUOUS
10
13.395 
20
0.220 
11
13.343 
21
0.189
0
LINE
8
5
  6
CONTINUOUS
10
13.343 
20
0.189 
11
13.291 
21
0.156
0
LINE
8
5
  6
CONTINUOUS
10
13.291 
20
0.156 
11
13.240 
21
0.123
0
LINE
8
5
  6
CONTINUOUS
10
13.240 
20
0.123 
11
13.190 
21
0.088
0
LINE
8
5
  6
CONTINUOUS
10
13.190 
20
0.088 
11
13.141 
21
0.052
0
LINE
8
5
  6
CONTINUOUS
10
13.141 
20
0.052 
11
13.092 
21
0.016
0
LINE
8
5
  6
CONTINUOUS
10
13.092 
20
0.016 
11
13.044 
21
-0.022
0
LINE
8
5
  6
CONTINUOUS
10
13.044 
20
-0.022 
11
12.997 
21
-0.060
0
LINE
8
5
  6
CONTINUOUS
10
12.997 
20
-0.060 
11
12.951 
21
-0.099
0
LINE
8
5
  6
CONTINUOUS
10
12.951 
20
-0.099 
11
12.905 
21
-0.140
0
LINE
8
5
  6
CONTINUOUS
10
12.905 
20
-0.140 
11
12.861 
21
-0.181
0
LINE
8
5
  6
CONTINUOUS
10
12.861 
20
-0.181 
11
12.817 
21
-0.223
0
LINE
8
5
  6
CONTINUOUS
10
12.817 
20
-0.223 
11
12.775 
21
-0.265
0
LINE
8
5
  6
CONTINUOUS
10
12.775 
20
-0.265 
11
12.733 
21
-0.309
0
LINE
8
5
  6
CONTINUOUS
10
12.733 
20
-0.309 
11
12.692 
21
-0.353
0
LINE
8
5
  6
CONTINUOUS
10
12.692 
20
-0.353 
11
12.652 
21
-0.399
0
LINE
8
5
  6
CONTINUOUS
10
12.652 
20
-0.399 
11
12.613 
21
-0.445
0
LINE
8
5
  6
CONTINUOUS
10
12.613 
20
-0.445 
11
12.575 
21
-0.491
0
LINE
8
5
  6
CONTINUOUS
10
12.575 
20
-0.491 
11
12.537 
21
-0.539
0
LINE
8
5
  6
CONTINUOUS
10
12.537 
20
-0.539 
11
12.501 
21
-0.587
0
LINE
8
5
  6
CONTINUOUS
10
12.501 
20
-0.587 
11
12.466 
21
-0.636
0
LINE
8
5
  6
CONTINUOUS
10
12.466 
20
-0.636 
11
12.431 
21
-0.686
0
LINE
8
5
  6
CONTINUOUS
10
12.431 
20
-0.686 
11
12.398 
21
-0.736
0
LINE
8
5
  6
CONTINUOUS
10
12.398 
20
-0.736 
11
12.366 
21
-0.787
0
LINE
8
5
  6
CONTINUOUS
10
12.366 
20
-0.787 
11
12.335 
21
-0.839
0
LINE
8
5
  6
CONTINUOUS
10
12.335 
20
-0.839 
11
12.304 
21
-0.891
0
LINE
8
5
  6
CONTINUOUS
10
12.304 
20
-0.891 
11
12.275 
21
-0.944
0
LINE
8
5
  6
CONTINUOUS
10
12.275 
20
-0.944 
11
12.247 
21
-0.998
0
LINE
8
5
  6
CONTINUOUS
10
12.247 
20
-0.998 
11
12.220 
21
-1.052
0
LINE
8
5
  6
CONTINUOUS
10
12.220 
20
-1.052 
11
12.194 
21
-1.107
0
LINE
8
5
  6
CONTINUOUS
10
12.194 
20
-1.107 
11
12.169 
21
-1.162
0
LINE
8
5
  6
CONTINUOUS
10
12.169 
20
-1.162 
11
12.145 
21
-1.218
0
LINE
8
5
  6
CONTINUOUS
10
12.145 
20
-1.218 
11
12.122 
21
-1.274
0
LINE
8
5
  6
CONTINUOUS
10
12.122 
20
-1.274 
11
12.101 
21
-1.331
0
LINE
8
5
  6
CONTINUOUS
10
12.101 
20
-1.331 
11
12.080 
21
-1.389
0
LINE
8
5
  6
CONTINUOUS
10
12.080 
20
-1.389 
11
12.061 
21
-1.447
0
LINE
8
5
  6
CONTINUOUS
10
12.061 
20
-1.447 
11
12.043 
21
-1.505
0
LINE
8
5
  6
CONTINUOUS
10
12.043 
20
-1.505 
11
12.026 
21
-1.564
0
LINE
8
5
  6
CONTINUOUS
10
12.026 
20
-1.564 
11
12.010 
21
-1.624
0
LINE
8
5
  6
CONTINUOUS
10
12.010 
20
-1.624 
11
11.996 
21
-1.683
0
LINE
8
5
  6
CONTINUOUS
10
11.996 
20
-1.683 
11
11.982 
21
-1.744
0
LINE
8
5
  6
CONTINUOUS
10
11.982 
20
-1.744 
11
11.970 
21
-1.804
0
LINE
8
5
  6
CONTINUOUS
10
11.970 
20
-1.804 
11
11.959 
21
-1.865
0
LINE
8
5
  6
CONTINUOUS
10
11.959 
20
-1.865 
11
11.949 
21
-1.927
0
LINE
8
5
  6
CONTINUOUS
10
11.949 
20
-1.927 
11
11.941 
21
-1.988
0
LINE
8
5
  6
CONTINUOUS
10
11.941 
20
-1.988 
11
11.934 
21
-2.050
0
LINE
8
5
  6
CONTINUOUS
10
11.934 
20
-2.050 
11
11.928 
21
-2.113
0
LINE
8
5
  6
CONTINUOUS
10
11.928 
20
-2.113 
11
11.923 
21
-2.175
0
LINE
8
5
  6
CONTINUOUS
10
11.923 
20
-2.175 
11
11.920 
21
-2.238
0
LINE
8
5
  6
CONTINUOUS
10
11.920 
20
-2.238 
11
11.918 
21
-2.302
0
LINE
8
5
  6
CONTINUOUS
10
11.918 
20
-2.302 
11
11.917 
21
-2.365
0
LINE
8
5
  6
CONTINUOUS
10
11.917 
20
-2.365 
11
11.917 
21
-8.961
0
LINE
8
5
  6
CONTINUOUS
10
11.917 
20
-8.961 
11
11.918 
21
-9.025
0
LINE
8
5
  6
CONTINUOUS
10
11.918 
20
-9.025 
11
11.920 
21
-9.088
0
LINE
8
5
  6
CONTINUOUS
10
11.920 
20
-9.088 
11
11.923 
21
-9.151
0
LINE
8
5
  6
CONTINUOUS
10
11.923 
20
-9.151 
11
11.928 
21
-9.214
0
LINE
8
5
  6
CONTINUOUS
10
11.928 
20
-9.214 
11
11.934 
21
-9.276
0
LINE
8
5
  6
CONTINUOUS
10
11.934 
20
-9.276 
11
11.941 
21
-9.338
0
LINE
8
5
  6
CONTINUOUS
10
11.941 
20
-9.338 
11
11.949 
21
-9.400
0
LINE
8
5
  6
CONTINUOUS
10
11.949 
20
-9.400 
11
11.959 
21
-9.461
0
LINE
8
5
  6
CONTINUOUS
10
11.959 
20
-9.461 
11
11.970 
21
-9.522
0
LINE
8
5
  6
CONTINUOUS
10
11.970 
20
-9.522 
11
11.982 
21
-9.583
0
LINE
8
5
  6
CONTINUOUS
10
11.982 
20
-9.583 
11
11.996 
21
-9.643
0
LINE
8
5
  6
CONTINUOUS
10
11.996 
20
-9.643 
11
12.010 
21
-9.703
0
LINE
8
5
  6
CONTINUOUS
10
12.010 
20
-9.703 
11
12.026 
21
-9.762
0
LINE
8
5
  6
CONTINUOUS
10
12.026 
20
-9.762 
11
12.043 
21
-9.821
0
LINE
8
5
  6
CONTINUOUS
10
12.043 
20
-9.821 
11
12.061 
21
-9.879
0
LINE
8
5
  6
CONTINUOUS
10
12.061 
20
-9.879 
11
12.080 
21
-9.937
0
LINE
8
5
  6
CONTINUOUS
10
12.080 
20
-9.937 
11
12.101 
21
-9.995
0
LINE
8
5
  6
CONTINUOUS
10
12.101 
20
-9.995 
11
12.122 
21
-10.052
0
LINE
8
5
  6
CONTINUOUS
10
12.122 
20
-10.052 
11
12.145 
21
-10.108
0
LINE
8
5
  6
CONTINUOUS
10
12.145 
20
-10.108 
11
12.169 
21
-10.164
0
LINE
8
5
  6
CONTINUOUS
10
12.169 
20
-10.164 
11
12.194 
21
-10.219
0
LINE
8
5
  6
CONTINUOUS
10
12.194 
20
-10.219 
11
12.220 
21
-10.274
0
LINE
8
5
  6
CONTINUOUS
10
12.220 
20
-10.274 
11
12.247 
21
-10.328
0
LINE
8
5
  6
CONTINUOUS
10
12.247 
20
-10.328 
11
12.275 
21
-10.382
0
LINE
8
5
  6
CONTINUOUS
10
12.275 
20
-10.382 
11
12.304 
21
-10.435
0
LINE
8
5
  6
CONTINUOUS
10
12.304 
20
-10.435 
11
12.335 
21
-10.487
0
LINE
8
5
  6
CONTINUOUS
10
12.335 
20
-10.487 
11
12.366 
21
-10.539
0
LINE
8
5
  6
CONTINUOUS
10
12.366 
20
-10.539 
11
12.398 
21
-10.590
0
LINE
8
5
  6
CONTINUOUS
10
12.398 
20
-10.590 
11
12.431 
21
-10.641
0
LINE
8
5
  6
CONTINUOUS
10
12.431 
20
-10.641 
11
12.466 
21
-10.690
0
LINE
8
5
  6
CONTINUOUS
10
12.466 
20
-10.690 
11
12.501 
21
-10.739
0
LINE
8
5
  6
CONTINUOUS
10
12.501 
20
-10.739 
11
12.537 
21
-10.787
0
LINE
8
5
  6
CONTINUOUS
10
12.537 
20
-10.787 
11
12.575 
21
-10.835
0
LINE
8
5
  6
CONTINUOUS
10
12.575 
20
-10.835 
11
12.613 
21
-10.882
0
LINE
8
5
  6
CONTINUOUS
10
12.613 
20
-10.882 
11
12.652 
21
-10.928
0
LINE
8
5
  6
CONTINUOUS
10
12.652 
20
-10.928 
11
12.692 
21
-10.973
0
LINE
8
5
  6
CONTINUOUS
10
12.692 
20
-10.973 
11
12.733 
21
-11.017
0
LINE
8
5
  6
CONTINUOUS
10
12.733 
20
-11.017 
11
12.775 
21
-11.061
0
LINE
8
5
  6
CONTINUOUS
10
12.775 
20
-11.061 
11
12.817 
21
-11.104
0
LINE
8
5
  6
CONTINUOUS
10
12.817 
20
-11.104 
11
12.861 
21
-11.146
0
LINE
8
5
  6
CONTINUOUS
10
12.861 
20
-11.146 
11
12.905 
21
-11.187
0
LINE
8
5
  6
CONTINUOUS
10
12.905 
20
-11.187 
11
12.951 
21
-11.227
0
LINE
8
5
  6
CONTINUOUS
10
12.951 
20
-11.227 
11
12.997 
21
-11.266
0
LINE
8
5
  6
CONTINUOUS
10
12.997 
20
-11.266 
11
13.044 
21
-11.305
0
LINE
8
5
  6
CONTINUOUS
10
13.044 
20
-11.305 
11
13.092 
21
-11.342
0
LINE
8
5
  6
CONTINUOUS
10
13.092 
20
-11.342 
11
13.141 
21
-11.379
0
LINE
8
5
  6
CONTINUOUS
10
13.141 
20
-11.379 
11
13.190 
21
-11.414
0
LINE
8
5
  6
CONTINUOUS
10
13.190 
20
-11.414 
11
13.240 
21
-11.449
0
LINE
8
5
  6
CONTINUOUS
10
13.240 
20
-11.449 
11
13.291 
21
-11.482
0
LINE
8
5
  6
CONTINUOUS
10
13.291 
20
-11.482 
11
13.343 
21
-11.515
0
LINE
8
5
  6
CONTINUOUS
10
13.343 
20
-11.515 
11
13.395 
21
-11.547
0
LINE
8
5
  6
CONTINUOUS
10
13.395 
20
-11.547 
11
13.449 
21
-11.577
0
LINE
8
5
  6
CONTINUOUS
10
13.449 
20
-11.577 
11
13.503 
21
-11.607
0
LINE
8
5
  6
CONTINUOUS
10
13.503 
20
-11.607 
11
13.557 
21
-11.635
0
LINE
8
5
  6
CONTINUOUS
10
13.557 
20
-11.635 
11
13.613 
21
-11.663
0
LINE
8
5
  6
CONTINUOUS
10
13.613 
20
-11.663 
11
13.669 
21
-11.689
0
LINE
8
5
  6
CONTINUOUS
10
13.669 
20
-11.689 
11
13.726 
21
-11.714
0
LINE
8
5
  6
CONTINUOUS
10
13.726 
20
-11.714 
11
13.783 
21
-11.739
0
LINE
8
5
  6
CONTINUOUS
10
13.783 
20
-11.739 
11
13.841 
21
-11.762
0
LINE
8
5
  6
CONTINUOUS
10
13.841 
20
-11.762 
11
13.900 
21
-11.783
0
LINE
8
5
  6
CONTINUOUS
10
13.900 
20
-11.783 
11
13.959 
21
-11.804
0
LINE
8
5
  6
CONTINUOUS
10
13.959 
20
-11.804 
11
14.019 
21
-11.824
0
LINE
8
5
  6
CONTINUOUS
10
14.019 
20
-11.824 
11
14.080 
21
-11.842
0
LINE
8
5
  6
CONTINUOUS
10
14.080 
20
-11.842 
11
14.141 
21
-11.859
0
LINE
8
5
  6
CONTINUOUS
10
26.317 
20
0.016 
11
29.066 
21
-0.514
0
LINE
8
5
  6
CONTINUOUS
10
25.287 
20
15.611 
11
25.287 
21
35.111
0
LINE
8
5
  6
CONTINUOUS
10
10.287 
20
15.611 
11
10.287 
21
35.111
0
LINE
8
5
  6
CONTINUOUS
10
57.274 
20
33.761 
11
38.374 
21
33.761
0
LINE
8
5
  6
CONTINUOUS
10
38.374 
20
16.961 
11
56.274 
21
16.961
0
LINE
8
5
  6
CONTINUOUS
10
386.152 
20
36.001 
11
386.152 
21
16.501
0
LINE
8
5
  6
CONTINUOUS
10
371.152 
20
36.001 
11
371.152 
21
16.501
0
LINE
8
5
  6
CONTINUOUS
10
8.940 
20
10.723 
11
8.811 
21
10.724
0
LINE
8
5
  6
CONTINUOUS
10
8.811 
20
10.724 
11
8.682 
21
10.729
0
LINE
8
5
  6
CONTINUOUS
10
8.682 
20
10.729 
11
8.554 
21
10.737
0
LINE
8
5
  6
CONTINUOUS
10
8.554 
20
10.737 
11
8.427 
21
10.748
0
LINE
8
5
  6
CONTINUOUS
10
8.427 
20
10.748 
11
8.301 
21
10.763
0
LINE
8
5
  6
CONTINUOUS
10
8.301 
20
10.763 
11
8.177 
21
10.780
0
LINE
8
5
  6
CONTINUOUS
10
8.177 
20
10.780 
11
8.053 
21
10.800
0
LINE
8
5
  6
CONTINUOUS
10
8.053 
20
10.800 
11
7.930 
21
10.824
0
LINE
8
5
  6
CONTINUOUS
10
7.930 
20
10.824 
11
7.808 
21
10.850
0
LINE
8
5
  6
CONTINUOUS
10
7.808 
20
10.850 
11
7.687 
21
10.880
0
LINE
8
5
  6
CONTINUOUS
10
7.687 
20
10.880 
11
7.568 
21
10.912
0
LINE
8
5
  6
CONTINUOUS
10
7.568 
20
10.912 
11
7.450 
21
10.947
0
LINE
8
5
  6
CONTINUOUS
10
7.450 
20
10.947 
11
7.332 
21
10.985
0
LINE
8
5
  6
CONTINUOUS
10
7.332 
20
10.985 
11
7.217 
21
11.025
0
LINE
8
5
  6
CONTINUOUS
10
7.217 
20
11.025 
11
7.102 
21
11.069
0
LINE
8
5
  6
CONTINUOUS
10
7.102 
20
11.069 
11
6.989 
21
11.115
0
LINE
8
5
  6
CONTINUOUS
10
6.989 
20
11.115 
11
6.877 
21
11.164
0
LINE
8
5
  6
CONTINUOUS
10
6.877 
20
11.164 
11
6.767 
21
11.215
0
LINE
8
5
  6
CONTINUOUS
10
6.767 
20
11.215 
11
6.658 
21
11.269
0
LINE
8
5
  6
CONTINUOUS
10
6.658 
20
11.269 
11
6.551 
21
11.326
0
LINE
8
5
  6
CONTINUOUS
10
6.551 
20
11.326 
11
6.445 
21
11.385
0
LINE
8
5
  6
CONTINUOUS
10
6.445 
20
11.385 
11
6.341 
21
11.446
0
LINE
8
5
  6
CONTINUOUS
10
6.341 
20
11.446 
11
6.238 
21
11.510
0
LINE
8
5
  6
CONTINUOUS
10
6.238 
20
11.510 
11
6.137 
21
11.577
0
LINE
8
5
  6
CONTINUOUS
10
6.137 
20
11.577 
11
6.038 
21
11.645
0
LINE
8
5
  6
CONTINUOUS
10
6.038 
20
11.645 
11
5.941 
21
11.716
0
LINE
8
5
  6
CONTINUOUS
10
5.941 
20
11.716 
11
5.845 
21
11.790
0
LINE
8
5
  6
CONTINUOUS
10
5.845 
20
11.790 
11
5.751 
21
11.865
0
LINE
8
5
  6
CONTINUOUS
10
5.751 
20
11.865 
11
5.659 
21
11.943
0
LINE
8
5
  6
CONTINUOUS
10
5.659 
20
11.943 
11
5.568 
21
12.023
0
LINE
8
5
  6
CONTINUOUS
10
5.568 
20
12.023 
11
5.480 
21
12.105
0
LINE
8
5
  6
CONTINUOUS
10
5.480 
20
12.105 
11
5.393 
21
12.189
0
LINE
8
5
  6
CONTINUOUS
10
5.393 
20
12.189 
11
5.309 
21
12.276
0
LINE
8
5
  6
CONTINUOUS
10
5.309 
20
12.276 
11
5.227 
21
12.364
0
LINE
8
5
  6
CONTINUOUS
10
5.227 
20
12.364 
11
5.146 
21
12.454
0
LINE
8
5
  6
CONTINUOUS
10
5.146 
20
12.454 
11
5.068 
21
12.546
0
LINE
8
5
  6
CONTINUOUS
10
5.068 
20
12.546 
11
4.992 
21
12.640
0
LINE
8
5
  6
CONTINUOUS
10
4.992 
20
12.640 
11
4.918 
21
12.736
0
LINE
8
5
  6
CONTINUOUS
10
4.918 
20
12.736 
11
4.846 
21
12.834
0
LINE
8
5
  6
CONTINUOUS
10
4.846 
20
12.834 
11
4.776 
21
12.934
0
LINE
8
5
  6
CONTINUOUS
10
4.776 
20
12.934 
11
4.709 
21
13.035
0
LINE
8
5
  6
CONTINUOUS
10
4.709 
20
13.035 
11
4.644 
21
13.138
0
LINE
8
5
  6
CONTINUOUS
10
4.644 
20
13.138 
11
4.582 
21
13.243
0
LINE
8
5
  6
CONTINUOUS
10
4.582 
20
13.243 
11
4.522 
21
13.350
0
LINE
8
5
  6
CONTINUOUS
10
4.522 
20
13.350 
11
4.464 
21
13.458
0
LINE
8
5
  6
CONTINUOUS
10
4.464 
20
13.458 
11
4.408 
21
13.567
0
LINE
8
5
  6
CONTINUOUS
10
4.408 
20
13.567 
11
4.356 
21
13.678
0
LINE
8
5
  6
CONTINUOUS
10
4.356 
20
13.678 
11
4.305 
21
13.791
0
LINE
8
5
  6
CONTINUOUS
10
4.305 
20
13.791 
11
4.258 
21
13.905
0
LINE
8
5
  6
CONTINUOUS
10
4.258 
20
13.905 
11
4.213 
21
14.021
0
LINE
8
5
  6
CONTINUOUS
10
4.213 
20
14.021 
11
4.170 
21
14.137
0
LINE
8
5
  6
CONTINUOUS
10
4.170 
20
14.137 
11
4.131 
21
14.256
0
LINE
8
5
  6
CONTINUOUS
10
4.131 
20
14.256 
11
4.094 
21
14.375
0
LINE
8
5
  6
CONTINUOUS
10
4.094 
20
14.375 
11
4.060 
21
14.496
0
LINE
8
5
  6
CONTINUOUS
10
4.060 
20
14.496 
11
4.028 
21
14.618
0
LINE
8
5
  6
CONTINUOUS
10
4.028 
20
14.618 
11
4.000 
21
14.741
0
LINE
8
5
  6
CONTINUOUS
10
4.000 
20
14.741 
11
3.974 
21
14.866
0
LINE
8
5
  6
CONTINUOUS
10
3.974 
20
14.866 
11
3.951 
21
14.991
0
LINE
8
5
  6
CONTINUOUS
10
3.951 
20
14.991 
11
3.931 
21
15.118
0
LINE
8
5
  6
CONTINUOUS
10
3.931 
20
15.118 
11
3.915 
21
15.245
0
LINE
8
5
  6
CONTINUOUS
10
3.915 
20
15.245 
11
3.901 
21
15.374
0
LINE
8
5
  6
CONTINUOUS
10
3.901 
20
15.374 
11
3.890 
21
15.504
0
LINE
8
5
  6
CONTINUOUS
10
3.890 
20
15.504 
11
3.883 
21
15.634
0
LINE
8
5
  6
CONTINUOUS
10
3.883 
20
15.634 
11
3.878 
21
15.765
0
LINE
8
5
  6
CONTINUOUS
10
3.878 
20
15.765 
11
3.834 
21
37.522
0
LINE
8
5
  6
CONTINUOUS
10
3.834 
20
37.522 
11
3.834 
21
37.645
0
LINE
8
5
  6
CONTINUOUS
10
3.834 
20
37.645 
11
3.838 
21
37.767
0
LINE
8
5
  6
CONTINUOUS
10
3.838 
20
37.767 
11
3.843 
21
37.890
0
LINE
8
5
  6
CONTINUOUS
10
3.843 
20
37.890 
11
3.852 
21
38.012
0
LINE
8
5
  6
CONTINUOUS
10
3.852 
20
38.012 
11
3.864 
21
38.134
0
LINE
8
5
  6
CONTINUOUS
10
3.864 
20
38.134 
11
3.878 
21
38.256
0
LINE
8
5
  6
CONTINUOUS
10
3.878 
20
38.256 
11
3.895 
21
38.377
0
LINE
8
5
  6
CONTINUOUS
10
3.895 
20
38.377 
11
3.914 
21
38.499
0
LINE
8
5
  6
CONTINUOUS
10
3.914 
20
38.499 
11
3.936 
21
38.619
0
LINE
8
5
  6
CONTINUOUS
10
3.936 
20
38.619 
11
3.961 
21
38.740
0
LINE
8
5
  6
CONTINUOUS
10
3.961 
20
38.740 
11
3.988 
21
38.860
0
LINE
8
5
  6
CONTINUOUS
10
3.988 
20
38.860 
11
4.018 
21
38.979
0
LINE
8
5
  6
CONTINUOUS
10
4.018 
20
38.979 
11
4.051 
21
39.098
0
LINE
8
5
  6
CONTINUOUS
10
4.051 
20
39.098 
11
4.086 
21
39.216
0
LINE
8
5
  6
CONTINUOUS
10
4.086 
20
39.216 
11
4.123 
21
39.334
0
LINE
8
5
  6
CONTINUOUS
10
4.123 
20
39.334 
11
4.163 
21
39.451
0
LINE
8
5
  6
CONTINUOUS
10
4.163 
20
39.451 
11
4.205 
21
39.567
0
LINE
8
5
  6
CONTINUOUS
10
4.205 
20
39.567 
11
4.250 
21
39.682
0
LINE
8
5
  6
CONTINUOUS
10
4.250 
20
39.682 
11
4.297 
21
39.797
0
LINE
8
5
  6
CONTINUOUS
10
4.297 
20
39.797 
11
4.346 
21
39.910
0
LINE
8
5
  6
CONTINUOUS
10
4.346 
20
39.910 
11
4.398 
21
40.023
0
LINE
8
5
  6
CONTINUOUS
10
4.398 
20
40.023 
11
4.452 
21
40.135
0
LINE
8
5
  6
CONTINUOUS
10
4.452 
20
40.135 
11
4.508 
21
40.246
0
LINE
8
5
  6
CONTINUOUS
10
4.508 
20
40.246 
11
4.566 
21
40.356
0
LINE
8
5
  6
CONTINUOUS
10
4.566 
20
40.356 
11
4.627 
21
40.465
0
LINE
8
5
  6
CONTINUOUS
10
4.627 
20
40.465 
11
4.689 
21
40.572
0
LINE
8
5
  6
CONTINUOUS
10
4.689 
20
40.572 
11
4.754 
21
40.679
0
LINE
8
5
  6
CONTINUOUS
10
4.754 
20
40.679 
11
4.821 
21
40.784
0
LINE
8
5
  6
CONTINUOUS
10
4.821 
20
40.784 
11
4.890 
21
40.888
0
LINE
8
5
  6
CONTINUOUS
10
4.890 
20
40.888 
11
4.961 
21
40.991
0
LINE
8
5
  6
CONTINUOUS
10
4.961 
20
40.991 
11
5.034 
21
41.092
0
LINE
8
5
  6
CONTINUOUS
10
5.034 
20
41.092 
11
5.110 
21
41.193
0
LINE
8
5
  6
CONTINUOUS
10
5.110 
20
41.193 
11
5.187 
21
41.291
0
LINE
8
5
  6
CONTINUOUS
10
5.187 
20
41.291 
11
5.266 
21
41.388
0
LINE
8
5
  6
CONTINUOUS
10
5.266 
20
41.388 
11
5.347 
21
41.484
0
LINE
8
5
  6
CONTINUOUS
10
5.347 
20
41.484 
11
5.430 
21
41.578
0
LINE
8
5
  6
CONTINUOUS
10
5.430 
20
41.578 
11
5.514 
21
41.671
0
LINE
8
5
  6
CONTINUOUS
10
5.514 
20
41.671 
11
5.601 
21
41.762
0
LINE
8
5
  6
CONTINUOUS
10
5.601 
20
41.762 
11
5.689 
21
41.851
0
LINE
8
5
  6
CONTINUOUS
10
5.689 
20
41.851 
11
5.780 
21
41.938
0
LINE
8
5
  6
CONTINUOUS
10
5.780 
20
41.938 
11
5.872 
21
42.024
0
LINE
8
5
  6
CONTINUOUS
10
5.872 
20
42.024 
11
5.965 
21
42.108
0
LINE
8
5
  6
CONTINUOUS
10
5.965 
20
42.108 
11
6.061 
21
42.190
0
LINE
8
5
  6
CONTINUOUS
10
6.061 
20
42.190 
11
6.158 
21
42.270
0
LINE
8
5
  6
CONTINUOUS
10
6.158 
20
42.270 
11
6.256 
21
42.349
0
LINE
8
5
  6
CONTINUOUS
10
6.256 
20
42.349 
11
6.357 
21
42.425
0
LINE
8
5
  6
CONTINUOUS
10
6.357 
20
42.425 
11
6.459 
21
42.499
0
LINE
8
5
  6
CONTINUOUS
10
6.459 
20
42.499 
11
6.562 
21
42.571
0
LINE
8
5
  6
CONTINUOUS
10
6.562 
20
42.571 
11
6.667 
21
42.641
0
LINE
8
5
  6
CONTINUOUS
10
6.667 
20
42.641 
11
6.773 
21
42.709
0
LINE
8
5
  6
CONTINUOUS
10
6.773 
20
42.709 
11
6.881 
21
42.775
0
LINE
8
5
  6
CONTINUOUS
10
6.881 
20
42.775 
11
6.991 
21
42.839
0
LINE
8
5
  6
CONTINUOUS
10
6.991 
20
42.839 
11
7.102 
21
42.900
0
LINE
8
5
  6
CONTINUOUS
10
7.102 
20
42.900 
11
7.214 
21
42.959
0
LINE
8
5
  6
CONTINUOUS
10
7.214 
20
42.959 
11
7.328 
21
43.015
0
LINE
8
5
  6
CONTINUOUS
10
7.328 
20
43.015 
11
7.443 
21
43.069
0
LINE
8
5
  6
CONTINUOUS
10
7.443 
20
43.069 
11
7.559 
21
43.121
0
LINE
8
5
  6
CONTINUOUS
10
7.559 
20
43.121 
11
7.676 
21
43.170
0
LINE
8
5
  6
CONTINUOUS
10
7.676 
20
43.170 
11
7.795 
21
43.217
0
LINE
8
5
  6
CONTINUOUS
10
7.795 
20
43.217 
11
7.915 
21
43.261
0
LINE
8
5
  6
CONTINUOUS
10
7.915 
20
43.261 
11
8.037 
21
43.302
0
LINE
8
5
  6
CONTINUOUS
10
8.037 
20
43.302 
11
8.159 
21
43.341
0
LINE
8
5
  6
CONTINUOUS
10
8.159 
20
43.341 
11
8.283 
21
43.377
0
LINE
8
5
  6
CONTINUOUS
10
8.283 
20
43.377 
11
8.407 
21
43.410
0
LINE
8
5
  6
CONTINUOUS
10
8.407 
20
43.410 
11
8.522 
21
43.437
0
LINE
8
5
  6
CONTINUOUS
10
8.522 
20
43.437 
11
8.636 
21
43.467
0
LINE
8
5
  6
CONTINUOUS
10
8.636 
20
43.467 
11
8.749 
21
43.499
0
LINE
8
5
  6
CONTINUOUS
10
8.749 
20
43.499 
11
8.862 
21
43.534
0
LINE
8
5
  6
CONTINUOUS
10
8.862 
20
43.534 
11
8.973 
21
43.571
0
LINE
8
5
  6
CONTINUOUS
10
8.973 
20
43.571 
11
9.084 
21
43.610
0
LINE
8
5
  6
CONTINUOUS
10
9.084 
20
43.610 
11
9.194 
21
43.651
0
LINE
8
5
  6
CONTINUOUS
10
9.194 
20
43.651 
11
9.303 
21
43.695
0
LINE
8
5
  6
CONTINUOUS
10
9.303 
20
43.695 
11
9.411 
21
43.740
0
LINE
8
5
  6
CONTINUOUS
10
9.411 
20
43.740 
11
9.519 
21
43.788
0
LINE
8
5
  6
CONTINUOUS
10
9.519 
20
43.788 
11
9.625 
21
43.838
0
LINE
8
5
  6
CONTINUOUS
10
9.625 
20
43.838 
11
9.730 
21
43.890
0
LINE
8
5
  6
CONTINUOUS
10
9.730 
20
43.890 
11
9.834 
21
43.945
0
LINE
8
5
  6
CONTINUOUS
10
9.834 
20
43.945 
11
9.937 
21
44.001
0
LINE
8
5
  6
CONTINUOUS
10
9.937 
20
44.001 
11
10.038 
21
44.059
0
LINE
8
5
  6
CONTINUOUS
10
10.038 
20
44.059 
11
10.139 
21
44.119
0
LINE
8
5
  6
CONTINUOUS
10
10.139 
20
44.119 
11
10.238 
21
44.181
0
LINE
8
5
  6
CONTINUOUS
10
10.238 
20
44.181 
11
10.336 
21
44.245
0
LINE
8
5
  6
CONTINUOUS
10
10.336 
20
44.245 
11
10.433 
21
44.311
0
LINE
8
5
  6
CONTINUOUS
10
10.433 
20
44.311 
11
10.528 
21
44.378
0
LINE
8
5
  6
CONTINUOUS
10
10.528 
20
44.378 
11
10.622 
21
44.448
0
LINE
8
5
  6
CONTINUOUS
10
10.622 
20
44.448 
11
10.715 
21
44.519
0
LINE
8
5
  6
CONTINUOUS
10
10.715 
20
44.519 
11
10.806 
21
44.592
0
LINE
8
5
  6
CONTINUOUS
10
10.806 
20
44.592 
11
10.896 
21
44.667
0
LINE
8
5
  6
CONTINUOUS
10
10.896 
20
44.667 
11
10.984 
21
44.743
0
LINE
8
5
  6
CONTINUOUS
10
10.984 
20
44.743 
11
11.070 
21
44.821
0
LINE
8
5
  6
CONTINUOUS
10
11.070 
20
44.821 
11
11.155 
21
44.901
0
LINE
8
5
  6
CONTINUOUS
10
11.155 
20
44.901 
11
11.238 
21
44.982
0
LINE
8
5
  6
CONTINUOUS
10
11.238 
20
44.982 
11
11.320 
21
45.065
0
LINE
8
5
  6
CONTINUOUS
10
11.320 
20
45.065 
11
11.400 
21
45.149
0
LINE
8
5
  6
CONTINUOUS
10
11.400 
20
45.149 
11
11.478 
21
45.235
0
LINE
8
5
  6
CONTINUOUS
10
11.478 
20
45.235 
11
11.554 
21
45.322
0
LINE
8
5
  6
CONTINUOUS
10
11.554 
20
45.322 
11
11.629 
21
45.411
0
LINE
8
5
  6
CONTINUOUS
10
11.629 
20
45.411 
11
11.702 
21
45.501
0
LINE
8
5
  6
CONTINUOUS
10
11.702 
20
45.501 
11
11.772 
21
45.592
0
LINE
8
5
  6
CONTINUOUS
10
11.772 
20
45.592 
11
11.841 
21
45.685
0
LINE
8
5
  6
CONTINUOUS
10
11.841 
20
45.685 
11
11.908 
21
45.779
0
LINE
8
5
  6
CONTINUOUS
10
11.908 
20
45.779 
11
11.973 
21
45.874
0
LINE
8
5
  6
CONTINUOUS
10
11.973 
20
45.874 
11
12.036 
21
45.971
0
LINE
8
5
  6
CONTINUOUS
10
12.036 
20
45.971 
11
12.097 
21
46.069
0
LINE
8
5
  6
CONTINUOUS
10
12.097 
20
46.069 
11
12.156 
21
46.167
0
LINE
8
5
  6
CONTINUOUS
10
12.156 
20
46.167 
11
12.212 
21
46.268
0
LINE
8
5
  6
CONTINUOUS
10
12.212 
20
46.268 
11
12.266 
21
46.369
0
LINE
8
5
  6
CONTINUOUS
10
12.266 
20
46.369 
11
12.319 
21
46.471
0
LINE
8
5
  6
CONTINUOUS
10
12.319 
20
46.471 
11
12.368 
21
46.574
0
LINE
8
5
  6
CONTINUOUS
10
12.368 
20
46.574 
11
12.416 
21
46.679
0
LINE
8
5
  6
CONTINUOUS
10
12.416 
20
46.679 
11
12.461 
21
46.784
0
LINE
8
5
  6
CONTINUOUS
10
12.461 
20
46.784 
11
12.504 
21
46.890
0
LINE
8
5
  6
CONTINUOUS
10
12.504 
20
46.890 
11
12.545 
21
46.997
0
LINE
8
5
  6
CONTINUOUS
10
12.545 
20
46.997 
11
12.583 
21
47.106
0
LINE
8
5
  6
CONTINUOUS
10
12.583 
20
47.106 
11
12.618 
21
47.214
0
LINE
8
5
  6
CONTINUOUS
10
12.618 
20
47.214 
11
12.651 
21
47.324
0
LINE
8
5
  6
CONTINUOUS
10
12.651 
20
47.324 
11
12.682 
21
47.435
0
LINE
8
5
  6
CONTINUOUS
10
12.682 
20
47.435 
11
12.710 
21
47.546
0
LINE
8
5
  6
CONTINUOUS
10
12.710 
20
47.546 
11
12.735 
21
47.658
0
LINE
8
5
  6
CONTINUOUS
10
12.735 
20
47.658 
11
12.758 
21
47.771
0
LINE
8
5
  6
CONTINUOUS
10
12.758 
20
47.771 
11
12.777 
21
47.884
0
LINE
8
5
  6
CONTINUOUS
10
12.777 
20
47.884 
11
12.795 
21
47.999
0
LINE
8
5
  6
CONTINUOUS
10
12.795 
20
47.999 
11
12.809 
21
48.113
0
LINE
8
5
  6
CONTINUOUS
10
12.809 
20
48.113 
11
12.821 
21
48.229
0
LINE
8
5
  6
CONTINUOUS
10
12.821 
20
48.229 
11
12.829 
21
48.344
0
LINE
8
5
  6
CONTINUOUS
10
12.829 
20
48.344 
11
12.835 
21
48.461
0
LINE
8
5
  6
CONTINUOUS
10
12.835 
20
48.461 
11
12.838 
21
48.578
0
LINE
8
5
  6
CONTINUOUS
10
12.838 
20
48.578 
11
12.838 
21
48.695
0
LINE
8
5
  6
CONTINUOUS
10
12.838 
20
48.695 
11
12.841 
21
59.884
0
LINE
8
5
  6
CONTINUOUS
10
26.317 
20
-11.342 
11
29.066 
21
-10.812
0
LINE
8
5
  6
CONTINUOUS
10
29.066 
20
-0.514 
11
29.066 
21
-10.812
0
LINE
8
5
  6
CONTINUOUS
10
117.600 
20
39.892 
11
114.905 
21
37.309
0
ARC
8
5
6
CONTINUOUS
10
115.597
20
36.587
40
1.0000
50
133.784572
51
180.000000
0
LINE
8
5
  6
CONTINUOUS
10
11.287 
20
36.111 
11
13.087 
21
36.111
0
LINE
8
5
  6
CONTINUOUS
10
13.087 
20
14.611 
11
11.287 
21
14.611
0
LINE
8
5
  6
CONTINUOUS
10
26.287 
20
36.111 
11
28.087 
21
36.111
0
LINE
8
5
  6
CONTINUOUS
10
28.087 
20
14.611 
11
26.287 
21
14.611
0
LINE
8
5
  6
CONTINUOUS
10
37.374 
20
32.761 
11
37.374 
21
30.961
0
LINE
8
5
  6
CONTINUOUS
10
57.274 
20
33.761 
11
57.274 
21
30.961
0
LINE
8
5
  6
CONTINUOUS
10
37.374 
20
19.761 
11
37.374 
21
17.961
0
LINE
8
5
  6
CONTINUOUS
10
57.274 
20
19.761 
11
57.274 
21
17.961
0
LINE
8
5
  6
CONTINUOUS
10
133.601 
20
30.944 
11
133.601 
21
33.800
0
LINE
8
5
  6
CONTINUOUS
10
130.588 
20
38.506 
11
133.601 
21
33.800
0
LINE
8
5
  6
CONTINUOUS
10
133.601 
20
33.800 
11
136.614 
21
38.506
0
LINE
8
5
  6
CONTINUOUS
10
133.601 
20
19.837 
11
133.601 
21
16.981
0
LINE
8
5
  6
CONTINUOUS
10
130.515 
20
12.161 
11
133.601 
21
16.981
0
LINE
8
5
  6
CONTINUOUS
10
133.601 
20
16.981 
11
136.701 
21
12.139
0
ARC
8
5
6
CONTINUOUS
10
139.141
20
36.889
40
3.0000
50
90.000000
51
147.385261
0
ARC
8
5
6
CONTINUOUS
10
128.061
20
36.889
40
3.0000
50
32.614739
51
90.000000
0
LINE
8
5
  6
CONTINUOUS
10
128.061 
20
39.889 
11
139.141 
21
39.889
0
CIRCLE
8
5
6
CONTINUOUS
10
114.598
20
19.961
40
1.5000
0
CIRCLE
8
5
6
CONTINUOUS
10
114.597
20
30.819
40
1.5000
0
LINE
8
5
  6
CONTINUOUS
10
370.152 
20
37.001 
11
368.352 
21
37.001
0
LINE
8
5
  6
CONTINUOUS
10
383.352 
20
37.001 
11
385.152 
21
37.001
0
LINE
8
5
  6
CONTINUOUS
10
383.352 
20
15.501 
11
385.152 
21
15.501
0
LINE
8
5
  6
CONTINUOUS
10
370.152 
20
15.501 
11
368.352 
21
15.501
0
ARC
8
5
6
CONTINUOUS
10
139.228
20
13.756
40
3.0000
50
-147.385261
51
-90.000000
0
ARC
8
5
6
CONTINUOUS
10
127.988
20
13.778
40
3.0000
50
-90.000000
51
-32.614739
0
ARC
8
5
6
CONTINUOUS
10
374.559
20
7.337
40
1.0000
50
90.000000
51
180.000000
0
ARC
8
5
6
CONTINUOUS
10
382.559
20
7.337
40
1.0000
50
0.000000
51
90.000000
0
ARC
8
5
6
CONTINUOUS
10
382.559
20
-18.663
40
1.0000
50
-90.000000
51
0.000000
0
ARC
8
5
6
CONTINUOUS
10
374.559
20
-18.663
40
1.0000
50
180.000000
51
-90.000000
0
LINE
8
5
  6
CONTINUOUS
10
34.317 
20
0.016 
11
37.066 
21
-0.514
0
LINE
8
5
  6
CONTINUOUS
10
34.317 
20
-11.342 
11
37.066 
21
-10.812
0
LINE
8
5
  6
CONTINUOUS
10
37.066 
20
-0.514 
11
37.066 
21
-10.812
0
LINE
8
5
  6
CONTINUOUS
10
42.317 
20
0.016 
11
45.066 
21
-0.514
0
LINE
8
5
  6
CONTINUOUS
10
42.317 
20
-11.342 
11
45.066 
21
-10.812
0
LINE
8
5
  6
CONTINUOUS
10
45.066 
20
-0.514 
11
45.066 
21
-10.812
0
LINE
8
5
  6
CONTINUOUS
10
50.317 
20
0.016 
11
53.066 
21
-0.514
0
LINE
8
5
  6
CONTINUOUS
10
50.317 
20
-11.342 
11
53.066 
21
-10.812
0
LINE
8
5
  6
CONTINUOUS
10
53.066 
20
-0.514 
11
53.066 
21
-10.812
0
LINE
8
5
  6
CONTINUOUS
10
58.317 
20
0.016 
11
61.066 
21
-0.514
0
LINE
8
5
  6
CONTINUOUS
10
58.317 
20
-11.342 
11
61.066 
21
-10.812
0
LINE
8
5
  6
CONTINUOUS
10
61.066 
20
-0.514 
11
61.066 
21
-10.812
0
LINE
8
5
  6
CONTINUOUS
10
66.317 
20
0.016 
11
69.066 
21
-0.514
0
LINE
8
5
  6
CONTINUOUS
10
66.317 
20
-11.342 
11
69.066 
21
-10.812
0
LINE
8
5
  6
CONTINUOUS
10
69.066 
20
-0.514 
11
69.066 
21
-10.812
0
LINE
8
5
  6
CONTINUOUS
10
74.317 
20
0.016 
11
77.066 
21
-0.514
0
LINE
8
5
  6
CONTINUOUS
10
74.317 
20
-11.342 
11
77.066 
21
-10.812
0
LINE
8
5
  6
CONTINUOUS
10
77.066 
20
-0.514 
11
77.066 
21
-10.812
0
LINE
8
5
  6
CONTINUOUS
10
82.317 
20
0.016 
11
85.066 
21
-0.514
0
LINE
8
5
  6
CONTINUOUS
10
82.317 
20
-11.342 
11
85.066 
21
-10.812
0
LINE
8
5
  6
CONTINUOUS
10
85.066 
20
-0.514 
11
85.066 
21
-10.812
0
LINE
8
5
  6
CONTINUOUS
10
90.317 
20
0.016 
11
93.066 
21
-0.514
0
LINE
8
5
  6
CONTINUOUS
10
90.317 
20
-11.342 
11
93.066 
21
-10.812
0
LINE
8
5
  6
CONTINUOUS
10
93.066 
20
-0.514 
11
93.066 
21
-10.812
0
LINE
8
5
  6
CONTINUOUS
10
98.317 
20
0.016 
11
101.066 
21
-0.514
0
LINE
8
5
  6
CONTINUOUS
10
98.317 
20
-11.342 
11
101.066 
21
-10.812
0
LINE
8
5
  6
CONTINUOUS
10
101.066 
20
-0.514 
11
101.066 
21
-10.812
0
LINE
8
5
  6
CONTINUOUS
10
106.317 
20
0.016 
11
109.066 
21
-0.514
0
LINE
8
5
  6
CONTINUOUS
10
106.317 
20
-11.342 
11
109.066 
21
-10.812
0
LINE
8
5
  6
CONTINUOUS
10
109.066 
20
-0.514 
11
109.066 
21
-10.812
0
LINE
8
5
  6
CONTINUOUS
10
114.317 
20
0.016 
11
117.066 
21
-0.514
0
LINE
8
5
  6
CONTINUOUS
10
114.317 
20
-11.342 
11
117.066 
21
-10.812
0
LINE
8
5
  6
CONTINUOUS
10
117.066 
20
-0.514 
11
117.066 
21
-10.812
0
LINE
8
5
  6
CONTINUOUS
10
122.317 
20
0.016 
11
125.066 
21
-0.514
0
LINE
8
5
  6
CONTINUOUS
10
122.317 
20
-11.342 
11
125.066 
21
-10.812
0
LINE
8
5
  6
CONTINUOUS
10
125.066 
20
-0.514 
11
125.066 
21
-10.812
0
LINE
8
5
  6
CONTINUOUS
10
130.317 
20
0.016 
11
133.066 
21
-0.514
0
LINE
8
5
  6
CONTINUOUS
10
130.317 
20
-11.342 
11
133.066 
21
-10.812
0
LINE
8
5
  6
CONTINUOUS
10
133.066 
20
-0.514 
11
133.066 
21
-10.812
0
LINE
8
5
  6
CONTINUOUS
10
138.317 
20
0.016 
11
141.066 
21
-0.514
0
LINE
8
5
  6
CONTINUOUS
10
138.317 
20
-11.342 
11
141.066 
21
-10.812
0
LINE
8
5
  6
CONTINUOUS
10
141.066 
20
-0.514 
11
141.066 
21
-10.812
0
LINE
8
5
  6
CONTINUOUS
10
146.317 
20
0.016 
11
149.066 
21
-0.514
0
LINE
8
5
  6
CONTINUOUS
10
146.317 
20
-11.342 
11
149.066 
21
-10.812
0
LINE
8
5
  6
CONTINUOUS
10
149.066 
20
-0.514 
11
149.066 
21
-10.812
0
LINE
8
5
  6
CONTINUOUS
10
154.317 
20
0.016 
11
157.066 
21
-0.514
0
LINE
8
5
  6
CONTINUOUS
10
154.317 
20
-11.342 
11
157.066 
21
-10.812
0
LINE
8
5
  6
CONTINUOUS
10
157.066 
20
-0.514 
11
157.066 
21
-10.812
0
ARC
8
5
6
CONTINUOUS
10
11.287
20
35.111
40
1.0000
50
90.000000
51
180.000000
0
ARC
8
5
6
CONTINUOUS
10
11.287
20
15.611
40
1.0000
50
180.000000
51
-90.000000
0
ARC
8
5
6
CONTINUOUS
10
26.287
20
35.111
40
1.0000
50
90.000000
51
180.000000
0
ARC
8
5
6
CONTINUOUS
10
26.287
20
15.611
40
1.0000
50
180.000000
51
-90.000000
0
ARC
8
5
6
CONTINUOUS
10
38.374
20
32.761
40
1.0000
50
90.000000
51
180.000000
0
ARC
8
5
6
CONTINUOUS
10
38.374
20
17.961
40
1.0000
50
180.000000
51
-90.000000
0
ARC
8
5
6
CONTINUOUS
10
56.274
20
17.961
40
1.0000
50
-90.000000
51
0.000000
0
ARC
8
5
6
CONTINUOUS
10
370.152
20
36.001
40
1.0000
50
0.000000
51
90.000000
0
ARC
8
5
6
CONTINUOUS
10
370.152
20
16.501
40
1.0000
50
-90.000000
51
0.000000
0
ARC
8
5
6
CONTINUOUS
10
385.152
20
36.001
40
1.0000
50
0.000000
51
90.000000
0
ARC
8
5
6
CONTINUOUS
10
385.152
20
16.501
40
1.0000
50
-90.000000
51
0.000000
0
CIRCLE
8
5
6
CONTINUOUS
10
24.817
20
0.030
40
1.5000
0
CIRCLE
8
5
6
CONTINUOUS
10
24.817
20
-11.356
40
1.5000
0
CIRCLE
8
5
6
CONTINUOUS
10
32.817
20
-11.356
40
1.5000
0
CIRCLE
8
5
6
CONTINUOUS
10
32.817
20
0.030
40
1.5000
0
CIRCLE
8
5
6
CONTINUOUS
10
40.817
20
0.030
40
1.5000
0
CIRCLE
8
5
6
CONTINUOUS
10
40.817
20
-11.356
40
1.5000
0
CIRCLE
8
5
6
CONTINUOUS
10
48.817
20
-11.356
40
1.5000
0
CIRCLE
8
5
6
CONTINUOUS
10
48.817
20
0.030
40
1.5000
0
CIRCLE
8
5
6
CONTINUOUS
10
56.817
20
0.030
40
1.5000
0
CIRCLE
8
5
6
CONTINUOUS
10
56.817
20
-11.356
40
1.5000
0
CIRCLE
8
5
6
CONTINUOUS
10
64.817
20
0.030
40
1.5000
0
CIRCLE
8
5
6
CONTINUOUS
10
64.817
20
-11.356
40
1.5000
0
CIRCLE
8
5
6
CONTINUOUS
10
72.817
20
0.030
40
1.5000
0
CIRCLE
8
5
6
CONTINUOUS
10
72.817
20
-11.356
40
1.5000
0
CIRCLE
8
5
6
CONTINUOUS
10
80.817
20
-11.356
40
1.5000
0
CIRCLE
8
5
6
CONTINUOUS
10
80.817
20
0.030
40
1.5000
0
CIRCLE
8
5
6
CONTINUOUS
10
88.817
20
0.030
40
1.5000
0
CIRCLE
8
5
6
CONTINUOUS
10
88.817
20
-11.356
40
1.5000
0
CIRCLE
8
5
6
CONTINUOUS
10
96.817
20
0.030
40
1.5000
0
CIRCLE
8
5
6
CONTINUOUS
10
96.817
20
-11.356
40
1.5000
0
CIRCLE
8
5
6
CONTINUOUS
10
104.817
20
0.030
40
1.5000
0
CIRCLE
8
5
6
CONTINUOUS
10
104.817
20
-11.356
40
1.5000
0
CIRCLE
8
5
6
CONTINUOUS
10
112.817
20
0.030
40
1.5000
0
CIRCLE
8
5
6
CONTINUOUS
10
112.817
20
-11.356
40
1.5000
0
CIRCLE
8
5
6
CONTINUOUS
10
120.817
20
-11.356
40
1.5000
0
CIRCLE
8
5
6
CONTINUOUS
10
128.817
20
-11.356
40
1.5000
0
CIRCLE
8
5
6
CONTINUOUS
10
136.817
20
-11.356
40
1.5000
0
CIRCLE
8
5
6
CONTINUOUS
10
144.817
20
-11.356
40
1.5000
0
CIRCLE
8
5
6
CONTINUOUS
10
152.817
20
-11.356
40
1.5000
0
CIRCLE
8
5
6
CONTINUOUS
10
152.817
20
0.030
40
1.5000
0
CIRCLE
8
5
6
CONTINUOUS
10
144.817
20
0.030
40
1.5000
0
CIRCLE
8
5
6
CONTINUOUS
10
136.817
20
0.030
40
1.5000
0
CIRCLE
8
5
6
CONTINUOUS
10
128.817
20
0.030
40
1.5000
0
CIRCLE
8
5
6
CONTINUOUS
10
120.817
20
0.030
40
1.5000
0
LINE
8
6
  6
CONTINUOUS
10
48.908 
20
51.731 
11
50.496 
21
48.027
0
LINE
8
6
  6
CONTINUOUS
10
52.083 
20
51.731 
11
50.496 
21
48.027
0
LINE
8
6
  6
CONTINUOUS
10
23.615 
20
46.419 
11
20.969 
21
42.715
0
LINE
8
6
  6
CONTINUOUS
10
20.969 
20
42.715 
11
24.938 
21
42.715
0
LINE
8
6
  6
CONTINUOUS
10
23.615 
20
46.419 
11
23.615 
21
40.863
0
LINE
8
6
  6
CONTINUOUS
10
28.089 
20
45.123 
11
28.089 
21
39.567
0
LINE
8
6
  6
CONTINUOUS
10
28.200 
20
44.218 
11
28.730 
21
44.747
0
LINE
8
6
  6
CONTINUOUS
10
28.730 
20
44.747 
11
29.259 
21
45.012
0
LINE
8
6
  6
CONTINUOUS
10
29.259 
20
45.012 
11
30.052 
21
45.012
0
LINE
8
6
  6
CONTINUOUS
10
30.052 
20
45.012 
11
30.582 
21
44.747
0
LINE
8
6
  6
CONTINUOUS
10
30.582 
20
44.747 
11
31.111 
21
44.218
0
LINE
8
6
  6
CONTINUOUS
10
31.111 
20
44.218 
11
31.375 
21
43.424
0
LINE
8
6
  6
CONTINUOUS
10
31.375 
20
43.424 
11
31.375 
21
42.895
0
LINE
8
6
  6
CONTINUOUS
10
31.375 
20
42.895 
11
31.111 
21
42.101
0
LINE
8
6
  6
CONTINUOUS
10
31.111 
20
42.101 
11
30.582 
21
41.572
0
LINE
8
6
  6
CONTINUOUS
10
30.582 
20
41.572 
11
30.052 
21
41.308
0
LINE
8
6
  6
CONTINUOUS
10
30.052 
20
41.308 
11
29.259 
21
41.308
0
LINE
8
6
  6
CONTINUOUS
10
29.259 
20
41.308 
11
28.730 
21
41.572
0
LINE
8
6
  6
CONTINUOUS
10
28.730 
20
41.572 
11
28.200 
21
42.101
0
LINE
8
6
  6
CONTINUOUS
10
33.227 
20
45.012 
11
33.227 
21
42.366
0
LINE
8
6
  6
CONTINUOUS
10
33.227 
20
42.366 
11
33.492 
21
41.572
0
LINE
8
6
  6
CONTINUOUS
10
33.492 
20
41.572 
11
34.021 
21
41.308
0
LINE
8
6
  6
CONTINUOUS
10
34.021 
20
41.308 
11
34.815 
21
41.308
0
LINE
8
6
  6
CONTINUOUS
10
34.815 
20
41.308 
11
35.344 
21
41.572
0
LINE
8
6
  6
CONTINUOUS
10
35.344 
20
41.572 
11
36.138 
21
42.366
0
LINE
8
6
  6
CONTINUOUS
10
36.138 
20
45.012 
11
36.138 
21
41.308
0
LINE
8
6
  6
CONTINUOUS
10
38.255 
20
45.012 
11
38.255 
21
41.308
0
LINE
8
6
  6
CONTINUOUS
10
38.255 
20
43.953 
11
39.048 
21
44.747
0
LINE
8
6
  6
CONTINUOUS
10
39.048 
20
44.747 
11
39.577 
21
45.012
0
LINE
8
6
  6
CONTINUOUS
10
39.577 
20
45.012 
11
40.371 
21
45.012
0
LINE
8
6
  6
CONTINUOUS
10
40.371 
20
45.012 
11
40.900 
21
44.747
0
LINE
8
6
  6
CONTINUOUS
10
40.900 
20
44.747 
11
41.165 
21
43.953
0
LINE
8
6
  6
CONTINUOUS
10
41.165 
20
43.953 
11
41.165 
21
41.308
0
LINE
8
6
  6
CONTINUOUS
10
46.192 
20
44.218 
11
45.663 
21
44.747
0
LINE
8
6
  6
CONTINUOUS
10
45.663 
20
44.747 
11
45.134 
21
45.012
0
LINE
8
6
  6
CONTINUOUS
10
45.134 
20
45.012 
11
44.340 
21
45.012
0
LINE
8
6
  6
CONTINUOUS
10
44.340 
20
45.012 
11
43.811 
21
44.747
0
LINE
8
6
  6
CONTINUOUS
10
43.811 
20
44.747 
11
43.282 
21
44.218
0
LINE
8
6
  6
CONTINUOUS
10
43.282 
20
44.218 
11
43.017 
21
43.424
0
LINE
8
6
  6
CONTINUOUS
10
43.017 
20
43.424 
11
43.017 
21
42.895
0
LINE
8
6
  6
CONTINUOUS
10
43.017 
20
42.895 
11
43.282 
21
42.101
0
LINE
8
6
  6
CONTINUOUS
10
43.282 
20
42.101 
11
43.811 
21
41.572
0
LINE
8
6
  6
CONTINUOUS
10
43.811 
20
41.572 
11
44.340 
21
41.308
0
LINE
8
6
  6
CONTINUOUS
10
44.340 
20
41.308 
11
45.134 
21
41.308
0
LINE
8
6
  6
CONTINUOUS
10
45.134 
20
41.308 
11
45.663 
21
41.572
0
LINE
8
6
  6
CONTINUOUS
10
45.663 
20
41.572 
11
46.192 
21
42.101
0
LINE
8
6
  6
CONTINUOUS
10
48.044 
20
46.864 
11
48.044 
21
41.308
0
LINE
8
6
  6
CONTINUOUS
10
48.044 
20
43.953 
11
48.838 
21
44.747
0
LINE
8
6
  6
CONTINUOUS
10
48.838 
20
44.747 
11
49.367 
21
45.012
0
LINE
8
6
  6
CONTINUOUS
10
49.367 
20
45.012 
11
50.161 
21
45.012
0
LINE
8
6
  6
CONTINUOUS
10
50.161 
20
45.012 
11
50.690 
21
44.747
0
LINE
8
6
  6
CONTINUOUS
10
50.690 
20
44.747 
11
50.955 
21
43.953
0
LINE
8
6
  6
CONTINUOUS
10
50.955 
20
43.953 
11
50.955 
21
41.308
0
LINE
8
6
  6
CONTINUOUS
10
52.945 
20
52.118 
11
53.475 
21
52.383
0
LINE
8
6
  6
CONTINUOUS
10
53.475 
20
52.383 
11
54.268 
21
53.177
0
LINE
8
6
  6
CONTINUOUS
10
54.268 
20
53.177 
11
54.268 
21
47.621
0
LINE
8
6
  6
CONTINUOUS
10
20.984 
20
53.288 
11
20.984 
21
47.732
0
LINE
8
6
  6
CONTINUOUS
10
24.688 
20
53.288 
11
24.688 
21
47.732
0
LINE
8
6
  6
CONTINUOUS
10
20.984 
20
50.642 
11
24.688 
21
50.642
0
LINE
8
6
  6
CONTINUOUS
10
26.276 
20
51.436 
11
27.863 
21
47.732
0
LINE
8
6
  6
CONTINUOUS
10
29.451 
20
51.436 
11
27.863 
21
47.732
0
LINE
8
6
  6
CONTINUOUS
10
27.863 
20
47.732 
11
27.334 
21
46.673
0
LINE
8
6
  6
CONTINUOUS
10
27.334 
20
46.673 
11
26.805 
21
46.144
0
LINE
8
6
  6
CONTINUOUS
10
26.805 
20
46.144 
11
26.276 
21
45.880
0
LINE
8
6
  6
CONTINUOUS
10
26.276 
20
45.880 
11
26.011 
21
45.880
0
LINE
8
6
  6
CONTINUOUS
10
31.038 
20
53.288 
11
31.038 
21
47.732
0
LINE
8
6
  6
CONTINUOUS
10
31.038 
20
50.642 
11
31.567 
21
51.171
0
LINE
8
6
  6
CONTINUOUS
10
31.567 
20
51.171 
11
32.096 
21
51.436
0
LINE
8
6
  6
CONTINUOUS
10
32.096 
20
51.436 
11
32.890 
21
51.436
0
LINE
8
6
  6
CONTINUOUS
10
32.890 
20
51.436 
11
33.419 
21
51.171
0
LINE
8
6
  6
CONTINUOUS
10
33.419 
20
51.171 
11
33.949 
21
50.642
0
LINE
8
6
  6
CONTINUOUS
10
33.949 
20
50.642 
11
34.213 
21
49.848
0
LINE
8
6
  6
CONTINUOUS
10
34.213 
20
49.848 
11
34.213 
21
49.319
0
LINE
8
6
  6
CONTINUOUS
10
34.213 
20
49.319 
11
33.949 
21
48.526
0
LINE
8
6
  6
CONTINUOUS
10
33.949 
20
48.526 
11
33.419 
21
47.996
0
LINE
8
6
  6
CONTINUOUS
10
33.419 
20
47.996 
11
32.890 
21
47.732
0
LINE
8
6
  6
CONTINUOUS
10
32.890 
20
47.732 
11
32.096 
21
47.732
0
LINE
8
6
  6
CONTINUOUS
10
32.096 
20
47.732 
11
31.567 
21
47.996
0
LINE
8
6
  6
CONTINUOUS
10
31.567 
20
47.996 
11
31.038 
21
48.526
0
LINE
8
6
  6
CONTINUOUS
10
36.065 
20
51.436 
11
36.065 
21
47.732
0
LINE
8
6
  6
CONTINUOUS
10
36.065 
20
49.848 
11
36.330 
21
50.642
0
LINE
8
6
  6
CONTINUOUS
10
36.330 
20
50.642 
11
36.859 
21
51.171
0
LINE
8
6
  6
CONTINUOUS
10
36.859 
20
51.171 
11
37.388 
21
51.436
0
LINE
8
6
  6
CONTINUOUS
10
37.388 
20
51.436 
11
38.182 
21
51.436
0
LINE
8
6
  6
CONTINUOUS
10
39.240 
20
53.288 
11
39.505 
21
53.023
0
LINE
8
6
  6
CONTINUOUS
10
39.505 
20
53.023 
11
39.769 
21
53.288
0
LINE
8
6
  6
CONTINUOUS
10
39.769 
20
53.288 
11
39.505 
21
53.553
0
LINE
8
6
  6
CONTINUOUS
10
39.505 
20
53.553 
11
39.240 
21
53.288
0
LINE
8
6
  6
CONTINUOUS
10
39.505 
20
51.436 
11
39.505 
21
47.732
0
LINE
8
6
  6
CONTINUOUS
10
44.532 
20
53.288 
11
44.532 
21
47.732
0
LINE
8
6
  6
CONTINUOUS
10
44.532 
20
50.642 
11
44.003 
21
51.171
0
LINE
8
6
  6
CONTINUOUS
10
44.003 
20
51.171 
11
43.474 
21
51.436
0
LINE
8
6
  6
CONTINUOUS
10
43.474 
20
51.436 
11
42.680 
21
51.436
0
LINE
8
6
  6
CONTINUOUS
10
42.680 
20
51.436 
11
42.151 
21
51.171
0
LINE
8
6
  6
CONTINUOUS
10
42.151 
20
51.171 
11
41.621 
21
50.642
0
LINE
8
6
  6
CONTINUOUS
10
41.621 
20
50.642 
11
41.357 
21
49.848
0
LINE
8
6
  6
CONTINUOUS
10
41.357 
20
49.848 
11
41.357 
21
49.319
0
LINE
8
6
  6
CONTINUOUS
10
41.357 
20
49.319 
11
41.621 
21
48.526
0
LINE
8
6
  6
CONTINUOUS
10
41.621 
20
48.526 
11
42.151 
21
47.996
0
LINE
8
6
  6
CONTINUOUS
10
42.151 
20
47.996 
11
42.680 
21
47.732
0
LINE
8
6
  6
CONTINUOUS
10
42.680 
20
47.732 
11
43.474 
21
47.732
0
LINE
8
6
  6
CONTINUOUS
10
43.474 
20
47.732 
11
44.003 
21
47.996
0
LINE
8
6
  6
CONTINUOUS
10
44.003 
20
47.996 
11
44.532 
21
48.526
0
CIRCLE
8
7
6
CONTINUOUS
10
340.377
20
39.711
40
1.5000
0
ENDSEC
0
EOF
